<svg width="224" height="37" viewBox="0 0 224 37" fill="none" xmlns="http://www.w3.org/2000/svg">
<mask id="path-1-outside-1_417_100" maskUnits="userSpaceOnUse" x="0.523926" y="0" width="224" height="37" fill="black">
<rect fill="white" x="0.523926" width="224" height="37"/>
<path d="M24.9959 23.752C24.8999 24.064 24.8519 24.376 24.8519 24.688C24.8519 24.952 24.8879 25.18 24.9599 25.372C25.0319 25.54 25.1039 25.684 25.1759 25.804C25.2719 25.9 25.3319 25.972 25.3559 26.02C25.5959 26.26 25.7159 26.5 25.7159 26.74C25.7159 26.788 25.6919 26.908 25.6439 27.1C25.5479 27.436 25.3319 27.676 24.9959 27.82C24.6839 27.94 24.1919 28 23.5199 28H14.9879C14.4839 28 14.0879 27.916 13.7999 27.748C13.5359 27.58 13.4039 27.352 13.4039 27.064C13.4039 26.92 13.4399 26.764 13.5119 26.596C13.5839 26.404 13.6799 26.26 13.7999 26.164C13.9439 26.044 14.1359 25.912 14.3759 25.768C14.7599 25.552 15.0719 25.312 15.3119 25.048C15.5519 24.784 15.7559 24.352 15.9239 23.752L16.8599 20.656H11.2439L10.2719 22.708C9.86393 23.596 9.65993 24.292 9.65993 24.796C9.65993 25.084 9.70793 25.324 9.80393 25.516C9.89993 25.684 10.0439 25.864 10.2359 26.056C10.4039 26.248 10.5119 26.416 10.5599 26.56C10.6319 26.68 10.6439 26.848 10.5959 27.064C10.4999 27.424 10.2959 27.676 9.98393 27.82C9.69593 27.94 9.22793 28 8.57993 28H3.21593C2.66393 28 2.24393 27.904 1.95593 27.712C1.66793 27.496 1.52393 27.22 1.52393 26.884C1.52393 26.5 1.66793 26.2 1.95593 25.984C2.21993 25.744 2.62793 25.492 3.17993 25.228C3.89993 24.868 4.47593 24.52 4.90793 24.184C5.33993 23.824 5.71193 23.332 6.02393 22.708L12.4319 9.424C13.4159 7.36 14.5679 5.872 15.8879 4.96C17.2319 4.024 18.9959 3.556 21.1799 3.556C23.6279 3.556 25.5239 4.06 26.8679 5.068C28.2119 6.052 28.8839 7.432 28.8839 9.208C28.8839 9.952 28.7639 10.72 28.5239 11.512L24.9959 23.752ZM17.9399 17.056L19.8479 10.72C19.9439 10.432 19.9919 10.132 19.9919 9.82C19.9919 9.364 19.8599 9.028 19.5959 8.812C19.3559 8.572 19.0079 8.452 18.5519 8.452C17.9759 8.452 17.4839 8.62 17.0759 8.956C16.6679 9.292 16.2599 9.892 15.8519 10.756L12.8999 17.056H17.9399Z"/>
<path d="M45.7046 1.396C48.2726 1.396 50.1926 1.792 51.4646 2.584C52.7606 3.352 53.4086 4.3 53.4086 5.428C53.4086 6.34 53.0246 7.048 52.2566 7.552C51.5126 8.032 50.5286 8.272 49.3046 8.272C48.1766 8.272 47.3006 7.996 46.6766 7.444C46.0526 6.892 45.7406 6.208 45.7406 5.392C45.7406 4.888 45.8966 4.36 46.2086 3.808C45.4886 3.808 44.8886 3.988 44.4086 4.348C43.9286 4.684 43.5566 5.272 43.2926 6.112C43.1486 6.64 43.0766 7.132 43.0766 7.588C43.0766 8.164 43.1726 8.62 43.3646 8.956C43.5806 9.268 43.8806 9.424 44.2646 9.424H46.3886C47.6366 9.424 48.2606 9.808 48.2606 10.576C48.2606 10.672 48.2366 10.816 48.1886 11.008C48.0446 11.536 47.7446 11.932 47.2886 12.196C46.8566 12.46 46.1966 12.592 45.3086 12.592H44.2286L40.6646 24.256C40.5926 24.544 40.5566 24.796 40.5566 25.012C40.5566 25.324 40.6166 25.576 40.7366 25.768C40.8566 25.936 41.0246 26.104 41.2406 26.272C41.4086 26.44 41.5286 26.584 41.6006 26.704C41.6726 26.8 41.6846 26.932 41.6366 27.1C41.5166 27.412 41.2766 27.64 40.9166 27.784C40.5566 27.928 40.0046 28 39.2606 28H31.0526C30.4286 28 29.9726 27.904 29.6846 27.712C29.3966 27.496 29.3006 27.22 29.3966 26.884C29.4926 26.596 29.7446 26.344 30.1526 26.128C30.5126 25.936 30.8126 25.708 31.0526 25.444C31.2926 25.18 31.4966 24.76 31.6646 24.184L34.4726 14.968C34.5926 14.608 34.6526 14.236 34.6526 13.852C34.6526 13.372 34.5446 13 34.3286 12.736C34.1366 12.448 33.8366 12.136 33.4286 11.8C33.1646 11.584 32.9606 11.404 32.8166 11.26C32.6966 11.092 32.6366 10.9 32.6366 10.684C32.6126 10.228 32.7686 9.904 33.1046 9.712C33.4646 9.52 34.1366 9.424 35.1206 9.424H36.0206C35.8526 8.824 35.7686 8.224 35.7686 7.624C35.7686 7.024 35.8766 6.4 36.0926 5.752C36.5486 4.528 37.5206 3.496 39.0086 2.656C40.5206 1.816 42.7526 1.396 45.7046 1.396Z"/>
<path d="M66.5492 8.956C67.8932 8.956 68.9612 9.364 69.7532 10.18C70.5692 10.996 70.9772 12.004 70.9772 13.204C70.9772 13.66 70.9292 14.08 70.8332 14.464C70.5932 15.448 70.1372 16.204 69.4652 16.732C68.7932 17.26 67.9892 17.524 67.0532 17.524C66.1412 17.524 65.4452 17.308 64.9652 16.876C64.5092 16.444 64.1012 15.868 63.7412 15.148C63.5492 14.74 63.3692 14.44 63.2012 14.248C63.0332 14.056 62.8412 13.96 62.6252 13.96C62.3852 13.96 62.1692 14.056 61.9772 14.248C61.8092 14.44 61.6532 14.776 61.5092 15.256L58.7372 24.256C58.6892 24.376 58.6652 24.556 58.6652 24.796C58.6652 25.108 58.7492 25.372 58.9172 25.588C59.1092 25.78 59.3612 25.972 59.6732 26.164C59.9612 26.356 60.1532 26.512 60.2492 26.632C60.3452 26.752 60.3812 26.908 60.3572 27.1C60.3092 27.412 60.1292 27.64 59.8172 27.784C59.5292 27.928 59.0252 28 58.3052 28H49.0892C48.4652 28 48.0212 27.904 47.7572 27.712C47.4692 27.496 47.3612 27.22 47.4332 26.884C47.5292 26.596 47.7812 26.344 48.1892 26.128C48.5492 25.936 48.8492 25.708 49.0892 25.444C49.3292 25.18 49.5332 24.76 49.7012 24.184L52.9052 13.78C52.9532 13.66 52.9772 13.492 52.9772 13.276C52.9772 13.012 52.9172 12.808 52.7972 12.664C52.7012 12.52 52.5332 12.34 52.2932 12.124C52.0532 11.932 51.8852 11.764 51.7892 11.62C51.6932 11.476 51.6812 11.284 51.7532 11.044C51.8972 10.492 52.6532 10.012 54.0212 9.604C55.3892 9.172 56.8172 8.956 58.3052 8.956C59.2892 8.956 60.1052 9.184 60.7532 9.64C61.4012 10.072 61.8212 10.696 62.0132 11.512C63.1652 9.808 64.6772 8.956 66.5492 8.956Z"/>
<path d="M86.5329 8.956C89.7969 8.956 92.1969 9.616 93.7329 10.936C95.2929 12.256 96.0729 13.984 96.0729 16.12C96.0729 16.84 95.9769 17.644 95.7849 18.532C95.3289 20.5 94.4769 22.228 93.2289 23.716C91.9809 25.18 90.4449 26.32 88.6209 27.136C86.8209 27.928 84.8649 28.324 82.7529 28.324C79.4169 28.324 76.9449 27.664 75.3369 26.344C73.7529 25 72.9609 23.224 72.9609 21.016C72.9609 20.272 73.0569 19.444 73.2489 18.532C73.7049 16.66 74.5689 15.004 75.8409 13.564C77.1369 12.1 78.7089 10.972 80.5569 10.18C82.4289 9.364 84.4209 8.956 86.5329 8.956ZM86.4249 12.16C85.9209 12.16 85.3809 12.616 84.8049 13.528C84.2529 14.416 83.5929 16.108 82.8249 18.604C82.0569 21.1 81.6729 22.852 81.6729 23.86C81.6729 24.388 81.7569 24.748 81.9249 24.94C82.0929 25.108 82.3209 25.192 82.6089 25.192C83.1129 25.24 83.6289 24.808 84.1569 23.896C84.7089 22.984 85.3929 21.208 86.2089 18.568C86.9529 16.24 87.3249 14.548 87.3249 13.492C87.3249 12.988 87.2409 12.64 87.0729 12.448C86.9289 12.256 86.7129 12.16 86.4249 12.16Z"/>
<path d="M120.922 3.088C121.69 3.088 122.434 3.256 123.154 3.592C123.898 3.904 124.498 4.348 124.954 4.924C125.434 5.476 125.674 6.076 125.674 6.724C125.674 8.14 124.714 8.848 122.794 8.848C122.242 8.848 121.81 8.812 121.498 8.74C121.21 8.644 120.862 8.5 120.454 8.308C120.382 8.476 120.346 8.716 120.346 9.028C120.346 9.412 120.406 9.868 120.526 10.396C120.67 10.924 120.838 11.416 121.03 11.872C121.534 12.616 121.786 13.504 121.786 14.536C121.786 14.992 121.726 15.544 121.606 16.192C121.318 17.44 120.682 18.58 119.698 19.612C118.738 20.644 117.49 21.46 115.954 22.06C114.442 22.636 112.774 22.924 110.95 22.924C109.558 22.924 108.25 22.828 107.026 22.636C106.666 22.948 106.486 23.332 106.486 23.788C106.486 24.1 106.63 24.364 106.918 24.58C107.206 24.772 107.686 24.868 108.358 24.868H113.758C115.606 24.868 117.046 25.192 118.078 25.84C119.11 26.464 119.626 27.364 119.626 28.54C119.626 28.972 119.554 29.416 119.41 29.872C119.122 30.808 118.462 31.672 117.43 32.464C116.422 33.28 114.994 33.94 113.146 34.444C111.298 34.948 109.054 35.2 106.414 35.2C104.062 35.2 102.07 34.996 100.438 34.588C98.8059 34.18 97.5939 33.616 96.8019 32.896C95.9859 32.2 95.5779 31.42 95.5779 30.556C95.5779 30.364 95.6259 30.076 95.7219 29.692C95.9379 28.996 96.4299 28.432 97.1979 28C97.9419 27.544 99.1779 27.244 100.906 27.1C100.33 26.548 100.042 25.888 100.042 25.12C100.042 24.856 100.078 24.58 100.15 24.292C100.534 23.044 101.662 22.12 103.534 21.52C101.734 20.536 100.834 19.096 100.834 17.2C100.834 16.672 100.906 16.12 101.05 15.544C101.338 14.296 101.974 13.168 102.958 12.16C103.942 11.128 105.202 10.312 106.738 9.712C108.274 9.112 109.954 8.812 111.778 8.812C114.634 8.812 116.878 9.184 118.51 9.928C118.15 9.376 117.862 8.788 117.646 8.164C117.454 7.516 117.358 6.928 117.358 6.4C117.358 5.488 117.646 4.708 118.222 4.06C118.822 3.412 119.722 3.088 120.922 3.088ZM113.11 15.868C113.494 14.644 113.686 13.708 113.686 13.06C113.686 12.244 113.338 11.836 112.642 11.836C112.042 11.836 111.514 12.136 111.058 12.736C110.626 13.312 110.182 14.356 109.726 15.868C109.342 17.116 109.15 18.064 109.15 18.712C109.15 19.504 109.486 19.9 110.158 19.9C110.758 19.9 111.286 19.6 111.742 19C112.198 18.4 112.654 17.356 113.11 15.868ZM105.946 28.504C105.274 28.504 104.662 28.468 104.11 28.396C103.822 28.756 103.678 29.236 103.678 29.836C103.702 30.436 103.942 30.868 104.398 31.132C104.878 31.396 105.61 31.528 106.594 31.528C107.794 31.528 108.766 31.348 109.51 30.988C110.278 30.628 110.662 30.112 110.662 29.44C110.662 29.152 110.554 28.924 110.338 28.756C110.122 28.588 109.81 28.504 109.402 28.504H105.946Z"/>
<path d="M136.673 1.396C138.065 1.396 139.085 1.66 139.733 2.188C140.405 2.716 140.741 3.436 140.741 4.348C140.741 4.876 140.657 5.392 140.489 5.896L134.837 24.256C134.765 24.544 134.729 24.796 134.729 25.012C134.729 25.324 134.789 25.576 134.909 25.768C135.029 25.936 135.197 26.104 135.413 26.272C135.581 26.44 135.701 26.584 135.773 26.704C135.845 26.8 135.857 26.932 135.809 27.1C135.689 27.412 135.449 27.64 135.089 27.784C134.729 27.928 134.177 28 133.433 28H125.225C124.601 28 124.145 27.904 123.857 27.712C123.569 27.496 123.473 27.22 123.569 26.884C123.665 26.596 123.917 26.344 124.325 26.128C124.685 25.936 124.985 25.708 125.225 25.444C125.465 25.18 125.669 24.76 125.837 24.184L131.309 6.22C131.381 6.004 131.417 5.824 131.417 5.68C131.417 5.416 131.345 5.2 131.201 5.032C131.081 4.864 130.913 4.696 130.697 4.528C130.457 4.336 130.277 4.168 130.157 4.024C130.061 3.88 130.049 3.688 130.121 3.448C130.265 2.896 131.021 2.416 132.389 2.008C133.757 1.6 135.185 1.396 136.673 1.396Z"/>
<path d="M150.721 8.956C152.113 8.956 153.133 9.22 153.781 9.748C154.429 10.276 154.753 10.996 154.753 11.908C154.753 12.46 154.669 12.988 154.501 13.492L151.189 24.256C151.117 24.544 151.081 24.796 151.081 25.012C151.081 25.324 151.141 25.576 151.261 25.768C151.381 25.936 151.549 26.104 151.765 26.272C151.933 26.44 152.053 26.584 152.125 26.704C152.197 26.8 152.209 26.932 152.161 27.1C152.041 27.412 151.801 27.64 151.441 27.784C151.081 27.928 150.529 28 149.785 28H141.577C140.953 28 140.497 27.904 140.209 27.712C139.921 27.496 139.825 27.22 139.921 26.884C140.017 26.596 140.269 26.344 140.677 26.128C141.037 25.936 141.337 25.708 141.577 25.444C141.817 25.18 142.021 24.76 142.189 24.184L145.321 13.78C145.393 13.564 145.429 13.384 145.429 13.24C145.429 12.976 145.369 12.772 145.249 12.628C145.129 12.46 144.949 12.292 144.709 12.124C144.469 11.932 144.301 11.764 144.205 11.62C144.109 11.476 144.097 11.284 144.169 11.044C144.313 10.492 145.069 10.012 146.437 9.604C147.805 9.172 149.233 8.956 150.721 8.956ZM153.133 1C154.069 1 154.849 1.312 155.473 1.936C156.097 2.536 156.409 3.28 156.409 4.168C156.409 4.792 156.241 5.404 155.905 6.004C155.593 6.604 155.137 7.096 154.537 7.48C153.961 7.84 153.313 8.02 152.593 8.02C151.681 8.02 150.913 7.72 150.289 7.12C149.689 6.496 149.377 5.728 149.353 4.816C149.353 4.216 149.509 3.628 149.821 3.052C150.133 2.452 150.577 1.96 151.153 1.576C151.729 1.192 152.389 1 153.133 1Z"/>
<path d="M173.408 9.424C173.864 9.424 174.212 9.52 174.452 9.712C174.716 9.904 174.848 10.168 174.848 10.504C174.848 10.6 174.824 10.768 174.776 11.008C174.464 12.064 173.744 12.592 172.616 12.592H170.528L167.828 21.484C167.708 21.844 167.648 22.216 167.648 22.6C167.648 23.032 167.768 23.332 168.008 23.5C168.248 23.668 168.584 23.752 169.016 23.752C169.4 23.752 169.88 23.704 170.456 23.608C170.744 23.536 170.996 23.5 171.212 23.5C171.38 23.5 171.5 23.56 171.572 23.68C171.668 23.776 171.716 23.908 171.716 24.076C171.74 24.556 171.38 25.144 170.636 25.84C169.916 26.512 168.932 27.1 167.684 27.604C166.436 28.084 165.056 28.324 163.544 28.324C161.912 28.324 160.604 27.952 159.62 27.208C158.636 26.464 158.144 25.444 158.144 24.148C158.144 23.548 158.24 22.972 158.432 22.42L160.736 15.292C160.856 14.884 160.916 14.56 160.916 14.32C160.916 13.84 160.796 13.432 160.556 13.096C160.34 12.76 160.028 12.412 159.62 12.052C159.26 11.716 159.008 11.44 158.864 11.224C158.72 10.984 158.684 10.708 158.756 10.396C158.852 10.084 159.056 9.844 159.368 9.676C159.68 9.508 160.172 9.424 160.844 9.424H162.86L165.128 7.156C165.92 6.364 166.64 5.812 167.288 5.5C167.96 5.188 168.824 5.032 169.88 5.032C171.392 5.032 172.148 5.608 172.148 6.76C172.148 7.12 172.1 7.456 172.004 7.768L171.5 9.424H173.408Z"/>
<path d="M188.733 8.776C190.197 8.776 191.481 8.992 192.585 9.424C193.689 9.832 194.541 10.408 195.141 11.152C195.765 11.872 196.077 12.676 196.077 13.564C196.077 14.524 195.741 15.316 195.069 15.94C194.421 16.564 193.533 16.876 192.405 16.876C191.253 16.876 190.353 16.588 189.705 16.012C189.057 15.412 188.733 14.608 188.733 13.6C188.733 13.12 188.805 12.616 188.949 12.088C187.941 12.352 187.041 12.88 186.249 13.672C185.481 14.44 184.965 15.46 184.701 16.732C184.557 17.452 184.485 18.1 184.485 18.676C184.485 19.972 184.845 20.956 185.565 21.628C186.285 22.3 187.317 22.636 188.661 22.636C189.429 22.636 190.089 22.564 190.641 22.42C191.193 22.252 191.757 22.036 192.333 21.772C192.813 21.532 193.161 21.412 193.377 21.412C193.521 21.412 193.617 21.448 193.665 21.52C193.713 21.568 193.737 21.688 193.737 21.88C193.761 22.768 193.389 23.704 192.621 24.688C191.877 25.648 190.833 26.464 189.489 27.136C188.169 27.784 186.681 28.108 185.025 28.108C183.297 28.108 181.761 27.796 180.417 27.172C179.097 26.524 178.065 25.612 177.321 24.436C176.601 23.236 176.241 21.844 176.241 20.26C176.241 19.516 176.337 18.688 176.529 17.776C177.177 14.8 178.605 12.556 180.813 11.044C183.045 9.532 185.685 8.776 188.733 8.776Z"/>
<path d="M220.125 23.032C220.077 23.128 220.053 23.272 220.053 23.464C220.053 23.632 220.089 23.764 220.161 23.86C220.257 23.956 220.377 24.004 220.521 24.004C220.809 24.004 221.049 23.884 221.241 23.644C221.457 23.38 221.601 23.248 221.673 23.248C221.793 23.248 221.889 23.332 221.961 23.5C222.033 23.644 222.069 23.824 222.069 24.04C222.093 24.736 221.865 25.42 221.385 26.092C220.905 26.74 220.197 27.28 219.261 27.712C218.349 28.12 217.245 28.324 215.949 28.324C214.365 28.324 213.105 27.964 212.169 27.244C211.233 26.5 210.753 25.516 210.729 24.292C210.729 23.404 210.945 22.408 211.377 21.304L213.357 16.12C213.477 15.808 213.537 15.556 213.537 15.364C213.537 15.052 213.429 14.812 213.213 14.644C213.021 14.452 212.781 14.356 212.493 14.356C212.037 14.356 211.569 14.572 211.089 15.004C210.633 15.412 210.261 16.084 209.973 17.02V16.948L207.705 24.256C207.633 24.544 207.597 24.796 207.597 25.012C207.597 25.324 207.657 25.576 207.777 25.768C207.897 25.936 208.065 26.104 208.281 26.272C208.449 26.44 208.569 26.584 208.641 26.704C208.713 26.8 208.725 26.932 208.677 27.1C208.557 27.412 208.317 27.64 207.957 27.784C207.597 27.928 207.045 28 206.301 28H198.093C197.469 28 197.013 27.904 196.725 27.712C196.437 27.496 196.341 27.22 196.437 26.884C196.533 26.596 196.785 26.344 197.193 26.128C197.553 25.936 197.853 25.708 198.093 25.444C198.333 25.18 198.537 24.76 198.705 24.184L204.177 6.22C204.249 6.004 204.285 5.824 204.285 5.68C204.285 5.416 204.213 5.2 204.069 5.032C203.949 4.864 203.781 4.696 203.565 4.528C203.325 4.336 203.145 4.168 203.025 4.024C202.929 3.88 202.917 3.688 202.989 3.448C203.133 2.896 203.889 2.416 205.257 2.008C206.625 1.6 208.053 1.396 209.541 1.396C210.933 1.396 211.953 1.66 212.601 2.188C213.273 2.716 213.609 3.436 213.609 4.348C213.609 4.876 213.525 5.392 213.357 5.896L211.413 12.232C212.349 11.008 213.333 10.156 214.365 9.676C215.421 9.196 216.561 8.956 217.785 8.956C219.249 8.956 220.425 9.4 221.313 10.288C222.225 11.176 222.681 12.328 222.681 13.744C222.681 14.488 222.561 15.22 222.321 15.94L220.125 23.032Z"/>
</mask>
<path d="M24.9959 23.752C24.8999 24.064 24.8519 24.376 24.8519 24.688C24.8519 24.952 24.8879 25.18 24.9599 25.372C25.0319 25.54 25.1039 25.684 25.1759 25.804C25.2719 25.9 25.3319 25.972 25.3559 26.02C25.5959 26.26 25.7159 26.5 25.7159 26.74C25.7159 26.788 25.6919 26.908 25.6439 27.1C25.5479 27.436 25.3319 27.676 24.9959 27.82C24.6839 27.94 24.1919 28 23.5199 28H14.9879C14.4839 28 14.0879 27.916 13.7999 27.748C13.5359 27.58 13.4039 27.352 13.4039 27.064C13.4039 26.92 13.4399 26.764 13.5119 26.596C13.5839 26.404 13.6799 26.26 13.7999 26.164C13.9439 26.044 14.1359 25.912 14.3759 25.768C14.7599 25.552 15.0719 25.312 15.3119 25.048C15.5519 24.784 15.7559 24.352 15.9239 23.752L16.8599 20.656H11.2439L10.2719 22.708C9.86393 23.596 9.65993 24.292 9.65993 24.796C9.65993 25.084 9.70793 25.324 9.80393 25.516C9.89993 25.684 10.0439 25.864 10.2359 26.056C10.4039 26.248 10.5119 26.416 10.5599 26.56C10.6319 26.68 10.6439 26.848 10.5959 27.064C10.4999 27.424 10.2959 27.676 9.98393 27.82C9.69593 27.94 9.22793 28 8.57993 28H3.21593C2.66393 28 2.24393 27.904 1.95593 27.712C1.66793 27.496 1.52393 27.22 1.52393 26.884C1.52393 26.5 1.66793 26.2 1.95593 25.984C2.21993 25.744 2.62793 25.492 3.17993 25.228C3.89993 24.868 4.47593 24.52 4.90793 24.184C5.33993 23.824 5.71193 23.332 6.02393 22.708L12.4319 9.424C13.4159 7.36 14.5679 5.872 15.8879 4.96C17.2319 4.024 18.9959 3.556 21.1799 3.556C23.6279 3.556 25.5239 4.06 26.8679 5.068C28.2119 6.052 28.8839 7.432 28.8839 9.208C28.8839 9.952 28.7639 10.72 28.5239 11.512L24.9959 23.752ZM17.9399 17.056L19.8479 10.72C19.9439 10.432 19.9919 10.132 19.9919 9.82C19.9919 9.364 19.8599 9.028 19.5959 8.812C19.3559 8.572 19.0079 8.452 18.5519 8.452C17.9759 8.452 17.4839 8.62 17.0759 8.956C16.6679 9.292 16.2599 9.892 15.8519 10.756L12.8999 17.056H17.9399Z" stroke="white" stroke-width="2" mask="url(#path-1-outside-1_417_100)"/>
<path d="M45.7046 1.396C48.2726 1.396 50.1926 1.792 51.4646 2.584C52.7606 3.352 53.4086 4.3 53.4086 5.428C53.4086 6.34 53.0246 7.048 52.2566 7.552C51.5126 8.032 50.5286 8.272 49.3046 8.272C48.1766 8.272 47.3006 7.996 46.6766 7.444C46.0526 6.892 45.7406 6.208 45.7406 5.392C45.7406 4.888 45.8966 4.36 46.2086 3.808C45.4886 3.808 44.8886 3.988 44.4086 4.348C43.9286 4.684 43.5566 5.272 43.2926 6.112C43.1486 6.64 43.0766 7.132 43.0766 7.588C43.0766 8.164 43.1726 8.62 43.3646 8.956C43.5806 9.268 43.8806 9.424 44.2646 9.424H46.3886C47.6366 9.424 48.2606 9.808 48.2606 10.576C48.2606 10.672 48.2366 10.816 48.1886 11.008C48.0446 11.536 47.7446 11.932 47.2886 12.196C46.8566 12.46 46.1966 12.592 45.3086 12.592H44.2286L40.6646 24.256C40.5926 24.544 40.5566 24.796 40.5566 25.012C40.5566 25.324 40.6166 25.576 40.7366 25.768C40.8566 25.936 41.0246 26.104 41.2406 26.272C41.4086 26.44 41.5286 26.584 41.6006 26.704C41.6726 26.8 41.6846 26.932 41.6366 27.1C41.5166 27.412 41.2766 27.64 40.9166 27.784C40.5566 27.928 40.0046 28 39.2606 28H31.0526C30.4286 28 29.9726 27.904 29.6846 27.712C29.3966 27.496 29.3006 27.22 29.3966 26.884C29.4926 26.596 29.7446 26.344 30.1526 26.128C30.5126 25.936 30.8126 25.708 31.0526 25.444C31.2926 25.18 31.4966 24.76 31.6646 24.184L34.4726 14.968C34.5926 14.608 34.6526 14.236 34.6526 13.852C34.6526 13.372 34.5446 13 34.3286 12.736C34.1366 12.448 33.8366 12.136 33.4286 11.8C33.1646 11.584 32.9606 11.404 32.8166 11.26C32.6966 11.092 32.6366 10.9 32.6366 10.684C32.6126 10.228 32.7686 9.904 33.1046 9.712C33.4646 9.52 34.1366 9.424 35.1206 9.424H36.0206C35.8526 8.824 35.7686 8.224 35.7686 7.624C35.7686 7.024 35.8766 6.4 36.0926 5.752C36.5486 4.528 37.5206 3.496 39.0086 2.656C40.5206 1.816 42.7526 1.396 45.7046 1.396Z" stroke="white" stroke-width="2" mask="url(#path-1-outside-1_417_100)"/>
<path d="M66.5492 8.956C67.8932 8.956 68.9612 9.364 69.7532 10.18C70.5692 10.996 70.9772 12.004 70.9772 13.204C70.9772 13.66 70.9292 14.08 70.8332 14.464C70.5932 15.448 70.1372 16.204 69.4652 16.732C68.7932 17.26 67.9892 17.524 67.0532 17.524C66.1412 17.524 65.4452 17.308 64.9652 16.876C64.5092 16.444 64.1012 15.868 63.7412 15.148C63.5492 14.74 63.3692 14.44 63.2012 14.248C63.0332 14.056 62.8412 13.96 62.6252 13.96C62.3852 13.96 62.1692 14.056 61.9772 14.248C61.8092 14.44 61.6532 14.776 61.5092 15.256L58.7372 24.256C58.6892 24.376 58.6652 24.556 58.6652 24.796C58.6652 25.108 58.7492 25.372 58.9172 25.588C59.1092 25.78 59.3612 25.972 59.6732 26.164C59.9612 26.356 60.1532 26.512 60.2492 26.632C60.3452 26.752 60.3812 26.908 60.3572 27.1C60.3092 27.412 60.1292 27.64 59.8172 27.784C59.5292 27.928 59.0252 28 58.3052 28H49.0892C48.4652 28 48.0212 27.904 47.7572 27.712C47.4692 27.496 47.3612 27.22 47.4332 26.884C47.5292 26.596 47.7812 26.344 48.1892 26.128C48.5492 25.936 48.8492 25.708 49.0892 25.444C49.3292 25.18 49.5332 24.76 49.7012 24.184L52.9052 13.78C52.9532 13.66 52.9772 13.492 52.9772 13.276C52.9772 13.012 52.9172 12.808 52.7972 12.664C52.7012 12.52 52.5332 12.34 52.2932 12.124C52.0532 11.932 51.8852 11.764 51.7892 11.62C51.6932 11.476 51.6812 11.284 51.7532 11.044C51.8972 10.492 52.6532 10.012 54.0212 9.604C55.3892 9.172 56.8172 8.956 58.3052 8.956C59.2892 8.956 60.1052 9.184 60.7532 9.64C61.4012 10.072 61.8212 10.696 62.0132 11.512C63.1652 9.808 64.6772 8.956 66.5492 8.956Z" stroke="white" stroke-width="2" mask="url(#path-1-outside-1_417_100)"/>
<path d="M86.5329 8.956C89.7969 8.956 92.1969 9.616 93.7329 10.936C95.2929 12.256 96.0729 13.984 96.0729 16.12C96.0729 16.84 95.9769 17.644 95.7849 18.532C95.3289 20.5 94.4769 22.228 93.2289 23.716C91.9809 25.18 90.4449 26.32 88.6209 27.136C86.8209 27.928 84.8649 28.324 82.7529 28.324C79.4169 28.324 76.9449 27.664 75.3369 26.344C73.7529 25 72.9609 23.224 72.9609 21.016C72.9609 20.272 73.0569 19.444 73.2489 18.532C73.7049 16.66 74.5689 15.004 75.8409 13.564C77.1369 12.1 78.7089 10.972 80.5569 10.18C82.4289 9.364 84.4209 8.956 86.5329 8.956ZM86.4249 12.16C85.9209 12.16 85.3809 12.616 84.8049 13.528C84.2529 14.416 83.5929 16.108 82.8249 18.604C82.0569 21.1 81.6729 22.852 81.6729 23.86C81.6729 24.388 81.7569 24.748 81.9249 24.94C82.0929 25.108 82.3209 25.192 82.6089 25.192C83.1129 25.24 83.6289 24.808 84.1569 23.896C84.7089 22.984 85.3929 21.208 86.2089 18.568C86.9529 16.24 87.3249 14.548 87.3249 13.492C87.3249 12.988 87.2409 12.64 87.0729 12.448C86.9289 12.256 86.7129 12.16 86.4249 12.16Z" stroke="white" stroke-width="2" mask="url(#path-1-outside-1_417_100)"/>
<path d="M120.922 3.088C121.69 3.088 122.434 3.256 123.154 3.592C123.898 3.904 124.498 4.348 124.954 4.924C125.434 5.476 125.674 6.076 125.674 6.724C125.674 8.14 124.714 8.848 122.794 8.848C122.242 8.848 121.81 8.812 121.498 8.74C121.21 8.644 120.862 8.5 120.454 8.308C120.382 8.476 120.346 8.716 120.346 9.028C120.346 9.412 120.406 9.868 120.526 10.396C120.67 10.924 120.838 11.416 121.03 11.872C121.534 12.616 121.786 13.504 121.786 14.536C121.786 14.992 121.726 15.544 121.606 16.192C121.318 17.44 120.682 18.58 119.698 19.612C118.738 20.644 117.49 21.46 115.954 22.06C114.442 22.636 112.774 22.924 110.95 22.924C109.558 22.924 108.25 22.828 107.026 22.636C106.666 22.948 106.486 23.332 106.486 23.788C106.486 24.1 106.63 24.364 106.918 24.58C107.206 24.772 107.686 24.868 108.358 24.868H113.758C115.606 24.868 117.046 25.192 118.078 25.84C119.11 26.464 119.626 27.364 119.626 28.54C119.626 28.972 119.554 29.416 119.41 29.872C119.122 30.808 118.462 31.672 117.43 32.464C116.422 33.28 114.994 33.94 113.146 34.444C111.298 34.948 109.054 35.2 106.414 35.2C104.062 35.2 102.07 34.996 100.438 34.588C98.8059 34.18 97.5939 33.616 96.8019 32.896C95.9859 32.2 95.5779 31.42 95.5779 30.556C95.5779 30.364 95.6259 30.076 95.7219 29.692C95.9379 28.996 96.4299 28.432 97.1979 28C97.9419 27.544 99.1779 27.244 100.906 27.1C100.33 26.548 100.042 25.888 100.042 25.12C100.042 24.856 100.078 24.58 100.15 24.292C100.534 23.044 101.662 22.12 103.534 21.52C101.734 20.536 100.834 19.096 100.834 17.2C100.834 16.672 100.906 16.12 101.05 15.544C101.338 14.296 101.974 13.168 102.958 12.16C103.942 11.128 105.202 10.312 106.738 9.712C108.274 9.112 109.954 8.812 111.778 8.812C114.634 8.812 116.878 9.184 118.51 9.928C118.15 9.376 117.862 8.788 117.646 8.164C117.454 7.516 117.358 6.928 117.358 6.4C117.358 5.488 117.646 4.708 118.222 4.06C118.822 3.412 119.722 3.088 120.922 3.088ZM113.11 15.868C113.494 14.644 113.686 13.708 113.686 13.06C113.686 12.244 113.338 11.836 112.642 11.836C112.042 11.836 111.514 12.136 111.058 12.736C110.626 13.312 110.182 14.356 109.726 15.868C109.342 17.116 109.15 18.064 109.15 18.712C109.15 19.504 109.486 19.9 110.158 19.9C110.758 19.9 111.286 19.6 111.742 19C112.198 18.4 112.654 17.356 113.11 15.868ZM105.946 28.504C105.274 28.504 104.662 28.468 104.11 28.396C103.822 28.756 103.678 29.236 103.678 29.836C103.702 30.436 103.942 30.868 104.398 31.132C104.878 31.396 105.61 31.528 106.594 31.528C107.794 31.528 108.766 31.348 109.51 30.988C110.278 30.628 110.662 30.112 110.662 29.44C110.662 29.152 110.554 28.924 110.338 28.756C110.122 28.588 109.81 28.504 109.402 28.504H105.946Z" stroke="white" stroke-width="2" mask="url(#path-1-outside-1_417_100)"/>
<path d="M136.673 1.396C138.065 1.396 139.085 1.66 139.733 2.188C140.405 2.716 140.741 3.436 140.741 4.348C140.741 4.876 140.657 5.392 140.489 5.896L134.837 24.256C134.765 24.544 134.729 24.796 134.729 25.012C134.729 25.324 134.789 25.576 134.909 25.768C135.029 25.936 135.197 26.104 135.413 26.272C135.581 26.44 135.701 26.584 135.773 26.704C135.845 26.8 135.857 26.932 135.809 27.1C135.689 27.412 135.449 27.64 135.089 27.784C134.729 27.928 134.177 28 133.433 28H125.225C124.601 28 124.145 27.904 123.857 27.712C123.569 27.496 123.473 27.22 123.569 26.884C123.665 26.596 123.917 26.344 124.325 26.128C124.685 25.936 124.985 25.708 125.225 25.444C125.465 25.18 125.669 24.76 125.837 24.184L131.309 6.22C131.381 6.004 131.417 5.824 131.417 5.68C131.417 5.416 131.345 5.2 131.201 5.032C131.081 4.864 130.913 4.696 130.697 4.528C130.457 4.336 130.277 4.168 130.157 4.024C130.061 3.88 130.049 3.688 130.121 3.448C130.265 2.896 131.021 2.416 132.389 2.008C133.757 1.6 135.185 1.396 136.673 1.396Z" stroke="white" stroke-width="2" mask="url(#path-1-outside-1_417_100)"/>
<path d="M150.721 8.956C152.113 8.956 153.133 9.22 153.781 9.748C154.429 10.276 154.753 10.996 154.753 11.908C154.753 12.46 154.669 12.988 154.501 13.492L151.189 24.256C151.117 24.544 151.081 24.796 151.081 25.012C151.081 25.324 151.141 25.576 151.261 25.768C151.381 25.936 151.549 26.104 151.765 26.272C151.933 26.44 152.053 26.584 152.125 26.704C152.197 26.8 152.209 26.932 152.161 27.1C152.041 27.412 151.801 27.64 151.441 27.784C151.081 27.928 150.529 28 149.785 28H141.577C140.953 28 140.497 27.904 140.209 27.712C139.921 27.496 139.825 27.22 139.921 26.884C140.017 26.596 140.269 26.344 140.677 26.128C141.037 25.936 141.337 25.708 141.577 25.444C141.817 25.18 142.021 24.76 142.189 24.184L145.321 13.78C145.393 13.564 145.429 13.384 145.429 13.24C145.429 12.976 145.369 12.772 145.249 12.628C145.129 12.46 144.949 12.292 144.709 12.124C144.469 11.932 144.301 11.764 144.205 11.62C144.109 11.476 144.097 11.284 144.169 11.044C144.313 10.492 145.069 10.012 146.437 9.604C147.805 9.172 149.233 8.956 150.721 8.956ZM153.133 1C154.069 1 154.849 1.312 155.473 1.936C156.097 2.536 156.409 3.28 156.409 4.168C156.409 4.792 156.241 5.404 155.905 6.004C155.593 6.604 155.137 7.096 154.537 7.48C153.961 7.84 153.313 8.02 152.593 8.02C151.681 8.02 150.913 7.72 150.289 7.12C149.689 6.496 149.377 5.728 149.353 4.816C149.353 4.216 149.509 3.628 149.821 3.052C150.133 2.452 150.577 1.96 151.153 1.576C151.729 1.192 152.389 1 153.133 1Z" stroke="white" stroke-width="2" mask="url(#path-1-outside-1_417_100)"/>
<path d="M173.408 9.424C173.864 9.424 174.212 9.52 174.452 9.712C174.716 9.904 174.848 10.168 174.848 10.504C174.848 10.6 174.824 10.768 174.776 11.008C174.464 12.064 173.744 12.592 172.616 12.592H170.528L167.828 21.484C167.708 21.844 167.648 22.216 167.648 22.6C167.648 23.032 167.768 23.332 168.008 23.5C168.248 23.668 168.584 23.752 169.016 23.752C169.4 23.752 169.88 23.704 170.456 23.608C170.744 23.536 170.996 23.5 171.212 23.5C171.38 23.5 171.5 23.56 171.572 23.68C171.668 23.776 171.716 23.908 171.716 24.076C171.74 24.556 171.38 25.144 170.636 25.84C169.916 26.512 168.932 27.1 167.684 27.604C166.436 28.084 165.056 28.324 163.544 28.324C161.912 28.324 160.604 27.952 159.62 27.208C158.636 26.464 158.144 25.444 158.144 24.148C158.144 23.548 158.24 22.972 158.432 22.42L160.736 15.292C160.856 14.884 160.916 14.56 160.916 14.32C160.916 13.84 160.796 13.432 160.556 13.096C160.34 12.76 160.028 12.412 159.62 12.052C159.26 11.716 159.008 11.44 158.864 11.224C158.72 10.984 158.684 10.708 158.756 10.396C158.852 10.084 159.056 9.844 159.368 9.676C159.68 9.508 160.172 9.424 160.844 9.424H162.86L165.128 7.156C165.92 6.364 166.64 5.812 167.288 5.5C167.96 5.188 168.824 5.032 169.88 5.032C171.392 5.032 172.148 5.608 172.148 6.76C172.148 7.12 172.1 7.456 172.004 7.768L171.5 9.424H173.408Z" stroke="white" stroke-width="2" mask="url(#path-1-outside-1_417_100)"/>
<path d="M188.733 8.776C190.197 8.776 191.481 8.992 192.585 9.424C193.689 9.832 194.541 10.408 195.141 11.152C195.765 11.872 196.077 12.676 196.077 13.564C196.077 14.524 195.741 15.316 195.069 15.94C194.421 16.564 193.533 16.876 192.405 16.876C191.253 16.876 190.353 16.588 189.705 16.012C189.057 15.412 188.733 14.608 188.733 13.6C188.733 13.12 188.805 12.616 188.949 12.088C187.941 12.352 187.041 12.88 186.249 13.672C185.481 14.44 184.965 15.46 184.701 16.732C184.557 17.452 184.485 18.1 184.485 18.676C184.485 19.972 184.845 20.956 185.565 21.628C186.285 22.3 187.317 22.636 188.661 22.636C189.429 22.636 190.089 22.564 190.641 22.42C191.193 22.252 191.757 22.036 192.333 21.772C192.813 21.532 193.161 21.412 193.377 21.412C193.521 21.412 193.617 21.448 193.665 21.52C193.713 21.568 193.737 21.688 193.737 21.88C193.761 22.768 193.389 23.704 192.621 24.688C191.877 25.648 190.833 26.464 189.489 27.136C188.169 27.784 186.681 28.108 185.025 28.108C183.297 28.108 181.761 27.796 180.417 27.172C179.097 26.524 178.065 25.612 177.321 24.436C176.601 23.236 176.241 21.844 176.241 20.26C176.241 19.516 176.337 18.688 176.529 17.776C177.177 14.8 178.605 12.556 180.813 11.044C183.045 9.532 185.685 8.776 188.733 8.776Z" stroke="white" stroke-width="2" mask="url(#path-1-outside-1_417_100)"/>
<path d="M220.125 23.032C220.077 23.128 220.053 23.272 220.053 23.464C220.053 23.632 220.089 23.764 220.161 23.86C220.257 23.956 220.377 24.004 220.521 24.004C220.809 24.004 221.049 23.884 221.241 23.644C221.457 23.38 221.601 23.248 221.673 23.248C221.793 23.248 221.889 23.332 221.961 23.5C222.033 23.644 222.069 23.824 222.069 24.04C222.093 24.736 221.865 25.42 221.385 26.092C220.905 26.74 220.197 27.28 219.261 27.712C218.349 28.12 217.245 28.324 215.949 28.324C214.365 28.324 213.105 27.964 212.169 27.244C211.233 26.5 210.753 25.516 210.729 24.292C210.729 23.404 210.945 22.408 211.377 21.304L213.357 16.12C213.477 15.808 213.537 15.556 213.537 15.364C213.537 15.052 213.429 14.812 213.213 14.644C213.021 14.452 212.781 14.356 212.493 14.356C212.037 14.356 211.569 14.572 211.089 15.004C210.633 15.412 210.261 16.084 209.973 17.02V16.948L207.705 24.256C207.633 24.544 207.597 24.796 207.597 25.012C207.597 25.324 207.657 25.576 207.777 25.768C207.897 25.936 208.065 26.104 208.281 26.272C208.449 26.44 208.569 26.584 208.641 26.704C208.713 26.8 208.725 26.932 208.677 27.1C208.557 27.412 208.317 27.64 207.957 27.784C207.597 27.928 207.045 28 206.301 28H198.093C197.469 28 197.013 27.904 196.725 27.712C196.437 27.496 196.341 27.22 196.437 26.884C196.533 26.596 196.785 26.344 197.193 26.128C197.553 25.936 197.853 25.708 198.093 25.444C198.333 25.18 198.537 24.76 198.705 24.184L204.177 6.22C204.249 6.004 204.285 5.824 204.285 5.68C204.285 5.416 204.213 5.2 204.069 5.032C203.949 4.864 203.781 4.696 203.565 4.528C203.325 4.336 203.145 4.168 203.025 4.024C202.929 3.88 202.917 3.688 202.989 3.448C203.133 2.896 203.889 2.416 205.257 2.008C206.625 1.6 208.053 1.396 209.541 1.396C210.933 1.396 211.953 1.66 212.601 2.188C213.273 2.716 213.609 3.436 213.609 4.348C213.609 4.876 213.525 5.392 213.357 5.896L211.413 12.232C212.349 11.008 213.333 10.156 214.365 9.676C215.421 9.196 216.561 8.956 217.785 8.956C219.249 8.956 220.425 9.4 221.313 10.288C222.225 11.176 222.681 12.328 222.681 13.744C222.681 14.488 222.561 15.22 222.321 15.94L220.125 23.032Z" stroke="white" stroke-width="2" mask="url(#path-1-outside-1_417_100)"/>
</svg>
