<svg width="212" height="37" viewBox="0 0 212 37" fill="none" xmlns="http://www.w3.org/2000/svg">
<mask id="path-1-outside-1_409_92" maskUnits="userSpaceOnUse" x="0.523926" y="0" width="212" height="37" fill="black">
<rect fill="white" x="0.523926" width="212" height="37"/>
<path d="M24.9959 23.752C24.8999 24.064 24.8519 24.376 24.8519 24.688C24.8519 24.952 24.8879 25.18 24.9599 25.372C25.0319 25.54 25.1039 25.684 25.1759 25.804C25.2719 25.9 25.3319 25.972 25.3559 26.02C25.5959 26.26 25.7159 26.5 25.7159 26.74C25.7159 26.788 25.6919 26.908 25.6439 27.1C25.5479 27.436 25.3319 27.676 24.9959 27.82C24.6839 27.94 24.1919 28 23.5199 28H14.9879C14.4839 28 14.0879 27.916 13.7999 27.748C13.5359 27.58 13.4039 27.352 13.4039 27.064C13.4039 26.92 13.4399 26.764 13.5119 26.596C13.5839 26.404 13.6799 26.26 13.7999 26.164C13.9439 26.044 14.1359 25.912 14.3759 25.768C14.7599 25.552 15.0719 25.312 15.3119 25.048C15.5519 24.784 15.7559 24.352 15.9239 23.752L16.8599 20.656H11.2439L10.2719 22.708C9.86393 23.596 9.65993 24.292 9.65993 24.796C9.65993 25.084 9.70793 25.324 9.80393 25.516C9.89993 25.684 10.0439 25.864 10.2359 26.056C10.4039 26.248 10.5119 26.416 10.5599 26.56C10.6319 26.68 10.6439 26.848 10.5959 27.064C10.4999 27.424 10.2959 27.676 9.98393 27.82C9.69593 27.94 9.22793 28 8.57993 28H3.21593C2.66393 28 2.24393 27.904 1.95593 27.712C1.66793 27.496 1.52393 27.22 1.52393 26.884C1.52393 26.5 1.66793 26.2 1.95593 25.984C2.21993 25.744 2.62793 25.492 3.17993 25.228C3.89993 24.868 4.47593 24.52 4.90793 24.184C5.33993 23.824 5.71193 23.332 6.02393 22.708L12.4319 9.424C13.4159 7.36 14.5679 5.872 15.8879 4.96C17.2319 4.024 18.9959 3.556 21.1799 3.556C23.6279 3.556 25.5239 4.06 26.8679 5.068C28.2119 6.052 28.8839 7.432 28.8839 9.208C28.8839 9.952 28.7639 10.72 28.5239 11.512L24.9959 23.752ZM17.9399 17.056L19.8479 10.72C19.9439 10.432 19.9919 10.132 19.9919 9.82C19.9919 9.364 19.8599 9.028 19.5959 8.812C19.3559 8.572 19.0079 8.452 18.5519 8.452C17.9759 8.452 17.4839 8.62 17.0759 8.956C16.6679 9.292 16.2599 9.892 15.8519 10.756L12.8999 17.056H17.9399Z"/>
<path d="M40.4846 8.956C41.8766 8.956 42.8966 9.22 43.5446 9.748C44.1926 10.276 44.5166 10.996 44.5166 11.908C44.5166 12.46 44.4326 12.988 44.2646 13.492L40.9526 24.256C40.8806 24.544 40.8446 24.796 40.8446 25.012C40.8446 25.324 40.9046 25.576 41.0246 25.768C41.1446 25.936 41.3126 26.104 41.5286 26.272C41.6966 26.44 41.8166 26.584 41.8886 26.704C41.9606 26.8 41.9726 26.932 41.9246 27.1C41.8046 27.412 41.5646 27.64 41.2046 27.784C40.8446 27.928 40.2926 28 39.5486 28H31.3406C30.7166 28 30.2606 27.904 29.9726 27.712C29.6846 27.496 29.5886 27.22 29.6846 26.884C29.7806 26.596 30.0326 26.344 30.4406 26.128C30.8006 25.936 31.1006 25.708 31.3406 25.444C31.5806 25.18 31.7846 24.76 31.9526 24.184L35.0846 13.78C35.1566 13.564 35.1926 13.384 35.1926 13.24C35.1926 12.976 35.1326 12.772 35.0126 12.628C34.8926 12.46 34.7126 12.292 34.4726 12.124C34.2326 11.932 34.0646 11.764 33.9686 11.62C33.8726 11.476 33.8606 11.284 33.9326 11.044C34.0766 10.492 34.8326 10.012 36.2006 9.604C37.5686 9.172 38.9966 8.956 40.4846 8.956ZM42.8966 1C43.8326 1 44.6126 1.312 45.2366 1.936C45.8606 2.536 46.1726 3.28 46.1726 4.168C46.1726 4.792 46.0046 5.404 45.6686 6.004C45.3566 6.604 44.9006 7.096 44.3006 7.48C43.7246 7.84 43.0766 8.02 42.3566 8.02C41.4446 8.02 40.6766 7.72 40.0526 7.12C39.4526 6.496 39.1406 5.728 39.1166 4.816C39.1166 4.216 39.2726 3.628 39.5846 3.052C39.8966 2.452 40.3406 1.96 40.9166 1.576C41.4926 1.192 42.1526 1 42.8966 1Z"/>
<path d="M64.7562 8.956C66.1002 8.956 67.1682 9.364 67.9602 10.18C68.7762 10.996 69.1842 12.004 69.1842 13.204C69.1842 13.66 69.1362 14.08 69.0402 14.464C68.8002 15.448 68.3442 16.204 67.6722 16.732C67.0002 17.26 66.1962 17.524 65.2602 17.524C64.3482 17.524 63.6522 17.308 63.1722 16.876C62.7162 16.444 62.3082 15.868 61.9482 15.148C61.7562 14.74 61.5762 14.44 61.4082 14.248C61.2402 14.056 61.0482 13.96 60.8322 13.96C60.5922 13.96 60.3762 14.056 60.1842 14.248C60.0162 14.44 59.8602 14.776 59.7162 15.256L56.9442 24.256C56.8962 24.376 56.8722 24.556 56.8722 24.796C56.8722 25.108 56.9562 25.372 57.1242 25.588C57.3162 25.78 57.5682 25.972 57.8802 26.164C58.1682 26.356 58.3602 26.512 58.4562 26.632C58.5522 26.752 58.5882 26.908 58.5642 27.1C58.5162 27.412 58.3362 27.64 58.0242 27.784C57.7362 27.928 57.2322 28 56.5122 28H47.2962C46.6722 28 46.2282 27.904 45.9642 27.712C45.6762 27.496 45.5682 27.22 45.6402 26.884C45.7362 26.596 45.9882 26.344 46.3962 26.128C46.7562 25.936 47.0562 25.708 47.2962 25.444C47.5362 25.18 47.7402 24.76 47.9082 24.184L51.1122 13.78C51.1602 13.66 51.1842 13.492 51.1842 13.276C51.1842 13.012 51.1242 12.808 51.0042 12.664C50.9082 12.52 50.7402 12.34 50.5002 12.124C50.2602 11.932 50.0922 11.764 49.9962 11.62C49.9002 11.476 49.8882 11.284 49.9602 11.044C50.1042 10.492 50.8602 10.012 52.2282 9.604C53.5962 9.172 55.0242 8.956 56.5122 8.956C57.4962 8.956 58.3122 9.184 58.9602 9.64C59.6082 10.072 60.0282 10.696 60.2202 11.512C61.3722 9.808 62.8842 8.956 64.7562 8.956Z"/>
<path d="M88.8163 8.812C90.5923 8.812 92.0083 9.448 93.0643 10.72C94.1443 11.992 94.6843 13.672 94.6843 15.76C94.6843 16.84 94.5523 17.896 94.2883 18.928C93.5203 22.024 92.2003 24.364 90.3283 25.948C88.4803 27.532 86.3443 28.324 83.9203 28.324C82.5523 28.324 81.3643 28.096 80.3563 27.64C79.3723 27.16 78.5803 26.488 77.9803 25.624L76.6843 26.74C76.1803 27.172 75.6883 27.496 75.2083 27.712C74.7283 27.904 74.1763 28 73.5523 28H71.9683C71.3683 28 70.9003 27.88 70.5643 27.64C70.2523 27.376 70.0963 27.004 70.0963 26.524C70.0963 26.308 70.1323 26.056 70.2043 25.768L76.2163 6.22C76.2883 6.004 76.3243 5.824 76.3243 5.68C76.3243 5.272 76.0723 4.888 75.5683 4.528C75.3283 4.312 75.1603 4.144 75.0643 4.024C74.9683 3.88 74.9563 3.7 75.0283 3.484C75.1963 2.932 75.9523 2.452 77.2963 2.044C78.6643 1.612 80.0923 1.396 81.5803 1.396C82.9723 1.396 83.9923 1.672 84.6403 2.224C85.3123 2.752 85.6483 3.472 85.6483 4.384C85.6483 4.888 85.5643 5.392 85.3963 5.896L83.8843 10.792C85.2763 9.472 86.9203 8.812 88.8163 8.812ZM84.7483 18.712C85.2283 17.08 85.4683 15.76 85.4683 14.752C85.4683 13.648 85.1443 13.096 84.4963 13.096C83.9203 13.096 83.3803 13.396 82.8763 13.996L80.5363 21.628L80.3203 22.312C80.2003 22.672 80.1403 23.044 80.1403 23.428C80.1403 24.268 80.5363 24.688 81.3283 24.688C81.9043 24.688 82.4563 24.268 82.9843 23.428C83.5123 22.588 84.1003 21.016 84.7483 18.712Z"/>
<path d="M115.376 8.956C116.72 8.956 117.788 9.364 118.58 10.18C119.396 10.996 119.804 12.004 119.804 13.204C119.804 13.66 119.756 14.08 119.66 14.464C119.42 15.448 118.964 16.204 118.292 16.732C117.62 17.26 116.816 17.524 115.88 17.524C114.968 17.524 114.272 17.308 113.792 16.876C113.336 16.444 112.928 15.868 112.568 15.148C112.376 14.74 112.196 14.44 112.028 14.248C111.86 14.056 111.668 13.96 111.452 13.96C111.212 13.96 110.996 14.056 110.804 14.248C110.636 14.44 110.48 14.776 110.336 15.256L107.564 24.256C107.516 24.376 107.492 24.556 107.492 24.796C107.492 25.108 107.576 25.372 107.744 25.588C107.936 25.78 108.188 25.972 108.5 26.164C108.788 26.356 108.98 26.512 109.076 26.632C109.172 26.752 109.208 26.908 109.184 27.1C109.136 27.412 108.956 27.64 108.644 27.784C108.356 27.928 107.852 28 107.132 28H97.9156C97.2916 28 96.8476 27.904 96.5836 27.712C96.2956 27.496 96.1876 27.22 96.2596 26.884C96.3556 26.596 96.6076 26.344 97.0156 26.128C97.3756 25.936 97.6756 25.708 97.9156 25.444C98.1556 25.18 98.3596 24.76 98.5276 24.184L101.732 13.78C101.78 13.66 101.804 13.492 101.804 13.276C101.804 13.012 101.744 12.808 101.624 12.664C101.528 12.52 101.36 12.34 101.12 12.124C100.88 11.932 100.712 11.764 100.616 11.62C100.52 11.476 100.508 11.284 100.58 11.044C100.724 10.492 101.48 10.012 102.848 9.604C104.216 9.172 105.644 8.956 107.132 8.956C108.116 8.956 108.932 9.184 109.58 9.64C110.228 10.072 110.648 10.696 110.84 11.512C111.992 9.808 113.504 8.956 115.376 8.956Z"/>
<path d="M130.895 8.956C132.287 8.956 133.307 9.22 133.955 9.748C134.603 10.276 134.927 10.996 134.927 11.908C134.927 12.46 134.843 12.988 134.675 13.492L131.363 24.256C131.291 24.544 131.255 24.796 131.255 25.012C131.255 25.324 131.315 25.576 131.435 25.768C131.555 25.936 131.723 26.104 131.939 26.272C132.107 26.44 132.227 26.584 132.299 26.704C132.371 26.8 132.383 26.932 132.335 27.1C132.215 27.412 131.975 27.64 131.615 27.784C131.255 27.928 130.703 28 129.959 28H121.751C121.127 28 120.671 27.904 120.383 27.712C120.095 27.496 119.999 27.22 120.095 26.884C120.191 26.596 120.443 26.344 120.851 26.128C121.211 25.936 121.511 25.708 121.751 25.444C121.991 25.18 122.195 24.76 122.363 24.184L125.495 13.78C125.567 13.564 125.603 13.384 125.603 13.24C125.603 12.976 125.543 12.772 125.423 12.628C125.303 12.46 125.123 12.292 124.883 12.124C124.643 11.932 124.475 11.764 124.379 11.62C124.283 11.476 124.271 11.284 124.343 11.044C124.487 10.492 125.243 10.012 126.611 9.604C127.979 9.172 129.407 8.956 130.895 8.956ZM133.307 1C134.243 1 135.023 1.312 135.647 1.936C136.271 2.536 136.583 3.28 136.583 4.168C136.583 4.792 136.415 5.404 136.079 6.004C135.767 6.604 135.311 7.096 134.711 7.48C134.135 7.84 133.487 8.02 132.767 8.02C131.855 8.02 131.087 7.72 130.463 7.12C129.863 6.496 129.551 5.728 129.527 4.816C129.527 4.216 129.683 3.628 129.995 3.052C130.307 2.452 130.751 1.96 131.327 1.576C131.903 1.192 132.563 1 133.307 1Z"/>
<path d="M157.615 22.816C157.567 23.008 157.543 23.14 157.543 23.212C157.543 23.38 157.591 23.512 157.687 23.608C157.783 23.704 157.903 23.752 158.047 23.752C158.335 23.752 158.575 23.632 158.767 23.392C158.983 23.128 159.127 22.996 159.199 22.996C159.319 22.996 159.415 23.08 159.487 23.248C159.559 23.416 159.595 23.608 159.595 23.824C159.619 24.472 159.367 25.132 158.839 25.804C158.335 26.476 157.651 27.028 156.787 27.46C155.923 27.892 154.987 28.108 153.979 28.108C152.779 28.108 151.735 27.88 150.847 27.424C149.959 26.968 149.347 26.368 149.011 25.624C148.363 26.464 147.619 27.088 146.779 27.496C145.939 27.904 145.051 28.108 144.115 28.108C143.011 28.108 141.979 27.832 141.019 27.28C140.083 26.728 139.327 25.948 138.751 24.94C138.199 23.908 137.923 22.744 137.923 21.448C137.923 19.264 138.331 17.212 139.147 15.292C139.987 13.348 141.151 11.788 142.639 10.612C144.127 9.412 145.819 8.812 147.715 8.812C148.747 8.812 149.623 8.932 150.343 9.172C151.087 9.412 151.759 9.772 152.359 10.252L153.583 6.22C153.655 6.004 153.691 5.824 153.691 5.68C153.691 5.416 153.619 5.2 153.475 5.032C153.355 4.864 153.187 4.696 152.971 4.528C152.731 4.336 152.551 4.168 152.431 4.024C152.335 3.88 152.323 3.688 152.395 3.448C152.539 2.896 153.295 2.416 154.663 2.008C156.031 1.6 157.459 1.396 158.947 1.396C160.339 1.396 161.359 1.66 162.007 2.188C162.679 2.716 163.015 3.436 163.015 4.348C163.015 4.876 162.931 5.392 162.763 5.896L157.615 22.816ZM151.603 12.7C151.219 12.364 150.799 12.196 150.343 12.196C149.647 12.196 148.963 12.712 148.291 13.744C147.619 14.776 147.079 16.024 146.671 17.488C146.263 18.952 146.071 20.272 146.095 21.448C146.095 22.768 146.527 23.428 147.391 23.428C147.703 23.428 147.967 23.308 148.183 23.068C148.399 22.804 148.603 22.384 148.795 21.808L151.603 12.7Z"/>
<path d="M185.777 3.088C186.545 3.088 187.289 3.256 188.009 3.592C188.753 3.904 189.353 4.348 189.809 4.924C190.289 5.476 190.529 6.076 190.529 6.724C190.529 8.14 189.569 8.848 187.649 8.848C187.097 8.848 186.665 8.812 186.353 8.74C186.065 8.644 185.717 8.5 185.309 8.308C185.237 8.476 185.201 8.716 185.201 9.028C185.201 9.412 185.261 9.868 185.381 10.396C185.525 10.924 185.693 11.416 185.885 11.872C186.389 12.616 186.641 13.504 186.641 14.536C186.641 14.992 186.581 15.544 186.461 16.192C186.173 17.44 185.537 18.58 184.553 19.612C183.593 20.644 182.345 21.46 180.809 22.06C179.297 22.636 177.629 22.924 175.805 22.924C174.413 22.924 173.105 22.828 171.881 22.636C171.521 22.948 171.341 23.332 171.341 23.788C171.341 24.1 171.485 24.364 171.773 24.58C172.061 24.772 172.541 24.868 173.213 24.868H178.613C180.461 24.868 181.901 25.192 182.933 25.84C183.965 26.464 184.481 27.364 184.481 28.54C184.481 28.972 184.409 29.416 184.265 29.872C183.977 30.808 183.317 31.672 182.285 32.464C181.277 33.28 179.849 33.94 178.001 34.444C176.153 34.948 173.909 35.2 171.269 35.2C168.917 35.2 166.925 34.996 165.293 34.588C163.661 34.18 162.449 33.616 161.657 32.896C160.841 32.2 160.433 31.42 160.433 30.556C160.433 30.364 160.481 30.076 160.577 29.692C160.793 28.996 161.285 28.432 162.053 28C162.797 27.544 164.033 27.244 165.761 27.1C165.185 26.548 164.897 25.888 164.897 25.12C164.897 24.856 164.933 24.58 165.005 24.292C165.389 23.044 166.517 22.12 168.389 21.52C166.589 20.536 165.689 19.096 165.689 17.2C165.689 16.672 165.761 16.12 165.905 15.544C166.193 14.296 166.829 13.168 167.813 12.16C168.797 11.128 170.057 10.312 171.593 9.712C173.129 9.112 174.809 8.812 176.633 8.812C179.489 8.812 181.733 9.184 183.365 9.928C183.005 9.376 182.717 8.788 182.501 8.164C182.309 7.516 182.213 6.928 182.213 6.4C182.213 5.488 182.501 4.708 183.077 4.06C183.677 3.412 184.577 3.088 185.777 3.088ZM177.965 15.868C178.349 14.644 178.541 13.708 178.541 13.06C178.541 12.244 178.193 11.836 177.497 11.836C176.897 11.836 176.369 12.136 175.913 12.736C175.481 13.312 175.037 14.356 174.581 15.868C174.197 17.116 174.005 18.064 174.005 18.712C174.005 19.504 174.341 19.9 175.013 19.9C175.613 19.9 176.141 19.6 176.597 19C177.053 18.4 177.509 17.356 177.965 15.868ZM170.801 28.504C170.129 28.504 169.517 28.468 168.965 28.396C168.677 28.756 168.533 29.236 168.533 29.836C168.557 30.436 168.797 30.868 169.253 31.132C169.733 31.396 170.465 31.528 171.449 31.528C172.649 31.528 173.621 31.348 174.365 30.988C175.133 30.628 175.517 30.112 175.517 29.44C175.517 29.152 175.409 28.924 175.193 28.756C174.977 28.588 174.665 28.504 174.257 28.504H170.801Z"/>
<path d="M201.896 8.776C204.944 8.776 207.152 9.268 208.52 10.252C209.888 11.212 210.572 12.448 210.572 13.96C210.572 14.416 210.524 14.836 210.428 15.22C210.068 16.804 209.06 17.944 207.404 18.64C205.772 19.312 203.84 19.648 201.608 19.648C200.48 19.648 199.424 19.576 198.44 19.432C198.416 20.68 198.752 21.556 199.448 22.06C200.144 22.564 201.116 22.816 202.364 22.816C202.94 22.816 203.492 22.756 204.02 22.636C204.548 22.492 205.22 22.288 206.036 22.024C206.708 21.784 207.164 21.664 207.404 21.664C207.668 21.664 207.8 21.82 207.8 22.132C207.824 22.972 207.512 23.86 206.864 24.796C206.216 25.708 205.256 26.488 203.984 27.136C202.712 27.784 201.176 28.108 199.376 28.108C196.712 28.108 194.528 27.436 192.824 26.092C191.12 24.748 190.268 22.792 190.268 20.224C190.268 19.504 190.364 18.664 190.556 17.704C191.156 14.752 192.464 12.532 194.48 11.044C196.52 9.532 198.992 8.776 201.896 8.776ZM198.692 17.272C198.788 17.296 198.92 17.308 199.088 17.308C200.096 17.308 200.864 16.84 201.392 15.904C201.92 14.968 202.172 13.924 202.148 12.772C202.124 12.1 201.932 11.764 201.572 11.764C201.308 11.764 200.996 11.98 200.636 12.412C200.276 12.82 199.916 13.444 199.556 14.284C199.22 15.124 198.932 16.12 198.692 17.272Z"/>
</mask>
<path d="M24.9959 23.752C24.8999 24.064 24.8519 24.376 24.8519 24.688C24.8519 24.952 24.8879 25.18 24.9599 25.372C25.0319 25.54 25.1039 25.684 25.1759 25.804C25.2719 25.9 25.3319 25.972 25.3559 26.02C25.5959 26.26 25.7159 26.5 25.7159 26.74C25.7159 26.788 25.6919 26.908 25.6439 27.1C25.5479 27.436 25.3319 27.676 24.9959 27.82C24.6839 27.94 24.1919 28 23.5199 28H14.9879C14.4839 28 14.0879 27.916 13.7999 27.748C13.5359 27.58 13.4039 27.352 13.4039 27.064C13.4039 26.92 13.4399 26.764 13.5119 26.596C13.5839 26.404 13.6799 26.26 13.7999 26.164C13.9439 26.044 14.1359 25.912 14.3759 25.768C14.7599 25.552 15.0719 25.312 15.3119 25.048C15.5519 24.784 15.7559 24.352 15.9239 23.752L16.8599 20.656H11.2439L10.2719 22.708C9.86393 23.596 9.65993 24.292 9.65993 24.796C9.65993 25.084 9.70793 25.324 9.80393 25.516C9.89993 25.684 10.0439 25.864 10.2359 26.056C10.4039 26.248 10.5119 26.416 10.5599 26.56C10.6319 26.68 10.6439 26.848 10.5959 27.064C10.4999 27.424 10.2959 27.676 9.98393 27.82C9.69593 27.94 9.22793 28 8.57993 28H3.21593C2.66393 28 2.24393 27.904 1.95593 27.712C1.66793 27.496 1.52393 27.22 1.52393 26.884C1.52393 26.5 1.66793 26.2 1.95593 25.984C2.21993 25.744 2.62793 25.492 3.17993 25.228C3.89993 24.868 4.47593 24.52 4.90793 24.184C5.33993 23.824 5.71193 23.332 6.02393 22.708L12.4319 9.424C13.4159 7.36 14.5679 5.872 15.8879 4.96C17.2319 4.024 18.9959 3.556 21.1799 3.556C23.6279 3.556 25.5239 4.06 26.8679 5.068C28.2119 6.052 28.8839 7.432 28.8839 9.208C28.8839 9.952 28.7639 10.72 28.5239 11.512L24.9959 23.752ZM17.9399 17.056L19.8479 10.72C19.9439 10.432 19.9919 10.132 19.9919 9.82C19.9919 9.364 19.8599 9.028 19.5959 8.812C19.3559 8.572 19.0079 8.452 18.5519 8.452C17.9759 8.452 17.4839 8.62 17.0759 8.956C16.6679 9.292 16.2599 9.892 15.8519 10.756L12.8999 17.056H17.9399Z" stroke="white" stroke-width="2" mask="url(#path-1-outside-1_409_92)"/>
<path d="M40.4846 8.956C41.8766 8.956 42.8966 9.22 43.5446 9.748C44.1926 10.276 44.5166 10.996 44.5166 11.908C44.5166 12.46 44.4326 12.988 44.2646 13.492L40.9526 24.256C40.8806 24.544 40.8446 24.796 40.8446 25.012C40.8446 25.324 40.9046 25.576 41.0246 25.768C41.1446 25.936 41.3126 26.104 41.5286 26.272C41.6966 26.44 41.8166 26.584 41.8886 26.704C41.9606 26.8 41.9726 26.932 41.9246 27.1C41.8046 27.412 41.5646 27.64 41.2046 27.784C40.8446 27.928 40.2926 28 39.5486 28H31.3406C30.7166 28 30.2606 27.904 29.9726 27.712C29.6846 27.496 29.5886 27.22 29.6846 26.884C29.7806 26.596 30.0326 26.344 30.4406 26.128C30.8006 25.936 31.1006 25.708 31.3406 25.444C31.5806 25.18 31.7846 24.76 31.9526 24.184L35.0846 13.78C35.1566 13.564 35.1926 13.384 35.1926 13.24C35.1926 12.976 35.1326 12.772 35.0126 12.628C34.8926 12.46 34.7126 12.292 34.4726 12.124C34.2326 11.932 34.0646 11.764 33.9686 11.62C33.8726 11.476 33.8606 11.284 33.9326 11.044C34.0766 10.492 34.8326 10.012 36.2006 9.604C37.5686 9.172 38.9966 8.956 40.4846 8.956ZM42.8966 1C43.8326 1 44.6126 1.312 45.2366 1.936C45.8606 2.536 46.1726 3.28 46.1726 4.168C46.1726 4.792 46.0046 5.404 45.6686 6.004C45.3566 6.604 44.9006 7.096 44.3006 7.48C43.7246 7.84 43.0766 8.02 42.3566 8.02C41.4446 8.02 40.6766 7.72 40.0526 7.12C39.4526 6.496 39.1406 5.728 39.1166 4.816C39.1166 4.216 39.2726 3.628 39.5846 3.052C39.8966 2.452 40.3406 1.96 40.9166 1.576C41.4926 1.192 42.1526 1 42.8966 1Z" stroke="white" stroke-width="2" mask="url(#path-1-outside-1_409_92)"/>
<path d="M64.7562 8.956C66.1002 8.956 67.1682 9.364 67.9602 10.18C68.7762 10.996 69.1842 12.004 69.1842 13.204C69.1842 13.66 69.1362 14.08 69.0402 14.464C68.8002 15.448 68.3442 16.204 67.6722 16.732C67.0002 17.26 66.1962 17.524 65.2602 17.524C64.3482 17.524 63.6522 17.308 63.1722 16.876C62.7162 16.444 62.3082 15.868 61.9482 15.148C61.7562 14.74 61.5762 14.44 61.4082 14.248C61.2402 14.056 61.0482 13.96 60.8322 13.96C60.5922 13.96 60.3762 14.056 60.1842 14.248C60.0162 14.44 59.8602 14.776 59.7162 15.256L56.9442 24.256C56.8962 24.376 56.8722 24.556 56.8722 24.796C56.8722 25.108 56.9562 25.372 57.1242 25.588C57.3162 25.78 57.5682 25.972 57.8802 26.164C58.1682 26.356 58.3602 26.512 58.4562 26.632C58.5522 26.752 58.5882 26.908 58.5642 27.1C58.5162 27.412 58.3362 27.64 58.0242 27.784C57.7362 27.928 57.2322 28 56.5122 28H47.2962C46.6722 28 46.2282 27.904 45.9642 27.712C45.6762 27.496 45.5682 27.22 45.6402 26.884C45.7362 26.596 45.9882 26.344 46.3962 26.128C46.7562 25.936 47.0562 25.708 47.2962 25.444C47.5362 25.18 47.7402 24.76 47.9082 24.184L51.1122 13.78C51.1602 13.66 51.1842 13.492 51.1842 13.276C51.1842 13.012 51.1242 12.808 51.0042 12.664C50.9082 12.52 50.7402 12.34 50.5002 12.124C50.2602 11.932 50.0922 11.764 49.9962 11.62C49.9002 11.476 49.8882 11.284 49.9602 11.044C50.1042 10.492 50.8602 10.012 52.2282 9.604C53.5962 9.172 55.0242 8.956 56.5122 8.956C57.4962 8.956 58.3122 9.184 58.9602 9.64C59.6082 10.072 60.0282 10.696 60.2202 11.512C61.3722 9.808 62.8842 8.956 64.7562 8.956Z" stroke="white" stroke-width="2" mask="url(#path-1-outside-1_409_92)"/>
<path d="M88.8163 8.812C90.5923 8.812 92.0083 9.448 93.0643 10.72C94.1443 11.992 94.6843 13.672 94.6843 15.76C94.6843 16.84 94.5523 17.896 94.2883 18.928C93.5203 22.024 92.2003 24.364 90.3283 25.948C88.4803 27.532 86.3443 28.324 83.9203 28.324C82.5523 28.324 81.3643 28.096 80.3563 27.64C79.3723 27.16 78.5803 26.488 77.9803 25.624L76.6843 26.74C76.1803 27.172 75.6883 27.496 75.2083 27.712C74.7283 27.904 74.1763 28 73.5523 28H71.9683C71.3683 28 70.9003 27.88 70.5643 27.64C70.2523 27.376 70.0963 27.004 70.0963 26.524C70.0963 26.308 70.1323 26.056 70.2043 25.768L76.2163 6.22C76.2883 6.004 76.3243 5.824 76.3243 5.68C76.3243 5.272 76.0723 4.888 75.5683 4.528C75.3283 4.312 75.1603 4.144 75.0643 4.024C74.9683 3.88 74.9563 3.7 75.0283 3.484C75.1963 2.932 75.9523 2.452 77.2963 2.044C78.6643 1.612 80.0923 1.396 81.5803 1.396C82.9723 1.396 83.9923 1.672 84.6403 2.224C85.3123 2.752 85.6483 3.472 85.6483 4.384C85.6483 4.888 85.5643 5.392 85.3963 5.896L83.8843 10.792C85.2763 9.472 86.9203 8.812 88.8163 8.812ZM84.7483 18.712C85.2283 17.08 85.4683 15.76 85.4683 14.752C85.4683 13.648 85.1443 13.096 84.4963 13.096C83.9203 13.096 83.3803 13.396 82.8763 13.996L80.5363 21.628L80.3203 22.312C80.2003 22.672 80.1403 23.044 80.1403 23.428C80.1403 24.268 80.5363 24.688 81.3283 24.688C81.9043 24.688 82.4563 24.268 82.9843 23.428C83.5123 22.588 84.1003 21.016 84.7483 18.712Z" stroke="white" stroke-width="2" mask="url(#path-1-outside-1_409_92)"/>
<path d="M115.376 8.956C116.72 8.956 117.788 9.364 118.58 10.18C119.396 10.996 119.804 12.004 119.804 13.204C119.804 13.66 119.756 14.08 119.66 14.464C119.42 15.448 118.964 16.204 118.292 16.732C117.62 17.26 116.816 17.524 115.88 17.524C114.968 17.524 114.272 17.308 113.792 16.876C113.336 16.444 112.928 15.868 112.568 15.148C112.376 14.74 112.196 14.44 112.028 14.248C111.86 14.056 111.668 13.96 111.452 13.96C111.212 13.96 110.996 14.056 110.804 14.248C110.636 14.44 110.48 14.776 110.336 15.256L107.564 24.256C107.516 24.376 107.492 24.556 107.492 24.796C107.492 25.108 107.576 25.372 107.744 25.588C107.936 25.78 108.188 25.972 108.5 26.164C108.788 26.356 108.98 26.512 109.076 26.632C109.172 26.752 109.208 26.908 109.184 27.1C109.136 27.412 108.956 27.64 108.644 27.784C108.356 27.928 107.852 28 107.132 28H97.9156C97.2916 28 96.8476 27.904 96.5836 27.712C96.2956 27.496 96.1876 27.22 96.2596 26.884C96.3556 26.596 96.6076 26.344 97.0156 26.128C97.3756 25.936 97.6756 25.708 97.9156 25.444C98.1556 25.18 98.3596 24.76 98.5276 24.184L101.732 13.78C101.78 13.66 101.804 13.492 101.804 13.276C101.804 13.012 101.744 12.808 101.624 12.664C101.528 12.52 101.36 12.34 101.12 12.124C100.88 11.932 100.712 11.764 100.616 11.62C100.52 11.476 100.508 11.284 100.58 11.044C100.724 10.492 101.48 10.012 102.848 9.604C104.216 9.172 105.644 8.956 107.132 8.956C108.116 8.956 108.932 9.184 109.58 9.64C110.228 10.072 110.648 10.696 110.84 11.512C111.992 9.808 113.504 8.956 115.376 8.956Z" stroke="white" stroke-width="2" mask="url(#path-1-outside-1_409_92)"/>
<path d="M130.895 8.956C132.287 8.956 133.307 9.22 133.955 9.748C134.603 10.276 134.927 10.996 134.927 11.908C134.927 12.46 134.843 12.988 134.675 13.492L131.363 24.256C131.291 24.544 131.255 24.796 131.255 25.012C131.255 25.324 131.315 25.576 131.435 25.768C131.555 25.936 131.723 26.104 131.939 26.272C132.107 26.44 132.227 26.584 132.299 26.704C132.371 26.8 132.383 26.932 132.335 27.1C132.215 27.412 131.975 27.64 131.615 27.784C131.255 27.928 130.703 28 129.959 28H121.751C121.127 28 120.671 27.904 120.383 27.712C120.095 27.496 119.999 27.22 120.095 26.884C120.191 26.596 120.443 26.344 120.851 26.128C121.211 25.936 121.511 25.708 121.751 25.444C121.991 25.18 122.195 24.76 122.363 24.184L125.495 13.78C125.567 13.564 125.603 13.384 125.603 13.24C125.603 12.976 125.543 12.772 125.423 12.628C125.303 12.46 125.123 12.292 124.883 12.124C124.643 11.932 124.475 11.764 124.379 11.62C124.283 11.476 124.271 11.284 124.343 11.044C124.487 10.492 125.243 10.012 126.611 9.604C127.979 9.172 129.407 8.956 130.895 8.956ZM133.307 1C134.243 1 135.023 1.312 135.647 1.936C136.271 2.536 136.583 3.28 136.583 4.168C136.583 4.792 136.415 5.404 136.079 6.004C135.767 6.604 135.311 7.096 134.711 7.48C134.135 7.84 133.487 8.02 132.767 8.02C131.855 8.02 131.087 7.72 130.463 7.12C129.863 6.496 129.551 5.728 129.527 4.816C129.527 4.216 129.683 3.628 129.995 3.052C130.307 2.452 130.751 1.96 131.327 1.576C131.903 1.192 132.563 1 133.307 1Z" stroke="white" stroke-width="2" mask="url(#path-1-outside-1_409_92)"/>
<path d="M157.615 22.816C157.567 23.008 157.543 23.14 157.543 23.212C157.543 23.38 157.591 23.512 157.687 23.608C157.783 23.704 157.903 23.752 158.047 23.752C158.335 23.752 158.575 23.632 158.767 23.392C158.983 23.128 159.127 22.996 159.199 22.996C159.319 22.996 159.415 23.08 159.487 23.248C159.559 23.416 159.595 23.608 159.595 23.824C159.619 24.472 159.367 25.132 158.839 25.804C158.335 26.476 157.651 27.028 156.787 27.46C155.923 27.892 154.987 28.108 153.979 28.108C152.779 28.108 151.735 27.88 150.847 27.424C149.959 26.968 149.347 26.368 149.011 25.624C148.363 26.464 147.619 27.088 146.779 27.496C145.939 27.904 145.051 28.108 144.115 28.108C143.011 28.108 141.979 27.832 141.019 27.28C140.083 26.728 139.327 25.948 138.751 24.94C138.199 23.908 137.923 22.744 137.923 21.448C137.923 19.264 138.331 17.212 139.147 15.292C139.987 13.348 141.151 11.788 142.639 10.612C144.127 9.412 145.819 8.812 147.715 8.812C148.747 8.812 149.623 8.932 150.343 9.172C151.087 9.412 151.759 9.772 152.359 10.252L153.583 6.22C153.655 6.004 153.691 5.824 153.691 5.68C153.691 5.416 153.619 5.2 153.475 5.032C153.355 4.864 153.187 4.696 152.971 4.528C152.731 4.336 152.551 4.168 152.431 4.024C152.335 3.88 152.323 3.688 152.395 3.448C152.539 2.896 153.295 2.416 154.663 2.008C156.031 1.6 157.459 1.396 158.947 1.396C160.339 1.396 161.359 1.66 162.007 2.188C162.679 2.716 163.015 3.436 163.015 4.348C163.015 4.876 162.931 5.392 162.763 5.896L157.615 22.816ZM151.603 12.7C151.219 12.364 150.799 12.196 150.343 12.196C149.647 12.196 148.963 12.712 148.291 13.744C147.619 14.776 147.079 16.024 146.671 17.488C146.263 18.952 146.071 20.272 146.095 21.448C146.095 22.768 146.527 23.428 147.391 23.428C147.703 23.428 147.967 23.308 148.183 23.068C148.399 22.804 148.603 22.384 148.795 21.808L151.603 12.7Z" stroke="white" stroke-width="2" mask="url(#path-1-outside-1_409_92)"/>
<path d="M185.777 3.088C186.545 3.088 187.289 3.256 188.009 3.592C188.753 3.904 189.353 4.348 189.809 4.924C190.289 5.476 190.529 6.076 190.529 6.724C190.529 8.14 189.569 8.848 187.649 8.848C187.097 8.848 186.665 8.812 186.353 8.74C186.065 8.644 185.717 8.5 185.309 8.308C185.237 8.476 185.201 8.716 185.201 9.028C185.201 9.412 185.261 9.868 185.381 10.396C185.525 10.924 185.693 11.416 185.885 11.872C186.389 12.616 186.641 13.504 186.641 14.536C186.641 14.992 186.581 15.544 186.461 16.192C186.173 17.44 185.537 18.58 184.553 19.612C183.593 20.644 182.345 21.46 180.809 22.06C179.297 22.636 177.629 22.924 175.805 22.924C174.413 22.924 173.105 22.828 171.881 22.636C171.521 22.948 171.341 23.332 171.341 23.788C171.341 24.1 171.485 24.364 171.773 24.58C172.061 24.772 172.541 24.868 173.213 24.868H178.613C180.461 24.868 181.901 25.192 182.933 25.84C183.965 26.464 184.481 27.364 184.481 28.54C184.481 28.972 184.409 29.416 184.265 29.872C183.977 30.808 183.317 31.672 182.285 32.464C181.277 33.28 179.849 33.94 178.001 34.444C176.153 34.948 173.909 35.2 171.269 35.2C168.917 35.2 166.925 34.996 165.293 34.588C163.661 34.18 162.449 33.616 161.657 32.896C160.841 32.2 160.433 31.42 160.433 30.556C160.433 30.364 160.481 30.076 160.577 29.692C160.793 28.996 161.285 28.432 162.053 28C162.797 27.544 164.033 27.244 165.761 27.1C165.185 26.548 164.897 25.888 164.897 25.12C164.897 24.856 164.933 24.58 165.005 24.292C165.389 23.044 166.517 22.12 168.389 21.52C166.589 20.536 165.689 19.096 165.689 17.2C165.689 16.672 165.761 16.12 165.905 15.544C166.193 14.296 166.829 13.168 167.813 12.16C168.797 11.128 170.057 10.312 171.593 9.712C173.129 9.112 174.809 8.812 176.633 8.812C179.489 8.812 181.733 9.184 183.365 9.928C183.005 9.376 182.717 8.788 182.501 8.164C182.309 7.516 182.213 6.928 182.213 6.4C182.213 5.488 182.501 4.708 183.077 4.06C183.677 3.412 184.577 3.088 185.777 3.088ZM177.965 15.868C178.349 14.644 178.541 13.708 178.541 13.06C178.541 12.244 178.193 11.836 177.497 11.836C176.897 11.836 176.369 12.136 175.913 12.736C175.481 13.312 175.037 14.356 174.581 15.868C174.197 17.116 174.005 18.064 174.005 18.712C174.005 19.504 174.341 19.9 175.013 19.9C175.613 19.9 176.141 19.6 176.597 19C177.053 18.4 177.509 17.356 177.965 15.868ZM170.801 28.504C170.129 28.504 169.517 28.468 168.965 28.396C168.677 28.756 168.533 29.236 168.533 29.836C168.557 30.436 168.797 30.868 169.253 31.132C169.733 31.396 170.465 31.528 171.449 31.528C172.649 31.528 173.621 31.348 174.365 30.988C175.133 30.628 175.517 30.112 175.517 29.44C175.517 29.152 175.409 28.924 175.193 28.756C174.977 28.588 174.665 28.504 174.257 28.504H170.801Z" stroke="white" stroke-width="2" mask="url(#path-1-outside-1_409_92)"/>
<path d="M201.896 8.776C204.944 8.776 207.152 9.268 208.52 10.252C209.888 11.212 210.572 12.448 210.572 13.96C210.572 14.416 210.524 14.836 210.428 15.22C210.068 16.804 209.06 17.944 207.404 18.64C205.772 19.312 203.84 19.648 201.608 19.648C200.48 19.648 199.424 19.576 198.44 19.432C198.416 20.68 198.752 21.556 199.448 22.06C200.144 22.564 201.116 22.816 202.364 22.816C202.94 22.816 203.492 22.756 204.02 22.636C204.548 22.492 205.22 22.288 206.036 22.024C206.708 21.784 207.164 21.664 207.404 21.664C207.668 21.664 207.8 21.82 207.8 22.132C207.824 22.972 207.512 23.86 206.864 24.796C206.216 25.708 205.256 26.488 203.984 27.136C202.712 27.784 201.176 28.108 199.376 28.108C196.712 28.108 194.528 27.436 192.824 26.092C191.12 24.748 190.268 22.792 190.268 20.224C190.268 19.504 190.364 18.664 190.556 17.704C191.156 14.752 192.464 12.532 194.48 11.044C196.52 9.532 198.992 8.776 201.896 8.776ZM198.692 17.272C198.788 17.296 198.92 17.308 199.088 17.308C200.096 17.308 200.864 16.84 201.392 15.904C201.92 14.968 202.172 13.924 202.148 12.772C202.124 12.1 201.932 11.764 201.572 11.764C201.308 11.764 200.996 11.98 200.636 12.412C200.276 12.82 199.916 13.444 199.556 14.284C199.22 15.124 198.932 16.12 198.692 17.272Z" stroke="white" stroke-width="2" mask="url(#path-1-outside-1_409_92)"/>
</svg>
