<svg width="1012" height="65" viewBox="0 0 1012 65" fill="none" xmlns="http://www.w3.org/2000/svg">
<mask id="path-1-outside-1_180_3729" maskUnits="userSpaceOnUse" x="0.335938" y="0" width="1011" height="65" fill="black">
<rect fill="white" x="0.335938" width="1011" height="65"/>
<path d="M40.2879 7.376C43.1893 7.376 45.7066 7.824 47.8399 8.72C50.0159 9.57334 51.6586 10.768 52.7679 12.304C53.9199 13.7973 54.4959 15.5253 54.4959 17.488C54.4959 18.5973 54.3466 19.6213 54.0479 20.56C52.8106 24.8693 49.2479 27.6 43.3599 28.752C45.4079 29.3493 47.0293 30.352 48.2239 31.76C49.4186 33.1253 50.0159 34.832 50.0159 36.88C50.0159 37.8187 49.8453 38.928 49.5039 40.208C48.5653 43.536 46.6666 46.0107 43.8079 47.632C40.9919 49.2107 36.9813 50 31.7759 50H5.15194C4.25594 50 3.57327 49.8507 3.10394 49.552C2.59194 49.2533 2.33594 48.848 2.33594 48.336C2.33594 48.08 2.39994 47.8027 2.52794 47.504C2.6986 47.0347 2.97594 46.672 3.35994 46.416C3.74394 46.16 3.9786 46.0107 4.06394 45.968C4.7466 45.5413 5.30127 45.1147 5.72794 44.688C6.1546 44.2187 6.51727 43.472 6.81594 42.448L14.6239 14.864C14.7946 14.3093 14.8799 13.776 14.8799 13.264C14.8799 12.7947 14.7946 12.4107 14.6239 12.112C14.4959 11.7707 14.3039 11.3867 14.0479 10.96C13.6639 10.4053 13.4719 9.95734 13.4719 9.616C13.4719 9.488 13.5146 9.25334 13.5999 8.912C13.7706 8.35734 14.1333 7.97334 14.6879 7.76C15.2853 7.504 16.1813 7.376 17.3759 7.376H40.2879ZM37.4079 19.088C37.7066 18.1493 37.8559 17.2747 37.8559 16.464C37.8559 14.2453 36.5973 13.136 34.0799 13.136H31.1999L27.8079 25.104H30.6239C32.4159 25.104 33.8239 24.6773 34.8479 23.824C35.9146 22.928 36.7679 21.3493 37.4079 19.088ZM32.7359 37.904C33.0346 36.88 33.1839 35.9413 33.1839 35.088C33.1839 32.784 31.8613 31.632 29.2159 31.632H26.0159L22.3679 44.24H25.6319C27.4666 44.24 28.9386 43.792 30.0479 42.896C31.1573 41.9573 32.0533 40.2933 32.7359 37.904Z"/>
<path d="M84.1114 16.144C86.5008 16.144 88.3994 16.8693 89.8074 18.32C91.2581 19.7707 91.9834 21.5627 91.9834 23.696C91.9834 24.5067 91.8981 25.2533 91.7274 25.936C91.3008 27.6853 90.4901 29.0293 89.2954 29.968C88.1008 30.9067 86.6714 31.376 85.0074 31.376C83.3861 31.376 82.1488 30.992 81.2954 30.224C80.4848 29.456 79.7594 28.432 79.1194 27.152C78.7781 26.4267 78.4581 25.8933 78.1594 25.552C77.8608 25.2107 77.5194 25.04 77.1354 25.04C76.7088 25.04 76.3248 25.2107 75.9834 25.552C75.6848 25.8933 75.4074 26.4907 75.1514 27.344L70.2234 43.344C70.1381 43.5573 70.0954 43.8773 70.0954 44.304C70.0954 44.8587 70.2448 45.328 70.5434 45.712C70.8848 46.0533 71.3328 46.3947 71.8874 46.736C72.3994 47.0773 72.7408 47.3547 72.9114 47.568C73.0821 47.7813 73.1461 48.0587 73.1034 48.4C73.0181 48.9547 72.6981 49.36 72.1434 49.616C71.6314 49.872 70.7354 50 69.4554 50H53.0714C51.9621 50 51.1728 49.8293 50.7034 49.488C50.1914 49.104 49.9994 48.6133 50.1274 48.016C50.2981 47.504 50.7461 47.056 51.4714 46.672C52.1114 46.3307 52.6448 45.9253 53.0714 45.456C53.4981 44.9867 53.8608 44.24 54.1594 43.216L59.8554 24.72C59.9408 24.5067 59.9834 24.208 59.9834 23.824C59.9834 23.3547 59.8768 22.992 59.6634 22.736C59.4928 22.48 59.1941 22.16 58.7674 21.776C58.3408 21.4347 58.0421 21.136 57.8714 20.88C57.7008 20.624 57.6794 20.2827 57.8074 19.856C58.0634 18.8747 59.4074 18.0213 61.8394 17.296C64.2714 16.528 66.8101 16.144 69.4554 16.144C71.2048 16.144 72.6554 16.5493 73.8074 17.36C74.9594 18.128 75.7061 19.2373 76.0474 20.688C78.0954 17.6587 80.7834 16.144 84.1114 16.144Z"/>
<path d="M111.348 16.144C116.255 16.144 120.18 17.0613 123.124 18.896C126.068 20.688 127.54 23.44 127.54 27.152C127.54 28.56 127.284 30.16 126.772 31.952L124.148 40.784C124.105 40.9547 124.084 41.168 124.084 41.424C124.084 42.1067 124.361 42.448 124.916 42.448C125.428 42.448 125.855 42.2347 126.196 41.808C126.58 41.3387 126.836 41.104 126.964 41.104C127.177 41.104 127.348 41.2533 127.476 41.552C127.647 41.8507 127.732 42.192 127.732 42.576C127.775 43.728 127.327 44.9013 126.388 46.096C125.492 47.2907 124.276 48.272 122.74 49.04C121.204 49.808 119.519 50.192 117.684 50.192C115.465 50.192 113.567 49.7867 111.988 48.976C110.409 48.1653 109.321 46.9707 108.724 45.392C107.444 46.928 105.929 48.1227 104.18 48.976C102.431 49.7867 100.553 50.192 98.5479 50.192C96.2866 50.192 94.3879 49.7653 92.8519 48.912C91.3159 48.016 90.1639 46.8853 89.3959 45.52C88.6706 44.112 88.3079 42.64 88.3079 41.104C88.3079 40.4213 88.3719 39.76 88.4999 39.12C89.1826 36.176 90.6546 33.9573 92.9159 32.464C95.2199 30.9707 97.9506 30.224 101.108 30.224C104.649 30.224 108.127 30.7787 111.54 31.888L113.14 27.664C113.695 25.872 113.972 24.4853 113.972 23.504C113.929 22.48 113.588 21.712 112.948 21.2C112.308 20.688 111.327 20.432 110.004 20.432C110.26 21.1147 110.388 21.8187 110.388 22.544C110.388 24.1227 109.791 25.488 108.596 26.64C107.401 27.792 105.695 28.368 103.476 28.368C101.385 28.368 99.7426 27.92 98.5479 27.024C97.3959 26.0853 96.8199 24.9333 96.8199 23.568C96.8199 21.4347 98.0146 19.664 100.404 18.256C102.793 16.848 106.441 16.144 111.348 16.144ZM107.764 35.536C106.569 35.536 105.588 36.0053 104.82 36.944C104.095 37.84 103.732 38.8213 103.732 39.888C103.732 40.5707 103.881 41.1253 104.18 41.552C104.521 41.9787 104.991 42.192 105.588 42.192C106.143 42.192 106.74 41.9787 107.38 41.552C108.063 41.0827 108.553 40.4 108.852 39.504L110.196 35.728C109.471 35.6 108.66 35.536 107.764 35.536Z"/>
<path d="M147.207 16.144C149.682 16.144 151.495 16.6133 152.647 17.552C153.799 18.4907 154.375 19.7707 154.375 21.392C154.375 22.3733 154.226 23.312 153.927 24.208L148.039 43.344C147.911 43.856 147.847 44.304 147.847 44.688C147.847 45.2427 147.954 45.6907 148.167 46.032C148.38 46.3307 148.679 46.6293 149.063 46.928C149.362 47.2267 149.575 47.4827 149.703 47.696C149.831 47.8667 149.852 48.1013 149.767 48.4C149.554 48.9547 149.127 49.36 148.487 49.616C147.847 49.872 146.866 50 145.543 50H130.951C129.842 50 129.031 49.8293 128.519 49.488C128.007 49.104 127.836 48.6133 128.007 48.016C128.178 47.504 128.626 47.056 129.351 46.672C129.991 46.3307 130.524 45.9253 130.951 45.456C131.378 44.9867 131.74 44.24 132.039 43.216L137.607 24.72C137.735 24.336 137.799 24.016 137.799 23.76C137.799 23.2907 137.692 22.928 137.479 22.672C137.266 22.3733 136.946 22.0747 136.519 21.776C136.092 21.4347 135.794 21.136 135.623 20.88C135.452 20.624 135.431 20.2827 135.559 19.856C135.815 18.8747 137.159 18.0213 139.591 17.296C142.023 16.528 144.562 16.144 147.207 16.144ZM151.495 2C153.159 2 154.546 2.55467 155.655 3.664C156.764 4.73067 157.319 6.05333 157.319 7.632C157.319 8.74133 157.02 9.82934 156.423 10.896C155.868 11.9627 155.058 12.8373 153.991 13.52C152.967 14.16 151.815 14.48 150.535 14.48C148.914 14.48 147.548 13.9467 146.439 12.88C145.372 11.7707 144.818 10.4053 144.775 8.784C144.775 7.71733 145.052 6.672 145.607 5.648C146.162 4.58133 146.951 3.70667 147.975 3.024C148.999 2.34133 150.172 2 151.495 2Z"/>
<path d="M189.588 40.784C189.503 41.1253 189.46 41.36 189.46 41.488C189.46 41.7867 189.546 42.0213 189.716 42.192C189.887 42.3627 190.1 42.448 190.356 42.448C190.868 42.448 191.295 42.2347 191.636 41.808C192.02 41.3387 192.276 41.104 192.404 41.104C192.618 41.104 192.788 41.2533 192.916 41.552C193.044 41.8507 193.108 42.192 193.108 42.576C193.151 43.728 192.703 44.9013 191.764 46.096C190.868 47.2907 189.652 48.272 188.116 49.04C186.58 49.808 184.916 50.192 183.124 50.192C180.991 50.192 179.135 49.7867 177.556 48.976C175.978 48.1653 174.89 47.0987 174.292 45.776C173.14 47.2693 171.818 48.3787 170.324 49.104C168.831 49.8293 167.252 50.192 165.588 50.192C163.626 50.192 161.791 49.7013 160.084 48.72C158.42 47.7387 157.076 46.352 156.052 44.56C155.071 42.7253 154.58 40.656 154.58 38.352C154.58 34.4693 155.306 30.8213 156.756 27.408C158.25 23.952 160.319 21.1787 162.964 19.088C165.61 16.9547 168.618 15.888 171.988 15.888C173.823 15.888 175.38 16.1013 176.66 16.528C177.983 16.9547 179.178 17.5947 180.244 18.448L182.42 11.28C182.548 10.896 182.612 10.576 182.612 10.32C182.612 9.85067 182.484 9.46667 182.228 9.168C182.015 8.86934 181.716 8.57067 181.332 8.272C180.906 7.93067 180.586 7.632 180.372 7.376C180.202 7.12 180.18 6.77867 180.308 6.352C180.564 5.37067 181.908 4.51733 184.34 3.792C186.772 3.06667 189.311 2.704 191.956 2.704C194.431 2.704 196.244 3.17334 197.396 4.112C198.591 5.05067 199.188 6.33067 199.188 7.952C199.188 8.89067 199.039 9.808 198.74 10.704L189.588 40.784ZM178.9 22.8C178.218 22.2027 177.471 21.904 176.66 21.904C175.423 21.904 174.207 22.8213 173.012 24.656C171.818 26.4907 170.858 28.7093 170.132 31.312C169.407 33.9147 169.066 36.2613 169.108 38.352C169.108 40.6987 169.876 41.872 171.412 41.872C171.967 41.872 172.436 41.6587 172.82 41.232C173.204 40.7627 173.567 40.016 173.908 38.992L178.9 22.8Z"/>
<path d="M212.582 16.144C215.057 16.144 216.87 16.6133 218.022 17.552C219.174 18.4907 219.75 19.7707 219.75 21.392C219.75 22.3733 219.601 23.312 219.302 24.208L213.414 43.344C213.286 43.856 213.222 44.304 213.222 44.688C213.222 45.2427 213.329 45.6907 213.542 46.032C213.755 46.3307 214.054 46.6293 214.438 46.928C214.737 47.2267 214.95 47.4827 215.078 47.696C215.206 47.8667 215.227 48.1013 215.142 48.4C214.929 48.9547 214.502 49.36 213.862 49.616C213.222 49.872 212.241 50 210.918 50H196.326C195.217 50 194.406 49.8293 193.894 49.488C193.382 49.104 193.211 48.6133 193.382 48.016C193.553 47.504 194.001 47.056 194.726 46.672C195.366 46.3307 195.899 45.9253 196.326 45.456C196.753 44.9867 197.115 44.24 197.414 43.216L202.982 24.72C203.11 24.336 203.174 24.016 203.174 23.76C203.174 23.2907 203.067 22.928 202.854 22.672C202.641 22.3733 202.321 22.0747 201.894 21.776C201.467 21.4347 201.169 21.136 200.998 20.88C200.827 20.624 200.806 20.2827 200.934 19.856C201.19 18.8747 202.534 18.0213 204.966 17.296C207.398 16.528 209.937 16.144 212.582 16.144ZM216.87 2C218.534 2 219.921 2.55467 221.03 3.664C222.139 4.73067 222.694 6.05333 222.694 7.632C222.694 8.74133 222.395 9.82934 221.798 10.896C221.243 11.9627 220.433 12.8373 219.366 13.52C218.342 14.16 217.19 14.48 215.91 14.48C214.289 14.48 212.923 13.9467 211.814 12.88C210.747 11.7707 210.193 10.4053 210.15 8.784C210.15 7.71733 210.427 6.672 210.982 5.648C211.537 4.58133 212.326 3.70667 213.35 3.024C214.374 2.34133 215.547 2 216.87 2Z"/>
<path d="M258.803 41.168C258.718 41.3387 258.675 41.5947 258.675 41.936C258.675 42.2347 258.739 42.4693 258.867 42.64C259.038 42.8107 259.251 42.896 259.507 42.896C260.019 42.896 260.446 42.6827 260.787 42.256C261.171 41.7867 261.427 41.552 261.555 41.552C261.769 41.552 261.939 41.7013 262.067 42C262.195 42.256 262.259 42.576 262.259 42.96C262.302 44.1973 261.897 45.4133 261.043 46.608C260.19 47.76 258.931 48.72 257.267 49.488C255.646 50.2133 253.683 50.576 251.379 50.576C248.563 50.576 246.323 49.936 244.659 48.656C242.995 47.3333 242.142 45.584 242.099 43.408C242.099 41.8293 242.483 40.0587 243.251 38.096L246.771 28.88C246.985 28.3253 247.091 27.8773 247.091 27.536C247.091 26.9813 246.899 26.5547 246.515 26.256C246.174 25.9147 245.747 25.744 245.235 25.744C244.297 25.744 243.401 26.192 242.547 27.088C241.694 27.9413 241.075 29.008 240.691 30.288L236.723 43.344C236.553 43.8133 236.467 44.2613 236.467 44.688C236.467 45.2 236.574 45.6267 236.787 45.968C237.001 46.2667 237.299 46.5867 237.683 46.928C237.982 47.184 238.195 47.4187 238.323 47.632C238.451 47.8453 238.473 48.1013 238.387 48.4C238.217 48.9547 237.811 49.36 237.171 49.616C236.531 49.872 235.529 50 234.163 50H219.571C218.462 50 217.673 49.8293 217.203 49.488C216.691 49.104 216.499 48.6133 216.627 48.016C216.798 47.504 217.246 47.056 217.971 46.672C218.611 46.3307 219.145 45.9253 219.571 45.456C219.998 44.9867 220.361 44.24 220.659 43.216L226.355 24.72C226.441 24.5067 226.483 24.208 226.483 23.824C226.483 23.3547 226.377 22.992 226.163 22.736C225.993 22.48 225.694 22.16 225.267 21.776C224.841 21.4347 224.542 21.136 224.371 20.88C224.201 20.624 224.179 20.2827 224.307 19.856C224.563 18.8747 225.907 18.0213 228.339 17.296C230.771 16.528 233.31 16.144 235.955 16.144C238.089 16.144 239.774 16.7413 241.011 17.936C242.249 19.088 242.803 20.7093 242.675 22.8C244.425 20.2827 246.281 18.5547 248.243 17.616C250.206 16.6347 252.339 16.144 254.643 16.144C257.246 16.144 259.337 16.9333 260.915 18.512C262.537 20.0907 263.347 22.1387 263.347 24.656C263.347 25.9787 263.134 27.28 262.707 28.56L258.803 41.168Z"/>
<path d="M303.784 5.712C305.149 5.712 306.472 6.01067 307.752 6.608C309.075 7.16267 310.141 7.952 310.952 8.976C311.805 9.95734 312.232 11.024 312.232 12.176C312.232 14.6933 310.525 15.952 307.112 15.952C306.131 15.952 305.363 15.888 304.808 15.76C304.296 15.5893 303.677 15.3333 302.952 14.992C302.824 15.2907 302.76 15.7173 302.76 16.272C302.76 16.9547 302.867 17.7653 303.08 18.704C303.336 19.6427 303.635 20.5173 303.976 21.328C304.872 22.6507 305.32 24.2293 305.32 26.064C305.32 26.8747 305.213 27.856 305 29.008C304.488 31.2267 303.357 33.2533 301.608 35.088C299.901 36.9227 297.683 38.3733 294.952 39.44C292.264 40.464 289.299 40.976 286.056 40.976C283.581 40.976 281.256 40.8053 279.08 40.464C278.44 41.0187 278.12 41.7013 278.12 42.512C278.12 43.0667 278.376 43.536 278.888 43.92C279.4 44.2613 280.253 44.432 281.448 44.432H291.048C294.333 44.432 296.893 45.008 298.728 46.16C300.563 47.2693 301.48 48.8693 301.48 50.96C301.48 51.728 301.352 52.5173 301.096 53.328C300.584 54.992 299.411 56.528 297.576 57.936C295.784 59.3867 293.245 60.56 289.96 61.456C286.675 62.352 282.685 62.8 277.992 62.8C273.811 62.8 270.269 62.4373 267.368 61.712C264.467 60.9867 262.312 59.984 260.904 58.704C259.453 57.4667 258.728 56.08 258.728 54.544C258.728 54.2027 258.813 53.6907 258.984 53.008C259.368 51.7707 260.243 50.768 261.608 50C262.931 49.1893 265.128 48.656 268.2 48.4C267.176 47.4187 266.664 46.2453 266.664 44.88C266.664 44.4107 266.728 43.92 266.856 43.408C267.539 41.1893 269.544 39.5467 272.872 38.48C269.672 36.7307 268.072 34.1707 268.072 30.8C268.072 29.8613 268.2 28.88 268.456 27.856C268.968 25.6373 270.099 23.632 271.848 21.84C273.597 20.0053 275.837 18.5547 278.568 17.488C281.299 16.4213 284.285 15.888 287.528 15.888C292.605 15.888 296.595 16.5493 299.496 17.872C298.856 16.8907 298.344 15.8453 297.96 14.736C297.619 13.584 297.448 12.5387 297.448 11.6C297.448 9.97867 297.96 8.592 298.984 7.44C300.051 6.288 301.651 5.712 303.784 5.712ZM289.896 28.432C290.579 26.256 290.92 24.592 290.92 23.44C290.92 21.9893 290.301 21.264 289.064 21.264C287.997 21.264 287.059 21.7973 286.248 22.864C285.48 23.888 284.691 25.744 283.88 28.432C283.197 30.6507 282.856 32.336 282.856 33.488C282.856 34.896 283.453 35.6 284.648 35.6C285.715 35.6 286.653 35.0667 287.464 34C288.275 32.9333 289.085 31.0773 289.896 28.432ZM277.16 50.896C275.965 50.896 274.877 50.832 273.896 50.704C273.384 51.344 273.128 52.1973 273.128 53.264C273.171 54.3307 273.597 55.0987 274.408 55.568C275.261 56.0373 276.563 56.272 278.312 56.272C280.445 56.272 282.173 55.952 283.496 55.312C284.861 54.672 285.544 53.7547 285.544 52.56C285.544 52.048 285.352 51.6427 284.968 51.344C284.584 51.0453 284.029 50.896 283.304 50.896H277.16Z"/>
<path d="M368.293 7.376C370.043 7.376 370.917 7.93067 370.917 9.04C370.917 9.33867 370.896 9.552 370.853 9.68C370.725 10.1067 370.533 10.448 370.277 10.704C370.021 10.9173 369.659 11.1733 369.189 11.472C368.549 11.856 368.016 12.2827 367.589 12.752C367.163 13.2213 366.8 13.9467 366.501 14.928L358.565 43.344C357.84 45.904 356.923 47.696 355.813 48.72C354.747 49.744 353.253 50.256 351.333 50.256C349.627 50.256 348.197 49.7653 347.045 48.784C345.936 47.76 344.891 46.2027 343.909 44.112L334.245 23.76L328.869 42.448C328.741 43.0027 328.677 43.4933 328.677 43.92C328.677 44.4747 328.763 44.944 328.933 45.328C329.147 45.6693 329.424 46.032 329.765 46.416C330.235 46.9707 330.469 47.44 330.469 47.824C330.469 48.08 330.448 48.272 330.405 48.4C330.235 48.9973 329.851 49.424 329.253 49.68C328.656 49.8933 327.76 50 326.565 50H319.589C317.84 50 316.965 49.4453 316.965 48.336C316.965 48.0373 316.987 47.824 317.029 47.696C317.157 47.2693 317.349 46.9493 317.605 46.736C317.861 46.48 318.224 46.2027 318.693 45.904C319.333 45.52 319.867 45.0933 320.293 44.624C320.72 44.1547 321.083 43.4293 321.381 42.448L329.509 13.712L328.485 11.6C328.059 10.7467 327.845 10 327.845 9.36C327.845 8.03734 328.699 7.376 330.405 7.376H339.877C341.243 7.376 342.267 7.696 342.949 8.336C343.675 8.93334 344.443 10.0213 345.253 11.6L354.597 30.352L359.013 14.928C359.141 14.3307 359.205 13.84 359.205 13.456C359.205 12.9013 359.099 12.4533 358.885 12.112C358.715 11.728 358.459 11.344 358.117 10.96C357.648 10.4053 357.413 9.936 357.413 9.552C357.413 9.296 357.435 9.104 357.477 8.976C357.648 8.37867 358.032 7.97334 358.629 7.76C359.227 7.504 360.123 7.376 361.317 7.376H368.293Z"/>
<path d="M387.785 16.144C392.692 16.144 396.617 17.0613 399.561 18.896C402.505 20.688 403.977 23.44 403.977 27.152C403.977 28.56 403.721 30.16 403.209 31.952L400.585 40.784C400.543 40.9547 400.521 41.168 400.521 41.424C400.521 42.1067 400.799 42.448 401.353 42.448C401.865 42.448 402.292 42.2347 402.633 41.808C403.017 41.3387 403.273 41.104 403.401 41.104C403.615 41.104 403.785 41.2533 403.913 41.552C404.084 41.8507 404.169 42.192 404.169 42.576C404.212 43.728 403.764 44.9013 402.825 46.096C401.929 47.2907 400.713 48.272 399.177 49.04C397.641 49.808 395.956 50.192 394.121 50.192C391.903 50.192 390.004 49.7867 388.425 48.976C386.847 48.1653 385.759 46.9707 385.161 45.392C383.881 46.928 382.367 48.1227 380.617 48.976C378.868 49.7867 376.991 50.192 374.985 50.192C372.724 50.192 370.825 49.7653 369.289 48.912C367.753 48.016 366.601 46.8853 365.833 45.52C365.108 44.112 364.745 42.64 364.745 41.104C364.745 40.4213 364.809 39.76 364.937 39.12C365.62 36.176 367.092 33.9573 369.353 32.464C371.657 30.9707 374.388 30.224 377.545 30.224C381.087 30.224 384.564 30.7787 387.977 31.888L389.577 27.664C390.132 25.872 390.409 24.4853 390.409 23.504C390.367 22.48 390.025 21.712 389.385 21.2C388.745 20.688 387.764 20.432 386.441 20.432C386.697 21.1147 386.825 21.8187 386.825 22.544C386.825 24.1227 386.228 25.488 385.033 26.64C383.839 27.792 382.132 28.368 379.913 28.368C377.823 28.368 376.18 27.92 374.985 27.024C373.833 26.0853 373.257 24.9333 373.257 23.568C373.257 21.4347 374.452 19.664 376.841 18.256C379.231 16.848 382.879 16.144 387.785 16.144ZM384.201 35.536C383.007 35.536 382.025 36.0053 381.257 36.944C380.532 37.84 380.169 38.8213 380.169 39.888C380.169 40.5707 380.319 41.1253 380.617 41.552C380.959 41.9787 381.428 42.192 382.025 42.192C382.58 42.192 383.177 41.9787 383.817 41.552C384.5 41.0827 384.991 40.4 385.289 39.504L386.633 35.728C385.908 35.6 385.097 35.536 384.201 35.536Z"/>
<path d="M423.644 16.144C426.119 16.144 427.932 16.6133 429.084 17.552C430.236 18.4907 430.812 19.7707 430.812 21.392C430.812 22.3733 430.663 23.312 430.364 24.208L424.476 43.344C424.348 43.856 424.284 44.304 424.284 44.688C424.284 45.2427 424.391 45.6907 424.604 46.032C424.818 46.3307 425.116 46.6293 425.5 46.928C425.799 47.2267 426.012 47.4827 426.14 47.696C426.268 47.8667 426.29 48.1013 426.204 48.4C425.991 48.9547 425.564 49.36 424.924 49.616C424.284 49.872 423.303 50 421.98 50H407.388C406.279 50 405.468 49.8293 404.956 49.488C404.444 49.104 404.274 48.6133 404.444 48.016C404.615 47.504 405.063 47.056 405.788 46.672C406.428 46.3307 406.962 45.9253 407.388 45.456C407.815 44.9867 408.178 44.24 408.476 43.216L414.044 24.72C414.172 24.336 414.236 24.016 414.236 23.76C414.236 23.2907 414.13 22.928 413.916 22.672C413.703 22.3733 413.383 22.0747 412.956 21.776C412.53 21.4347 412.231 21.136 412.06 20.88C411.89 20.624 411.868 20.2827 411.996 19.856C412.252 18.8747 413.596 18.0213 416.028 17.296C418.46 16.528 420.999 16.144 423.644 16.144ZM427.932 2C429.596 2 430.983 2.55467 432.092 3.664C433.202 4.73067 433.756 6.05333 433.756 7.632C433.756 8.74133 433.458 9.82934 432.86 10.896C432.306 11.9627 431.495 12.8373 430.428 13.52C429.404 14.16 428.252 14.48 426.972 14.48C425.351 14.48 423.986 13.9467 422.876 12.88C421.81 11.7707 421.255 10.4053 421.212 8.784C421.212 7.71733 421.49 6.672 422.044 5.648C422.599 4.58133 423.388 3.70667 424.412 3.024C425.436 2.34133 426.61 2 427.932 2Z"/>
<path d="M461.674 16.144C464.063 16.144 465.962 16.8693 467.37 18.32C468.821 19.7707 469.546 21.5627 469.546 23.696C469.546 24.5067 469.461 25.2533 469.29 25.936C468.863 27.6853 468.053 29.0293 466.858 29.968C465.663 30.9067 464.234 31.376 462.57 31.376C460.949 31.376 459.711 30.992 458.858 30.224C458.047 29.456 457.322 28.432 456.682 27.152C456.341 26.4267 456.021 25.8933 455.722 25.552C455.423 25.2107 455.082 25.04 454.698 25.04C454.271 25.04 453.887 25.2107 453.546 25.552C453.247 25.8933 452.97 26.4907 452.714 27.344L447.786 43.344C447.701 43.5573 447.658 43.8773 447.658 44.304C447.658 44.8587 447.807 45.328 448.106 45.712C448.447 46.0533 448.895 46.3947 449.45 46.736C449.962 47.0773 450.303 47.3547 450.474 47.568C450.645 47.7813 450.709 48.0587 450.666 48.4C450.581 48.9547 450.261 49.36 449.706 49.616C449.194 49.872 448.298 50 447.018 50H430.634C429.525 50 428.735 49.8293 428.266 49.488C427.754 49.104 427.562 48.6133 427.69 48.016C427.861 47.504 428.309 47.056 429.034 46.672C429.674 46.3307 430.207 45.9253 430.634 45.456C431.061 44.9867 431.423 44.24 431.722 43.216L437.418 24.72C437.503 24.5067 437.546 24.208 437.546 23.824C437.546 23.3547 437.439 22.992 437.226 22.736C437.055 22.48 436.757 22.16 436.33 21.776C435.903 21.4347 435.605 21.136 435.434 20.88C435.263 20.624 435.242 20.2827 435.37 19.856C435.626 18.8747 436.97 18.0213 439.402 17.296C441.834 16.528 444.373 16.144 447.018 16.144C448.767 16.144 450.218 16.5493 451.37 17.36C452.522 18.128 453.269 19.2373 453.61 20.688C455.658 17.6587 458.346 16.144 461.674 16.144Z"/>
<path d="M492.08 16.144C497.883 16.144 502.15 17.3173 504.88 19.664C507.654 22.0107 509.04 25.0827 509.04 28.88C509.04 30.16 508.87 31.5893 508.528 33.168C507.718 36.6667 506.203 39.7387 503.984 42.384C501.766 44.9867 499.035 47.0133 495.792 48.464C492.592 49.872 489.115 50.576 485.36 50.576C479.43 50.576 475.035 49.4027 472.176 47.056C469.36 44.6667 467.952 41.5093 467.952 37.584C467.952 36.2613 468.123 34.7893 468.464 33.168C469.275 29.84 470.811 26.896 473.072 24.336C475.376 21.7333 478.171 19.728 481.456 18.32C484.784 16.8693 488.326 16.144 492.08 16.144ZM491.888 21.84C490.992 21.84 490.032 22.6507 489.008 24.272C488.027 25.8507 486.854 28.8587 485.488 33.296C484.123 37.7333 483.44 40.848 483.44 42.64C483.44 43.5787 483.59 44.2187 483.888 44.56C484.187 44.8587 484.592 45.008 485.104 45.008C486 45.0933 486.918 44.3253 487.856 42.704C488.838 41.0827 490.054 37.9253 491.504 33.232C492.827 29.0933 493.488 26.0853 493.488 24.208C493.488 23.312 493.339 22.6933 493.04 22.352C492.784 22.0107 492.4 21.84 491.888 21.84Z"/>
<path d="M540.702 15.888C543.86 15.888 546.377 17.0187 548.254 19.28C550.174 21.5413 551.134 24.528 551.134 28.24C551.134 30.16 550.9 32.0373 550.43 33.872C549.065 39.376 546.718 43.536 543.39 46.352C540.105 49.168 536.308 50.576 531.998 50.576C529.566 50.576 527.454 50.1707 525.662 49.36C523.913 48.5067 522.505 47.312 521.438 45.776L519.134 47.76C518.238 48.528 517.364 49.104 516.51 49.488C515.657 49.8293 514.676 50 513.566 50H510.75C509.684 50 508.852 49.7867 508.254 49.36C507.7 48.8907 507.422 48.2293 507.422 47.376C507.422 46.992 507.486 46.544 507.614 46.032L518.302 11.28C518.43 10.896 518.494 10.576 518.494 10.32C518.494 9.59467 518.046 8.912 517.15 8.272C516.724 7.888 516.425 7.58934 516.254 7.376C516.084 7.12 516.062 6.8 516.19 6.416C516.489 5.43467 517.833 4.58133 520.222 3.856C522.654 3.088 525.193 2.704 527.838 2.704C530.313 2.704 532.126 3.19467 533.278 4.176C534.473 5.11467 535.07 6.39467 535.07 8.016C535.07 8.912 534.921 9.808 534.622 10.704L531.934 19.408C534.409 17.0613 537.332 15.888 540.702 15.888ZM533.47 33.488C534.324 30.5867 534.75 28.24 534.75 26.448C534.75 24.4853 534.174 23.504 533.022 23.504C531.998 23.504 531.038 24.0373 530.142 25.104L525.982 38.672L525.598 39.888C525.385 40.528 525.278 41.1893 525.278 41.872C525.278 43.3653 525.982 44.112 527.39 44.112C528.414 44.112 529.396 43.3653 530.334 41.872C531.273 40.3787 532.318 37.584 533.47 33.488Z"/>
<path d="M568.207 16.144C570.682 16.144 572.495 16.6133 573.647 17.552C574.799 18.4907 575.375 19.7707 575.375 21.392C575.375 22.3733 575.226 23.312 574.927 24.208L569.039 43.344C568.911 43.856 568.847 44.304 568.847 44.688C568.847 45.2427 568.954 45.6907 569.167 46.032C569.38 46.3307 569.679 46.6293 570.063 46.928C570.362 47.2267 570.575 47.4827 570.703 47.696C570.831 47.8667 570.852 48.1013 570.767 48.4C570.554 48.9547 570.127 49.36 569.487 49.616C568.847 49.872 567.866 50 566.543 50H551.951C550.842 50 550.031 49.8293 549.519 49.488C549.007 49.104 548.836 48.6133 549.007 48.016C549.178 47.504 549.626 47.056 550.351 46.672C550.991 46.3307 551.524 45.9253 551.951 45.456C552.378 44.9867 552.74 44.24 553.039 43.216L558.607 24.72C558.735 24.336 558.799 24.016 558.799 23.76C558.799 23.2907 558.692 22.928 558.479 22.672C558.266 22.3733 557.946 22.0747 557.519 21.776C557.092 21.4347 556.794 21.136 556.623 20.88C556.452 20.624 556.431 20.2827 556.559 19.856C556.815 18.8747 558.159 18.0213 560.591 17.296C563.023 16.528 565.562 16.144 568.207 16.144ZM572.495 2C574.159 2 575.546 2.55467 576.655 3.664C577.764 4.73067 578.319 6.05333 578.319 7.632C578.319 8.74133 578.02 9.82934 577.423 10.896C576.868 11.9627 576.058 12.8373 574.991 13.52C573.967 14.16 572.815 14.48 571.535 14.48C569.914 14.48 568.548 13.9467 567.439 12.88C566.372 11.7707 565.818 10.4053 565.775 8.784C565.775 7.71733 566.052 6.672 566.607 5.648C567.162 4.58133 567.951 3.70667 568.975 3.024C569.999 2.34133 571.172 2 572.495 2Z"/>
<path d="M626.729 42.448C626.558 43.0027 626.473 43.5573 626.473 44.112C626.473 44.5813 626.537 44.9867 626.665 45.328C626.793 45.6267 626.921 45.8827 627.049 46.096C627.22 46.2667 627.326 46.3947 627.369 46.48C627.796 46.9067 628.009 47.3333 628.009 47.76C628.009 47.8453 627.966 48.0587 627.881 48.4C627.71 48.9973 627.326 49.424 626.729 49.68C626.174 49.8933 625.3 50 624.105 50H608.937C608.041 50 607.337 49.8507 606.825 49.552C606.356 49.2533 606.121 48.848 606.121 48.336C606.121 48.08 606.185 47.8027 606.313 47.504C606.441 47.1627 606.612 46.9067 606.825 46.736C607.081 46.5227 607.422 46.288 607.849 46.032C608.532 45.648 609.086 45.2213 609.513 44.752C609.94 44.2827 610.302 43.5147 610.601 42.448L612.265 36.944H602.281L600.553 40.592C599.828 42.1707 599.465 43.408 599.465 44.304C599.465 44.816 599.55 45.2427 599.721 45.584C599.892 45.8827 600.148 46.2027 600.489 46.544C600.788 46.8853 600.98 47.184 601.065 47.44C601.193 47.6533 601.214 47.952 601.129 48.336C600.958 48.976 600.596 49.424 600.041 49.68C599.529 49.8933 598.697 50 597.545 50H588.009C587.028 50 586.281 49.8293 585.769 49.488C585.257 49.104 585.001 48.6133 585.001 48.016C585.001 47.3333 585.257 46.8 585.769 46.416C586.238 45.9893 586.964 45.5413 587.945 45.072C589.225 44.432 590.249 43.8133 591.017 43.216C591.785 42.576 592.446 41.7013 593.001 40.592L604.393 16.976C606.142 13.3067 608.19 10.6613 610.537 9.04C612.926 7.376 616.062 6.544 619.945 6.544C624.297 6.544 627.668 7.44 630.057 9.232C632.446 10.9813 633.641 13.4347 633.641 16.592C633.641 17.9147 633.428 19.28 633.001 20.688L626.729 42.448ZM614.185 30.544L617.577 19.28C617.748 18.768 617.833 18.2347 617.833 17.68C617.833 16.8693 617.598 16.272 617.129 15.888C616.702 15.4613 616.084 15.248 615.273 15.248C614.249 15.248 613.374 15.5467 612.649 16.144C611.924 16.7413 611.198 17.808 610.473 19.344L605.225 30.544H614.185Z"/>
<path d="M665.784 15.888C669.07 15.888 671.651 16.976 673.528 19.152C675.406 21.328 676.344 24.2933 676.344 28.048C676.344 30.0533 676.067 32.1653 675.512 34.384C674.232 39.6747 671.843 43.7067 668.344 46.48C664.846 49.2107 660.792 50.576 656.184 50.576C653.24 50.576 650.68 49.9573 648.504 48.72L646.456 55.568C646.286 56.0373 646.2 56.4853 646.2 56.912C646.2 57.3813 646.307 57.7653 646.52 58.064C646.734 58.4053 647.011 58.7253 647.352 59.024C647.694 59.3653 647.907 59.6427 647.992 59.856C648.12 60.0693 648.142 60.3253 648.056 60.624C647.886 61.1787 647.48 61.5627 646.84 61.776C646.2 62.032 645.219 62.16 643.896 62.16H629.24C628.131 62.16 627.342 61.968 626.872 61.584C626.36 61.2427 626.211 60.7947 626.424 60.24C626.51 59.8987 626.659 59.6213 626.872 59.408C627.086 59.1947 627.384 59.0027 627.768 58.832C628.408 58.4053 628.92 57.9573 629.304 57.488C629.688 57.0613 630.03 56.3573 630.328 55.376L639.672 24.72C639.8 24.336 639.864 24.016 639.864 23.76C639.864 23.2907 639.758 22.928 639.544 22.672C639.331 22.3733 639.011 22.0747 638.584 21.776C638.158 21.4347 637.859 21.136 637.688 20.88C637.518 20.624 637.496 20.2827 637.624 19.856C637.88 18.8747 639.224 18.0213 641.656 17.296C644.088 16.528 646.627 16.144 649.272 16.144C651.15 16.144 652.686 16.6133 653.88 17.552C655.118 18.4907 655.822 19.792 655.992 21.456C658.894 17.744 662.158 15.888 665.784 15.888ZM658.36 34.896C659.384 31.0987 659.896 28.4747 659.896 27.024C659.896 26.128 659.747 25.552 659.448 25.296C659.192 24.9973 658.808 24.848 658.296 24.848C657.912 24.848 657.422 25.04 656.824 25.424C656.227 25.7653 655.63 26.3627 655.032 27.216L649.976 43.984C650.488 44.496 651.107 44.752 651.832 44.752C652.984 44.752 654.072 44.112 655.096 42.832C656.163 41.5093 657.251 38.864 658.36 34.896Z"/>
<path d="M710.034 15.888C713.32 15.888 715.901 16.976 717.778 19.152C719.656 21.328 720.594 24.2933 720.594 28.048C720.594 30.0533 720.317 32.1653 719.762 34.384C718.482 39.6747 716.093 43.7067 712.594 46.48C709.096 49.2107 705.042 50.576 700.434 50.576C697.49 50.576 694.93 49.9573 692.754 48.72L690.706 55.568C690.536 56.0373 690.45 56.4853 690.45 56.912C690.45 57.3813 690.557 57.7653 690.77 58.064C690.984 58.4053 691.261 58.7253 691.602 59.024C691.944 59.3653 692.157 59.6427 692.242 59.856C692.37 60.0693 692.392 60.3253 692.306 60.624C692.136 61.1787 691.73 61.5627 691.09 61.776C690.45 62.032 689.469 62.16 688.146 62.16H673.49C672.381 62.16 671.592 61.968 671.122 61.584C670.61 61.2427 670.461 60.7947 670.674 60.24C670.76 59.8987 670.909 59.6213 671.122 59.408C671.336 59.1947 671.634 59.0027 672.018 58.832C672.658 58.4053 673.17 57.9573 673.554 57.488C673.938 57.0613 674.28 56.3573 674.578 55.376L683.922 24.72C684.05 24.336 684.114 24.016 684.114 23.76C684.114 23.2907 684.008 22.928 683.794 22.672C683.581 22.3733 683.261 22.0747 682.834 21.776C682.408 21.4347 682.109 21.136 681.938 20.88C681.768 20.624 681.746 20.2827 681.874 19.856C682.13 18.8747 683.474 18.0213 685.906 17.296C688.338 16.528 690.877 16.144 693.522 16.144C695.4 16.144 696.936 16.6133 698.13 17.552C699.368 18.4907 700.072 19.792 700.242 21.456C703.144 17.744 706.408 15.888 710.034 15.888ZM702.61 34.896C703.634 31.0987 704.146 28.4747 704.146 27.024C704.146 26.128 703.997 25.552 703.698 25.296C703.442 24.9973 703.058 24.848 702.546 24.848C702.162 24.848 701.672 25.04 701.074 25.424C700.477 25.7653 699.88 26.3627 699.282 27.216L694.226 43.984C694.738 44.496 695.357 44.752 696.082 44.752C697.234 44.752 698.322 44.112 699.346 42.832C700.413 41.5093 701.501 38.864 702.61 34.896Z"/>
<path d="M782.521 20.368C781.838 22.8427 780.558 24.784 778.681 26.192C776.804 27.5573 774.436 28.4107 771.577 28.752C773.625 28.9227 775.161 29.52 776.185 30.544C777.209 31.568 777.721 32.912 777.721 34.576C777.721 35.216 777.614 36.0053 777.401 36.944L776.697 40.08C776.612 40.5067 776.569 40.8053 776.569 40.976C776.569 41.5307 776.697 41.9573 776.953 42.256C777.209 42.512 777.572 42.64 778.041 42.64C778.937 42.64 779.577 42.768 779.961 43.024C780.388 43.28 780.537 43.7493 780.409 44.432C780.238 45.4133 779.726 46.3733 778.873 47.312C778.02 48.2507 776.804 49.04 775.225 49.68C773.689 50.2773 771.812 50.576 769.593 50.576C766.777 50.576 764.537 49.9573 762.873 48.72C761.209 47.44 760.377 45.6267 760.377 43.28C760.377 42.384 760.505 41.424 760.761 40.4L761.785 36.304C761.956 35.7493 762.041 35.1733 762.041 34.576C762.041 33.5947 761.7 32.8907 761.017 32.464C760.377 32.0373 759.332 31.824 757.881 31.824H755.449L752.505 42.448C752.42 42.704 752.377 43.024 752.377 43.408C752.377 44.0053 752.526 44.5173 752.825 44.944C753.124 45.3707 753.529 45.8187 754.041 46.288C754.425 46.5867 754.724 46.8853 754.937 47.184C755.15 47.44 755.257 47.7173 755.257 48.016C755.257 48.7413 754.916 49.2533 754.233 49.552C753.55 49.8507 752.548 50 751.225 50H735.161C734.052 50 733.22 49.808 732.665 49.424C732.11 48.9973 731.918 48.4213 732.089 47.696C732.174 47.312 732.345 47.0133 732.601 46.8C732.814 46.544 733.156 46.2667 733.625 45.968C734.35 45.5413 734.926 45.0933 735.353 44.624C735.78 44.1547 736.121 43.4293 736.377 42.448L744.185 14.864C744.356 14.3093 744.441 13.776 744.441 13.264C744.441 12.7947 744.356 12.4107 744.185 12.112C744.057 11.7707 743.865 11.3867 743.609 10.96C743.225 10.4053 743.033 9.95734 743.033 9.616C743.033 9.488 743.076 9.25334 743.161 8.912C743.332 8.35734 743.694 7.97334 744.249 7.76C744.846 7.504 745.742 7.376 746.937 7.376H768.377C771.321 7.376 773.881 7.824 776.057 8.72C778.276 9.616 779.961 10.8533 781.113 12.432C782.308 13.968 782.905 15.7173 782.905 17.68C782.905 18.576 782.777 19.472 782.521 20.368ZM766.137 19.728C766.35 18.7467 766.457 18 766.457 17.488C766.457 15.2267 765.22 14.096 762.745 14.096H760.057L757.241 25.424H759.929C761.593 25.424 762.894 25.0187 763.833 24.208C764.814 23.3973 765.582 21.904 766.137 19.728Z"/>
<path d="M803.883 15.824C809.302 15.824 813.227 16.6987 815.659 18.448C818.091 20.1547 819.307 22.352 819.307 25.04C819.307 25.8507 819.222 26.5973 819.051 27.28C818.411 30.096 816.619 32.1227 813.675 33.36C810.774 34.5547 807.339 35.152 803.371 35.152C801.366 35.152 799.489 35.024 797.739 34.768C797.697 36.9867 798.294 38.544 799.531 39.44C800.769 40.336 802.497 40.784 804.715 40.784C805.739 40.784 806.721 40.6773 807.659 40.464C808.598 40.208 809.793 39.8453 811.243 39.376C812.438 38.9493 813.249 38.736 813.675 38.736C814.145 38.736 814.379 39.0133 814.379 39.568C814.422 41.0613 813.867 42.64 812.715 44.304C811.563 45.9253 809.857 47.312 807.595 48.464C805.334 49.616 802.603 50.192 799.403 50.192C794.667 50.192 790.785 48.9973 787.755 46.608C784.726 44.2187 783.211 40.7413 783.211 36.176C783.211 34.896 783.382 33.4027 783.723 31.696C784.79 26.448 787.115 22.5013 790.699 19.856C794.326 17.168 798.721 15.824 803.883 15.824ZM798.187 30.928C798.358 30.9707 798.593 30.992 798.891 30.992C800.683 30.992 802.049 30.16 802.987 28.496C803.926 26.832 804.374 24.976 804.331 22.928C804.289 21.7333 803.947 21.136 803.307 21.136C802.838 21.136 802.283 21.52 801.643 22.288C801.003 23.0133 800.363 24.1227 799.723 25.616C799.126 27.1093 798.614 28.88 798.187 30.928Z"/>
<path d="M849.232 16.144C851.493 16.144 853.371 16.9547 854.864 18.576C856.357 20.1973 857.104 22.416 857.104 25.232C857.104 29.0293 855.781 32.912 853.136 36.88C850.491 40.848 847.141 44.1333 843.088 46.736C839.035 49.296 835.088 50.576 831.248 50.576C827.579 50.576 824.592 49.8293 822.288 48.336C820.027 46.8427 818.896 44.7093 818.896 41.936C818.896 40.912 819.088 39.76 819.472 38.48L823.504 24.72C823.589 24.3787 823.632 24.1227 823.632 23.952C823.632 23.5253 823.525 23.1627 823.312 22.864C823.099 22.5653 822.8 22.2453 822.416 21.904C821.776 21.3493 821.456 20.8587 821.456 20.432C821.413 19.8347 821.776 19.1947 822.544 18.512C823.312 17.8293 824.379 17.2747 825.744 16.848C827.152 16.3787 828.731 16.144 830.48 16.144C833.339 16.144 835.557 16.848 837.136 18.256C838.757 19.6213 839.568 21.4133 839.568 23.632C839.568 24.6133 839.397 25.68 839.056 26.832L834.896 40.528C834.768 40.912 834.704 41.232 834.704 41.488C834.704 42.0427 834.896 42.4693 835.28 42.768C835.664 43.0667 836.197 43.216 836.88 43.216C837.819 43.216 838.907 42.8107 840.144 42C841.424 41.1467 842.683 39.952 843.92 38.416C845.157 36.8373 846.16 34.9813 846.928 32.848C845.221 31.3547 844.005 29.8827 843.28 28.432C842.597 26.9813 842.256 25.488 842.256 23.952C842.256 21.776 842.853 19.9413 844.048 18.448C845.243 16.912 846.971 16.144 849.232 16.144Z"/>
<path d="M879.16 16.144C884.067 16.144 887.992 17.0613 890.936 18.896C893.88 20.688 895.352 23.44 895.352 27.152C895.352 28.56 895.096 30.16 894.584 31.952L891.96 40.784C891.918 40.9547 891.896 41.168 891.896 41.424C891.896 42.1067 892.174 42.448 892.728 42.448C893.24 42.448 893.667 42.2347 894.008 41.808C894.392 41.3387 894.648 41.104 894.776 41.104C894.99 41.104 895.16 41.2533 895.288 41.552C895.459 41.8507 895.544 42.192 895.544 42.576C895.587 43.728 895.139 44.9013 894.2 46.096C893.304 47.2907 892.088 48.272 890.552 49.04C889.016 49.808 887.331 50.192 885.496 50.192C883.278 50.192 881.379 49.7867 879.8 48.976C878.222 48.1653 877.134 46.9707 876.536 45.392C875.256 46.928 873.742 48.1227 871.992 48.976C870.243 49.7867 868.366 50.192 866.36 50.192C864.099 50.192 862.2 49.7653 860.664 48.912C859.128 48.016 857.976 46.8853 857.208 45.52C856.483 44.112 856.12 42.64 856.12 41.104C856.12 40.4213 856.184 39.76 856.312 39.12C856.995 36.176 858.467 33.9573 860.728 32.464C863.032 30.9707 865.763 30.224 868.92 30.224C872.462 30.224 875.939 30.7787 879.352 31.888L880.952 27.664C881.507 25.872 881.784 24.4853 881.784 23.504C881.742 22.48 881.4 21.712 880.76 21.2C880.12 20.688 879.139 20.432 877.816 20.432C878.072 21.1147 878.2 21.8187 878.2 22.544C878.2 24.1227 877.603 25.488 876.408 26.64C875.214 27.792 873.507 28.368 871.288 28.368C869.198 28.368 867.555 27.92 866.36 27.024C865.208 26.0853 864.632 24.9333 864.632 23.568C864.632 21.4347 865.827 19.664 868.216 18.256C870.606 16.848 874.254 16.144 879.16 16.144ZM875.576 35.536C874.382 35.536 873.4 36.0053 872.632 36.944C871.907 37.84 871.544 38.8213 871.544 39.888C871.544 40.5707 871.694 41.1253 871.992 41.552C872.334 41.9787 872.803 42.192 873.4 42.192C873.955 42.192 874.552 41.9787 875.192 41.552C875.875 41.0827 876.366 40.4 876.664 39.504L878.008 35.728C877.283 35.6 876.472 35.536 875.576 35.536Z"/>
<path d="M959.051 41.168C958.966 41.3387 958.923 41.5947 958.923 41.936C958.923 42.2347 958.987 42.4693 959.115 42.64C959.286 42.8107 959.499 42.896 959.755 42.896C960.267 42.896 960.694 42.6827 961.035 42.256C961.419 41.7867 961.675 41.552 961.803 41.552C962.017 41.552 962.187 41.7013 962.315 42C962.443 42.256 962.507 42.576 962.507 42.96C962.55 44.1973 962.145 45.4133 961.291 46.608C960.438 47.76 959.179 48.72 957.515 49.488C955.894 50.2133 953.931 50.576 951.627 50.576C948.811 50.576 946.571 49.936 944.907 48.656C943.243 47.3333 942.39 45.584 942.347 43.408C942.347 41.8293 942.731 40.0587 943.499 38.096L947.019 28.88C947.233 28.3253 947.339 27.8773 947.339 27.536C947.339 26.9813 947.147 26.5547 946.763 26.256C946.422 25.9147 945.995 25.744 945.483 25.744C944.758 25.744 944.011 26.064 943.243 26.704C942.475 27.344 941.793 28.3467 941.195 29.712L937.675 41.168C937.59 41.3387 937.547 41.5947 937.547 41.936C937.547 42.2347 937.611 42.4693 937.739 42.64C937.91 42.8107 938.123 42.896 938.379 42.896C938.891 42.896 939.318 42.6827 939.659 42.256C940.043 41.7867 940.299 41.552 940.427 41.552C940.641 41.552 940.811 41.7013 940.939 42C941.067 42.256 941.131 42.576 941.131 42.96C941.174 44.1973 940.769 45.4133 939.915 46.608C939.062 47.76 937.803 48.72 936.139 49.488C934.518 50.2133 932.555 50.576 930.251 50.576C927.435 50.576 925.195 49.936 923.531 48.656C921.867 47.3333 921.014 45.584 920.971 43.408C920.971 41.8293 921.355 40.0587 922.123 38.096L925.643 28.88C925.857 28.3253 925.963 27.8773 925.963 27.536C925.963 26.9813 925.771 26.5547 925.387 26.256C925.046 25.9147 924.619 25.744 924.107 25.744C923.382 25.744 922.635 26.064 921.867 26.704C921.099 27.3013 920.459 28.2827 919.947 29.648L915.723 43.344C915.553 43.8133 915.467 44.2613 915.467 44.688C915.467 45.2 915.574 45.6267 915.787 45.968C916.001 46.2667 916.299 46.5867 916.683 46.928C916.982 47.184 917.195 47.4187 917.323 47.632C917.451 47.8453 917.473 48.1013 917.387 48.4C917.217 48.9547 916.811 49.36 916.171 49.616C915.531 49.872 914.529 50 913.163 50H898.571C897.462 50 896.673 49.8293 896.203 49.488C895.691 49.104 895.499 48.6133 895.627 48.016C895.798 47.504 896.246 47.056 896.971 46.672C897.611 46.3307 898.145 45.9253 898.571 45.456C898.998 44.9867 899.361 44.24 899.659 43.216L905.355 24.72C905.441 24.5067 905.483 24.208 905.483 23.824C905.483 23.3547 905.377 22.992 905.163 22.736C904.993 22.48 904.694 22.16 904.267 21.776C903.841 21.4347 903.542 21.136 903.371 20.88C903.201 20.624 903.179 20.2827 903.307 19.856C903.563 18.8747 904.907 18.0213 907.339 17.296C909.771 16.528 912.31 16.144 914.955 16.144C917.046 16.144 918.689 16.72 919.883 17.872C921.121 19.024 921.718 20.6027 921.675 22.608C923.425 20.176 925.259 18.4907 927.179 17.552C929.142 16.6133 931.254 16.144 933.515 16.144C935.99 16.144 937.995 16.8693 939.531 18.32C941.11 19.728 941.985 21.584 942.155 23.888C943.99 20.9867 945.953 18.9813 948.043 17.872C950.134 16.72 952.417 16.144 954.891 16.144C957.494 16.144 959.585 16.9333 961.163 18.512C962.785 20.0907 963.595 22.1387 963.595 24.656C963.595 25.9787 963.382 27.28 962.955 28.56L959.051 41.168Z"/>
<path d="M998.722 15.888C1002.01 15.888 1004.59 16.976 1006.47 19.152C1008.34 21.328 1009.28 24.2933 1009.28 28.048C1009.28 30.0533 1009 32.1653 1008.45 34.384C1007.17 39.6747 1004.78 43.7067 1001.28 46.48C997.783 49.2107 993.73 50.576 989.122 50.576C986.178 50.576 983.618 49.9573 981.442 48.72L979.394 55.568C979.223 56.0373 979.138 56.4853 979.138 56.912C979.138 57.3813 979.245 57.7653 979.458 58.064C979.671 58.4053 979.949 58.7253 980.29 59.024C980.631 59.3653 980.845 59.6427 980.93 59.856C981.058 60.0693 981.079 60.3253 980.994 60.624C980.823 61.1787 980.418 61.5627 979.778 61.776C979.138 62.032 978.157 62.16 976.834 62.16H962.178C961.069 62.16 960.279 61.968 959.81 61.584C959.298 61.2427 959.149 60.7947 959.362 60.24C959.447 59.8987 959.597 59.6213 959.81 59.408C960.023 59.1947 960.322 59.0027 960.706 58.832C961.346 58.4053 961.858 57.9573 962.242 57.488C962.626 57.0613 962.967 56.3573 963.266 55.376L972.61 24.72C972.738 24.336 972.802 24.016 972.802 23.76C972.802 23.2907 972.695 22.928 972.482 22.672C972.269 22.3733 971.949 22.0747 971.522 21.776C971.095 21.4347 970.797 21.136 970.626 20.88C970.455 20.624 970.434 20.2827 970.562 19.856C970.818 18.8747 972.162 18.0213 974.594 17.296C977.026 16.528 979.565 16.144 982.21 16.144C984.087 16.144 985.623 16.6133 986.818 17.552C988.055 18.4907 988.759 19.792 988.93 21.456C991.831 17.744 995.095 15.888 998.722 15.888ZM991.298 34.896C992.322 31.0987 992.834 28.4747 992.834 27.024C992.834 26.128 992.685 25.552 992.386 25.296C992.13 24.9973 991.746 24.848 991.234 24.848C990.85 24.848 990.359 25.04 989.762 25.424C989.165 25.7653 988.567 26.3627 987.97 27.216L982.914 43.984C983.426 44.496 984.045 44.752 984.77 44.752C985.922 44.752 987.01 44.112 988.034 42.832C989.101 41.5093 990.189 38.864 991.298 34.896Z"/>
</mask>
<path d="M40.2879 7.376C43.1893 7.376 45.7066 7.824 47.8399 8.72C50.0159 9.57334 51.6586 10.768 52.7679 12.304C53.9199 13.7973 54.4959 15.5253 54.4959 17.488C54.4959 18.5973 54.3466 19.6213 54.0479 20.56C52.8106 24.8693 49.2479 27.6 43.3599 28.752C45.4079 29.3493 47.0293 30.352 48.2239 31.76C49.4186 33.1253 50.0159 34.832 50.0159 36.88C50.0159 37.8187 49.8453 38.928 49.5039 40.208C48.5653 43.536 46.6666 46.0107 43.8079 47.632C40.9919 49.2107 36.9813 50 31.7759 50H5.15194C4.25594 50 3.57327 49.8507 3.10394 49.552C2.59194 49.2533 2.33594 48.848 2.33594 48.336C2.33594 48.08 2.39994 47.8027 2.52794 47.504C2.6986 47.0347 2.97594 46.672 3.35994 46.416C3.74394 46.16 3.9786 46.0107 4.06394 45.968C4.7466 45.5413 5.30127 45.1147 5.72794 44.688C6.1546 44.2187 6.51727 43.472 6.81594 42.448L14.6239 14.864C14.7946 14.3093 14.8799 13.776 14.8799 13.264C14.8799 12.7947 14.7946 12.4107 14.6239 12.112C14.4959 11.7707 14.3039 11.3867 14.0479 10.96C13.6639 10.4053 13.4719 9.95734 13.4719 9.616C13.4719 9.488 13.5146 9.25334 13.5999 8.912C13.7706 8.35734 14.1333 7.97334 14.6879 7.76C15.2853 7.504 16.1813 7.376 17.3759 7.376H40.2879ZM37.4079 19.088C37.7066 18.1493 37.8559 17.2747 37.8559 16.464C37.8559 14.2453 36.5973 13.136 34.0799 13.136H31.1999L27.8079 25.104H30.6239C32.4159 25.104 33.8239 24.6773 34.8479 23.824C35.9146 22.928 36.7679 21.3493 37.4079 19.088ZM32.7359 37.904C33.0346 36.88 33.1839 35.9413 33.1839 35.088C33.1839 32.784 31.8613 31.632 29.2159 31.632H26.0159L22.3679 44.24H25.6319C27.4666 44.24 28.9386 43.792 30.0479 42.896C31.1573 41.9573 32.0533 40.2933 32.7359 37.904Z" stroke="white" stroke-width="4" mask="url(#path-1-outside-1_180_3729)"/>
<path d="M84.1114 16.144C86.5008 16.144 88.3994 16.8693 89.8074 18.32C91.2581 19.7707 91.9834 21.5627 91.9834 23.696C91.9834 24.5067 91.8981 25.2533 91.7274 25.936C91.3008 27.6853 90.4901 29.0293 89.2954 29.968C88.1008 30.9067 86.6714 31.376 85.0074 31.376C83.3861 31.376 82.1488 30.992 81.2954 30.224C80.4848 29.456 79.7594 28.432 79.1194 27.152C78.7781 26.4267 78.4581 25.8933 78.1594 25.552C77.8608 25.2107 77.5194 25.04 77.1354 25.04C76.7088 25.04 76.3248 25.2107 75.9834 25.552C75.6848 25.8933 75.4074 26.4907 75.1514 27.344L70.2234 43.344C70.1381 43.5573 70.0954 43.8773 70.0954 44.304C70.0954 44.8587 70.2448 45.328 70.5434 45.712C70.8848 46.0533 71.3328 46.3947 71.8874 46.736C72.3994 47.0773 72.7408 47.3547 72.9114 47.568C73.0821 47.7813 73.1461 48.0587 73.1034 48.4C73.0181 48.9547 72.6981 49.36 72.1434 49.616C71.6314 49.872 70.7354 50 69.4554 50H53.0714C51.9621 50 51.1728 49.8293 50.7034 49.488C50.1914 49.104 49.9994 48.6133 50.1274 48.016C50.2981 47.504 50.7461 47.056 51.4714 46.672C52.1114 46.3307 52.6448 45.9253 53.0714 45.456C53.4981 44.9867 53.8608 44.24 54.1594 43.216L59.8554 24.72C59.9408 24.5067 59.9834 24.208 59.9834 23.824C59.9834 23.3547 59.8768 22.992 59.6634 22.736C59.4928 22.48 59.1941 22.16 58.7674 21.776C58.3408 21.4347 58.0421 21.136 57.8714 20.88C57.7008 20.624 57.6794 20.2827 57.8074 19.856C58.0634 18.8747 59.4074 18.0213 61.8394 17.296C64.2714 16.528 66.8101 16.144 69.4554 16.144C71.2048 16.144 72.6554 16.5493 73.8074 17.36C74.9594 18.128 75.7061 19.2373 76.0474 20.688C78.0954 17.6587 80.7834 16.144 84.1114 16.144Z" stroke="white" stroke-width="4" mask="url(#path-1-outside-1_180_3729)"/>
<path d="M111.348 16.144C116.255 16.144 120.18 17.0613 123.124 18.896C126.068 20.688 127.54 23.44 127.54 27.152C127.54 28.56 127.284 30.16 126.772 31.952L124.148 40.784C124.105 40.9547 124.084 41.168 124.084 41.424C124.084 42.1067 124.361 42.448 124.916 42.448C125.428 42.448 125.855 42.2347 126.196 41.808C126.58 41.3387 126.836 41.104 126.964 41.104C127.177 41.104 127.348 41.2533 127.476 41.552C127.647 41.8507 127.732 42.192 127.732 42.576C127.775 43.728 127.327 44.9013 126.388 46.096C125.492 47.2907 124.276 48.272 122.74 49.04C121.204 49.808 119.519 50.192 117.684 50.192C115.465 50.192 113.567 49.7867 111.988 48.976C110.409 48.1653 109.321 46.9707 108.724 45.392C107.444 46.928 105.929 48.1227 104.18 48.976C102.431 49.7867 100.553 50.192 98.5479 50.192C96.2866 50.192 94.3879 49.7653 92.8519 48.912C91.3159 48.016 90.1639 46.8853 89.3959 45.52C88.6706 44.112 88.3079 42.64 88.3079 41.104C88.3079 40.4213 88.3719 39.76 88.4999 39.12C89.1826 36.176 90.6546 33.9573 92.9159 32.464C95.2199 30.9707 97.9506 30.224 101.108 30.224C104.649 30.224 108.127 30.7787 111.54 31.888L113.14 27.664C113.695 25.872 113.972 24.4853 113.972 23.504C113.929 22.48 113.588 21.712 112.948 21.2C112.308 20.688 111.327 20.432 110.004 20.432C110.26 21.1147 110.388 21.8187 110.388 22.544C110.388 24.1227 109.791 25.488 108.596 26.64C107.401 27.792 105.695 28.368 103.476 28.368C101.385 28.368 99.7426 27.92 98.5479 27.024C97.3959 26.0853 96.8199 24.9333 96.8199 23.568C96.8199 21.4347 98.0146 19.664 100.404 18.256C102.793 16.848 106.441 16.144 111.348 16.144ZM107.764 35.536C106.569 35.536 105.588 36.0053 104.82 36.944C104.095 37.84 103.732 38.8213 103.732 39.888C103.732 40.5707 103.881 41.1253 104.18 41.552C104.521 41.9787 104.991 42.192 105.588 42.192C106.143 42.192 106.74 41.9787 107.38 41.552C108.063 41.0827 108.553 40.4 108.852 39.504L110.196 35.728C109.471 35.6 108.66 35.536 107.764 35.536Z" stroke="white" stroke-width="4" mask="url(#path-1-outside-1_180_3729)"/>
<path d="M147.207 16.144C149.682 16.144 151.495 16.6133 152.647 17.552C153.799 18.4907 154.375 19.7707 154.375 21.392C154.375 22.3733 154.226 23.312 153.927 24.208L148.039 43.344C147.911 43.856 147.847 44.304 147.847 44.688C147.847 45.2427 147.954 45.6907 148.167 46.032C148.38 46.3307 148.679 46.6293 149.063 46.928C149.362 47.2267 149.575 47.4827 149.703 47.696C149.831 47.8667 149.852 48.1013 149.767 48.4C149.554 48.9547 149.127 49.36 148.487 49.616C147.847 49.872 146.866 50 145.543 50H130.951C129.842 50 129.031 49.8293 128.519 49.488C128.007 49.104 127.836 48.6133 128.007 48.016C128.178 47.504 128.626 47.056 129.351 46.672C129.991 46.3307 130.524 45.9253 130.951 45.456C131.378 44.9867 131.74 44.24 132.039 43.216L137.607 24.72C137.735 24.336 137.799 24.016 137.799 23.76C137.799 23.2907 137.692 22.928 137.479 22.672C137.266 22.3733 136.946 22.0747 136.519 21.776C136.092 21.4347 135.794 21.136 135.623 20.88C135.452 20.624 135.431 20.2827 135.559 19.856C135.815 18.8747 137.159 18.0213 139.591 17.296C142.023 16.528 144.562 16.144 147.207 16.144ZM151.495 2C153.159 2 154.546 2.55467 155.655 3.664C156.764 4.73067 157.319 6.05333 157.319 7.632C157.319 8.74133 157.02 9.82934 156.423 10.896C155.868 11.9627 155.058 12.8373 153.991 13.52C152.967 14.16 151.815 14.48 150.535 14.48C148.914 14.48 147.548 13.9467 146.439 12.88C145.372 11.7707 144.818 10.4053 144.775 8.784C144.775 7.71733 145.052 6.672 145.607 5.648C146.162 4.58133 146.951 3.70667 147.975 3.024C148.999 2.34133 150.172 2 151.495 2Z" stroke="white" stroke-width="4" mask="url(#path-1-outside-1_180_3729)"/>
<path d="M189.588 40.784C189.503 41.1253 189.46 41.36 189.46 41.488C189.46 41.7867 189.546 42.0213 189.716 42.192C189.887 42.3627 190.1 42.448 190.356 42.448C190.868 42.448 191.295 42.2347 191.636 41.808C192.02 41.3387 192.276 41.104 192.404 41.104C192.618 41.104 192.788 41.2533 192.916 41.552C193.044 41.8507 193.108 42.192 193.108 42.576C193.151 43.728 192.703 44.9013 191.764 46.096C190.868 47.2907 189.652 48.272 188.116 49.04C186.58 49.808 184.916 50.192 183.124 50.192C180.991 50.192 179.135 49.7867 177.556 48.976C175.978 48.1653 174.89 47.0987 174.292 45.776C173.14 47.2693 171.818 48.3787 170.324 49.104C168.831 49.8293 167.252 50.192 165.588 50.192C163.626 50.192 161.791 49.7013 160.084 48.72C158.42 47.7387 157.076 46.352 156.052 44.56C155.071 42.7253 154.58 40.656 154.58 38.352C154.58 34.4693 155.306 30.8213 156.756 27.408C158.25 23.952 160.319 21.1787 162.964 19.088C165.61 16.9547 168.618 15.888 171.988 15.888C173.823 15.888 175.38 16.1013 176.66 16.528C177.983 16.9547 179.178 17.5947 180.244 18.448L182.42 11.28C182.548 10.896 182.612 10.576 182.612 10.32C182.612 9.85067 182.484 9.46667 182.228 9.168C182.015 8.86934 181.716 8.57067 181.332 8.272C180.906 7.93067 180.586 7.632 180.372 7.376C180.202 7.12 180.18 6.77867 180.308 6.352C180.564 5.37067 181.908 4.51733 184.34 3.792C186.772 3.06667 189.311 2.704 191.956 2.704C194.431 2.704 196.244 3.17334 197.396 4.112C198.591 5.05067 199.188 6.33067 199.188 7.952C199.188 8.89067 199.039 9.808 198.74 10.704L189.588 40.784ZM178.9 22.8C178.218 22.2027 177.471 21.904 176.66 21.904C175.423 21.904 174.207 22.8213 173.012 24.656C171.818 26.4907 170.858 28.7093 170.132 31.312C169.407 33.9147 169.066 36.2613 169.108 38.352C169.108 40.6987 169.876 41.872 171.412 41.872C171.967 41.872 172.436 41.6587 172.82 41.232C173.204 40.7627 173.567 40.016 173.908 38.992L178.9 22.8Z" stroke="white" stroke-width="4" mask="url(#path-1-outside-1_180_3729)"/>
<path d="M212.582 16.144C215.057 16.144 216.87 16.6133 218.022 17.552C219.174 18.4907 219.75 19.7707 219.75 21.392C219.75 22.3733 219.601 23.312 219.302 24.208L213.414 43.344C213.286 43.856 213.222 44.304 213.222 44.688C213.222 45.2427 213.329 45.6907 213.542 46.032C213.755 46.3307 214.054 46.6293 214.438 46.928C214.737 47.2267 214.95 47.4827 215.078 47.696C215.206 47.8667 215.227 48.1013 215.142 48.4C214.929 48.9547 214.502 49.36 213.862 49.616C213.222 49.872 212.241 50 210.918 50H196.326C195.217 50 194.406 49.8293 193.894 49.488C193.382 49.104 193.211 48.6133 193.382 48.016C193.553 47.504 194.001 47.056 194.726 46.672C195.366 46.3307 195.899 45.9253 196.326 45.456C196.753 44.9867 197.115 44.24 197.414 43.216L202.982 24.72C203.11 24.336 203.174 24.016 203.174 23.76C203.174 23.2907 203.067 22.928 202.854 22.672C202.641 22.3733 202.321 22.0747 201.894 21.776C201.467 21.4347 201.169 21.136 200.998 20.88C200.827 20.624 200.806 20.2827 200.934 19.856C201.19 18.8747 202.534 18.0213 204.966 17.296C207.398 16.528 209.937 16.144 212.582 16.144ZM216.87 2C218.534 2 219.921 2.55467 221.03 3.664C222.139 4.73067 222.694 6.05333 222.694 7.632C222.694 8.74133 222.395 9.82934 221.798 10.896C221.243 11.9627 220.433 12.8373 219.366 13.52C218.342 14.16 217.19 14.48 215.91 14.48C214.289 14.48 212.923 13.9467 211.814 12.88C210.747 11.7707 210.193 10.4053 210.15 8.784C210.15 7.71733 210.427 6.672 210.982 5.648C211.537 4.58133 212.326 3.70667 213.35 3.024C214.374 2.34133 215.547 2 216.87 2Z" stroke="white" stroke-width="4" mask="url(#path-1-outside-1_180_3729)"/>
<path d="M258.803 41.168C258.718 41.3387 258.675 41.5947 258.675 41.936C258.675 42.2347 258.739 42.4693 258.867 42.64C259.038 42.8107 259.251 42.896 259.507 42.896C260.019 42.896 260.446 42.6827 260.787 42.256C261.171 41.7867 261.427 41.552 261.555 41.552C261.769 41.552 261.939 41.7013 262.067 42C262.195 42.256 262.259 42.576 262.259 42.96C262.302 44.1973 261.897 45.4133 261.043 46.608C260.19 47.76 258.931 48.72 257.267 49.488C255.646 50.2133 253.683 50.576 251.379 50.576C248.563 50.576 246.323 49.936 244.659 48.656C242.995 47.3333 242.142 45.584 242.099 43.408C242.099 41.8293 242.483 40.0587 243.251 38.096L246.771 28.88C246.985 28.3253 247.091 27.8773 247.091 27.536C247.091 26.9813 246.899 26.5547 246.515 26.256C246.174 25.9147 245.747 25.744 245.235 25.744C244.297 25.744 243.401 26.192 242.547 27.088C241.694 27.9413 241.075 29.008 240.691 30.288L236.723 43.344C236.553 43.8133 236.467 44.2613 236.467 44.688C236.467 45.2 236.574 45.6267 236.787 45.968C237.001 46.2667 237.299 46.5867 237.683 46.928C237.982 47.184 238.195 47.4187 238.323 47.632C238.451 47.8453 238.473 48.1013 238.387 48.4C238.217 48.9547 237.811 49.36 237.171 49.616C236.531 49.872 235.529 50 234.163 50H219.571C218.462 50 217.673 49.8293 217.203 49.488C216.691 49.104 216.499 48.6133 216.627 48.016C216.798 47.504 217.246 47.056 217.971 46.672C218.611 46.3307 219.145 45.9253 219.571 45.456C219.998 44.9867 220.361 44.24 220.659 43.216L226.355 24.72C226.441 24.5067 226.483 24.208 226.483 23.824C226.483 23.3547 226.377 22.992 226.163 22.736C225.993 22.48 225.694 22.16 225.267 21.776C224.841 21.4347 224.542 21.136 224.371 20.88C224.201 20.624 224.179 20.2827 224.307 19.856C224.563 18.8747 225.907 18.0213 228.339 17.296C230.771 16.528 233.31 16.144 235.955 16.144C238.089 16.144 239.774 16.7413 241.011 17.936C242.249 19.088 242.803 20.7093 242.675 22.8C244.425 20.2827 246.281 18.5547 248.243 17.616C250.206 16.6347 252.339 16.144 254.643 16.144C257.246 16.144 259.337 16.9333 260.915 18.512C262.537 20.0907 263.347 22.1387 263.347 24.656C263.347 25.9787 263.134 27.28 262.707 28.56L258.803 41.168Z" stroke="white" stroke-width="4" mask="url(#path-1-outside-1_180_3729)"/>
<path d="M303.784 5.712C305.149 5.712 306.472 6.01067 307.752 6.608C309.075 7.16267 310.141 7.952 310.952 8.976C311.805 9.95734 312.232 11.024 312.232 12.176C312.232 14.6933 310.525 15.952 307.112 15.952C306.131 15.952 305.363 15.888 304.808 15.76C304.296 15.5893 303.677 15.3333 302.952 14.992C302.824 15.2907 302.76 15.7173 302.76 16.272C302.76 16.9547 302.867 17.7653 303.08 18.704C303.336 19.6427 303.635 20.5173 303.976 21.328C304.872 22.6507 305.32 24.2293 305.32 26.064C305.32 26.8747 305.213 27.856 305 29.008C304.488 31.2267 303.357 33.2533 301.608 35.088C299.901 36.9227 297.683 38.3733 294.952 39.44C292.264 40.464 289.299 40.976 286.056 40.976C283.581 40.976 281.256 40.8053 279.08 40.464C278.44 41.0187 278.12 41.7013 278.12 42.512C278.12 43.0667 278.376 43.536 278.888 43.92C279.4 44.2613 280.253 44.432 281.448 44.432H291.048C294.333 44.432 296.893 45.008 298.728 46.16C300.563 47.2693 301.48 48.8693 301.48 50.96C301.48 51.728 301.352 52.5173 301.096 53.328C300.584 54.992 299.411 56.528 297.576 57.936C295.784 59.3867 293.245 60.56 289.96 61.456C286.675 62.352 282.685 62.8 277.992 62.8C273.811 62.8 270.269 62.4373 267.368 61.712C264.467 60.9867 262.312 59.984 260.904 58.704C259.453 57.4667 258.728 56.08 258.728 54.544C258.728 54.2027 258.813 53.6907 258.984 53.008C259.368 51.7707 260.243 50.768 261.608 50C262.931 49.1893 265.128 48.656 268.2 48.4C267.176 47.4187 266.664 46.2453 266.664 44.88C266.664 44.4107 266.728 43.92 266.856 43.408C267.539 41.1893 269.544 39.5467 272.872 38.48C269.672 36.7307 268.072 34.1707 268.072 30.8C268.072 29.8613 268.2 28.88 268.456 27.856C268.968 25.6373 270.099 23.632 271.848 21.84C273.597 20.0053 275.837 18.5547 278.568 17.488C281.299 16.4213 284.285 15.888 287.528 15.888C292.605 15.888 296.595 16.5493 299.496 17.872C298.856 16.8907 298.344 15.8453 297.96 14.736C297.619 13.584 297.448 12.5387 297.448 11.6C297.448 9.97867 297.96 8.592 298.984 7.44C300.051 6.288 301.651 5.712 303.784 5.712ZM289.896 28.432C290.579 26.256 290.92 24.592 290.92 23.44C290.92 21.9893 290.301 21.264 289.064 21.264C287.997 21.264 287.059 21.7973 286.248 22.864C285.48 23.888 284.691 25.744 283.88 28.432C283.197 30.6507 282.856 32.336 282.856 33.488C282.856 34.896 283.453 35.6 284.648 35.6C285.715 35.6 286.653 35.0667 287.464 34C288.275 32.9333 289.085 31.0773 289.896 28.432ZM277.16 50.896C275.965 50.896 274.877 50.832 273.896 50.704C273.384 51.344 273.128 52.1973 273.128 53.264C273.171 54.3307 273.597 55.0987 274.408 55.568C275.261 56.0373 276.563 56.272 278.312 56.272C280.445 56.272 282.173 55.952 283.496 55.312C284.861 54.672 285.544 53.7547 285.544 52.56C285.544 52.048 285.352 51.6427 284.968 51.344C284.584 51.0453 284.029 50.896 283.304 50.896H277.16Z" stroke="white" stroke-width="4" mask="url(#path-1-outside-1_180_3729)"/>
<path d="M368.293 7.376C370.043 7.376 370.917 7.93067 370.917 9.04C370.917 9.33867 370.896 9.552 370.853 9.68C370.725 10.1067 370.533 10.448 370.277 10.704C370.021 10.9173 369.659 11.1733 369.189 11.472C368.549 11.856 368.016 12.2827 367.589 12.752C367.163 13.2213 366.8 13.9467 366.501 14.928L358.565 43.344C357.84 45.904 356.923 47.696 355.813 48.72C354.747 49.744 353.253 50.256 351.333 50.256C349.627 50.256 348.197 49.7653 347.045 48.784C345.936 47.76 344.891 46.2027 343.909 44.112L334.245 23.76L328.869 42.448C328.741 43.0027 328.677 43.4933 328.677 43.92C328.677 44.4747 328.763 44.944 328.933 45.328C329.147 45.6693 329.424 46.032 329.765 46.416C330.235 46.9707 330.469 47.44 330.469 47.824C330.469 48.08 330.448 48.272 330.405 48.4C330.235 48.9973 329.851 49.424 329.253 49.68C328.656 49.8933 327.76 50 326.565 50H319.589C317.84 50 316.965 49.4453 316.965 48.336C316.965 48.0373 316.987 47.824 317.029 47.696C317.157 47.2693 317.349 46.9493 317.605 46.736C317.861 46.48 318.224 46.2027 318.693 45.904C319.333 45.52 319.867 45.0933 320.293 44.624C320.72 44.1547 321.083 43.4293 321.381 42.448L329.509 13.712L328.485 11.6C328.059 10.7467 327.845 10 327.845 9.36C327.845 8.03734 328.699 7.376 330.405 7.376H339.877C341.243 7.376 342.267 7.696 342.949 8.336C343.675 8.93334 344.443 10.0213 345.253 11.6L354.597 30.352L359.013 14.928C359.141 14.3307 359.205 13.84 359.205 13.456C359.205 12.9013 359.099 12.4533 358.885 12.112C358.715 11.728 358.459 11.344 358.117 10.96C357.648 10.4053 357.413 9.936 357.413 9.552C357.413 9.296 357.435 9.104 357.477 8.976C357.648 8.37867 358.032 7.97334 358.629 7.76C359.227 7.504 360.123 7.376 361.317 7.376H368.293Z" stroke="white" stroke-width="4" mask="url(#path-1-outside-1_180_3729)"/>
<path d="M387.785 16.144C392.692 16.144 396.617 17.0613 399.561 18.896C402.505 20.688 403.977 23.44 403.977 27.152C403.977 28.56 403.721 30.16 403.209 31.952L400.585 40.784C400.543 40.9547 400.521 41.168 400.521 41.424C400.521 42.1067 400.799 42.448 401.353 42.448C401.865 42.448 402.292 42.2347 402.633 41.808C403.017 41.3387 403.273 41.104 403.401 41.104C403.615 41.104 403.785 41.2533 403.913 41.552C404.084 41.8507 404.169 42.192 404.169 42.576C404.212 43.728 403.764 44.9013 402.825 46.096C401.929 47.2907 400.713 48.272 399.177 49.04C397.641 49.808 395.956 50.192 394.121 50.192C391.903 50.192 390.004 49.7867 388.425 48.976C386.847 48.1653 385.759 46.9707 385.161 45.392C383.881 46.928 382.367 48.1227 380.617 48.976C378.868 49.7867 376.991 50.192 374.985 50.192C372.724 50.192 370.825 49.7653 369.289 48.912C367.753 48.016 366.601 46.8853 365.833 45.52C365.108 44.112 364.745 42.64 364.745 41.104C364.745 40.4213 364.809 39.76 364.937 39.12C365.62 36.176 367.092 33.9573 369.353 32.464C371.657 30.9707 374.388 30.224 377.545 30.224C381.087 30.224 384.564 30.7787 387.977 31.888L389.577 27.664C390.132 25.872 390.409 24.4853 390.409 23.504C390.367 22.48 390.025 21.712 389.385 21.2C388.745 20.688 387.764 20.432 386.441 20.432C386.697 21.1147 386.825 21.8187 386.825 22.544C386.825 24.1227 386.228 25.488 385.033 26.64C383.839 27.792 382.132 28.368 379.913 28.368C377.823 28.368 376.18 27.92 374.985 27.024C373.833 26.0853 373.257 24.9333 373.257 23.568C373.257 21.4347 374.452 19.664 376.841 18.256C379.231 16.848 382.879 16.144 387.785 16.144ZM384.201 35.536C383.007 35.536 382.025 36.0053 381.257 36.944C380.532 37.84 380.169 38.8213 380.169 39.888C380.169 40.5707 380.319 41.1253 380.617 41.552C380.959 41.9787 381.428 42.192 382.025 42.192C382.58 42.192 383.177 41.9787 383.817 41.552C384.5 41.0827 384.991 40.4 385.289 39.504L386.633 35.728C385.908 35.6 385.097 35.536 384.201 35.536Z" stroke="white" stroke-width="4" mask="url(#path-1-outside-1_180_3729)"/>
<path d="M423.644 16.144C426.119 16.144 427.932 16.6133 429.084 17.552C430.236 18.4907 430.812 19.7707 430.812 21.392C430.812 22.3733 430.663 23.312 430.364 24.208L424.476 43.344C424.348 43.856 424.284 44.304 424.284 44.688C424.284 45.2427 424.391 45.6907 424.604 46.032C424.818 46.3307 425.116 46.6293 425.5 46.928C425.799 47.2267 426.012 47.4827 426.14 47.696C426.268 47.8667 426.29 48.1013 426.204 48.4C425.991 48.9547 425.564 49.36 424.924 49.616C424.284 49.872 423.303 50 421.98 50H407.388C406.279 50 405.468 49.8293 404.956 49.488C404.444 49.104 404.274 48.6133 404.444 48.016C404.615 47.504 405.063 47.056 405.788 46.672C406.428 46.3307 406.962 45.9253 407.388 45.456C407.815 44.9867 408.178 44.24 408.476 43.216L414.044 24.72C414.172 24.336 414.236 24.016 414.236 23.76C414.236 23.2907 414.13 22.928 413.916 22.672C413.703 22.3733 413.383 22.0747 412.956 21.776C412.53 21.4347 412.231 21.136 412.06 20.88C411.89 20.624 411.868 20.2827 411.996 19.856C412.252 18.8747 413.596 18.0213 416.028 17.296C418.46 16.528 420.999 16.144 423.644 16.144ZM427.932 2C429.596 2 430.983 2.55467 432.092 3.664C433.202 4.73067 433.756 6.05333 433.756 7.632C433.756 8.74133 433.458 9.82934 432.86 10.896C432.306 11.9627 431.495 12.8373 430.428 13.52C429.404 14.16 428.252 14.48 426.972 14.48C425.351 14.48 423.986 13.9467 422.876 12.88C421.81 11.7707 421.255 10.4053 421.212 8.784C421.212 7.71733 421.49 6.672 422.044 5.648C422.599 4.58133 423.388 3.70667 424.412 3.024C425.436 2.34133 426.61 2 427.932 2Z" stroke="white" stroke-width="4" mask="url(#path-1-outside-1_180_3729)"/>
<path d="M461.674 16.144C464.063 16.144 465.962 16.8693 467.37 18.32C468.821 19.7707 469.546 21.5627 469.546 23.696C469.546 24.5067 469.461 25.2533 469.29 25.936C468.863 27.6853 468.053 29.0293 466.858 29.968C465.663 30.9067 464.234 31.376 462.57 31.376C460.949 31.376 459.711 30.992 458.858 30.224C458.047 29.456 457.322 28.432 456.682 27.152C456.341 26.4267 456.021 25.8933 455.722 25.552C455.423 25.2107 455.082 25.04 454.698 25.04C454.271 25.04 453.887 25.2107 453.546 25.552C453.247 25.8933 452.97 26.4907 452.714 27.344L447.786 43.344C447.701 43.5573 447.658 43.8773 447.658 44.304C447.658 44.8587 447.807 45.328 448.106 45.712C448.447 46.0533 448.895 46.3947 449.45 46.736C449.962 47.0773 450.303 47.3547 450.474 47.568C450.645 47.7813 450.709 48.0587 450.666 48.4C450.581 48.9547 450.261 49.36 449.706 49.616C449.194 49.872 448.298 50 447.018 50H430.634C429.525 50 428.735 49.8293 428.266 49.488C427.754 49.104 427.562 48.6133 427.69 48.016C427.861 47.504 428.309 47.056 429.034 46.672C429.674 46.3307 430.207 45.9253 430.634 45.456C431.061 44.9867 431.423 44.24 431.722 43.216L437.418 24.72C437.503 24.5067 437.546 24.208 437.546 23.824C437.546 23.3547 437.439 22.992 437.226 22.736C437.055 22.48 436.757 22.16 436.33 21.776C435.903 21.4347 435.605 21.136 435.434 20.88C435.263 20.624 435.242 20.2827 435.37 19.856C435.626 18.8747 436.97 18.0213 439.402 17.296C441.834 16.528 444.373 16.144 447.018 16.144C448.767 16.144 450.218 16.5493 451.37 17.36C452.522 18.128 453.269 19.2373 453.61 20.688C455.658 17.6587 458.346 16.144 461.674 16.144Z" stroke="white" stroke-width="4" mask="url(#path-1-outside-1_180_3729)"/>
<path d="M492.08 16.144C497.883 16.144 502.15 17.3173 504.88 19.664C507.654 22.0107 509.04 25.0827 509.04 28.88C509.04 30.16 508.87 31.5893 508.528 33.168C507.718 36.6667 506.203 39.7387 503.984 42.384C501.766 44.9867 499.035 47.0133 495.792 48.464C492.592 49.872 489.115 50.576 485.36 50.576C479.43 50.576 475.035 49.4027 472.176 47.056C469.36 44.6667 467.952 41.5093 467.952 37.584C467.952 36.2613 468.123 34.7893 468.464 33.168C469.275 29.84 470.811 26.896 473.072 24.336C475.376 21.7333 478.171 19.728 481.456 18.32C484.784 16.8693 488.326 16.144 492.08 16.144ZM491.888 21.84C490.992 21.84 490.032 22.6507 489.008 24.272C488.027 25.8507 486.854 28.8587 485.488 33.296C484.123 37.7333 483.44 40.848 483.44 42.64C483.44 43.5787 483.59 44.2187 483.888 44.56C484.187 44.8587 484.592 45.008 485.104 45.008C486 45.0933 486.918 44.3253 487.856 42.704C488.838 41.0827 490.054 37.9253 491.504 33.232C492.827 29.0933 493.488 26.0853 493.488 24.208C493.488 23.312 493.339 22.6933 493.04 22.352C492.784 22.0107 492.4 21.84 491.888 21.84Z" stroke="white" stroke-width="4" mask="url(#path-1-outside-1_180_3729)"/>
<path d="M540.702 15.888C543.86 15.888 546.377 17.0187 548.254 19.28C550.174 21.5413 551.134 24.528 551.134 28.24C551.134 30.16 550.9 32.0373 550.43 33.872C549.065 39.376 546.718 43.536 543.39 46.352C540.105 49.168 536.308 50.576 531.998 50.576C529.566 50.576 527.454 50.1707 525.662 49.36C523.913 48.5067 522.505 47.312 521.438 45.776L519.134 47.76C518.238 48.528 517.364 49.104 516.51 49.488C515.657 49.8293 514.676 50 513.566 50H510.75C509.684 50 508.852 49.7867 508.254 49.36C507.7 48.8907 507.422 48.2293 507.422 47.376C507.422 46.992 507.486 46.544 507.614 46.032L518.302 11.28C518.43 10.896 518.494 10.576 518.494 10.32C518.494 9.59467 518.046 8.912 517.15 8.272C516.724 7.888 516.425 7.58934 516.254 7.376C516.084 7.12 516.062 6.8 516.19 6.416C516.489 5.43467 517.833 4.58133 520.222 3.856C522.654 3.088 525.193 2.704 527.838 2.704C530.313 2.704 532.126 3.19467 533.278 4.176C534.473 5.11467 535.07 6.39467 535.07 8.016C535.07 8.912 534.921 9.808 534.622 10.704L531.934 19.408C534.409 17.0613 537.332 15.888 540.702 15.888ZM533.47 33.488C534.324 30.5867 534.75 28.24 534.75 26.448C534.75 24.4853 534.174 23.504 533.022 23.504C531.998 23.504 531.038 24.0373 530.142 25.104L525.982 38.672L525.598 39.888C525.385 40.528 525.278 41.1893 525.278 41.872C525.278 43.3653 525.982 44.112 527.39 44.112C528.414 44.112 529.396 43.3653 530.334 41.872C531.273 40.3787 532.318 37.584 533.47 33.488Z" stroke="white" stroke-width="4" mask="url(#path-1-outside-1_180_3729)"/>
<path d="M568.207 16.144C570.682 16.144 572.495 16.6133 573.647 17.552C574.799 18.4907 575.375 19.7707 575.375 21.392C575.375 22.3733 575.226 23.312 574.927 24.208L569.039 43.344C568.911 43.856 568.847 44.304 568.847 44.688C568.847 45.2427 568.954 45.6907 569.167 46.032C569.38 46.3307 569.679 46.6293 570.063 46.928C570.362 47.2267 570.575 47.4827 570.703 47.696C570.831 47.8667 570.852 48.1013 570.767 48.4C570.554 48.9547 570.127 49.36 569.487 49.616C568.847 49.872 567.866 50 566.543 50H551.951C550.842 50 550.031 49.8293 549.519 49.488C549.007 49.104 548.836 48.6133 549.007 48.016C549.178 47.504 549.626 47.056 550.351 46.672C550.991 46.3307 551.524 45.9253 551.951 45.456C552.378 44.9867 552.74 44.24 553.039 43.216L558.607 24.72C558.735 24.336 558.799 24.016 558.799 23.76C558.799 23.2907 558.692 22.928 558.479 22.672C558.266 22.3733 557.946 22.0747 557.519 21.776C557.092 21.4347 556.794 21.136 556.623 20.88C556.452 20.624 556.431 20.2827 556.559 19.856C556.815 18.8747 558.159 18.0213 560.591 17.296C563.023 16.528 565.562 16.144 568.207 16.144ZM572.495 2C574.159 2 575.546 2.55467 576.655 3.664C577.764 4.73067 578.319 6.05333 578.319 7.632C578.319 8.74133 578.02 9.82934 577.423 10.896C576.868 11.9627 576.058 12.8373 574.991 13.52C573.967 14.16 572.815 14.48 571.535 14.48C569.914 14.48 568.548 13.9467 567.439 12.88C566.372 11.7707 565.818 10.4053 565.775 8.784C565.775 7.71733 566.052 6.672 566.607 5.648C567.162 4.58133 567.951 3.70667 568.975 3.024C569.999 2.34133 571.172 2 572.495 2Z" stroke="white" stroke-width="4" mask="url(#path-1-outside-1_180_3729)"/>
<path d="M626.729 42.448C626.558 43.0027 626.473 43.5573 626.473 44.112C626.473 44.5813 626.537 44.9867 626.665 45.328C626.793 45.6267 626.921 45.8827 627.049 46.096C627.22 46.2667 627.326 46.3947 627.369 46.48C627.796 46.9067 628.009 47.3333 628.009 47.76C628.009 47.8453 627.966 48.0587 627.881 48.4C627.71 48.9973 627.326 49.424 626.729 49.68C626.174 49.8933 625.3 50 624.105 50H608.937C608.041 50 607.337 49.8507 606.825 49.552C606.356 49.2533 606.121 48.848 606.121 48.336C606.121 48.08 606.185 47.8027 606.313 47.504C606.441 47.1627 606.612 46.9067 606.825 46.736C607.081 46.5227 607.422 46.288 607.849 46.032C608.532 45.648 609.086 45.2213 609.513 44.752C609.94 44.2827 610.302 43.5147 610.601 42.448L612.265 36.944H602.281L600.553 40.592C599.828 42.1707 599.465 43.408 599.465 44.304C599.465 44.816 599.55 45.2427 599.721 45.584C599.892 45.8827 600.148 46.2027 600.489 46.544C600.788 46.8853 600.98 47.184 601.065 47.44C601.193 47.6533 601.214 47.952 601.129 48.336C600.958 48.976 600.596 49.424 600.041 49.68C599.529 49.8933 598.697 50 597.545 50H588.009C587.028 50 586.281 49.8293 585.769 49.488C585.257 49.104 585.001 48.6133 585.001 48.016C585.001 47.3333 585.257 46.8 585.769 46.416C586.238 45.9893 586.964 45.5413 587.945 45.072C589.225 44.432 590.249 43.8133 591.017 43.216C591.785 42.576 592.446 41.7013 593.001 40.592L604.393 16.976C606.142 13.3067 608.19 10.6613 610.537 9.04C612.926 7.376 616.062 6.544 619.945 6.544C624.297 6.544 627.668 7.44 630.057 9.232C632.446 10.9813 633.641 13.4347 633.641 16.592C633.641 17.9147 633.428 19.28 633.001 20.688L626.729 42.448ZM614.185 30.544L617.577 19.28C617.748 18.768 617.833 18.2347 617.833 17.68C617.833 16.8693 617.598 16.272 617.129 15.888C616.702 15.4613 616.084 15.248 615.273 15.248C614.249 15.248 613.374 15.5467 612.649 16.144C611.924 16.7413 611.198 17.808 610.473 19.344L605.225 30.544H614.185Z" stroke="white" stroke-width="4" mask="url(#path-1-outside-1_180_3729)"/>
<path d="M665.784 15.888C669.07 15.888 671.651 16.976 673.528 19.152C675.406 21.328 676.344 24.2933 676.344 28.048C676.344 30.0533 676.067 32.1653 675.512 34.384C674.232 39.6747 671.843 43.7067 668.344 46.48C664.846 49.2107 660.792 50.576 656.184 50.576C653.24 50.576 650.68 49.9573 648.504 48.72L646.456 55.568C646.286 56.0373 646.2 56.4853 646.2 56.912C646.2 57.3813 646.307 57.7653 646.52 58.064C646.734 58.4053 647.011 58.7253 647.352 59.024C647.694 59.3653 647.907 59.6427 647.992 59.856C648.12 60.0693 648.142 60.3253 648.056 60.624C647.886 61.1787 647.48 61.5627 646.84 61.776C646.2 62.032 645.219 62.16 643.896 62.16H629.24C628.131 62.16 627.342 61.968 626.872 61.584C626.36 61.2427 626.211 60.7947 626.424 60.24C626.51 59.8987 626.659 59.6213 626.872 59.408C627.086 59.1947 627.384 59.0027 627.768 58.832C628.408 58.4053 628.92 57.9573 629.304 57.488C629.688 57.0613 630.03 56.3573 630.328 55.376L639.672 24.72C639.8 24.336 639.864 24.016 639.864 23.76C639.864 23.2907 639.758 22.928 639.544 22.672C639.331 22.3733 639.011 22.0747 638.584 21.776C638.158 21.4347 637.859 21.136 637.688 20.88C637.518 20.624 637.496 20.2827 637.624 19.856C637.88 18.8747 639.224 18.0213 641.656 17.296C644.088 16.528 646.627 16.144 649.272 16.144C651.15 16.144 652.686 16.6133 653.88 17.552C655.118 18.4907 655.822 19.792 655.992 21.456C658.894 17.744 662.158 15.888 665.784 15.888ZM658.36 34.896C659.384 31.0987 659.896 28.4747 659.896 27.024C659.896 26.128 659.747 25.552 659.448 25.296C659.192 24.9973 658.808 24.848 658.296 24.848C657.912 24.848 657.422 25.04 656.824 25.424C656.227 25.7653 655.63 26.3627 655.032 27.216L649.976 43.984C650.488 44.496 651.107 44.752 651.832 44.752C652.984 44.752 654.072 44.112 655.096 42.832C656.163 41.5093 657.251 38.864 658.36 34.896Z" stroke="white" stroke-width="4" mask="url(#path-1-outside-1_180_3729)"/>
<path d="M710.034 15.888C713.32 15.888 715.901 16.976 717.778 19.152C719.656 21.328 720.594 24.2933 720.594 28.048C720.594 30.0533 720.317 32.1653 719.762 34.384C718.482 39.6747 716.093 43.7067 712.594 46.48C709.096 49.2107 705.042 50.576 700.434 50.576C697.49 50.576 694.93 49.9573 692.754 48.72L690.706 55.568C690.536 56.0373 690.45 56.4853 690.45 56.912C690.45 57.3813 690.557 57.7653 690.77 58.064C690.984 58.4053 691.261 58.7253 691.602 59.024C691.944 59.3653 692.157 59.6427 692.242 59.856C692.37 60.0693 692.392 60.3253 692.306 60.624C692.136 61.1787 691.73 61.5627 691.09 61.776C690.45 62.032 689.469 62.16 688.146 62.16H673.49C672.381 62.16 671.592 61.968 671.122 61.584C670.61 61.2427 670.461 60.7947 670.674 60.24C670.76 59.8987 670.909 59.6213 671.122 59.408C671.336 59.1947 671.634 59.0027 672.018 58.832C672.658 58.4053 673.17 57.9573 673.554 57.488C673.938 57.0613 674.28 56.3573 674.578 55.376L683.922 24.72C684.05 24.336 684.114 24.016 684.114 23.76C684.114 23.2907 684.008 22.928 683.794 22.672C683.581 22.3733 683.261 22.0747 682.834 21.776C682.408 21.4347 682.109 21.136 681.938 20.88C681.768 20.624 681.746 20.2827 681.874 19.856C682.13 18.8747 683.474 18.0213 685.906 17.296C688.338 16.528 690.877 16.144 693.522 16.144C695.4 16.144 696.936 16.6133 698.13 17.552C699.368 18.4907 700.072 19.792 700.242 21.456C703.144 17.744 706.408 15.888 710.034 15.888ZM702.61 34.896C703.634 31.0987 704.146 28.4747 704.146 27.024C704.146 26.128 703.997 25.552 703.698 25.296C703.442 24.9973 703.058 24.848 702.546 24.848C702.162 24.848 701.672 25.04 701.074 25.424C700.477 25.7653 699.88 26.3627 699.282 27.216L694.226 43.984C694.738 44.496 695.357 44.752 696.082 44.752C697.234 44.752 698.322 44.112 699.346 42.832C700.413 41.5093 701.501 38.864 702.61 34.896Z" stroke="white" stroke-width="4" mask="url(#path-1-outside-1_180_3729)"/>
<path d="M782.521 20.368C781.838 22.8427 780.558 24.784 778.681 26.192C776.804 27.5573 774.436 28.4107 771.577 28.752C773.625 28.9227 775.161 29.52 776.185 30.544C777.209 31.568 777.721 32.912 777.721 34.576C777.721 35.216 777.614 36.0053 777.401 36.944L776.697 40.08C776.612 40.5067 776.569 40.8053 776.569 40.976C776.569 41.5307 776.697 41.9573 776.953 42.256C777.209 42.512 777.572 42.64 778.041 42.64C778.937 42.64 779.577 42.768 779.961 43.024C780.388 43.28 780.537 43.7493 780.409 44.432C780.238 45.4133 779.726 46.3733 778.873 47.312C778.02 48.2507 776.804 49.04 775.225 49.68C773.689 50.2773 771.812 50.576 769.593 50.576C766.777 50.576 764.537 49.9573 762.873 48.72C761.209 47.44 760.377 45.6267 760.377 43.28C760.377 42.384 760.505 41.424 760.761 40.4L761.785 36.304C761.956 35.7493 762.041 35.1733 762.041 34.576C762.041 33.5947 761.7 32.8907 761.017 32.464C760.377 32.0373 759.332 31.824 757.881 31.824H755.449L752.505 42.448C752.42 42.704 752.377 43.024 752.377 43.408C752.377 44.0053 752.526 44.5173 752.825 44.944C753.124 45.3707 753.529 45.8187 754.041 46.288C754.425 46.5867 754.724 46.8853 754.937 47.184C755.15 47.44 755.257 47.7173 755.257 48.016C755.257 48.7413 754.916 49.2533 754.233 49.552C753.55 49.8507 752.548 50 751.225 50H735.161C734.052 50 733.22 49.808 732.665 49.424C732.11 48.9973 731.918 48.4213 732.089 47.696C732.174 47.312 732.345 47.0133 732.601 46.8C732.814 46.544 733.156 46.2667 733.625 45.968C734.35 45.5413 734.926 45.0933 735.353 44.624C735.78 44.1547 736.121 43.4293 736.377 42.448L744.185 14.864C744.356 14.3093 744.441 13.776 744.441 13.264C744.441 12.7947 744.356 12.4107 744.185 12.112C744.057 11.7707 743.865 11.3867 743.609 10.96C743.225 10.4053 743.033 9.95734 743.033 9.616C743.033 9.488 743.076 9.25334 743.161 8.912C743.332 8.35734 743.694 7.97334 744.249 7.76C744.846 7.504 745.742 7.376 746.937 7.376H768.377C771.321 7.376 773.881 7.824 776.057 8.72C778.276 9.616 779.961 10.8533 781.113 12.432C782.308 13.968 782.905 15.7173 782.905 17.68C782.905 18.576 782.777 19.472 782.521 20.368ZM766.137 19.728C766.35 18.7467 766.457 18 766.457 17.488C766.457 15.2267 765.22 14.096 762.745 14.096H760.057L757.241 25.424H759.929C761.593 25.424 762.894 25.0187 763.833 24.208C764.814 23.3973 765.582 21.904 766.137 19.728Z" stroke="white" stroke-width="4" mask="url(#path-1-outside-1_180_3729)"/>
<path d="M803.883 15.824C809.302 15.824 813.227 16.6987 815.659 18.448C818.091 20.1547 819.307 22.352 819.307 25.04C819.307 25.8507 819.222 26.5973 819.051 27.28C818.411 30.096 816.619 32.1227 813.675 33.36C810.774 34.5547 807.339 35.152 803.371 35.152C801.366 35.152 799.489 35.024 797.739 34.768C797.697 36.9867 798.294 38.544 799.531 39.44C800.769 40.336 802.497 40.784 804.715 40.784C805.739 40.784 806.721 40.6773 807.659 40.464C808.598 40.208 809.793 39.8453 811.243 39.376C812.438 38.9493 813.249 38.736 813.675 38.736C814.145 38.736 814.379 39.0133 814.379 39.568C814.422 41.0613 813.867 42.64 812.715 44.304C811.563 45.9253 809.857 47.312 807.595 48.464C805.334 49.616 802.603 50.192 799.403 50.192C794.667 50.192 790.785 48.9973 787.755 46.608C784.726 44.2187 783.211 40.7413 783.211 36.176C783.211 34.896 783.382 33.4027 783.723 31.696C784.79 26.448 787.115 22.5013 790.699 19.856C794.326 17.168 798.721 15.824 803.883 15.824ZM798.187 30.928C798.358 30.9707 798.593 30.992 798.891 30.992C800.683 30.992 802.049 30.16 802.987 28.496C803.926 26.832 804.374 24.976 804.331 22.928C804.289 21.7333 803.947 21.136 803.307 21.136C802.838 21.136 802.283 21.52 801.643 22.288C801.003 23.0133 800.363 24.1227 799.723 25.616C799.126 27.1093 798.614 28.88 798.187 30.928Z" stroke="white" stroke-width="4" mask="url(#path-1-outside-1_180_3729)"/>
<path d="M849.232 16.144C851.493 16.144 853.371 16.9547 854.864 18.576C856.357 20.1973 857.104 22.416 857.104 25.232C857.104 29.0293 855.781 32.912 853.136 36.88C850.491 40.848 847.141 44.1333 843.088 46.736C839.035 49.296 835.088 50.576 831.248 50.576C827.579 50.576 824.592 49.8293 822.288 48.336C820.027 46.8427 818.896 44.7093 818.896 41.936C818.896 40.912 819.088 39.76 819.472 38.48L823.504 24.72C823.589 24.3787 823.632 24.1227 823.632 23.952C823.632 23.5253 823.525 23.1627 823.312 22.864C823.099 22.5653 822.8 22.2453 822.416 21.904C821.776 21.3493 821.456 20.8587 821.456 20.432C821.413 19.8347 821.776 19.1947 822.544 18.512C823.312 17.8293 824.379 17.2747 825.744 16.848C827.152 16.3787 828.731 16.144 830.48 16.144C833.339 16.144 835.557 16.848 837.136 18.256C838.757 19.6213 839.568 21.4133 839.568 23.632C839.568 24.6133 839.397 25.68 839.056 26.832L834.896 40.528C834.768 40.912 834.704 41.232 834.704 41.488C834.704 42.0427 834.896 42.4693 835.28 42.768C835.664 43.0667 836.197 43.216 836.88 43.216C837.819 43.216 838.907 42.8107 840.144 42C841.424 41.1467 842.683 39.952 843.92 38.416C845.157 36.8373 846.16 34.9813 846.928 32.848C845.221 31.3547 844.005 29.8827 843.28 28.432C842.597 26.9813 842.256 25.488 842.256 23.952C842.256 21.776 842.853 19.9413 844.048 18.448C845.243 16.912 846.971 16.144 849.232 16.144Z" stroke="white" stroke-width="4" mask="url(#path-1-outside-1_180_3729)"/>
<path d="M879.16 16.144C884.067 16.144 887.992 17.0613 890.936 18.896C893.88 20.688 895.352 23.44 895.352 27.152C895.352 28.56 895.096 30.16 894.584 31.952L891.96 40.784C891.918 40.9547 891.896 41.168 891.896 41.424C891.896 42.1067 892.174 42.448 892.728 42.448C893.24 42.448 893.667 42.2347 894.008 41.808C894.392 41.3387 894.648 41.104 894.776 41.104C894.99 41.104 895.16 41.2533 895.288 41.552C895.459 41.8507 895.544 42.192 895.544 42.576C895.587 43.728 895.139 44.9013 894.2 46.096C893.304 47.2907 892.088 48.272 890.552 49.04C889.016 49.808 887.331 50.192 885.496 50.192C883.278 50.192 881.379 49.7867 879.8 48.976C878.222 48.1653 877.134 46.9707 876.536 45.392C875.256 46.928 873.742 48.1227 871.992 48.976C870.243 49.7867 868.366 50.192 866.36 50.192C864.099 50.192 862.2 49.7653 860.664 48.912C859.128 48.016 857.976 46.8853 857.208 45.52C856.483 44.112 856.12 42.64 856.12 41.104C856.12 40.4213 856.184 39.76 856.312 39.12C856.995 36.176 858.467 33.9573 860.728 32.464C863.032 30.9707 865.763 30.224 868.92 30.224C872.462 30.224 875.939 30.7787 879.352 31.888L880.952 27.664C881.507 25.872 881.784 24.4853 881.784 23.504C881.742 22.48 881.4 21.712 880.76 21.2C880.12 20.688 879.139 20.432 877.816 20.432C878.072 21.1147 878.2 21.8187 878.2 22.544C878.2 24.1227 877.603 25.488 876.408 26.64C875.214 27.792 873.507 28.368 871.288 28.368C869.198 28.368 867.555 27.92 866.36 27.024C865.208 26.0853 864.632 24.9333 864.632 23.568C864.632 21.4347 865.827 19.664 868.216 18.256C870.606 16.848 874.254 16.144 879.16 16.144ZM875.576 35.536C874.382 35.536 873.4 36.0053 872.632 36.944C871.907 37.84 871.544 38.8213 871.544 39.888C871.544 40.5707 871.694 41.1253 871.992 41.552C872.334 41.9787 872.803 42.192 873.4 42.192C873.955 42.192 874.552 41.9787 875.192 41.552C875.875 41.0827 876.366 40.4 876.664 39.504L878.008 35.728C877.283 35.6 876.472 35.536 875.576 35.536Z" stroke="white" stroke-width="4" mask="url(#path-1-outside-1_180_3729)"/>
<path d="M959.051 41.168C958.966 41.3387 958.923 41.5947 958.923 41.936C958.923 42.2347 958.987 42.4693 959.115 42.64C959.286 42.8107 959.499 42.896 959.755 42.896C960.267 42.896 960.694 42.6827 961.035 42.256C961.419 41.7867 961.675 41.552 961.803 41.552C962.017 41.552 962.187 41.7013 962.315 42C962.443 42.256 962.507 42.576 962.507 42.96C962.55 44.1973 962.145 45.4133 961.291 46.608C960.438 47.76 959.179 48.72 957.515 49.488C955.894 50.2133 953.931 50.576 951.627 50.576C948.811 50.576 946.571 49.936 944.907 48.656C943.243 47.3333 942.39 45.584 942.347 43.408C942.347 41.8293 942.731 40.0587 943.499 38.096L947.019 28.88C947.233 28.3253 947.339 27.8773 947.339 27.536C947.339 26.9813 947.147 26.5547 946.763 26.256C946.422 25.9147 945.995 25.744 945.483 25.744C944.758 25.744 944.011 26.064 943.243 26.704C942.475 27.344 941.793 28.3467 941.195 29.712L937.675 41.168C937.59 41.3387 937.547 41.5947 937.547 41.936C937.547 42.2347 937.611 42.4693 937.739 42.64C937.91 42.8107 938.123 42.896 938.379 42.896C938.891 42.896 939.318 42.6827 939.659 42.256C940.043 41.7867 940.299 41.552 940.427 41.552C940.641 41.552 940.811 41.7013 940.939 42C941.067 42.256 941.131 42.576 941.131 42.96C941.174 44.1973 940.769 45.4133 939.915 46.608C939.062 47.76 937.803 48.72 936.139 49.488C934.518 50.2133 932.555 50.576 930.251 50.576C927.435 50.576 925.195 49.936 923.531 48.656C921.867 47.3333 921.014 45.584 920.971 43.408C920.971 41.8293 921.355 40.0587 922.123 38.096L925.643 28.88C925.857 28.3253 925.963 27.8773 925.963 27.536C925.963 26.9813 925.771 26.5547 925.387 26.256C925.046 25.9147 924.619 25.744 924.107 25.744C923.382 25.744 922.635 26.064 921.867 26.704C921.099 27.3013 920.459 28.2827 919.947 29.648L915.723 43.344C915.553 43.8133 915.467 44.2613 915.467 44.688C915.467 45.2 915.574 45.6267 915.787 45.968C916.001 46.2667 916.299 46.5867 916.683 46.928C916.982 47.184 917.195 47.4187 917.323 47.632C917.451 47.8453 917.473 48.1013 917.387 48.4C917.217 48.9547 916.811 49.36 916.171 49.616C915.531 49.872 914.529 50 913.163 50H898.571C897.462 50 896.673 49.8293 896.203 49.488C895.691 49.104 895.499 48.6133 895.627 48.016C895.798 47.504 896.246 47.056 896.971 46.672C897.611 46.3307 898.145 45.9253 898.571 45.456C898.998 44.9867 899.361 44.24 899.659 43.216L905.355 24.72C905.441 24.5067 905.483 24.208 905.483 23.824C905.483 23.3547 905.377 22.992 905.163 22.736C904.993 22.48 904.694 22.16 904.267 21.776C903.841 21.4347 903.542 21.136 903.371 20.88C903.201 20.624 903.179 20.2827 903.307 19.856C903.563 18.8747 904.907 18.0213 907.339 17.296C909.771 16.528 912.31 16.144 914.955 16.144C917.046 16.144 918.689 16.72 919.883 17.872C921.121 19.024 921.718 20.6027 921.675 22.608C923.425 20.176 925.259 18.4907 927.179 17.552C929.142 16.6133 931.254 16.144 933.515 16.144C935.99 16.144 937.995 16.8693 939.531 18.32C941.11 19.728 941.985 21.584 942.155 23.888C943.99 20.9867 945.953 18.9813 948.043 17.872C950.134 16.72 952.417 16.144 954.891 16.144C957.494 16.144 959.585 16.9333 961.163 18.512C962.785 20.0907 963.595 22.1387 963.595 24.656C963.595 25.9787 963.382 27.28 962.955 28.56L959.051 41.168Z" stroke="white" stroke-width="4" mask="url(#path-1-outside-1_180_3729)"/>
<path d="M998.722 15.888C1002.01 15.888 1004.59 16.976 1006.47 19.152C1008.34 21.328 1009.28 24.2933 1009.28 28.048C1009.28 30.0533 1009 32.1653 1008.45 34.384C1007.17 39.6747 1004.78 43.7067 1001.28 46.48C997.783 49.2107 993.73 50.576 989.122 50.576C986.178 50.576 983.618 49.9573 981.442 48.72L979.394 55.568C979.223 56.0373 979.138 56.4853 979.138 56.912C979.138 57.3813 979.245 57.7653 979.458 58.064C979.671 58.4053 979.949 58.7253 980.29 59.024C980.631 59.3653 980.845 59.6427 980.93 59.856C981.058 60.0693 981.079 60.3253 980.994 60.624C980.823 61.1787 980.418 61.5627 979.778 61.776C979.138 62.032 978.157 62.16 976.834 62.16H962.178C961.069 62.16 960.279 61.968 959.81 61.584C959.298 61.2427 959.149 60.7947 959.362 60.24C959.447 59.8987 959.597 59.6213 959.81 59.408C960.023 59.1947 960.322 59.0027 960.706 58.832C961.346 58.4053 961.858 57.9573 962.242 57.488C962.626 57.0613 962.967 56.3573 963.266 55.376L972.61 24.72C972.738 24.336 972.802 24.016 972.802 23.76C972.802 23.2907 972.695 22.928 972.482 22.672C972.269 22.3733 971.949 22.0747 971.522 21.776C971.095 21.4347 970.797 21.136 970.626 20.88C970.455 20.624 970.434 20.2827 970.562 19.856C970.818 18.8747 972.162 18.0213 974.594 17.296C977.026 16.528 979.565 16.144 982.21 16.144C984.087 16.144 985.623 16.6133 986.818 17.552C988.055 18.4907 988.759 19.792 988.93 21.456C991.831 17.744 995.095 15.888 998.722 15.888ZM991.298 34.896C992.322 31.0987 992.834 28.4747 992.834 27.024C992.834 26.128 992.685 25.552 992.386 25.296C992.13 24.9973 991.746 24.848 991.234 24.848C990.85 24.848 990.359 25.04 989.762 25.424C989.165 25.7653 988.567 26.3627 987.97 27.216L982.914 43.984C983.426 44.496 984.045 44.752 984.77 44.752C985.922 44.752 987.01 44.112 988.034 42.832C989.101 41.5093 990.189 38.864 991.298 34.896Z" stroke="white" stroke-width="4" mask="url(#path-1-outside-1_180_3729)"/>
</svg>
