<svg width="1453" height="145" viewBox="0 0 1453 145" fill="none" xmlns="http://www.w3.org/2000/svg">
<path d="M83.6764 26.321C83.6764 38.679 72.8214 45.192 61.6324 48.699C78.3324 50.703 90.6904 60.556 90.6904 76.588C90.6904 92.453 77.9984 109.153 55.9544 109.153C51.4454 109.153 45.4334 108.986 39.0874 108.652C32.4074 108.318 24.2244 107.984 18.3794 107.984H4.51837C1.67937 107.984 1.17837 104.644 2.34737 102.807L2.18037 103.308C2.18037 103.642 2.68137 102.473 2.84837 102.139C4.01737 100.469 6.02137 96.628 6.02137 89.781V22.647C6.02137 15.633 4.01737 11.959 2.84837 10.456C2.68137 10.289 2.34737 9.78796 2.34737 9.62096C1.17837 7.78396 1.67937 4.44396 4.51837 4.44396H18.3794C24.3914 4.44396 31.9064 4.10996 38.2524 3.77596C43.0954 3.60896 47.4374 3.44196 50.1094 3.44196C74.3244 3.44196 83.6764 14.297 83.6764 26.321ZM55.6204 50.369L55.4534 48.365C67.6444 45.192 81.6724 39.514 81.6724 26.321C81.6724 15.299 72.9884 5.44595 50.1094 5.44595C47.4374 5.44595 43.0954 5.61296 38.2524 5.77996C32.0734 6.11396 24.0574 6.44796 18.3794 6.44796H4.51837C3.68337 6.44796 3.68337 7.78396 4.01737 8.61896L4.51837 9.45396C5.68737 11.124 8.02537 14.798 8.02537 22.647V89.781C8.02537 97.797 5.35337 101.638 4.35137 103.308L4.18437 103.475C3.68337 104.31 3.51637 105.98 4.51837 105.98H18.3794C24.5584 105.98 32.0734 106.314 39.0874 106.648C45.4334 106.982 51.4454 107.149 55.9544 107.149C76.6624 107.149 88.6864 91.451 88.6864 76.588C88.6864 59.888 74.3244 50.369 55.6204 50.369ZM38.0854 98.632H36.0814V56.882C38.7534 55.88 41.0914 55.379 43.2624 55.379C52.6144 55.379 55.9544 65.232 55.9544 75.753C55.9544 89.781 50.1094 98.632 38.0854 98.632ZM38.0854 96.628C48.7734 96.628 53.9504 88.445 53.9504 75.753C53.9504 66.234 51.2784 57.383 43.2624 57.383C41.7594 57.383 40.2564 57.717 38.0854 58.385V96.628ZM36.0814 12.794H39.7554C47.2704 12.794 53.7834 19.307 53.7834 27.49C53.7834 38.011 46.2684 45.86 36.0814 49.868V12.794ZM39.7554 14.798H38.0854V46.862C45.4334 43.188 51.7794 36.007 51.7794 27.49C51.7794 20.309 46.2684 14.798 39.7554 14.798Z" stroke="#F5AE20" stroke-width="3"/>
<path d="M182.476 88.779H182.643C186.317 89.447 186.651 90.115 186.651 93.121C186.651 98.632 180.639 107.984 167.78 107.984C157.426 107.984 149.41 101.972 149.41 92.62V91.618C144.734 99.3 134.213 107.984 122.69 107.984C108.662 107.984 98.4754 97.463 98.4754 81.932V45.359C98.4754 40.85 96.4714 37.51 95.6364 36.341V36.508C94.3004 34.671 94.1334 31.164 97.9744 30.329L126.865 25.319C130.372 24.818 131.541 26.488 131.04 29.327L130.205 32.333C129.37 34.838 128.535 38.512 128.535 44.357V74.417C128.535 82.934 133.211 85.773 138.555 85.773C142.396 85.773 146.404 84.27 149.41 82.433V45.359C149.41 40.85 147.573 37.677 146.571 36.508C145.235 34.671 144.901 31.164 149.076 30.329L177.967 25.319C181.14 24.818 182.309 26.655 182.142 29.494L181.641 31.498C180.806 34.17 179.47 38.345 179.47 44.357V82.099C179.47 86.441 180.806 88.612 182.476 88.779ZM184.647 93.121C184.647 91.618 184.48 91.117 182.476 90.783C179.804 90.616 177.466 87.61 177.466 82.099V44.357C177.466 37.677 178.802 33.502 179.637 30.83V30.997L180.138 28.993C180.138 27.991 179.136 27.323 178.301 27.323L149.41 32.333C147.74 32.834 147.573 34.337 148.241 35.172C149.243 36.341 151.414 40.182 151.414 45.359V83.435C147.907 85.94 142.897 87.777 138.555 87.777C132.209 87.777 126.531 84.27 126.531 74.417V44.357C126.531 38.512 127.533 34.003 128.368 31.331L129.036 28.993C129.203 27.991 128.368 27.323 127.199 27.323L98.3084 32.333C96.6384 32.834 96.6384 34.504 97.3064 35.339C98.1414 36.675 100.479 40.349 100.479 45.359V81.932C100.479 96.127 109.664 105.98 122.69 105.98C135.382 105.98 146.738 94.123 149.577 86.441L151.414 86.775V92.62C151.414 100.636 158.428 105.98 167.78 105.98C179.303 105.98 184.647 97.964 184.647 93.121Z" stroke="#F5AE20" stroke-width="3"/>
<path d="M266.172 43.355C266.172 52.54 258.323 55.045 250.474 55.045C245.798 55.045 240.788 54.043 237.281 52.874C239.285 43.355 232.772 35.005 227.094 35.005C223.086 35.005 220.247 37.009 220.247 41.685C220.247 46.862 228.764 51.204 238.116 55.88C251.142 62.56 266.172 69.908 266.172 83.435C266.172 98.465 248.47 109.654 228.597 109.654C212.064 109.654 193.527 106.314 191.189 95.96C189.853 86.775 202.545 76.588 213.901 77.256C218.744 77.423 219.746 79.26 219.746 82.767C219.746 89.28 225.591 98.298 230.1 98.298C234.108 98.298 237.114 96.294 237.114 91.618C237.114 86.942 228.263 82.266 219.579 77.924C207.388 71.745 191.189 62.393 191.189 49.868C191.189 35.339 207.388 23.649 233.273 23.649C252.812 23.649 266.172 31.665 266.172 43.355ZM264.168 43.355C264.168 33.001 251.476 25.653 233.273 25.653C208.724 25.653 193.193 36.341 193.193 49.868C193.193 62.393 207.889 70.075 220.581 76.254C230.601 81.264 239.118 85.606 239.118 91.618C239.118 97.63 235.11 100.302 230.1 100.302C224.589 100.302 217.742 90.282 217.742 82.767C217.742 80.596 217.074 79.427 213.901 79.26C203.38 78.592 191.523 87.443 193.193 95.626C194.863 104.978 212.565 107.65 228.597 107.65C247.468 107.65 264.168 97.463 264.168 83.435C264.168 71.244 249.639 63.896 237.114 57.55C227.428 52.707 218.243 47.864 218.243 41.685C218.243 35.673 222.084 33.001 227.094 33.001C233.44 33.001 240.955 41.685 239.619 51.538C242.458 52.373 246.633 53.041 250.474 53.041C257.321 53.041 264.168 50.87 264.168 43.355Z" stroke="#F5AE20" stroke-width="3"/>
<path d="M400.542 102.807C401.544 104.644 401.377 107.984 398.204 107.984H368.812C366.14 107.984 365.639 104.644 366.641 102.807C367.309 101.638 368.478 98.298 368.478 93.455V58.719C368.478 50.369 363.802 47.53 358.458 47.53C354.617 47.53 350.609 48.866 347.603 50.703V93.455C347.603 98.298 348.772 101.638 349.44 102.807C350.442 104.644 349.941 107.984 347.269 107.984H317.877C314.537 107.984 314.537 104.644 315.539 102.807C316.207 101.805 317.543 98.465 317.543 93.455V34.003C312.032 38.178 301.511 43.522 290.99 43.522C287.817 43.522 284.477 43.021 281.471 42.019C274.123 39.347 270.282 33.502 270.282 27.657C270.282 19.474 276.962 11.291 289.153 11.291C290.99 11.291 293.328 11.458 296.668 12.293C292.827 23.983 306.688 26.488 320.716 26.488C327.563 26.488 334.41 25.987 339.42 25.653C342.426 25.486 344.597 25.319 345.933 25.319C349.106 24.985 350.609 26.655 350.108 29.327L349.273 32.333C348.605 34.504 347.77 37.51 347.603 41.852C352.279 34.003 362.633 25.319 374.49 25.319C388.685 25.319 398.538 35.84 398.538 51.204V93.455C398.538 98.465 399.874 101.805 400.542 102.807ZM398.872 103.809C398.204 102.64 396.534 98.966 396.534 93.455V51.204C396.534 37.176 387.349 27.323 374.49 27.323C361.631 27.323 350.442 39.013 347.436 46.862H345.599V44.357C345.599 38.512 346.601 34.003 347.436 31.331L348.104 28.993C348.271 27.824 347.77 27.156 346.267 27.323C344.931 27.323 342.426 27.49 339.42 27.657C334.41 27.991 327.563 28.492 320.716 28.492C305.853 28.492 291.157 25.653 293.996 13.629C292.326 13.295 290.656 13.295 289.153 13.295C278.298 13.295 272.286 20.476 272.286 27.657C272.286 32.834 275.459 37.844 282.139 40.015C285.145 41.017 288.151 41.518 290.99 41.518C302.513 41.518 314.537 34.504 319.547 29.828V93.455C319.547 98.632 317.877 102.473 317.209 103.809C316.875 104.644 316.875 105.98 317.877 105.98H347.269C348.271 105.98 348.271 104.644 347.77 103.809C347.102 102.473 345.599 98.799 345.599 93.455V49.701C349.273 47.196 354.116 45.526 358.458 45.526C364.804 45.526 370.482 49.033 370.482 58.719V93.455C370.482 98.799 368.979 102.473 368.311 103.809C367.81 104.644 367.81 105.98 368.812 105.98H398.204C399.206 105.98 399.206 104.644 398.872 103.809ZM304.35 45.192C307.69 44.691 309.026 46.361 308.525 49.2L307.69 52.206C306.855 54.711 306.02 58.385 306.02 64.23V93.455C306.02 98.298 307.189 101.638 307.857 102.807C308.859 104.644 308.358 107.984 305.686 107.984H276.294C273.121 107.984 272.787 104.644 273.956 102.807C274.624 101.805 275.96 98.465 275.96 93.455V65.232C275.96 60.556 273.956 57.216 273.121 56.381C271.451 54.544 271.618 50.87 275.459 50.202L304.35 45.192ZM304.684 47.196L275.793 52.206C274.123 52.707 274.123 54.21 274.791 55.045C275.626 56.047 277.964 59.721 277.964 65.232V93.455C277.964 98.966 276.294 102.64 275.626 103.809C275.125 104.644 275.125 105.98 276.294 105.98H305.686C306.688 105.98 306.688 104.644 306.187 103.809C305.519 102.473 304.016 98.799 304.016 93.455V64.23C304.016 58.385 305.018 53.876 305.853 51.204L306.521 48.866C306.688 47.864 305.853 47.196 304.684 47.196Z" stroke="#F5AE20" stroke-width="3"/>
<path d="M486.945 50.87C486.945 57.049 484.607 62.226 474.921 63.896L441.688 69.741C444.861 79.427 451.875 82.433 459.223 82.433C466.905 82.433 474.754 79.093 478.762 76.087C482.77 73.248 486.945 75.92 486.945 79.594C486.945 98.966 467.072 109.654 449.37 109.654C425.99 109.654 406.785 95.626 406.785 66.568C406.785 37.51 425.99 23.649 449.37 23.649C475.088 23.649 486.945 39.013 486.945 50.87ZM484.941 50.87C484.941 40.015 473.752 25.653 449.37 25.653C426.992 25.653 408.789 38.846 408.789 66.568C408.789 94.29 426.992 107.65 449.37 107.65C466.07 107.65 484.941 97.63 484.941 79.594C484.941 77.757 482.269 76.755 480.098 77.757C475.923 80.763 467.406 84.437 459.223 84.437C450.706 84.437 442.523 80.429 439.016 68.071L474.587 61.892C482.436 60.222 484.941 55.88 484.941 50.87ZM455.215 57.884C451.708 58.552 438.014 60.89 438.014 60.89C437.68 58.552 437.68 57.216 437.68 56.047C437.68 43.856 443.024 33.001 448.368 33.001C453.545 33.001 457.553 40.516 460.225 48.866C460.225 49.033 460.392 49.2 460.392 49.367C461.227 52.039 462.396 56.548 455.215 57.884ZM454.881 55.88C459.891 54.878 458.889 51.705 458.388 50.035C458.388 49.868 458.221 49.868 458.221 49.534C455.883 41.852 452.376 35.005 448.368 35.005C444.026 35.005 439.684 44.858 439.684 56.047C439.684 57.216 439.517 57.383 439.684 58.552L454.881 55.88Z" stroke="#F5AE20" stroke-width="3"/>
<path d="M566.74 43.355C566.74 52.54 558.891 55.045 551.042 55.045C546.366 55.045 541.356 54.043 537.849 52.874C539.853 43.355 533.34 35.005 527.662 35.005C523.654 35.005 520.815 37.009 520.815 41.685C520.815 46.862 529.332 51.204 538.684 55.88C551.71 62.56 566.74 69.908 566.74 83.435C566.74 98.465 549.038 109.654 529.165 109.654C512.632 109.654 494.095 106.314 491.757 95.96C490.421 86.775 503.113 76.588 514.469 77.256C519.312 77.423 520.314 79.26 520.314 82.767C520.314 89.28 526.159 98.298 530.668 98.298C534.676 98.298 537.682 96.294 537.682 91.618C537.682 86.942 528.831 82.266 520.147 77.924C507.956 71.745 491.757 62.393 491.757 49.868C491.757 35.339 507.956 23.649 533.841 23.649C553.38 23.649 566.74 31.665 566.74 43.355ZM564.736 43.355C564.736 33.001 552.044 25.653 533.841 25.653C509.292 25.653 493.761 36.341 493.761 49.868C493.761 62.393 508.457 70.075 521.149 76.254C531.169 81.264 539.686 85.606 539.686 91.618C539.686 97.63 535.678 100.302 530.668 100.302C525.157 100.302 518.31 90.282 518.31 82.767C518.31 80.596 517.642 79.427 514.469 79.26C503.948 78.592 492.091 87.443 493.761 95.626C495.431 104.978 513.133 107.65 529.165 107.65C548.036 107.65 564.736 97.463 564.736 83.435C564.736 71.244 550.207 63.896 537.682 57.55C527.996 52.707 518.811 47.864 518.811 41.685C518.811 35.673 522.652 33.001 527.662 33.001C534.008 33.001 541.523 41.685 540.187 51.538C543.026 52.373 547.201 53.041 551.042 53.041C557.889 53.041 564.736 50.87 564.736 43.355Z" stroke="#F5AE20" stroke-width="3"/>
<path d="M645.999 43.355C645.999 52.54 638.15 55.045 630.301 55.045C625.625 55.045 620.615 54.043 617.108 52.874C619.112 43.355 612.599 35.005 606.921 35.005C602.913 35.005 600.074 37.009 600.074 41.685C600.074 46.862 608.591 51.204 617.943 55.88C630.969 62.56 645.999 69.908 645.999 83.435C645.999 98.465 628.297 109.654 608.424 109.654C591.891 109.654 573.354 106.314 571.016 95.96C569.68 86.775 582.372 76.588 593.728 77.256C598.571 77.423 599.573 79.26 599.573 82.767C599.573 89.28 605.418 98.298 609.927 98.298C613.935 98.298 616.941 96.294 616.941 91.618C616.941 86.942 608.09 82.266 599.406 77.924C587.215 71.745 571.016 62.393 571.016 49.868C571.016 35.339 587.215 23.649 613.1 23.649C632.639 23.649 645.999 31.665 645.999 43.355ZM643.995 43.355C643.995 33.001 631.303 25.653 613.1 25.653C588.551 25.653 573.02 36.341 573.02 49.868C573.02 62.393 587.716 70.075 600.408 76.254C610.428 81.264 618.945 85.606 618.945 91.618C618.945 97.63 614.937 100.302 609.927 100.302C604.416 100.302 597.569 90.282 597.569 82.767C597.569 80.596 596.901 79.427 593.728 79.26C583.207 78.592 571.35 87.443 573.02 95.626C574.69 104.978 592.392 107.65 608.424 107.65C627.295 107.65 643.995 97.463 643.995 83.435C643.995 71.244 629.466 63.896 616.941 57.55C607.255 52.707 598.07 47.864 598.07 41.685C598.07 35.673 601.911 33.001 606.921 33.001C613.267 33.001 620.782 41.685 619.446 51.538C622.285 52.373 626.46 53.041 630.301 53.041C637.148 53.041 643.995 50.87 643.995 43.355Z" stroke="#F5AE20" stroke-width="3"/>
<path d="M746.238 2.10596C777.634 2.10596 797.841 21.645 797.841 56.214C797.841 90.95 777.634 110.322 746.238 110.322C714.675 110.322 694.468 90.95 694.468 56.214C694.468 21.645 714.675 2.10596 746.238 2.10596ZM746.238 4.10996C716.011 4.10996 696.472 22.981 696.472 56.214C696.472 89.614 716.011 108.318 746.238 108.318C776.298 108.318 795.837 89.614 795.837 56.214C795.837 22.981 776.298 4.10996 746.238 4.10996ZM746.238 98.966C754.588 98.966 761.268 79.928 761.268 56.214C761.268 32.5 754.588 13.462 746.238 13.462C737.721 13.462 731.041 32.5 731.041 56.214C731.041 79.928 737.721 98.966 746.238 98.966ZM746.238 100.97C736.719 100.97 729.037 80.93 729.037 56.214C729.037 31.498 736.719 11.458 746.238 11.458C755.59 11.458 763.272 31.498 763.272 56.214C763.272 80.93 755.59 100.97 746.238 100.97Z" stroke="#F5AE20" stroke-width="3"/>
<path d="M860.551 25.319C874.579 25.319 886.937 38.679 886.937 66.568C886.937 94.624 874.579 107.984 860.551 107.984C850.531 107.984 840.678 100.636 836.002 92.119V93.455C836.002 98.298 837.171 101.638 838.006 102.807C839.008 104.644 838.674 107.984 835.668 107.984H806.276C803.27 107.984 802.936 104.644 803.938 102.807C804.773 101.638 805.942 98.298 805.942 93.455V22.313C805.942 17.637 803.938 14.297 803.103 13.128V13.295C801.767 11.625 801.934 8.11796 805.441 7.28296L834.332 2.27295C837.505 1.77196 839.008 3.60896 838.507 6.28096L837.672 9.28695C836.837 11.792 836.002 15.466 836.002 21.311V41.184C840.845 32.834 850.698 25.319 860.551 25.319ZM860.551 27.323C849.529 27.323 839.008 36.675 835.835 46.862H833.998V21.311C833.998 15.466 835 10.957 835.835 8.28496L836.503 5.94696C836.67 4.77796 836.169 3.94296 834.666 4.27696L805.775 9.28695C804.606 9.62096 803.771 10.623 804.105 11.124C805.107 12.627 807.946 16.969 807.946 22.313V93.455C807.946 98.465 806.443 102.306 805.608 103.809C805.274 104.644 805.274 105.98 806.276 105.98H835.668C836.67 105.98 836.67 104.644 836.336 103.809C835.501 102.306 833.998 98.465 833.998 93.455V86.441H835.835C838.841 96.461 849.362 105.98 860.551 105.98C873.577 105.98 884.933 93.288 884.933 66.568C884.933 40.015 873.577 27.323 860.551 27.323ZM833.998 81.598V51.371C837.338 48.699 840.344 47.363 843.016 47.363C850.531 47.363 856.209 54.711 856.209 66.568C856.209 78.258 850.531 85.773 843.016 85.773C840.344 85.773 837.338 84.604 833.998 81.598ZM836.002 52.373V80.93C838.507 83.101 840.678 83.769 843.016 83.769C849.529 83.769 854.205 77.256 854.205 66.568C854.205 55.713 849.529 49.367 843.016 49.367C840.845 49.367 838.674 50.369 836.002 52.373Z" stroke="#F5AE20" stroke-width="3"/>
<path d="M923.703 25.319C927.21 24.818 928.379 26.488 927.878 29.327L927.043 32.333C926.208 34.838 925.373 38.512 925.373 44.357V116.668C925.373 132.7 914.852 142.887 898.82 142.887C884.291 142.887 877.444 133.034 877.444 127.022C877.444 123.682 879.782 121.678 883.289 123.181C888.132 125.519 895.313 122.179 895.313 113.328V45.359C895.313 40.85 893.309 37.51 892.474 36.341V36.508C891.138 34.671 890.971 31.164 894.812 30.329L923.703 25.319ZM924.037 27.323L895.146 32.333C893.476 32.834 893.476 34.504 894.144 35.339C894.979 36.675 897.317 40.349 897.317 45.359V113.328C897.317 123.849 888.466 127.69 882.454 124.851H882.621C880.784 124.016 879.448 125.185 879.448 127.022C879.448 132.366 885.627 140.883 898.82 140.883C913.516 140.883 923.369 131.364 923.369 116.668V44.357C923.369 38.512 924.371 34.003 925.206 31.331L925.874 28.993C926.041 27.991 925.206 27.323 924.037 27.323ZM909.842 25.987C900.824 25.987 894.979 22.48 894.979 13.963C894.979 5.61296 900.824 2.10596 909.842 2.10596C918.693 2.10596 924.538 5.61296 924.538 13.963C924.538 22.48 918.693 25.987 909.842 25.987ZM909.842 23.983C917.357 23.983 922.534 21.144 922.534 13.963C922.534 6.94895 917.357 4.10996 909.842 4.10996C902.16 4.10996 896.983 6.94895 896.983 13.963C896.983 21.144 902.16 23.983 909.842 23.983Z" stroke="#F5AE20" stroke-width="3"/>
<path d="M1012.9 50.87C1012.9 57.049 1010.56 62.226 1000.87 63.896L967.64 69.741C970.813 79.427 977.827 82.433 985.175 82.433C992.857 82.433 1000.71 79.093 1004.71 76.087C1008.72 73.248 1012.9 75.92 1012.9 79.594C1012.9 98.966 993.024 109.654 975.322 109.654C951.942 109.654 932.737 95.626 932.737 66.568C932.737 37.51 951.942 23.649 975.322 23.649C1001.04 23.649 1012.9 39.013 1012.9 50.87ZM1010.89 50.87C1010.89 40.015 999.704 25.653 975.322 25.653C952.944 25.653 934.741 38.846 934.741 66.568C934.741 94.29 952.944 107.65 975.322 107.65C992.022 107.65 1010.89 97.63 1010.89 79.594C1010.89 77.757 1008.22 76.755 1006.05 77.757C1001.87 80.763 993.358 84.437 985.175 84.437C976.658 84.437 968.475 80.429 964.968 68.071L1000.54 61.892C1008.39 60.222 1010.89 55.88 1010.89 50.87ZM981.167 57.884C977.66 58.552 963.966 60.89 963.966 60.89C963.632 58.552 963.632 57.216 963.632 56.047C963.632 43.856 968.976 33.001 974.32 33.001C979.497 33.001 983.505 40.516 986.177 48.866C986.177 49.033 986.344 49.2 986.344 49.367C987.179 52.039 988.348 56.548 981.167 57.884ZM980.833 55.88C985.843 54.878 984.841 51.705 984.34 50.035C984.34 49.868 984.173 49.868 984.173 49.534C981.835 41.852 978.328 35.005 974.32 35.005C969.978 35.005 965.636 44.858 965.636 56.047C965.636 57.216 965.469 57.383 965.636 58.552L980.833 55.88Z" stroke="#F5AE20" stroke-width="3"/>
<path d="M1097.7 43.522C1097.7 57.383 1072.82 61.558 1065.97 59.387C1066.47 56.715 1066.64 54.377 1066.64 52.373C1066.64 43.355 1063.97 35.005 1060.13 35.005C1055.78 35.005 1052.95 43.689 1052.28 53.208C1050.61 74.751 1060.63 82.266 1071.48 82.266C1077.83 82.266 1084.34 79.761 1089.52 76.087C1093.86 72.914 1097.7 75.92 1097.7 79.594C1097.7 96.795 1080.17 109.654 1060.46 109.654C1036.91 109.654 1017.54 95.626 1017.54 66.568C1017.54 37.51 1038.58 23.649 1062.13 23.649C1081.67 23.649 1097.7 30.496 1097.7 43.522ZM1095.7 43.522C1095.7 31.832 1080.67 25.653 1062.13 25.653C1039.59 25.653 1019.55 38.846 1019.55 66.568C1019.55 94.29 1037.92 107.65 1060.46 107.65C1079.16 107.65 1095.7 95.793 1095.7 79.594C1095.7 77.59 1093.36 75.92 1090.69 77.757H1090.85C1085.34 81.765 1078.33 84.27 1071.48 84.27C1059.63 84.27 1048.94 75.419 1050.27 53.208C1050.94 42.854 1054.62 33.001 1060.13 33.001C1064.97 33.001 1068.64 42.353 1068.64 52.373C1068.64 54.21 1068.48 56.214 1068.31 57.884C1075.16 59.22 1095.7 55.379 1095.7 43.522Z" stroke="#F5AE20" stroke-width="3"/>
<path d="M1154.95 80.93C1157.46 79.594 1161.63 80.262 1161.63 85.94C1161.63 98.131 1151.11 107.984 1138.75 107.984C1122.05 107.984 1110.7 98.298 1110.7 80.763V36.675H1107.02C1104.18 36.675 1102.35 34.17 1102.35 30.997C1102.35 27.657 1104.35 25.987 1106.86 25.319H1106.69C1114.04 23.315 1123.89 18.138 1129.23 7.11596C1130.9 3.77596 1133.41 2.10596 1135.75 2.10596C1138.42 2.10596 1140.76 4.44396 1140.76 8.78596V25.319H1156.62C1159.46 25.319 1161.3 27.824 1161.3 30.997C1161.3 34.17 1159.46 36.675 1156.62 36.675H1140.76V71.912C1140.76 79.093 1144.6 82.266 1149.27 82.266C1151.11 82.266 1152.95 81.765 1154.95 80.93ZM1155.95 82.6C1153.62 83.769 1151.44 84.27 1149.27 84.27C1143.6 84.27 1138.75 80.429 1138.75 71.912V34.671H1156.62C1158.12 34.671 1159.29 33.168 1159.29 30.997C1159.29 28.826 1158.12 27.323 1156.62 27.323H1138.75V8.78596C1138.75 5.77996 1137.42 4.10996 1135.75 4.10996C1134.08 4.10996 1132.24 5.61296 1130.9 8.11796C1125.23 19.14 1114.7 25.319 1107.19 27.323C1105.69 27.657 1104.35 28.826 1104.35 30.997C1104.35 33.168 1105.52 34.671 1107.02 34.671H1112.7V80.763C1112.7 96.962 1123.39 105.98 1138.75 105.98C1150.11 105.98 1159.63 97.129 1159.63 85.94C1159.63 82.433 1157.29 81.932 1155.95 82.6Z" stroke="#F5AE20" stroke-width="3"/>
<path d="M1201.36 102.807C1202.36 104.644 1202.03 107.984 1199.02 107.984H1169.63C1166.63 107.984 1166.29 104.644 1167.29 102.807C1168.13 101.638 1169.3 98.298 1169.3 93.455V45.359C1169.3 40.85 1167.29 37.51 1166.46 36.341V36.508C1165.12 34.671 1164.96 31.164 1168.8 30.329L1197.69 25.319C1201.19 24.818 1202.36 26.488 1201.86 29.327L1201.03 32.333C1200.19 34.838 1199.36 38.512 1199.36 44.357V93.455C1199.36 98.298 1200.53 101.638 1201.36 102.807ZM1199.69 103.809C1198.86 102.473 1197.35 98.799 1197.35 93.455V44.357C1197.35 38.512 1198.36 34.003 1199.19 31.331L1199.86 28.993C1200.03 27.991 1199.19 27.323 1198.02 27.323L1169.13 32.333C1167.46 32.834 1167.46 34.504 1168.13 35.339C1168.96 36.675 1171.3 40.349 1171.3 45.359V93.455C1171.3 98.465 1169.8 102.306 1168.96 103.809C1168.63 104.644 1168.63 105.98 1169.63 105.98H1199.02C1200.03 105.98 1200.03 104.644 1199.69 103.809ZM1183.83 25.987C1174.98 25.987 1168.96 22.48 1168.96 13.963C1168.96 5.61296 1174.98 2.10596 1183.83 2.10596C1192.68 2.10596 1198.52 5.61296 1198.52 13.963C1198.52 22.48 1192.68 25.987 1183.83 25.987ZM1183.83 23.983C1191.34 23.983 1196.52 21.144 1196.52 13.963C1196.52 6.94895 1191.34 4.10996 1183.83 4.10996C1176.31 4.10996 1170.97 6.94895 1170.97 13.963C1170.97 21.144 1176.31 23.983 1183.83 23.983Z" stroke="#F5AE20" stroke-width="3"/>
<path d="M1289.57 25.319C1292.91 25.319 1293.41 28.492 1291.74 30.496C1290.57 31.832 1287.9 35.172 1286.4 40.015C1285.06 43.856 1268.03 93.789 1268.03 93.789C1264.36 104.31 1258.18 107.984 1252.16 107.984H1246.32C1240.14 107.984 1234.13 104.31 1230.45 93.789C1230.45 93.789 1213.42 43.856 1212.08 40.015C1210.58 35.172 1207.91 31.832 1206.74 30.496C1205.07 28.492 1205.57 25.319 1208.91 25.319H1242.65C1245.82 25.319 1246.15 27.323 1245.48 29.995V29.828C1245.48 29.828 1245.15 30.496 1244.98 30.997C1244.32 32.5 1243.15 35.339 1244.65 39.347L1259.51 82.767L1267.19 59.888C1268.36 56.381 1268.86 53.375 1268.86 50.703C1268.86 40.349 1262.18 34.337 1258.01 30.496V30.663C1256.01 28.826 1256.84 25.319 1260.18 25.319H1289.57ZM1289.57 27.323H1260.18C1259.01 27.323 1258.68 28.492 1259.35 29.16C1263.85 33.335 1270.87 39.681 1270.87 50.703C1270.87 53.709 1270.37 57.049 1269.2 60.556L1259.51 89.614L1242.65 40.015C1241.31 35.84 1242.14 32.333 1242.81 30.997L1243.48 29.661C1243.81 28.325 1243.65 27.323 1242.65 27.323H1208.91C1207.74 27.323 1207.74 28.492 1208.41 29.16C1209.58 30.496 1212.42 34.337 1214.09 39.347C1215.76 44.19 1232.46 93.121 1232.46 93.121C1235.8 102.139 1241.14 105.98 1246.32 105.98H1252.16C1257.51 105.98 1262.69 103.308 1266.03 93.121C1266.03 93.121 1283.06 43.188 1284.4 39.347C1286.07 34.337 1288.9 30.496 1290.07 29.16C1290.74 28.492 1290.58 27.323 1289.57 27.323Z" stroke="#F5AE20" stroke-width="3"/>
<path d="M1371.03 50.87C1371.03 57.049 1368.7 62.226 1359.01 63.896L1325.78 69.741C1328.95 79.427 1335.96 82.433 1343.31 82.433C1350.99 82.433 1358.84 79.093 1362.85 76.087C1366.86 73.248 1371.03 75.92 1371.03 79.594C1371.03 98.966 1351.16 109.654 1333.46 109.654C1310.08 109.654 1290.87 95.626 1290.87 66.568C1290.87 37.51 1310.08 23.649 1333.46 23.649C1359.18 23.649 1371.03 39.013 1371.03 50.87ZM1369.03 50.87C1369.03 40.015 1357.84 25.653 1333.46 25.653C1311.08 25.653 1292.88 38.846 1292.88 66.568C1292.88 94.29 1311.08 107.65 1333.46 107.65C1350.16 107.65 1369.03 97.63 1369.03 79.594C1369.03 77.757 1366.36 76.755 1364.19 77.757C1360.01 80.763 1351.49 84.437 1343.31 84.437C1334.79 84.437 1326.61 80.429 1323.1 68.071L1358.68 61.892C1366.52 60.222 1369.03 55.88 1369.03 50.87ZM1339.3 57.884C1335.8 58.552 1322.1 60.89 1322.1 60.89C1321.77 58.552 1321.77 57.216 1321.77 56.047C1321.77 43.856 1327.11 33.001 1332.46 33.001C1337.63 33.001 1341.64 40.516 1344.31 48.866C1344.31 49.033 1344.48 49.2 1344.48 49.367C1345.32 52.039 1346.48 56.548 1339.3 57.884ZM1338.97 55.88C1343.98 54.878 1342.98 51.705 1342.48 50.035C1342.48 49.868 1342.31 49.868 1342.31 49.534C1339.97 41.852 1336.46 35.005 1332.46 35.005C1328.11 35.005 1323.77 44.858 1323.77 56.047C1323.77 57.216 1323.61 57.383 1323.77 58.552L1338.97 55.88Z" stroke="#F5AE20" stroke-width="3"/>
<path d="M1450.83 43.355C1450.83 52.54 1442.98 55.045 1435.13 55.045C1430.45 55.045 1425.44 54.043 1421.94 52.874C1423.94 43.355 1417.43 35.005 1411.75 35.005C1407.74 35.005 1404.9 37.009 1404.9 41.685C1404.9 46.862 1413.42 51.204 1422.77 55.88C1435.8 62.56 1450.83 69.908 1450.83 83.435C1450.83 98.465 1433.13 109.654 1413.25 109.654C1396.72 109.654 1378.18 106.314 1375.85 95.96C1374.51 86.775 1387.2 76.588 1398.56 77.256C1403.4 77.423 1404.4 79.26 1404.4 82.767C1404.4 89.28 1410.25 98.298 1414.76 98.298C1418.76 98.298 1421.77 96.294 1421.77 91.618C1421.77 86.942 1412.92 82.266 1404.24 77.924C1392.04 71.745 1375.85 62.393 1375.85 49.868C1375.85 35.339 1392.04 23.649 1417.93 23.649C1437.47 23.649 1450.83 31.665 1450.83 43.355ZM1448.82 43.355C1448.82 33.001 1436.13 25.653 1417.93 25.653C1393.38 25.653 1377.85 36.341 1377.85 49.868C1377.85 62.393 1392.55 70.075 1405.24 76.254C1415.26 81.264 1423.77 85.606 1423.77 91.618C1423.77 97.63 1419.77 100.302 1414.76 100.302C1409.25 100.302 1402.4 90.282 1402.4 82.767C1402.4 80.596 1401.73 79.427 1398.56 79.26C1388.04 78.592 1376.18 87.443 1377.85 95.626C1379.52 104.978 1397.22 107.65 1413.25 107.65C1432.12 107.65 1448.82 97.463 1448.82 83.435C1448.82 71.244 1434.3 63.896 1421.77 57.55C1412.08 52.707 1402.9 47.864 1402.9 41.685C1402.9 35.673 1406.74 33.001 1411.75 33.001C1418.1 33.001 1425.61 41.685 1424.28 51.538C1427.11 52.373 1431.29 53.041 1435.13 53.041C1441.98 53.041 1448.82 50.87 1448.82 43.355Z" stroke="#F5AE20" stroke-width="3"/>
</svg>
