<svg width="139" height="30" viewBox="0 0 139 30" fill="none" xmlns="http://www.w3.org/2000/svg">
<mask id="path-1-outside-1_415_96" maskUnits="userSpaceOnUse" x="0.835938" y="0.395996" width="138" height="29" fill="black">
<rect fill="white" x="0.835938" y="0.395996" width="138" height="29"/>
<path d="M12.5279 28.216C10.5119 28.216 8.69994 27.844 7.09194 27.1C5.48394 26.356 4.19994 25.264 3.23994 23.824C2.30394 22.36 1.83594 20.596 1.83594 18.532C1.83594 17.092 2.08794 15.532 2.59194 13.852C3.69594 10.252 5.36394 7.66 7.59594 6.076C9.82794 4.468 12.2159 3.66399 14.7599 3.66399C16.1279 3.66399 17.3399 3.868 18.3959 4.276C19.4519 4.684 20.4239 5.272 21.3119 6.04L22.2839 5.284C22.9319 4.78 23.4719 4.432 23.9039 4.24C24.3599 4.048 24.8639 3.952 25.4159 3.952C26.0159 3.952 26.4959 4.084 26.8559 4.348C27.2159 4.612 27.3959 4.996 27.3959 5.5C27.3959 5.764 27.3479 6.028 27.2519 6.292L25.2359 11.908C25.0199 12.556 24.7559 13.012 24.4439 13.276C24.1559 13.54 23.7119 13.672 23.1119 13.672C22.4879 13.672 21.9719 13.456 21.5639 13.024C21.1799 12.568 20.7359 11.8 20.2319 10.72C19.6559 9.592 19.1879 8.848 18.8279 8.488C18.4679 8.128 17.9399 7.948 17.2439 7.948C16.2599 7.948 15.3119 8.56 14.3999 9.784C13.4879 10.984 12.6599 12.796 11.9159 15.22C11.2919 17.26 10.9799 18.964 10.9799 20.332C10.9799 21.532 11.2079 22.432 11.6639 23.032C12.1199 23.608 12.7319 23.896 13.4999 23.896C14.6279 23.896 15.5519 23.644 16.2719 23.14C17.0159 22.636 17.7719 21.952 18.5399 21.088C19.0199 20.56 19.4039 20.176 19.6919 19.936C20.0039 19.672 20.3279 19.54 20.6639 19.54C21.0959 19.54 21.5519 19.756 22.0319 20.188C22.5119 20.62 22.7399 21.052 22.7159 21.484C22.7399 22.012 22.3079 22.828 21.4199 23.932C20.5559 25.036 19.3439 26.032 17.7839 26.92C16.2479 27.784 14.4959 28.216 12.5279 28.216Z"/>
<path d="M49.8737 23.032C49.8257 23.128 49.8017 23.272 49.8017 23.464C49.8017 23.632 49.8377 23.764 49.9097 23.86C50.0057 23.956 50.1257 24.004 50.2697 24.004C50.5577 24.004 50.7977 23.884 50.9897 23.644C51.2057 23.38 51.3497 23.248 51.4217 23.248C51.5417 23.248 51.6377 23.332 51.7097 23.5C51.7817 23.644 51.8177 23.824 51.8177 24.04C51.8417 24.736 51.6137 25.42 51.1337 26.092C50.6537 26.74 49.9457 27.28 49.0097 27.712C48.0977 28.12 46.9937 28.324 45.6977 28.324C44.1137 28.324 42.8537 27.964 41.9177 27.244C40.9817 26.5 40.5017 25.516 40.4777 24.292C40.4777 23.404 40.6937 22.408 41.1257 21.304L43.1057 16.12C43.2257 15.808 43.2857 15.556 43.2857 15.364C43.2857 15.052 43.1777 14.812 42.9617 14.644C42.7697 14.452 42.5297 14.356 42.2417 14.356C41.7857 14.356 41.3177 14.572 40.8377 15.004C40.3817 15.412 40.0097 16.084 39.7217 17.02V16.948L37.4537 24.256C37.3817 24.544 37.3457 24.796 37.3457 25.012C37.3457 25.324 37.4057 25.576 37.5257 25.768C37.6457 25.936 37.8137 26.104 38.0297 26.272C38.1977 26.44 38.3177 26.584 38.3897 26.704C38.4617 26.8 38.4737 26.932 38.4257 27.1C38.3057 27.412 38.0657 27.64 37.7057 27.784C37.3457 27.928 36.7937 28 36.0497 28H27.8417C27.2177 28 26.7617 27.904 26.4737 27.712C26.1857 27.496 26.0897 27.22 26.1857 26.884C26.2817 26.596 26.5337 26.344 26.9417 26.128C27.3017 25.936 27.6017 25.708 27.8417 25.444C28.0817 25.18 28.2857 24.76 28.4537 24.184L33.9257 6.22C33.9977 6.004 34.0337 5.824 34.0337 5.68C34.0337 5.416 33.9617 5.2 33.8177 5.032C33.6977 4.864 33.5297 4.696 33.3137 4.528C33.0737 4.336 32.8937 4.168 32.7737 4.024C32.6777 3.88 32.6657 3.688 32.7377 3.448C32.8817 2.896 33.6377 2.416 35.0057 2.00799C36.3737 1.6 37.8017 1.396 39.2897 1.396C40.6817 1.396 41.7017 1.66 42.3497 2.188C43.0217 2.716 43.3577 3.436 43.3577 4.348C43.3577 4.876 43.2737 5.392 43.1057 5.896L41.1617 12.232C42.0977 11.008 43.0817 10.156 44.1137 9.676C45.1697 9.196 46.3097 8.956 47.5337 8.956C48.9977 8.956 50.1737 9.4 51.0617 10.288C51.9737 11.176 52.4297 12.328 52.4297 13.744C52.4297 14.488 52.3097 15.22 52.0697 15.94L49.8737 23.032Z"/>
<path d="M68.4483 8.776C71.4963 8.776 73.7043 9.268 75.0723 10.252C76.4403 11.212 77.1243 12.448 77.1243 13.96C77.1243 14.416 77.0763 14.836 76.9803 15.22C76.6203 16.804 75.6123 17.944 73.9563 18.64C72.3243 19.312 70.3923 19.648 68.1603 19.648C67.0323 19.648 65.9763 19.576 64.9923 19.432C64.9683 20.68 65.3043 21.556 66.0003 22.06C66.6963 22.564 67.6683 22.816 68.9163 22.816C69.4923 22.816 70.0443 22.756 70.5723 22.636C71.1003 22.492 71.7723 22.288 72.5883 22.024C73.2603 21.784 73.7163 21.664 73.9563 21.664C74.2203 21.664 74.3523 21.82 74.3523 22.132C74.3763 22.972 74.0643 23.86 73.4163 24.796C72.7683 25.708 71.8083 26.488 70.5363 27.136C69.2643 27.784 67.7283 28.108 65.9283 28.108C63.2643 28.108 61.0803 27.436 59.3763 26.092C57.6723 24.748 56.8203 22.792 56.8203 20.224C56.8203 19.504 56.9163 18.664 57.1083 17.704C57.7083 14.752 59.0163 12.532 61.0323 11.044C63.0723 9.532 65.5443 8.776 68.4483 8.776ZM65.2443 17.272C65.3403 17.296 65.4723 17.308 65.6403 17.308C66.6483 17.308 67.4163 16.84 67.9443 15.904C68.4723 14.968 68.7243 13.924 68.7003 12.772C68.6763 12.1 68.4843 11.764 68.1243 11.764C67.8603 11.764 67.5483 11.98 67.1883 12.412C66.8283 12.82 66.4683 13.444 66.1083 14.284C65.7723 15.124 65.4843 16.12 65.2443 17.272Z"/>
<path d="M113.073 14.068C113.073 16.204 112.329 18.388 110.841 20.62C109.353 22.852 107.469 24.7 105.189 26.164C102.933 27.604 100.713 28.324 98.5288 28.324C96.8008 28.324 95.3368 28.024 94.1368 27.424C92.9368 26.824 92.1568 25.96 91.7968 24.832C90.9088 25.912 89.9248 26.728 88.8448 27.28C87.7648 27.832 86.6368 28.108 85.4608 28.108C83.8288 28.108 82.4968 27.712 81.4648 26.92C80.4568 26.104 79.9528 24.916 79.9528 23.356C79.9528 22.54 80.0848 21.7 80.3488 20.836L82.3648 13.78C82.4128 13.588 82.4368 13.444 82.4368 13.348C82.4368 13.108 82.3768 12.904 82.2568 12.736C82.1368 12.568 81.9688 12.388 81.7528 12.196C81.3928 11.884 81.2128 11.608 81.2128 11.368C81.1888 11.032 81.3928 10.672 81.8248 10.288C82.2568 9.904 82.8568 9.592 83.6248 9.352C84.4168 9.088 85.3048 8.956 86.2888 8.956C87.8968 8.956 89.1448 9.352 90.0328 10.144C90.9448 10.912 91.4008 11.92 91.4008 13.168C91.4008 13.72 91.3048 14.32 91.1128 14.968L89.2768 21.088C89.1808 21.424 89.1328 21.652 89.1328 21.772C89.1328 22.084 89.2168 22.324 89.3848 22.492C89.5768 22.66 89.8288 22.744 90.1408 22.744C90.5728 22.744 90.9328 22.6 91.2208 22.312C91.5328 22 91.8328 21.508 92.1208 20.836L94.1728 13.78C94.2208 13.588 94.2448 13.444 94.2448 13.348C94.2448 13.108 94.1848 12.904 94.0648 12.736C93.9448 12.568 93.7768 12.388 93.5608 12.196C93.2008 11.884 93.0208 11.608 93.0208 11.368C92.9968 11.032 93.2008 10.672 93.6328 10.288C94.0648 9.904 94.6648 9.592 95.4328 9.352C96.2248 9.088 97.1128 8.956 98.0968 8.956C99.7288 8.956 100.989 9.34 101.877 10.108C102.765 10.876 103.209 11.896 103.209 13.168C103.209 13.672 103.113 14.272 102.921 14.968L100.581 22.672C100.533 22.792 100.509 22.972 100.509 23.212C100.509 23.524 100.617 23.764 100.833 23.932C101.049 24.1 101.349 24.184 101.733 24.184C102.261 24.184 102.873 23.956 103.569 23.5C104.289 23.02 104.985 22.348 105.657 21.484C106.353 20.596 106.917 19.552 107.349 18.352C106.389 17.512 105.705 16.684 105.297 15.868C104.913 15.052 104.721 14.212 104.721 13.348C104.721 12.124 105.057 11.092 105.729 10.252C106.401 9.388 107.373 8.956 108.645 8.956C109.917 8.956 110.973 9.412 111.813 10.324C112.653 11.236 113.073 12.484 113.073 14.068Z"/>
<path d="M128.364 8.956C131.124 8.956 133.332 9.472 134.988 10.504C136.644 11.512 137.472 13.06 137.472 15.148C137.472 15.94 137.328 16.84 137.04 17.848L135.564 22.816C135.54 22.912 135.528 23.032 135.528 23.176C135.528 23.56 135.684 23.752 135.996 23.752C136.284 23.752 136.524 23.632 136.716 23.392C136.932 23.128 137.076 22.996 137.148 22.996C137.268 22.996 137.364 23.08 137.436 23.248C137.532 23.416 137.58 23.608 137.58 23.824C137.604 24.472 137.352 25.132 136.824 25.804C136.32 26.476 135.636 27.028 134.772 27.46C133.908 27.892 132.96 28.108 131.928 28.108C130.68 28.108 129.612 27.88 128.724 27.424C127.836 26.968 127.224 26.296 126.888 25.408C126.168 26.272 125.316 26.944 124.332 27.424C123.348 27.88 122.292 28.108 121.164 28.108C119.892 28.108 118.824 27.868 117.96 27.388C117.096 26.884 116.448 26.248 116.016 25.48C115.608 24.688 115.404 23.86 115.404 22.996C115.404 22.612 115.44 22.24 115.512 21.88C115.896 20.224 116.724 18.976 117.996 18.136C119.292 17.296 120.828 16.876 122.604 16.876C124.596 16.876 126.552 17.188 128.472 17.812L129.372 15.436C129.684 14.428 129.84 13.648 129.84 13.096C129.816 12.52 129.624 12.088 129.264 11.8C128.904 11.512 128.352 11.368 127.608 11.368C127.752 11.752 127.824 12.148 127.824 12.556C127.824 13.444 127.488 14.212 126.816 14.86C126.144 15.508 125.184 15.832 123.936 15.832C122.76 15.832 121.836 15.58 121.164 15.076C120.516 14.548 120.192 13.9 120.192 13.132C120.192 11.932 120.864 10.936 122.208 10.144C123.552 9.352 125.604 8.956 128.364 8.956ZM126.348 19.864C125.676 19.864 125.124 20.128 124.692 20.656C124.284 21.16 124.08 21.712 124.08 22.312C124.08 22.696 124.164 23.008 124.332 23.248C124.524 23.488 124.788 23.608 125.124 23.608C125.436 23.608 125.772 23.488 126.132 23.248C126.516 22.984 126.792 22.6 126.96 22.096L127.716 19.972C127.308 19.9 126.852 19.864 126.348 19.864Z"/>
</mask>
<path d="M12.5279 28.216C10.5119 28.216 8.69994 27.844 7.09194 27.1C5.48394 26.356 4.19994 25.264 3.23994 23.824C2.30394 22.36 1.83594 20.596 1.83594 18.532C1.83594 17.092 2.08794 15.532 2.59194 13.852C3.69594 10.252 5.36394 7.66 7.59594 6.076C9.82794 4.468 12.2159 3.66399 14.7599 3.66399C16.1279 3.66399 17.3399 3.868 18.3959 4.276C19.4519 4.684 20.4239 5.272 21.3119 6.04L22.2839 5.284C22.9319 4.78 23.4719 4.432 23.9039 4.24C24.3599 4.048 24.8639 3.952 25.4159 3.952C26.0159 3.952 26.4959 4.084 26.8559 4.348C27.2159 4.612 27.3959 4.996 27.3959 5.5C27.3959 5.764 27.3479 6.028 27.2519 6.292L25.2359 11.908C25.0199 12.556 24.7559 13.012 24.4439 13.276C24.1559 13.54 23.7119 13.672 23.1119 13.672C22.4879 13.672 21.9719 13.456 21.5639 13.024C21.1799 12.568 20.7359 11.8 20.2319 10.72C19.6559 9.592 19.1879 8.848 18.8279 8.488C18.4679 8.128 17.9399 7.948 17.2439 7.948C16.2599 7.948 15.3119 8.56 14.3999 9.784C13.4879 10.984 12.6599 12.796 11.9159 15.22C11.2919 17.26 10.9799 18.964 10.9799 20.332C10.9799 21.532 11.2079 22.432 11.6639 23.032C12.1199 23.608 12.7319 23.896 13.4999 23.896C14.6279 23.896 15.5519 23.644 16.2719 23.14C17.0159 22.636 17.7719 21.952 18.5399 21.088C19.0199 20.56 19.4039 20.176 19.6919 19.936C20.0039 19.672 20.3279 19.54 20.6639 19.54C21.0959 19.54 21.5519 19.756 22.0319 20.188C22.5119 20.62 22.7399 21.052 22.7159 21.484C22.7399 22.012 22.3079 22.828 21.4199 23.932C20.5559 25.036 19.3439 26.032 17.7839 26.92C16.2479 27.784 14.4959 28.216 12.5279 28.216Z" stroke="white" stroke-width="2" mask="url(#path-1-outside-1_415_96)"/>
<path d="M49.8737 23.032C49.8257 23.128 49.8017 23.272 49.8017 23.464C49.8017 23.632 49.8377 23.764 49.9097 23.86C50.0057 23.956 50.1257 24.004 50.2697 24.004C50.5577 24.004 50.7977 23.884 50.9897 23.644C51.2057 23.38 51.3497 23.248 51.4217 23.248C51.5417 23.248 51.6377 23.332 51.7097 23.5C51.7817 23.644 51.8177 23.824 51.8177 24.04C51.8417 24.736 51.6137 25.42 51.1337 26.092C50.6537 26.74 49.9457 27.28 49.0097 27.712C48.0977 28.12 46.9937 28.324 45.6977 28.324C44.1137 28.324 42.8537 27.964 41.9177 27.244C40.9817 26.5 40.5017 25.516 40.4777 24.292C40.4777 23.404 40.6937 22.408 41.1257 21.304L43.1057 16.12C43.2257 15.808 43.2857 15.556 43.2857 15.364C43.2857 15.052 43.1777 14.812 42.9617 14.644C42.7697 14.452 42.5297 14.356 42.2417 14.356C41.7857 14.356 41.3177 14.572 40.8377 15.004C40.3817 15.412 40.0097 16.084 39.7217 17.02V16.948L37.4537 24.256C37.3817 24.544 37.3457 24.796 37.3457 25.012C37.3457 25.324 37.4057 25.576 37.5257 25.768C37.6457 25.936 37.8137 26.104 38.0297 26.272C38.1977 26.44 38.3177 26.584 38.3897 26.704C38.4617 26.8 38.4737 26.932 38.4257 27.1C38.3057 27.412 38.0657 27.64 37.7057 27.784C37.3457 27.928 36.7937 28 36.0497 28H27.8417C27.2177 28 26.7617 27.904 26.4737 27.712C26.1857 27.496 26.0897 27.22 26.1857 26.884C26.2817 26.596 26.5337 26.344 26.9417 26.128C27.3017 25.936 27.6017 25.708 27.8417 25.444C28.0817 25.18 28.2857 24.76 28.4537 24.184L33.9257 6.22C33.9977 6.004 34.0337 5.824 34.0337 5.68C34.0337 5.416 33.9617 5.2 33.8177 5.032C33.6977 4.864 33.5297 4.696 33.3137 4.528C33.0737 4.336 32.8937 4.168 32.7737 4.024C32.6777 3.88 32.6657 3.688 32.7377 3.448C32.8817 2.896 33.6377 2.416 35.0057 2.00799C36.3737 1.6 37.8017 1.396 39.2897 1.396C40.6817 1.396 41.7017 1.66 42.3497 2.188C43.0217 2.716 43.3577 3.436 43.3577 4.348C43.3577 4.876 43.2737 5.392 43.1057 5.896L41.1617 12.232C42.0977 11.008 43.0817 10.156 44.1137 9.676C45.1697 9.196 46.3097 8.956 47.5337 8.956C48.9977 8.956 50.1737 9.4 51.0617 10.288C51.9737 11.176 52.4297 12.328 52.4297 13.744C52.4297 14.488 52.3097 15.22 52.0697 15.94L49.8737 23.032Z" stroke="white" stroke-width="2" mask="url(#path-1-outside-1_415_96)"/>
<path d="M68.4483 8.776C71.4963 8.776 73.7043 9.268 75.0723 10.252C76.4403 11.212 77.1243 12.448 77.1243 13.96C77.1243 14.416 77.0763 14.836 76.9803 15.22C76.6203 16.804 75.6123 17.944 73.9563 18.64C72.3243 19.312 70.3923 19.648 68.1603 19.648C67.0323 19.648 65.9763 19.576 64.9923 19.432C64.9683 20.68 65.3043 21.556 66.0003 22.06C66.6963 22.564 67.6683 22.816 68.9163 22.816C69.4923 22.816 70.0443 22.756 70.5723 22.636C71.1003 22.492 71.7723 22.288 72.5883 22.024C73.2603 21.784 73.7163 21.664 73.9563 21.664C74.2203 21.664 74.3523 21.82 74.3523 22.132C74.3763 22.972 74.0643 23.86 73.4163 24.796C72.7683 25.708 71.8083 26.488 70.5363 27.136C69.2643 27.784 67.7283 28.108 65.9283 28.108C63.2643 28.108 61.0803 27.436 59.3763 26.092C57.6723 24.748 56.8203 22.792 56.8203 20.224C56.8203 19.504 56.9163 18.664 57.1083 17.704C57.7083 14.752 59.0163 12.532 61.0323 11.044C63.0723 9.532 65.5443 8.776 68.4483 8.776ZM65.2443 17.272C65.3403 17.296 65.4723 17.308 65.6403 17.308C66.6483 17.308 67.4163 16.84 67.9443 15.904C68.4723 14.968 68.7243 13.924 68.7003 12.772C68.6763 12.1 68.4843 11.764 68.1243 11.764C67.8603 11.764 67.5483 11.98 67.1883 12.412C66.8283 12.82 66.4683 13.444 66.1083 14.284C65.7723 15.124 65.4843 16.12 65.2443 17.272Z" stroke="white" stroke-width="2" mask="url(#path-1-outside-1_415_96)"/>
<path d="M113.073 14.068C113.073 16.204 112.329 18.388 110.841 20.62C109.353 22.852 107.469 24.7 105.189 26.164C102.933 27.604 100.713 28.324 98.5288 28.324C96.8008 28.324 95.3368 28.024 94.1368 27.424C92.9368 26.824 92.1568 25.96 91.7968 24.832C90.9088 25.912 89.9248 26.728 88.8448 27.28C87.7648 27.832 86.6368 28.108 85.4608 28.108C83.8288 28.108 82.4968 27.712 81.4648 26.92C80.4568 26.104 79.9528 24.916 79.9528 23.356C79.9528 22.54 80.0848 21.7 80.3488 20.836L82.3648 13.78C82.4128 13.588 82.4368 13.444 82.4368 13.348C82.4368 13.108 82.3768 12.904 82.2568 12.736C82.1368 12.568 81.9688 12.388 81.7528 12.196C81.3928 11.884 81.2128 11.608 81.2128 11.368C81.1888 11.032 81.3928 10.672 81.8248 10.288C82.2568 9.904 82.8568 9.592 83.6248 9.352C84.4168 9.088 85.3048 8.956 86.2888 8.956C87.8968 8.956 89.1448 9.352 90.0328 10.144C90.9448 10.912 91.4008 11.92 91.4008 13.168C91.4008 13.72 91.3048 14.32 91.1128 14.968L89.2768 21.088C89.1808 21.424 89.1328 21.652 89.1328 21.772C89.1328 22.084 89.2168 22.324 89.3848 22.492C89.5768 22.66 89.8288 22.744 90.1408 22.744C90.5728 22.744 90.9328 22.6 91.2208 22.312C91.5328 22 91.8328 21.508 92.1208 20.836L94.1728 13.78C94.2208 13.588 94.2448 13.444 94.2448 13.348C94.2448 13.108 94.1848 12.904 94.0648 12.736C93.9448 12.568 93.7768 12.388 93.5608 12.196C93.2008 11.884 93.0208 11.608 93.0208 11.368C92.9968 11.032 93.2008 10.672 93.6328 10.288C94.0648 9.904 94.6648 9.592 95.4328 9.352C96.2248 9.088 97.1128 8.956 98.0968 8.956C99.7288 8.956 100.989 9.34 101.877 10.108C102.765 10.876 103.209 11.896 103.209 13.168C103.209 13.672 103.113 14.272 102.921 14.968L100.581 22.672C100.533 22.792 100.509 22.972 100.509 23.212C100.509 23.524 100.617 23.764 100.833 23.932C101.049 24.1 101.349 24.184 101.733 24.184C102.261 24.184 102.873 23.956 103.569 23.5C104.289 23.02 104.985 22.348 105.657 21.484C106.353 20.596 106.917 19.552 107.349 18.352C106.389 17.512 105.705 16.684 105.297 15.868C104.913 15.052 104.721 14.212 104.721 13.348C104.721 12.124 105.057 11.092 105.729 10.252C106.401 9.388 107.373 8.956 108.645 8.956C109.917 8.956 110.973 9.412 111.813 10.324C112.653 11.236 113.073 12.484 113.073 14.068Z" stroke="white" stroke-width="2" mask="url(#path-1-outside-1_415_96)"/>
<path d="M128.364 8.956C131.124 8.956 133.332 9.472 134.988 10.504C136.644 11.512 137.472 13.06 137.472 15.148C137.472 15.94 137.328 16.84 137.04 17.848L135.564 22.816C135.54 22.912 135.528 23.032 135.528 23.176C135.528 23.56 135.684 23.752 135.996 23.752C136.284 23.752 136.524 23.632 136.716 23.392C136.932 23.128 137.076 22.996 137.148 22.996C137.268 22.996 137.364 23.08 137.436 23.248C137.532 23.416 137.58 23.608 137.58 23.824C137.604 24.472 137.352 25.132 136.824 25.804C136.32 26.476 135.636 27.028 134.772 27.46C133.908 27.892 132.96 28.108 131.928 28.108C130.68 28.108 129.612 27.88 128.724 27.424C127.836 26.968 127.224 26.296 126.888 25.408C126.168 26.272 125.316 26.944 124.332 27.424C123.348 27.88 122.292 28.108 121.164 28.108C119.892 28.108 118.824 27.868 117.96 27.388C117.096 26.884 116.448 26.248 116.016 25.48C115.608 24.688 115.404 23.86 115.404 22.996C115.404 22.612 115.44 22.24 115.512 21.88C115.896 20.224 116.724 18.976 117.996 18.136C119.292 17.296 120.828 16.876 122.604 16.876C124.596 16.876 126.552 17.188 128.472 17.812L129.372 15.436C129.684 14.428 129.84 13.648 129.84 13.096C129.816 12.52 129.624 12.088 129.264 11.8C128.904 11.512 128.352 11.368 127.608 11.368C127.752 11.752 127.824 12.148 127.824 12.556C127.824 13.444 127.488 14.212 126.816 14.86C126.144 15.508 125.184 15.832 123.936 15.832C122.76 15.832 121.836 15.58 121.164 15.076C120.516 14.548 120.192 13.9 120.192 13.132C120.192 11.932 120.864 10.936 122.208 10.144C123.552 9.352 125.604 8.956 128.364 8.956ZM126.348 19.864C125.676 19.864 125.124 20.128 124.692 20.656C124.284 21.16 124.08 21.712 124.08 22.312C124.08 22.696 124.164 23.008 124.332 23.248C124.524 23.488 124.788 23.608 125.124 23.608C125.436 23.608 125.772 23.488 126.132 23.248C126.516 22.984 126.792 22.6 126.96 22.096L127.716 19.972C127.308 19.9 126.852 19.864 126.348 19.864Z" stroke="white" stroke-width="2" mask="url(#path-1-outside-1_415_96)"/>
</svg>
