<svg width="1083" height="380" viewBox="0 0 1083 380" fill="none" xmlns="http://www.w3.org/2000/svg">
<circle cx="96.3354" cy="91.8452" r="91.4595" fill="#112E45"/>
<ellipse cx="76.8181" cy="304.293" rx="76.1765" ry="74.8249" fill="#33691E"/>
<path d="M47.1611 309.293L49.3721 297.918H50.4971L48.2783 309.293H47.1611ZM50.3408 309.293L52.5596 297.918H53.6768L51.458 309.293H50.3408ZM54.6299 302.254H46.5049V301.168H54.6299V302.254ZM54.0439 306.09H45.9111V305.012H54.0439V306.09ZM57.8955 302.895H58.9268C59.432 302.895 59.8486 302.811 60.1768 302.645C60.5101 302.473 60.7575 302.241 60.9189 301.949C61.0856 301.652 61.1689 301.319 61.1689 300.949C61.1689 300.512 61.096 300.145 60.9502 299.848C60.8044 299.551 60.5856 299.327 60.2939 299.176C60.0023 299.025 59.6325 298.949 59.1846 298.949C58.7783 298.949 58.4189 299.03 58.1064 299.191C57.7992 299.348 57.557 299.572 57.3799 299.863C57.208 300.155 57.1221 300.499 57.1221 300.895H55.6768C55.6768 300.316 55.8226 299.79 56.1143 299.316C56.4059 298.842 56.8148 298.465 57.3408 298.184C57.8721 297.902 58.4867 297.762 59.1846 297.762C59.8721 297.762 60.4736 297.884 60.9893 298.129C61.5049 298.368 61.9059 298.728 62.1924 299.207C62.4788 299.681 62.6221 300.272 62.6221 300.98C62.6221 301.267 62.5544 301.574 62.4189 301.902C62.2887 302.225 62.083 302.527 61.8018 302.809C61.5257 303.09 61.1663 303.322 60.7236 303.504C60.2809 303.681 59.7497 303.77 59.1299 303.77H57.8955V302.895ZM57.8955 304.082V303.215H59.1299C59.8538 303.215 60.4528 303.301 60.9268 303.473C61.4007 303.645 61.7731 303.874 62.0439 304.16C62.32 304.447 62.5127 304.762 62.6221 305.105C62.7367 305.444 62.7939 305.783 62.7939 306.121C62.7939 306.652 62.7028 307.124 62.5205 307.535C62.3434 307.947 62.0908 308.296 61.7627 308.582C61.4398 308.868 61.0596 309.085 60.6221 309.23C60.1846 309.376 59.708 309.449 59.1924 309.449C58.6976 309.449 58.2314 309.379 57.7939 309.238C57.3617 309.098 56.9788 308.895 56.6455 308.629C56.3122 308.358 56.0518 308.027 55.8643 307.637C55.6768 307.241 55.583 306.79 55.583 306.285H57.0283C57.0283 306.681 57.1143 307.027 57.2861 307.324C57.4632 307.621 57.7132 307.853 58.0361 308.02C58.3643 308.181 58.7497 308.262 59.1924 308.262C59.6351 308.262 60.0153 308.186 60.333 308.035C60.6559 307.879 60.9033 307.645 61.0752 307.332C61.2523 307.02 61.3408 306.626 61.3408 306.152C61.3408 305.678 61.2419 305.29 61.0439 304.988C60.846 304.681 60.5648 304.454 60.2002 304.309C59.8408 304.158 59.4163 304.082 58.9268 304.082H57.8955ZM66.8955 302.895H67.9268C68.432 302.895 68.8486 302.811 69.1768 302.645C69.5101 302.473 69.7575 302.241 69.9189 301.949C70.0856 301.652 70.1689 301.319 70.1689 300.949C70.1689 300.512 70.096 300.145 69.9502 299.848C69.8044 299.551 69.5856 299.327 69.2939 299.176C69.0023 299.025 68.6325 298.949 68.1846 298.949C67.7783 298.949 67.4189 299.03 67.1064 299.191C66.7992 299.348 66.557 299.572 66.3799 299.863C66.208 300.155 66.1221 300.499 66.1221 300.895H64.6768C64.6768 300.316 64.8226 299.79 65.1143 299.316C65.4059 298.842 65.8148 298.465 66.3408 298.184C66.8721 297.902 67.4867 297.762 68.1846 297.762C68.8721 297.762 69.4736 297.884 69.9893 298.129C70.5049 298.368 70.9059 298.728 71.1924 299.207C71.4788 299.681 71.6221 300.272 71.6221 300.98C71.6221 301.267 71.5544 301.574 71.4189 301.902C71.2887 302.225 71.083 302.527 70.8018 302.809C70.5257 303.09 70.1663 303.322 69.7236 303.504C69.2809 303.681 68.7497 303.77 68.1299 303.77H66.8955V302.895ZM66.8955 304.082V303.215H68.1299C68.8538 303.215 69.4528 303.301 69.9268 303.473C70.4007 303.645 70.7731 303.874 71.0439 304.16C71.32 304.447 71.5127 304.762 71.6221 305.105C71.7367 305.444 71.7939 305.783 71.7939 306.121C71.7939 306.652 71.7028 307.124 71.5205 307.535C71.3434 307.947 71.0908 308.296 70.7627 308.582C70.4398 308.868 70.0596 309.085 69.6221 309.23C69.1846 309.376 68.708 309.449 68.1924 309.449C67.6976 309.449 67.2314 309.379 66.7939 309.238C66.3617 309.098 65.9788 308.895 65.6455 308.629C65.3122 308.358 65.0518 308.027 64.8643 307.637C64.6768 307.241 64.583 306.79 64.583 306.285H66.0283C66.0283 306.681 66.1143 307.027 66.2861 307.324C66.4632 307.621 66.7132 307.853 67.0361 308.02C67.3643 308.181 67.7497 308.262 68.1924 308.262C68.6351 308.262 69.0153 308.186 69.333 308.035C69.6559 307.879 69.9033 307.645 70.0752 307.332C70.2523 307.02 70.3408 306.626 70.3408 306.152C70.3408 305.678 70.2419 305.29 70.0439 304.988C69.846 304.681 69.5648 304.454 69.2002 304.309C68.8408 304.158 68.4163 304.082 67.9268 304.082H66.8955ZM79.333 297.902H79.458V299.129H79.333C78.5674 299.129 77.9268 299.254 77.4111 299.504C76.8955 299.749 76.4867 300.079 76.1846 300.496C75.8825 300.908 75.6637 301.371 75.5283 301.887C75.3981 302.402 75.333 302.926 75.333 303.457V305.129C75.333 305.634 75.3929 306.082 75.5127 306.473C75.6325 306.858 75.7965 307.184 76.0049 307.449C76.2132 307.715 76.4476 307.915 76.708 308.051C76.9736 308.186 77.2497 308.254 77.5361 308.254C77.8695 308.254 78.1663 308.191 78.4268 308.066C78.6872 307.936 78.9059 307.757 79.083 307.527C79.2653 307.293 79.4033 307.017 79.4971 306.699C79.5908 306.382 79.6377 306.033 79.6377 305.652C79.6377 305.314 79.596 304.988 79.5127 304.676C79.4294 304.358 79.3018 304.077 79.1299 303.832C78.958 303.582 78.7419 303.387 78.4814 303.246C78.2262 303.1 77.9215 303.027 77.5674 303.027C77.1663 303.027 76.7913 303.126 76.4424 303.324C76.0986 303.517 75.8148 303.772 75.5908 304.09C75.3721 304.402 75.2471 304.743 75.2158 305.113L74.4502 305.105C74.5231 304.522 74.6585 304.025 74.8564 303.613C75.0596 303.197 75.3096 302.858 75.6064 302.598C75.9085 302.332 76.2445 302.139 76.6143 302.02C76.9893 301.895 77.3851 301.832 77.8018 301.832C78.3695 301.832 78.859 301.939 79.2705 302.152C79.682 302.366 80.0205 302.652 80.2861 303.012C80.5518 303.366 80.7471 303.767 80.8721 304.215C81.0023 304.658 81.0674 305.113 81.0674 305.582C81.0674 306.118 80.9919 306.621 80.8408 307.09C80.6898 307.559 80.4632 307.97 80.1611 308.324C79.8643 308.678 79.4971 308.954 79.0596 309.152C78.6221 309.35 78.1143 309.449 77.5361 309.449C76.9215 309.449 76.3851 309.324 75.9268 309.074C75.4684 308.819 75.0882 308.48 74.7861 308.059C74.484 307.637 74.2575 307.168 74.1064 306.652C73.9554 306.137 73.8799 305.613 73.8799 305.082V304.402C73.8799 303.6 73.9606 302.814 74.1221 302.043C74.2835 301.272 74.5622 300.574 74.958 299.949C75.359 299.324 75.9137 298.827 76.6221 298.457C77.3304 298.087 78.234 297.902 79.333 297.902ZM84.2236 308.082H84.3721C85.2054 308.082 85.8825 307.965 86.4033 307.73C86.9242 307.496 87.3252 307.181 87.6064 306.785C87.8877 306.389 88.0804 305.944 88.1846 305.449C88.2887 304.949 88.3408 304.436 88.3408 303.91V302.168C88.3408 301.652 88.2809 301.194 88.1611 300.793C88.0465 300.392 87.8851 300.056 87.6768 299.785C87.4736 299.514 87.2419 299.309 86.9814 299.168C86.721 299.027 86.445 298.957 86.1533 298.957C85.82 298.957 85.5205 299.025 85.2549 299.16C84.9945 299.29 84.7731 299.475 84.5908 299.715C84.4137 299.954 84.2783 300.236 84.1846 300.559C84.0908 300.882 84.0439 301.233 84.0439 301.613C84.0439 301.952 84.0856 302.28 84.1689 302.598C84.2523 302.915 84.3799 303.202 84.5518 303.457C84.7236 303.712 84.9372 303.915 85.1924 304.066C85.4528 304.212 85.7575 304.285 86.1064 304.285C86.4294 304.285 86.7314 304.223 87.0127 304.098C87.2992 303.967 87.5518 303.793 87.7705 303.574C87.9945 303.35 88.1715 303.098 88.3018 302.816C88.4372 302.535 88.5153 302.241 88.5361 301.934H89.2236C89.2236 302.366 89.1377 302.793 88.9658 303.215C88.7992 303.632 88.5648 304.012 88.2627 304.355C87.9606 304.699 87.6064 304.975 87.2002 305.184C86.7939 305.387 86.3512 305.488 85.8721 305.488C85.3096 305.488 84.8226 305.379 84.4111 305.16C83.9997 304.941 83.6611 304.65 83.3955 304.285C83.1351 303.921 82.9398 303.514 82.8096 303.066C82.6846 302.613 82.6221 302.155 82.6221 301.691C82.6221 301.15 82.6976 300.642 82.8486 300.168C82.9997 299.694 83.2236 299.277 83.5205 298.918C83.8174 298.553 84.1846 298.27 84.6221 298.066C85.0648 297.863 85.5752 297.762 86.1533 297.762C86.8044 297.762 87.359 297.892 87.8174 298.152C88.2757 298.413 88.6481 298.762 88.9346 299.199C89.2262 299.637 89.4398 300.129 89.5752 300.676C89.7106 301.223 89.7783 301.785 89.7783 302.363V302.887C89.7783 303.475 89.7393 304.074 89.6611 304.684C89.5882 305.288 89.445 305.866 89.2314 306.418C89.0231 306.97 88.7184 307.465 88.3174 307.902C87.9163 308.335 87.3929 308.678 86.7471 308.934C86.1064 309.184 85.3148 309.309 84.3721 309.309H84.2236V308.082ZM96.5361 297.855V309.293H95.0908V299.66L92.1768 300.723V299.418L96.3096 297.855H96.5361ZM108.388 308.066V309.293H102.364V308.066H108.388ZM102.669 297.918V309.293H101.161V297.918H102.669ZM107.591 302.809V304.035H102.364V302.809H107.591ZM108.31 297.918V299.152H102.364V297.918H108.31Z" fill="#252424"/>
<ellipse cx="990.623" cy="90.2225" rx="91.4595" ry="89.8368" fill="#FF1546"/>
<path d="M960.803 98.2227L963.014 86.8477H964.139L961.92 98.2227H960.803ZM963.982 98.2227L966.201 86.8477H967.318L965.1 98.2227H963.982ZM968.271 91.1836H960.146V90.0977H968.271V91.1836ZM967.686 95.0195H959.553V93.9414H967.686V95.0195ZM971.311 86.8477V98.2227H969.803V86.8477H971.311ZM976.076 91.9648V93.1992H970.982V91.9648H976.076ZM976.85 86.8477V88.082H970.982V86.8477H976.85ZM980.154 86.8477V98.2227H978.646V86.8477H980.154ZM984.92 91.9648V93.1992H979.826V91.9648H984.92ZM985.693 86.8477V88.082H979.826V86.8477H985.693ZM991.865 86.7852V98.2227H990.42V88.5898L987.506 89.6523V88.3477L991.639 86.7852H991.865ZM997.943 92.8086L996.787 92.5117L997.357 86.8477H1003.19V88.1836H998.584L998.24 91.2773C998.449 91.1576 998.712 91.0456 999.029 90.9414C999.352 90.8372 999.722 90.7852 1000.14 90.7852C1000.66 90.7852 1001.14 90.8763 1001.55 91.0586C1001.97 91.2357 1002.32 91.4909 1002.62 91.8242C1002.91 92.1576 1003.14 92.5586 1003.29 93.0273C1003.45 93.4961 1003.53 94.0195 1003.53 94.5977C1003.53 95.1445 1003.45 95.6471 1003.3 96.1055C1003.16 96.5638 1002.94 96.9648 1002.64 97.3086C1002.34 97.6471 1001.97 97.9102 1001.51 98.0977C1001.07 98.2852 1000.54 98.3789 999.928 98.3789C999.469 98.3789 999.035 98.3164 998.623 98.1914C998.217 98.0612 997.852 97.8659 997.529 97.6055C997.212 97.3398 996.951 97.0117 996.748 96.6211C996.55 96.2253 996.425 95.7617 996.373 95.2305H997.748C997.811 95.6576 997.936 96.0169 998.123 96.3086C998.311 96.6003 998.555 96.8216 998.857 96.9727C999.165 97.1185 999.521 97.1914 999.928 97.1914C1000.27 97.1914 1000.58 97.1315 1000.84 97.0117C1001.11 96.8919 1001.33 96.7201 1001.51 96.4961C1001.7 96.2721 1001.83 96.0013 1001.93 95.6836C1002.03 95.3659 1002.08 95.0091 1002.08 94.6133C1002.08 94.2539 1002.03 93.9206 1001.93 93.6133C1001.83 93.306 1001.68 93.0378 1001.48 92.8086C1001.29 92.5794 1001.05 92.4023 1000.77 92.2773C1000.49 92.1471 1000.17 92.082 999.803 92.082C999.318 92.082 998.951 92.1471 998.701 92.2773C998.456 92.4076 998.204 92.5846 997.943 92.8086ZM1012.8 94.3945V95.582H1004.58V94.7305L1009.68 86.8477H1010.86L1009.59 89.1289L1006.22 94.3945H1012.8ZM1011.22 86.8477V98.2227H1009.77V86.8477H1011.22ZM1019.66 86.832H1019.79V88.0586H1019.66C1018.9 88.0586 1018.26 88.1836 1017.74 88.4336C1017.22 88.6784 1016.82 89.0091 1016.51 89.4258C1016.21 89.8372 1015.99 90.3008 1015.86 90.8164C1015.73 91.332 1015.66 91.8555 1015.66 92.3867V94.0586C1015.66 94.5638 1015.72 95.0117 1015.84 95.4023C1015.96 95.7878 1016.13 96.1133 1016.33 96.3789C1016.54 96.6445 1016.78 96.8451 1017.04 96.9805C1017.3 97.1159 1017.58 97.1836 1017.87 97.1836C1018.2 97.1836 1018.5 97.1211 1018.76 96.9961C1019.02 96.8659 1019.24 96.6862 1019.41 96.457C1019.59 96.2227 1019.73 95.9466 1019.83 95.6289C1019.92 95.3112 1019.97 94.9622 1019.97 94.582C1019.97 94.2435 1019.93 93.918 1019.84 93.6055C1019.76 93.2878 1019.63 93.0065 1019.46 92.7617C1019.29 92.5117 1019.07 92.3164 1018.81 92.1758C1018.56 92.0299 1018.25 91.957 1017.9 91.957C1017.5 91.957 1017.12 92.056 1016.77 92.2539C1016.43 92.4466 1016.14 92.7018 1015.92 93.0195C1015.7 93.332 1015.58 93.6732 1015.54 94.043L1014.78 94.0352C1014.85 93.4518 1014.99 92.9544 1015.19 92.543C1015.39 92.1263 1015.64 91.7878 1015.94 91.5273C1016.24 91.2617 1016.57 91.069 1016.94 90.9492C1017.32 90.8242 1017.71 90.7617 1018.13 90.7617C1018.7 90.7617 1019.19 90.8685 1019.6 91.082C1020.01 91.2956 1020.35 91.582 1020.62 91.9414C1020.88 92.2956 1021.08 92.6966 1021.2 93.1445C1021.33 93.5872 1021.4 94.043 1021.4 94.5117C1021.4 95.0482 1021.32 95.5508 1021.17 96.0195C1021.02 96.4883 1020.79 96.8997 1020.49 97.2539C1020.19 97.6081 1019.83 97.8841 1019.39 98.082C1018.95 98.2799 1018.44 98.3789 1017.87 98.3789C1017.25 98.3789 1016.71 98.2539 1016.26 98.0039C1015.8 97.7487 1015.42 97.4102 1015.12 96.9883C1014.81 96.5664 1014.59 96.0977 1014.44 95.582C1014.28 95.0664 1014.21 94.543 1014.21 94.0117V93.332C1014.21 92.5299 1014.29 91.7435 1014.45 90.9727C1014.61 90.2018 1014.89 89.5039 1015.29 88.8789C1015.69 88.2539 1016.24 87.7565 1016.95 87.3867C1017.66 87.0169 1018.56 86.832 1019.66 86.832Z" fill="#960505"/>
<ellipse cx="821.669" cy="304.293" rx="76.1765" ry="74.8249" fill="#FB8C00"/>
<path d="M792.161 309.293L794.372 297.918H795.497L793.278 309.293H792.161ZM795.341 309.293L797.56 297.918H798.677L796.458 309.293H795.341ZM799.63 302.254H791.505V301.168H799.63V302.254ZM799.044 306.09H790.911V305.012H799.044V306.09ZM802.669 297.918V309.293H801.161V297.918H802.669ZM807.435 303.035V304.27H802.341V303.035H807.435ZM808.208 297.918V299.152H802.341V297.918H808.208ZM814.06 303.973H811.177L811.161 302.762H813.778C814.211 302.762 814.588 302.689 814.911 302.543C815.234 302.397 815.484 302.189 815.661 301.918C815.843 301.642 815.935 301.314 815.935 300.934C815.935 300.517 815.854 300.178 815.692 299.918C815.536 299.652 815.294 299.46 814.966 299.34C814.643 299.215 814.231 299.152 813.731 299.152H811.513V309.293H810.005V297.918H813.731C814.315 297.918 814.836 297.978 815.294 298.098C815.752 298.212 816.14 298.395 816.458 298.645C816.781 298.889 817.026 299.202 817.192 299.582C817.359 299.962 817.442 300.418 817.442 300.949C817.442 301.418 817.323 301.842 817.083 302.223C816.843 302.598 816.51 302.905 816.083 303.145C815.661 303.384 815.166 303.538 814.599 303.605L814.06 303.973ZM813.989 309.293H810.583L811.435 308.066H813.989C814.468 308.066 814.875 307.983 815.208 307.816C815.547 307.65 815.804 307.415 815.981 307.113C816.159 306.806 816.247 306.444 816.247 306.027C816.247 305.605 816.172 305.241 816.021 304.934C815.869 304.626 815.632 304.389 815.31 304.223C814.987 304.056 814.57 303.973 814.06 303.973H811.911L811.927 302.762H814.864L815.185 303.199C815.731 303.246 816.195 303.402 816.575 303.668C816.955 303.928 817.244 304.262 817.442 304.668C817.646 305.074 817.747 305.522 817.747 306.012C817.747 306.72 817.591 307.319 817.278 307.809C816.971 308.293 816.536 308.663 815.974 308.918C815.411 309.168 814.75 309.293 813.989 309.293ZM826.771 306.215C826.771 306.908 826.609 307.496 826.286 307.98C825.968 308.46 825.536 308.824 824.989 309.074C824.448 309.324 823.836 309.449 823.153 309.449C822.471 309.449 821.856 309.324 821.31 309.074C820.763 308.824 820.33 308.46 820.013 307.98C819.695 307.496 819.536 306.908 819.536 306.215C819.536 305.762 819.622 305.348 819.794 304.973C819.971 304.592 820.218 304.262 820.536 303.98C820.859 303.699 821.239 303.483 821.677 303.332C822.119 303.176 822.606 303.098 823.138 303.098C823.836 303.098 824.458 303.233 825.005 303.504C825.552 303.77 825.981 304.137 826.294 304.605C826.612 305.074 826.771 305.611 826.771 306.215ZM825.317 306.184C825.317 305.762 825.226 305.389 825.044 305.066C824.862 304.738 824.606 304.483 824.278 304.301C823.95 304.118 823.57 304.027 823.138 304.027C822.695 304.027 822.312 304.118 821.989 304.301C821.672 304.483 821.424 304.738 821.247 305.066C821.07 305.389 820.981 305.762 820.981 306.184C820.981 306.621 821.067 306.996 821.239 307.309C821.416 307.616 821.666 307.853 821.989 308.02C822.317 308.181 822.705 308.262 823.153 308.262C823.601 308.262 823.987 308.181 824.31 308.02C824.632 307.853 824.88 307.616 825.052 307.309C825.229 306.996 825.317 306.621 825.317 306.184ZM826.505 300.879C826.505 301.431 826.359 301.928 826.067 302.371C825.776 302.814 825.377 303.163 824.872 303.418C824.367 303.673 823.794 303.801 823.153 303.801C822.502 303.801 821.922 303.673 821.411 303.418C820.906 303.163 820.51 302.814 820.224 302.371C819.937 301.928 819.794 301.431 819.794 300.879C819.794 300.217 819.937 299.655 820.224 299.191C820.515 298.728 820.914 298.374 821.419 298.129C821.924 297.884 822.5 297.762 823.146 297.762C823.797 297.762 824.375 297.884 824.88 298.129C825.385 298.374 825.781 298.728 826.067 299.191C826.359 299.655 826.505 300.217 826.505 300.879ZM825.06 300.902C825.06 300.522 824.979 300.186 824.817 299.895C824.656 299.603 824.432 299.374 824.146 299.207C823.859 299.035 823.526 298.949 823.146 298.949C822.765 298.949 822.432 299.03 822.146 299.191C821.864 299.348 821.643 299.572 821.481 299.863C821.325 300.155 821.247 300.501 821.247 300.902C821.247 301.293 821.325 301.634 821.481 301.926C821.643 302.217 821.867 302.444 822.153 302.605C822.44 302.767 822.773 302.848 823.153 302.848C823.534 302.848 823.864 302.767 824.146 302.605C824.432 302.444 824.656 302.217 824.817 301.926C824.979 301.634 825.06 301.293 825.06 300.902ZM835.841 305.676H837.341C837.263 306.395 837.057 307.038 836.724 307.605C836.39 308.173 835.919 308.624 835.31 308.957C834.7 309.285 833.94 309.449 833.028 309.449C832.362 309.449 831.755 309.324 831.208 309.074C830.666 308.824 830.2 308.47 829.81 308.012C829.419 307.548 829.117 306.993 828.903 306.348C828.695 305.697 828.591 304.973 828.591 304.176V303.043C828.591 302.246 828.695 301.525 828.903 300.879C829.117 300.228 829.422 299.671 829.817 299.207C830.218 298.743 830.7 298.387 831.263 298.137C831.825 297.887 832.458 297.762 833.161 297.762C834.021 297.762 834.747 297.923 835.341 298.246C835.935 298.569 836.396 299.017 836.724 299.59C837.057 300.158 837.263 300.816 837.341 301.566H835.841C835.768 301.035 835.632 300.579 835.435 300.199C835.237 299.814 834.955 299.517 834.591 299.309C834.226 299.1 833.75 298.996 833.161 298.996C832.656 298.996 832.211 299.092 831.825 299.285C831.445 299.478 831.125 299.751 830.864 300.105C830.609 300.46 830.416 300.884 830.286 301.379C830.156 301.874 830.091 302.423 830.091 303.027V304.176C830.091 304.733 830.148 305.257 830.263 305.746C830.382 306.236 830.562 306.665 830.802 307.035C831.041 307.405 831.346 307.697 831.716 307.91C832.086 308.118 832.523 308.223 833.028 308.223C833.669 308.223 834.179 308.121 834.56 307.918C834.94 307.715 835.226 307.423 835.419 307.043C835.617 306.663 835.757 306.207 835.841 305.676ZM846.161 302.699V304.434C846.161 305.366 846.078 306.152 845.911 306.793C845.744 307.434 845.505 307.949 845.192 308.34C844.88 308.73 844.502 309.014 844.06 309.191C843.622 309.363 843.127 309.449 842.575 309.449C842.138 309.449 841.734 309.395 841.364 309.285C840.994 309.176 840.661 309.001 840.364 308.762C840.073 308.517 839.823 308.199 839.614 307.809C839.406 307.418 839.247 306.944 839.138 306.387C839.028 305.829 838.974 305.178 838.974 304.434V302.699C838.974 301.767 839.057 300.986 839.224 300.355C839.396 299.725 839.638 299.22 839.95 298.84C840.263 298.454 840.638 298.178 841.075 298.012C841.518 297.845 842.013 297.762 842.56 297.762C843.002 297.762 843.409 297.816 843.778 297.926C844.153 298.03 844.487 298.199 844.778 298.434C845.07 298.663 845.317 298.97 845.521 299.355C845.729 299.736 845.888 300.202 845.997 300.754C846.106 301.306 846.161 301.954 846.161 302.699ZM844.708 304.668V302.457C844.708 301.947 844.677 301.499 844.614 301.113C844.557 300.723 844.471 300.389 844.356 300.113C844.242 299.837 844.096 299.613 843.919 299.441C843.747 299.27 843.547 299.145 843.317 299.066C843.093 298.983 842.841 298.941 842.56 298.941C842.216 298.941 841.911 299.007 841.646 299.137C841.38 299.262 841.156 299.462 840.974 299.738C840.797 300.014 840.661 300.376 840.567 300.824C840.474 301.272 840.427 301.816 840.427 302.457V304.668C840.427 305.178 840.455 305.629 840.513 306.02C840.575 306.41 840.666 306.749 840.786 307.035C840.906 307.316 841.052 307.548 841.224 307.73C841.396 307.913 841.593 308.048 841.817 308.137C842.047 308.22 842.299 308.262 842.575 308.262C842.929 308.262 843.239 308.194 843.505 308.059C843.771 307.923 843.992 307.712 844.169 307.426C844.351 307.134 844.487 306.762 844.575 306.309C844.664 305.85 844.708 305.303 844.708 304.668ZM855.161 302.699V304.434C855.161 305.366 855.078 306.152 854.911 306.793C854.744 307.434 854.505 307.949 854.192 308.34C853.88 308.73 853.502 309.014 853.06 309.191C852.622 309.363 852.127 309.449 851.575 309.449C851.138 309.449 850.734 309.395 850.364 309.285C849.994 309.176 849.661 309.001 849.364 308.762C849.073 308.517 848.823 308.199 848.614 307.809C848.406 307.418 848.247 306.944 848.138 306.387C848.028 305.829 847.974 305.178 847.974 304.434V302.699C847.974 301.767 848.057 300.986 848.224 300.355C848.396 299.725 848.638 299.22 848.95 298.84C849.263 298.454 849.638 298.178 850.075 298.012C850.518 297.845 851.013 297.762 851.56 297.762C852.002 297.762 852.409 297.816 852.778 297.926C853.153 298.03 853.487 298.199 853.778 298.434C854.07 298.663 854.317 298.97 854.521 299.355C854.729 299.736 854.888 300.202 854.997 300.754C855.106 301.306 855.161 301.954 855.161 302.699ZM853.708 304.668V302.457C853.708 301.947 853.677 301.499 853.614 301.113C853.557 300.723 853.471 300.389 853.356 300.113C853.242 299.837 853.096 299.613 852.919 299.441C852.747 299.27 852.547 299.145 852.317 299.066C852.093 298.983 851.841 298.941 851.56 298.941C851.216 298.941 850.911 299.007 850.646 299.137C850.38 299.262 850.156 299.462 849.974 299.738C849.797 300.014 849.661 300.376 849.567 300.824C849.474 301.272 849.427 301.816 849.427 302.457V304.668C849.427 305.178 849.455 305.629 849.513 306.02C849.575 306.41 849.666 306.749 849.786 307.035C849.906 307.316 850.052 307.548 850.224 307.73C850.396 307.913 850.593 308.048 850.817 308.137C851.047 308.22 851.299 308.262 851.575 308.262C851.929 308.262 852.239 308.194 852.505 308.059C852.771 307.923 852.992 307.712 853.169 307.426C853.351 307.134 853.487 306.762 853.575 306.309C853.664 305.85 853.708 305.303 853.708 304.668Z" fill="#8D5003"/>
<ellipse cx="1003.98" cy="304.293" rx="76.1765" ry="74.8249" fill="#FFFDE7"/>
<path d="M974.161 309.293L976.372 297.918H977.497L975.278 309.293H974.161ZM977.341 309.293L979.56 297.918H980.677L978.458 309.293H977.341ZM981.63 302.254H973.505V301.168H981.63V302.254ZM981.044 306.09H972.911V305.012H981.044V306.09ZM984.669 297.918V309.293H983.161V297.918H984.669ZM989.435 303.035V304.27H984.341V303.035H989.435ZM990.208 297.918V299.152H984.341V297.918H990.208ZM993.513 297.918V309.293H992.005V297.918H993.513ZM998.278 303.035V304.27H993.185V303.035H998.278ZM999.052 297.918V299.152H993.185V297.918H999.052ZM1002.36 297.918V309.293H1000.85V297.918H1002.36ZM1007.12 303.035V304.27H1002.03V303.035H1007.12ZM1007.9 297.918V299.152H1002.03V297.918H1007.9ZM1012.77 309.293H1010.4L1010.41 308.066H1012.77C1013.58 308.066 1014.26 307.897 1014.8 307.559C1015.34 307.215 1015.75 306.736 1016.02 306.121C1016.3 305.501 1016.43 304.777 1016.43 303.949V303.254C1016.43 302.603 1016.36 302.025 1016.2 301.52C1016.04 301.009 1015.81 300.579 1015.51 300.23C1015.21 299.876 1014.84 299.608 1014.4 299.426C1013.97 299.243 1013.47 299.152 1012.91 299.152H1010.35V297.918H1012.91C1013.66 297.918 1014.34 298.043 1014.95 298.293C1015.56 298.538 1016.09 298.895 1016.54 299.363C1016.98 299.827 1017.33 300.389 1017.57 301.051C1017.81 301.707 1017.93 302.447 1017.93 303.27V303.949C1017.93 304.772 1017.81 305.514 1017.57 306.176C1017.33 306.832 1016.98 307.392 1016.53 307.855C1016.08 308.319 1015.54 308.676 1014.9 308.926C1014.27 309.171 1013.56 309.293 1012.77 309.293ZM1011.2 297.918V309.293H1009.69V297.918H1011.2ZM1027.42 308.066V309.293H1021.4V308.066H1027.42ZM1021.7 297.918V309.293H1020.19V297.918H1021.7ZM1026.62 302.809V304.035H1021.4V302.809H1026.62ZM1027.34 297.918V299.152H1021.4V297.918H1027.34ZM1036.26 297.918V298.73L1031.55 309.293H1030.03L1034.73 299.105H1028.58V297.918H1036.26Z" fill="#757575" fill-opacity="0.46"/>
<ellipse cx="771.734" cy="90.2225" rx="91.4595" ry="89.8368" fill="#E3F2FD"/>
<path d="M740.914 98.2227L743.125 86.8477H744.25L742.031 98.2227H740.914ZM744.094 98.2227L746.312 86.8477H747.43L745.211 98.2227H744.094ZM748.383 91.1836H740.258V90.0977H748.383V91.1836ZM747.797 95.0195H739.664V93.9414H747.797V95.0195ZM757.141 96.9961V98.2227H751.117V96.9961H757.141ZM751.422 86.8477V98.2227H749.914V86.8477H751.422ZM756.344 91.7383V92.9648H751.117V91.7383H756.344ZM757.062 86.8477V88.082H751.117V86.8477H757.062ZM760.742 91.8242H761.773C762.279 91.8242 762.695 91.7409 763.023 91.5742C763.357 91.4023 763.604 91.1706 763.766 90.8789C763.932 90.582 764.016 90.2487 764.016 89.8789C764.016 89.4414 763.943 89.0742 763.797 88.7773C763.651 88.4805 763.432 88.2565 763.141 88.1055C762.849 87.9544 762.479 87.8789 762.031 87.8789C761.625 87.8789 761.266 87.9596 760.953 88.1211C760.646 88.2773 760.404 88.5013 760.227 88.793C760.055 89.0846 759.969 89.4284 759.969 89.8242H758.523C758.523 89.2461 758.669 88.7201 758.961 88.2461C759.253 87.7721 759.661 87.3945 760.188 87.1133C760.719 86.832 761.333 86.6914 762.031 86.6914C762.719 86.6914 763.32 86.8138 763.836 87.0586C764.352 87.2982 764.753 87.6576 765.039 88.1367C765.326 88.6107 765.469 89.2018 765.469 89.9102C765.469 90.1966 765.401 90.5039 765.266 90.832C765.135 91.1549 764.93 91.457 764.648 91.7383C764.372 92.0195 764.013 92.2513 763.57 92.4336C763.128 92.6107 762.596 92.6992 761.977 92.6992H760.742V91.8242ZM760.742 93.0117V92.1445H761.977C762.701 92.1445 763.299 92.2305 763.773 92.4023C764.247 92.5742 764.62 92.8034 764.891 93.0898C765.167 93.3763 765.359 93.6914 765.469 94.0352C765.583 94.3737 765.641 94.7122 765.641 95.0508C765.641 95.582 765.549 96.0534 765.367 96.4648C765.19 96.8763 764.938 97.2253 764.609 97.5117C764.286 97.7982 763.906 98.0143 763.469 98.1602C763.031 98.306 762.555 98.3789 762.039 98.3789C761.544 98.3789 761.078 98.3086 760.641 98.168C760.208 98.0273 759.826 97.8242 759.492 97.5586C759.159 97.2878 758.898 96.957 758.711 96.5664C758.523 96.1706 758.43 95.7201 758.43 95.2148H759.875C759.875 95.6107 759.961 95.957 760.133 96.2539C760.31 96.5508 760.56 96.7826 760.883 96.9492C761.211 97.1107 761.596 97.1914 762.039 97.1914C762.482 97.1914 762.862 97.1159 763.18 96.9648C763.503 96.8086 763.75 96.5742 763.922 96.2617C764.099 95.9492 764.188 95.556 764.188 95.082C764.188 94.6081 764.089 94.2201 763.891 93.918C763.693 93.6107 763.411 93.3841 763.047 93.2383C762.688 93.0872 762.263 93.0117 761.773 93.0117H760.742ZM769.516 86.8477V98.2227H768.008V86.8477H769.516ZM774.281 91.9648V93.1992H769.188V91.9648H774.281ZM775.055 86.8477V88.082H769.188V86.8477H775.055ZM783.93 97.0352V98.2227H776.484V97.1836L780.211 93.0352C780.669 92.5247 781.023 92.0924 781.273 91.7383C781.529 91.3789 781.706 91.0586 781.805 90.7773C781.909 90.4909 781.961 90.1992 781.961 89.9023C781.961 89.5273 781.883 89.1888 781.727 88.8867C781.576 88.5794 781.352 88.3346 781.055 88.1523C780.758 87.9701 780.398 87.8789 779.977 87.8789C779.471 87.8789 779.049 87.9779 778.711 88.1758C778.378 88.3685 778.128 88.6393 777.961 88.9883C777.794 89.3372 777.711 89.7383 777.711 90.1914H776.266C776.266 89.5508 776.406 88.9648 776.688 88.4336C776.969 87.9023 777.385 87.4805 777.938 87.168C778.49 86.8503 779.169 86.6914 779.977 86.6914C780.695 86.6914 781.31 86.819 781.82 87.0742C782.331 87.3242 782.721 87.6784 782.992 88.1367C783.268 88.5898 783.406 89.1211 783.406 89.7305C783.406 90.0638 783.349 90.4023 783.234 90.7461C783.125 91.0846 782.971 91.4232 782.773 91.7617C782.581 92.1003 782.354 92.4336 782.094 92.7617C781.839 93.0898 781.565 93.4128 781.273 93.7305L778.227 97.0352H783.93ZM787.359 86.8477V98.2227H785.852V86.8477H787.359ZM792.125 91.9648V93.1992H787.031V91.9648H792.125ZM792.898 86.8477V88.082H787.031V86.8477H792.898ZM797.773 98.2227H795.398L795.414 96.9961H797.773C798.586 96.9961 799.263 96.8268 799.805 96.4883C800.346 96.1445 800.753 95.6654 801.023 95.0508C801.299 94.431 801.438 93.707 801.438 92.8789V92.1836C801.438 91.5326 801.359 90.9544 801.203 90.4492C801.047 89.9388 800.818 89.5091 800.516 89.1602C800.214 88.806 799.844 88.5378 799.406 88.3555C798.974 88.1732 798.477 88.082 797.914 88.082H795.352V86.8477H797.914C798.659 86.8477 799.339 86.9727 799.953 87.2227C800.568 87.4674 801.096 87.8242 801.539 88.293C801.987 88.7565 802.331 89.319 802.57 89.9805C802.81 90.6367 802.93 91.3763 802.93 92.1992V92.8789C802.93 93.7018 802.81 94.444 802.57 95.1055C802.331 95.7617 801.984 96.3216 801.531 96.7852C801.083 97.2487 800.542 97.6055 799.906 97.8555C799.276 98.1003 798.565 98.2227 797.773 98.2227ZM796.203 86.8477V98.2227H794.695V86.8477H796.203Z" fill="#757575" fill-opacity="0.57"/>
<ellipse cx="639.356" cy="304.293" rx="76.1765" ry="74.8249" fill="#FFEBEE"/>
<path d="M609.161 309.293L611.372 297.918H612.497L610.278 309.293H609.161ZM612.341 309.293L614.56 297.918H615.677L613.458 309.293H612.341ZM616.63 302.254H608.505V301.168H616.63V302.254ZM616.044 306.09H607.911V305.012H616.044V306.09ZM619.669 297.918V309.293H618.161V297.918H619.669ZM624.435 303.035V304.27H619.341V303.035H624.435ZM625.208 297.918V299.152H619.341V297.918H625.208ZM628.513 297.918V309.293H627.005V297.918H628.513ZM633.278 303.035V304.27H628.185V303.035H633.278ZM634.052 297.918V299.152H628.185V297.918H634.052ZM643.075 308.066V309.293H637.052V308.066H643.075ZM637.356 297.918V309.293H635.849V297.918H637.356ZM642.278 302.809V304.035H637.052V302.809H642.278ZM642.997 297.918V299.152H637.052V297.918H642.997ZM648.997 303.973H646.114L646.099 302.762H648.716C649.148 302.762 649.526 302.689 649.849 302.543C650.172 302.397 650.422 302.189 650.599 301.918C650.781 301.642 650.872 301.314 650.872 300.934C650.872 300.517 650.791 300.178 650.63 299.918C650.474 299.652 650.231 299.46 649.903 299.34C649.58 299.215 649.169 299.152 648.669 299.152H646.45V309.293H644.942V297.918H648.669C649.252 297.918 649.773 297.978 650.231 298.098C650.69 298.212 651.078 298.395 651.396 298.645C651.718 298.889 651.963 299.202 652.13 299.582C652.297 299.962 652.38 300.418 652.38 300.949C652.38 301.418 652.26 301.842 652.021 302.223C651.781 302.598 651.448 302.905 651.021 303.145C650.599 303.384 650.104 303.538 649.536 303.605L648.997 303.973ZM648.927 309.293H645.521L646.372 308.066H648.927C649.406 308.066 649.812 307.983 650.146 307.816C650.484 307.65 650.742 307.415 650.919 307.113C651.096 306.806 651.185 306.444 651.185 306.027C651.185 305.605 651.109 305.241 650.958 304.934C650.807 304.626 650.57 304.389 650.247 304.223C649.924 304.056 649.507 303.973 648.997 303.973H646.849L646.864 302.762H649.802L650.122 303.199C650.669 303.246 651.132 303.402 651.513 303.668C651.893 303.928 652.182 304.262 652.38 304.668C652.583 305.074 652.685 305.522 652.685 306.012C652.685 306.72 652.528 307.319 652.216 307.809C651.909 308.293 651.474 308.663 650.911 308.918C650.349 309.168 649.687 309.293 648.927 309.293ZM662.138 308.066V309.293H656.114V308.066H662.138ZM656.419 297.918V309.293H654.911V297.918H656.419ZM661.341 302.809V304.035H656.114V302.809H661.341ZM662.06 297.918V299.152H656.114V297.918H662.06ZM671.231 308.066V309.293H665.208V308.066H671.231ZM665.513 297.918V309.293H664.005V297.918H665.513ZM670.435 302.809V304.035H665.208V302.809H670.435ZM671.153 297.918V299.152H665.208V297.918H671.153Z" fill="#B19DA0"/>
<circle cx="324.589" cy="91.8452" r="91.4595" fill="#424242"/>
<path d="M294.77 94.8457L296.98 83.4707H298.105L295.887 94.8457H294.77ZM297.949 94.8457L300.168 83.4707H301.285L299.066 94.8457H297.949ZM302.238 87.8066H294.113V86.7207H302.238V87.8066ZM301.652 91.6426H293.52V90.5645H301.652V91.6426ZM311.082 91.0176V92.2051H302.863V91.3535L307.957 83.4707H309.137L307.871 85.752L304.504 91.0176H311.082ZM309.496 83.4707V94.8457H308.051V83.4707H309.496ZM319.848 93.6582V94.8457H312.402V93.8066L316.129 89.6582C316.587 89.1478 316.941 88.7155 317.191 88.3613C317.447 88.002 317.624 87.6816 317.723 87.4004C317.827 87.1139 317.879 86.8223 317.879 86.5254C317.879 86.1504 317.801 85.8118 317.645 85.5098C317.493 85.2025 317.27 84.9577 316.973 84.7754C316.676 84.5931 316.316 84.502 315.895 84.502C315.389 84.502 314.967 84.6009 314.629 84.7988C314.296 84.9915 314.046 85.2624 313.879 85.6113C313.712 85.9603 313.629 86.3613 313.629 86.8145H312.184C312.184 86.1738 312.324 85.5879 312.605 85.0566C312.887 84.5254 313.303 84.1035 313.855 83.791C314.408 83.4733 315.087 83.3145 315.895 83.3145C316.613 83.3145 317.228 83.4421 317.738 83.6973C318.249 83.9473 318.639 84.3014 318.91 84.7598C319.186 85.2129 319.324 85.7441 319.324 86.3535C319.324 86.6868 319.267 87.0254 319.152 87.3691C319.043 87.7077 318.889 88.0462 318.691 88.3848C318.499 88.7233 318.272 89.0566 318.012 89.3848C317.757 89.7129 317.483 90.0358 317.191 90.3535L314.145 93.6582H319.848ZM329.082 91.0176V92.2051H320.863V91.3535L325.957 83.4707H327.137L325.871 85.752L322.504 91.0176H329.082ZM327.496 83.4707V94.8457H326.051V83.4707H327.496ZM337.848 93.6582V94.8457H330.402V93.8066L334.129 89.6582C334.587 89.1478 334.941 88.7155 335.191 88.3613C335.447 88.002 335.624 87.6816 335.723 87.4004C335.827 87.1139 335.879 86.8223 335.879 86.5254C335.879 86.1504 335.801 85.8118 335.645 85.5098C335.493 85.2025 335.27 84.9577 334.973 84.7754C334.676 84.5931 334.316 84.502 333.895 84.502C333.389 84.502 332.967 84.6009 332.629 84.7988C332.296 84.9915 332.046 85.2624 331.879 85.6113C331.712 85.9603 331.629 86.3613 331.629 86.8145H330.184C330.184 86.1738 330.324 85.5879 330.605 85.0566C330.887 84.5254 331.303 84.1035 331.855 83.791C332.408 83.4733 333.087 83.3145 333.895 83.3145C334.613 83.3145 335.228 83.4421 335.738 83.6973C336.249 83.9473 336.639 84.3014 336.91 84.7598C337.186 85.2129 337.324 85.7441 337.324 86.3535C337.324 86.6868 337.267 87.0254 337.152 87.3691C337.043 87.7077 336.889 88.0462 336.691 88.3848C336.499 88.7233 336.272 89.0566 336.012 89.3848C335.757 89.7129 335.483 90.0358 335.191 90.3535L332.145 93.6582H337.848ZM347.082 91.0176V92.2051H338.863V91.3535L343.957 83.4707H345.137L343.871 85.752L340.504 91.0176H347.082ZM345.496 83.4707V94.8457H344.051V83.4707H345.496ZM355.848 93.6582V94.8457H348.402V93.8066L352.129 89.6582C352.587 89.1478 352.941 88.7155 353.191 88.3613C353.447 88.002 353.624 87.6816 353.723 87.4004C353.827 87.1139 353.879 86.8223 353.879 86.5254C353.879 86.1504 353.801 85.8118 353.645 85.5098C353.493 85.2025 353.27 84.9577 352.973 84.7754C352.676 84.5931 352.316 84.502 351.895 84.502C351.389 84.502 350.967 84.6009 350.629 84.7988C350.296 84.9915 350.046 85.2624 349.879 85.6113C349.712 85.9603 349.629 86.3613 349.629 86.8145H348.184C348.184 86.1738 348.324 85.5879 348.605 85.0566C348.887 84.5254 349.303 84.1035 349.855 83.791C350.408 83.4733 351.087 83.3145 351.895 83.3145C352.613 83.3145 353.228 83.4421 353.738 83.6973C354.249 83.9473 354.639 84.3014 354.91 84.7598C355.186 85.2129 355.324 85.7441 355.324 86.3535C355.324 86.6868 355.267 87.0254 355.152 87.3691C355.043 87.7077 354.889 88.0462 354.691 88.3848C354.499 88.7233 354.272 89.0566 354.012 89.3848C353.757 89.7129 353.483 90.0358 353.191 90.3535L350.145 93.6582H355.848Z" fill="#757575"/>
<ellipse cx="266.93" cy="304.293" rx="76.1765" ry="74.8249" fill="#DCEDC8"/>
<path d="M234.11 309.293L236.321 297.918H237.446L235.228 309.293H234.11ZM237.29 309.293L239.509 297.918H240.626L238.407 309.293H237.29ZM241.579 302.254H233.454V301.168H241.579V302.254ZM240.993 306.09H232.86V305.012H240.993V306.09ZM246.188 309.293H243.813L243.829 308.066H246.188C247.001 308.066 247.678 307.897 248.22 307.559C248.761 307.215 249.168 306.736 249.438 306.121C249.715 305.501 249.853 304.777 249.853 303.949V303.254C249.853 302.603 249.774 302.025 249.618 301.52C249.462 301.009 249.233 300.579 248.931 300.23C248.629 299.876 248.259 299.608 247.821 299.426C247.389 299.243 246.892 299.152 246.329 299.152H243.767V297.918H246.329C247.074 297.918 247.754 298.043 248.368 298.293C248.983 298.538 249.511 298.895 249.954 299.363C250.402 299.827 250.746 300.389 250.985 301.051C251.225 301.707 251.345 302.447 251.345 303.27V303.949C251.345 304.772 251.225 305.514 250.985 306.176C250.746 306.832 250.399 307.392 249.946 307.855C249.498 308.319 248.957 308.676 248.321 308.926C247.691 309.171 246.98 309.293 246.188 309.293ZM244.618 297.918V309.293H243.11V297.918H244.618ZM260.478 305.676H261.978C261.899 306.395 261.694 307.038 261.36 307.605C261.027 308.173 260.556 308.624 259.946 308.957C259.337 309.285 258.576 309.449 257.665 309.449C256.998 309.449 256.392 309.324 255.845 309.074C255.303 308.824 254.837 308.47 254.446 308.012C254.056 307.548 253.754 306.993 253.54 306.348C253.332 305.697 253.228 304.973 253.228 304.176V303.043C253.228 302.246 253.332 301.525 253.54 300.879C253.754 300.228 254.058 299.671 254.454 299.207C254.855 298.743 255.337 298.387 255.899 298.137C256.462 297.887 257.095 297.762 257.798 297.762C258.657 297.762 259.384 297.923 259.978 298.246C260.571 298.569 261.032 299.017 261.36 299.59C261.694 300.158 261.899 300.816 261.978 301.566H260.478C260.405 301.035 260.269 300.579 260.071 300.199C259.873 299.814 259.592 299.517 259.228 299.309C258.863 299.1 258.386 298.996 257.798 298.996C257.293 298.996 256.847 299.092 256.462 299.285C256.082 299.478 255.761 299.751 255.501 300.105C255.246 300.46 255.053 300.884 254.923 301.379C254.793 301.874 254.728 302.423 254.728 303.027V304.176C254.728 304.733 254.785 305.257 254.899 305.746C255.019 306.236 255.199 306.665 255.438 307.035C255.678 307.405 255.983 307.697 256.353 307.91C256.722 308.118 257.16 308.223 257.665 308.223C258.306 308.223 258.816 308.121 259.196 307.918C259.576 307.715 259.863 307.423 260.056 307.043C260.254 306.663 260.394 306.207 260.478 305.676ZM271.259 308.066V309.293H265.235V308.066H271.259ZM265.54 297.918V309.293H264.032V297.918H265.54ZM270.462 302.809V304.035H265.235V302.809H270.462ZM271.181 297.918V299.152H265.235V297.918H271.181ZM276.204 309.293H273.829L273.845 308.066H276.204C277.017 308.066 277.694 307.897 278.235 307.559C278.777 307.215 279.183 306.736 279.454 306.121C279.73 305.501 279.868 304.777 279.868 303.949V303.254C279.868 302.603 279.79 302.025 279.634 301.52C279.478 301.009 279.248 300.579 278.946 300.23C278.644 299.876 278.274 299.608 277.837 299.426C277.405 299.243 276.907 299.152 276.345 299.152H273.782V297.918H276.345C277.09 297.918 277.769 298.043 278.384 298.293C278.998 298.538 279.527 298.895 279.97 299.363C280.418 299.827 280.761 300.389 281.001 301.051C281.241 301.707 281.36 302.447 281.36 303.27V303.949C281.36 304.772 281.241 305.514 281.001 306.176C280.761 306.832 280.415 307.392 279.962 307.855C279.514 308.319 278.972 308.676 278.337 308.926C277.707 309.171 276.996 309.293 276.204 309.293ZM274.634 297.918V309.293H273.126V297.918H274.634ZM290.493 305.676H291.993C291.915 306.395 291.709 307.038 291.376 307.605C291.043 308.173 290.571 308.624 289.962 308.957C289.353 309.285 288.592 309.449 287.681 309.449C287.014 309.449 286.407 309.324 285.86 309.074C285.319 308.824 284.853 308.47 284.462 308.012C284.071 307.548 283.769 306.993 283.556 306.348C283.347 305.697 283.243 304.973 283.243 304.176V303.043C283.243 302.246 283.347 301.525 283.556 300.879C283.769 300.228 284.074 299.671 284.47 299.207C284.871 298.743 285.353 298.387 285.915 298.137C286.478 297.887 287.11 297.762 287.813 297.762C288.673 297.762 289.399 297.923 289.993 298.246C290.587 298.569 291.048 299.017 291.376 299.59C291.709 300.158 291.915 300.816 291.993 301.566H290.493C290.42 301.035 290.285 300.579 290.087 300.199C289.889 299.814 289.608 299.517 289.243 299.309C288.879 299.1 288.402 298.996 287.813 298.996C287.308 298.996 286.863 299.092 286.478 299.285C286.097 299.478 285.777 299.751 285.517 300.105C285.261 300.46 285.069 300.884 284.938 301.379C284.808 301.874 284.743 302.423 284.743 303.027V304.176C284.743 304.733 284.8 305.257 284.915 305.746C285.035 306.236 285.215 306.665 285.454 307.035C285.694 307.405 285.998 307.697 286.368 307.91C286.738 308.118 287.175 308.223 287.681 308.223C288.321 308.223 288.832 308.121 289.212 307.918C289.592 307.715 289.879 307.423 290.071 307.043C290.269 306.663 290.41 306.207 290.493 305.676ZM300.845 306.215C300.845 306.908 300.683 307.496 300.36 307.98C300.043 308.46 299.61 308.824 299.063 309.074C298.522 309.324 297.91 309.449 297.228 309.449C296.545 309.449 295.931 309.324 295.384 309.074C294.837 308.824 294.405 308.46 294.087 307.98C293.769 307.496 293.61 306.908 293.61 306.215C293.61 305.762 293.696 305.348 293.868 304.973C294.045 304.592 294.293 304.262 294.61 303.98C294.933 303.699 295.313 303.483 295.751 303.332C296.194 303.176 296.681 303.098 297.212 303.098C297.91 303.098 298.532 303.233 299.079 303.504C299.626 303.77 300.056 304.137 300.368 304.605C300.686 305.074 300.845 305.611 300.845 306.215ZM299.392 306.184C299.392 305.762 299.3 305.389 299.118 305.066C298.936 304.738 298.681 304.483 298.353 304.301C298.024 304.118 297.644 304.027 297.212 304.027C296.769 304.027 296.386 304.118 296.063 304.301C295.746 304.483 295.498 304.738 295.321 305.066C295.144 305.389 295.056 305.762 295.056 306.184C295.056 306.621 295.142 306.996 295.313 307.309C295.491 307.616 295.741 307.853 296.063 308.02C296.392 308.181 296.78 308.262 297.228 308.262C297.675 308.262 298.061 308.181 298.384 308.02C298.707 307.853 298.954 307.616 299.126 307.309C299.303 306.996 299.392 306.621 299.392 306.184ZM300.579 300.879C300.579 301.431 300.433 301.928 300.142 302.371C299.85 302.814 299.451 303.163 298.946 303.418C298.441 303.673 297.868 303.801 297.228 303.801C296.576 303.801 295.996 303.673 295.485 303.418C294.98 303.163 294.584 302.814 294.298 302.371C294.011 301.928 293.868 301.431 293.868 300.879C293.868 300.217 294.011 299.655 294.298 299.191C294.59 298.728 294.988 298.374 295.493 298.129C295.998 297.884 296.574 297.762 297.22 297.762C297.871 297.762 298.449 297.884 298.954 298.129C299.459 298.374 299.855 298.728 300.142 299.191C300.433 299.655 300.579 300.217 300.579 300.879ZM299.134 300.902C299.134 300.522 299.053 300.186 298.892 299.895C298.73 299.603 298.506 299.374 298.22 299.207C297.933 299.035 297.6 298.949 297.22 298.949C296.84 298.949 296.506 299.03 296.22 299.191C295.938 299.348 295.717 299.572 295.556 299.863C295.399 300.155 295.321 300.501 295.321 300.902C295.321 301.293 295.399 301.634 295.556 301.926C295.717 302.217 295.941 302.444 296.228 302.605C296.514 302.767 296.847 302.848 297.228 302.848C297.608 302.848 297.938 302.767 298.22 302.605C298.506 302.444 298.73 302.217 298.892 301.926C299.053 301.634 299.134 301.293 299.134 300.902Z" fill="#757575" fill-opacity="0.5"/>
<ellipse cx="552.843" cy="90.2225" rx="91.4595" ry="89.8368" fill="#ECEFF1"/>
<path d="M522.023 98.2227L524.234 86.8477H525.359L523.141 98.2227H522.023ZM525.203 98.2227L527.422 86.8477H528.539L526.32 98.2227H525.203ZM529.492 91.1836H521.367V90.0977H529.492V91.1836ZM528.906 95.0195H520.773V93.9414H528.906V95.0195ZM538.25 96.9961V98.2227H532.227V96.9961H538.25ZM532.531 86.8477V98.2227H531.023V86.8477H532.531ZM537.453 91.7383V92.9648H532.227V91.7383H537.453ZM538.172 86.8477V88.082H532.227V86.8477H538.172ZM546.984 94.6055H548.484C548.406 95.3242 548.201 95.9674 547.867 96.5352C547.534 97.1029 547.062 97.5534 546.453 97.8867C545.844 98.2148 545.083 98.3789 544.172 98.3789C543.505 98.3789 542.898 98.2539 542.352 98.0039C541.81 97.7539 541.344 97.3997 540.953 96.9414C540.562 96.4779 540.26 95.9232 540.047 95.2773C539.839 94.6263 539.734 93.9023 539.734 93.1055V91.9727C539.734 91.1758 539.839 90.4544 540.047 89.8086C540.26 89.1576 540.565 88.6003 540.961 88.1367C541.362 87.6732 541.844 87.3164 542.406 87.0664C542.969 86.8164 543.602 86.6914 544.305 86.6914C545.164 86.6914 545.891 86.8529 546.484 87.1758C547.078 87.4987 547.539 87.9466 547.867 88.5195C548.201 89.0872 548.406 89.7461 548.484 90.4961H546.984C546.911 89.9648 546.776 89.5091 546.578 89.1289C546.38 88.7435 546.099 88.4466 545.734 88.2383C545.37 88.0299 544.893 87.9258 544.305 87.9258C543.799 87.9258 543.354 88.0221 542.969 88.2148C542.589 88.4076 542.268 88.681 542.008 89.0352C541.753 89.3893 541.56 89.8138 541.43 90.3086C541.299 90.8034 541.234 91.3529 541.234 91.957V93.1055C541.234 93.6628 541.292 94.1862 541.406 94.6758C541.526 95.1654 541.706 95.5951 541.945 95.9648C542.185 96.3346 542.49 96.6263 542.859 96.8398C543.229 97.0482 543.667 97.1523 544.172 97.1523C544.812 97.1523 545.323 97.0508 545.703 96.8477C546.083 96.6445 546.37 96.3529 546.562 95.9727C546.76 95.5924 546.901 95.1367 546.984 94.6055ZM557.766 96.9961V98.2227H551.742V96.9961H557.766ZM552.047 86.8477V98.2227H550.539V86.8477H552.047ZM556.969 91.7383V92.9648H551.742V91.7383H556.969ZM557.688 86.8477V88.082H551.742V86.8477H557.688ZM561.141 86.8477V98.2227H559.633V86.8477H561.141ZM565.906 91.9648V93.1992H560.812V91.9648H565.906ZM566.68 86.8477V88.082H560.812V86.8477H566.68ZM569.984 86.8477V98.2227H568.477V86.8477H569.984ZM574.75 91.9648V93.1992H569.656V91.9648H574.75ZM575.523 86.8477V88.082H569.656V86.8477H575.523ZM581.695 86.7852V98.2227H580.25V88.5898L577.336 89.6523V88.3477L581.469 86.7852H581.695Z" fill="#757575" fill-opacity="0.49"/>
<ellipse cx="457.043" cy="304.293" rx="76.1765" ry="74.8249" fill="#D50000"/>
<path d="M427.161 309.293L429.372 297.918H430.497L428.278 309.293H427.161ZM430.341 309.293L432.56 297.918H433.677L431.458 309.293H430.341ZM434.63 302.254H426.505V301.168H434.63V302.254ZM434.044 306.09H425.911V305.012H434.044V306.09ZM439.239 309.293H436.864L436.88 308.066H439.239C440.052 308.066 440.729 307.897 441.271 307.559C441.812 307.215 442.218 306.736 442.489 306.121C442.765 305.501 442.903 304.777 442.903 303.949V303.254C442.903 302.603 442.825 302.025 442.669 301.52C442.513 301.009 442.284 300.579 441.981 300.23C441.679 299.876 441.31 299.608 440.872 299.426C440.44 299.243 439.942 299.152 439.38 299.152H436.817V297.918H439.38C440.125 297.918 440.804 298.043 441.419 298.293C442.034 298.538 442.562 298.895 443.005 299.363C443.453 299.827 443.797 300.389 444.036 301.051C444.276 301.707 444.396 302.447 444.396 303.27V303.949C444.396 304.772 444.276 305.514 444.036 306.176C443.797 306.832 443.45 307.392 442.997 307.855C442.549 308.319 442.007 308.676 441.372 308.926C440.742 309.171 440.031 309.293 439.239 309.293ZM437.669 297.918V309.293H436.161V297.918H437.669ZM448.114 303.879L446.958 303.582L447.528 297.918H453.364V299.254H448.755L448.411 302.348C448.619 302.228 448.882 302.116 449.2 302.012C449.523 301.908 449.893 301.855 450.31 301.855C450.836 301.855 451.307 301.947 451.724 302.129C452.14 302.306 452.494 302.561 452.786 302.895C453.083 303.228 453.31 303.629 453.466 304.098C453.622 304.566 453.7 305.09 453.7 305.668C453.7 306.215 453.625 306.717 453.474 307.176C453.328 307.634 453.106 308.035 452.81 308.379C452.513 308.717 452.138 308.98 451.685 309.168C451.237 309.355 450.708 309.449 450.099 309.449C449.64 309.449 449.205 309.387 448.794 309.262C448.388 309.132 448.023 308.936 447.7 308.676C447.382 308.41 447.122 308.082 446.919 307.691C446.721 307.296 446.596 306.832 446.544 306.301H447.919C447.981 306.728 448.106 307.087 448.294 307.379C448.481 307.671 448.726 307.892 449.028 308.043C449.336 308.189 449.692 308.262 450.099 308.262C450.442 308.262 450.747 308.202 451.013 308.082C451.278 307.962 451.502 307.79 451.685 307.566C451.867 307.342 452.005 307.072 452.099 306.754C452.198 306.436 452.247 306.079 452.247 305.684C452.247 305.324 452.198 304.991 452.099 304.684C452 304.376 451.851 304.108 451.653 303.879C451.461 303.65 451.224 303.473 450.942 303.348C450.661 303.217 450.338 303.152 449.974 303.152C449.489 303.152 449.122 303.217 448.872 303.348C448.627 303.478 448.375 303.655 448.114 303.879ZM462.427 302.699V304.434C462.427 305.366 462.343 306.152 462.177 306.793C462.01 307.434 461.771 307.949 461.458 308.34C461.146 308.73 460.768 309.014 460.325 309.191C459.888 309.363 459.393 309.449 458.841 309.449C458.403 309.449 458 309.395 457.63 309.285C457.26 309.176 456.927 309.001 456.63 308.762C456.338 308.517 456.088 308.199 455.88 307.809C455.672 307.418 455.513 306.944 455.403 306.387C455.294 305.829 455.239 305.178 455.239 304.434V302.699C455.239 301.767 455.323 300.986 455.489 300.355C455.661 299.725 455.903 299.22 456.216 298.84C456.528 298.454 456.903 298.178 457.341 298.012C457.784 297.845 458.278 297.762 458.825 297.762C459.268 297.762 459.674 297.816 460.044 297.926C460.419 298.03 460.752 298.199 461.044 298.434C461.336 298.663 461.583 298.97 461.786 299.355C461.994 299.736 462.153 300.202 462.263 300.754C462.372 301.306 462.427 301.954 462.427 302.699ZM460.974 304.668V302.457C460.974 301.947 460.942 301.499 460.88 301.113C460.823 300.723 460.737 300.389 460.622 300.113C460.507 299.837 460.362 299.613 460.185 299.441C460.013 299.27 459.812 299.145 459.583 299.066C459.359 298.983 459.106 298.941 458.825 298.941C458.481 298.941 458.177 299.007 457.911 299.137C457.646 299.262 457.422 299.462 457.239 299.738C457.062 300.014 456.927 300.376 456.833 300.824C456.739 301.272 456.692 301.816 456.692 302.457V304.668C456.692 305.178 456.721 305.629 456.778 306.02C456.841 306.41 456.932 306.749 457.052 307.035C457.172 307.316 457.317 307.548 457.489 307.73C457.661 307.913 457.859 308.048 458.083 308.137C458.312 308.22 458.565 308.262 458.841 308.262C459.195 308.262 459.505 308.194 459.771 308.059C460.036 307.923 460.257 307.712 460.435 307.426C460.617 307.134 460.752 306.762 460.841 306.309C460.929 305.85 460.974 305.303 460.974 304.668ZM471.427 302.699V304.434C471.427 305.366 471.343 306.152 471.177 306.793C471.01 307.434 470.771 307.949 470.458 308.34C470.146 308.73 469.768 309.014 469.325 309.191C468.888 309.363 468.393 309.449 467.841 309.449C467.403 309.449 467 309.395 466.63 309.285C466.26 309.176 465.927 309.001 465.63 308.762C465.338 308.517 465.088 308.199 464.88 307.809C464.672 307.418 464.513 306.944 464.403 306.387C464.294 305.829 464.239 305.178 464.239 304.434V302.699C464.239 301.767 464.323 300.986 464.489 300.355C464.661 299.725 464.903 299.22 465.216 298.84C465.528 298.454 465.903 298.178 466.341 298.012C466.784 297.845 467.278 297.762 467.825 297.762C468.268 297.762 468.674 297.816 469.044 297.926C469.419 298.03 469.752 298.199 470.044 298.434C470.336 298.663 470.583 298.97 470.786 299.355C470.994 299.736 471.153 300.202 471.263 300.754C471.372 301.306 471.427 301.954 471.427 302.699ZM469.974 304.668V302.457C469.974 301.947 469.942 301.499 469.88 301.113C469.823 300.723 469.737 300.389 469.622 300.113C469.507 299.837 469.362 299.613 469.185 299.441C469.013 299.27 468.812 299.145 468.583 299.066C468.359 298.983 468.106 298.941 467.825 298.941C467.481 298.941 467.177 299.007 466.911 299.137C466.646 299.262 466.422 299.462 466.239 299.738C466.062 300.014 465.927 300.376 465.833 300.824C465.739 301.272 465.692 301.816 465.692 302.457V304.668C465.692 305.178 465.721 305.629 465.778 306.02C465.841 306.41 465.932 306.749 466.052 307.035C466.172 307.316 466.317 307.548 466.489 307.73C466.661 307.913 466.859 308.048 467.083 308.137C467.312 308.22 467.565 308.262 467.841 308.262C468.195 308.262 468.505 308.194 468.771 308.059C469.036 307.923 469.257 307.712 469.435 307.426C469.617 307.134 469.752 306.762 469.841 306.309C469.929 305.85 469.974 305.303 469.974 304.668ZM480.427 302.699V304.434C480.427 305.366 480.343 306.152 480.177 306.793C480.01 307.434 479.771 307.949 479.458 308.34C479.146 308.73 478.768 309.014 478.325 309.191C477.888 309.363 477.393 309.449 476.841 309.449C476.403 309.449 476 309.395 475.63 309.285C475.26 309.176 474.927 309.001 474.63 308.762C474.338 308.517 474.088 308.199 473.88 307.809C473.672 307.418 473.513 306.944 473.403 306.387C473.294 305.829 473.239 305.178 473.239 304.434V302.699C473.239 301.767 473.323 300.986 473.489 300.355C473.661 299.725 473.903 299.22 474.216 298.84C474.528 298.454 474.903 298.178 475.341 298.012C475.784 297.845 476.278 297.762 476.825 297.762C477.268 297.762 477.674 297.816 478.044 297.926C478.419 298.03 478.752 298.199 479.044 298.434C479.336 298.663 479.583 298.97 479.786 299.355C479.994 299.736 480.153 300.202 480.263 300.754C480.372 301.306 480.427 301.954 480.427 302.699ZM478.974 304.668V302.457C478.974 301.947 478.942 301.499 478.88 301.113C478.823 300.723 478.737 300.389 478.622 300.113C478.507 299.837 478.362 299.613 478.185 299.441C478.013 299.27 477.812 299.145 477.583 299.066C477.359 298.983 477.106 298.941 476.825 298.941C476.481 298.941 476.177 299.007 475.911 299.137C475.646 299.262 475.422 299.462 475.239 299.738C475.062 300.014 474.927 300.376 474.833 300.824C474.739 301.272 474.692 301.816 474.692 302.457V304.668C474.692 305.178 474.721 305.629 474.778 306.02C474.841 306.41 474.932 306.749 475.052 307.035C475.172 307.316 475.317 307.548 475.489 307.73C475.661 307.913 475.859 308.048 476.083 308.137C476.312 308.22 476.565 308.262 476.841 308.262C477.195 308.262 477.505 308.194 477.771 308.059C478.036 307.923 478.257 307.712 478.435 307.426C478.617 307.134 478.752 306.762 478.841 306.309C478.929 305.85 478.974 305.303 478.974 304.668ZM489.427 302.699V304.434C489.427 305.366 489.343 306.152 489.177 306.793C489.01 307.434 488.771 307.949 488.458 308.34C488.146 308.73 487.768 309.014 487.325 309.191C486.888 309.363 486.393 309.449 485.841 309.449C485.403 309.449 485 309.395 484.63 309.285C484.26 309.176 483.927 309.001 483.63 308.762C483.338 308.517 483.088 308.199 482.88 307.809C482.672 307.418 482.513 306.944 482.403 306.387C482.294 305.829 482.239 305.178 482.239 304.434V302.699C482.239 301.767 482.323 300.986 482.489 300.355C482.661 299.725 482.903 299.22 483.216 298.84C483.528 298.454 483.903 298.178 484.341 298.012C484.784 297.845 485.278 297.762 485.825 297.762C486.268 297.762 486.674 297.816 487.044 297.926C487.419 298.03 487.752 298.199 488.044 298.434C488.336 298.663 488.583 298.97 488.786 299.355C488.994 299.736 489.153 300.202 489.263 300.754C489.372 301.306 489.427 301.954 489.427 302.699ZM487.974 304.668V302.457C487.974 301.947 487.942 301.499 487.88 301.113C487.823 300.723 487.737 300.389 487.622 300.113C487.507 299.837 487.362 299.613 487.185 299.441C487.013 299.27 486.812 299.145 486.583 299.066C486.359 298.983 486.106 298.941 485.825 298.941C485.481 298.941 485.177 299.007 484.911 299.137C484.646 299.262 484.422 299.462 484.239 299.738C484.062 300.014 483.927 300.376 483.833 300.824C483.739 301.272 483.692 301.816 483.692 302.457V304.668C483.692 305.178 483.721 305.629 483.778 306.02C483.841 306.41 483.932 306.749 484.052 307.035C484.172 307.316 484.317 307.548 484.489 307.73C484.661 307.913 484.859 308.048 485.083 308.137C485.312 308.22 485.565 308.262 485.841 308.262C486.195 308.262 486.505 308.194 486.771 308.059C487.036 307.923 487.257 307.712 487.435 307.426C487.617 307.134 487.752 306.762 487.841 306.309C487.929 305.85 487.974 305.303 487.974 304.668Z" fill="#5B0202"/>
<path d="M66.5156 98.3467L68.7266 86.9717H69.8516L67.6328 98.3467H66.5156ZM69.6953 98.3467L71.9141 86.9717H73.0312L70.8125 98.3467H69.6953ZM73.9844 91.3076H65.8594V90.2217H73.9844V91.3076ZM73.3984 95.1436H65.2656V94.0654H73.3984V95.1436ZM79.8906 86.9092V98.3467H78.4453V88.7139L75.5312 89.7764V88.4717L79.6641 86.9092H79.8906ZM88.8906 86.9092V98.3467H87.4453V88.7139L84.5312 89.7764V88.4717L88.6641 86.9092H88.8906ZM100.594 97.1592V98.3467H93.1484V97.3076L96.875 93.1592C97.3333 92.6488 97.6875 92.2165 97.9375 91.8623C98.1927 91.5029 98.3698 91.1826 98.4688 90.9014C98.5729 90.6149 98.625 90.3232 98.625 90.0264C98.625 89.6514 98.5469 89.3128 98.3906 89.0107C98.2396 88.7035 98.0156 88.4587 97.7188 88.2764C97.4219 88.0941 97.0625 88.0029 96.6406 88.0029C96.1354 88.0029 95.7135 88.1019 95.375 88.2998C95.0417 88.4925 94.7917 88.7633 94.625 89.1123C94.4583 89.4613 94.375 89.8623 94.375 90.3154H92.9297C92.9297 89.6748 93.0703 89.0889 93.3516 88.5576C93.6328 88.0264 94.0495 87.6045 94.6016 87.292C95.1536 86.9743 95.8333 86.8154 96.6406 86.8154C97.3594 86.8154 97.974 86.943 98.4844 87.1982C98.9948 87.4482 99.3854 87.8024 99.6562 88.2607C99.9323 88.7139 100.07 89.2451 100.07 89.8545C100.07 90.1878 100.013 90.5264 99.8984 90.8701C99.7891 91.2087 99.6354 91.5472 99.4375 91.8857C99.2448 92.2243 99.0182 92.5576 98.7578 92.8857C98.5026 93.2139 98.2292 93.5368 97.9375 93.8545L94.8906 97.1592H100.594ZM109.742 97.1201V98.3467H103.719V97.1201H109.742ZM104.023 86.9717V98.3467H102.516V86.9717H104.023ZM108.945 91.8623V93.0889H103.719V91.8623H108.945ZM109.664 86.9717V88.2061H103.719V86.9717H109.664ZM118.922 94.5186V95.7061H110.703V94.8545L115.797 86.9717H116.977L115.711 89.2529L112.344 94.5186H118.922ZM117.336 86.9717V98.3467H115.891V86.9717H117.336ZM122.062 92.9326L120.906 92.6357L121.477 86.9717H127.312V88.3076H122.703L122.359 91.4014C122.568 91.2816 122.831 91.1696 123.148 91.0654C123.471 90.9613 123.841 90.9092 124.258 90.9092C124.784 90.9092 125.255 91.0003 125.672 91.1826C126.089 91.3597 126.443 91.6149 126.734 91.9482C127.031 92.2816 127.258 92.6826 127.414 93.1514C127.57 93.6201 127.648 94.1436 127.648 94.7217C127.648 95.2686 127.573 95.7712 127.422 96.2295C127.276 96.6878 127.055 97.0889 126.758 97.4326C126.461 97.7712 126.086 98.0342 125.633 98.2217C125.185 98.4092 124.656 98.5029 124.047 98.5029C123.589 98.5029 123.154 98.4404 122.742 98.3154C122.336 98.1852 121.971 97.9899 121.648 97.7295C121.331 97.4639 121.07 97.1357 120.867 96.7451C120.669 96.3493 120.544 95.8857 120.492 95.3545H121.867C121.93 95.7816 122.055 96.141 122.242 96.4326C122.43 96.7243 122.674 96.9456 122.977 97.0967C123.284 97.2425 123.641 97.3154 124.047 97.3154C124.391 97.3154 124.695 97.2555 124.961 97.1357C125.227 97.016 125.451 96.8441 125.633 96.6201C125.815 96.3962 125.953 96.1253 126.047 95.8076C126.146 95.4899 126.195 95.1331 126.195 94.7373C126.195 94.3779 126.146 94.0446 126.047 93.7373C125.948 93.43 125.799 93.1618 125.602 92.9326C125.409 92.7035 125.172 92.5264 124.891 92.4014C124.609 92.2712 124.286 92.2061 123.922 92.2061C123.438 92.2061 123.07 92.2712 122.82 92.4014C122.576 92.5316 122.323 92.7087 122.062 92.9326Z" fill="#838080"/>
</svg>
