<svg width="556" height="311" viewBox="0 0 556 311" fill="none" xmlns="http://www.w3.org/2000/svg">
<g filter="url(#filter0_d_478_1125)">
<rect x="50.8887" y="64.7139" width="212" height="207" rx="15.5" fill="white" stroke="#E0E0E0"/>
<path d="M72.6182 93.833H69.6572V92.2783H72.6182C73.1338 92.2783 73.5505 92.195 73.8682 92.0283C74.1859 91.8617 74.4176 91.6325 74.5635 91.3408C74.7145 91.0439 74.79 90.7054 74.79 90.3252C74.79 89.9658 74.7145 89.6299 74.5635 89.3174C74.4176 88.9997 74.1859 88.7445 73.8682 88.5518C73.5505 88.359 73.1338 88.2627 72.6182 88.2627H70.2588V98.0752H68.2979V86.7002H72.6182C73.4984 86.7002 74.2458 86.8564 74.8604 87.1689C75.4801 87.4762 75.9515 87.9033 76.2744 88.4502C76.5973 88.9919 76.7588 89.6117 76.7588 90.3096C76.7588 91.0439 76.5973 91.6742 76.2744 92.2002C75.9515 92.7262 75.4801 93.1299 74.8604 93.4111C74.2458 93.6924 73.4984 93.833 72.6182 93.833ZM80.4697 91.2314V98.0752H78.5869V89.6221H80.3838L80.4697 91.2314ZM83.0557 89.5674L83.04 91.3174C82.9255 91.2965 82.8005 91.2809 82.665 91.2705C82.5348 91.2601 82.4046 91.2549 82.2744 91.2549C81.9515 91.2549 81.6676 91.3018 81.4229 91.3955C81.1781 91.484 80.9723 91.6143 80.8057 91.7861C80.6442 91.9528 80.5192 92.1559 80.4307 92.3955C80.3421 92.6351 80.29 92.9033 80.2744 93.2002L79.8447 93.2314C79.8447 92.7002 79.8968 92.208 80.001 91.7549C80.1051 91.3018 80.2614 90.9033 80.4697 90.5596C80.6833 90.2158 80.9489 89.9476 81.2666 89.7549C81.5895 89.5622 81.9619 89.4658 82.3838 89.4658C82.4984 89.4658 82.6208 89.4762 82.751 89.4971C82.8864 89.5179 82.988 89.5413 83.0557 89.5674ZM83.9229 93.9424V93.7627C83.9229 93.1533 84.0114 92.5882 84.1885 92.0674C84.3656 91.5413 84.6208 91.0856 84.9541 90.7002C85.2926 90.3096 85.7041 90.0075 86.1885 89.7939C86.6781 89.5752 87.2301 89.4658 87.8447 89.4658C88.4645 89.4658 89.0166 89.5752 89.501 89.7939C89.9906 90.0075 90.4046 90.3096 90.7432 90.7002C91.0817 91.0856 91.3395 91.5413 91.5166 92.0674C91.6937 92.5882 91.7822 93.1533 91.7822 93.7627V93.9424C91.7822 94.5518 91.6937 95.1169 91.5166 95.6377C91.3395 96.1585 91.0817 96.6143 90.7432 97.0049C90.4046 97.3903 89.9932 97.6924 89.5088 97.9111C89.0244 98.1247 88.4749 98.2314 87.8604 98.2314C87.2406 98.2314 86.6859 98.1247 86.1963 97.9111C85.7119 97.6924 85.3005 97.3903 84.9619 97.0049C84.6234 96.6143 84.3656 96.1585 84.1885 95.6377C84.0114 95.1169 83.9229 94.5518 83.9229 93.9424ZM85.8057 93.7627V93.9424C85.8057 94.3226 85.8447 94.682 85.9229 95.0205C86.001 95.359 86.1234 95.6559 86.29 95.9111C86.4567 96.1663 86.6702 96.3669 86.9307 96.5127C87.1911 96.6585 87.501 96.7314 87.8604 96.7314C88.2093 96.7314 88.5114 96.6585 88.7666 96.5127C89.027 96.3669 89.2406 96.1663 89.4072 95.9111C89.5739 95.6559 89.6963 95.359 89.7744 95.0205C89.8577 94.682 89.8994 94.3226 89.8994 93.9424V93.7627C89.8994 93.3877 89.8577 93.0335 89.7744 92.7002C89.6963 92.3617 89.5713 92.0622 89.3994 91.8018C89.2327 91.5413 89.0192 91.3382 88.7588 91.1924C88.5036 91.0413 88.1989 90.9658 87.8447 90.9658C87.4906 90.9658 87.1833 91.0413 86.9229 91.1924C86.6676 91.3382 86.4567 91.5413 86.29 91.8018C86.1234 92.0622 86.001 92.3617 85.9229 92.7002C85.8447 93.0335 85.8057 93.3877 85.8057 93.7627ZM93.7041 89.6221H95.5947V98.8096C95.5947 99.3877 95.4958 99.8747 95.2979 100.271C95.0999 100.672 94.8083 100.974 94.4229 101.177C94.0374 101.385 93.5661 101.489 93.0088 101.489C92.8421 101.489 92.6702 101.476 92.4932 101.45C92.3109 101.429 92.139 101.398 91.9775 101.356L91.9854 99.8877C92.0947 99.9085 92.2119 99.9242 92.3369 99.9346C92.4567 99.9502 92.5713 99.958 92.6807 99.958C92.9046 99.958 93.0921 99.9189 93.2432 99.8408C93.3942 99.7627 93.5088 99.6403 93.5869 99.4736C93.665 99.307 93.7041 99.0856 93.7041 98.8096V89.6221ZM93.54 87.4033C93.54 87.1169 93.6364 86.8799 93.8291 86.6924C94.0218 86.4997 94.2848 86.4033 94.6182 86.4033C94.9567 86.4033 95.2197 86.4997 95.4072 86.6924C95.5999 86.8799 95.6963 87.1169 95.6963 87.4033C95.6963 87.6846 95.5999 87.9189 95.4072 88.1064C95.2197 88.2939 94.9567 88.3877 94.6182 88.3877C94.2848 88.3877 94.0218 88.2939 93.8291 88.1064C93.6364 87.9189 93.54 87.6846 93.54 87.4033ZM101.603 98.2314C100.978 98.2314 100.412 98.1299 99.9072 97.9268C99.4072 97.7184 98.9801 97.4294 98.626 97.0596C98.277 96.6898 98.0088 96.2549 97.8213 95.7549C97.6338 95.2549 97.54 94.7158 97.54 94.1377V93.8252C97.54 93.1637 97.6364 92.5648 97.8291 92.0283C98.0218 91.4919 98.29 91.0335 98.6338 90.6533C98.9775 90.2679 99.3838 89.9736 99.8525 89.7705C100.321 89.5674 100.829 89.4658 101.376 89.4658C101.98 89.4658 102.509 89.5674 102.962 89.7705C103.415 89.9736 103.79 90.2601 104.087 90.6299C104.389 90.9945 104.613 91.4294 104.759 91.9346C104.91 92.4398 104.985 92.9971 104.985 93.6064V94.4111H98.4541V93.0596H103.126V92.9111C103.116 92.5726 103.048 92.2549 102.923 91.958C102.803 91.6611 102.618 91.4215 102.368 91.2393C102.118 91.057 101.785 90.9658 101.368 90.9658C101.056 90.9658 100.777 91.0335 100.532 91.1689C100.293 91.2992 100.092 91.4893 99.9307 91.7393C99.7692 91.9893 99.6442 92.2913 99.5557 92.6455C99.4723 92.9945 99.4307 93.3877 99.4307 93.8252V94.1377C99.4307 94.5075 99.4801 94.8512 99.5791 95.1689C99.6833 95.4814 99.8343 95.7549 100.032 95.9893C100.23 96.2236 100.47 96.4085 100.751 96.5439C101.032 96.6742 101.353 96.7393 101.712 96.7393C102.165 96.7393 102.569 96.6481 102.923 96.4658C103.277 96.2835 103.584 96.0257 103.845 95.6924L104.837 96.6533C104.655 96.9189 104.418 97.1742 104.126 97.4189C103.834 97.6585 103.478 97.8538 103.056 98.0049C102.639 98.1559 102.155 98.2314 101.603 98.2314ZM110.157 96.7314C110.465 96.7314 110.741 96.6715 110.985 96.5518C111.235 96.4268 111.436 96.2549 111.587 96.0361C111.743 95.8174 111.829 95.5648 111.845 95.2783H113.618C113.608 95.8252 113.446 96.3226 113.134 96.7705C112.821 97.2184 112.407 97.5752 111.892 97.8408C111.376 98.1012 110.806 98.2314 110.181 98.2314C109.535 98.2314 108.972 98.1221 108.493 97.9033C108.014 97.6794 107.616 97.3721 107.298 96.9814C106.98 96.5908 106.741 96.1403 106.579 95.6299C106.423 95.1195 106.345 94.5726 106.345 93.9893V93.7158C106.345 93.1325 106.423 92.5856 106.579 92.0752C106.741 91.5596 106.98 91.1064 107.298 90.7158C107.616 90.3252 108.014 90.0205 108.493 89.8018C108.972 89.5778 109.532 89.4658 110.173 89.4658C110.85 89.4658 111.444 89.6012 111.954 89.8721C112.465 90.1377 112.866 90.5101 113.157 90.9893C113.454 91.4632 113.608 92.0153 113.618 92.6455H111.845C111.829 92.333 111.751 92.0518 111.61 91.8018C111.475 91.5465 111.282 91.3434 111.032 91.1924C110.787 91.0413 110.493 90.9658 110.149 90.9658C109.769 90.9658 109.454 91.0439 109.204 91.2002C108.954 91.3512 108.759 91.5596 108.618 91.8252C108.478 92.0856 108.376 92.3799 108.313 92.708C108.256 93.0309 108.228 93.3669 108.228 93.7158V93.9893C108.228 94.3382 108.256 94.6768 108.313 95.0049C108.371 95.333 108.47 95.6273 108.61 95.8877C108.756 96.1429 108.954 96.3486 109.204 96.5049C109.454 96.6559 109.772 96.7314 110.157 96.7314ZM119.188 89.6221V90.9971H114.423V89.6221H119.188ZM115.798 87.5518H117.681V95.7393C117.681 95.9997 117.717 96.2002 117.79 96.3408C117.868 96.4762 117.975 96.5674 118.11 96.6143C118.246 96.6611 118.405 96.6846 118.587 96.6846C118.717 96.6846 118.842 96.6768 118.962 96.6611C119.082 96.6455 119.178 96.6299 119.251 96.6143L119.259 98.0518C119.103 98.0986 118.92 98.1403 118.712 98.1768C118.509 98.2132 118.274 98.2314 118.009 98.2314C117.576 98.2314 117.194 98.1559 116.86 98.0049C116.527 97.8486 116.267 97.596 116.079 97.2471C115.892 96.8981 115.798 96.4346 115.798 95.8564V87.5518ZM134.384 92.0752V92.7002C134.384 93.5596 134.272 94.3304 134.048 95.0127C133.824 95.695 133.504 96.2757 133.087 96.7549C132.675 97.234 132.181 97.6012 131.603 97.8564C131.024 98.1064 130.384 98.2314 129.681 98.2314C128.983 98.2314 128.345 98.1064 127.767 97.8564C127.194 97.6012 126.696 97.234 126.274 96.7549C125.853 96.2757 125.524 95.695 125.29 95.0127C125.061 94.3304 124.946 93.5596 124.946 92.7002V92.0752C124.946 91.2158 125.061 90.4476 125.29 89.7705C125.519 89.0882 125.842 88.5075 126.259 88.0283C126.681 87.5439 127.178 87.1768 127.751 86.9268C128.329 86.6715 128.967 86.5439 129.665 86.5439C130.368 86.5439 131.009 86.6715 131.587 86.9268C132.165 87.1768 132.662 87.5439 133.079 88.0283C133.496 88.5075 133.816 89.0882 134.04 89.7705C134.269 90.4476 134.384 91.2158 134.384 92.0752ZM132.423 92.7002V92.0596C132.423 91.4242 132.36 90.8643 132.235 90.3799C132.116 89.8903 131.936 89.4814 131.696 89.1533C131.462 88.82 131.173 88.57 130.829 88.4033C130.485 88.2314 130.097 88.1455 129.665 88.1455C129.233 88.1455 128.847 88.2314 128.509 88.4033C128.17 88.57 127.881 88.82 127.642 89.1533C127.407 89.4814 127.228 89.8903 127.103 90.3799C126.978 90.8643 126.915 91.4242 126.915 92.0596V92.7002C126.915 93.3356 126.978 93.8981 127.103 94.3877C127.228 94.8773 127.41 95.2913 127.649 95.6299C127.894 95.9632 128.186 96.2158 128.524 96.3877C128.863 96.5544 129.248 96.6377 129.681 96.6377C130.118 96.6377 130.506 96.5544 130.845 96.3877C131.183 96.2158 131.47 95.9632 131.704 95.6299C131.938 95.2913 132.116 94.8773 132.235 94.3877C132.36 93.8981 132.423 93.3356 132.423 92.7002ZM138.298 91.2314V98.0752H136.415V89.6221H138.212L138.298 91.2314ZM140.884 89.5674L140.868 91.3174C140.754 91.2965 140.629 91.2809 140.493 91.2705C140.363 91.2601 140.233 91.2549 140.103 91.2549C139.78 91.2549 139.496 91.3018 139.251 91.3955C139.006 91.484 138.8 91.6143 138.634 91.7861C138.472 91.9528 138.347 92.1559 138.259 92.3955C138.17 92.6351 138.118 92.9033 138.103 93.2002L137.673 93.2314C137.673 92.7002 137.725 92.208 137.829 91.7549C137.933 91.3018 138.09 90.9033 138.298 90.5596C138.511 90.2158 138.777 89.9476 139.095 89.7549C139.418 89.5622 139.79 89.4658 140.212 89.4658C140.326 89.4658 140.449 89.4762 140.579 89.4971C140.715 89.5179 140.816 89.5413 140.884 89.5674ZM147.571 89.6221H149.282V97.8408C149.282 98.6012 149.121 99.2471 148.798 99.7783C148.475 100.31 148.024 100.713 147.446 100.989C146.868 101.271 146.199 101.411 145.438 101.411C145.116 101.411 144.756 101.364 144.36 101.271C143.97 101.177 143.59 101.026 143.22 100.817C142.855 100.614 142.55 100.346 142.306 100.013L143.188 98.9033C143.491 99.2627 143.824 99.5257 144.188 99.6924C144.553 99.859 144.936 99.9424 145.337 99.9424C145.769 99.9424 146.136 99.8617 146.438 99.7002C146.746 99.5439 146.983 99.3122 147.149 99.0049C147.316 98.6976 147.399 98.3226 147.399 97.8799V91.5361L147.571 89.6221ZM141.829 93.9424V93.7783C141.829 93.1377 141.907 92.5544 142.063 92.0283C142.22 91.4971 142.444 91.0413 142.735 90.6611C143.027 90.2757 143.381 89.9814 143.798 89.7783C144.215 89.57 144.686 89.4658 145.212 89.4658C145.759 89.4658 146.225 89.5648 146.61 89.7627C147.001 89.9606 147.326 90.2445 147.587 90.6143C147.847 90.9788 148.05 91.4163 148.196 91.9268C148.347 92.432 148.459 92.9945 148.532 93.6143V94.1377C148.465 94.7419 148.35 95.2939 148.188 95.7939C148.027 96.2939 147.813 96.7262 147.548 97.0908C147.282 97.4554 146.954 97.7367 146.563 97.9346C146.178 98.1325 145.722 98.2314 145.196 98.2314C144.681 98.2314 144.215 98.1247 143.798 97.9111C143.386 97.6976 143.032 97.3981 142.735 97.0127C142.444 96.6273 142.22 96.1742 142.063 95.6533C141.907 95.1273 141.829 94.557 141.829 93.9424ZM143.712 93.7783V93.9424C143.712 94.3278 143.748 94.6872 143.821 95.0205C143.899 95.3538 144.017 95.6481 144.173 95.9033C144.334 96.1533 144.537 96.3512 144.782 96.4971C145.032 96.6377 145.326 96.708 145.665 96.708C146.108 96.708 146.47 96.6143 146.751 96.4268C147.037 96.2393 147.256 95.9867 147.407 95.6689C147.563 95.346 147.673 94.9867 147.735 94.5908V93.1768C147.704 92.8695 147.639 92.583 147.54 92.3174C147.446 92.0518 147.319 91.82 147.157 91.6221C146.996 91.4189 146.793 91.2627 146.548 91.1533C146.303 91.0387 146.014 90.9814 145.681 90.9814C145.342 90.9814 145.048 91.0544 144.798 91.2002C144.548 91.346 144.342 91.5465 144.181 91.8018C144.024 92.057 143.907 92.3538 143.829 92.6924C143.751 93.0309 143.712 93.3929 143.712 93.7783ZM156.251 96.3799V92.3486C156.251 92.0465 156.196 91.7861 156.087 91.5674C155.978 91.3486 155.811 91.1794 155.587 91.0596C155.368 90.9398 155.092 90.8799 154.759 90.8799C154.451 90.8799 154.186 90.932 153.962 91.0361C153.738 91.1403 153.563 91.2809 153.438 91.458C153.313 91.6351 153.251 91.8356 153.251 92.0596H151.376C151.376 91.7262 151.457 91.4033 151.618 91.0908C151.78 90.7783 152.014 90.4997 152.321 90.2549C152.629 90.0101 152.996 89.8174 153.423 89.6768C153.85 89.5361 154.329 89.4658 154.86 89.4658C155.496 89.4658 156.058 89.5726 156.548 89.7861C157.043 89.9997 157.431 90.3226 157.712 90.7549C157.998 91.182 158.142 91.7184 158.142 92.3643V96.1221C158.142 96.5075 158.168 96.8538 158.22 97.1611C158.277 97.4632 158.358 97.7262 158.462 97.9502V98.0752H156.532C156.444 97.8721 156.373 97.6143 156.321 97.3018C156.274 96.984 156.251 96.6768 156.251 96.3799ZM156.524 92.9346L156.54 94.0986H155.188C154.84 94.0986 154.532 94.1325 154.267 94.2002C154.001 94.2627 153.78 94.3564 153.603 94.4814C153.425 94.6064 153.293 94.7575 153.204 94.9346C153.116 95.1117 153.071 95.3122 153.071 95.5361C153.071 95.7601 153.123 95.9658 153.228 96.1533C153.332 96.3356 153.483 96.4788 153.681 96.583C153.884 96.6872 154.129 96.7393 154.415 96.7393C154.8 96.7393 155.136 96.6611 155.423 96.5049C155.715 96.3434 155.944 96.1481 156.11 95.9189C156.277 95.6846 156.366 95.4632 156.376 95.2549L156.985 96.0908C156.923 96.3044 156.816 96.5335 156.665 96.7783C156.514 97.0231 156.316 97.2575 156.071 97.4814C155.832 97.7002 155.543 97.8799 155.204 98.0205C154.871 98.1611 154.485 98.2314 154.048 98.2314C153.496 98.2314 153.004 98.1221 152.571 97.9033C152.139 97.6794 151.8 97.3799 151.556 97.0049C151.311 96.6247 151.188 96.195 151.188 95.7158C151.188 95.2679 151.272 94.8721 151.438 94.5283C151.61 94.1794 151.86 93.8877 152.188 93.6533C152.522 93.4189 152.928 93.2419 153.407 93.1221C153.886 92.9971 154.433 92.9346 155.048 92.9346H156.524ZM162.228 91.4268V98.0752H160.345V89.6221H162.118L162.228 91.4268ZM161.892 93.5361L161.282 93.5283C161.287 92.9294 161.371 92.3799 161.532 91.8799C161.699 91.3799 161.928 90.9502 162.22 90.5908C162.517 90.2314 162.871 89.9554 163.282 89.7627C163.694 89.5648 164.152 89.4658 164.657 89.4658C165.063 89.4658 165.431 89.5231 165.759 89.6377C166.092 89.7471 166.376 89.9268 166.61 90.1768C166.85 90.4268 167.032 90.7523 167.157 91.1533C167.282 91.5492 167.345 92.0361 167.345 92.6143V98.0752H165.454V92.6064C165.454 92.2002 165.394 91.8799 165.274 91.6455C165.16 91.4059 164.991 91.2367 164.767 91.1377C164.548 91.0335 164.274 90.9814 163.946 90.9814C163.623 90.9814 163.334 91.0492 163.079 91.1846C162.824 91.32 162.608 91.5049 162.431 91.7393C162.259 91.9736 162.126 92.2445 162.032 92.5518C161.938 92.859 161.892 93.1872 161.892 93.5361ZM171.532 89.6221V98.0752H169.642V89.6221H171.532ZM169.517 87.4033C169.517 87.1169 169.61 86.8799 169.798 86.6924C169.991 86.4997 170.256 86.4033 170.595 86.4033C170.928 86.4033 171.191 86.4997 171.384 86.6924C171.576 86.8799 171.673 87.1169 171.673 87.4033C171.673 87.6846 171.576 87.9189 171.384 88.1064C171.191 88.2939 170.928 88.3877 170.595 88.3877C170.256 88.3877 169.991 88.2939 169.798 88.1064C169.61 87.9189 169.517 87.6846 169.517 87.4033ZM178.587 95.7861C178.587 95.5986 178.54 95.4294 178.446 95.2783C178.353 95.1221 178.173 94.9814 177.907 94.8564C177.647 94.7314 177.261 94.6169 176.751 94.5127C176.303 94.4137 175.892 94.2965 175.517 94.1611C175.147 94.0205 174.829 93.8512 174.563 93.6533C174.298 93.4554 174.092 93.221 173.946 92.9502C173.8 92.6794 173.728 92.3669 173.728 92.0127C173.728 91.6689 173.803 91.3434 173.954 91.0361C174.105 90.7288 174.321 90.458 174.603 90.2236C174.884 89.9893 175.225 89.8044 175.626 89.6689C176.032 89.5335 176.485 89.4658 176.985 89.4658C177.694 89.4658 178.3 89.5856 178.806 89.8252C179.316 90.0596 179.707 90.3799 179.978 90.7861C180.248 91.1872 180.384 91.6403 180.384 92.1455H178.501C178.501 91.9215 178.444 91.7132 178.329 91.5205C178.22 91.3226 178.053 91.1637 177.829 91.0439C177.605 90.9189 177.324 90.8564 176.985 90.8564C176.662 90.8564 176.394 90.9085 176.181 91.0127C175.972 91.1117 175.816 91.2419 175.712 91.4033C175.613 91.5648 175.563 91.7419 175.563 91.9346C175.563 92.0752 175.59 92.2028 175.642 92.3174C175.699 92.4268 175.793 92.5283 175.923 92.6221C176.053 92.7106 176.23 92.7939 176.454 92.8721C176.683 92.9502 176.97 93.0257 177.313 93.0986C177.959 93.234 178.514 93.4085 178.978 93.6221C179.446 93.8304 179.806 94.1012 180.056 94.4346C180.306 94.7627 180.431 95.1794 180.431 95.6846C180.431 96.0596 180.35 96.4033 180.188 96.7158C180.032 97.0231 179.803 97.2913 179.501 97.5205C179.199 97.7445 178.837 97.9189 178.415 98.0439C177.998 98.1689 177.53 98.2314 177.009 98.2314C176.243 98.2314 175.595 98.096 175.063 97.8252C174.532 97.5492 174.129 97.1976 173.853 96.7705C173.582 96.3382 173.446 95.8903 173.446 95.4268H175.267C175.287 95.7757 175.384 96.0544 175.556 96.2627C175.733 96.4658 175.951 96.6143 176.212 96.708C176.478 96.7965 176.751 96.8408 177.032 96.8408C177.371 96.8408 177.655 96.7965 177.884 96.708C178.113 96.6143 178.287 96.4893 178.407 96.333C178.527 96.1715 178.587 95.9893 178.587 95.7861ZM187.095 96.3799V92.3486C187.095 92.0465 187.04 91.7861 186.931 91.5674C186.821 91.3486 186.655 91.1794 186.431 91.0596C186.212 90.9398 185.936 90.8799 185.603 90.8799C185.295 90.8799 185.03 90.932 184.806 91.0361C184.582 91.1403 184.407 91.2809 184.282 91.458C184.157 91.6351 184.095 91.8356 184.095 92.0596H182.22C182.22 91.7262 182.3 91.4033 182.462 91.0908C182.623 90.7783 182.858 90.4997 183.165 90.2549C183.472 90.0101 183.84 89.8174 184.267 89.6768C184.694 89.5361 185.173 89.4658 185.704 89.4658C186.34 89.4658 186.902 89.5726 187.392 89.7861C187.886 89.9997 188.274 90.3226 188.556 90.7549C188.842 91.182 188.985 91.7184 188.985 92.3643V96.1221C188.985 96.5075 189.011 96.8538 189.063 97.1611C189.121 97.4632 189.201 97.7262 189.306 97.9502V98.0752H187.376C187.287 97.8721 187.217 97.6143 187.165 97.3018C187.118 96.984 187.095 96.6768 187.095 96.3799ZM187.368 92.9346L187.384 94.0986H186.032C185.683 94.0986 185.376 94.1325 185.11 94.2002C184.845 94.2627 184.623 94.3564 184.446 94.4814C184.269 94.6064 184.136 94.7575 184.048 94.9346C183.959 95.1117 183.915 95.3122 183.915 95.5361C183.915 95.7601 183.967 95.9658 184.071 96.1533C184.175 96.3356 184.326 96.4788 184.524 96.583C184.728 96.6872 184.972 96.7393 185.259 96.7393C185.644 96.7393 185.98 96.6611 186.267 96.5049C186.558 96.3434 186.787 96.1481 186.954 95.9189C187.121 95.6846 187.209 95.4632 187.22 95.2549L187.829 96.0908C187.767 96.3044 187.66 96.5335 187.509 96.7783C187.358 97.0231 187.16 97.2575 186.915 97.4814C186.675 97.7002 186.386 97.8799 186.048 98.0205C185.715 98.1611 185.329 98.2314 184.892 98.2314C184.34 98.2314 183.847 98.1221 183.415 97.9033C182.983 97.6794 182.644 97.3799 182.399 97.0049C182.155 96.6247 182.032 96.195 182.032 95.7158C182.032 95.2679 182.116 94.8721 182.282 94.5283C182.454 94.1794 182.704 93.8877 183.032 93.6533C183.366 93.4189 183.772 93.2419 184.251 93.1221C184.73 92.9971 185.277 92.9346 185.892 92.9346H187.368ZM195.079 89.6221V90.9971H190.313V89.6221H195.079ZM191.688 87.5518H193.571V95.7393C193.571 95.9997 193.608 96.2002 193.681 96.3408C193.759 96.4762 193.866 96.5674 194.001 96.6143C194.136 96.6611 194.295 96.6846 194.478 96.6846C194.608 96.6846 194.733 96.6768 194.853 96.6611C194.972 96.6455 195.069 96.6299 195.142 96.6143L195.149 98.0518C194.993 98.0986 194.811 98.1403 194.603 98.1768C194.399 98.2132 194.165 98.2314 193.899 98.2314C193.467 98.2314 193.084 98.1559 192.751 98.0049C192.418 97.8486 192.157 97.596 191.97 97.2471C191.782 96.8981 191.688 96.4346 191.688 95.8564V87.5518ZM198.798 89.6221V98.0752H196.907V89.6221H198.798ZM196.782 87.4033C196.782 87.1169 196.876 86.8799 197.063 86.6924C197.256 86.4997 197.522 86.4033 197.86 86.4033C198.194 86.4033 198.457 86.4997 198.649 86.6924C198.842 86.8799 198.938 87.1169 198.938 87.4033C198.938 87.6846 198.842 87.9189 198.649 88.1064C198.457 88.2939 198.194 88.3877 197.86 88.3877C197.522 88.3877 197.256 88.2939 197.063 88.1064C196.876 87.9189 196.782 87.6846 196.782 87.4033ZM200.751 93.9424V93.7627C200.751 93.1533 200.84 92.5882 201.017 92.0674C201.194 91.5413 201.449 91.0856 201.782 90.7002C202.121 90.3096 202.532 90.0075 203.017 89.7939C203.506 89.5752 204.058 89.4658 204.673 89.4658C205.293 89.4658 205.845 89.5752 206.329 89.7939C206.819 90.0075 207.233 90.3096 207.571 90.7002C207.91 91.0856 208.168 91.5413 208.345 92.0674C208.522 92.5882 208.61 93.1533 208.61 93.7627V93.9424C208.61 94.5518 208.522 95.1169 208.345 95.6377C208.168 96.1585 207.91 96.6143 207.571 97.0049C207.233 97.3903 206.821 97.6924 206.337 97.9111C205.853 98.1247 205.303 98.2314 204.688 98.2314C204.069 98.2314 203.514 98.1247 203.024 97.9111C202.54 97.6924 202.129 97.3903 201.79 97.0049C201.451 96.6143 201.194 96.1585 201.017 95.6377C200.84 95.1169 200.751 94.5518 200.751 93.9424ZM202.634 93.7627V93.9424C202.634 94.3226 202.673 94.682 202.751 95.0205C202.829 95.359 202.951 95.6559 203.118 95.9111C203.285 96.1663 203.498 96.3669 203.759 96.5127C204.019 96.6585 204.329 96.7314 204.688 96.7314C205.037 96.7314 205.34 96.6585 205.595 96.5127C205.855 96.3669 206.069 96.1663 206.235 95.9111C206.402 95.6559 206.524 95.359 206.603 95.0205C206.686 94.682 206.728 94.3226 206.728 93.9424V93.7627C206.728 93.3877 206.686 93.0335 206.603 92.7002C206.524 92.3617 206.399 92.0622 206.228 91.8018C206.061 91.5413 205.847 91.3382 205.587 91.1924C205.332 91.0413 205.027 90.9658 204.673 90.9658C204.319 90.9658 204.011 91.0413 203.751 91.1924C203.496 91.3382 203.285 91.5413 203.118 91.8018C202.951 92.0622 202.829 92.3617 202.751 92.7002C202.673 93.0335 202.634 93.3877 202.634 93.7627ZM212.306 91.4268V98.0752H210.423V89.6221H212.196L212.306 91.4268ZM211.97 93.5361L211.36 93.5283C211.366 92.9294 211.449 92.3799 211.61 91.8799C211.777 91.3799 212.006 90.9502 212.298 90.5908C212.595 90.2314 212.949 89.9554 213.36 89.7627C213.772 89.5648 214.23 89.4658 214.735 89.4658C215.142 89.4658 215.509 89.5231 215.837 89.6377C216.17 89.7471 216.454 89.9268 216.688 90.1768C216.928 90.4268 217.11 90.7523 217.235 91.1533C217.36 91.5492 217.423 92.0361 217.423 92.6143V98.0752H215.532V92.6064C215.532 92.2002 215.472 91.8799 215.353 91.6455C215.238 91.4059 215.069 91.2367 214.845 91.1377C214.626 91.0335 214.353 90.9814 214.024 90.9814C213.701 90.9814 213.412 91.0492 213.157 91.1846C212.902 91.32 212.686 91.5049 212.509 91.7393C212.337 91.9736 212.204 92.2445 212.11 92.5518C212.017 92.859 211.97 93.1872 211.97 93.5361ZM224.337 95.7861C224.337 95.5986 224.29 95.4294 224.196 95.2783C224.103 95.1221 223.923 94.9814 223.657 94.8564C223.397 94.7314 223.011 94.6169 222.501 94.5127C222.053 94.4137 221.642 94.2965 221.267 94.1611C220.897 94.0205 220.579 93.8512 220.313 93.6533C220.048 93.4554 219.842 93.221 219.696 92.9502C219.55 92.6794 219.478 92.3669 219.478 92.0127C219.478 91.6689 219.553 91.3434 219.704 91.0361C219.855 90.7288 220.071 90.458 220.353 90.2236C220.634 89.9893 220.975 89.8044 221.376 89.6689C221.782 89.5335 222.235 89.4658 222.735 89.4658C223.444 89.4658 224.05 89.5856 224.556 89.8252C225.066 90.0596 225.457 90.3799 225.728 90.7861C225.998 91.1872 226.134 91.6403 226.134 92.1455H224.251C224.251 91.9215 224.194 91.7132 224.079 91.5205C223.97 91.3226 223.803 91.1637 223.579 91.0439C223.355 90.9189 223.074 90.8564 222.735 90.8564C222.412 90.8564 222.144 90.9085 221.931 91.0127C221.722 91.1117 221.566 91.2419 221.462 91.4033C221.363 91.5648 221.313 91.7419 221.313 91.9346C221.313 92.0752 221.34 92.2028 221.392 92.3174C221.449 92.4268 221.543 92.5283 221.673 92.6221C221.803 92.7106 221.98 92.7939 222.204 92.8721C222.433 92.9502 222.72 93.0257 223.063 93.0986C223.709 93.234 224.264 93.4085 224.728 93.6221C225.196 93.8304 225.556 94.1012 225.806 94.4346C226.056 94.7627 226.181 95.1794 226.181 95.6846C226.181 96.0596 226.1 96.4033 225.938 96.7158C225.782 97.0231 225.553 97.2913 225.251 97.5205C224.949 97.7445 224.587 97.9189 224.165 98.0439C223.748 98.1689 223.28 98.2314 222.759 98.2314C221.993 98.2314 221.345 98.096 220.813 97.8252C220.282 97.5492 219.879 97.1976 219.603 96.7705C219.332 96.3382 219.196 95.8903 219.196 95.4268H221.017C221.037 95.7757 221.134 96.0544 221.306 96.2627C221.483 96.4658 221.701 96.6143 221.962 96.708C222.228 96.7965 222.501 96.8408 222.782 96.8408C223.121 96.8408 223.405 96.7965 223.634 96.708C223.863 96.6143 224.037 96.4893 224.157 96.333C224.277 96.1715 224.337 95.9893 224.337 95.7861Z" fill="#112E45"/>
<path d="M147.006 179.38H152.631C154.818 179.38 156.628 179.002 158.061 178.247C159.519 177.492 160.6 176.45 161.303 175.122C162.006 173.794 162.357 172.271 162.357 170.552C162.357 168.755 162.032 167.218 161.381 165.942C160.756 164.64 159.792 163.638 158.49 162.935C157.214 162.231 155.587 161.88 153.607 161.88C151.941 161.88 150.43 162.218 149.076 162.896C147.748 163.547 146.693 164.484 145.912 165.708C145.131 166.906 144.74 168.338 144.74 170.005H135.287C135.287 166.984 136.081 164.302 137.67 161.958C139.258 159.614 141.42 157.778 144.154 156.45C146.915 155.096 150.014 154.419 153.451 154.419C157.123 154.419 160.326 155.031 163.061 156.255C165.821 157.453 167.969 159.25 169.506 161.646C171.042 164.041 171.811 167.01 171.811 170.552C171.811 172.166 171.433 173.807 170.678 175.474C169.923 177.14 168.803 178.664 167.318 180.044C165.834 181.398 163.985 182.505 161.771 183.364C159.558 184.198 156.993 184.614 154.076 184.614H147.006V179.38ZM147.006 186.724V181.567H154.076C157.41 181.567 160.248 181.958 162.592 182.739C164.962 183.521 166.889 184.601 168.373 185.981C169.857 187.336 170.938 188.885 171.615 190.63C172.318 192.375 172.67 194.224 172.67 196.177C172.67 198.833 172.188 201.203 171.225 203.286C170.287 205.343 168.946 207.088 167.201 208.521C165.456 209.953 163.412 211.034 161.068 211.763C158.751 212.492 156.225 212.856 153.49 212.856C151.042 212.856 148.699 212.518 146.459 211.841C144.219 211.164 142.214 210.161 140.443 208.833C138.673 207.479 137.266 205.799 136.225 203.794C135.209 201.763 134.701 199.419 134.701 196.763H144.115C144.115 198.455 144.506 199.953 145.287 201.255C146.094 202.531 147.214 203.534 148.646 204.263C150.105 204.992 151.771 205.356 153.646 205.356C155.626 205.356 157.331 205.005 158.764 204.302C160.196 203.599 161.29 202.557 162.045 201.177C162.826 199.797 163.217 198.13 163.217 196.177C163.217 193.963 162.787 192.166 161.928 190.786C161.068 189.406 159.844 188.39 158.256 187.739C156.667 187.062 154.792 186.724 152.631 186.724H147.006Z" fill="#112E45"/>
</g>
<g filter="url(#filter1_d_478_1125)">
<rect x="292.7" y="65.2139" width="211" height="206" rx="15" fill="white" stroke="#FF1546" stroke-width="2"/>
<path d="M313.93 93.833H310.969V92.2783H313.93C314.445 92.2783 314.862 92.195 315.18 92.0283C315.497 91.8617 315.729 91.6325 315.875 91.3408C316.026 91.0439 316.102 90.7054 316.102 90.3252C316.102 89.9658 316.026 89.6299 315.875 89.3174C315.729 88.9997 315.497 88.7445 315.18 88.5518C314.862 88.359 314.445 88.2627 313.93 88.2627H311.57V98.0752H309.609V86.7002H313.93C314.81 86.7002 315.557 86.8564 316.172 87.1689C316.792 87.4762 317.263 87.9033 317.586 88.4502C317.909 88.9919 318.07 89.6117 318.07 90.3096C318.07 91.0439 317.909 91.6742 317.586 92.2002C317.263 92.7262 316.792 93.1299 316.172 93.4111C315.557 93.6924 314.81 93.833 313.93 93.833ZM321.781 91.2314V98.0752H319.898V89.6221H321.695L321.781 91.2314ZM324.367 89.5674L324.352 91.3174C324.237 91.2965 324.112 91.2809 323.977 91.2705C323.846 91.2601 323.716 91.2549 323.586 91.2549C323.263 91.2549 322.979 91.3018 322.734 91.3955C322.49 91.484 322.284 91.6143 322.117 91.7861C321.956 91.9528 321.831 92.1559 321.742 92.3955C321.654 92.6351 321.602 92.9033 321.586 93.2002L321.156 93.2314C321.156 92.7002 321.208 92.208 321.312 91.7549C321.417 91.3018 321.573 90.9033 321.781 90.5596C321.995 90.2158 322.26 89.9476 322.578 89.7549C322.901 89.5622 323.273 89.4658 323.695 89.4658C323.81 89.4658 323.932 89.4762 324.062 89.4971C324.198 89.5179 324.299 89.5413 324.367 89.5674ZM325.234 93.9424V93.7627C325.234 93.1533 325.323 92.5882 325.5 92.0674C325.677 91.5413 325.932 91.0856 326.266 90.7002C326.604 90.3096 327.016 90.0075 327.5 89.7939C327.99 89.5752 328.542 89.4658 329.156 89.4658C329.776 89.4658 330.328 89.5752 330.812 89.7939C331.302 90.0075 331.716 90.3096 332.055 90.7002C332.393 91.0856 332.651 91.5413 332.828 92.0674C333.005 92.5882 333.094 93.1533 333.094 93.7627V93.9424C333.094 94.5518 333.005 95.1169 332.828 95.6377C332.651 96.1585 332.393 96.6143 332.055 97.0049C331.716 97.3903 331.305 97.6924 330.82 97.9111C330.336 98.1247 329.786 98.2314 329.172 98.2314C328.552 98.2314 327.997 98.1247 327.508 97.9111C327.023 97.6924 326.612 97.3903 326.273 97.0049C325.935 96.6143 325.677 96.1585 325.5 95.6377C325.323 95.1169 325.234 94.5518 325.234 93.9424ZM327.117 93.7627V93.9424C327.117 94.3226 327.156 94.682 327.234 95.0205C327.312 95.359 327.435 95.6559 327.602 95.9111C327.768 96.1663 327.982 96.3669 328.242 96.5127C328.503 96.6585 328.812 96.7314 329.172 96.7314C329.521 96.7314 329.823 96.6585 330.078 96.5127C330.339 96.3669 330.552 96.1663 330.719 95.9111C330.885 95.6559 331.008 95.359 331.086 95.0205C331.169 94.682 331.211 94.3226 331.211 93.9424V93.7627C331.211 93.3877 331.169 93.0335 331.086 92.7002C331.008 92.3617 330.883 92.0622 330.711 91.8018C330.544 91.5413 330.331 91.3382 330.07 91.1924C329.815 91.0413 329.51 90.9658 329.156 90.9658C328.802 90.9658 328.495 91.0413 328.234 91.1924C327.979 91.3382 327.768 91.5413 327.602 91.8018C327.435 92.0622 327.312 92.3617 327.234 92.7002C327.156 93.0335 327.117 93.3877 327.117 93.7627ZM335.016 89.6221H336.906V98.8096C336.906 99.3877 336.807 99.8747 336.609 100.271C336.411 100.672 336.12 100.974 335.734 101.177C335.349 101.385 334.878 101.489 334.32 101.489C334.154 101.489 333.982 101.476 333.805 101.45C333.622 101.429 333.451 101.398 333.289 101.356L333.297 99.8877C333.406 99.9085 333.523 99.9242 333.648 99.9346C333.768 99.9502 333.883 99.958 333.992 99.958C334.216 99.958 334.404 99.9189 334.555 99.8408C334.706 99.7627 334.82 99.6403 334.898 99.4736C334.977 99.307 335.016 99.0856 335.016 98.8096V89.6221ZM334.852 87.4033C334.852 87.1169 334.948 86.8799 335.141 86.6924C335.333 86.4997 335.596 86.4033 335.93 86.4033C336.268 86.4033 336.531 86.4997 336.719 86.6924C336.911 86.8799 337.008 87.1169 337.008 87.4033C337.008 87.6846 336.911 87.9189 336.719 88.1064C336.531 88.2939 336.268 88.3877 335.93 88.3877C335.596 88.3877 335.333 88.2939 335.141 88.1064C334.948 87.9189 334.852 87.6846 334.852 87.4033ZM342.914 98.2314C342.289 98.2314 341.724 98.1299 341.219 97.9268C340.719 97.7184 340.292 97.4294 339.938 97.0596C339.589 96.6898 339.32 96.2549 339.133 95.7549C338.945 95.2549 338.852 94.7158 338.852 94.1377V93.8252C338.852 93.1637 338.948 92.5648 339.141 92.0283C339.333 91.4919 339.602 91.0335 339.945 90.6533C340.289 90.2679 340.695 89.9736 341.164 89.7705C341.633 89.5674 342.141 89.4658 342.688 89.4658C343.292 89.4658 343.82 89.5674 344.273 89.7705C344.727 89.9736 345.102 90.2601 345.398 90.6299C345.701 90.9945 345.924 91.4294 346.07 91.9346C346.221 92.4398 346.297 92.9971 346.297 93.6064V94.4111H339.766V93.0596H344.438V92.9111C344.427 92.5726 344.359 92.2549 344.234 91.958C344.115 91.6611 343.93 91.4215 343.68 91.2393C343.43 91.057 343.096 90.9658 342.68 90.9658C342.367 90.9658 342.089 91.0335 341.844 91.1689C341.604 91.2992 341.404 91.4893 341.242 91.7393C341.081 91.9893 340.956 92.2913 340.867 92.6455C340.784 92.9945 340.742 93.3877 340.742 93.8252V94.1377C340.742 94.5075 340.792 94.8512 340.891 95.1689C340.995 95.4814 341.146 95.7549 341.344 95.9893C341.542 96.2236 341.781 96.4085 342.062 96.5439C342.344 96.6742 342.664 96.7393 343.023 96.7393C343.477 96.7393 343.88 96.6481 344.234 96.4658C344.589 96.2835 344.896 96.0257 345.156 95.6924L346.148 96.6533C345.966 96.9189 345.729 97.1742 345.438 97.4189C345.146 97.6585 344.789 97.8538 344.367 98.0049C343.951 98.1559 343.466 98.2314 342.914 98.2314ZM351.469 96.7314C351.776 96.7314 352.052 96.6715 352.297 96.5518C352.547 96.4268 352.747 96.2549 352.898 96.0361C353.055 95.8174 353.141 95.5648 353.156 95.2783H354.93C354.919 95.8252 354.758 96.3226 354.445 96.7705C354.133 97.2184 353.719 97.5752 353.203 97.8408C352.688 98.1012 352.117 98.2314 351.492 98.2314C350.846 98.2314 350.284 98.1221 349.805 97.9033C349.326 97.6794 348.927 97.3721 348.609 96.9814C348.292 96.5908 348.052 96.1403 347.891 95.6299C347.734 95.1195 347.656 94.5726 347.656 93.9893V93.7158C347.656 93.1325 347.734 92.5856 347.891 92.0752C348.052 91.5596 348.292 91.1064 348.609 90.7158C348.927 90.3252 349.326 90.0205 349.805 89.8018C350.284 89.5778 350.844 89.4658 351.484 89.4658C352.161 89.4658 352.755 89.6012 353.266 89.8721C353.776 90.1377 354.177 90.5101 354.469 90.9893C354.766 91.4632 354.919 92.0153 354.93 92.6455H353.156C353.141 92.333 353.062 92.0518 352.922 91.8018C352.786 91.5465 352.594 91.3434 352.344 91.1924C352.099 91.0413 351.805 90.9658 351.461 90.9658C351.081 90.9658 350.766 91.0439 350.516 91.2002C350.266 91.3512 350.07 91.5596 349.93 91.8252C349.789 92.0856 349.688 92.3799 349.625 92.708C349.568 93.0309 349.539 93.3669 349.539 93.7158V93.9893C349.539 94.3382 349.568 94.6768 349.625 95.0049C349.682 95.333 349.781 95.6273 349.922 95.8877C350.068 96.1429 350.266 96.3486 350.516 96.5049C350.766 96.6559 351.083 96.7314 351.469 96.7314ZM360.5 89.6221V90.9971H355.734V89.6221H360.5ZM357.109 87.5518H358.992V95.7393C358.992 95.9997 359.029 96.2002 359.102 96.3408C359.18 96.4762 359.286 96.5674 359.422 96.6143C359.557 96.6611 359.716 96.6846 359.898 96.6846C360.029 96.6846 360.154 96.6768 360.273 96.6611C360.393 96.6455 360.49 96.6299 360.562 96.6143L360.57 98.0518C360.414 98.0986 360.232 98.1403 360.023 98.1768C359.82 98.2132 359.586 98.2314 359.32 98.2314C358.888 98.2314 358.505 98.1559 358.172 98.0049C357.839 97.8486 357.578 97.596 357.391 97.2471C357.203 96.8981 357.109 96.4346 357.109 95.8564V87.5518ZM375.695 92.0752V92.7002C375.695 93.5596 375.583 94.3304 375.359 95.0127C375.135 95.695 374.815 96.2757 374.398 96.7549C373.987 97.234 373.492 97.6012 372.914 97.8564C372.336 98.1064 371.695 98.2314 370.992 98.2314C370.294 98.2314 369.656 98.1064 369.078 97.8564C368.505 97.6012 368.008 97.234 367.586 96.7549C367.164 96.2757 366.836 95.695 366.602 95.0127C366.372 94.3304 366.258 93.5596 366.258 92.7002V92.0752C366.258 91.2158 366.372 90.4476 366.602 89.7705C366.831 89.0882 367.154 88.5075 367.57 88.0283C367.992 87.5439 368.49 87.1768 369.062 86.9268C369.641 86.6715 370.279 86.5439 370.977 86.5439C371.68 86.5439 372.32 86.6715 372.898 86.9268C373.477 87.1768 373.974 87.5439 374.391 88.0283C374.807 88.5075 375.128 89.0882 375.352 89.7705C375.581 90.4476 375.695 91.2158 375.695 92.0752ZM373.734 92.7002V92.0596C373.734 91.4242 373.672 90.8643 373.547 90.3799C373.427 89.8903 373.247 89.4814 373.008 89.1533C372.773 88.82 372.484 88.57 372.141 88.4033C371.797 88.2314 371.409 88.1455 370.977 88.1455C370.544 88.1455 370.159 88.2314 369.82 88.4033C369.482 88.57 369.193 88.82 368.953 89.1533C368.719 89.4814 368.539 89.8903 368.414 90.3799C368.289 90.8643 368.227 91.4242 368.227 92.0596V92.7002C368.227 93.3356 368.289 93.8981 368.414 94.3877C368.539 94.8773 368.721 95.2913 368.961 95.6299C369.206 95.9632 369.497 96.2158 369.836 96.3877C370.174 96.5544 370.56 96.6377 370.992 96.6377C371.43 96.6377 371.818 96.5544 372.156 96.3877C372.495 96.2158 372.781 95.9632 373.016 95.6299C373.25 95.2913 373.427 94.8773 373.547 94.3877C373.672 93.8981 373.734 93.3356 373.734 92.7002ZM379.609 91.2314V98.0752H377.727V89.6221H379.523L379.609 91.2314ZM382.195 89.5674L382.18 91.3174C382.065 91.2965 381.94 91.2809 381.805 91.2705C381.674 91.2601 381.544 91.2549 381.414 91.2549C381.091 91.2549 380.807 91.3018 380.562 91.3955C380.318 91.484 380.112 91.6143 379.945 91.7861C379.784 91.9528 379.659 92.1559 379.57 92.3955C379.482 92.6351 379.43 92.9033 379.414 93.2002L378.984 93.2314C378.984 92.7002 379.036 92.208 379.141 91.7549C379.245 91.3018 379.401 90.9033 379.609 90.5596C379.823 90.2158 380.089 89.9476 380.406 89.7549C380.729 89.5622 381.102 89.4658 381.523 89.4658C381.638 89.4658 381.76 89.4762 381.891 89.4971C382.026 89.5179 382.128 89.5413 382.195 89.5674ZM388.883 89.6221H390.594V97.8408C390.594 98.6012 390.432 99.2471 390.109 99.7783C389.786 100.31 389.336 100.713 388.758 100.989C388.18 101.271 387.51 101.411 386.75 101.411C386.427 101.411 386.068 101.364 385.672 101.271C385.281 101.177 384.901 101.026 384.531 100.817C384.167 100.614 383.862 100.346 383.617 100.013L384.5 98.9033C384.802 99.2627 385.135 99.5257 385.5 99.6924C385.865 99.859 386.247 99.9424 386.648 99.9424C387.081 99.9424 387.448 99.8617 387.75 99.7002C388.057 99.5439 388.294 99.3122 388.461 99.0049C388.628 98.6976 388.711 98.3226 388.711 97.8799V91.5361L388.883 89.6221ZM383.141 93.9424V93.7783C383.141 93.1377 383.219 92.5544 383.375 92.0283C383.531 91.4971 383.755 91.0413 384.047 90.6611C384.339 90.2757 384.693 89.9814 385.109 89.7783C385.526 89.57 385.997 89.4658 386.523 89.4658C387.07 89.4658 387.536 89.5648 387.922 89.7627C388.312 89.9606 388.638 90.2445 388.898 90.6143C389.159 90.9788 389.362 91.4163 389.508 91.9268C389.659 92.432 389.771 92.9945 389.844 93.6143V94.1377C389.776 94.7419 389.661 95.2939 389.5 95.7939C389.339 96.2939 389.125 96.7262 388.859 97.0908C388.594 97.4554 388.266 97.7367 387.875 97.9346C387.49 98.1325 387.034 98.2314 386.508 98.2314C385.992 98.2314 385.526 98.1247 385.109 97.9111C384.698 97.6976 384.344 97.3981 384.047 97.0127C383.755 96.6273 383.531 96.1742 383.375 95.6533C383.219 95.1273 383.141 94.557 383.141 93.9424ZM385.023 93.7783V93.9424C385.023 94.3278 385.06 94.6872 385.133 95.0205C385.211 95.3538 385.328 95.6481 385.484 95.9033C385.646 96.1533 385.849 96.3512 386.094 96.4971C386.344 96.6377 386.638 96.708 386.977 96.708C387.419 96.708 387.781 96.6143 388.062 96.4268C388.349 96.2393 388.568 95.9867 388.719 95.6689C388.875 95.346 388.984 94.9867 389.047 94.5908V93.1768C389.016 92.8695 388.951 92.583 388.852 92.3174C388.758 92.0518 388.63 91.82 388.469 91.6221C388.307 91.4189 388.104 91.2627 387.859 91.1533C387.615 91.0387 387.326 90.9814 386.992 90.9814C386.654 90.9814 386.359 91.0544 386.109 91.2002C385.859 91.346 385.654 91.5465 385.492 91.8018C385.336 92.057 385.219 92.3538 385.141 92.6924C385.062 93.0309 385.023 93.3929 385.023 93.7783ZM397.562 96.3799V92.3486C397.562 92.0465 397.508 91.7861 397.398 91.5674C397.289 91.3486 397.122 91.1794 396.898 91.0596C396.68 90.9398 396.404 90.8799 396.07 90.8799C395.763 90.8799 395.497 90.932 395.273 91.0361C395.049 91.1403 394.875 91.2809 394.75 91.458C394.625 91.6351 394.562 91.8356 394.562 92.0596H392.688C392.688 91.7262 392.768 91.4033 392.93 91.0908C393.091 90.7783 393.326 90.4997 393.633 90.2549C393.94 90.0101 394.307 89.8174 394.734 89.6768C395.161 89.5361 395.641 89.4658 396.172 89.4658C396.807 89.4658 397.37 89.5726 397.859 89.7861C398.354 89.9997 398.742 90.3226 399.023 90.7549C399.31 91.182 399.453 91.7184 399.453 92.3643V96.1221C399.453 96.5075 399.479 96.8538 399.531 97.1611C399.589 97.4632 399.669 97.7262 399.773 97.9502V98.0752H397.844C397.755 97.8721 397.685 97.6143 397.633 97.3018C397.586 96.984 397.562 96.6768 397.562 96.3799ZM397.836 92.9346L397.852 94.0986H396.5C396.151 94.0986 395.844 94.1325 395.578 94.2002C395.312 94.2627 395.091 94.3564 394.914 94.4814C394.737 94.6064 394.604 94.7575 394.516 94.9346C394.427 95.1117 394.383 95.3122 394.383 95.5361C394.383 95.7601 394.435 95.9658 394.539 96.1533C394.643 96.3356 394.794 96.4788 394.992 96.583C395.195 96.6872 395.44 96.7393 395.727 96.7393C396.112 96.7393 396.448 96.6611 396.734 96.5049C397.026 96.3434 397.255 96.1481 397.422 95.9189C397.589 95.6846 397.677 95.4632 397.688 95.2549L398.297 96.0908C398.234 96.3044 398.128 96.5335 397.977 96.7783C397.826 97.0231 397.628 97.2575 397.383 97.4814C397.143 97.7002 396.854 97.8799 396.516 98.0205C396.182 98.1611 395.797 98.2314 395.359 98.2314C394.807 98.2314 394.315 98.1221 393.883 97.9033C393.451 97.6794 393.112 97.3799 392.867 97.0049C392.622 96.6247 392.5 96.195 392.5 95.7158C392.5 95.2679 392.583 94.8721 392.75 94.5283C392.922 94.1794 393.172 93.8877 393.5 93.6533C393.833 93.4189 394.24 93.2419 394.719 93.1221C395.198 92.9971 395.745 92.9346 396.359 92.9346H397.836ZM403.539 91.4268V98.0752H401.656V89.6221H403.43L403.539 91.4268ZM403.203 93.5361L402.594 93.5283C402.599 92.9294 402.682 92.3799 402.844 91.8799C403.01 91.3799 403.24 90.9502 403.531 90.5908C403.828 90.2314 404.182 89.9554 404.594 89.7627C405.005 89.5648 405.464 89.4658 405.969 89.4658C406.375 89.4658 406.742 89.5231 407.07 89.6377C407.404 89.7471 407.688 89.9268 407.922 90.1768C408.161 90.4268 408.344 90.7523 408.469 91.1533C408.594 91.5492 408.656 92.0361 408.656 92.6143V98.0752H406.766V92.6064C406.766 92.2002 406.706 91.8799 406.586 91.6455C406.471 91.4059 406.302 91.2367 406.078 91.1377C405.859 91.0335 405.586 90.9814 405.258 90.9814C404.935 90.9814 404.646 91.0492 404.391 91.1846C404.135 91.32 403.919 91.5049 403.742 91.7393C403.57 91.9736 403.438 92.2445 403.344 92.5518C403.25 92.859 403.203 93.1872 403.203 93.5361ZM412.844 89.6221V98.0752H410.953V89.6221H412.844ZM410.828 87.4033C410.828 87.1169 410.922 86.8799 411.109 86.6924C411.302 86.4997 411.568 86.4033 411.906 86.4033C412.24 86.4033 412.503 86.4997 412.695 86.6924C412.888 86.8799 412.984 87.1169 412.984 87.4033C412.984 87.6846 412.888 87.9189 412.695 88.1064C412.503 88.2939 412.24 88.3877 411.906 88.3877C411.568 88.3877 411.302 88.2939 411.109 88.1064C410.922 87.9189 410.828 87.6846 410.828 87.4033ZM419.898 95.7861C419.898 95.5986 419.852 95.4294 419.758 95.2783C419.664 95.1221 419.484 94.9814 419.219 94.8564C418.958 94.7314 418.573 94.6169 418.062 94.5127C417.615 94.4137 417.203 94.2965 416.828 94.1611C416.458 94.0205 416.141 93.8512 415.875 93.6533C415.609 93.4554 415.404 93.221 415.258 92.9502C415.112 92.6794 415.039 92.3669 415.039 92.0127C415.039 91.6689 415.115 91.3434 415.266 91.0361C415.417 90.7288 415.633 90.458 415.914 90.2236C416.195 89.9893 416.536 89.8044 416.938 89.6689C417.344 89.5335 417.797 89.4658 418.297 89.4658C419.005 89.4658 419.612 89.5856 420.117 89.8252C420.628 90.0596 421.018 90.3799 421.289 90.7861C421.56 91.1872 421.695 91.6403 421.695 92.1455H419.812C419.812 91.9215 419.755 91.7132 419.641 91.5205C419.531 91.3226 419.365 91.1637 419.141 91.0439C418.917 90.9189 418.635 90.8564 418.297 90.8564C417.974 90.8564 417.706 90.9085 417.492 91.0127C417.284 91.1117 417.128 91.2419 417.023 91.4033C416.924 91.5648 416.875 91.7419 416.875 91.9346C416.875 92.0752 416.901 92.2028 416.953 92.3174C417.01 92.4268 417.104 92.5283 417.234 92.6221C417.365 92.7106 417.542 92.7939 417.766 92.8721C417.995 92.9502 418.281 93.0257 418.625 93.0986C419.271 93.234 419.826 93.4085 420.289 93.6221C420.758 93.8304 421.117 94.1012 421.367 94.4346C421.617 94.7627 421.742 95.1794 421.742 95.6846C421.742 96.0596 421.661 96.4033 421.5 96.7158C421.344 97.0231 421.115 97.2913 420.812 97.5205C420.51 97.7445 420.148 97.9189 419.727 98.0439C419.31 98.1689 418.841 98.2314 418.32 98.2314C417.555 98.2314 416.906 98.096 416.375 97.8252C415.844 97.5492 415.44 97.1976 415.164 96.7705C414.893 96.3382 414.758 95.8903 414.758 95.4268H416.578C416.599 95.7757 416.695 96.0544 416.867 96.2627C417.044 96.4658 417.263 96.6143 417.523 96.708C417.789 96.7965 418.062 96.8408 418.344 96.8408C418.682 96.8408 418.966 96.7965 419.195 96.708C419.424 96.6143 419.599 96.4893 419.719 96.333C419.839 96.1715 419.898 95.9893 419.898 95.7861ZM428.406 96.3799V92.3486C428.406 92.0465 428.352 91.7861 428.242 91.5674C428.133 91.3486 427.966 91.1794 427.742 91.0596C427.523 90.9398 427.247 90.8799 426.914 90.8799C426.607 90.8799 426.341 90.932 426.117 91.0361C425.893 91.1403 425.719 91.2809 425.594 91.458C425.469 91.6351 425.406 91.8356 425.406 92.0596H423.531C423.531 91.7262 423.612 91.4033 423.773 91.0908C423.935 90.7783 424.169 90.4997 424.477 90.2549C424.784 90.0101 425.151 89.8174 425.578 89.6768C426.005 89.5361 426.484 89.4658 427.016 89.4658C427.651 89.4658 428.214 89.5726 428.703 89.7861C429.198 89.9997 429.586 90.3226 429.867 90.7549C430.154 91.182 430.297 91.7184 430.297 92.3643V96.1221C430.297 96.5075 430.323 96.8538 430.375 97.1611C430.432 97.4632 430.513 97.7262 430.617 97.9502V98.0752H428.688C428.599 97.8721 428.529 97.6143 428.477 97.3018C428.43 96.984 428.406 96.6768 428.406 96.3799ZM428.68 92.9346L428.695 94.0986H427.344C426.995 94.0986 426.688 94.1325 426.422 94.2002C426.156 94.2627 425.935 94.3564 425.758 94.4814C425.581 94.6064 425.448 94.7575 425.359 94.9346C425.271 95.1117 425.227 95.3122 425.227 95.5361C425.227 95.7601 425.279 95.9658 425.383 96.1533C425.487 96.3356 425.638 96.4788 425.836 96.583C426.039 96.6872 426.284 96.7393 426.57 96.7393C426.956 96.7393 427.292 96.6611 427.578 96.5049C427.87 96.3434 428.099 96.1481 428.266 95.9189C428.432 95.6846 428.521 95.4632 428.531 95.2549L429.141 96.0908C429.078 96.3044 428.971 96.5335 428.82 96.7783C428.669 97.0231 428.471 97.2575 428.227 97.4814C427.987 97.7002 427.698 97.8799 427.359 98.0205C427.026 98.1611 426.641 98.2314 426.203 98.2314C425.651 98.2314 425.159 98.1221 424.727 97.9033C424.294 97.6794 423.956 97.3799 423.711 97.0049C423.466 96.6247 423.344 96.195 423.344 95.7158C423.344 95.2679 423.427 94.8721 423.594 94.5283C423.766 94.1794 424.016 93.8877 424.344 93.6533C424.677 93.4189 425.083 93.2419 425.562 93.1221C426.042 92.9971 426.589 92.9346 427.203 92.9346H428.68ZM436.391 89.6221V90.9971H431.625V89.6221H436.391ZM433 87.5518H434.883V95.7393C434.883 95.9997 434.919 96.2002 434.992 96.3408C435.07 96.4762 435.177 96.5674 435.312 96.6143C435.448 96.6611 435.607 96.6846 435.789 96.6846C435.919 96.6846 436.044 96.6768 436.164 96.6611C436.284 96.6455 436.38 96.6299 436.453 96.6143L436.461 98.0518C436.305 98.0986 436.122 98.1403 435.914 98.1768C435.711 98.2132 435.477 98.2314 435.211 98.2314C434.779 98.2314 434.396 98.1559 434.062 98.0049C433.729 97.8486 433.469 97.596 433.281 97.2471C433.094 96.8981 433 96.4346 433 95.8564V87.5518ZM440.109 89.6221V98.0752H438.219V89.6221H440.109ZM438.094 87.4033C438.094 87.1169 438.188 86.8799 438.375 86.6924C438.568 86.4997 438.833 86.4033 439.172 86.4033C439.505 86.4033 439.768 86.4997 439.961 86.6924C440.154 86.8799 440.25 87.1169 440.25 87.4033C440.25 87.6846 440.154 87.9189 439.961 88.1064C439.768 88.2939 439.505 88.3877 439.172 88.3877C438.833 88.3877 438.568 88.2939 438.375 88.1064C438.188 87.9189 438.094 87.6846 438.094 87.4033ZM442.062 93.9424V93.7627C442.062 93.1533 442.151 92.5882 442.328 92.0674C442.505 91.5413 442.76 91.0856 443.094 90.7002C443.432 90.3096 443.844 90.0075 444.328 89.7939C444.818 89.5752 445.37 89.4658 445.984 89.4658C446.604 89.4658 447.156 89.5752 447.641 89.7939C448.13 90.0075 448.544 90.3096 448.883 90.7002C449.221 91.0856 449.479 91.5413 449.656 92.0674C449.833 92.5882 449.922 93.1533 449.922 93.7627V93.9424C449.922 94.5518 449.833 95.1169 449.656 95.6377C449.479 96.1585 449.221 96.6143 448.883 97.0049C448.544 97.3903 448.133 97.6924 447.648 97.9111C447.164 98.1247 446.615 98.2314 446 98.2314C445.38 98.2314 444.826 98.1247 444.336 97.9111C443.852 97.6924 443.44 97.3903 443.102 97.0049C442.763 96.6143 442.505 96.1585 442.328 95.6377C442.151 95.1169 442.062 94.5518 442.062 93.9424ZM443.945 93.7627V93.9424C443.945 94.3226 443.984 94.682 444.062 95.0205C444.141 95.359 444.263 95.6559 444.43 95.9111C444.596 96.1663 444.81 96.3669 445.07 96.5127C445.331 96.6585 445.641 96.7314 446 96.7314C446.349 96.7314 446.651 96.6585 446.906 96.5127C447.167 96.3669 447.38 96.1663 447.547 95.9111C447.714 95.6559 447.836 95.359 447.914 95.0205C447.997 94.682 448.039 94.3226 448.039 93.9424V93.7627C448.039 93.3877 447.997 93.0335 447.914 92.7002C447.836 92.3617 447.711 92.0622 447.539 91.8018C447.372 91.5413 447.159 91.3382 446.898 91.1924C446.643 91.0413 446.339 90.9658 445.984 90.9658C445.63 90.9658 445.323 91.0413 445.062 91.1924C444.807 91.3382 444.596 91.5413 444.43 91.8018C444.263 92.0622 444.141 92.3617 444.062 92.7002C443.984 93.0335 443.945 93.3877 443.945 93.7627ZM453.617 91.4268V98.0752H451.734V89.6221H453.508L453.617 91.4268ZM453.281 93.5361L452.672 93.5283C452.677 92.9294 452.76 92.3799 452.922 91.8799C453.089 91.3799 453.318 90.9502 453.609 90.5908C453.906 90.2314 454.26 89.9554 454.672 89.7627C455.083 89.5648 455.542 89.4658 456.047 89.4658C456.453 89.4658 456.82 89.5231 457.148 89.6377C457.482 89.7471 457.766 89.9268 458 90.1768C458.24 90.4268 458.422 90.7523 458.547 91.1533C458.672 91.5492 458.734 92.0361 458.734 92.6143V98.0752H456.844V92.6064C456.844 92.2002 456.784 91.8799 456.664 91.6455C456.549 91.4059 456.38 91.2367 456.156 91.1377C455.938 91.0335 455.664 90.9814 455.336 90.9814C455.013 90.9814 454.724 91.0492 454.469 91.1846C454.214 91.32 453.997 91.5049 453.82 91.7393C453.648 91.9736 453.516 92.2445 453.422 92.5518C453.328 92.859 453.281 93.1872 453.281 93.5361ZM465.648 95.7861C465.648 95.5986 465.602 95.4294 465.508 95.2783C465.414 95.1221 465.234 94.9814 464.969 94.8564C464.708 94.7314 464.323 94.6169 463.812 94.5127C463.365 94.4137 462.953 94.2965 462.578 94.1611C462.208 94.0205 461.891 93.8512 461.625 93.6533C461.359 93.4554 461.154 93.221 461.008 92.9502C460.862 92.6794 460.789 92.3669 460.789 92.0127C460.789 91.6689 460.865 91.3434 461.016 91.0361C461.167 90.7288 461.383 90.458 461.664 90.2236C461.945 89.9893 462.286 89.8044 462.688 89.6689C463.094 89.5335 463.547 89.4658 464.047 89.4658C464.755 89.4658 465.362 89.5856 465.867 89.8252C466.378 90.0596 466.768 90.3799 467.039 90.7861C467.31 91.1872 467.445 91.6403 467.445 92.1455H465.562C465.562 91.9215 465.505 91.7132 465.391 91.5205C465.281 91.3226 465.115 91.1637 464.891 91.0439C464.667 90.9189 464.385 90.8564 464.047 90.8564C463.724 90.8564 463.456 90.9085 463.242 91.0127C463.034 91.1117 462.878 91.2419 462.773 91.4033C462.674 91.5648 462.625 91.7419 462.625 91.9346C462.625 92.0752 462.651 92.2028 462.703 92.3174C462.76 92.4268 462.854 92.5283 462.984 92.6221C463.115 92.7106 463.292 92.7939 463.516 92.8721C463.745 92.9502 464.031 93.0257 464.375 93.0986C465.021 93.234 465.576 93.4085 466.039 93.6221C466.508 93.8304 466.867 94.1012 467.117 94.4346C467.367 94.7627 467.492 95.1794 467.492 95.6846C467.492 96.0596 467.411 96.4033 467.25 96.7158C467.094 97.0231 466.865 97.2913 466.562 97.5205C466.26 97.7445 465.898 97.9189 465.477 98.0439C465.06 98.1689 464.591 98.2314 464.07 98.2314C463.305 98.2314 462.656 98.096 462.125 97.8252C461.594 97.5492 461.19 97.1976 460.914 96.7705C460.643 96.3382 460.508 95.8903 460.508 95.4268H462.328C462.349 95.7757 462.445 96.0544 462.617 96.2627C462.794 96.4658 463.013 96.6143 463.273 96.708C463.539 96.7965 463.812 96.8408 464.094 96.8408C464.432 96.8408 464.716 96.7965 464.945 96.708C465.174 96.6143 465.349 96.4893 465.469 96.333C465.589 96.1715 465.648 95.9893 465.648 95.7861Z" fill="#FF1546"/>
<path d="M388.261 177.838H393.886C396.073 177.838 397.883 177.46 399.315 176.705C400.774 175.95 401.854 174.908 402.558 173.58C403.261 172.252 403.612 170.729 403.612 169.01C403.612 167.213 403.287 165.676 402.636 164.4C402.011 163.098 401.047 162.096 399.745 161.393C398.469 160.689 396.841 160.338 394.862 160.338C393.196 160.338 391.685 160.676 390.331 161.354C389.003 162.005 387.948 162.942 387.167 164.166C386.386 165.364 385.995 166.796 385.995 168.463H376.542C376.542 165.442 377.336 162.76 378.925 160.416C380.513 158.072 382.675 156.236 385.409 154.908C388.17 153.554 391.269 152.877 394.706 152.877C398.378 152.877 401.581 153.489 404.315 154.713C407.076 155.911 409.224 157.708 410.761 160.104C412.297 162.499 413.065 165.468 413.065 169.01C413.065 170.624 412.688 172.265 411.933 173.932C411.177 175.598 410.058 177.122 408.573 178.502C407.089 179.856 405.24 180.963 403.026 181.822C400.813 182.656 398.248 183.072 395.331 183.072H388.261V177.838ZM388.261 185.182V180.025H395.331C398.664 180.025 401.503 180.416 403.847 181.197C406.216 181.979 408.144 183.059 409.628 184.439C411.112 185.794 412.193 187.343 412.87 189.088C413.573 190.833 413.925 192.682 413.925 194.635C413.925 197.291 413.443 199.661 412.479 201.744C411.542 203.801 410.201 205.546 408.456 206.979C406.711 208.411 404.667 209.492 402.323 210.221C400.006 210.95 397.479 211.314 394.745 211.314C392.297 211.314 389.953 210.976 387.714 210.299C385.474 209.622 383.469 208.619 381.698 207.291C379.927 205.937 378.521 204.257 377.479 202.252C376.464 200.221 375.956 197.877 375.956 195.221H385.37C385.37 196.913 385.761 198.411 386.542 199.713C387.349 200.989 388.469 201.992 389.901 202.721C391.36 203.45 393.026 203.814 394.901 203.814C396.881 203.814 398.586 203.463 400.019 202.76C401.451 202.057 402.545 201.015 403.3 199.635C404.081 198.255 404.472 196.588 404.472 194.635C404.472 192.421 404.042 190.624 403.183 189.244C402.323 187.864 401.099 186.848 399.511 186.197C397.922 185.52 396.047 185.182 393.886 185.182H388.261Z" fill="#FF1546"/>
</g>
<rect x="14.7354" y="35.4287" width="539.842" height="274.12" rx="15.5" stroke="#757575" stroke-dasharray="5 5"/>
<path d="M4.19336 14.3174H2.37109L2.38281 13.1514H4.19336C4.7207 13.1514 5.16211 13.0361 5.51758 12.8057C5.87695 12.5752 6.14648 12.2451 6.32617 11.8154C6.50977 11.3857 6.60156 10.874 6.60156 10.2803V9.81738C6.60156 9.35645 6.54883 8.94824 6.44336 8.59277C6.3418 8.2373 6.18945 7.93848 5.98633 7.69629C5.78711 7.4541 5.54102 7.27051 5.24805 7.14551C4.95898 7.02051 4.625 6.95801 4.24609 6.95801H2.33594V5.78613H4.24609C4.8125 5.78613 5.33008 5.88184 5.79883 6.07324C6.26758 6.26074 6.67188 6.53223 7.01172 6.8877C7.35547 7.24316 7.61914 7.66895 7.80273 8.16504C7.98633 8.66113 8.07812 9.21582 8.07812 9.8291V10.2803C8.07812 10.8936 7.98633 11.4482 7.80273 11.9443C7.61914 12.4404 7.35547 12.8662 7.01172 13.2217C6.66797 13.5732 6.25781 13.8447 5.78125 14.0361C5.30859 14.2236 4.7793 14.3174 4.19336 14.3174ZM3.18555 5.78613V14.3174H1.71484V5.78613H3.18555ZM13.2383 13.0459V10.0225C13.2383 9.7959 13.1973 9.60059 13.1152 9.43652C13.0332 9.27246 12.9082 9.14551 12.7402 9.05566C12.5762 8.96582 12.3691 8.9209 12.1191 8.9209C11.8887 8.9209 11.6895 8.95996 11.5215 9.03809C11.3535 9.11621 11.2227 9.22168 11.1289 9.35449C11.0352 9.4873 10.9883 9.6377 10.9883 9.80566H9.58203C9.58203 9.55566 9.64258 9.31348 9.76367 9.0791C9.88477 8.84473 10.0605 8.63574 10.291 8.45215C10.5215 8.26855 10.7969 8.12402 11.1172 8.01855C11.4375 7.91309 11.7969 7.86035 12.1953 7.86035C12.6719 7.86035 13.0938 7.94043 13.4609 8.10059C13.832 8.26074 14.123 8.50293 14.334 8.82715C14.5488 9.14746 14.6562 9.5498 14.6562 10.0342V12.8525C14.6562 13.1416 14.6758 13.4014 14.7148 13.6318C14.7578 13.8584 14.8184 14.0557 14.8965 14.2236V14.3174H13.4492C13.3828 14.165 13.3301 13.9717 13.291 13.7373C13.2559 13.499 13.2383 13.2686 13.2383 13.0459ZM13.4434 10.4619L13.4551 11.335H12.4414C12.1797 11.335 11.9492 11.3604 11.75 11.4111C11.5508 11.458 11.3848 11.5283 11.252 11.6221C11.1191 11.7158 11.0195 11.8291 10.9531 11.9619C10.8867 12.0947 10.8535 12.2451 10.8535 12.4131C10.8535 12.5811 10.8926 12.7354 10.9707 12.876C11.0488 13.0127 11.1621 13.1201 11.3105 13.1982C11.4629 13.2764 11.6465 13.3154 11.8613 13.3154C12.1504 13.3154 12.4023 13.2568 12.6172 13.1396C12.8359 13.0186 13.0078 12.8721 13.1328 12.7002C13.2578 12.5244 13.3242 12.3584 13.332 12.2021L13.7891 12.8291C13.7422 12.9893 13.6621 13.1611 13.5488 13.3447C13.4355 13.5283 13.2871 13.7041 13.1035 13.8721C12.9238 14.0361 12.707 14.1709 12.4531 14.2764C12.2031 14.3818 11.9141 14.4346 11.5859 14.4346C11.1719 14.4346 10.8027 14.3525 10.4785 14.1885C10.1543 14.0205 9.90039 13.7959 9.7168 13.5146C9.5332 13.2295 9.44141 12.9072 9.44141 12.5479C9.44141 12.2119 9.50391 11.915 9.62891 11.6572C9.75781 11.3955 9.94531 11.1768 10.1914 11.001C10.4414 10.8252 10.7461 10.6924 11.1055 10.6025C11.4648 10.5088 11.875 10.4619 12.3359 10.4619H13.4434ZM19.9395 12.6006C19.9395 12.46 19.9043 12.333 19.834 12.2197C19.7637 12.1025 19.6289 11.9971 19.4297 11.9033C19.2344 11.8096 18.9453 11.7236 18.5625 11.6455C18.2266 11.5713 17.918 11.4834 17.6367 11.3818C17.3594 11.2764 17.1211 11.1494 16.9219 11.001C16.7227 10.8525 16.5684 10.6768 16.459 10.4736C16.3496 10.2705 16.2949 10.0361 16.2949 9.77051C16.2949 9.5127 16.3516 9.26855 16.4648 9.03809C16.5781 8.80762 16.7402 8.60449 16.9512 8.42871C17.1621 8.25293 17.418 8.11426 17.7188 8.0127C18.0234 7.91113 18.3633 7.86035 18.7383 7.86035C19.2695 7.86035 19.7246 7.9502 20.1035 8.12988C20.4863 8.30566 20.7793 8.5459 20.9824 8.85059C21.1855 9.15137 21.2871 9.49121 21.2871 9.87012H19.875C19.875 9.70215 19.832 9.5459 19.7461 9.40137C19.6641 9.25293 19.5391 9.13379 19.3711 9.04395C19.2031 8.9502 18.9922 8.90332 18.7383 8.90332C18.4961 8.90332 18.2949 8.94238 18.1348 9.02051C17.9785 9.09473 17.8613 9.19238 17.7832 9.31348C17.709 9.43457 17.6719 9.56738 17.6719 9.71191C17.6719 9.81738 17.6914 9.91309 17.7305 9.99902C17.7734 10.0811 17.8438 10.1572 17.9414 10.2275C18.0391 10.2939 18.1719 10.3564 18.3398 10.415C18.5117 10.4736 18.7266 10.5303 18.9844 10.585C19.4688 10.6865 19.8848 10.8174 20.2324 10.9775C20.584 11.1338 20.8535 11.3369 21.041 11.5869C21.2285 11.833 21.3223 12.1455 21.3223 12.5244C21.3223 12.8057 21.2617 13.0635 21.1406 13.2979C21.0234 13.5283 20.8516 13.7295 20.625 13.9014C20.3984 14.0693 20.127 14.2002 19.8105 14.2939C19.498 14.3877 19.1465 14.4346 18.7559 14.4346C18.1816 14.4346 17.6953 14.333 17.2969 14.1299C16.8984 13.9229 16.5957 13.6592 16.3887 13.3389C16.1855 13.0146 16.084 12.6787 16.084 12.3311H17.4492C17.4648 12.5928 17.5371 12.8018 17.666 12.958C17.7988 13.1104 17.9629 13.2217 18.1582 13.292C18.3574 13.3584 18.5625 13.3916 18.7734 13.3916C19.0273 13.3916 19.2402 13.3584 19.4121 13.292C19.584 13.2217 19.7148 13.1279 19.8047 13.0107C19.8945 12.8896 19.9395 12.7529 19.9395 12.6006ZM24.2031 5.31738V14.3174H22.7969V5.31738H24.2031ZM23.957 10.9131L23.5 10.9072C23.5039 10.4697 23.5645 10.0654 23.6816 9.69434C23.8027 9.32324 23.9707 9.00098 24.1855 8.72754C24.4043 8.4502 24.666 8.2373 24.9707 8.08887C25.2754 7.93652 25.6133 7.86035 25.9844 7.86035C26.2969 7.86035 26.5781 7.90332 26.8281 7.98926C27.082 8.0752 27.3008 8.21387 27.4844 8.40527C27.668 8.59277 27.8066 8.83887 27.9004 9.14355C27.998 9.44434 28.0469 9.81152 28.0469 10.2451V14.3174H26.6289V10.2334C26.6289 9.92871 26.584 9.68652 26.4941 9.50684C26.4082 9.32715 26.2812 9.19824 26.1133 9.12012C25.9453 9.03809 25.7402 8.99707 25.498 8.99707C25.2441 8.99707 25.0195 9.04785 24.8242 9.14941C24.6328 9.25098 24.4727 9.38965 24.3438 9.56543C24.2148 9.74121 24.1172 9.94434 24.0508 10.1748C23.9883 10.4053 23.957 10.6514 23.957 10.9131ZM29.7324 5.31738H31.1445V12.9639L31.0098 14.3174H29.7324V5.31738ZM35.2812 11.0889V11.2119C35.2812 11.6807 35.2285 12.1123 35.123 12.5068C35.0215 12.8975 34.8652 13.2373 34.6543 13.5264C34.4473 13.8154 34.1895 14.04 33.8809 14.2002C33.5762 14.3564 33.2227 14.4346 32.8203 14.4346C32.4258 14.4346 32.082 14.3604 31.7891 14.2119C31.4961 14.0635 31.25 13.8525 31.0508 13.5791C30.8555 13.3057 30.6973 12.9795 30.5762 12.6006C30.4551 12.2217 30.3691 11.8037 30.3184 11.3467V10.9541C30.3691 10.4932 30.4551 10.0752 30.5762 9.7002C30.6973 9.32129 30.8555 8.99512 31.0508 8.72168C31.25 8.44434 31.4941 8.23145 31.7832 8.08301C32.0762 7.93457 32.418 7.86035 32.8086 7.86035C33.2148 7.86035 33.5723 7.93848 33.8809 8.09473C34.1934 8.25098 34.4531 8.47363 34.6602 8.7627C34.8672 9.04785 35.0215 9.3877 35.123 9.78223C35.2285 10.1768 35.2812 10.6123 35.2812 11.0889ZM33.8691 11.2119V11.0889C33.8691 10.8037 33.8457 10.5361 33.7988 10.2861C33.752 10.0322 33.6738 9.80957 33.5645 9.61816C33.459 9.42676 33.3145 9.27637 33.1309 9.16699C32.9512 9.05371 32.7266 8.99707 32.457 8.99707C32.207 8.99707 31.9922 9.04004 31.8125 9.12598C31.6328 9.21191 31.4824 9.3291 31.3613 9.47754C31.2402 9.62598 31.1445 9.79785 31.0742 9.99316C31.0078 10.1885 30.9629 10.3994 30.9395 10.626V11.6865C30.9746 11.9795 31.0488 12.249 31.1621 12.4951C31.2793 12.7373 31.4434 12.9326 31.6543 13.0811C31.8652 13.2256 32.1367 13.2979 32.4688 13.2979C32.7305 13.2979 32.9512 13.2451 33.1309 13.1396C33.3105 13.0342 33.4531 12.8877 33.5586 12.7002C33.668 12.5088 33.7461 12.2861 33.793 12.0322C33.8438 11.7783 33.8691 11.5049 33.8691 11.2119ZM36.457 11.2178V11.083C36.457 10.626 36.5234 10.2021 36.6562 9.81152C36.7891 9.41699 36.9805 9.0752 37.2305 8.78613C37.4844 8.49316 37.793 8.2666 38.1562 8.10645C38.5234 7.94238 38.9375 7.86035 39.3984 7.86035C39.8633 7.86035 40.2773 7.94238 40.6406 8.10645C41.0078 8.2666 41.3184 8.49316 41.5723 8.78613C41.8262 9.0752 42.0195 9.41699 42.1523 9.81152C42.2852 10.2021 42.3516 10.626 42.3516 11.083V11.2178C42.3516 11.6748 42.2852 12.0986 42.1523 12.4893C42.0195 12.8799 41.8262 13.2217 41.5723 13.5146C41.3184 13.8037 41.0098 14.0303 40.6465 14.1943C40.2832 14.3545 39.8711 14.4346 39.4102 14.4346C38.9453 14.4346 38.5293 14.3545 38.1621 14.1943C37.7988 14.0303 37.4902 13.8037 37.2363 13.5146C36.9824 13.2217 36.7891 12.8799 36.6562 12.4893C36.5234 12.0986 36.457 11.6748 36.457 11.2178ZM37.8691 11.083V11.2178C37.8691 11.5029 37.8984 11.7725 37.957 12.0264C38.0156 12.2803 38.1074 12.5029 38.2324 12.6943C38.3574 12.8857 38.5176 13.0361 38.7129 13.1455C38.9082 13.2549 39.1406 13.3096 39.4102 13.3096C39.6719 13.3096 39.8984 13.2549 40.0898 13.1455C40.2852 13.0361 40.4453 12.8857 40.5703 12.6943C40.6953 12.5029 40.7871 12.2803 40.8457 12.0264C40.9082 11.7725 40.9395 11.5029 40.9395 11.2178V11.083C40.9395 10.8018 40.9082 10.5361 40.8457 10.2861C40.7871 10.0322 40.6934 9.80762 40.5645 9.6123C40.4395 9.41699 40.2793 9.26465 40.084 9.15527C39.8926 9.04199 39.6641 8.98535 39.3984 8.98535C39.1328 8.98535 38.9023 9.04199 38.707 9.15527C38.5156 9.26465 38.3574 9.41699 38.2324 9.6123C38.1074 9.80762 38.0156 10.0322 37.957 10.2861C37.8984 10.5361 37.8691 10.8018 37.8691 11.083ZM47.3594 13.0459V10.0225C47.3594 9.7959 47.3184 9.60059 47.2363 9.43652C47.1543 9.27246 47.0293 9.14551 46.8613 9.05566C46.6973 8.96582 46.4902 8.9209 46.2402 8.9209C46.0098 8.9209 45.8105 8.95996 45.6426 9.03809C45.4746 9.11621 45.3438 9.22168 45.25 9.35449C45.1562 9.4873 45.1094 9.6377 45.1094 9.80566H43.7031C43.7031 9.55566 43.7637 9.31348 43.8848 9.0791C44.0059 8.84473 44.1816 8.63574 44.4121 8.45215C44.6426 8.26855 44.918 8.12402 45.2383 8.01855C45.5586 7.91309 45.918 7.86035 46.3164 7.86035C46.793 7.86035 47.2148 7.94043 47.582 8.10059C47.9531 8.26074 48.2441 8.50293 48.4551 8.82715C48.6699 9.14746 48.7773 9.5498 48.7773 10.0342V12.8525C48.7773 13.1416 48.7969 13.4014 48.8359 13.6318C48.8789 13.8584 48.9395 14.0557 49.0176 14.2236V14.3174H47.5703C47.5039 14.165 47.4512 13.9717 47.4121 13.7373C47.377 13.499 47.3594 13.2686 47.3594 13.0459ZM47.5645 10.4619L47.5762 11.335H46.5625C46.3008 11.335 46.0703 11.3604 45.8711 11.4111C45.6719 11.458 45.5059 11.5283 45.373 11.6221C45.2402 11.7158 45.1406 11.8291 45.0742 11.9619C45.0078 12.0947 44.9746 12.2451 44.9746 12.4131C44.9746 12.5811 45.0137 12.7354 45.0918 12.876C45.1699 13.0127 45.2832 13.1201 45.4316 13.1982C45.584 13.2764 45.7676 13.3154 45.9824 13.3154C46.2715 13.3154 46.5234 13.2568 46.7383 13.1396C46.957 13.0186 47.1289 12.8721 47.2539 12.7002C47.3789 12.5244 47.4453 12.3584 47.4531 12.2021L47.9102 12.8291C47.8633 12.9893 47.7832 13.1611 47.6699 13.3447C47.5566 13.5283 47.4082 13.7041 47.2246 13.8721C47.0449 14.0361 46.8281 14.1709 46.5742 14.2764C46.3242 14.3818 46.0352 14.4346 45.707 14.4346C45.293 14.4346 44.9238 14.3525 44.5996 14.1885C44.2754 14.0205 44.0215 13.7959 43.8379 13.5146C43.6543 13.2295 43.5625 12.9072 43.5625 12.5479C43.5625 12.2119 43.625 11.915 43.75 11.6572C43.8789 11.3955 44.0664 11.1768 44.3125 11.001C44.5625 10.8252 44.8672 10.6924 45.2266 10.6025C45.5859 10.5088 45.9961 10.4619 46.457 10.4619H47.5645ZM51.9219 9.18457V14.3174H50.5098V7.97754H51.8574L51.9219 9.18457ZM53.8613 7.93652L53.8496 9.24902C53.7637 9.2334 53.6699 9.22168 53.5684 9.21387C53.4707 9.20605 53.373 9.20215 53.2754 9.20215C53.0332 9.20215 52.8203 9.2373 52.6367 9.30762C52.4531 9.37402 52.2988 9.47168 52.1738 9.60059C52.0527 9.72559 51.959 9.87793 51.8926 10.0576C51.8262 10.2373 51.7871 10.4385 51.7754 10.6611L51.4531 10.6846C51.4531 10.2861 51.4922 9.91699 51.5703 9.57715C51.6484 9.2373 51.7656 8.93848 51.9219 8.68066C52.082 8.42285 52.2812 8.22168 52.5195 8.07715C52.7617 7.93262 53.041 7.86035 53.3574 7.86035C53.4434 7.86035 53.5352 7.86816 53.6328 7.88379C53.7344 7.89941 53.8105 7.91699 53.8613 7.93652ZM58.7461 13.0049V5.31738H60.1641V14.3174H58.8809L58.7461 13.0049ZM54.6211 11.2178V11.0947C54.6211 10.6143 54.6777 10.1768 54.791 9.78223C54.9043 9.38379 55.0684 9.04199 55.2832 8.75684C55.498 8.46777 55.7598 8.24707 56.0684 8.09473C56.377 7.93848 56.7246 7.86035 57.1113 7.86035C57.4941 7.86035 57.8301 7.93457 58.1191 8.08301C58.4082 8.23145 58.6543 8.44434 58.8574 8.72168C59.0605 8.99512 59.2227 9.32324 59.3438 9.70605C59.4648 10.085 59.5508 10.5068 59.6016 10.9717V11.3643C59.5508 11.8174 59.4648 12.2314 59.3438 12.6064C59.2227 12.9814 59.0605 13.3057 58.8574 13.5791C58.6543 13.8525 58.4062 14.0635 58.1133 14.2119C57.8242 14.3604 57.4863 14.4346 57.0996 14.4346C56.7168 14.4346 56.3711 14.3545 56.0625 14.1943C55.7578 14.0342 55.498 13.8096 55.2832 13.5205C55.0684 13.2314 54.9043 12.8916 54.791 12.501C54.6777 12.1064 54.6211 11.6787 54.6211 11.2178ZM56.0332 11.0947V11.2178C56.0332 11.5068 56.0586 11.7764 56.1094 12.0264C56.1641 12.2764 56.248 12.4971 56.3613 12.6885C56.4746 12.876 56.6211 13.0244 56.8008 13.1338C56.9844 13.2393 57.2031 13.292 57.457 13.292C57.7773 13.292 58.041 13.2217 58.248 13.0811C58.4551 12.9404 58.6172 12.751 58.7344 12.5127C58.8555 12.2705 58.9375 12.001 58.9805 11.7041V10.6436C58.957 10.4131 58.9082 10.1982 58.834 9.99902C58.7637 9.7998 58.668 9.62598 58.5469 9.47754C58.4258 9.3252 58.2754 9.20801 58.0957 9.12598C57.9199 9.04004 57.7109 8.99707 57.4688 8.99707C57.2109 8.99707 56.9922 9.05176 56.8125 9.16113C56.6328 9.27051 56.4844 9.4209 56.3672 9.6123C56.2539 9.80371 56.1699 10.0264 56.1152 10.2803C56.0605 10.5342 56.0332 10.8057 56.0332 11.0947ZM68.4688 10.4619H66.2949L66.2832 9.38965H68.1816C68.502 9.38965 68.7734 9.34277 68.9961 9.24902C69.2227 9.15137 69.3945 9.0127 69.5117 8.83301C69.6289 8.64941 69.6875 8.42871 69.6875 8.1709C69.6875 7.88574 69.6328 7.65332 69.5234 7.47363C69.4141 7.29395 69.2461 7.16309 69.0195 7.08105C68.7969 6.99902 68.5117 6.95801 68.1641 6.95801H66.7402V14.3174H65.2695V5.78613H68.1641C68.6328 5.78613 69.0508 5.83105 69.418 5.9209C69.7891 6.01074 70.1035 6.15137 70.3613 6.34277C70.623 6.53027 70.8203 6.76855 70.9531 7.05762C71.0898 7.34668 71.1582 7.69043 71.1582 8.08887C71.1582 8.44043 71.0742 8.7627 70.9062 9.05566C70.7383 9.34473 70.4902 9.58105 70.1621 9.76465C69.834 9.94824 69.4258 10.0576 68.9375 10.0928L68.4688 10.4619ZM68.4043 14.3174H65.832L66.4941 13.1514H68.4043C68.7363 13.1514 69.0137 13.0967 69.2363 12.9873C69.459 12.874 69.625 12.7197 69.7344 12.5244C69.8477 12.3252 69.9043 12.0928 69.9043 11.8271C69.9043 11.5498 69.8555 11.3096 69.7578 11.1064C69.6602 10.8994 69.5059 10.7412 69.2949 10.6318C69.084 10.5186 68.8086 10.4619 68.4688 10.4619H66.8164L66.8281 9.38965H68.9785L69.3125 9.79395C69.7812 9.80957 70.166 9.91309 70.4668 10.1045C70.7715 10.2959 70.998 10.5439 71.1465 10.8486C71.2949 11.1533 71.3691 11.4814 71.3691 11.833C71.3691 12.376 71.25 12.8311 71.0117 13.1982C70.7773 13.5654 70.4395 13.8447 69.998 14.0361C69.5566 14.2236 69.0254 14.3174 68.4043 14.3174ZM76.7754 12.8232V7.97754H78.1934V14.3174H76.8574L76.7754 12.8232ZM76.9746 11.5049L77.4492 11.4932C77.4492 11.9189 77.4023 12.3115 77.3086 12.6709C77.2148 13.0264 77.0703 13.3369 76.875 13.6025C76.6797 13.8643 76.4297 14.0693 76.125 14.2178C75.8203 14.3623 75.4551 14.4346 75.0293 14.4346C74.7207 14.4346 74.4375 14.3896 74.1797 14.2998C73.9219 14.21 73.6992 14.0713 73.5117 13.8838C73.3281 13.6963 73.1855 13.4521 73.084 13.1514C72.9824 12.8506 72.9316 12.4912 72.9316 12.0732V7.97754H74.3438V12.085C74.3438 12.3154 74.3711 12.5088 74.4258 12.665C74.4805 12.8174 74.5547 12.9404 74.6484 13.0342C74.7422 13.1279 74.8516 13.1943 74.9766 13.2334C75.1016 13.2725 75.2344 13.292 75.375 13.292C75.7773 13.292 76.0938 13.2139 76.3242 13.0576C76.5586 12.8975 76.7246 12.6826 76.8223 12.4131C76.9238 12.1436 76.9746 11.8408 76.9746 11.5049ZM82.7969 7.97754V9.00879H79.2227V7.97754H82.7969ZM80.2539 6.4248H81.666V12.5654C81.666 12.7607 81.6934 12.9111 81.748 13.0166C81.8066 13.1182 81.8867 13.1865 81.9883 13.2217C82.0898 13.2568 82.209 13.2744 82.3457 13.2744C82.4434 13.2744 82.5371 13.2686 82.627 13.2568C82.7168 13.2451 82.7891 13.2334 82.8438 13.2217L82.8496 14.2998C82.7324 14.335 82.5957 14.3662 82.4395 14.3936C82.2871 14.4209 82.1113 14.4346 81.9121 14.4346C81.5879 14.4346 81.3008 14.3779 81.0508 14.2646C80.8008 14.1475 80.6055 13.958 80.4648 13.6963C80.3242 13.4346 80.2539 13.0869 80.2539 12.6533V6.4248ZM87.043 7.97754V9.00879H83.4688V7.97754H87.043ZM84.5 6.4248H85.9121V12.5654C85.9121 12.7607 85.9395 12.9111 85.9941 13.0166C86.0527 13.1182 86.1328 13.1865 86.2344 13.2217C86.3359 13.2568 86.4551 13.2744 86.5918 13.2744C86.6895 13.2744 86.7832 13.2686 86.873 13.2568C86.9629 13.2451 87.0352 13.2334 87.0898 13.2217L87.0957 14.2998C86.9785 14.335 86.8418 14.3662 86.6855 14.3936C86.5332 14.4209 86.3574 14.4346 86.1582 14.4346C85.834 14.4346 85.5469 14.3779 85.2969 14.2646C85.0469 14.1475 84.8516 13.958 84.7109 13.6963C84.5703 13.4346 84.5 13.0869 84.5 12.6533V6.4248ZM87.9727 11.2178V11.083C87.9727 10.626 88.0391 10.2021 88.1719 9.81152C88.3047 9.41699 88.4961 9.0752 88.7461 8.78613C89 8.49316 89.3086 8.2666 89.6719 8.10645C90.0391 7.94238 90.4531 7.86035 90.9141 7.86035C91.3789 7.86035 91.793 7.94238 92.1562 8.10645C92.5234 8.2666 92.834 8.49316 93.0879 8.78613C93.3418 9.0752 93.5352 9.41699 93.668 9.81152C93.8008 10.2021 93.8672 10.626 93.8672 11.083V11.2178C93.8672 11.6748 93.8008 12.0986 93.668 12.4893C93.5352 12.8799 93.3418 13.2217 93.0879 13.5146C92.834 13.8037 92.5254 14.0303 92.1621 14.1943C91.7988 14.3545 91.3867 14.4346 90.9258 14.4346C90.4609 14.4346 90.0449 14.3545 89.6777 14.1943C89.3145 14.0303 89.0059 13.8037 88.752 13.5146C88.498 13.2217 88.3047 12.8799 88.1719 12.4893C88.0391 12.0986 87.9727 11.6748 87.9727 11.2178ZM89.3848 11.083V11.2178C89.3848 11.5029 89.4141 11.7725 89.4727 12.0264C89.5312 12.2803 89.623 12.5029 89.748 12.6943C89.873 12.8857 90.0332 13.0361 90.2285 13.1455C90.4238 13.2549 90.6562 13.3096 90.9258 13.3096C91.1875 13.3096 91.4141 13.2549 91.6055 13.1455C91.8008 13.0361 91.9609 12.8857 92.0859 12.6943C92.2109 12.5029 92.3027 12.2803 92.3613 12.0264C92.4238 11.7725 92.4551 11.5029 92.4551 11.2178V11.083C92.4551 10.8018 92.4238 10.5361 92.3613 10.2861C92.3027 10.0322 92.209 9.80762 92.0801 9.6123C91.9551 9.41699 91.7949 9.26465 91.5996 9.15527C91.4082 9.04199 91.1797 8.98535 90.9141 8.98535C90.6484 8.98535 90.418 9.04199 90.2227 9.15527C90.0312 9.26465 89.873 9.41699 89.748 9.6123C89.623 9.80762 89.5312 10.0322 89.4727 10.2861C89.4141 10.5361 89.3848 10.8018 89.3848 11.083ZM96.7012 9.33105V14.3174H95.2891V7.97754H96.6191L96.7012 9.33105ZM96.4492 10.9131L95.9922 10.9072C95.9961 10.458 96.0586 10.0459 96.1797 9.6709C96.3047 9.2959 96.4766 8.97363 96.6953 8.7041C96.918 8.43457 97.1836 8.22754 97.4922 8.08301C97.8008 7.93457 98.1445 7.86035 98.5234 7.86035C98.8281 7.86035 99.1035 7.90332 99.3496 7.98926C99.5996 8.07129 99.8125 8.20605 99.9883 8.39355C100.168 8.58105 100.305 8.8252 100.398 9.12598C100.492 9.42285 100.539 9.78809 100.539 10.2217V14.3174H99.1211V10.2158C99.1211 9.91113 99.0762 9.6709 98.9863 9.49512C98.9004 9.31543 98.7734 9.18848 98.6055 9.11426C98.4414 9.03613 98.2363 8.99707 97.9902 8.99707C97.748 8.99707 97.5312 9.04785 97.3398 9.14941C97.1484 9.25098 96.9863 9.38965 96.8535 9.56543C96.7246 9.74121 96.625 9.94434 96.5547 10.1748C96.4844 10.4053 96.4492 10.6514 96.4492 10.9131ZM105.787 12.6006C105.787 12.46 105.752 12.333 105.682 12.2197C105.611 12.1025 105.477 11.9971 105.277 11.9033C105.082 11.8096 104.793 11.7236 104.41 11.6455C104.074 11.5713 103.766 11.4834 103.484 11.3818C103.207 11.2764 102.969 11.1494 102.77 11.001C102.57 10.8525 102.416 10.6768 102.307 10.4736C102.197 10.2705 102.143 10.0361 102.143 9.77051C102.143 9.5127 102.199 9.26855 102.312 9.03809C102.426 8.80762 102.588 8.60449 102.799 8.42871C103.01 8.25293 103.266 8.11426 103.566 8.0127C103.871 7.91113 104.211 7.86035 104.586 7.86035C105.117 7.86035 105.572 7.9502 105.951 8.12988C106.334 8.30566 106.627 8.5459 106.83 8.85059C107.033 9.15137 107.135 9.49121 107.135 9.87012H105.723C105.723 9.70215 105.68 9.5459 105.594 9.40137C105.512 9.25293 105.387 9.13379 105.219 9.04395C105.051 8.9502 104.84 8.90332 104.586 8.90332C104.344 8.90332 104.143 8.94238 103.982 9.02051C103.826 9.09473 103.709 9.19238 103.631 9.31348C103.557 9.43457 103.52 9.56738 103.52 9.71191C103.52 9.81738 103.539 9.91309 103.578 9.99902C103.621 10.0811 103.691 10.1572 103.789 10.2275C103.887 10.2939 104.02 10.3564 104.188 10.415C104.359 10.4736 104.574 10.5303 104.832 10.585C105.316 10.6865 105.732 10.8174 106.08 10.9775C106.432 11.1338 106.701 11.3369 106.889 11.5869C107.076 11.833 107.17 12.1455 107.17 12.5244C107.17 12.8057 107.109 13.0635 106.988 13.2979C106.871 13.5283 106.699 13.7295 106.473 13.9014C106.246 14.0693 105.975 14.2002 105.658 14.2939C105.346 14.3877 104.994 14.4346 104.604 14.4346C104.029 14.4346 103.543 14.333 103.145 14.1299C102.746 13.9229 102.443 13.6592 102.236 13.3389C102.033 13.0146 101.932 12.6787 101.932 12.3311H103.297C103.312 12.5928 103.385 12.8018 103.514 12.958C103.646 13.1104 103.811 13.2217 104.006 13.292C104.205 13.3584 104.41 13.3916 104.621 13.3916C104.875 13.3916 105.088 13.3584 105.26 13.292C105.432 13.2217 105.562 13.1279 105.652 13.0107C105.742 12.8896 105.787 12.7529 105.787 12.6006Z" fill="#757575"/>
<defs>
<filter id="filter0_d_478_1125" x="47.3887" y="43.2139" width="219" height="235" filterUnits="userSpaceOnUse" color-interpolation-filters="sRGB">
<feFlood flood-opacity="0" result="BackgroundImageFix"/>
<feColorMatrix in="SourceAlpha" type="matrix" values="0 0 0 0 0 0 0 0 0 0 0 0 0 0 0 0 0 0 127 0" result="hardAlpha"/>
<feOffset dy="3"/>
<feGaussianBlur stdDeviation="1.5"/>
<feColorMatrix type="matrix" values="0 0 0 0 0 0 0 0 0 0 0 0 0 0 0 0 0 0 0.2 0"/>
<feBlend mode="normal" in2="BackgroundImageFix" result="effect1_dropShadow_478_1125"/>
<feBlend mode="normal" in="SourceGraphic" in2="effect1_dropShadow_478_1125" result="shape"/>
</filter>
<filter id="filter1_d_478_1125" x="288.7" y="43.2139" width="219" height="235" filterUnits="userSpaceOnUse" color-interpolation-filters="sRGB">
<feFlood flood-opacity="0" result="BackgroundImageFix"/>
<feColorMatrix in="SourceAlpha" type="matrix" values="0 0 0 0 0 0 0 0 0 0 0 0 0 0 0 0 0 0 127 0" result="hardAlpha"/>
<feOffset dy="3"/>
<feGaussianBlur stdDeviation="1.5"/>
<feColorMatrix type="matrix" values="0 0 0 0 0 0 0 0 0 0 0 0 0 0 0 0 0 0 0.2 0"/>
<feBlend mode="normal" in2="BackgroundImageFix" result="effect1_dropShadow_478_1125"/>
<feBlend mode="normal" in="SourceGraphic" in2="effect1_dropShadow_478_1125" result="shape"/>
</filter>
</defs>
</svg>
