<svg width="231" height="34" viewBox="0 0 231 34" fill="none" xmlns="http://www.w3.org/2000/svg">
<path d="M11.886 1.33798C17.97 1.33798 20.958 7.56598 20.958 12.714C20.958 17.862 17.97 24.126 11.886 24.126C10.734 24.126 9.50999 24.09 8.24999 24.018C6.98999 23.946 5.47799 23.874 4.10999 23.874H1.37399C0.761993 23.874 0.653993 23.154 0.905993 22.758L0.869993 22.866C0.869993 22.938 0.977993 22.686 1.01399 22.614C1.26599 22.254 1.69799 21.426 1.69799 19.95V5.47798C1.69799 3.96598 1.26599 3.17398 1.01399 2.84998C0.977993 2.81398 0.905993 2.70598 0.905993 2.66998C0.653993 2.27399 0.761993 1.55398 1.37399 1.55398H4.10999C5.54999 1.55398 6.91799 1.51798 8.24999 1.44599C9.50999 1.40998 10.734 1.33798 11.886 1.33798ZM11.886 1.76998C10.734 1.76998 9.50999 1.84198 8.24999 1.87798C6.98999 1.94999 5.47799 1.98598 4.10999 1.98598H1.37399C1.19399 1.98598 1.19399 2.27399 1.26599 2.45398L1.37399 2.63398C1.62599 2.99398 2.12999 3.78598 2.12999 5.47798V19.95C2.12999 21.678 1.55399 22.506 1.33799 22.866L1.30199 22.902C1.19399 23.082 1.15799 23.442 1.37399 23.442H4.10999C5.54999 23.442 6.91799 23.514 8.24999 23.586C9.50999 23.658 10.734 23.694 11.886 23.694C17.682 23.694 20.526 17.646 20.526 12.714C20.526 7.78198 17.682 1.76998 11.886 1.76998ZM8.17799 21.858V3.56998C11.85 3.56998 13.506 8.75398 13.506 12.714C13.506 16.674 11.85 21.858 8.17799 21.858ZM8.60999 4.00198V21.426C11.49 21.174 13.074 16.386 13.074 12.714C13.074 9.00598 11.382 4.00198 8.60999 4.00198Z" stroke="#CBCAC7"/>
<path d="M39.417 11.562C39.417 12.894 38.913 14.01 36.825 14.37L29.661 15.63C30.345 17.718 31.857 18.366 33.441 18.366C35.097 18.366 36.789 17.646 37.653 16.998C38.517 16.386 39.417 16.962 39.417 17.754C39.417 21.93 35.133 24.234 31.317 24.234C26.277 24.234 22.137 21.21 22.137 14.946C22.137 8.68198 26.277 5.69398 31.317 5.69398C36.861 5.69398 39.417 9.00598 39.417 11.562ZM38.985 11.562C38.985 9.22199 36.573 6.12599 31.317 6.12599C26.493 6.12599 22.569 8.96998 22.569 14.946C22.569 20.922 26.493 23.802 31.317 23.802C34.917 23.802 38.985 21.642 38.985 17.754C38.985 17.358 38.409 17.142 37.941 17.358C37.041 18.006 35.205 18.798 33.441 18.798C31.605 18.798 29.841 17.934 29.085 15.27L36.753 13.938C38.445 13.578 38.985 12.642 38.985 11.562ZM32.577 13.074C31.821 13.218 28.869 13.722 28.869 13.722C28.797 13.218 28.797 12.93 28.797 12.678C28.797 10.05 29.949 7.70998 31.101 7.70998C32.217 7.70998 33.081 9.32998 33.657 11.13C33.657 11.166 33.693 11.202 33.693 11.238C33.873 11.814 34.125 12.786 32.577 13.074ZM32.505 12.642C33.585 12.426 33.369 11.742 33.261 11.382C33.261 11.346 33.225 11.346 33.225 11.274C32.721 9.61798 31.965 8.14198 31.101 8.14198C30.165 8.14198 29.229 10.266 29.229 12.678C29.229 12.93 29.193 12.966 29.229 13.218L32.505 12.642Z" stroke="#CBCAC7"/>
<path d="M56.6182 9.94198C56.6182 11.922 54.9262 12.462 53.2342 12.462C52.2262 12.462 51.1462 12.246 50.3902 11.994C50.8222 9.94198 49.4182 8.14198 48.1942 8.14198C47.3302 8.14198 46.7182 8.57398 46.7182 9.58198C46.7182 10.698 48.5542 11.634 50.5702 12.642C53.3782 14.082 56.6182 15.666 56.6182 18.582C56.6182 21.822 52.8022 24.234 48.5182 24.234C44.9542 24.234 40.9582 23.514 40.4542 21.282C40.1662 19.302 42.9022 17.106 45.3502 17.25C46.3942 17.286 46.6102 17.682 46.6102 18.438C46.6102 19.842 47.8702 21.786 48.8422 21.786C49.7062 21.786 50.3542 21.354 50.3542 20.346C50.3542 19.338 48.4462 18.33 46.5742 17.394C43.9462 16.062 40.4542 14.046 40.4542 11.346C40.4542 8.21398 43.9462 5.69398 49.5262 5.69398C53.7382 5.69398 56.6182 7.42199 56.6182 9.94198ZM56.1862 9.94198C56.1862 7.70999 53.4502 6.12599 49.5262 6.12599C44.2342 6.12599 40.8862 8.42998 40.8862 11.346C40.8862 14.046 44.0542 15.702 46.7902 17.034C48.9502 18.114 50.7862 19.05 50.7862 20.346C50.7862 21.642 49.9222 22.218 48.8422 22.218C47.6542 22.218 46.1782 20.058 46.1782 18.438C46.1782 17.97 46.0342 17.718 45.3502 17.682C43.0822 17.538 40.5262 19.446 40.8862 21.21C41.2462 23.226 45.0622 23.802 48.5182 23.802C52.5862 23.802 56.1862 21.606 56.1862 18.582C56.1862 15.954 53.0542 14.37 50.3542 13.002C48.2662 11.958 46.2862 10.914 46.2862 9.58198C46.2862 8.28598 47.1142 7.70998 48.1942 7.70998C49.5622 7.70998 51.1822 9.58198 50.8942 11.706C51.5062 11.886 52.4062 12.03 53.2342 12.03C54.7102 12.03 56.1862 11.562 56.1862 9.94198Z" stroke="#CBCAC7"/>
<path d="M65.2082 22.758C65.4242 23.154 65.3522 23.874 64.7042 23.874H58.3682C57.7202 23.874 57.6482 23.154 57.8642 22.758C58.0442 22.506 58.2962 21.786 58.2962 20.742V10.374C58.2962 9.40198 57.8642 8.68198 57.6842 8.42998V8.46598C57.3962 8.06998 57.3602 7.31398 58.1882 7.13398L64.4162 6.05398C65.1722 5.94599 65.4242 6.30598 65.3162 6.91798L65.1362 7.56598C64.9562 8.10598 64.7762 8.89798 64.7762 10.158V20.742C64.7762 21.786 65.0282 22.506 65.2082 22.758ZM64.8482 22.974C64.6682 22.686 64.3442 21.894 64.3442 20.742V10.158C64.3442 8.89798 64.5602 7.92598 64.7402 7.34998L64.8842 6.84598C64.9202 6.62999 64.7402 6.48598 64.4882 6.48598L58.2602 7.56598C57.9002 7.67398 57.9002 8.03398 58.0442 8.21398C58.2242 8.50198 58.7282 9.29399 58.7282 10.374V20.742C58.7282 21.822 58.4042 22.65 58.2242 22.974C58.1522 23.154 58.1522 23.442 58.3682 23.442H64.7042C64.9202 23.442 64.9202 23.154 64.8482 22.974ZM61.4282 6.19798C59.5202 6.19798 58.2242 5.44199 58.2242 3.60599C58.2242 1.80598 59.5202 1.04998 61.4282 1.04998C63.3362 1.04998 64.5962 1.80598 64.5962 3.60599C64.5962 5.44199 63.3362 6.19798 61.4282 6.19798ZM61.4282 5.76599C63.0482 5.76599 64.1642 5.15398 64.1642 3.60599C64.1642 2.09398 63.0482 1.48198 61.4282 1.48198C59.8082 1.48198 58.6562 2.09398 58.6562 3.60599C58.6562 5.15398 59.8082 5.76599 61.4282 5.76599Z" stroke="#CBCAC7"/>
<path d="M84.3678 12.75C84.3678 17.358 80.6958 19.626 76.1598 19.806C80.4798 20.058 85.0158 21.39 85.0158 25.566C85.0158 29.67 81.4878 32.154 76.8798 32.154C72.2358 32.154 69.5718 30.39 69.5718 28.338C69.5718 27.186 70.3998 25.962 72.1278 24.882C70.7238 24.882 69.3558 24.954 68.3478 25.062C66.6918 25.206 65.9358 24.486 66.2958 22.974C66.2958 22.902 66.3318 22.83 66.3318 22.758C66.4758 22.002 66.6918 21.138 67.5918 20.526L70.3998 18.654C68.2398 17.538 66.8358 15.594 66.8358 12.75C66.8358 7.96199 70.7958 5.69398 75.5838 5.69398H78.5718C79.5438 5.69398 79.8678 5.15398 79.8678 4.54198C79.8678 4.07398 79.6158 3.49798 79.2918 3.17398C80.2278 2.30998 81.1638 1.94999 81.9918 1.94999C83.5038 1.94999 84.7998 2.99398 84.7998 4.25398C84.7998 6.08998 82.9638 6.66598 81.1998 6.66598H80.5158C82.8558 7.74598 84.3678 9.76198 84.3678 12.75ZM69.8958 20.418L72.1278 18.87C73.3158 19.23 74.4678 19.374 75.5838 19.374C80.1918 19.374 83.9358 17.25 83.9358 12.75C83.9358 9.54599 81.9918 7.52998 79.1478 6.62998L79.2198 6.23398H81.1998C82.7478 6.23398 84.3678 5.72998 84.3678 4.25398C84.3678 3.20998 83.2878 2.38198 81.9918 2.38198C81.2718 2.38198 80.5878 2.52598 79.8678 3.17398C80.0118 3.49798 80.2998 4.18198 80.2998 4.54198C80.2998 5.36998 79.8318 6.12599 78.5718 6.12599H75.5838C71.0118 6.12599 67.2678 8.24998 67.2678 12.75C67.2678 15.522 68.8158 17.466 71.2278 18.582L67.8078 20.886C67.0878 21.426 66.9078 22.146 66.7638 22.83C66.7638 22.902 66.7278 23.01 66.7278 23.046C66.4398 24.126 67.2678 24.63 68.2758 24.63C69.4998 24.486 71.2638 24.45 73.0638 24.45L73.1358 24.81C71.0118 25.926 70.0038 27.186 70.0038 28.338C70.0038 30.174 72.5238 31.722 76.8798 31.722C81.2718 31.722 84.5838 29.382 84.5838 25.566C84.5838 21.102 78.7518 20.166 74.1798 20.166C72.8478 20.166 70.8678 20.346 69.8958 20.418ZM75.5838 7.70998C76.7718 7.70998 77.7438 9.97798 77.7438 12.75C77.7438 15.522 76.7718 17.79 75.5838 17.79C74.4318 17.79 73.4598 15.522 73.4598 12.75C73.4598 9.97798 74.4318 7.70998 75.5838 7.70998ZM75.5838 8.14198C74.6478 8.14198 73.8918 10.194 73.8918 12.75C73.8918 15.306 74.6478 17.358 75.5838 17.358C76.5558 17.358 77.3118 15.306 77.3118 12.75C77.3118 10.194 76.5558 8.14198 75.5838 8.14198ZM73.6758 24.558L73.8558 24.486C78.3198 24.558 82.9998 25.134 82.9998 26.07C82.9998 26.826 81.2358 27.222 79.2558 27.222C76.0518 27.222 72.1998 26.322 73.6758 24.558ZM82.5678 26.07C82.5678 25.422 78.1758 24.99 73.9638 24.918C73.0998 26.106 76.4838 26.79 79.2558 26.79C81.0198 26.79 82.5678 26.538 82.5678 26.07ZM72.1278 19.374L71.4438 19.842C72.1278 19.806 73.0278 19.734 73.8918 19.734C73.2798 19.662 72.6318 19.554 72.1278 19.374Z" stroke="#CBCAC7"/>
<path d="M104.032 22.758C104.284 23.154 104.176 23.874 103.564 23.874H97.2279C96.5439 23.874 96.4719 23.154 96.7239 22.758C96.8679 22.542 97.1559 21.822 97.1559 20.742V13.254C97.1559 11.454 96.1119 10.842 94.9599 10.842C94.1319 10.842 93.2679 11.13 92.6199 11.526V20.742C92.6199 21.786 92.8719 22.506 93.0519 22.758C93.2679 23.154 93.1959 23.874 92.5479 23.874H86.2119C85.5639 23.874 85.4919 23.154 85.7079 22.758C85.8879 22.506 86.1399 21.786 86.1399 20.742V10.374C86.1399 9.40198 85.7079 8.68198 85.5279 8.42998V8.46598C85.2399 8.06998 85.2039 7.31398 86.0319 7.13398L92.2599 6.05398C93.0159 5.94599 93.2679 6.30598 93.1599 6.91798L92.9799 7.56598C92.8359 8.03398 92.6559 8.68198 92.6199 9.61798C93.6639 7.96198 95.8959 6.05398 98.4159 6.05398C101.44 6.05398 103.636 8.32198 103.636 11.634V20.742C103.636 21.822 103.888 22.542 104.032 22.758ZM103.672 22.974C103.528 22.686 103.204 21.894 103.204 20.742V11.634C103.204 8.60998 101.224 6.48598 98.4159 6.48598C95.6799 6.48598 93.2319 9.00598 92.5839 10.698L92.1879 10.626V10.158C92.1879 8.89798 92.4039 7.92598 92.5839 7.34998L92.7279 6.84598C92.7639 6.62999 92.5839 6.48598 92.3319 6.48598L86.1039 7.56598C85.7439 7.67398 85.7439 8.03398 85.8879 8.21398C86.0679 8.50198 86.5719 9.29399 86.5719 10.374V20.742C86.5719 21.822 86.2479 22.65 86.0679 22.974C85.9959 23.154 85.9959 23.442 86.2119 23.442H92.5479C92.7639 23.442 92.7639 23.154 92.6919 22.974C92.5119 22.65 92.1879 21.822 92.1879 20.742V11.31C92.9799 10.77 94.0239 10.41 94.9599 10.41C96.3279 10.41 97.5879 11.166 97.5879 13.254V20.742C97.5879 21.93 97.2279 22.722 97.0839 22.974C96.9759 23.154 96.9759 23.442 97.2279 23.442H103.564C103.78 23.442 103.78 23.154 103.672 22.974Z" stroke="#CBCAC7"/>
<path d="M121.762 5.76599C121.87 7.56598 124.282 8.82598 126.982 10.194C130.258 11.886 134.29 14.442 134.29 17.394C134.29 21.39 130.33 24.594 125.074 24.594C120.646 24.594 115.354 23.838 114.778 20.85C114.31 18.366 117.514 15.558 120.646 15.702C121.906 15.81 122.194 16.314 122.23 17.214C122.338 19.05 124.102 21.57 125.362 21.57C126.478 21.57 127.27 20.994 127.198 19.662C127.09 17.862 124.57 16.566 121.942 15.27C118.594 13.614 114.778 11.706 114.598 8.06998C114.418 4.07398 118.09 0.833984 125.11 0.833984C130.402 0.833984 134.11 3.02998 134.254 6.23398C134.434 8.71798 132.31 9.43798 130.186 9.43798C128.854 9.43798 127.522 9.18598 126.658 8.89798C127.09 6.23398 125.146 3.85798 123.598 3.85798C122.482 3.85798 121.69 4.43399 121.762 5.76599ZM121.33 5.76599C121.258 4.14598 122.266 3.42598 123.598 3.42598C125.326 3.42598 127.558 5.76599 127.162 8.57398C127.99 8.82598 129.106 9.00598 130.186 9.00598C132.094 9.00598 133.966 8.35798 133.822 6.23398C133.678 3.31798 130.15 1.26598 125.11 1.26598C118.558 1.26598 115.03 4.14598 115.03 8.06998C115.03 11.274 118.954 13.254 122.194 14.874C125.002 16.278 127.522 17.538 127.63 19.662C127.702 21.282 126.694 22.002 125.362 22.002C123.886 22.002 121.906 19.266 121.798 17.214C121.762 16.566 121.582 16.206 120.646 16.134C117.73 15.99 114.67 18.51 115.21 20.778C115.822 23.442 120.682 24.162 125.074 24.162C130.222 24.162 133.858 21.03 133.858 17.394C133.858 14.802 130.042 12.246 126.766 10.59C123.958 9.14998 121.438 7.81798 121.33 5.76599Z" stroke="#CBCAC7"/>
<path d="M152.871 6.05398C153.555 6.05398 153.699 6.73798 153.267 7.16998H153.303C153.087 7.45798 152.583 8.21398 152.187 9.22198L146.391 26.898C144.951 31.182 143.223 33.486 139.119 33.486C136.023 33.486 134.259 31.326 134.259 28.878C134.259 27.546 134.871 26.034 136.167 24.738C137.643 25.782 139.371 26.394 140.847 26.394C142.503 26.394 144.087 25.602 144.735 23.91V23.874H143.835C142.539 23.874 141.279 23.082 140.487 20.814C140.487 20.814 136.959 10.05 136.671 9.22198C136.311 8.17798 135.807 7.45798 135.555 7.16998C135.195 6.73798 135.303 6.05398 135.987 6.05398H143.079C143.727 6.05398 143.799 6.52198 143.655 7.06198C143.655 7.09799 143.691 7.16998 143.619 7.24198C143.475 7.60199 143.187 8.21399 143.475 9.07798L144.231 11.346L146.571 18.438L148.299 13.182C148.479 12.606 148.551 12.03 148.551 11.562C148.551 9.32998 147.147 7.99798 146.283 7.16998V7.20598C145.851 6.80998 146.067 6.05398 146.715 6.05398H152.871ZM152.871 6.48598H146.715C146.499 6.48598 146.427 6.73798 146.571 6.88198C147.507 7.78198 148.983 9.18598 148.983 11.562C148.983 12.102 148.911 12.714 148.731 13.326L146.571 19.878L143.799 11.49L143.043 9.22198C142.755 8.24998 143.043 7.49398 143.187 7.09799C143.223 7.06198 143.223 7.02598 143.223 6.98998C143.295 6.70198 143.295 6.48598 143.079 6.48598H135.987C135.771 6.48598 135.771 6.73798 135.915 6.88198C136.167 7.16998 136.743 7.99798 137.103 9.07798C137.463 10.122 140.919 20.67 140.919 20.67C141.639 22.614 142.755 23.442 143.835 23.442H145.419L145.167 24.054C144.447 25.998 142.719 26.826 140.847 26.826C139.299 26.826 137.643 26.286 136.203 25.278C135.159 26.358 134.691 27.654 134.691 28.878C134.691 31.11 136.311 33.054 139.119 33.054C142.863 33.054 144.627 30.642 145.959 26.754L151.755 9.07798C152.151 7.92598 152.655 7.27798 152.835 7.02598C153.051 6.80998 153.087 6.48598 152.871 6.48598Z" stroke="#CBCAC7"/>
<path d="M169.61 9.94198C169.61 11.922 167.918 12.462 166.226 12.462C165.218 12.462 164.138 12.246 163.382 11.994C163.814 9.94198 162.41 8.14198 161.186 8.14198C160.322 8.14198 159.71 8.57398 159.71 9.58198C159.71 10.698 161.546 11.634 163.562 12.642C166.37 14.082 169.61 15.666 169.61 18.582C169.61 21.822 165.794 24.234 161.51 24.234C157.946 24.234 153.95 23.514 153.446 21.282C153.158 19.302 155.894 17.106 158.342 17.25C159.386 17.286 159.602 17.682 159.602 18.438C159.602 19.842 160.862 21.786 161.834 21.786C162.698 21.786 163.346 21.354 163.346 20.346C163.346 19.338 161.438 18.33 159.566 17.394C156.938 16.062 153.446 14.046 153.446 11.346C153.446 8.21398 156.938 5.69398 162.518 5.69398C166.73 5.69398 169.61 7.42199 169.61 9.94198ZM169.178 9.94198C169.178 7.70999 166.442 6.12599 162.518 6.12599C157.226 6.12599 153.878 8.42998 153.878 11.346C153.878 14.046 157.046 15.702 159.782 17.034C161.942 18.114 163.778 19.05 163.778 20.346C163.778 21.642 162.914 22.218 161.834 22.218C160.646 22.218 159.17 20.058 159.17 18.438C159.17 17.97 159.026 17.718 158.342 17.682C156.074 17.538 153.518 19.446 153.878 21.21C154.238 23.226 158.054 23.802 161.51 23.802C165.578 23.802 169.178 21.606 169.178 18.582C169.178 15.954 166.046 14.37 163.346 13.002C161.258 11.958 159.278 10.914 159.278 9.58198C159.278 8.28598 160.106 7.70998 161.186 7.70998C162.554 7.70998 164.174 9.58198 163.886 11.706C164.498 11.886 165.398 12.03 166.226 12.03C167.702 12.03 169.178 11.562 169.178 9.94198Z" stroke="#CBCAC7"/>
<path d="M181.836 18.042C182.376 17.754 183.276 17.898 183.276 19.122C183.276 21.75 181.008 23.874 178.344 23.874C174.744 23.874 172.296 21.786 172.296 18.006V8.50198H171.504C170.892 8.50198 170.496 7.96198 170.496 7.27799C170.496 6.55798 170.928 6.19798 171.468 6.05398H171.432C173.016 5.62198 175.14 4.50598 176.292 2.12998C176.652 1.40998 177.192 1.04998 177.696 1.04998C178.272 1.04998 178.776 1.55398 178.776 2.48998V6.05398H182.196C182.808 6.05398 183.204 6.59399 183.204 7.27799C183.204 7.96198 182.808 8.50198 182.196 8.50198H178.776V16.098C178.776 17.646 179.604 18.33 180.612 18.33C181.008 18.33 181.404 18.222 181.836 18.042ZM182.052 18.402C181.548 18.654 181.08 18.762 180.612 18.762C179.388 18.762 178.344 17.934 178.344 16.098V8.06998H182.196C182.52 8.06998 182.772 7.74598 182.772 7.27799C182.772 6.80998 182.52 6.48598 182.196 6.48598H178.344V2.48998C178.344 1.84198 178.056 1.48198 177.696 1.48198C177.336 1.48198 176.94 1.80598 176.652 2.34598C175.428 4.72198 173.16 6.05398 171.54 6.48598C171.216 6.55798 170.928 6.80998 170.928 7.27799C170.928 7.74598 171.18 8.06998 171.504 8.06998H172.728V18.006C172.728 21.498 175.032 23.442 178.344 23.442C180.792 23.442 182.844 21.534 182.844 19.122C182.844 18.366 182.34 18.258 182.052 18.402Z" stroke="#CBCAC7"/>
<path d="M201.417 11.562C201.417 12.894 200.913 14.01 198.825 14.37L191.661 15.63C192.345 17.718 193.857 18.366 195.441 18.366C197.097 18.366 198.789 17.646 199.653 16.998C200.517 16.386 201.417 16.962 201.417 17.754C201.417 21.93 197.133 24.234 193.317 24.234C188.277 24.234 184.137 21.21 184.137 14.946C184.137 8.68198 188.277 5.69398 193.317 5.69398C198.861 5.69398 201.417 9.00598 201.417 11.562ZM200.985 11.562C200.985 9.22199 198.573 6.12599 193.317 6.12599C188.493 6.12599 184.569 8.96998 184.569 14.946C184.569 20.922 188.493 23.802 193.317 23.802C196.917 23.802 200.985 21.642 200.985 17.754C200.985 17.358 200.409 17.142 199.941 17.358C199.041 18.006 197.205 18.798 195.441 18.798C193.605 18.798 191.841 17.934 191.085 15.27L198.753 13.938C200.445 13.578 200.985 12.642 200.985 11.562ZM194.577 13.074C193.821 13.218 190.869 13.722 190.869 13.722C190.797 13.218 190.797 12.93 190.797 12.678C190.797 10.05 191.949 7.70998 193.101 7.70998C194.217 7.70998 195.081 9.32998 195.657 11.13C195.657 11.166 195.693 11.202 195.693 11.238C195.873 11.814 196.125 12.786 194.577 13.074ZM194.505 12.642C195.585 12.426 195.369 11.742 195.261 11.382C195.261 11.346 195.225 11.346 195.225 11.274C194.721 9.61798 193.965 8.14198 193.101 8.14198C192.165 8.14198 191.229 10.266 191.229 12.678C191.229 12.93 191.193 12.966 191.229 13.218L194.505 12.642Z" stroke="#CBCAC7"/>
<path d="M229.67 22.758C229.922 23.154 229.814 23.874 229.202 23.874H222.866C222.182 23.874 222.11 23.154 222.362 22.758C222.506 22.542 222.794 21.822 222.794 20.742V13.254C222.794 11.454 222.182 10.842 221.354 10.842C220.778 10.842 220.094 11.13 219.482 11.526V20.742C219.482 21.786 219.734 22.506 219.878 22.758C220.094 23.154 219.986 23.874 219.41 23.874H213.074C212.354 23.874 212.354 23.154 212.57 22.758C212.714 22.542 213.002 21.822 213.002 20.742V13.254C213.002 11.454 212.39 10.842 211.562 10.842C210.986 10.842 210.302 11.13 209.69 11.526V20.742C209.69 21.786 209.942 22.506 210.122 22.758C210.338 23.154 210.266 23.874 209.618 23.874H203.282C202.634 23.874 202.562 23.154 202.778 22.758C202.958 22.506 203.21 21.786 203.21 20.742V10.374C203.21 9.40198 202.778 8.68198 202.598 8.42998V8.46598C202.31 8.06998 202.274 7.31398 203.102 7.13398L209.33 6.05398C210.086 5.94599 210.338 6.30598 210.23 6.91798L210.05 7.56598C209.906 7.99798 209.762 8.60998 209.69 9.43798C210.482 7.81798 211.814 6.05398 214.262 6.05398C216.746 6.05398 218.654 7.52998 219.266 9.86998C220.022 8.14198 221.426 6.05398 224.054 6.05398C227.078 6.05398 229.274 8.32198 229.274 11.634V20.742C229.274 21.822 229.526 22.542 229.67 22.758ZM229.31 22.974C229.166 22.686 228.842 21.894 228.842 20.742V11.634C228.842 8.60998 226.862 6.48598 224.054 6.48598C221.354 6.48598 220.022 9.11398 219.374 10.842L218.978 10.806C218.582 8.21398 216.746 6.48598 214.262 6.48598C211.562 6.48598 210.302 9.00598 209.654 10.698L209.258 10.626V10.158C209.258 8.89798 209.474 7.92598 209.654 7.34998L209.798 6.84598C209.834 6.62999 209.654 6.48598 209.402 6.48598L203.174 7.56598C202.814 7.67398 202.814 8.03398 202.958 8.21398C203.138 8.50198 203.642 9.29399 203.642 10.374V20.742C203.642 21.822 203.318 22.65 203.138 22.974C203.066 23.154 203.066 23.442 203.282 23.442H209.618C209.834 23.442 209.834 23.154 209.762 22.974C209.582 22.65 209.258 21.822 209.258 20.742V11.31C210.05 10.77 210.878 10.41 211.562 10.41C212.606 10.41 213.434 11.166 213.434 13.254V20.742C213.434 21.858 213.074 22.686 212.93 22.974C212.858 23.154 212.858 23.442 213.074 23.442H219.41C219.626 23.442 219.626 23.154 219.518 22.974C219.374 22.686 219.05 21.894 219.05 20.742V11.31C219.842 10.77 220.67 10.41 221.354 10.41C222.398 10.41 223.226 11.166 223.226 13.254V20.742C223.226 21.93 222.866 22.722 222.722 22.974C222.614 23.154 222.614 23.442 222.866 23.442H229.202C229.418 23.442 229.418 23.154 229.31 22.974Z" stroke="#CBCAC7"/>
</svg>
