<svg width="602" height="88" viewBox="0 0 602 88" fill="none" xmlns="http://www.w3.org/2000/svg">
<path d="M31.0881 1.29596C47.3121 1.29596 55.2801 17.904 55.2801 31.632C55.2801 45.36 47.3121 62.064 31.0881 62.064C28.0161 62.064 24.7521 61.968 21.3921 61.776C18.0321 61.584 14.0001 61.392 10.3521 61.392H3.05607C1.42407 61.392 1.13607 59.472 1.80807 58.416L1.71207 58.704C1.71207 58.896 2.00007 58.224 2.09607 58.032C2.76807 57.072 3.92007 54.864 3.92007 50.928V12.336C3.92007 8.30396 2.76807 6.19196 2.09607 5.32796C2.00007 5.23196 1.80807 4.94395 1.80807 4.84796C1.13607 3.79196 1.42407 1.87195 3.05607 1.87195H10.3521C14.1921 1.87195 17.8401 1.77596 21.3921 1.58396C24.7521 1.48795 28.0161 1.29596 31.0881 1.29596ZM31.0881 2.44795C28.0161 2.44795 24.7521 2.63996 21.3921 2.73595C18.0321 2.92796 14.0001 3.02396 10.3521 3.02396H3.05607C2.57607 3.02396 2.57607 3.79196 2.76807 4.27196L3.05607 4.75196C3.72807 5.71196 5.07207 7.82396 5.07207 12.336V50.928C5.07207 55.536 3.53607 57.744 2.96007 58.704L2.86407 58.8C2.57607 59.28 2.48007 60.24 3.05607 60.24H10.3521C14.1921 60.24 17.8401 60.432 21.3921 60.624C24.7521 60.816 28.0161 60.912 31.0881 60.912C46.5441 60.912 54.1281 44.784 54.1281 31.632C54.1281 18.48 46.5441 2.44795 31.0881 2.44795ZM21.2001 56.016V7.24795C30.9921 7.24795 35.4081 21.072 35.4081 31.632C35.4081 42.192 30.9921 56.016 21.2001 56.016ZM22.3521 8.39996V54.864C30.0321 54.192 34.2561 41.424 34.2561 31.632C34.2561 21.744 29.7441 8.39996 22.3521 8.39996Z" fill="white"/>
<path d="M104.504 28.56C104.504 32.112 103.16 35.088 97.5921 36.048L78.4881 39.408C80.3121 44.976 84.3441 46.704 88.5681 46.704C92.9841 46.704 97.4961 44.784 99.8001 43.056C102.104 41.424 104.504 42.96 104.504 45.072C104.504 56.208 93.0801 62.352 82.9041 62.352C69.4641 62.352 58.4241 54.288 58.4241 37.584C58.4241 20.88 69.4641 12.912 82.9041 12.912C97.6881 12.912 104.504 21.744 104.504 28.56ZM103.352 28.56C103.352 22.32 96.9201 14.064 82.9041 14.064C70.0401 14.064 59.5761 21.648 59.5761 37.584C59.5761 53.52 70.0401 61.2 82.9041 61.2C92.5041 61.2 103.352 55.44 103.352 45.072C103.352 44.016 101.816 43.44 100.568 44.016C98.1681 45.744 93.2721 47.856 88.5681 47.856C83.6721 47.856 78.9681 45.552 76.9521 38.448L97.4001 34.896C101.912 33.936 103.352 31.44 103.352 28.56ZM86.2641 32.592C84.2481 32.976 76.3761 34.32 76.3761 34.32C76.1841 32.976 76.1841 32.208 76.1841 31.536C76.1841 24.528 79.2561 18.288 82.3281 18.288C85.3041 18.288 87.6081 22.608 89.1441 27.408C89.1441 27.504 89.2401 27.6 89.2401 27.696C89.7201 29.232 90.3921 31.824 86.2641 32.592ZM86.0721 31.44C88.9521 30.864 88.3761 29.04 88.0881 28.08C88.0881 27.984 87.9921 27.984 87.9921 27.792C86.6481 23.376 84.6321 19.44 82.3281 19.44C79.8321 19.44 77.3361 25.104 77.3361 31.536C77.3361 32.208 77.2401 32.304 77.3361 32.976L86.0721 31.44Z" fill="white"/>
<path d="M150.374 24.24C150.374 29.52 145.862 30.96 141.35 30.96C138.662 30.96 135.782 30.384 133.766 29.712C134.918 24.24 131.174 19.44 127.91 19.44C125.606 19.44 123.974 20.592 123.974 23.28C123.974 26.256 128.87 28.752 134.246 31.44C141.734 35.28 150.374 39.504 150.374 47.28C150.374 55.92 140.198 62.352 128.774 62.352C119.27 62.352 108.614 60.432 107.27 54.48C106.502 49.2 113.798 43.344 120.326 43.728C123.11 43.824 123.686 44.88 123.686 46.896C123.686 50.64 127.046 55.824 129.638 55.824C131.942 55.824 133.67 54.672 133.67 51.984C133.67 49.296 128.582 46.608 123.59 44.112C116.582 40.56 107.27 35.184 107.27 27.984C107.27 19.632 116.582 12.912 131.462 12.912C142.694 12.912 150.374 17.52 150.374 24.24ZM149.222 24.24C149.222 18.288 141.926 14.064 131.462 14.064C117.35 14.064 108.422 20.208 108.422 27.984C108.422 35.184 116.87 39.6 124.166 43.152C129.926 46.032 134.822 48.528 134.822 51.984C134.822 55.44 132.518 56.976 129.638 56.976C126.47 56.976 122.534 51.216 122.534 46.896C122.534 45.648 122.15 44.976 120.326 44.88C114.278 44.496 107.462 49.584 108.422 54.288C109.382 59.664 119.558 61.2 128.774 61.2C139.622 61.2 149.222 55.344 149.222 47.28C149.222 40.272 140.87 36.048 133.67 32.4C128.102 29.616 122.822 26.832 122.822 23.28C122.822 19.824 125.03 18.288 127.91 18.288C131.558 18.288 135.878 23.28 135.11 28.944C136.742 29.424 139.142 29.808 141.35 29.808C145.286 29.808 149.222 28.56 149.222 24.24Z" fill="white"/>
<path d="M173.281 58.416C173.857 59.472 173.665 61.392 171.937 61.392H155.041C153.313 61.392 153.121 59.472 153.697 58.416C154.177 57.744 154.849 55.824 154.849 53.04V25.392C154.849 22.8 153.697 20.88 153.217 20.208V20.304C152.449 19.248 152.353 17.232 154.561 16.752L171.169 13.872C173.185 13.584 173.857 14.544 173.569 16.176L173.089 17.904C172.609 19.344 172.129 21.456 172.129 24.816V53.04C172.129 55.824 172.801 57.744 173.281 58.416ZM172.321 58.992C171.841 58.224 170.977 56.112 170.977 53.04V24.816C170.977 21.456 171.553 18.864 172.033 17.328L172.417 15.984C172.513 15.408 172.033 15.024 171.361 15.024L154.753 17.904C153.793 18.192 153.793 19.152 154.177 19.632C154.657 20.4 156.001 22.512 156.001 25.392V53.04C156.001 55.92 155.137 58.128 154.657 58.992C154.465 59.472 154.465 60.24 155.041 60.24H171.937C172.513 60.24 172.513 59.472 172.321 58.992ZM163.201 14.256C158.113 14.256 154.657 12.24 154.657 7.34396C154.657 2.54396 158.113 0.527954 163.201 0.527954C168.289 0.527954 171.649 2.54396 171.649 7.34396C171.649 12.24 168.289 14.256 163.201 14.256ZM163.201 13.104C167.521 13.104 170.497 11.472 170.497 7.34396C170.497 3.31195 167.521 1.67996 163.201 1.67996C158.881 1.67996 155.809 3.31195 155.809 7.34396C155.809 11.472 158.881 13.104 163.201 13.104Z" fill="white"/>
<path d="M224.373 31.728C224.373 44.016 214.581 50.064 202.485 50.544C214.005 51.216 226.101 54.768 226.101 65.904C226.101 76.848 216.693 83.472 204.405 83.472C192.021 83.472 184.917 78.768 184.917 73.296C184.917 70.224 187.125 66.96 191.733 64.08C187.989 64.08 184.341 64.272 181.653 64.56C177.237 64.944 175.221 63.024 176.181 58.992C176.181 58.8 176.277 58.608 176.277 58.416C176.661 56.4 177.237 54.096 179.637 52.464L187.125 47.472C181.365 44.496 177.621 39.312 177.621 31.728C177.621 18.96 188.181 12.912 200.949 12.912H208.917C211.509 12.912 212.373 11.472 212.373 9.83995C212.373 8.59195 211.701 7.05596 210.837 6.19196C213.333 3.88796 215.829 2.92796 218.037 2.92796C222.069 2.92796 225.525 5.71196 225.525 9.07195C225.525 13.968 220.629 15.504 215.925 15.504H214.101C220.341 18.384 224.373 23.76 224.373 31.728ZM185.781 52.176L191.733 48.048C194.901 49.008 197.973 49.392 200.949 49.392C213.237 49.392 223.221 43.728 223.221 31.728C223.221 23.184 218.037 17.808 210.453 15.408L210.645 14.352H215.925C220.053 14.352 224.373 13.008 224.373 9.07195C224.373 6.28795 221.493 4.07995 218.037 4.07995C216.117 4.07995 214.293 4.46395 212.373 6.19196C212.757 7.05596 213.525 8.87996 213.525 9.83995C213.525 12.048 212.277 14.064 208.917 14.064H200.949C188.757 14.064 178.773 19.728 178.773 31.728C178.773 39.12 182.901 44.304 189.333 47.28L180.213 53.424C178.293 54.864 177.813 56.784 177.429 58.608C177.429 58.8 177.333 59.088 177.333 59.184C176.565 62.064 178.773 63.408 181.461 63.408C184.725 63.024 189.429 62.928 194.229 62.928L194.421 63.888C188.757 66.864 186.069 70.224 186.069 73.296C186.069 78.192 192.789 82.32 204.405 82.32C216.117 82.32 224.949 76.08 224.949 65.904C224.949 54 209.397 51.504 197.205 51.504C193.653 51.504 188.373 51.984 185.781 52.176ZM200.949 18.288C204.117 18.288 206.709 24.336 206.709 31.728C206.709 39.12 204.117 45.168 200.949 45.168C197.877 45.168 195.285 39.12 195.285 31.728C195.285 24.336 197.877 18.288 200.949 18.288ZM200.949 19.44C198.453 19.44 196.437 24.912 196.437 31.728C196.437 38.544 198.453 44.016 200.949 44.016C203.541 44.016 205.557 38.544 205.557 31.728C205.557 24.912 203.541 19.44 200.949 19.44ZM195.861 63.216L196.341 63.024C208.245 63.216 220.725 64.752 220.725 67.248C220.725 69.264 216.021 70.32 210.741 70.32C202.197 70.32 191.925 67.92 195.861 63.216ZM219.573 67.248C219.573 65.52 207.861 64.368 196.629 64.176C194.325 67.344 203.349 69.168 210.741 69.168C215.445 69.168 219.573 68.496 219.573 67.248ZM191.733 49.392L189.909 50.64C191.733 50.544 194.133 50.352 196.437 50.352C194.805 50.16 193.077 49.872 191.733 49.392Z" fill="white"/>
<path d="M276.811 58.416C277.483 59.472 277.195 61.392 275.563 61.392H258.667C256.843 61.392 256.651 59.472 257.323 58.416C257.707 57.84 258.475 55.92 258.475 53.04V33.072C258.475 28.272 255.691 26.64 252.619 26.64C250.411 26.64 248.107 27.408 246.379 28.464V53.04C246.379 55.824 247.051 57.744 247.531 58.416C248.107 59.472 247.915 61.392 246.187 61.392H229.291C227.563 61.392 227.371 59.472 227.947 58.416C228.427 57.744 229.099 55.824 229.099 53.04V25.392C229.099 22.8 227.947 20.88 227.467 20.208V20.304C226.699 19.248 226.603 17.232 228.811 16.752L245.419 13.872C247.435 13.584 248.107 14.544 247.819 16.176L247.339 17.904C246.955 19.152 246.475 20.88 246.379 23.376C249.163 18.96 255.115 13.872 261.835 13.872C269.899 13.872 275.755 19.92 275.755 28.752V53.04C275.755 55.92 276.427 57.84 276.811 58.416ZM275.851 58.992C275.467 58.224 274.603 56.112 274.603 53.04V28.752C274.603 20.688 269.323 15.024 261.835 15.024C254.539 15.024 248.011 21.744 246.283 26.256L245.227 26.064V24.816C245.227 21.456 245.803 18.864 246.283 17.328L246.667 15.984C246.763 15.408 246.283 15.024 245.611 15.024L229.003 17.904C228.043 18.192 228.043 19.152 228.427 19.632C228.907 20.4 230.251 22.512 230.251 25.392V53.04C230.251 55.92 229.387 58.128 228.907 58.992C228.715 59.472 228.715 60.24 229.291 60.24H246.187C246.763 60.24 246.763 59.472 246.571 58.992C246.091 58.128 245.227 55.92 245.227 53.04V27.888C247.339 26.448 250.123 25.488 252.619 25.488C256.267 25.488 259.627 27.504 259.627 33.072V53.04C259.627 56.208 258.667 58.32 258.283 58.992C257.995 59.472 257.995 60.24 258.667 60.24H275.563C276.139 60.24 276.139 59.472 275.851 58.992Z" fill="white"/>
<path d="M348.187 24.24C348.187 29.52 343.675 30.96 339.163 30.96C336.475 30.96 333.595 30.384 331.579 29.712C332.731 24.24 328.987 19.44 325.723 19.44C323.419 19.44 321.787 20.592 321.787 23.28C321.787 26.256 326.683 28.752 332.059 31.44C339.547 35.28 348.187 39.504 348.187 47.28C348.187 55.92 338.011 62.352 326.587 62.352C317.083 62.352 306.427 60.432 305.083 54.48C304.315 49.2 311.611 43.344 318.139 43.728C320.923 43.824 321.499 44.88 321.499 46.896C321.499 50.64 324.859 55.824 327.451 55.824C329.755 55.824 331.483 54.672 331.483 51.984C331.483 49.296 326.395 46.608 321.403 44.112C314.395 40.56 305.083 35.184 305.083 27.984C305.083 19.632 314.395 12.912 329.275 12.912C340.507 12.912 348.187 17.52 348.187 24.24ZM347.035 24.24C347.035 18.288 339.739 14.064 329.275 14.064C315.163 14.064 306.235 20.208 306.235 27.984C306.235 35.184 314.683 39.6 321.979 43.152C327.739 46.032 332.635 48.528 332.635 51.984C332.635 55.44 330.331 56.976 327.451 56.976C324.283 56.976 320.347 51.216 320.347 46.896C320.347 45.648 319.963 44.976 318.139 44.88C312.091 44.496 305.275 49.584 306.235 54.288C307.195 59.664 317.371 61.2 326.587 61.2C337.435 61.2 347.035 55.344 347.035 47.28C347.035 40.272 338.683 36.048 331.483 32.4C325.915 29.616 320.635 26.832 320.635 23.28C320.635 19.824 322.843 18.288 325.723 18.288C329.371 18.288 333.691 23.28 332.923 28.944C334.555 29.424 336.955 29.808 339.163 29.808C343.099 29.808 347.035 28.56 347.035 24.24Z" fill="white"/>
<path d="M395.799 13.872C397.623 13.872 398.007 15.696 396.855 16.848H396.951C396.375 17.616 395.031 19.632 393.975 22.32L378.519 69.456C374.679 80.88 370.071 87.024 359.127 87.024C350.871 87.024 346.167 81.264 346.167 74.736C346.167 71.184 347.799 67.152 351.255 63.696C355.191 66.48 359.799 68.112 363.735 68.112C368.151 68.112 372.375 66 374.103 61.488V61.392H371.703C368.247 61.392 364.887 59.28 362.775 53.232C362.775 53.232 353.367 24.528 352.599 22.32C351.639 19.536 350.295 17.616 349.623 16.848C348.663 15.696 348.951 13.872 350.775 13.872H369.687C371.415 13.872 371.607 15.12 371.223 16.56C371.223 16.656 371.319 16.848 371.127 17.04C370.743 18 369.975 19.632 370.743 21.936L372.759 27.984L378.999 46.896L383.607 32.88C384.087 31.344 384.279 29.808 384.279 28.56C384.279 22.608 380.535 19.056 378.231 16.848V16.944C377.079 15.888 377.655 13.872 379.383 13.872H395.799ZM395.799 15.024H379.383C378.807 15.024 378.615 15.696 378.999 16.08C381.495 18.48 385.431 22.224 385.431 28.56C385.431 30 385.239 31.632 384.759 33.264L378.999 50.736L371.607 28.368L369.591 22.32C368.823 19.728 369.591 17.712 369.975 16.656C370.071 16.56 370.071 16.464 370.071 16.368C370.263 15.6 370.263 15.024 369.687 15.024H350.775C350.199 15.024 350.199 15.696 350.583 16.08C351.255 16.848 352.791 19.056 353.751 21.936C354.711 24.72 363.927 52.848 363.927 52.848C365.847 58.032 368.823 60.24 371.703 60.24H375.927L375.255 61.872C373.335 67.056 368.727 69.264 363.735 69.264C359.607 69.264 355.191 67.824 351.351 65.136C348.567 68.016 347.319 71.472 347.319 74.736C347.319 80.688 351.639 85.872 359.127 85.872C369.111 85.872 373.815 79.44 377.367 69.072L392.823 21.936C393.879 18.864 395.223 17.136 395.703 16.464C396.279 15.888 396.375 15.024 395.799 15.024Z" fill="white"/>
<path d="M440.437 24.24C440.437 29.52 435.925 30.96 431.413 30.96C428.725 30.96 425.845 30.384 423.829 29.712C424.981 24.24 421.237 19.44 417.973 19.44C415.669 19.44 414.037 20.592 414.037 23.28C414.037 26.256 418.933 28.752 424.309 31.44C431.797 35.28 440.437 39.504 440.437 47.28C440.437 55.92 430.261 62.352 418.837 62.352C409.333 62.352 398.677 60.432 397.333 54.48C396.565 49.2 403.861 43.344 410.389 43.728C413.173 43.824 413.749 44.88 413.749 46.896C413.749 50.64 417.109 55.824 419.701 55.824C422.005 55.824 423.733 54.672 423.733 51.984C423.733 49.296 418.645 46.608 413.653 44.112C406.645 40.56 397.333 35.184 397.333 27.984C397.333 19.632 406.645 12.912 421.525 12.912C432.757 12.912 440.437 17.52 440.437 24.24ZM439.285 24.24C439.285 18.288 431.989 14.064 421.525 14.064C407.413 14.064 398.485 20.208 398.485 27.984C398.485 35.184 406.933 39.6 414.229 43.152C419.989 46.032 424.885 48.528 424.885 51.984C424.885 55.44 422.581 56.976 419.701 56.976C416.533 56.976 412.597 51.216 412.597 46.896C412.597 45.648 412.213 44.976 410.389 44.88C404.341 44.496 397.525 49.584 398.485 54.288C399.445 59.664 409.621 61.2 418.837 61.2C429.685 61.2 439.285 55.344 439.285 47.28C439.285 40.272 430.933 36.048 423.733 32.4C418.165 29.616 412.885 26.832 412.885 23.28C412.885 19.824 415.093 18.288 417.973 18.288C421.621 18.288 425.941 23.28 425.173 28.944C426.805 29.424 429.205 29.808 431.413 29.808C435.349 29.808 439.285 28.56 439.285 24.24Z" fill="white"/>
<path d="M473.039 45.84C474.479 45.072 476.879 45.456 476.879 48.72C476.879 55.728 470.831 61.392 463.727 61.392C454.127 61.392 447.599 55.824 447.599 45.744V20.4H445.487C443.855 20.4 442.799 18.96 442.799 17.136C442.799 15.216 443.951 14.256 445.391 13.872H445.295C449.519 12.72 455.183 9.74396 458.255 3.40796C459.215 1.48795 460.655 0.527954 461.999 0.527954C463.535 0.527954 464.879 1.87195 464.879 4.36796V13.872H473.999C475.631 13.872 476.687 15.312 476.687 17.136C476.687 18.96 475.631 20.4 473.999 20.4H464.879V40.656C464.879 44.784 467.087 46.608 469.775 46.608C470.831 46.608 471.887 46.32 473.039 45.84ZM473.615 46.8C472.271 47.472 471.023 47.76 469.775 47.76C466.511 47.76 463.727 45.552 463.727 40.656V19.248H473.999C474.863 19.248 475.535 18.384 475.535 17.136C475.535 15.888 474.863 15.024 473.999 15.024H463.727V4.36796C463.727 2.63996 462.959 1.67996 461.999 1.67996C461.039 1.67996 459.983 2.54396 459.215 3.98396C455.951 10.32 449.903 13.872 445.583 15.024C444.719 15.216 443.951 15.888 443.951 17.136C443.951 18.384 444.623 19.248 445.487 19.248H448.751V45.744C448.751 55.056 454.895 60.24 463.727 60.24C470.255 60.24 475.727 55.152 475.727 48.72C475.727 46.704 474.383 46.416 473.615 46.8Z" fill="white"/>
<path d="M525.254 28.56C525.254 32.112 523.91 35.088 518.342 36.048L499.238 39.408C501.062 44.976 505.094 46.704 509.318 46.704C513.734 46.704 518.246 44.784 520.55 43.056C522.854 41.424 525.254 42.96 525.254 45.072C525.254 56.208 513.83 62.352 503.654 62.352C490.214 62.352 479.174 54.288 479.174 37.584C479.174 20.88 490.214 12.912 503.654 12.912C518.438 12.912 525.254 21.744 525.254 28.56ZM524.102 28.56C524.102 22.32 517.67 14.064 503.654 14.064C490.79 14.064 480.326 21.648 480.326 37.584C480.326 53.52 490.79 61.2 503.654 61.2C513.254 61.2 524.102 55.44 524.102 45.072C524.102 44.016 522.566 43.44 521.318 44.016C518.918 45.744 514.022 47.856 509.318 47.856C504.422 47.856 499.718 45.552 497.702 38.448L518.15 34.896C522.662 33.936 524.102 31.44 524.102 28.56ZM507.014 32.592C504.998 32.976 497.126 34.32 497.126 34.32C496.934 32.976 496.934 32.208 496.934 31.536C496.934 24.528 500.006 18.288 503.078 18.288C506.054 18.288 508.358 22.608 509.894 27.408C509.894 27.504 509.99 27.6 509.99 27.696C510.47 29.232 511.142 31.824 507.014 32.592ZM506.822 31.44C509.702 30.864 509.126 29.04 508.838 28.08C508.838 27.984 508.742 27.984 508.742 27.792C507.398 23.376 505.382 19.44 503.078 19.44C500.582 19.44 498.086 25.104 498.086 31.536C498.086 32.208 497.99 32.304 498.086 32.976L506.822 31.44Z" fill="white"/>
<path d="M600.596 58.416C601.268 59.472 600.98 61.392 599.348 61.392H582.452C580.628 61.392 580.436 59.472 581.108 58.416C581.492 57.84 582.26 55.92 582.26 53.04V33.072C582.26 28.272 580.628 26.64 578.42 26.64C576.884 26.64 575.06 27.408 573.428 28.464V53.04C573.428 55.824 574.1 57.744 574.484 58.416C575.06 59.472 574.772 61.392 573.236 61.392H556.34C554.42 61.392 554.42 59.472 554.996 58.416C555.38 57.84 556.148 55.92 556.148 53.04V33.072C556.148 28.272 554.516 26.64 552.308 26.64C550.772 26.64 548.948 27.408 547.316 28.464V53.04C547.316 55.824 547.988 57.744 548.468 58.416C549.044 59.472 548.852 61.392 547.124 61.392H530.228C528.5 61.392 528.308 59.472 528.884 58.416C529.364 57.744 530.036 55.824 530.036 53.04V25.392C530.036 22.8 528.884 20.88 528.404 20.208V20.304C527.636 19.248 527.54 17.232 529.748 16.752L546.356 13.872C548.372 13.584 549.044 14.544 548.756 16.176L548.276 17.904C547.892 19.056 547.508 20.688 547.316 22.896C549.428 18.576 552.98 13.872 559.508 13.872C566.132 13.872 571.22 17.808 572.852 24.048C574.868 19.44 578.612 13.872 585.62 13.872C593.684 13.872 599.54 19.92 599.54 28.752V53.04C599.54 55.92 600.212 57.84 600.596 58.416ZM599.636 58.992C599.252 58.224 598.388 56.112 598.388 53.04V28.752C598.388 20.688 593.108 15.024 585.62 15.024C578.42 15.024 574.868 22.032 573.14 26.64L572.084 26.544C571.028 19.632 566.132 15.024 559.508 15.024C552.308 15.024 548.948 21.744 547.22 26.256L546.164 26.064V24.816C546.164 21.456 546.74 18.864 547.22 17.328L547.604 15.984C547.7 15.408 547.22 15.024 546.548 15.024L529.94 17.904C528.98 18.192 528.98 19.152 529.364 19.632C529.844 20.4 531.188 22.512 531.188 25.392V53.04C531.188 55.92 530.324 58.128 529.844 58.992C529.652 59.472 529.652 60.24 530.228 60.24H547.124C547.7 60.24 547.7 59.472 547.508 58.992C547.028 58.128 546.164 55.92 546.164 53.04V27.888C548.276 26.448 550.484 25.488 552.308 25.488C555.092 25.488 557.3 27.504 557.3 33.072V53.04C557.3 56.016 556.34 58.224 555.956 58.992C555.764 59.472 555.764 60.24 556.34 60.24H573.236C573.812 60.24 573.812 59.472 573.524 58.992C573.14 58.224 572.276 56.112 572.276 53.04V27.888C574.388 26.448 576.596 25.488 578.42 25.488C581.204 25.488 583.412 27.504 583.412 33.072V53.04C583.412 56.208 582.452 58.32 582.068 58.992C581.78 59.472 581.78 60.24 582.452 60.24H599.348C599.924 60.24 599.924 59.472 599.636 58.992Z" fill="white"/>
<path d="M31.0881 1.29596C47.3121 1.29596 55.2801 17.904 55.2801 31.632C55.2801 45.36 47.3121 62.064 31.0881 62.064C28.0161 62.064 24.7521 61.968 21.3921 61.776C18.0321 61.584 14.0001 61.392 10.3521 61.392H3.05607C1.42407 61.392 1.13607 59.472 1.80807 58.416L1.71207 58.704C1.71207 58.896 2.00007 58.224 2.09607 58.032C2.76807 57.072 3.92007 54.864 3.92007 50.928V12.336C3.92007 8.30396 2.76807 6.19196 2.09607 5.32796C2.00007 5.23196 1.80807 4.94395 1.80807 4.84796C1.13607 3.79196 1.42407 1.87195 3.05607 1.87195H10.3521C14.1921 1.87195 17.8401 1.77596 21.3921 1.58396C24.7521 1.48795 28.0161 1.29596 31.0881 1.29596ZM31.0881 2.44795C28.0161 2.44795 24.7521 2.63996 21.3921 2.73595C18.0321 2.92796 14.0001 3.02396 10.3521 3.02396H3.05607C2.57607 3.02396 2.57607 3.79196 2.76807 4.27196L3.05607 4.75196C3.72807 5.71196 5.07207 7.82396 5.07207 12.336V50.928C5.07207 55.536 3.53607 57.744 2.96007 58.704L2.86407 58.8C2.57607 59.28 2.48007 60.24 3.05607 60.24H10.3521C14.1921 60.24 17.8401 60.432 21.3921 60.624C24.7521 60.816 28.0161 60.912 31.0881 60.912C46.5441 60.912 54.1281 44.784 54.1281 31.632C54.1281 18.48 46.5441 2.44795 31.0881 2.44795ZM21.2001 56.016V7.24795C30.9921 7.24795 35.4081 21.072 35.4081 31.632C35.4081 42.192 30.9921 56.016 21.2001 56.016ZM22.3521 8.39996V54.864C30.0321 54.192 34.2561 41.424 34.2561 31.632C34.2561 21.744 29.7441 8.39996 22.3521 8.39996Z" stroke="#CBCAC7"/>
<path d="M104.504 28.56C104.504 32.112 103.16 35.088 97.5921 36.048L78.4881 39.408C80.3121 44.976 84.3441 46.704 88.5681 46.704C92.9841 46.704 97.4961 44.784 99.8001 43.056C102.104 41.424 104.504 42.96 104.504 45.072C104.504 56.208 93.0801 62.352 82.9041 62.352C69.4641 62.352 58.4241 54.288 58.4241 37.584C58.4241 20.88 69.4641 12.912 82.9041 12.912C97.6881 12.912 104.504 21.744 104.504 28.56ZM103.352 28.56C103.352 22.32 96.9201 14.064 82.9041 14.064C70.0401 14.064 59.5761 21.648 59.5761 37.584C59.5761 53.52 70.0401 61.2 82.9041 61.2C92.5041 61.2 103.352 55.44 103.352 45.072C103.352 44.016 101.816 43.44 100.568 44.016C98.1681 45.744 93.2721 47.856 88.5681 47.856C83.6721 47.856 78.9681 45.552 76.9521 38.448L97.4001 34.896C101.912 33.936 103.352 31.44 103.352 28.56ZM86.2641 32.592C84.2481 32.976 76.3761 34.32 76.3761 34.32C76.1841 32.976 76.1841 32.208 76.1841 31.536C76.1841 24.528 79.2561 18.288 82.3281 18.288C85.3041 18.288 87.6081 22.608 89.1441 27.408C89.1441 27.504 89.2401 27.6 89.2401 27.696C89.7201 29.232 90.3921 31.824 86.2641 32.592ZM86.0721 31.44C88.9521 30.864 88.3761 29.04 88.0881 28.08C88.0881 27.984 87.9921 27.984 87.9921 27.792C86.6481 23.376 84.6321 19.44 82.3281 19.44C79.8321 19.44 77.3361 25.104 77.3361 31.536C77.3361 32.208 77.2401 32.304 77.3361 32.976L86.0721 31.44Z" stroke="#CBCAC7"/>
<path d="M150.374 24.24C150.374 29.52 145.862 30.96 141.35 30.96C138.662 30.96 135.782 30.384 133.766 29.712C134.918 24.24 131.174 19.44 127.91 19.44C125.606 19.44 123.974 20.592 123.974 23.28C123.974 26.256 128.87 28.752 134.246 31.44C141.734 35.28 150.374 39.504 150.374 47.28C150.374 55.92 140.198 62.352 128.774 62.352C119.27 62.352 108.614 60.432 107.27 54.48C106.502 49.2 113.798 43.344 120.326 43.728C123.11 43.824 123.686 44.88 123.686 46.896C123.686 50.64 127.046 55.824 129.638 55.824C131.942 55.824 133.67 54.672 133.67 51.984C133.67 49.296 128.582 46.608 123.59 44.112C116.582 40.56 107.27 35.184 107.27 27.984C107.27 19.632 116.582 12.912 131.462 12.912C142.694 12.912 150.374 17.52 150.374 24.24ZM149.222 24.24C149.222 18.288 141.926 14.064 131.462 14.064C117.35 14.064 108.422 20.208 108.422 27.984C108.422 35.184 116.87 39.6 124.166 43.152C129.926 46.032 134.822 48.528 134.822 51.984C134.822 55.44 132.518 56.976 129.638 56.976C126.47 56.976 122.534 51.216 122.534 46.896C122.534 45.648 122.15 44.976 120.326 44.88C114.278 44.496 107.462 49.584 108.422 54.288C109.382 59.664 119.558 61.2 128.774 61.2C139.622 61.2 149.222 55.344 149.222 47.28C149.222 40.272 140.87 36.048 133.67 32.4C128.102 29.616 122.822 26.832 122.822 23.28C122.822 19.824 125.03 18.288 127.91 18.288C131.558 18.288 135.878 23.28 135.11 28.944C136.742 29.424 139.142 29.808 141.35 29.808C145.286 29.808 149.222 28.56 149.222 24.24Z" stroke="#CBCAC7"/>
<path d="M173.281 58.416C173.857 59.472 173.665 61.392 171.937 61.392H155.041C153.313 61.392 153.121 59.472 153.697 58.416C154.177 57.744 154.849 55.824 154.849 53.04V25.392C154.849 22.8 153.697 20.88 153.217 20.208V20.304C152.449 19.248 152.353 17.232 154.561 16.752L171.169 13.872C173.185 13.584 173.857 14.544 173.569 16.176L173.089 17.904C172.609 19.344 172.129 21.456 172.129 24.816V53.04C172.129 55.824 172.801 57.744 173.281 58.416ZM172.321 58.992C171.841 58.224 170.977 56.112 170.977 53.04V24.816C170.977 21.456 171.553 18.864 172.033 17.328L172.417 15.984C172.513 15.408 172.033 15.024 171.361 15.024L154.753 17.904C153.793 18.192 153.793 19.152 154.177 19.632C154.657 20.4 156.001 22.512 156.001 25.392V53.04C156.001 55.92 155.137 58.128 154.657 58.992C154.465 59.472 154.465 60.24 155.041 60.24H171.937C172.513 60.24 172.513 59.472 172.321 58.992ZM163.201 14.256C158.113 14.256 154.657 12.24 154.657 7.34396C154.657 2.54396 158.113 0.527954 163.201 0.527954C168.289 0.527954 171.649 2.54396 171.649 7.34396C171.649 12.24 168.289 14.256 163.201 14.256ZM163.201 13.104C167.521 13.104 170.497 11.472 170.497 7.34396C170.497 3.31195 167.521 1.67996 163.201 1.67996C158.881 1.67996 155.809 3.31195 155.809 7.34396C155.809 11.472 158.881 13.104 163.201 13.104Z" stroke="#CBCAC7"/>
<path d="M224.373 31.728C224.373 44.016 214.581 50.064 202.485 50.544C214.005 51.216 226.101 54.768 226.101 65.904C226.101 76.848 216.693 83.472 204.405 83.472C192.021 83.472 184.917 78.768 184.917 73.296C184.917 70.224 187.125 66.96 191.733 64.08C187.989 64.08 184.341 64.272 181.653 64.56C177.237 64.944 175.221 63.024 176.181 58.992C176.181 58.8 176.277 58.608 176.277 58.416C176.661 56.4 177.237 54.096 179.637 52.464L187.125 47.472C181.365 44.496 177.621 39.312 177.621 31.728C177.621 18.96 188.181 12.912 200.949 12.912H208.917C211.509 12.912 212.373 11.472 212.373 9.83995C212.373 8.59195 211.701 7.05596 210.837 6.19196C213.333 3.88796 215.829 2.92796 218.037 2.92796C222.069 2.92796 225.525 5.71196 225.525 9.07195C225.525 13.968 220.629 15.504 215.925 15.504H214.101C220.341 18.384 224.373 23.76 224.373 31.728ZM185.781 52.176L191.733 48.048C194.901 49.008 197.973 49.392 200.949 49.392C213.237 49.392 223.221 43.728 223.221 31.728C223.221 23.184 218.037 17.808 210.453 15.408L210.645 14.352H215.925C220.053 14.352 224.373 13.008 224.373 9.07195C224.373 6.28795 221.493 4.07995 218.037 4.07995C216.117 4.07995 214.293 4.46395 212.373 6.19196C212.757 7.05596 213.525 8.87996 213.525 9.83995C213.525 12.048 212.277 14.064 208.917 14.064H200.949C188.757 14.064 178.773 19.728 178.773 31.728C178.773 39.12 182.901 44.304 189.333 47.28L180.213 53.424C178.293 54.864 177.813 56.784 177.429 58.608C177.429 58.8 177.333 59.088 177.333 59.184C176.565 62.064 178.773 63.408 181.461 63.408C184.725 63.024 189.429 62.928 194.229 62.928L194.421 63.888C188.757 66.864 186.069 70.224 186.069 73.296C186.069 78.192 192.789 82.32 204.405 82.32C216.117 82.32 224.949 76.08 224.949 65.904C224.949 54 209.397 51.504 197.205 51.504C193.653 51.504 188.373 51.984 185.781 52.176ZM200.949 18.288C204.117 18.288 206.709 24.336 206.709 31.728C206.709 39.12 204.117 45.168 200.949 45.168C197.877 45.168 195.285 39.12 195.285 31.728C195.285 24.336 197.877 18.288 200.949 18.288ZM200.949 19.44C198.453 19.44 196.437 24.912 196.437 31.728C196.437 38.544 198.453 44.016 200.949 44.016C203.541 44.016 205.557 38.544 205.557 31.728C205.557 24.912 203.541 19.44 200.949 19.44ZM195.861 63.216L196.341 63.024C208.245 63.216 220.725 64.752 220.725 67.248C220.725 69.264 216.021 70.32 210.741 70.32C202.197 70.32 191.925 67.92 195.861 63.216ZM219.573 67.248C219.573 65.52 207.861 64.368 196.629 64.176C194.325 67.344 203.349 69.168 210.741 69.168C215.445 69.168 219.573 68.496 219.573 67.248ZM191.733 49.392L189.909 50.64C191.733 50.544 194.133 50.352 196.437 50.352C194.805 50.16 193.077 49.872 191.733 49.392Z" stroke="#CBCAC7"/>
<path d="M276.811 58.416C277.483 59.472 277.195 61.392 275.563 61.392H258.667C256.843 61.392 256.651 59.472 257.323 58.416C257.707 57.84 258.475 55.92 258.475 53.04V33.072C258.475 28.272 255.691 26.64 252.619 26.64C250.411 26.64 248.107 27.408 246.379 28.464V53.04C246.379 55.824 247.051 57.744 247.531 58.416C248.107 59.472 247.915 61.392 246.187 61.392H229.291C227.563 61.392 227.371 59.472 227.947 58.416C228.427 57.744 229.099 55.824 229.099 53.04V25.392C229.099 22.8 227.947 20.88 227.467 20.208V20.304C226.699 19.248 226.603 17.232 228.811 16.752L245.419 13.872C247.435 13.584 248.107 14.544 247.819 16.176L247.339 17.904C246.955 19.152 246.475 20.88 246.379 23.376C249.163 18.96 255.115 13.872 261.835 13.872C269.899 13.872 275.755 19.92 275.755 28.752V53.04C275.755 55.92 276.427 57.84 276.811 58.416ZM275.851 58.992C275.467 58.224 274.603 56.112 274.603 53.04V28.752C274.603 20.688 269.323 15.024 261.835 15.024C254.539 15.024 248.011 21.744 246.283 26.256L245.227 26.064V24.816C245.227 21.456 245.803 18.864 246.283 17.328L246.667 15.984C246.763 15.408 246.283 15.024 245.611 15.024L229.003 17.904C228.043 18.192 228.043 19.152 228.427 19.632C228.907 20.4 230.251 22.512 230.251 25.392V53.04C230.251 55.92 229.387 58.128 228.907 58.992C228.715 59.472 228.715 60.24 229.291 60.24H246.187C246.763 60.24 246.763 59.472 246.571 58.992C246.091 58.128 245.227 55.92 245.227 53.04V27.888C247.339 26.448 250.123 25.488 252.619 25.488C256.267 25.488 259.627 27.504 259.627 33.072V53.04C259.627 56.208 258.667 58.32 258.283 58.992C257.995 59.472 257.995 60.24 258.667 60.24H275.563C276.139 60.24 276.139 59.472 275.851 58.992Z" stroke="#CBCAC7"/>
<path d="M348.187 24.24C348.187 29.52 343.675 30.96 339.163 30.96C336.475 30.96 333.595 30.384 331.579 29.712C332.731 24.24 328.987 19.44 325.723 19.44C323.419 19.44 321.787 20.592 321.787 23.28C321.787 26.256 326.683 28.752 332.059 31.44C339.547 35.28 348.187 39.504 348.187 47.28C348.187 55.92 338.011 62.352 326.587 62.352C317.083 62.352 306.427 60.432 305.083 54.48C304.315 49.2 311.611 43.344 318.139 43.728C320.923 43.824 321.499 44.88 321.499 46.896C321.499 50.64 324.859 55.824 327.451 55.824C329.755 55.824 331.483 54.672 331.483 51.984C331.483 49.296 326.395 46.608 321.403 44.112C314.395 40.56 305.083 35.184 305.083 27.984C305.083 19.632 314.395 12.912 329.275 12.912C340.507 12.912 348.187 17.52 348.187 24.24ZM347.035 24.24C347.035 18.288 339.739 14.064 329.275 14.064C315.163 14.064 306.235 20.208 306.235 27.984C306.235 35.184 314.683 39.6 321.979 43.152C327.739 46.032 332.635 48.528 332.635 51.984C332.635 55.44 330.331 56.976 327.451 56.976C324.283 56.976 320.347 51.216 320.347 46.896C320.347 45.648 319.963 44.976 318.139 44.88C312.091 44.496 305.275 49.584 306.235 54.288C307.195 59.664 317.371 61.2 326.587 61.2C337.435 61.2 347.035 55.344 347.035 47.28C347.035 40.272 338.683 36.048 331.483 32.4C325.915 29.616 320.635 26.832 320.635 23.28C320.635 19.824 322.843 18.288 325.723 18.288C329.371 18.288 333.691 23.28 332.923 28.944C334.555 29.424 336.955 29.808 339.163 29.808C343.099 29.808 347.035 28.56 347.035 24.24Z" stroke="#CBCAC7"/>
<path d="M395.799 13.872C397.623 13.872 398.007 15.696 396.855 16.848H396.951C396.375 17.616 395.031 19.632 393.975 22.32L378.519 69.456C374.679 80.88 370.071 87.024 359.127 87.024C350.871 87.024 346.167 81.264 346.167 74.736C346.167 71.184 347.799 67.152 351.255 63.696C355.191 66.48 359.799 68.112 363.735 68.112C368.151 68.112 372.375 66 374.103 61.488V61.392H371.703C368.247 61.392 364.887 59.28 362.775 53.232C362.775 53.232 353.367 24.528 352.599 22.32C351.639 19.536 350.295 17.616 349.623 16.848C348.663 15.696 348.951 13.872 350.775 13.872H369.687C371.415 13.872 371.607 15.12 371.223 16.56C371.223 16.656 371.319 16.848 371.127 17.04C370.743 18 369.975 19.632 370.743 21.936L372.759 27.984L378.999 46.896L383.607 32.88C384.087 31.344 384.279 29.808 384.279 28.56C384.279 22.608 380.535 19.056 378.231 16.848V16.944C377.079 15.888 377.655 13.872 379.383 13.872H395.799ZM395.799 15.024H379.383C378.807 15.024 378.615 15.696 378.999 16.08C381.495 18.48 385.431 22.224 385.431 28.56C385.431 30 385.239 31.632 384.759 33.264L378.999 50.736L371.607 28.368L369.591 22.32C368.823 19.728 369.591 17.712 369.975 16.656C370.071 16.56 370.071 16.464 370.071 16.368C370.263 15.6 370.263 15.024 369.687 15.024H350.775C350.199 15.024 350.199 15.696 350.583 16.08C351.255 16.848 352.791 19.056 353.751 21.936C354.711 24.72 363.927 52.848 363.927 52.848C365.847 58.032 368.823 60.24 371.703 60.24H375.927L375.255 61.872C373.335 67.056 368.727 69.264 363.735 69.264C359.607 69.264 355.191 67.824 351.351 65.136C348.567 68.016 347.319 71.472 347.319 74.736C347.319 80.688 351.639 85.872 359.127 85.872C369.111 85.872 373.815 79.44 377.367 69.072L392.823 21.936C393.879 18.864 395.223 17.136 395.703 16.464C396.279 15.888 396.375 15.024 395.799 15.024Z" stroke="#CBCAC7"/>
<path d="M440.437 24.24C440.437 29.52 435.925 30.96 431.413 30.96C428.725 30.96 425.845 30.384 423.829 29.712C424.981 24.24 421.237 19.44 417.973 19.44C415.669 19.44 414.037 20.592 414.037 23.28C414.037 26.256 418.933 28.752 424.309 31.44C431.797 35.28 440.437 39.504 440.437 47.28C440.437 55.92 430.261 62.352 418.837 62.352C409.333 62.352 398.677 60.432 397.333 54.48C396.565 49.2 403.861 43.344 410.389 43.728C413.173 43.824 413.749 44.88 413.749 46.896C413.749 50.64 417.109 55.824 419.701 55.824C422.005 55.824 423.733 54.672 423.733 51.984C423.733 49.296 418.645 46.608 413.653 44.112C406.645 40.56 397.333 35.184 397.333 27.984C397.333 19.632 406.645 12.912 421.525 12.912C432.757 12.912 440.437 17.52 440.437 24.24ZM439.285 24.24C439.285 18.288 431.989 14.064 421.525 14.064C407.413 14.064 398.485 20.208 398.485 27.984C398.485 35.184 406.933 39.6 414.229 43.152C419.989 46.032 424.885 48.528 424.885 51.984C424.885 55.44 422.581 56.976 419.701 56.976C416.533 56.976 412.597 51.216 412.597 46.896C412.597 45.648 412.213 44.976 410.389 44.88C404.341 44.496 397.525 49.584 398.485 54.288C399.445 59.664 409.621 61.2 418.837 61.2C429.685 61.2 439.285 55.344 439.285 47.28C439.285 40.272 430.933 36.048 423.733 32.4C418.165 29.616 412.885 26.832 412.885 23.28C412.885 19.824 415.093 18.288 417.973 18.288C421.621 18.288 425.941 23.28 425.173 28.944C426.805 29.424 429.205 29.808 431.413 29.808C435.349 29.808 439.285 28.56 439.285 24.24Z" stroke="#CBCAC7"/>
<path d="M473.039 45.84C474.479 45.072 476.879 45.456 476.879 48.72C476.879 55.728 470.831 61.392 463.727 61.392C454.127 61.392 447.599 55.824 447.599 45.744V20.4H445.487C443.855 20.4 442.799 18.96 442.799 17.136C442.799 15.216 443.951 14.256 445.391 13.872H445.295C449.519 12.72 455.183 9.74396 458.255 3.40796C459.215 1.48795 460.655 0.527954 461.999 0.527954C463.535 0.527954 464.879 1.87195 464.879 4.36796V13.872H473.999C475.631 13.872 476.687 15.312 476.687 17.136C476.687 18.96 475.631 20.4 473.999 20.4H464.879V40.656C464.879 44.784 467.087 46.608 469.775 46.608C470.831 46.608 471.887 46.32 473.039 45.84ZM473.615 46.8C472.271 47.472 471.023 47.76 469.775 47.76C466.511 47.76 463.727 45.552 463.727 40.656V19.248H473.999C474.863 19.248 475.535 18.384 475.535 17.136C475.535 15.888 474.863 15.024 473.999 15.024H463.727V4.36796C463.727 2.63996 462.959 1.67996 461.999 1.67996C461.039 1.67996 459.983 2.54396 459.215 3.98396C455.951 10.32 449.903 13.872 445.583 15.024C444.719 15.216 443.951 15.888 443.951 17.136C443.951 18.384 444.623 19.248 445.487 19.248H448.751V45.744C448.751 55.056 454.895 60.24 463.727 60.24C470.255 60.24 475.727 55.152 475.727 48.72C475.727 46.704 474.383 46.416 473.615 46.8Z" stroke="#CBCAC7"/>
<path d="M525.254 28.56C525.254 32.112 523.91 35.088 518.342 36.048L499.238 39.408C501.062 44.976 505.094 46.704 509.318 46.704C513.734 46.704 518.246 44.784 520.55 43.056C522.854 41.424 525.254 42.96 525.254 45.072C525.254 56.208 513.83 62.352 503.654 62.352C490.214 62.352 479.174 54.288 479.174 37.584C479.174 20.88 490.214 12.912 503.654 12.912C518.438 12.912 525.254 21.744 525.254 28.56ZM524.102 28.56C524.102 22.32 517.67 14.064 503.654 14.064C490.79 14.064 480.326 21.648 480.326 37.584C480.326 53.52 490.79 61.2 503.654 61.2C513.254 61.2 524.102 55.44 524.102 45.072C524.102 44.016 522.566 43.44 521.318 44.016C518.918 45.744 514.022 47.856 509.318 47.856C504.422 47.856 499.718 45.552 497.702 38.448L518.15 34.896C522.662 33.936 524.102 31.44 524.102 28.56ZM507.014 32.592C504.998 32.976 497.126 34.32 497.126 34.32C496.934 32.976 496.934 32.208 496.934 31.536C496.934 24.528 500.006 18.288 503.078 18.288C506.054 18.288 508.358 22.608 509.894 27.408C509.894 27.504 509.99 27.6 509.99 27.696C510.47 29.232 511.142 31.824 507.014 32.592ZM506.822 31.44C509.702 30.864 509.126 29.04 508.838 28.08C508.838 27.984 508.742 27.984 508.742 27.792C507.398 23.376 505.382 19.44 503.078 19.44C500.582 19.44 498.086 25.104 498.086 31.536C498.086 32.208 497.99 32.304 498.086 32.976L506.822 31.44Z" stroke="#CBCAC7"/>
<path d="M600.596 58.416C601.268 59.472 600.98 61.392 599.348 61.392H582.452C580.628 61.392 580.436 59.472 581.108 58.416C581.492 57.84 582.26 55.92 582.26 53.04V33.072C582.26 28.272 580.628 26.64 578.42 26.64C576.884 26.64 575.06 27.408 573.428 28.464V53.04C573.428 55.824 574.1 57.744 574.484 58.416C575.06 59.472 574.772 61.392 573.236 61.392H556.34C554.42 61.392 554.42 59.472 554.996 58.416C555.38 57.84 556.148 55.92 556.148 53.04V33.072C556.148 28.272 554.516 26.64 552.308 26.64C550.772 26.64 548.948 27.408 547.316 28.464V53.04C547.316 55.824 547.988 57.744 548.468 58.416C549.044 59.472 548.852 61.392 547.124 61.392H530.228C528.5 61.392 528.308 59.472 528.884 58.416C529.364 57.744 530.036 55.824 530.036 53.04V25.392C530.036 22.8 528.884 20.88 528.404 20.208V20.304C527.636 19.248 527.54 17.232 529.748 16.752L546.356 13.872C548.372 13.584 549.044 14.544 548.756 16.176L548.276 17.904C547.892 19.056 547.508 20.688 547.316 22.896C549.428 18.576 552.98 13.872 559.508 13.872C566.132 13.872 571.22 17.808 572.852 24.048C574.868 19.44 578.612 13.872 585.62 13.872C593.684 13.872 599.54 19.92 599.54 28.752V53.04C599.54 55.92 600.212 57.84 600.596 58.416ZM599.636 58.992C599.252 58.224 598.388 56.112 598.388 53.04V28.752C598.388 20.688 593.108 15.024 585.62 15.024C578.42 15.024 574.868 22.032 573.14 26.64L572.084 26.544C571.028 19.632 566.132 15.024 559.508 15.024C552.308 15.024 548.948 21.744 547.22 26.256L546.164 26.064V24.816C546.164 21.456 546.74 18.864 547.22 17.328L547.604 15.984C547.7 15.408 547.22 15.024 546.548 15.024L529.94 17.904C528.98 18.192 528.98 19.152 529.364 19.632C529.844 20.4 531.188 22.512 531.188 25.392V53.04C531.188 55.92 530.324 58.128 529.844 58.992C529.652 59.472 529.652 60.24 530.228 60.24H547.124C547.7 60.24 547.7 59.472 547.508 58.992C547.028 58.128 546.164 55.92 546.164 53.04V27.888C548.276 26.448 550.484 25.488 552.308 25.488C555.092 25.488 557.3 27.504 557.3 33.072V53.04C557.3 56.016 556.34 58.224 555.956 58.992C555.764 59.472 555.764 60.24 556.34 60.24H573.236C573.812 60.24 573.812 59.472 573.524 58.992C573.14 58.224 572.276 56.112 572.276 53.04V27.888C574.388 26.448 576.596 25.488 578.42 25.488C581.204 25.488 583.412 27.504 583.412 33.072V53.04C583.412 56.208 582.452 58.32 582.068 58.992C581.78 59.472 581.78 60.24 582.452 60.24H599.348C599.924 60.24 599.924 59.472 599.636 58.992Z" stroke="#CBCAC7"/>
</svg>
