<svg width="231" height="35" viewBox="0 0 231 35" fill="none" xmlns="http://www.w3.org/2000/svg">
<path d="M11.908 1.73593C17.992 1.73593 20.98 7.96393 20.98 13.1119C20.98 18.2599 17.992 24.5239 11.908 24.5239C10.756 24.5239 9.53197 24.4879 8.27197 24.4159C7.01197 24.3439 5.49997 24.2719 4.13197 24.2719H1.39597C0.783966 24.2719 0.675966 23.5519 0.927966 23.1559L0.891966 23.2639C0.891966 23.3359 0.999966 23.0839 1.03597 23.0119C1.28797 22.6519 1.71997 21.8239 1.71997 20.3479V5.87593C1.71997 4.36393 1.28797 3.57193 1.03597 3.24793C0.999966 3.21193 0.927966 3.10393 0.927966 3.06793C0.675966 2.67193 0.783966 1.95193 1.39597 1.95193H4.13197C5.57197 1.95193 6.93997 1.91593 8.27197 1.84393C9.53197 1.80793 10.756 1.73593 11.908 1.73593ZM11.908 2.16793C10.756 2.16793 9.53197 2.23993 8.27197 2.27593C7.01197 2.34793 5.49997 2.38393 4.13197 2.38393H1.39597C1.21597 2.38393 1.21597 2.67193 1.28797 2.85193L1.39597 3.03193C1.64797 3.39193 2.15197 4.18393 2.15197 5.87593V20.3479C2.15197 22.0759 1.57597 22.9039 1.35997 23.2639L1.32397 23.2999C1.21597 23.4799 1.17997 23.8399 1.39597 23.8399H4.13197C5.57197 23.8399 6.93997 23.9119 8.27197 23.9839C9.53197 24.0559 10.756 24.0919 11.908 24.0919C17.704 24.0919 20.548 18.0439 20.548 13.1119C20.548 8.17993 17.704 2.16793 11.908 2.16793ZM8.19997 22.2559V3.96793C11.872 3.96793 13.528 9.15193 13.528 13.1119C13.528 17.0719 11.872 22.2559 8.19997 22.2559ZM8.63197 4.39993V21.8239C11.512 21.5719 13.096 16.7839 13.096 13.1119C13.096 9.40393 11.404 4.39993 8.63197 4.39993Z" stroke="#CBCAC7"/>
<path d="M39.439 11.9599C39.439 13.2919 38.935 14.4079 36.847 14.7679L29.683 16.0279C30.367 18.1159 31.879 18.7639 33.463 18.7639C35.119 18.7639 36.811 18.0439 37.675 17.3959C38.539 16.7839 39.439 17.3599 39.439 18.1519C39.439 22.3279 35.155 24.6319 31.339 24.6319C26.299 24.6319 22.159 21.6079 22.159 15.3439C22.159 9.07993 26.299 6.09193 31.339 6.09193C36.883 6.09193 39.439 9.40393 39.439 11.9599ZM39.007 11.9599C39.007 9.61993 36.595 6.52393 31.339 6.52393C26.515 6.52393 22.591 9.36793 22.591 15.3439C22.591 21.3199 26.515 24.1999 31.339 24.1999C34.939 24.1999 39.007 22.0399 39.007 18.1519C39.007 17.7559 38.431 17.5399 37.963 17.7559C37.063 18.4039 35.227 19.1959 33.463 19.1959C31.627 19.1959 29.863 18.3319 29.107 15.6679L36.775 14.3359C38.467 13.9759 39.007 13.0399 39.007 11.9599ZM32.599 13.4719C31.843 13.6159 28.891 14.1199 28.891 14.1199C28.819 13.6159 28.819 13.3279 28.819 13.0759C28.819 10.4479 29.971 8.10793 31.123 8.10793C32.239 8.10793 33.103 9.72793 33.679 11.5279C33.679 11.5639 33.715 11.5999 33.715 11.6359C33.895 12.2119 34.147 13.1839 32.599 13.4719ZM32.527 13.0399C33.607 12.8239 33.391 12.1399 33.283 11.7799C33.283 11.7439 33.247 11.7439 33.247 11.6719C32.743 10.0159 31.987 8.53993 31.123 8.53993C30.187 8.53993 29.251 10.6639 29.251 13.0759C29.251 13.3279 29.215 13.3639 29.251 13.6159L32.527 13.0399Z" stroke="#CBCAC7"/>
<path d="M56.6402 10.3399C56.6402 12.3199 54.9482 12.8599 53.2562 12.8599C52.2482 12.8599 51.1682 12.6439 50.4122 12.3919C50.8442 10.3399 49.4402 8.53993 48.2162 8.53993C47.3522 8.53993 46.7402 8.97193 46.7402 9.97993C46.7402 11.0959 48.5762 12.0319 50.5922 13.0399C53.4002 14.4799 56.6402 16.0639 56.6402 18.9799C56.6402 22.2199 52.8242 24.6319 48.5402 24.6319C44.9762 24.6319 40.9802 23.9119 40.4762 21.6799C40.1882 19.6999 42.9242 17.5039 45.3722 17.6479C46.4162 17.6839 46.6322 18.0799 46.6322 18.8359C46.6322 20.2399 47.8922 22.1839 48.8642 22.1839C49.7282 22.1839 50.3762 21.7519 50.3762 20.7439C50.3762 19.7359 48.4682 18.7279 46.5962 17.7919C43.9682 16.4599 40.4762 14.4439 40.4762 11.7439C40.4762 8.61193 43.9682 6.09193 49.5482 6.09193C53.7602 6.09193 56.6402 7.81993 56.6402 10.3399ZM56.2082 10.3399C56.2082 8.10793 53.4722 6.52393 49.5482 6.52393C44.2562 6.52393 40.9082 8.82793 40.9082 11.7439C40.9082 14.4439 44.0762 16.0999 46.8122 17.4319C48.9722 18.5119 50.8082 19.4479 50.8082 20.7439C50.8082 22.0399 49.9442 22.6159 48.8642 22.6159C47.6762 22.6159 46.2002 20.4559 46.2002 18.8359C46.2002 18.3679 46.0562 18.1159 45.3722 18.0799C43.1042 17.9359 40.5482 19.8439 40.9082 21.6079C41.2682 23.6239 45.0842 24.1999 48.5402 24.1999C52.6082 24.1999 56.2082 22.0039 56.2082 18.9799C56.2082 16.3519 53.0762 14.7679 50.3762 13.3999C48.2882 12.3559 46.3082 11.3119 46.3082 9.97993C46.3082 8.68393 47.1362 8.10793 48.2162 8.10793C49.5842 8.10793 51.2042 9.97993 50.9162 12.1039C51.5282 12.2839 52.4282 12.4279 53.2562 12.4279C54.7322 12.4279 56.2082 11.9599 56.2082 10.3399Z" stroke="#CBCAC7"/>
<path d="M65.2302 23.1559C65.4462 23.5519 65.3742 24.2719 64.7262 24.2719H58.3902C57.7422 24.2719 57.6702 23.5519 57.8862 23.1559C58.0662 22.9039 58.3182 22.1839 58.3182 21.1399V10.7719C58.3182 9.79993 57.8862 9.07993 57.7062 8.82793V8.86393C57.4182 8.46793 57.3822 7.71193 58.2102 7.53193L64.4382 6.45193C65.1942 6.34393 65.4462 6.70393 65.3382 7.31593L65.1582 7.96393C64.9782 8.50393 64.7982 9.29593 64.7982 10.5559V21.1399C64.7982 22.1839 65.0502 22.9039 65.2302 23.1559ZM64.8702 23.3719C64.6902 23.0839 64.3662 22.2919 64.3662 21.1399V10.5559C64.3662 9.29593 64.5822 8.32393 64.7622 7.74793L64.9062 7.24393C64.9422 7.02793 64.7622 6.88393 64.5102 6.88393L58.2822 7.96393C57.9222 8.07193 57.9222 8.43193 58.0662 8.61193C58.2462 8.89993 58.7502 9.69193 58.7502 10.7719V21.1399C58.7502 22.2199 58.4262 23.0479 58.2462 23.3719C58.1742 23.5519 58.1742 23.8399 58.3902 23.8399H64.7262C64.9422 23.8399 64.9422 23.5519 64.8702 23.3719ZM61.4502 6.59593C59.5422 6.59593 58.2462 5.83993 58.2462 4.00393C58.2462 2.20393 59.5422 1.44793 61.4502 1.44793C63.3582 1.44793 64.6182 2.20393 64.6182 4.00393C64.6182 5.83993 63.3582 6.59593 61.4502 6.59593ZM61.4502 6.16393C63.0702 6.16393 64.1862 5.55193 64.1862 4.00393C64.1862 2.49193 63.0702 1.87993 61.4502 1.87993C59.8302 1.87993 58.6782 2.49193 58.6782 4.00393C58.6782 5.55193 59.8302 6.16393 61.4502 6.16393Z" stroke="#CBCAC7"/>
<path d="M84.3897 13.1479C84.3897 17.7559 80.7177 20.0239 76.1817 20.2039C80.5017 20.4559 85.0378 21.7879 85.0378 25.9639C85.0378 30.0679 81.5097 32.5519 76.9017 32.5519C72.2577 32.5519 69.5938 30.7879 69.5938 28.7359C69.5938 27.5839 70.4217 26.3599 72.1497 25.2799C70.7457 25.2799 69.3777 25.3519 68.3697 25.4599C66.7137 25.6039 65.9577 24.8839 66.3177 23.3719C66.3177 23.2999 66.3537 23.2279 66.3537 23.1559C66.4977 22.3999 66.7137 21.5359 67.6137 20.9239L70.4217 19.0519C68.2617 17.9359 66.8577 15.9919 66.8577 13.1479C66.8577 8.35993 70.8178 6.09193 75.6058 6.09193H78.5938C79.5657 6.09193 79.8897 5.55193 79.8897 4.93993C79.8897 4.47193 79.6377 3.89593 79.3137 3.57193C80.2497 2.70793 81.1857 2.34793 82.0137 2.34793C83.5257 2.34793 84.8217 3.39193 84.8217 4.65193C84.8217 6.48793 82.9857 7.06393 81.2217 7.06393H80.5378C82.8778 8.14393 84.3897 10.1599 84.3897 13.1479ZM69.9177 20.8159L72.1497 19.2679C73.3377 19.6279 74.4898 19.7719 75.6058 19.7719C80.2138 19.7719 83.9577 17.6479 83.9577 13.1479C83.9577 9.94393 82.0137 7.92793 79.1697 7.02793L79.2417 6.63193H81.2217C82.7697 6.63193 84.3897 6.12793 84.3897 4.65193C84.3897 3.60793 83.3097 2.77993 82.0137 2.77993C81.2937 2.77993 80.6097 2.92393 79.8897 3.57193C80.0337 3.89593 80.3217 4.57993 80.3217 4.93993C80.3217 5.76793 79.8537 6.52393 78.5938 6.52393H75.6058C71.0338 6.52393 67.2897 8.64793 67.2897 13.1479C67.2897 15.9199 68.8377 17.8639 71.2497 18.9799L67.8298 21.2839C67.1098 21.8239 66.9297 22.5439 66.7857 23.2279C66.7857 23.2999 66.7497 23.4079 66.7497 23.4439C66.4617 24.5239 67.2897 25.0279 68.2977 25.0279C69.5217 24.8839 71.2857 24.8479 73.0857 24.8479L73.1577 25.2079C71.0337 26.3239 70.0257 27.5839 70.0257 28.7359C70.0257 30.5719 72.5457 32.1199 76.9017 32.1199C81.2937 32.1199 84.6057 29.7799 84.6057 25.9639C84.6057 21.4999 78.7737 20.5639 74.2017 20.5639C72.8697 20.5639 70.8897 20.7439 69.9177 20.8159ZM75.6058 8.10793C76.7938 8.10793 77.7657 10.3759 77.7657 13.1479C77.7657 15.9199 76.7938 18.1879 75.6058 18.1879C74.4538 18.1879 73.4818 15.9199 73.4818 13.1479C73.4818 10.3759 74.4538 8.10793 75.6058 8.10793ZM75.6058 8.53993C74.6698 8.53993 73.9137 10.5919 73.9137 13.1479C73.9137 15.7039 74.6698 17.7559 75.6058 17.7559C76.5778 17.7559 77.3337 15.7039 77.3337 13.1479C77.3337 10.5919 76.5778 8.53993 75.6058 8.53993ZM73.6977 24.9559L73.8777 24.8839C78.3417 24.9559 83.0218 25.5319 83.0218 26.4679C83.0218 27.2239 81.2577 27.6199 79.2777 27.6199C76.0737 27.6199 72.2217 26.7199 73.6977 24.9559ZM82.5897 26.4679C82.5897 25.8199 78.1977 25.3879 73.9857 25.3159C73.1217 26.5039 76.5057 27.1879 79.2777 27.1879C81.0417 27.1879 82.5897 26.9359 82.5897 26.4679ZM72.1497 19.7719L71.4657 20.2399C72.1497 20.2039 73.0498 20.1319 73.9137 20.1319C73.3018 20.0599 72.6537 19.9519 72.1497 19.7719Z" stroke="#CBCAC7"/>
<path d="M104.054 23.1559C104.306 23.5519 104.198 24.2719 103.586 24.2719H97.2499C96.5659 24.2719 96.4939 23.5519 96.7459 23.1559C96.8899 22.9399 97.1779 22.2199 97.1779 21.1399V13.6519C97.1779 11.8519 96.1339 11.2399 94.9819 11.2399C94.1539 11.2399 93.2899 11.5279 92.6419 11.9239V21.1399C92.6419 22.1839 92.8939 22.9039 93.0739 23.1559C93.2899 23.5519 93.2179 24.2719 92.5699 24.2719H86.2339C85.5859 24.2719 85.5139 23.5519 85.7299 23.1559C85.9099 22.9039 86.1619 22.1839 86.1619 21.1399V10.7719C86.1619 9.79993 85.7299 9.07993 85.5499 8.82793V8.86393C85.2619 8.46793 85.2259 7.71193 86.0539 7.53193L92.2819 6.45193C93.0379 6.34393 93.2899 6.70393 93.1819 7.31593L93.0019 7.96393C92.8579 8.43193 92.6779 9.07993 92.6419 10.0159C93.6859 8.35993 95.9179 6.45193 98.4379 6.45193C101.462 6.45193 103.658 8.71993 103.658 12.0319V21.1399C103.658 22.2199 103.91 22.9399 104.054 23.1559ZM103.694 23.3719C103.55 23.0839 103.226 22.2919 103.226 21.1399V12.0319C103.226 9.00793 101.246 6.88393 98.4379 6.88393C95.7019 6.88393 93.2539 9.40393 92.6059 11.0959L92.2099 11.0239V10.5559C92.2099 9.29593 92.4259 8.32393 92.6059 7.74793L92.7499 7.24393C92.7859 7.02793 92.6059 6.88393 92.3539 6.88393L86.1259 7.96393C85.7659 8.07193 85.7659 8.43193 85.9099 8.61193C86.0899 8.89993 86.5939 9.69193 86.5939 10.7719V21.1399C86.5939 22.2199 86.2699 23.0479 86.0899 23.3719C86.0179 23.5519 86.0179 23.8399 86.2339 23.8399H92.5699C92.7859 23.8399 92.7859 23.5519 92.7139 23.3719C92.5339 23.0479 92.2099 22.2199 92.2099 21.1399V11.7079C93.0019 11.1679 94.0459 10.8079 94.9819 10.8079C96.3499 10.8079 97.6099 11.5639 97.6099 13.6519V21.1399C97.6099 22.3279 97.2499 23.1199 97.1059 23.3719C96.9979 23.5519 96.9979 23.8399 97.2499 23.8399H103.586C103.802 23.8399 103.802 23.5519 103.694 23.3719Z" stroke="#CBCAC7"/>
<path d="M121.784 6.16393C121.892 7.96393 124.304 9.22393 127.004 10.5919C130.28 12.2839 134.312 14.8399 134.312 17.7919C134.312 21.7879 130.352 24.9919 125.096 24.9919C120.668 24.9919 115.376 24.2359 114.8 21.2479C114.332 18.7639 117.536 15.9559 120.668 16.0999C121.928 16.2079 122.216 16.7119 122.252 17.6119C122.36 19.4479 124.124 21.9679 125.384 21.9679C126.5 21.9679 127.292 21.3919 127.22 20.0599C127.112 18.2599 124.592 16.9639 121.964 15.6679C118.616 14.0119 114.8 12.1039 114.62 8.46793C114.44 4.47193 118.112 1.23193 125.132 1.23193C130.424 1.23193 134.132 3.42793 134.276 6.63193C134.456 9.11593 132.332 9.83593 130.208 9.83593C128.876 9.83593 127.544 9.58393 126.68 9.29593C127.112 6.63193 125.168 4.25593 123.62 4.25593C122.504 4.25593 121.712 4.83193 121.784 6.16393ZM121.352 6.16393C121.28 4.54393 122.288 3.82393 123.62 3.82393C125.348 3.82393 127.58 6.16393 127.184 8.97193C128.012 9.22393 129.128 9.40393 130.208 9.40393C132.116 9.40393 133.988 8.75593 133.844 6.63193C133.7 3.71593 130.172 1.66393 125.132 1.66393C118.58 1.66393 115.052 4.54393 115.052 8.46793C115.052 11.6719 118.976 13.6519 122.216 15.2719C125.024 16.6759 127.544 17.9359 127.652 20.0599C127.724 21.6799 126.716 22.3999 125.384 22.3999C123.908 22.3999 121.928 19.6639 121.82 17.6119C121.784 16.9639 121.604 16.6039 120.668 16.5319C117.752 16.3879 114.692 18.9079 115.232 21.1759C115.844 23.8399 120.704 24.5599 125.096 24.5599C130.244 24.5599 133.88 21.4279 133.88 17.7919C133.88 15.1999 130.064 12.6439 126.788 10.9879C123.98 9.54793 121.46 8.21593 121.352 6.16393Z" stroke="#CBCAC7"/>
<path d="M152.893 6.45193C153.577 6.45193 153.721 7.13593 153.289 7.56793H153.325C153.109 7.85593 152.605 8.61193 152.209 9.61993L146.413 27.2959C144.973 31.5799 143.245 33.8839 139.141 33.8839C136.045 33.8839 134.281 31.7239 134.281 29.2759C134.281 27.9439 134.893 26.4319 136.189 25.1359C137.665 26.1799 139.393 26.7919 140.869 26.7919C142.525 26.7919 144.109 25.9999 144.757 24.3079V24.2719H143.857C142.561 24.2719 141.301 23.4799 140.509 21.2119C140.509 21.2119 136.981 10.4479 136.693 9.61993C136.333 8.57593 135.829 7.85593 135.577 7.56793C135.217 7.13593 135.325 6.45193 136.009 6.45193H143.101C143.749 6.45193 143.821 6.91993 143.677 7.45993C143.677 7.49593 143.713 7.56793 143.641 7.63993C143.497 7.99993 143.209 8.61193 143.497 9.47593L144.253 11.7439L146.593 18.8359L148.321 13.5799C148.501 13.0039 148.573 12.4279 148.573 11.9599C148.573 9.72793 147.169 8.39593 146.305 7.56793V7.60393C145.873 7.20793 146.089 6.45193 146.737 6.45193H152.893ZM152.893 6.88393H146.737C146.521 6.88393 146.449 7.13593 146.593 7.27993C147.529 8.17993 149.005 9.58393 149.005 11.9599C149.005 12.4999 148.933 13.1119 148.753 13.7239L146.593 20.2759L143.821 11.8879L143.065 9.61993C142.777 8.64793 143.065 7.89193 143.209 7.49593C143.245 7.45993 143.245 7.42393 143.245 7.38793C143.317 7.09993 143.317 6.88393 143.101 6.88393H136.009C135.793 6.88393 135.793 7.13593 135.937 7.27993C136.189 7.56793 136.765 8.39593 137.125 9.47593C137.485 10.5199 140.941 21.0679 140.941 21.0679C141.661 23.0119 142.777 23.8399 143.857 23.8399H145.441L145.189 24.4519C144.469 26.3959 142.741 27.2239 140.869 27.2239C139.321 27.2239 137.665 26.6839 136.225 25.6759C135.181 26.7559 134.713 28.0519 134.713 29.2759C134.713 31.5079 136.333 33.4519 139.141 33.4519C142.885 33.4519 144.649 31.0399 145.981 27.1519L151.777 9.47593C152.173 8.32393 152.677 7.67593 152.857 7.42393C153.073 7.20793 153.109 6.88393 152.893 6.88393Z" stroke="#CBCAC7"/>
<path d="M169.632 10.3399C169.632 12.3199 167.94 12.8599 166.248 12.8599C165.24 12.8599 164.16 12.6439 163.404 12.3919C163.836 10.3399 162.432 8.53993 161.208 8.53993C160.344 8.53993 159.732 8.97193 159.732 9.97993C159.732 11.0959 161.568 12.0319 163.584 13.0399C166.392 14.4799 169.632 16.0639 169.632 18.9799C169.632 22.2199 165.816 24.6319 161.532 24.6319C157.968 24.6319 153.972 23.9119 153.468 21.6799C153.18 19.6999 155.916 17.5039 158.364 17.6479C159.408 17.6839 159.624 18.0799 159.624 18.8359C159.624 20.2399 160.884 22.1839 161.856 22.1839C162.72 22.1839 163.368 21.7519 163.368 20.7439C163.368 19.7359 161.46 18.7279 159.588 17.7919C156.96 16.4599 153.468 14.4439 153.468 11.7439C153.468 8.61193 156.96 6.09193 162.54 6.09193C166.752 6.09193 169.632 7.81993 169.632 10.3399ZM169.2 10.3399C169.2 8.10793 166.464 6.52393 162.54 6.52393C157.248 6.52393 153.9 8.82793 153.9 11.7439C153.9 14.4439 157.068 16.0999 159.804 17.4319C161.964 18.5119 163.8 19.4479 163.8 20.7439C163.8 22.0399 162.936 22.6159 161.856 22.6159C160.668 22.6159 159.192 20.4559 159.192 18.8359C159.192 18.3679 159.048 18.1159 158.364 18.0799C156.096 17.9359 153.54 19.8439 153.9 21.6079C154.26 23.6239 158.076 24.1999 161.532 24.1999C165.6 24.1999 169.2 22.0039 169.2 18.9799C169.2 16.3519 166.068 14.7679 163.368 13.3999C161.28 12.3559 159.3 11.3119 159.3 9.97993C159.3 8.68393 160.128 8.10793 161.208 8.10793C162.576 8.10793 164.196 9.97993 163.908 12.1039C164.52 12.2839 165.42 12.4279 166.248 12.4279C167.724 12.4279 169.2 11.9599 169.2 10.3399Z" stroke="#CBCAC7"/>
<path d="M181.858 18.4399C182.398 18.1519 183.298 18.2959 183.298 19.5199C183.298 22.1479 181.03 24.2719 178.366 24.2719C174.766 24.2719 172.318 22.1839 172.318 18.4039V8.89993H171.526C170.914 8.89993 170.518 8.35993 170.518 7.67593C170.518 6.95593 170.95 6.59593 171.49 6.45193H171.454C173.038 6.01993 175.162 4.90393 176.314 2.52793C176.674 1.80793 177.214 1.44793 177.718 1.44793C178.294 1.44793 178.798 1.95193 178.798 2.88793V6.45193H182.218C182.83 6.45193 183.226 6.99193 183.226 7.67593C183.226 8.35993 182.83 8.89993 182.218 8.89993H178.798V16.4959C178.798 18.0439 179.626 18.7279 180.634 18.7279C181.03 18.7279 181.426 18.6199 181.858 18.4399ZM182.074 18.7999C181.57 19.0519 181.102 19.1599 180.634 19.1599C179.41 19.1599 178.366 18.3319 178.366 16.4959V8.46793H182.218C182.542 8.46793 182.794 8.14393 182.794 7.67593C182.794 7.20793 182.542 6.88393 182.218 6.88393H178.366V2.88793C178.366 2.23993 178.078 1.87993 177.718 1.87993C177.358 1.87993 176.962 2.20393 176.674 2.74393C175.45 5.11993 173.182 6.45193 171.562 6.88393C171.238 6.95593 170.95 7.20793 170.95 7.67593C170.95 8.14393 171.202 8.46793 171.526 8.46793H172.75V18.4039C172.75 21.8959 175.054 23.8399 178.366 23.8399C180.814 23.8399 182.866 21.9319 182.866 19.5199C182.866 18.7639 182.362 18.6559 182.074 18.7999Z" stroke="#CBCAC7"/>
<path d="M201.439 11.9599C201.439 13.2919 200.935 14.4079 198.847 14.7679L191.683 16.0279C192.367 18.1159 193.879 18.7639 195.463 18.7639C197.119 18.7639 198.811 18.0439 199.675 17.3959C200.539 16.7839 201.439 17.3599 201.439 18.1519C201.439 22.3279 197.155 24.6319 193.339 24.6319C188.299 24.6319 184.159 21.6079 184.159 15.3439C184.159 9.07993 188.299 6.09193 193.339 6.09193C198.883 6.09193 201.439 9.40393 201.439 11.9599ZM201.007 11.9599C201.007 9.61993 198.595 6.52393 193.339 6.52393C188.515 6.52393 184.591 9.36793 184.591 15.3439C184.591 21.3199 188.515 24.1999 193.339 24.1999C196.939 24.1999 201.007 22.0399 201.007 18.1519C201.007 17.7559 200.431 17.5399 199.963 17.7559C199.063 18.4039 197.227 19.1959 195.463 19.1959C193.627 19.1959 191.863 18.3319 191.107 15.6679L198.775 14.3359C200.467 13.9759 201.007 13.0399 201.007 11.9599ZM194.599 13.4719C193.843 13.6159 190.891 14.1199 190.891 14.1199C190.819 13.6159 190.819 13.3279 190.819 13.0759C190.819 10.4479 191.971 8.10793 193.123 8.10793C194.239 8.10793 195.103 9.72793 195.679 11.5279C195.679 11.5639 195.715 11.5999 195.715 11.6359C195.895 12.2119 196.147 13.1839 194.599 13.4719ZM194.527 13.0399C195.607 12.8239 195.391 12.1399 195.283 11.7799C195.283 11.7439 195.247 11.7439 195.247 11.6719C194.743 10.0159 193.987 8.53993 193.123 8.53993C192.187 8.53993 191.251 10.6639 191.251 13.0759C191.251 13.3279 191.215 13.3639 191.251 13.6159L194.527 13.0399Z" stroke="#CBCAC7"/>
<path d="M229.692 23.1559C229.944 23.5519 229.836 24.2719 229.224 24.2719H222.888C222.204 24.2719 222.132 23.5519 222.384 23.1559C222.528 22.9399 222.816 22.2199 222.816 21.1399V13.6519C222.816 11.8519 222.204 11.2399 221.376 11.2399C220.8 11.2399 220.116 11.5279 219.504 11.9239V21.1399C219.504 22.1839 219.756 22.9039 219.9 23.1559C220.116 23.5519 220.008 24.2719 219.432 24.2719H213.096C212.376 24.2719 212.376 23.5519 212.592 23.1559C212.736 22.9399 213.024 22.2199 213.024 21.1399V13.6519C213.024 11.8519 212.412 11.2399 211.584 11.2399C211.008 11.2399 210.324 11.5279 209.712 11.9239V21.1399C209.712 22.1839 209.964 22.9039 210.144 23.1559C210.36 23.5519 210.288 24.2719 209.64 24.2719H203.304C202.656 24.2719 202.584 23.5519 202.8 23.1559C202.98 22.9039 203.232 22.1839 203.232 21.1399V10.7719C203.232 9.79993 202.8 9.07993 202.62 8.82793V8.86393C202.332 8.46793 202.296 7.71193 203.124 7.53193L209.352 6.45193C210.108 6.34393 210.36 6.70393 210.252 7.31593L210.072 7.96393C209.928 8.39593 209.784 9.00793 209.712 9.83593C210.504 8.21593 211.836 6.45193 214.284 6.45193C216.768 6.45193 218.676 7.92793 219.288 10.2679C220.044 8.53993 221.448 6.45193 224.076 6.45193C227.1 6.45193 229.296 8.71993 229.296 12.0319V21.1399C229.296 22.2199 229.548 22.9399 229.692 23.1559ZM229.332 23.3719C229.188 23.0839 228.864 22.2919 228.864 21.1399V12.0319C228.864 9.00793 226.884 6.88393 224.076 6.88393C221.376 6.88393 220.044 9.51193 219.396 11.2399L219 11.2039C218.604 8.61193 216.768 6.88393 214.284 6.88393C211.584 6.88393 210.324 9.40393 209.676 11.0959L209.28 11.0239V10.5559C209.28 9.29593 209.496 8.32393 209.676 7.74793L209.82 7.24393C209.856 7.02793 209.676 6.88393 209.424 6.88393L203.196 7.96393C202.836 8.07193 202.836 8.43193 202.98 8.61193C203.16 8.89993 203.664 9.69193 203.664 10.7719V21.1399C203.664 22.2199 203.34 23.0479 203.16 23.3719C203.088 23.5519 203.088 23.8399 203.304 23.8399H209.64C209.856 23.8399 209.856 23.5519 209.784 23.3719C209.604 23.0479 209.28 22.2199 209.28 21.1399V11.7079C210.072 11.1679 210.9 10.8079 211.584 10.8079C212.628 10.8079 213.456 11.5639 213.456 13.6519V21.1399C213.456 22.2559 213.096 23.0839 212.952 23.3719C212.88 23.5519 212.88 23.8399 213.096 23.8399H219.432C219.648 23.8399 219.648 23.5519 219.54 23.3719C219.396 23.0839 219.072 22.2919 219.072 21.1399V11.7079C219.864 11.1679 220.692 10.8079 221.376 10.8079C222.42 10.8079 223.248 11.5639 223.248 13.6519V21.1399C223.248 22.3279 222.888 23.1199 222.744 23.3719C222.636 23.5519 222.636 23.8399 222.888 23.8399H229.224C229.44 23.8399 229.44 23.5519 229.332 23.3719Z" stroke="#CBCAC7"/>
</svg>
