<svg width="96" height="30" viewBox="0 0 96 30" fill="none" xmlns="http://www.w3.org/2000/svg">
<mask id="path-1-outside-1_413_94" maskUnits="userSpaceOnUse" x="0.0639648" y="0" width="96" height="30" fill="black">
<rect fill="white" x="0.0639648" width="96" height="30"/>
<path d="M33.464 4.024C33.968 4.024 34.352 4.108 34.616 4.276C34.904 4.444 35.048 4.66 35.048 4.924C35.048 5.044 35.012 5.2 34.94 5.392C34.868 5.56 34.76 5.716 34.616 5.86C34.496 5.98 34.376 6.076 34.256 6.148C34.16 6.196 34.088 6.244 34.04 6.292C33.656 6.508 33.344 6.748 33.104 7.012C32.864 7.276 32.66 7.684 32.492 8.236L28.064 23.752C27.968 24.064 27.92 24.364 27.92 24.652C27.92 24.94 27.956 25.168 28.028 25.336C28.124 25.504 28.256 25.72 28.424 25.984C28.448 26.008 28.508 26.104 28.604 26.272C28.724 26.416 28.784 26.572 28.784 26.74C28.784 26.788 28.76 26.908 28.712 27.1C28.592 27.436 28.364 27.676 28.028 27.82C27.692 27.94 27.188 28 26.516 28H18.056C17.552 28 17.156 27.916 16.868 27.748C16.604 27.58 16.472 27.352 16.472 27.064C16.472 26.92 16.508 26.764 16.58 26.596C16.676 26.404 16.808 26.248 16.976 26.128C17.144 25.984 17.312 25.864 17.48 25.768C17.864 25.552 18.176 25.312 18.416 25.048C18.656 24.76 18.86 24.328 19.028 23.752L20.756 17.74H14.384L12.656 23.752C12.56 24.064 12.512 24.364 12.512 24.652C12.512 24.94 12.548 25.168 12.62 25.336C12.716 25.504 12.848 25.72 13.016 25.984C13.04 26.008 13.1 26.104 13.196 26.272C13.316 26.416 13.376 26.572 13.376 26.74C13.376 26.788 13.352 26.908 13.304 27.1C13.184 27.436 12.956 27.676 12.62 27.82C12.284 27.94 11.78 28 11.108 28H2.64796C2.14396 28 1.75996 27.916 1.49596 27.748C1.20796 27.58 1.06396 27.352 1.06396 27.064C1.06396 26.92 1.09996 26.764 1.17196 26.596C1.26796 26.404 1.39996 26.248 1.56796 26.128C1.73596 25.984 1.90396 25.864 2.07196 25.768C2.45596 25.552 2.76796 25.312 3.00796 25.048C3.24796 24.76 3.45196 24.328 3.61996 23.752L8.04797 8.236C8.14397 7.924 8.19197 7.624 8.19197 7.336C8.19197 7.072 8.14397 6.856 8.04797 6.688C7.97597 6.496 7.86797 6.28 7.72397 6.04C7.62796 5.92 7.54397 5.8 7.47197 5.68C7.39997 5.536 7.36397 5.392 7.36397 5.248C7.36397 5.2 7.38796 5.08 7.43597 4.888C7.53196 4.576 7.74796 4.36 8.08397 4.24C8.41997 4.096 8.92397 4.024 9.59597 4.024H18.056C18.56 4.024 18.944 4.108 19.208 4.276C19.496 4.444 19.64 4.66 19.64 4.924C19.64 5.044 19.604 5.2 19.532 5.392C19.46 5.56 19.352 5.716 19.208 5.86C19.088 5.98 18.968 6.076 18.848 6.148C18.752 6.196 18.68 6.244 18.632 6.292C18.248 6.508 17.936 6.748 17.696 7.012C17.456 7.276 17.252 7.684 17.084 8.236L15.392 14.14H21.764L23.456 8.236C23.552 7.924 23.6 7.624 23.6 7.336C23.6 7.072 23.552 6.856 23.456 6.688C23.384 6.496 23.276 6.28 23.132 6.04C23.036 5.92 22.952 5.8 22.88 5.68C22.808 5.536 22.772 5.392 22.772 5.248C22.772 5.2 22.796 5.08 22.844 4.888C22.94 4.576 23.156 4.36 23.492 4.24C23.828 4.096 24.332 4.024 25.004 4.024H33.464Z"/>
<path d="M47.7554 8.956C50.5154 8.956 52.7234 9.472 54.3794 10.504C56.0354 11.512 56.8634 13.06 56.8634 15.148C56.8634 15.94 56.7194 16.84 56.4314 17.848L54.9554 22.816C54.9314 22.912 54.9194 23.032 54.9194 23.176C54.9194 23.56 55.0754 23.752 55.3874 23.752C55.6754 23.752 55.9154 23.632 56.1074 23.392C56.3234 23.128 56.4674 22.996 56.5394 22.996C56.6594 22.996 56.7554 23.08 56.8274 23.248C56.9234 23.416 56.9714 23.608 56.9714 23.824C56.9954 24.472 56.7434 25.132 56.2154 25.804C55.7114 26.476 55.0274 27.028 54.1634 27.46C53.2994 27.892 52.3514 28.108 51.3194 28.108C50.0714 28.108 49.0034 27.88 48.1154 27.424C47.2274 26.968 46.6154 26.296 46.2794 25.408C45.5594 26.272 44.7074 26.944 43.7234 27.424C42.7394 27.88 41.6834 28.108 40.5554 28.108C39.2834 28.108 38.2154 27.868 37.3514 27.388C36.4874 26.884 35.8394 26.248 35.4074 25.48C34.9994 24.688 34.7954 23.86 34.7954 22.996C34.7954 22.612 34.8314 22.24 34.9034 21.88C35.2874 20.224 36.1154 18.976 37.3874 18.136C38.6834 17.296 40.2194 16.876 41.9954 16.876C43.9874 16.876 45.9434 17.188 47.8634 17.812L48.7634 15.436C49.0754 14.428 49.2314 13.648 49.2314 13.096C49.2074 12.52 49.0154 12.088 48.6554 11.8C48.2954 11.512 47.7434 11.368 46.9994 11.368C47.1434 11.752 47.2154 12.148 47.2154 12.556C47.2154 13.444 46.8794 14.212 46.2074 14.86C45.5354 15.508 44.5754 15.832 43.3274 15.832C42.1514 15.832 41.2274 15.58 40.5554 15.076C39.9074 14.548 39.5834 13.9 39.5834 13.132C39.5834 11.932 40.2554 10.936 41.5994 10.144C42.9434 9.352 44.9954 8.956 47.7554 8.956ZM45.7394 19.864C45.0674 19.864 44.5154 20.128 44.0834 20.656C43.6754 21.16 43.4714 21.712 43.4714 22.312C43.4714 22.696 43.5554 23.008 43.7234 23.248C43.9154 23.488 44.1794 23.608 44.5154 23.608C44.8274 23.608 45.1634 23.488 45.5234 23.248C45.9074 22.984 46.1834 22.6 46.3514 22.096L47.1074 19.972C46.6994 19.9 46.2434 19.864 45.7394 19.864Z"/>
<path d="M77.4301 9.424C77.8861 9.424 78.2341 9.52 78.4741 9.712C78.7381 9.904 78.8701 10.168 78.8701 10.504C78.8701 10.6 78.8461 10.768 78.7981 11.008C78.4861 12.064 77.7661 12.592 76.6381 12.592H74.5501L71.8501 21.484C71.7301 21.844 71.6701 22.216 71.6701 22.6C71.6701 23.032 71.7901 23.332 72.0301 23.5C72.2701 23.668 72.6061 23.752 73.0381 23.752C73.4221 23.752 73.9021 23.704 74.4781 23.608C74.7661 23.536 75.0181 23.5 75.2341 23.5C75.4021 23.5 75.5221 23.56 75.5941 23.68C75.6901 23.776 75.7381 23.908 75.7381 24.076C75.7621 24.556 75.4021 25.144 74.6581 25.84C73.9381 26.512 72.9541 27.1 71.7061 27.604C70.4581 28.084 69.0781 28.324 67.5661 28.324C65.9341 28.324 64.6261 27.952 63.6421 27.208C62.6581 26.464 62.1661 25.444 62.1661 24.148C62.1661 23.548 62.2621 22.972 62.4541 22.42L64.7581 15.292C64.8781 14.884 64.9381 14.56 64.9381 14.32C64.9381 13.84 64.8181 13.432 64.5781 13.096C64.3621 12.76 64.0501 12.412 63.6421 12.052C63.2821 11.716 63.0301 11.44 62.8861 11.224C62.7421 10.984 62.7061 10.708 62.7781 10.396C62.8741 10.084 63.0781 9.844 63.3901 9.676C63.7021 9.508 64.1941 9.424 64.8661 9.424H66.8821L69.1501 7.156C69.9421 6.364 70.6621 5.812 71.3101 5.5C71.9821 5.188 72.8461 5.032 73.9021 5.032C75.4141 5.032 76.1701 5.608 76.1701 6.76C76.1701 7.12 76.1221 7.456 76.0261 7.768L75.5221 9.424H77.4301Z"/>
<path d="M89.1548 8.956C90.5468 8.956 91.5668 9.22 92.2148 9.748C92.8628 10.276 93.1868 10.996 93.1868 11.908C93.1868 12.46 93.1028 12.988 92.9348 13.492L89.6228 24.256C89.5508 24.544 89.5148 24.796 89.5148 25.012C89.5148 25.324 89.5748 25.576 89.6948 25.768C89.8148 25.936 89.9828 26.104 90.1988 26.272C90.3668 26.44 90.4868 26.584 90.5588 26.704C90.6308 26.8 90.6428 26.932 90.5948 27.1C90.4748 27.412 90.2348 27.64 89.8748 27.784C89.5148 27.928 88.9628 28 88.2188 28H80.0108C79.3868 28 78.9308 27.904 78.6428 27.712C78.3548 27.496 78.2588 27.22 78.3548 26.884C78.4508 26.596 78.7028 26.344 79.1108 26.128C79.4708 25.936 79.7708 25.708 80.0108 25.444C80.2508 25.18 80.4548 24.76 80.6228 24.184L83.7548 13.78C83.8268 13.564 83.8628 13.384 83.8628 13.24C83.8628 12.976 83.8028 12.772 83.6828 12.628C83.5628 12.46 83.3828 12.292 83.1428 12.124C82.9028 11.932 82.7348 11.764 82.6388 11.62C82.5428 11.476 82.5308 11.284 82.6028 11.044C82.7468 10.492 83.5028 10.012 84.8708 9.604C86.2388 9.172 87.6668 8.956 89.1548 8.956ZM91.5668 1C92.5028 1 93.2828 1.312 93.9068 1.936C94.5308 2.536 94.8428 3.28 94.8428 4.168C94.8428 4.792 94.6748 5.404 94.3388 6.004C94.0268 6.604 93.5708 7.096 92.9708 7.48C92.3948 7.84 91.7468 8.02 91.0268 8.02C90.1148 8.02 89.3468 7.72 88.7228 7.12C88.1228 6.496 87.8108 5.728 87.7868 4.816C87.7868 4.216 87.9428 3.628 88.2548 3.052C88.5668 2.452 89.0108 1.96 89.5868 1.576C90.1628 1.192 90.8228 1 91.5668 1Z"/>
</mask>
<path d="M33.464 4.024C33.968 4.024 34.352 4.108 34.616 4.276C34.904 4.444 35.048 4.66 35.048 4.924C35.048 5.044 35.012 5.2 34.94 5.392C34.868 5.56 34.76 5.716 34.616 5.86C34.496 5.98 34.376 6.076 34.256 6.148C34.16 6.196 34.088 6.244 34.04 6.292C33.656 6.508 33.344 6.748 33.104 7.012C32.864 7.276 32.66 7.684 32.492 8.236L28.064 23.752C27.968 24.064 27.92 24.364 27.92 24.652C27.92 24.94 27.956 25.168 28.028 25.336C28.124 25.504 28.256 25.72 28.424 25.984C28.448 26.008 28.508 26.104 28.604 26.272C28.724 26.416 28.784 26.572 28.784 26.74C28.784 26.788 28.76 26.908 28.712 27.1C28.592 27.436 28.364 27.676 28.028 27.82C27.692 27.94 27.188 28 26.516 28H18.056C17.552 28 17.156 27.916 16.868 27.748C16.604 27.58 16.472 27.352 16.472 27.064C16.472 26.92 16.508 26.764 16.58 26.596C16.676 26.404 16.808 26.248 16.976 26.128C17.144 25.984 17.312 25.864 17.48 25.768C17.864 25.552 18.176 25.312 18.416 25.048C18.656 24.76 18.86 24.328 19.028 23.752L20.756 17.74H14.384L12.656 23.752C12.56 24.064 12.512 24.364 12.512 24.652C12.512 24.94 12.548 25.168 12.62 25.336C12.716 25.504 12.848 25.72 13.016 25.984C13.04 26.008 13.1 26.104 13.196 26.272C13.316 26.416 13.376 26.572 13.376 26.74C13.376 26.788 13.352 26.908 13.304 27.1C13.184 27.436 12.956 27.676 12.62 27.82C12.284 27.94 11.78 28 11.108 28H2.64796C2.14396 28 1.75996 27.916 1.49596 27.748C1.20796 27.58 1.06396 27.352 1.06396 27.064C1.06396 26.92 1.09996 26.764 1.17196 26.596C1.26796 26.404 1.39996 26.248 1.56796 26.128C1.73596 25.984 1.90396 25.864 2.07196 25.768C2.45596 25.552 2.76796 25.312 3.00796 25.048C3.24796 24.76 3.45196 24.328 3.61996 23.752L8.04797 8.236C8.14397 7.924 8.19197 7.624 8.19197 7.336C8.19197 7.072 8.14397 6.856 8.04797 6.688C7.97597 6.496 7.86797 6.28 7.72397 6.04C7.62796 5.92 7.54397 5.8 7.47197 5.68C7.39997 5.536 7.36397 5.392 7.36397 5.248C7.36397 5.2 7.38796 5.08 7.43597 4.888C7.53196 4.576 7.74796 4.36 8.08397 4.24C8.41997 4.096 8.92397 4.024 9.59597 4.024H18.056C18.56 4.024 18.944 4.108 19.208 4.276C19.496 4.444 19.64 4.66 19.64 4.924C19.64 5.044 19.604 5.2 19.532 5.392C19.46 5.56 19.352 5.716 19.208 5.86C19.088 5.98 18.968 6.076 18.848 6.148C18.752 6.196 18.68 6.244 18.632 6.292C18.248 6.508 17.936 6.748 17.696 7.012C17.456 7.276 17.252 7.684 17.084 8.236L15.392 14.14H21.764L23.456 8.236C23.552 7.924 23.6 7.624 23.6 7.336C23.6 7.072 23.552 6.856 23.456 6.688C23.384 6.496 23.276 6.28 23.132 6.04C23.036 5.92 22.952 5.8 22.88 5.68C22.808 5.536 22.772 5.392 22.772 5.248C22.772 5.2 22.796 5.08 22.844 4.888C22.94 4.576 23.156 4.36 23.492 4.24C23.828 4.096 24.332 4.024 25.004 4.024H33.464Z" stroke="white" stroke-width="2" mask="url(#path-1-outside-1_413_94)"/>
<path d="M47.7554 8.956C50.5154 8.956 52.7234 9.472 54.3794 10.504C56.0354 11.512 56.8634 13.06 56.8634 15.148C56.8634 15.94 56.7194 16.84 56.4314 17.848L54.9554 22.816C54.9314 22.912 54.9194 23.032 54.9194 23.176C54.9194 23.56 55.0754 23.752 55.3874 23.752C55.6754 23.752 55.9154 23.632 56.1074 23.392C56.3234 23.128 56.4674 22.996 56.5394 22.996C56.6594 22.996 56.7554 23.08 56.8274 23.248C56.9234 23.416 56.9714 23.608 56.9714 23.824C56.9954 24.472 56.7434 25.132 56.2154 25.804C55.7114 26.476 55.0274 27.028 54.1634 27.46C53.2994 27.892 52.3514 28.108 51.3194 28.108C50.0714 28.108 49.0034 27.88 48.1154 27.424C47.2274 26.968 46.6154 26.296 46.2794 25.408C45.5594 26.272 44.7074 26.944 43.7234 27.424C42.7394 27.88 41.6834 28.108 40.5554 28.108C39.2834 28.108 38.2154 27.868 37.3514 27.388C36.4874 26.884 35.8394 26.248 35.4074 25.48C34.9994 24.688 34.7954 23.86 34.7954 22.996C34.7954 22.612 34.8314 22.24 34.9034 21.88C35.2874 20.224 36.1154 18.976 37.3874 18.136C38.6834 17.296 40.2194 16.876 41.9954 16.876C43.9874 16.876 45.9434 17.188 47.8634 17.812L48.7634 15.436C49.0754 14.428 49.2314 13.648 49.2314 13.096C49.2074 12.52 49.0154 12.088 48.6554 11.8C48.2954 11.512 47.7434 11.368 46.9994 11.368C47.1434 11.752 47.2154 12.148 47.2154 12.556C47.2154 13.444 46.8794 14.212 46.2074 14.86C45.5354 15.508 44.5754 15.832 43.3274 15.832C42.1514 15.832 41.2274 15.58 40.5554 15.076C39.9074 14.548 39.5834 13.9 39.5834 13.132C39.5834 11.932 40.2554 10.936 41.5994 10.144C42.9434 9.352 44.9954 8.956 47.7554 8.956ZM45.7394 19.864C45.0674 19.864 44.5154 20.128 44.0834 20.656C43.6754 21.16 43.4714 21.712 43.4714 22.312C43.4714 22.696 43.5554 23.008 43.7234 23.248C43.9154 23.488 44.1794 23.608 44.5154 23.608C44.8274 23.608 45.1634 23.488 45.5234 23.248C45.9074 22.984 46.1834 22.6 46.3514 22.096L47.1074 19.972C46.6994 19.9 46.2434 19.864 45.7394 19.864Z" stroke="white" stroke-width="2" mask="url(#path-1-outside-1_413_94)"/>
<path d="M77.4301 9.424C77.8861 9.424 78.2341 9.52 78.4741 9.712C78.7381 9.904 78.8701 10.168 78.8701 10.504C78.8701 10.6 78.8461 10.768 78.7981 11.008C78.4861 12.064 77.7661 12.592 76.6381 12.592H74.5501L71.8501 21.484C71.7301 21.844 71.6701 22.216 71.6701 22.6C71.6701 23.032 71.7901 23.332 72.0301 23.5C72.2701 23.668 72.6061 23.752 73.0381 23.752C73.4221 23.752 73.9021 23.704 74.4781 23.608C74.7661 23.536 75.0181 23.5 75.2341 23.5C75.4021 23.5 75.5221 23.56 75.5941 23.68C75.6901 23.776 75.7381 23.908 75.7381 24.076C75.7621 24.556 75.4021 25.144 74.6581 25.84C73.9381 26.512 72.9541 27.1 71.7061 27.604C70.4581 28.084 69.0781 28.324 67.5661 28.324C65.9341 28.324 64.6261 27.952 63.6421 27.208C62.6581 26.464 62.1661 25.444 62.1661 24.148C62.1661 23.548 62.2621 22.972 62.4541 22.42L64.7581 15.292C64.8781 14.884 64.9381 14.56 64.9381 14.32C64.9381 13.84 64.8181 13.432 64.5781 13.096C64.3621 12.76 64.0501 12.412 63.6421 12.052C63.2821 11.716 63.0301 11.44 62.8861 11.224C62.7421 10.984 62.7061 10.708 62.7781 10.396C62.8741 10.084 63.0781 9.844 63.3901 9.676C63.7021 9.508 64.1941 9.424 64.8661 9.424H66.8821L69.1501 7.156C69.9421 6.364 70.6621 5.812 71.3101 5.5C71.9821 5.188 72.8461 5.032 73.9021 5.032C75.4141 5.032 76.1701 5.608 76.1701 6.76C76.1701 7.12 76.1221 7.456 76.0261 7.768L75.5221 9.424H77.4301Z" stroke="white" stroke-width="2" mask="url(#path-1-outside-1_413_94)"/>
<path d="M89.1548 8.956C90.5468 8.956 91.5668 9.22 92.2148 9.748C92.8628 10.276 93.1868 10.996 93.1868 11.908C93.1868 12.46 93.1028 12.988 92.9348 13.492L89.6228 24.256C89.5508 24.544 89.5148 24.796 89.5148 25.012C89.5148 25.324 89.5748 25.576 89.6948 25.768C89.8148 25.936 89.9828 26.104 90.1988 26.272C90.3668 26.44 90.4868 26.584 90.5588 26.704C90.6308 26.8 90.6428 26.932 90.5948 27.1C90.4748 27.412 90.2348 27.64 89.8748 27.784C89.5148 27.928 88.9628 28 88.2188 28H80.0108C79.3868 28 78.9308 27.904 78.6428 27.712C78.3548 27.496 78.2588 27.22 78.3548 26.884C78.4508 26.596 78.7028 26.344 79.1108 26.128C79.4708 25.936 79.7708 25.708 80.0108 25.444C80.2508 25.18 80.4548 24.76 80.6228 24.184L83.7548 13.78C83.8268 13.564 83.8628 13.384 83.8628 13.24C83.8628 12.976 83.8028 12.772 83.6828 12.628C83.5628 12.46 83.3828 12.292 83.1428 12.124C82.9028 11.932 82.7348 11.764 82.6388 11.62C82.5428 11.476 82.5308 11.284 82.6028 11.044C82.7468 10.492 83.5028 10.012 84.8708 9.604C86.2388 9.172 87.6668 8.956 89.1548 8.956ZM91.5668 1C92.5028 1 93.2828 1.312 93.9068 1.936C94.5308 2.536 94.8428 3.28 94.8428 4.168C94.8428 4.792 94.6748 5.404 94.3388 6.004C94.0268 6.604 93.5708 7.096 92.9708 7.48C92.3948 7.84 91.7468 8.02 91.0268 8.02C90.1148 8.02 89.3468 7.72 88.7228 7.12C88.1228 6.496 87.8108 5.728 87.7868 4.816C87.7868 4.216 87.9428 3.628 88.2548 3.052C88.5668 2.452 89.0108 1.96 89.5868 1.576C90.1628 1.192 90.8228 1 91.5668 1Z" stroke="white" stroke-width="2" mask="url(#path-1-outside-1_413_94)"/>
</svg>
