<svg width="79" height="27" viewBox="0 0 79 27" fill="none" xmlns="http://www.w3.org/2000/svg">
<mask id="path-1-outside-1_538_1118" maskUnits="userSpaceOnUse" x="0.747803" y="0.390625" width="78" height="27" fill="black">
<rect fill="white" x="0.747803" y="0.390625" width="78" height="27"/>
<path d="M30.5478 4.07863C30.9958 4.07863 31.3371 4.15329 31.5718 4.30263C31.8278 4.45196 31.9558 4.64396 31.9558 4.87863C31.9558 4.98529 31.9238 5.12396 31.8598 5.29463C31.7958 5.44396 31.6998 5.58263 31.5718 5.71063C31.4651 5.81729 31.3585 5.90263 31.2518 5.96663C31.1665 6.00929 31.1025 6.05196 31.0598 6.09463C30.7185 6.28663 30.4411 6.49996 30.2278 6.73463C30.0145 6.96929 29.8331 7.33196 29.6838 7.82263L25.7478 21.6146C25.6625 21.892 25.6198 22.1586 25.6198 22.4146C25.6198 22.6706 25.6518 22.8733 25.7158 23.0226C25.8011 23.172 25.9185 23.364 26.0678 23.5986C26.0891 23.62 26.1425 23.7053 26.2278 23.8546C26.3345 23.9826 26.3878 24.1213 26.3878 24.2706C26.3878 24.3133 26.3665 24.42 26.3238 24.5906C26.2171 24.8893 26.0145 25.1026 25.7158 25.2306C25.4171 25.3373 24.9691 25.3906 24.3718 25.3906H16.8518C16.4038 25.3906 16.0518 25.316 15.7958 25.1666C15.5611 25.0173 15.4438 24.8146 15.4438 24.5586C15.4438 24.4306 15.4758 24.292 15.5398 24.1426C15.6251 23.972 15.7425 23.8333 15.8918 23.7266C16.0411 23.5986 16.1905 23.492 16.3398 23.4066C16.6811 23.2146 16.9585 23.0013 17.1718 22.7666C17.3851 22.5106 17.5665 22.1266 17.7158 21.6146L19.2518 16.2706H13.5878L12.0518 21.6146C11.9665 21.892 11.9238 22.1586 11.9238 22.4146C11.9238 22.6706 11.9558 22.8733 12.0198 23.0226C12.1051 23.172 12.2225 23.364 12.3718 23.5986C12.3931 23.62 12.4465 23.7053 12.5318 23.8546C12.6385 23.9826 12.6918 24.1213 12.6918 24.2706C12.6918 24.3133 12.6705 24.42 12.6278 24.5906C12.5211 24.8893 12.3185 25.1026 12.0198 25.2306C11.7211 25.3373 11.2731 25.3906 10.6758 25.3906H3.1558C2.7078 25.3906 2.36647 25.316 2.1318 25.1666C1.8758 25.0173 1.7478 24.8146 1.7478 24.5586C1.7478 24.4306 1.7798 24.292 1.8438 24.1426C1.92914 23.972 2.04647 23.8333 2.1958 23.7266C2.34514 23.5986 2.49447 23.492 2.6438 23.4066C2.98514 23.2146 3.26247 23.0013 3.4758 22.7666C3.68914 22.5106 3.87047 22.1266 4.0198 21.6146L7.9558 7.82263C8.04114 7.54529 8.0838 7.27863 8.0838 7.02263C8.0838 6.78796 8.04114 6.59596 7.9558 6.44663C7.8918 6.27596 7.7958 6.08396 7.6678 5.87063C7.58247 5.76396 7.5078 5.65729 7.4438 5.55063C7.3798 5.42263 7.3478 5.29463 7.3478 5.16663C7.3478 5.12396 7.36914 5.01729 7.4118 4.84663C7.49714 4.56929 7.68914 4.37729 7.9878 4.27063C8.28647 4.14263 8.73447 4.07863 9.3318 4.07863H16.8518C17.2998 4.07863 17.6411 4.15329 17.8758 4.30263C18.1318 4.45196 18.2598 4.64396 18.2598 4.87863C18.2598 4.98529 18.2278 5.12396 18.1638 5.29463C18.0998 5.44396 18.0038 5.58263 17.8758 5.71063C17.7691 5.81729 17.6625 5.90263 17.5558 5.96663C17.4705 6.00929 17.4065 6.05196 17.3638 6.09463C17.0225 6.28663 16.7451 6.49996 16.5318 6.73463C16.3185 6.96929 16.1371 7.33196 15.9878 7.82263L14.4838 13.0706H20.1478L21.6518 7.82263C21.7371 7.54529 21.7798 7.27863 21.7798 7.02263C21.7798 6.78796 21.7371 6.59596 21.6518 6.44663C21.5878 6.27596 21.4918 6.08396 21.3638 5.87063C21.2785 5.76396 21.2038 5.65729 21.1398 5.55063C21.0758 5.42263 21.0438 5.29463 21.0438 5.16663C21.0438 5.12396 21.0651 5.01729 21.1078 4.84663C21.1931 4.56929 21.3851 4.37729 21.6838 4.27063C21.9825 4.14263 22.4305 4.07863 23.0278 4.07863H30.5478Z"/>
<path d="M40.6913 8.46263C43.1446 8.46263 45.1073 8.92129 46.5793 9.83863C48.0513 10.7346 48.7873 12.1106 48.7873 13.9666C48.7873 14.6706 48.6593 15.4706 48.4033 16.3666L47.0913 20.7826C47.07 20.868 47.0593 20.9746 47.0593 21.1026C47.0593 21.444 47.198 21.6146 47.4753 21.6146C47.7313 21.6146 47.9446 21.508 48.1153 21.2946C48.3073 21.06 48.4353 20.9426 48.4993 20.9426C48.606 20.9426 48.6913 21.0173 48.7553 21.1666C48.8406 21.316 48.8833 21.4866 48.8833 21.6786C48.9046 22.2546 48.6806 22.8413 48.2113 23.4386C47.7633 24.036 47.1553 24.5266 46.3873 24.9106C45.6193 25.2946 44.7766 25.4866 43.8593 25.4866C42.75 25.4866 41.8006 25.284 41.0113 24.8786C40.222 24.4733 39.678 23.876 39.3793 23.0866C38.7393 23.8546 37.982 24.452 37.1073 24.8786C36.2326 25.284 35.294 25.4866 34.2913 25.4866C33.1606 25.4866 32.2113 25.2733 31.4433 24.8466C30.6753 24.3986 30.0993 23.8333 29.7153 23.1506C29.3526 22.4466 29.1713 21.7106 29.1713 20.9426C29.1713 20.6013 29.2033 20.2706 29.2673 19.9506C29.6086 18.4786 30.3446 17.3693 31.4753 16.6226C32.6273 15.876 33.9926 15.5026 35.5713 15.5026C37.342 15.5026 39.0806 15.78 40.7873 16.3346L41.5873 14.2226C41.8646 13.3266 42.0033 12.6333 42.0033 12.1426C41.982 11.6306 41.8113 11.2466 41.4913 10.9906C41.1713 10.7346 40.6806 10.6066 40.0193 10.6066C40.1473 10.948 40.2113 11.3 40.2113 11.6626C40.2113 12.452 39.9126 13.1346 39.3153 13.7106C38.718 14.2866 37.8646 14.5746 36.7553 14.5746C35.71 14.5746 34.8886 14.3506 34.2913 13.9026C33.7153 13.4333 33.4273 12.8573 33.4273 12.1746C33.4273 11.108 34.0246 10.2226 35.2193 9.51863C36.414 8.81463 38.238 8.46263 40.6913 8.46263ZM38.8993 18.1586C38.302 18.1586 37.8113 18.3933 37.4273 18.8626C37.0646 19.3106 36.8833 19.8013 36.8833 20.3346C36.8833 20.676 36.958 20.9533 37.1073 21.1666C37.278 21.38 37.5126 21.4866 37.8113 21.4866C38.0886 21.4866 38.3873 21.38 38.7073 21.1666C39.0486 20.932 39.294 20.5906 39.4433 20.1426L40.1153 18.2546C39.7526 18.1906 39.3473 18.1586 38.8993 18.1586Z"/>
<path d="M64.5088 8.87863C64.9141 8.87863 65.2235 8.96396 65.4368 9.13463C65.6715 9.30529 65.7888 9.53996 65.7888 9.83863C65.7888 9.92396 65.7675 10.0733 65.7248 10.2866C65.4475 11.2253 64.8075 11.6946 63.8048 11.6946H61.9488L59.5488 19.5986C59.4421 19.9186 59.3888 20.2493 59.3888 20.5906C59.3888 20.9746 59.4955 21.2413 59.7088 21.3906C59.9221 21.54 60.2208 21.6146 60.6048 21.6146C60.9461 21.6146 61.3728 21.572 61.8848 21.4866C62.1408 21.4226 62.3648 21.3906 62.5568 21.3906C62.7061 21.3906 62.8128 21.444 62.8768 21.5506C62.9621 21.636 63.0048 21.7533 63.0048 21.9026C63.0261 22.3293 62.7061 22.852 62.0448 23.4706C61.4048 24.068 60.5301 24.5906 59.4208 25.0386C58.3115 25.4653 57.0848 25.6786 55.7408 25.6786C54.2901 25.6786 53.1275 25.348 52.2528 24.6866C51.3781 24.0253 50.9408 23.1186 50.9408 21.9666C50.9408 21.4333 51.0261 20.9213 51.1968 20.4306L53.2448 14.0946C53.3515 13.732 53.4048 13.444 53.4048 13.2306C53.4048 12.804 53.2981 12.4413 53.0848 12.1426C52.8928 11.844 52.6155 11.5346 52.2528 11.2146C51.9328 10.916 51.7088 10.6706 51.5808 10.4786C51.4528 10.2653 51.4208 10.02 51.4848 9.74263C51.5701 9.46529 51.7515 9.25196 52.0288 9.10263C52.3061 8.95329 52.7435 8.87863 53.3408 8.87863H55.1328L57.1488 6.86263C57.8528 6.15863 58.4928 5.66796 59.0688 5.39063C59.6661 5.11329 60.4341 4.97463 61.3728 4.97463C62.7168 4.97463 63.3888 5.48663 63.3888 6.51063C63.3888 6.83063 63.3461 7.12929 63.2608 7.40663L62.8128 8.87863H64.5088Z"/>
<path d="M72.3708 8.46263C73.6081 8.46263 74.5148 8.69729 75.0908 9.16663C75.6668 9.63596 75.9548 10.276 75.9548 11.0866C75.9548 11.5773 75.8801 12.0466 75.7308 12.4946L72.7868 22.0626C72.7228 22.3186 72.6908 22.5426 72.6908 22.7346C72.6908 23.012 72.7441 23.236 72.8508 23.4066C72.9575 23.556 73.1068 23.7053 73.2988 23.8546C73.4481 24.004 73.5548 24.132 73.6188 24.2386C73.6828 24.324 73.6935 24.4413 73.6508 24.5906C73.5441 24.868 73.3308 25.0706 73.0108 25.1986C72.6908 25.3266 72.2001 25.3906 71.5388 25.3906H64.2428C63.6881 25.3906 63.2828 25.3053 63.0268 25.1346C62.7708 24.9426 62.6855 24.6973 62.7708 24.3986C62.8561 24.1426 63.0801 23.9186 63.4428 23.7266C63.7628 23.556 64.0295 23.3533 64.2428 23.1186C64.4561 22.884 64.6375 22.5106 64.7868 21.9986L67.5708 12.7506C67.6348 12.5586 67.6668 12.3986 67.6668 12.2706C67.6668 12.036 67.6135 11.8546 67.5068 11.7266C67.4001 11.5773 67.2401 11.428 67.0268 11.2786C66.8135 11.108 66.6641 10.9586 66.5788 10.8306C66.4935 10.7026 66.4828 10.532 66.5468 10.3186C66.6748 9.82796 67.3468 9.40129 68.5628 9.03863C69.7788 8.65463 71.0481 8.46263 72.3708 8.46263ZM74.5148 1.39062C75.3468 1.39062 76.0401 1.66796 76.5948 2.22263C77.1495 2.75596 77.4268 3.41729 77.4268 4.20662C77.4268 4.76129 77.2775 5.30529 76.9788 5.83863C76.7015 6.37196 76.2961 6.80929 75.7628 7.15063C75.2508 7.47063 74.6748 7.63063 74.0348 7.63063C73.2241 7.63063 72.5415 7.36396 71.9868 6.83063C71.4535 6.27596 71.1761 5.59329 71.1548 4.78263C71.1548 4.24929 71.2935 3.72663 71.5708 3.21463C71.8481 2.68129 72.2428 2.24396 72.7548 1.90263C73.2668 1.56129 73.8535 1.39062 74.5148 1.39062Z"/>
</mask>
<path d="M30.5478 4.07863C30.9958 4.07863 31.3371 4.15329 31.5718 4.30263C31.8278 4.45196 31.9558 4.64396 31.9558 4.87863C31.9558 4.98529 31.9238 5.12396 31.8598 5.29463C31.7958 5.44396 31.6998 5.58263 31.5718 5.71063C31.4651 5.81729 31.3585 5.90263 31.2518 5.96663C31.1665 6.00929 31.1025 6.05196 31.0598 6.09463C30.7185 6.28663 30.4411 6.49996 30.2278 6.73463C30.0145 6.96929 29.8331 7.33196 29.6838 7.82263L25.7478 21.6146C25.6625 21.892 25.6198 22.1586 25.6198 22.4146C25.6198 22.6706 25.6518 22.8733 25.7158 23.0226C25.8011 23.172 25.9185 23.364 26.0678 23.5986C26.0891 23.62 26.1425 23.7053 26.2278 23.8546C26.3345 23.9826 26.3878 24.1213 26.3878 24.2706C26.3878 24.3133 26.3665 24.42 26.3238 24.5906C26.2171 24.8893 26.0145 25.1026 25.7158 25.2306C25.4171 25.3373 24.9691 25.3906 24.3718 25.3906H16.8518C16.4038 25.3906 16.0518 25.316 15.7958 25.1666C15.5611 25.0173 15.4438 24.8146 15.4438 24.5586C15.4438 24.4306 15.4758 24.292 15.5398 24.1426C15.6251 23.972 15.7425 23.8333 15.8918 23.7266C16.0411 23.5986 16.1905 23.492 16.3398 23.4066C16.6811 23.2146 16.9585 23.0013 17.1718 22.7666C17.3851 22.5106 17.5665 22.1266 17.7158 21.6146L19.2518 16.2706H13.5878L12.0518 21.6146C11.9665 21.892 11.9238 22.1586 11.9238 22.4146C11.9238 22.6706 11.9558 22.8733 12.0198 23.0226C12.1051 23.172 12.2225 23.364 12.3718 23.5986C12.3931 23.62 12.4465 23.7053 12.5318 23.8546C12.6385 23.9826 12.6918 24.1213 12.6918 24.2706C12.6918 24.3133 12.6705 24.42 12.6278 24.5906C12.5211 24.8893 12.3185 25.1026 12.0198 25.2306C11.7211 25.3373 11.2731 25.3906 10.6758 25.3906H3.1558C2.7078 25.3906 2.36647 25.316 2.1318 25.1666C1.8758 25.0173 1.7478 24.8146 1.7478 24.5586C1.7478 24.4306 1.7798 24.292 1.8438 24.1426C1.92914 23.972 2.04647 23.8333 2.1958 23.7266C2.34514 23.5986 2.49447 23.492 2.6438 23.4066C2.98514 23.2146 3.26247 23.0013 3.4758 22.7666C3.68914 22.5106 3.87047 22.1266 4.0198 21.6146L7.9558 7.82263C8.04114 7.54529 8.0838 7.27863 8.0838 7.02263C8.0838 6.78796 8.04114 6.59596 7.9558 6.44663C7.8918 6.27596 7.7958 6.08396 7.6678 5.87063C7.58247 5.76396 7.5078 5.65729 7.4438 5.55063C7.3798 5.42263 7.3478 5.29463 7.3478 5.16663C7.3478 5.12396 7.36914 5.01729 7.4118 4.84663C7.49714 4.56929 7.68914 4.37729 7.9878 4.27063C8.28647 4.14263 8.73447 4.07863 9.3318 4.07863H16.8518C17.2998 4.07863 17.6411 4.15329 17.8758 4.30263C18.1318 4.45196 18.2598 4.64396 18.2598 4.87863C18.2598 4.98529 18.2278 5.12396 18.1638 5.29463C18.0998 5.44396 18.0038 5.58263 17.8758 5.71063C17.7691 5.81729 17.6625 5.90263 17.5558 5.96663C17.4705 6.00929 17.4065 6.05196 17.3638 6.09463C17.0225 6.28663 16.7451 6.49996 16.5318 6.73463C16.3185 6.96929 16.1371 7.33196 15.9878 7.82263L14.4838 13.0706H20.1478L21.6518 7.82263C21.7371 7.54529 21.7798 7.27863 21.7798 7.02263C21.7798 6.78796 21.7371 6.59596 21.6518 6.44663C21.5878 6.27596 21.4918 6.08396 21.3638 5.87063C21.2785 5.76396 21.2038 5.65729 21.1398 5.55063C21.0758 5.42263 21.0438 5.29463 21.0438 5.16663C21.0438 5.12396 21.0651 5.01729 21.1078 4.84663C21.1931 4.56929 21.3851 4.37729 21.6838 4.27063C21.9825 4.14263 22.4305 4.07863 23.0278 4.07863H30.5478Z" stroke="white" stroke-width="2" mask="url(#path-1-outside-1_538_1118)"/>
<path d="M40.6913 8.46263C43.1446 8.46263 45.1073 8.92129 46.5793 9.83863C48.0513 10.7346 48.7873 12.1106 48.7873 13.9666C48.7873 14.6706 48.6593 15.4706 48.4033 16.3666L47.0913 20.7826C47.07 20.868 47.0593 20.9746 47.0593 21.1026C47.0593 21.444 47.198 21.6146 47.4753 21.6146C47.7313 21.6146 47.9446 21.508 48.1153 21.2946C48.3073 21.06 48.4353 20.9426 48.4993 20.9426C48.606 20.9426 48.6913 21.0173 48.7553 21.1666C48.8406 21.316 48.8833 21.4866 48.8833 21.6786C48.9046 22.2546 48.6806 22.8413 48.2113 23.4386C47.7633 24.036 47.1553 24.5266 46.3873 24.9106C45.6193 25.2946 44.7766 25.4866 43.8593 25.4866C42.75 25.4866 41.8006 25.284 41.0113 24.8786C40.222 24.4733 39.678 23.876 39.3793 23.0866C38.7393 23.8546 37.982 24.452 37.1073 24.8786C36.2326 25.284 35.294 25.4866 34.2913 25.4866C33.1606 25.4866 32.2113 25.2733 31.4433 24.8466C30.6753 24.3986 30.0993 23.8333 29.7153 23.1506C29.3526 22.4466 29.1713 21.7106 29.1713 20.9426C29.1713 20.6013 29.2033 20.2706 29.2673 19.9506C29.6086 18.4786 30.3446 17.3693 31.4753 16.6226C32.6273 15.876 33.9926 15.5026 35.5713 15.5026C37.342 15.5026 39.0806 15.78 40.7873 16.3346L41.5873 14.2226C41.8646 13.3266 42.0033 12.6333 42.0033 12.1426C41.982 11.6306 41.8113 11.2466 41.4913 10.9906C41.1713 10.7346 40.6806 10.6066 40.0193 10.6066C40.1473 10.948 40.2113 11.3 40.2113 11.6626C40.2113 12.452 39.9126 13.1346 39.3153 13.7106C38.718 14.2866 37.8646 14.5746 36.7553 14.5746C35.71 14.5746 34.8886 14.3506 34.2913 13.9026C33.7153 13.4333 33.4273 12.8573 33.4273 12.1746C33.4273 11.108 34.0246 10.2226 35.2193 9.51863C36.414 8.81463 38.238 8.46263 40.6913 8.46263ZM38.8993 18.1586C38.302 18.1586 37.8113 18.3933 37.4273 18.8626C37.0646 19.3106 36.8833 19.8013 36.8833 20.3346C36.8833 20.676 36.958 20.9533 37.1073 21.1666C37.278 21.38 37.5126 21.4866 37.8113 21.4866C38.0886 21.4866 38.3873 21.38 38.7073 21.1666C39.0486 20.932 39.294 20.5906 39.4433 20.1426L40.1153 18.2546C39.7526 18.1906 39.3473 18.1586 38.8993 18.1586Z" stroke="white" stroke-width="2" mask="url(#path-1-outside-1_538_1118)"/>
<path d="M64.5088 8.87863C64.9141 8.87863 65.2235 8.96396 65.4368 9.13463C65.6715 9.30529 65.7888 9.53996 65.7888 9.83863C65.7888 9.92396 65.7675 10.0733 65.7248 10.2866C65.4475 11.2253 64.8075 11.6946 63.8048 11.6946H61.9488L59.5488 19.5986C59.4421 19.9186 59.3888 20.2493 59.3888 20.5906C59.3888 20.9746 59.4955 21.2413 59.7088 21.3906C59.9221 21.54 60.2208 21.6146 60.6048 21.6146C60.9461 21.6146 61.3728 21.572 61.8848 21.4866C62.1408 21.4226 62.3648 21.3906 62.5568 21.3906C62.7061 21.3906 62.8128 21.444 62.8768 21.5506C62.9621 21.636 63.0048 21.7533 63.0048 21.9026C63.0261 22.3293 62.7061 22.852 62.0448 23.4706C61.4048 24.068 60.5301 24.5906 59.4208 25.0386C58.3115 25.4653 57.0848 25.6786 55.7408 25.6786C54.2901 25.6786 53.1275 25.348 52.2528 24.6866C51.3781 24.0253 50.9408 23.1186 50.9408 21.9666C50.9408 21.4333 51.0261 20.9213 51.1968 20.4306L53.2448 14.0946C53.3515 13.732 53.4048 13.444 53.4048 13.2306C53.4048 12.804 53.2981 12.4413 53.0848 12.1426C52.8928 11.844 52.6155 11.5346 52.2528 11.2146C51.9328 10.916 51.7088 10.6706 51.5808 10.4786C51.4528 10.2653 51.4208 10.02 51.4848 9.74263C51.5701 9.46529 51.7515 9.25196 52.0288 9.10263C52.3061 8.95329 52.7435 8.87863 53.3408 8.87863H55.1328L57.1488 6.86263C57.8528 6.15863 58.4928 5.66796 59.0688 5.39063C59.6661 5.11329 60.4341 4.97463 61.3728 4.97463C62.7168 4.97463 63.3888 5.48663 63.3888 6.51063C63.3888 6.83063 63.3461 7.12929 63.2608 7.40663L62.8128 8.87863H64.5088Z" stroke="white" stroke-width="2" mask="url(#path-1-outside-1_538_1118)"/>
<path d="M72.3708 8.46263C73.6081 8.46263 74.5148 8.69729 75.0908 9.16663C75.6668 9.63596 75.9548 10.276 75.9548 11.0866C75.9548 11.5773 75.8801 12.0466 75.7308 12.4946L72.7868 22.0626C72.7228 22.3186 72.6908 22.5426 72.6908 22.7346C72.6908 23.012 72.7441 23.236 72.8508 23.4066C72.9575 23.556 73.1068 23.7053 73.2988 23.8546C73.4481 24.004 73.5548 24.132 73.6188 24.2386C73.6828 24.324 73.6935 24.4413 73.6508 24.5906C73.5441 24.868 73.3308 25.0706 73.0108 25.1986C72.6908 25.3266 72.2001 25.3906 71.5388 25.3906H64.2428C63.6881 25.3906 63.2828 25.3053 63.0268 25.1346C62.7708 24.9426 62.6855 24.6973 62.7708 24.3986C62.8561 24.1426 63.0801 23.9186 63.4428 23.7266C63.7628 23.556 64.0295 23.3533 64.2428 23.1186C64.4561 22.884 64.6375 22.5106 64.7868 21.9986L67.5708 12.7506C67.6348 12.5586 67.6668 12.3986 67.6668 12.2706C67.6668 12.036 67.6135 11.8546 67.5068 11.7266C67.4001 11.5773 67.2401 11.428 67.0268 11.2786C66.8135 11.108 66.6641 10.9586 66.5788 10.8306C66.4935 10.7026 66.4828 10.532 66.5468 10.3186C66.6748 9.82796 67.3468 9.40129 68.5628 9.03863C69.7788 8.65463 71.0481 8.46263 72.3708 8.46263ZM74.5148 1.39062C75.3468 1.39062 76.0401 1.66796 76.5948 2.22263C77.1495 2.75596 77.4268 3.41729 77.4268 4.20662C77.4268 4.76129 77.2775 5.30529 76.9788 5.83863C76.7015 6.37196 76.2961 6.80929 75.7628 7.15063C75.2508 7.47063 74.6748 7.63063 74.0348 7.63063C73.2241 7.63063 72.5415 7.36396 71.9868 6.83063C71.4535 6.27596 71.1761 5.59329 71.1548 4.78263C71.1548 4.24929 71.2935 3.72663 71.5708 3.21463C71.8481 2.68129 72.2428 2.24396 72.7548 1.90263C73.2668 1.56129 73.8535 1.39062 74.5148 1.39062Z" stroke="white" stroke-width="2" mask="url(#path-1-outside-1_538_1118)"/>
</svg>
