<svg width="139" height="33" viewBox="0 0 139 33" fill="none" xmlns="http://www.w3.org/2000/svg">
<mask id="path-1-outside-1_537_1108" maskUnits="userSpaceOnUse" x="0.167969" y="0" width="139" height="33" fill="black">
<rect fill="white" x="0.167969" width="139" height="33"/>
<path d="M25.424 3.56C26.32 3.56 27.0666 3.848 27.664 4.424C28.2613 5 28.56 5.77867 28.56 6.76C28.56 7.86933 28.2293 8.76533 27.568 9.448C26.9066 10.1307 26.1173 10.472 25.2 10.472C24.6026 10.472 24.0906 10.3653 23.664 10.152C23.2373 9.93867 22.832 9.59733 22.448 9.128L19.696 11.432L22.8 20.616C22.992 21.1493 23.1946 21.576 23.408 21.896C23.6426 22.216 23.92 22.536 24.24 22.856C24.4746 23.0907 24.6346 23.2827 24.72 23.432C24.8266 23.56 24.88 23.72 24.88 23.912C24.88 24.2533 24.72 24.52 24.4 24.712C24.1013 24.904 23.568 25 22.8 25H18.608C17.5626 25 16.784 24.776 16.272 24.328C15.7813 23.8587 15.376 23.0907 15.056 22.024L13.456 16.648L12.528 17.416L11.472 21.224C11.3866 21.5013 11.344 21.768 11.344 22.024C11.344 22.28 11.376 22.4933 11.44 22.664C11.5253 22.8347 11.6426 23.016 11.792 23.208C11.984 23.4853 12.08 23.7093 12.08 23.88C12.08 23.9227 12.0586 24.0293 12.016 24.2C11.9306 24.4987 11.7386 24.712 11.44 24.84C11.1413 24.9467 10.6933 25 10.096 25H2.57597C2.12797 25 1.78664 24.9253 1.55197 24.776C1.29597 24.6267 1.16797 24.424 1.16797 24.168C1.16797 24.04 1.19997 23.9013 1.26397 23.752C1.3493 23.5173 1.48797 23.336 1.67997 23.208C1.87197 23.08 1.9893 23.0053 2.03197 22.984C2.3733 22.7707 2.65064 22.5573 2.86397 22.344C3.0773 22.1093 3.25864 21.736 3.40797 21.224L7.31197 7.432C7.3973 7.15467 7.43997 6.888 7.43997 6.632C7.43997 6.39733 7.3973 6.20533 7.31197 6.056C7.24797 5.88533 7.15197 5.69333 7.02397 5.48C6.83197 5.20267 6.73597 4.97867 6.73597 4.808C6.73597 4.744 6.7573 4.62667 6.79997 4.456C6.8853 4.17867 7.06664 3.98667 7.34397 3.88C7.64264 3.752 8.09064 3.688 8.68797 3.688H16.208C16.656 3.688 16.9973 3.76267 17.232 3.912C17.488 4.04 17.616 4.232 17.616 4.488C17.616 4.59467 17.584 4.73333 17.52 4.904C17.456 5.05333 17.36 5.192 17.232 5.32C17.1253 5.42667 17.0186 5.512 16.912 5.576C16.8266 5.61867 16.7626 5.66133 16.72 5.704C16.3786 5.896 16.1013 6.10933 15.888 6.344C15.6746 6.57867 15.4933 6.94133 15.344 7.432L14 12.2L22.48 4.872C23.0346 4.40267 23.536 4.072 23.984 3.88C24.432 3.66667 24.912 3.56 25.424 3.56Z"/>
<path d="M35.6035 8.072C36.8408 8.072 37.7475 8.30667 38.3235 8.776C38.8995 9.24533 39.1875 9.88533 39.1875 10.696C39.1875 11.1867 39.1128 11.656 38.9635 12.104L36.0195 21.672C35.9555 21.928 35.9235 22.152 35.9235 22.344C35.9235 22.6213 35.9768 22.8453 36.0835 23.016C36.1901 23.1653 36.3395 23.3147 36.5315 23.464C36.6808 23.6133 36.7875 23.7413 36.8515 23.848C36.9155 23.9333 36.9261 24.0507 36.8835 24.2C36.7768 24.4773 36.5635 24.68 36.2435 24.808C35.9235 24.936 35.4328 25 34.7715 25H27.4755C26.9208 25 26.5155 24.9147 26.2595 24.744C26.0035 24.552 25.9181 24.3067 26.0035 24.008C26.0888 23.752 26.3128 23.528 26.6755 23.336C26.9955 23.1653 27.2621 22.9627 27.4755 22.728C27.6888 22.4933 27.8701 22.12 28.0195 21.608L30.8035 12.36C30.8675 12.168 30.8995 12.008 30.8995 11.88C30.8995 11.6453 30.8461 11.464 30.7395 11.336C30.6328 11.1867 30.4728 11.0373 30.2595 10.888C30.0461 10.7173 29.8968 10.568 29.8115 10.44C29.7261 10.312 29.7155 10.1413 29.7795 9.928C29.9075 9.43733 30.5795 9.01067 31.7955 8.648C33.0115 8.264 34.2808 8.072 35.6035 8.072ZM37.7475 1C38.5795 1 39.2728 1.27733 39.8275 1.832C40.3821 2.36533 40.6595 3.02667 40.6595 3.816C40.6595 4.37067 40.5101 4.91467 40.2115 5.448C39.9341 5.98133 39.5288 6.41867 38.9955 6.76C38.4835 7.08 37.9075 7.24 37.2675 7.24C36.4568 7.24 35.7741 6.97333 35.2195 6.44C34.6861 5.88533 34.4088 5.20267 34.3875 4.392C34.3875 3.85867 34.5261 3.336 34.8035 2.824C35.0808 2.29067 35.4755 1.85333 35.9875 1.512C36.4995 1.17067 37.0861 1 37.7475 1Z"/>
<path d="M58.7142 20.584C58.6716 20.6693 58.6502 20.7973 58.6502 20.968C58.6502 21.1173 58.6822 21.2347 58.7462 21.32C58.8316 21.4053 58.9382 21.448 59.0662 21.448C59.3222 21.448 59.5356 21.3413 59.7062 21.128C59.8982 20.8933 60.0262 20.776 60.0902 20.776C60.1969 20.776 60.2822 20.8507 60.3462 21C60.4102 21.128 60.4422 21.288 60.4422 21.48C60.4636 22.0987 60.2609 22.7067 59.8342 23.304C59.4076 23.88 58.7782 24.36 57.9462 24.744C57.1356 25.1067 56.1542 25.288 55.0022 25.288C53.5942 25.288 52.4742 24.968 51.6422 24.328C50.8102 23.6667 50.3836 22.792 50.3622 21.704C50.3622 20.9147 50.5542 20.0293 50.9382 19.048L52.6982 14.44C52.8049 14.1627 52.8582 13.9387 52.8582 13.768C52.8582 13.4907 52.7622 13.2773 52.5702 13.128C52.3996 12.9573 52.1862 12.872 51.9302 12.872C51.4609 12.872 51.0129 13.096 50.5862 13.544C50.1596 13.9707 49.8502 14.504 49.6582 15.144L47.6742 21.672C47.5889 21.9067 47.5462 22.1307 47.5462 22.344C47.5462 22.6 47.5996 22.8133 47.7062 22.984C47.8129 23.1333 47.9622 23.2933 48.1542 23.464C48.3036 23.592 48.4102 23.7093 48.4742 23.816C48.5382 23.9227 48.5489 24.0507 48.5062 24.2C48.4209 24.4773 48.2182 24.68 47.8982 24.808C47.5782 24.936 47.0769 25 46.3942 25H39.0982C38.5436 25 38.1489 24.9147 37.9142 24.744C37.6582 24.552 37.5622 24.3067 37.6262 24.008C37.7116 23.752 37.9356 23.528 38.2982 23.336C38.6182 23.1653 38.8849 22.9627 39.0982 22.728C39.3116 22.4933 39.4929 22.12 39.6422 21.608L42.4902 12.36C42.5329 12.2533 42.5542 12.104 42.5542 11.912C42.5542 11.6773 42.5009 11.496 42.3942 11.368C42.3089 11.24 42.1596 11.08 41.9462 10.888C41.7329 10.7173 41.5836 10.568 41.4982 10.44C41.4129 10.312 41.4022 10.1413 41.4662 9.928C41.5942 9.43733 42.2662 9.01067 43.4822 8.648C44.6982 8.264 45.9676 8.072 47.2902 8.072C48.3569 8.072 49.1996 8.37067 49.8182 8.968C50.4369 9.544 50.7142 10.3547 50.6502 11.4C51.5249 10.1413 52.4529 9.27733 53.4342 8.808C54.4156 8.31733 55.4822 8.072 56.6342 8.072C57.9356 8.072 58.9809 8.46667 59.7702 9.256C60.5809 10.0453 60.9862 11.0693 60.9862 12.328C60.9862 12.9893 60.8796 13.64 60.6662 14.28L58.7142 20.584Z"/>
<path d="M78.7725 8.072C79.7111 8.072 80.4578 8.456 81.0125 9.224C81.5885 9.97067 81.8765 10.9947 81.8765 12.296C81.8765 13.4267 81.6738 14.6427 81.2685 15.944C80.4791 18.568 79.2098 21.0427 77.4605 23.368C75.7325 25.6933 73.7378 27.56 71.4765 28.968C69.2365 30.376 66.9965 31.08 64.7565 31.08C63.6471 31.08 62.6871 30.888 61.8765 30.504C61.0871 30.12 60.4898 29.608 60.0845 28.968C59.6578 28.328 59.4445 27.6453 59.4445 26.92C59.4445 26.6 59.4978 26.248 59.6045 25.864C59.7965 25.2667 60.1165 24.808 60.5645 24.488C61.0125 24.168 61.5458 24.008 62.1645 24.008C63.1458 24.008 63.9458 24.3387 64.5645 25C65.2045 25.6827 65.6098 26.6107 65.7805 27.784C67.1458 27.72 68.4045 27.1333 69.5565 26.024C68.4685 25.832 67.6578 25.4693 67.1245 24.936C66.6125 24.3813 66.2605 23.528 66.0685 22.376L64.7885 14.536C64.7245 14.1307 64.6285 13.8533 64.5005 13.704C64.3938 13.5333 64.2445 13.448 64.0525 13.448C63.9031 13.448 63.7218 13.5227 63.5085 13.672C63.3165 13.8213 63.1778 13.896 63.0925 13.896C62.9218 13.896 62.8365 13.7147 62.8365 13.352C62.8365 13.0533 62.8898 12.7333 62.9965 12.392C63.3805 11.176 64.0951 10.152 65.1405 9.32C66.1858 8.46667 67.4018 8.04 68.7885 8.04C70.1538 8.04 71.1565 8.44533 71.7965 9.256C72.4578 10.0667 72.8845 11.3147 73.0765 13L74.0365 20.04C74.1005 20.5733 74.2925 20.84 74.6125 20.84C74.9965 20.84 75.4445 20.4987 75.9565 19.816C76.4685 19.112 76.9698 18.12 77.4605 16.84C76.8205 16.264 76.3298 15.6027 75.9885 14.856C75.6471 14.1093 75.4765 13.3093 75.4765 12.456C75.4765 11.7947 75.5618 11.1973 75.7325 10.664C75.9885 9.81067 76.3831 9.17067 76.9165 8.744C77.4711 8.296 78.0898 8.072 78.7725 8.072Z"/>
<path d="M94.0402 8.072C96.9416 8.072 99.0749 8.65867 100.44 9.832C101.827 11.0053 102.52 12.5413 102.52 14.44C102.52 15.08 102.435 15.7947 102.264 16.584C101.859 18.3333 101.102 19.8693 99.9922 21.192C98.8829 22.4933 97.5176 23.5067 95.8962 24.232C94.2962 24.936 92.5576 25.288 90.6802 25.288C87.7149 25.288 85.5176 24.7013 84.0882 23.528C82.6802 22.3333 81.9762 20.7547 81.9762 18.792C81.9762 18.1307 82.0615 17.3947 82.2322 16.584C82.6375 14.92 83.4056 13.448 84.5362 12.168C85.6882 10.8667 87.0856 9.864 88.7282 9.16C90.3922 8.43467 92.1629 8.072 94.0402 8.072ZM93.9442 10.92C93.4962 10.92 93.0162 11.3253 92.5042 12.136C92.0136 12.9253 91.4269 14.4293 90.7442 16.648C90.0616 18.8667 89.7202 20.424 89.7202 21.32C89.7202 21.7893 89.7949 22.1093 89.9442 22.28C90.0936 22.4293 90.2962 22.504 90.5522 22.504C91.0002 22.5467 91.4589 22.1627 91.9282 21.352C92.4189 20.5413 93.0269 18.9627 93.7522 16.616C94.4136 14.5467 94.7442 13.0427 94.7442 12.104C94.7442 11.656 94.6696 11.3467 94.5202 11.176C94.3922 11.0053 94.2002 10.92 93.9442 10.92Z"/>
<path d="M119.68 8.072C120.384 8.072 121.035 8.24267 121.632 8.584C122.251 8.92533 122.731 9.36267 123.072 9.896C123.435 10.4293 123.616 10.984 123.616 11.56C123.616 12.3707 123.392 13.0747 122.944 13.672C122.496 14.248 121.782 14.824 120.8 15.4L114.016 19.432C114.656 20.1573 115.286 20.52 115.904 20.52C116.395 20.52 116.832 20.3387 117.216 19.976C117.6 19.6133 118.038 19.0907 118.528 18.408C118.827 18.0027 119.051 17.7147 119.2 17.544C119.35 17.3733 119.499 17.288 119.648 17.288C120.032 17.288 120.448 17.4267 120.896 17.704C121.366 17.9813 121.76 18.3867 122.08 18.92C122.422 19.4533 122.592 20.0933 122.592 20.84C122.592 21.608 122.39 22.3227 121.984 22.984C121.6 23.624 121.046 24.136 120.32 24.52C119.616 24.904 118.784 25.096 117.824 25.096C116.886 25.096 116.096 24.936 115.456 24.616C114.816 24.2747 114.315 23.9013 113.952 23.496C113.611 23.0907 113.27 22.6107 112.928 22.056C112.651 21.5653 112.438 21.32 112.288 21.32C112.16 21.32 112.022 21.3947 111.872 21.544C111.744 21.6933 111.552 21.9493 111.296 22.312C110.72 23.144 110.123 23.816 109.504 24.328C108.907 24.84 108.118 25.096 107.136 25.096C106.198 25.096 105.344 24.9253 104.576 24.584C103.83 24.2427 103.232 23.7947 102.784 23.24C102.358 22.664 102.144 22.0453 102.144 21.384C102.144 20.2107 102.923 19.1333 104.48 18.152L112.704 13.128C112.342 12.68 112.022 12.36 111.744 12.168C111.467 11.976 111.168 11.88 110.848 11.88C110.443 11.88 110.091 12.0293 109.792 12.328C109.515 12.6053 109.227 13 108.928 13.512C108.715 13.8533 108.534 14.1093 108.384 14.28C108.256 14.4507 108.107 14.536 107.936 14.536C107.275 14.536 106.699 14.3013 106.208 13.832C105.718 13.3627 105.472 12.7227 105.472 11.912C105.472 11.2507 105.632 10.632 105.952 10.056C106.294 9.45867 106.763 8.97867 107.36 8.616C107.979 8.25333 108.694 8.072 109.504 8.072C110.678 8.072 111.584 8.36 112.224 8.936C112.886 9.49067 113.472 10.184 113.984 11.016C114.283 11.4853 114.486 11.72 114.592 11.72C114.699 11.72 114.816 11.656 114.944 11.528C115.094 11.3787 115.211 11.24 115.296 11.112C115.403 10.9627 115.488 10.856 115.552 10.792C116.192 9.96 116.811 9.29867 117.408 8.808C118.006 8.31733 118.763 8.072 119.68 8.072Z"/>
<path d="M132.26 8.072C133.497 8.072 134.404 8.30667 134.98 8.776C135.556 9.24533 135.844 9.88533 135.844 10.696C135.844 11.1867 135.769 11.656 135.62 12.104L132.676 21.672C132.612 21.928 132.58 22.152 132.58 22.344C132.58 22.6213 132.633 22.8453 132.74 23.016C132.846 23.1653 132.996 23.3147 133.188 23.464C133.337 23.6133 133.444 23.7413 133.508 23.848C133.572 23.9333 133.582 24.0507 133.54 24.2C133.433 24.4773 133.22 24.68 132.9 24.808C132.58 24.936 132.089 25 131.428 25H124.132C123.577 25 123.172 24.9147 122.916 24.744C122.66 24.552 122.574 24.3067 122.66 24.008C122.745 23.752 122.969 23.528 123.332 23.336C123.652 23.1653 123.918 22.9627 124.132 22.728C124.345 22.4933 124.526 22.12 124.676 21.608L127.46 12.36C127.524 12.168 127.556 12.008 127.556 11.88C127.556 11.6453 127.502 11.464 127.396 11.336C127.289 11.1867 127.129 11.0373 126.916 10.888C126.702 10.7173 126.553 10.568 126.468 10.44C126.382 10.312 126.372 10.1413 126.436 9.928C126.564 9.43733 127.236 9.01067 128.452 8.648C129.668 8.264 130.937 8.072 132.26 8.072ZM134.404 1C135.236 1 135.929 1.27733 136.484 1.832C137.038 2.36533 137.316 3.02667 137.316 3.816C137.316 4.37067 137.166 4.91467 136.868 5.448C136.59 5.98133 136.185 6.41867 135.652 6.76C135.14 7.08 134.564 7.24 133.924 7.24C133.113 7.24 132.43 6.97333 131.876 6.44C131.342 5.88533 131.065 5.20267 131.044 4.392C131.044 3.85867 131.182 3.336 131.46 2.824C131.737 2.29067 132.132 1.85333 132.644 1.512C133.156 1.17067 133.742 1 134.404 1Z"/>
</mask>
<path d="M25.424 3.56C26.32 3.56 27.0666 3.848 27.664 4.424C28.2613 5 28.56 5.77867 28.56 6.76C28.56 7.86933 28.2293 8.76533 27.568 9.448C26.9066 10.1307 26.1173 10.472 25.2 10.472C24.6026 10.472 24.0906 10.3653 23.664 10.152C23.2373 9.93867 22.832 9.59733 22.448 9.128L19.696 11.432L22.8 20.616C22.992 21.1493 23.1946 21.576 23.408 21.896C23.6426 22.216 23.92 22.536 24.24 22.856C24.4746 23.0907 24.6346 23.2827 24.72 23.432C24.8266 23.56 24.88 23.72 24.88 23.912C24.88 24.2533 24.72 24.52 24.4 24.712C24.1013 24.904 23.568 25 22.8 25H18.608C17.5626 25 16.784 24.776 16.272 24.328C15.7813 23.8587 15.376 23.0907 15.056 22.024L13.456 16.648L12.528 17.416L11.472 21.224C11.3866 21.5013 11.344 21.768 11.344 22.024C11.344 22.28 11.376 22.4933 11.44 22.664C11.5253 22.8347 11.6426 23.016 11.792 23.208C11.984 23.4853 12.08 23.7093 12.08 23.88C12.08 23.9227 12.0586 24.0293 12.016 24.2C11.9306 24.4987 11.7386 24.712 11.44 24.84C11.1413 24.9467 10.6933 25 10.096 25H2.57597C2.12797 25 1.78664 24.9253 1.55197 24.776C1.29597 24.6267 1.16797 24.424 1.16797 24.168C1.16797 24.04 1.19997 23.9013 1.26397 23.752C1.3493 23.5173 1.48797 23.336 1.67997 23.208C1.87197 23.08 1.9893 23.0053 2.03197 22.984C2.3733 22.7707 2.65064 22.5573 2.86397 22.344C3.0773 22.1093 3.25864 21.736 3.40797 21.224L7.31197 7.432C7.3973 7.15467 7.43997 6.888 7.43997 6.632C7.43997 6.39733 7.3973 6.20533 7.31197 6.056C7.24797 5.88533 7.15197 5.69333 7.02397 5.48C6.83197 5.20267 6.73597 4.97867 6.73597 4.808C6.73597 4.744 6.7573 4.62667 6.79997 4.456C6.8853 4.17867 7.06664 3.98667 7.34397 3.88C7.64264 3.752 8.09064 3.688 8.68797 3.688H16.208C16.656 3.688 16.9973 3.76267 17.232 3.912C17.488 4.04 17.616 4.232 17.616 4.488C17.616 4.59467 17.584 4.73333 17.52 4.904C17.456 5.05333 17.36 5.192 17.232 5.32C17.1253 5.42667 17.0186 5.512 16.912 5.576C16.8266 5.61867 16.7626 5.66133 16.72 5.704C16.3786 5.896 16.1013 6.10933 15.888 6.344C15.6746 6.57867 15.4933 6.94133 15.344 7.432L14 12.2L22.48 4.872C23.0346 4.40267 23.536 4.072 23.984 3.88C24.432 3.66667 24.912 3.56 25.424 3.56Z" stroke="white" stroke-width="2" mask="url(#path-1-outside-1_537_1108)"/>
<path d="M35.6035 8.072C36.8408 8.072 37.7475 8.30667 38.3235 8.776C38.8995 9.24533 39.1875 9.88533 39.1875 10.696C39.1875 11.1867 39.1128 11.656 38.9635 12.104L36.0195 21.672C35.9555 21.928 35.9235 22.152 35.9235 22.344C35.9235 22.6213 35.9768 22.8453 36.0835 23.016C36.1901 23.1653 36.3395 23.3147 36.5315 23.464C36.6808 23.6133 36.7875 23.7413 36.8515 23.848C36.9155 23.9333 36.9261 24.0507 36.8835 24.2C36.7768 24.4773 36.5635 24.68 36.2435 24.808C35.9235 24.936 35.4328 25 34.7715 25H27.4755C26.9208 25 26.5155 24.9147 26.2595 24.744C26.0035 24.552 25.9181 24.3067 26.0035 24.008C26.0888 23.752 26.3128 23.528 26.6755 23.336C26.9955 23.1653 27.2621 22.9627 27.4755 22.728C27.6888 22.4933 27.8701 22.12 28.0195 21.608L30.8035 12.36C30.8675 12.168 30.8995 12.008 30.8995 11.88C30.8995 11.6453 30.8461 11.464 30.7395 11.336C30.6328 11.1867 30.4728 11.0373 30.2595 10.888C30.0461 10.7173 29.8968 10.568 29.8115 10.44C29.7261 10.312 29.7155 10.1413 29.7795 9.928C29.9075 9.43733 30.5795 9.01067 31.7955 8.648C33.0115 8.264 34.2808 8.072 35.6035 8.072ZM37.7475 1C38.5795 1 39.2728 1.27733 39.8275 1.832C40.3821 2.36533 40.6595 3.02667 40.6595 3.816C40.6595 4.37067 40.5101 4.91467 40.2115 5.448C39.9341 5.98133 39.5288 6.41867 38.9955 6.76C38.4835 7.08 37.9075 7.24 37.2675 7.24C36.4568 7.24 35.7741 6.97333 35.2195 6.44C34.6861 5.88533 34.4088 5.20267 34.3875 4.392C34.3875 3.85867 34.5261 3.336 34.8035 2.824C35.0808 2.29067 35.4755 1.85333 35.9875 1.512C36.4995 1.17067 37.0861 1 37.7475 1Z" stroke="white" stroke-width="2" mask="url(#path-1-outside-1_537_1108)"/>
<path d="M58.7142 20.584C58.6716 20.6693 58.6502 20.7973 58.6502 20.968C58.6502 21.1173 58.6822 21.2347 58.7462 21.32C58.8316 21.4053 58.9382 21.448 59.0662 21.448C59.3222 21.448 59.5356 21.3413 59.7062 21.128C59.8982 20.8933 60.0262 20.776 60.0902 20.776C60.1969 20.776 60.2822 20.8507 60.3462 21C60.4102 21.128 60.4422 21.288 60.4422 21.48C60.4636 22.0987 60.2609 22.7067 59.8342 23.304C59.4076 23.88 58.7782 24.36 57.9462 24.744C57.1356 25.1067 56.1542 25.288 55.0022 25.288C53.5942 25.288 52.4742 24.968 51.6422 24.328C50.8102 23.6667 50.3836 22.792 50.3622 21.704C50.3622 20.9147 50.5542 20.0293 50.9382 19.048L52.6982 14.44C52.8049 14.1627 52.8582 13.9387 52.8582 13.768C52.8582 13.4907 52.7622 13.2773 52.5702 13.128C52.3996 12.9573 52.1862 12.872 51.9302 12.872C51.4609 12.872 51.0129 13.096 50.5862 13.544C50.1596 13.9707 49.8502 14.504 49.6582 15.144L47.6742 21.672C47.5889 21.9067 47.5462 22.1307 47.5462 22.344C47.5462 22.6 47.5996 22.8133 47.7062 22.984C47.8129 23.1333 47.9622 23.2933 48.1542 23.464C48.3036 23.592 48.4102 23.7093 48.4742 23.816C48.5382 23.9227 48.5489 24.0507 48.5062 24.2C48.4209 24.4773 48.2182 24.68 47.8982 24.808C47.5782 24.936 47.0769 25 46.3942 25H39.0982C38.5436 25 38.1489 24.9147 37.9142 24.744C37.6582 24.552 37.5622 24.3067 37.6262 24.008C37.7116 23.752 37.9356 23.528 38.2982 23.336C38.6182 23.1653 38.8849 22.9627 39.0982 22.728C39.3116 22.4933 39.4929 22.12 39.6422 21.608L42.4902 12.36C42.5329 12.2533 42.5542 12.104 42.5542 11.912C42.5542 11.6773 42.5009 11.496 42.3942 11.368C42.3089 11.24 42.1596 11.08 41.9462 10.888C41.7329 10.7173 41.5836 10.568 41.4982 10.44C41.4129 10.312 41.4022 10.1413 41.4662 9.928C41.5942 9.43733 42.2662 9.01067 43.4822 8.648C44.6982 8.264 45.9676 8.072 47.2902 8.072C48.3569 8.072 49.1996 8.37067 49.8182 8.968C50.4369 9.544 50.7142 10.3547 50.6502 11.4C51.5249 10.1413 52.4529 9.27733 53.4342 8.808C54.4156 8.31733 55.4822 8.072 56.6342 8.072C57.9356 8.072 58.9809 8.46667 59.7702 9.256C60.5809 10.0453 60.9862 11.0693 60.9862 12.328C60.9862 12.9893 60.8796 13.64 60.6662 14.28L58.7142 20.584Z" stroke="white" stroke-width="2" mask="url(#path-1-outside-1_537_1108)"/>
<path d="M78.7725 8.072C79.7111 8.072 80.4578 8.456 81.0125 9.224C81.5885 9.97067 81.8765 10.9947 81.8765 12.296C81.8765 13.4267 81.6738 14.6427 81.2685 15.944C80.4791 18.568 79.2098 21.0427 77.4605 23.368C75.7325 25.6933 73.7378 27.56 71.4765 28.968C69.2365 30.376 66.9965 31.08 64.7565 31.08C63.6471 31.08 62.6871 30.888 61.8765 30.504C61.0871 30.12 60.4898 29.608 60.0845 28.968C59.6578 28.328 59.4445 27.6453 59.4445 26.92C59.4445 26.6 59.4978 26.248 59.6045 25.864C59.7965 25.2667 60.1165 24.808 60.5645 24.488C61.0125 24.168 61.5458 24.008 62.1645 24.008C63.1458 24.008 63.9458 24.3387 64.5645 25C65.2045 25.6827 65.6098 26.6107 65.7805 27.784C67.1458 27.72 68.4045 27.1333 69.5565 26.024C68.4685 25.832 67.6578 25.4693 67.1245 24.936C66.6125 24.3813 66.2605 23.528 66.0685 22.376L64.7885 14.536C64.7245 14.1307 64.6285 13.8533 64.5005 13.704C64.3938 13.5333 64.2445 13.448 64.0525 13.448C63.9031 13.448 63.7218 13.5227 63.5085 13.672C63.3165 13.8213 63.1778 13.896 63.0925 13.896C62.9218 13.896 62.8365 13.7147 62.8365 13.352C62.8365 13.0533 62.8898 12.7333 62.9965 12.392C63.3805 11.176 64.0951 10.152 65.1405 9.32C66.1858 8.46667 67.4018 8.04 68.7885 8.04C70.1538 8.04 71.1565 8.44533 71.7965 9.256C72.4578 10.0667 72.8845 11.3147 73.0765 13L74.0365 20.04C74.1005 20.5733 74.2925 20.84 74.6125 20.84C74.9965 20.84 75.4445 20.4987 75.9565 19.816C76.4685 19.112 76.9698 18.12 77.4605 16.84C76.8205 16.264 76.3298 15.6027 75.9885 14.856C75.6471 14.1093 75.4765 13.3093 75.4765 12.456C75.4765 11.7947 75.5618 11.1973 75.7325 10.664C75.9885 9.81067 76.3831 9.17067 76.9165 8.744C77.4711 8.296 78.0898 8.072 78.7725 8.072Z" stroke="white" stroke-width="2" mask="url(#path-1-outside-1_537_1108)"/>
<path d="M94.0402 8.072C96.9416 8.072 99.0749 8.65867 100.44 9.832C101.827 11.0053 102.52 12.5413 102.52 14.44C102.52 15.08 102.435 15.7947 102.264 16.584C101.859 18.3333 101.102 19.8693 99.9922 21.192C98.8829 22.4933 97.5176 23.5067 95.8962 24.232C94.2962 24.936 92.5576 25.288 90.6802 25.288C87.7149 25.288 85.5176 24.7013 84.0882 23.528C82.6802 22.3333 81.9762 20.7547 81.9762 18.792C81.9762 18.1307 82.0615 17.3947 82.2322 16.584C82.6375 14.92 83.4056 13.448 84.5362 12.168C85.6882 10.8667 87.0856 9.864 88.7282 9.16C90.3922 8.43467 92.1629 8.072 94.0402 8.072ZM93.9442 10.92C93.4962 10.92 93.0162 11.3253 92.5042 12.136C92.0136 12.9253 91.4269 14.4293 90.7442 16.648C90.0616 18.8667 89.7202 20.424 89.7202 21.32C89.7202 21.7893 89.7949 22.1093 89.9442 22.28C90.0936 22.4293 90.2962 22.504 90.5522 22.504C91.0002 22.5467 91.4589 22.1627 91.9282 21.352C92.4189 20.5413 93.0269 18.9627 93.7522 16.616C94.4136 14.5467 94.7442 13.0427 94.7442 12.104C94.7442 11.656 94.6696 11.3467 94.5202 11.176C94.3922 11.0053 94.2002 10.92 93.9442 10.92Z" stroke="white" stroke-width="2" mask="url(#path-1-outside-1_537_1108)"/>
<path d="M119.68 8.072C120.384 8.072 121.035 8.24267 121.632 8.584C122.251 8.92533 122.731 9.36267 123.072 9.896C123.435 10.4293 123.616 10.984 123.616 11.56C123.616 12.3707 123.392 13.0747 122.944 13.672C122.496 14.248 121.782 14.824 120.8 15.4L114.016 19.432C114.656 20.1573 115.286 20.52 115.904 20.52C116.395 20.52 116.832 20.3387 117.216 19.976C117.6 19.6133 118.038 19.0907 118.528 18.408C118.827 18.0027 119.051 17.7147 119.2 17.544C119.35 17.3733 119.499 17.288 119.648 17.288C120.032 17.288 120.448 17.4267 120.896 17.704C121.366 17.9813 121.76 18.3867 122.08 18.92C122.422 19.4533 122.592 20.0933 122.592 20.84C122.592 21.608 122.39 22.3227 121.984 22.984C121.6 23.624 121.046 24.136 120.32 24.52C119.616 24.904 118.784 25.096 117.824 25.096C116.886 25.096 116.096 24.936 115.456 24.616C114.816 24.2747 114.315 23.9013 113.952 23.496C113.611 23.0907 113.27 22.6107 112.928 22.056C112.651 21.5653 112.438 21.32 112.288 21.32C112.16 21.32 112.022 21.3947 111.872 21.544C111.744 21.6933 111.552 21.9493 111.296 22.312C110.72 23.144 110.123 23.816 109.504 24.328C108.907 24.84 108.118 25.096 107.136 25.096C106.198 25.096 105.344 24.9253 104.576 24.584C103.83 24.2427 103.232 23.7947 102.784 23.24C102.358 22.664 102.144 22.0453 102.144 21.384C102.144 20.2107 102.923 19.1333 104.48 18.152L112.704 13.128C112.342 12.68 112.022 12.36 111.744 12.168C111.467 11.976 111.168 11.88 110.848 11.88C110.443 11.88 110.091 12.0293 109.792 12.328C109.515 12.6053 109.227 13 108.928 13.512C108.715 13.8533 108.534 14.1093 108.384 14.28C108.256 14.4507 108.107 14.536 107.936 14.536C107.275 14.536 106.699 14.3013 106.208 13.832C105.718 13.3627 105.472 12.7227 105.472 11.912C105.472 11.2507 105.632 10.632 105.952 10.056C106.294 9.45867 106.763 8.97867 107.36 8.616C107.979 8.25333 108.694 8.072 109.504 8.072C110.678 8.072 111.584 8.36 112.224 8.936C112.886 9.49067 113.472 10.184 113.984 11.016C114.283 11.4853 114.486 11.72 114.592 11.72C114.699 11.72 114.816 11.656 114.944 11.528C115.094 11.3787 115.211 11.24 115.296 11.112C115.403 10.9627 115.488 10.856 115.552 10.792C116.192 9.96 116.811 9.29867 117.408 8.808C118.006 8.31733 118.763 8.072 119.68 8.072Z" stroke="white" stroke-width="2" mask="url(#path-1-outside-1_537_1108)"/>
<path d="M132.26 8.072C133.497 8.072 134.404 8.30667 134.98 8.776C135.556 9.24533 135.844 9.88533 135.844 10.696C135.844 11.1867 135.769 11.656 135.62 12.104L132.676 21.672C132.612 21.928 132.58 22.152 132.58 22.344C132.58 22.6213 132.633 22.8453 132.74 23.016C132.846 23.1653 132.996 23.3147 133.188 23.464C133.337 23.6133 133.444 23.7413 133.508 23.848C133.572 23.9333 133.582 24.0507 133.54 24.2C133.433 24.4773 133.22 24.68 132.9 24.808C132.58 24.936 132.089 25 131.428 25H124.132C123.577 25 123.172 24.9147 122.916 24.744C122.66 24.552 122.574 24.3067 122.66 24.008C122.745 23.752 122.969 23.528 123.332 23.336C123.652 23.1653 123.918 22.9627 124.132 22.728C124.345 22.4933 124.526 22.12 124.676 21.608L127.46 12.36C127.524 12.168 127.556 12.008 127.556 11.88C127.556 11.6453 127.502 11.464 127.396 11.336C127.289 11.1867 127.129 11.0373 126.916 10.888C126.702 10.7173 126.553 10.568 126.468 10.44C126.382 10.312 126.372 10.1413 126.436 9.928C126.564 9.43733 127.236 9.01067 128.452 8.648C129.668 8.264 130.937 8.072 132.26 8.072ZM134.404 1C135.236 1 135.929 1.27733 136.484 1.832C137.038 2.36533 137.316 3.02667 137.316 3.816C137.316 4.37067 137.166 4.91467 136.868 5.448C136.59 5.98133 136.185 6.41867 135.652 6.76C135.14 7.08 134.564 7.24 133.924 7.24C133.113 7.24 132.43 6.97333 131.876 6.44C131.342 5.88533 131.065 5.20267 131.044 4.392C131.044 3.85867 131.182 3.336 131.46 2.824C131.737 2.29067 132.132 1.85333 132.644 1.512C133.156 1.17067 133.742 1 134.404 1Z" stroke="white" stroke-width="2" mask="url(#path-1-outside-1_537_1108)"/>
</svg>
