<svg width="283" height="26" viewBox="0 0 283 26" fill="none" xmlns="http://www.w3.org/2000/svg">
<mask id="path-1-outside-1_538_1116" maskUnits="userSpaceOnUse" x="0.0688477" y="0.0195312" width="283" height="26" fill="black">
<rect fill="white" x="0.0688477" y="0.0195312" width="283" height="26"/>
<path d="M26.315 9.85153C25.9736 11.0889 25.3336 12.0595 24.395 12.7635C23.4563 13.4462 22.2723 13.8729 20.843 14.0435C21.867 14.1289 22.635 14.4275 23.147 14.9395C23.659 15.4515 23.915 16.1235 23.915 16.9555C23.915 17.2755 23.8616 17.6702 23.755 18.1395L23.403 19.7075C23.3603 19.9209 23.339 20.0702 23.339 20.1555C23.339 20.4329 23.403 20.6462 23.531 20.7955C23.659 20.9235 23.8403 20.9875 24.075 20.9875C24.523 20.9875 24.843 21.0515 25.035 21.1795C25.2483 21.3075 25.323 21.5422 25.259 21.8835C25.1736 22.3742 24.9176 22.8542 24.491 23.3235C24.0643 23.7929 23.4563 24.1875 22.667 24.5075C21.899 24.8062 20.9603 24.9555 19.851 24.9555C18.443 24.9555 17.323 24.6462 16.491 24.0275C15.659 23.3875 15.243 22.4809 15.243 21.3075C15.243 20.8595 15.307 20.3795 15.435 19.8675L15.947 17.8195C16.0323 17.5422 16.075 17.2542 16.075 16.9555C16.075 16.4649 15.9043 16.1129 15.563 15.8995C15.243 15.6862 14.7203 15.5795 13.995 15.5795H12.779L11.307 20.8915C11.2643 21.0195 11.243 21.1795 11.243 21.3715C11.243 21.6702 11.3176 21.9262 11.467 22.1395C11.6163 22.3529 11.819 22.5769 12.075 22.8115C12.267 22.9609 12.4163 23.1102 12.523 23.2595C12.6296 23.3875 12.683 23.5262 12.683 23.6755C12.683 24.0382 12.5123 24.2942 12.171 24.4435C11.8296 24.5929 11.3283 24.6675 10.667 24.6675H2.63497C2.0803 24.6675 1.6643 24.5715 1.38697 24.3795C1.10963 24.1662 1.01363 23.8782 1.09897 23.5155C1.14163 23.3235 1.22697 23.1742 1.35497 23.0675C1.46163 22.9395 1.6323 22.8009 1.86697 22.6515C2.22963 22.4382 2.51763 22.2142 2.73097 21.9795C2.9443 21.7449 3.11497 21.3822 3.24297 20.8915L7.14697 7.09953C7.2323 6.8222 7.27497 6.55553 7.27497 6.29953C7.27497 6.06486 7.2323 5.87286 7.14697 5.72353C7.08297 5.55286 6.98697 5.36086 6.85897 5.14753C6.66697 4.8702 6.57097 4.6462 6.57097 4.47553C6.57097 4.41153 6.5923 4.2942 6.63497 4.12353C6.7203 3.8462 6.90163 3.6542 7.17897 3.54753C7.47763 3.41953 7.92563 3.35553 8.52297 3.35553H19.243C20.715 3.35553 21.995 3.57953 23.083 4.02753C24.1923 4.47553 25.035 5.0942 25.611 5.88353C26.2083 6.65153 26.507 7.5262 26.507 8.50753C26.507 8.95553 26.443 9.40353 26.315 9.85153ZM18.123 9.53153C18.2296 9.04086 18.283 8.66753 18.283 8.41153C18.283 7.28086 17.6643 6.71553 16.427 6.71553H15.083L13.675 12.3795H15.019C15.851 12.3795 16.5016 12.1769 16.971 11.7715C17.4616 11.3662 17.8456 10.6195 18.123 9.53153Z"/>
<path d="M36.9962 7.57953C39.7055 7.57953 41.6682 8.01686 42.8842 8.89153C44.1002 9.74486 44.7082 10.8435 44.7082 12.1875C44.7082 12.5929 44.6655 12.9662 44.5802 13.3075C44.2602 14.7155 43.3642 15.7289 41.8922 16.3475C40.4415 16.9449 38.7242 17.2435 36.7402 17.2435C35.7375 17.2435 34.7989 17.1795 33.9242 17.0515C33.9029 18.1609 34.2016 18.9395 34.8202 19.3875C35.4389 19.8355 36.3029 20.0595 37.4122 20.0595C37.9242 20.0595 38.4149 20.0062 38.8842 19.8995C39.3535 19.7715 39.9509 19.5902 40.6762 19.3555C41.2735 19.1422 41.6789 19.0355 41.8922 19.0355C42.1269 19.0355 42.2442 19.1742 42.2442 19.4515C42.2655 20.1982 41.9882 20.9875 41.4122 21.8195C40.8362 22.6302 39.9829 23.3235 38.8522 23.8995C37.7215 24.4755 36.3562 24.7635 34.7562 24.7635C32.3882 24.7635 30.4469 24.1662 28.9322 22.9715C27.4175 21.7769 26.6602 20.0382 26.6602 17.7555C26.6602 17.1155 26.7455 16.3689 26.9162 15.5155C27.4495 12.8915 28.6122 10.9182 30.4042 9.59553C32.2175 8.25153 34.4149 7.57953 36.9962 7.57953ZM34.1482 15.1315C34.2335 15.1529 34.3509 15.1635 34.5002 15.1635C35.3962 15.1635 36.0789 14.7475 36.5482 13.9155C37.0176 13.0835 37.2415 12.1555 37.2202 11.1315C37.1989 10.5342 37.0282 10.2355 36.7082 10.2355C36.4736 10.2355 36.1962 10.4275 35.8762 10.8115C35.5562 11.1742 35.2362 11.7289 34.9162 12.4755C34.6176 13.2222 34.3616 14.1075 34.1482 15.1315Z"/>
<path d="M61.9425 20.0595C61.8998 20.2302 61.8785 20.3475 61.8785 20.4115C61.8785 20.5609 61.9211 20.6782 62.0065 20.7635C62.0918 20.8489 62.1985 20.8915 62.3265 20.8915C62.5825 20.8915 62.7958 20.7849 62.9665 20.5715C63.1585 20.3369 63.2865 20.2195 63.3505 20.2195C63.4571 20.2195 63.5425 20.2942 63.6065 20.4435C63.6705 20.5929 63.7025 20.7635 63.7025 20.9555C63.7238 21.5315 63.4998 22.1182 63.0305 22.7155C62.5825 23.3129 61.9745 23.8035 61.2065 24.1875C60.4385 24.5715 59.6065 24.7635 58.7105 24.7635C57.6438 24.7635 56.7158 24.5609 55.9265 24.1555C55.1371 23.7502 54.5931 23.2169 54.2945 22.5555C53.7185 23.3022 53.0571 23.8569 52.3105 24.2195C51.5638 24.5822 50.7745 24.7635 49.9425 24.7635C48.9611 24.7635 48.0438 24.5182 47.1905 24.0275C46.3585 23.5369 45.6865 22.8435 45.1745 21.9475C44.6838 21.0302 44.4385 19.9955 44.4385 18.8435C44.4385 16.9022 44.8011 15.0782 45.5265 13.3715C46.2731 11.6435 47.3078 10.2569 48.6305 9.21153C49.9531 8.14486 51.4571 7.61153 53.1425 7.61153C54.0598 7.61153 54.8385 7.7182 55.4785 7.93153C56.1398 8.14487 56.7371 8.46486 57.2705 8.89153L58.3585 5.30753C58.4225 5.11553 58.4545 4.95553 58.4545 4.82753C58.4545 4.59286 58.3905 4.40086 58.2625 4.25153C58.1558 4.1022 58.0065 3.95286 57.8145 3.80353C57.6011 3.63286 57.4411 3.48353 57.3345 3.35553C57.2491 3.22753 57.2385 3.05686 57.3025 2.84353C57.4305 2.35286 58.1025 1.9262 59.3185 1.56353C60.5345 1.20086 61.8038 1.01953 63.1265 1.01953C64.3638 1.01953 65.2705 1.2542 65.8465 1.72353C66.4438 2.19286 66.7425 2.83286 66.7425 3.64353C66.7425 4.11286 66.6678 4.57153 66.5185 5.01953L61.9425 20.0595ZM56.5985 11.0675C56.2571 10.7689 55.8838 10.6195 55.4785 10.6195C54.8598 10.6195 54.2518 11.0782 53.6545 11.9955C53.0571 12.9129 52.5771 14.0222 52.2145 15.3235C51.8518 16.6249 51.6811 17.7982 51.7025 18.8435C51.7025 20.0169 52.0865 20.6035 52.8545 20.6035C53.1318 20.6035 53.3665 20.4969 53.5585 20.2835C53.7505 20.0489 53.9318 19.6755 54.1025 19.1635L56.5985 11.0675Z"/>
<path d="M89.7655 16.4115C90.3628 16.4115 90.8108 16.5395 91.1095 16.7955C91.4295 17.0302 91.5895 17.3715 91.5895 17.8195C91.5895 18.0115 91.5575 18.2249 91.4935 18.4595L90.4375 22.2035C90.1601 23.1209 89.7655 23.7609 89.2535 24.1235C88.7628 24.4862 88.0268 24.6675 87.0455 24.6675H72.0055C71.5575 24.6675 71.2161 24.5929 70.9815 24.4435C70.7255 24.2942 70.5975 24.0915 70.5975 23.8355C70.5975 23.7075 70.6295 23.5689 70.6935 23.4195C70.7575 23.2489 70.8641 23.1102 71.0135 23.0035C71.1628 22.8755 71.3228 22.7582 71.4935 22.6515C71.8348 22.4382 72.1121 22.2249 72.3255 22.0115C72.5388 21.7769 72.7201 21.4035 72.8695 20.8915L76.7735 7.09953C76.8588 6.8222 76.9015 6.55553 76.9015 6.29953C76.9015 6.06486 76.8588 5.87286 76.7735 5.72353C76.7095 5.55286 76.6135 5.36086 76.4855 5.14753C76.2935 4.8702 76.1975 4.6462 76.1975 4.47553C76.1975 4.41153 76.2188 4.2942 76.2615 4.12353C76.3468 3.8462 76.5281 3.6542 76.8055 3.54753C77.1041 3.41953 77.5521 3.35553 78.1495 3.35553H85.6695C86.1175 3.35553 86.4588 3.4302 86.6935 3.57953C86.9495 3.70753 87.0775 3.89953 87.0775 4.15553C87.0775 4.2622 87.0455 4.40086 86.9815 4.57153C86.9175 4.72086 86.8215 4.85953 86.6935 4.98753C86.5868 5.0942 86.4801 5.17953 86.3735 5.24353C86.2881 5.2862 86.2241 5.32886 86.1815 5.37153C85.8401 5.56353 85.5628 5.77686 85.3495 6.01153C85.1361 6.2462 84.9548 6.60886 84.8055 7.09953L80.6775 21.5955H82.6615C83.1521 21.5955 83.5681 21.5102 83.9095 21.3395C84.2721 21.1689 84.6455 20.8489 85.0295 20.3795L87.2375 17.7555C87.6428 17.2862 88.0268 16.9449 88.3895 16.7315C88.7735 16.5182 89.2321 16.4115 89.7655 16.4115Z"/>
<path d="M103.697 7.73953C106.151 7.73953 108.113 8.1982 109.585 9.11553C111.057 10.0115 111.793 11.3875 111.793 13.2435C111.793 13.9475 111.665 14.7475 111.409 15.6435L110.097 20.0595C110.076 20.1449 110.065 20.2515 110.065 20.3795C110.065 20.7209 110.204 20.8915 110.481 20.8915C110.737 20.8915 110.951 20.7849 111.121 20.5715C111.313 20.3369 111.441 20.2195 111.505 20.2195C111.612 20.2195 111.697 20.2942 111.761 20.4435C111.847 20.5929 111.889 20.7635 111.889 20.9555C111.911 21.5315 111.687 22.1182 111.217 22.7155C110.769 23.3129 110.161 23.8035 109.393 24.1875C108.625 24.5715 107.783 24.7635 106.865 24.7635C105.756 24.7635 104.807 24.5609 104.017 24.1555C103.228 23.7502 102.684 23.1529 102.385 22.3635C101.745 23.1315 100.988 23.7289 100.113 24.1555C99.2385 24.5609 98.2999 24.7635 97.2972 24.7635C96.1666 24.7635 95.2172 24.5502 94.4492 24.1235C93.6812 23.6755 93.1052 23.1102 92.7212 22.4275C92.3585 21.7235 92.1772 20.9875 92.1772 20.2195C92.1772 19.8782 92.2092 19.5475 92.2732 19.2275C92.6145 17.7555 93.3505 16.6462 94.4812 15.8995C95.6332 15.1529 96.9986 14.7795 98.5772 14.7795C100.348 14.7795 102.087 15.0569 103.793 15.6115L104.593 13.4995C104.871 12.6035 105.009 11.9102 105.009 11.4195C104.988 10.9075 104.817 10.5235 104.497 10.2675C104.177 10.0115 103.687 9.88353 103.025 9.88353C103.153 10.2249 103.217 10.5769 103.217 10.9395C103.217 11.7289 102.919 12.4115 102.321 12.9875C101.724 13.5635 100.871 13.8515 99.7612 13.8515C98.7159 13.8515 97.8946 13.6275 97.2972 13.1795C96.7212 12.7102 96.4332 12.1342 96.4332 11.4515C96.4332 10.3849 97.0305 9.49953 98.2252 8.79553C99.4199 8.09153 101.244 7.73953 103.697 7.73953ZM101.905 17.4355C101.308 17.4355 100.817 17.6702 100.433 18.1395C100.071 18.5875 99.8892 19.0782 99.8892 19.6115C99.8892 19.9529 99.9639 20.2302 100.113 20.4435C100.284 20.6569 100.519 20.7635 100.817 20.7635C101.095 20.7635 101.393 20.6569 101.713 20.4435C102.055 20.2089 102.3 19.8675 102.449 19.4195L103.121 17.5315C102.759 17.4675 102.353 17.4355 101.905 17.4355Z"/>
<path d="M133.019 20.2515C132.976 20.3369 132.955 20.4649 132.955 20.6355C132.955 20.7849 132.987 20.9022 133.051 20.9875C133.136 21.0729 133.243 21.1155 133.371 21.1155C133.627 21.1155 133.84 21.0089 134.011 20.7955C134.203 20.5609 134.331 20.4435 134.395 20.4435C134.501 20.4435 134.587 20.5182 134.651 20.6675C134.715 20.7955 134.747 20.9555 134.747 21.1475C134.768 21.7662 134.565 22.3742 134.139 22.9715C133.712 23.5475 133.083 24.0275 132.251 24.4115C131.44 24.7742 130.459 24.9555 129.307 24.9555C127.899 24.9555 126.779 24.6355 125.947 23.9955C125.115 23.3342 124.688 22.4595 124.667 21.3715C124.667 20.5822 124.859 19.6969 125.243 18.7155L127.003 14.1075C127.109 13.8302 127.163 13.6062 127.163 13.4355C127.163 13.1582 127.067 12.9449 126.875 12.7955C126.704 12.6249 126.491 12.5395 126.235 12.5395C125.765 12.5395 125.317 12.7635 124.891 13.2115C124.464 13.6382 124.155 14.1715 123.963 14.8115L121.979 21.3395C121.893 21.5742 121.851 21.7982 121.851 22.0115C121.851 22.2675 121.904 22.4809 122.011 22.6515C122.117 22.8009 122.267 22.9609 122.459 23.1315C122.608 23.2595 122.715 23.3769 122.779 23.4835C122.843 23.5902 122.853 23.7182 122.811 23.8675C122.725 24.1449 122.523 24.3475 122.203 24.4755C121.883 24.6035 121.381 24.6675 120.699 24.6675H113.403C112.848 24.6675 112.453 24.5822 112.219 24.4115C111.963 24.2195 111.867 23.9742 111.931 23.6755C112.016 23.4195 112.24 23.1955 112.603 23.0035C112.923 22.8329 113.189 22.6302 113.403 22.3955C113.616 22.1609 113.797 21.7875 113.947 21.2755L116.795 12.0275C116.837 11.9209 116.859 11.7715 116.859 11.5795C116.859 11.3449 116.805 11.1635 116.699 11.0355C116.613 10.9075 116.464 10.7475 116.251 10.5555C116.037 10.3849 115.888 10.2355 115.803 10.1075C115.717 9.97953 115.707 9.80886 115.771 9.59553C115.899 9.10486 116.571 8.6782 117.787 8.31553C119.003 7.93153 120.272 7.73953 121.595 7.73953C122.661 7.73953 123.504 8.0382 124.123 8.63553C124.741 9.21153 125.019 10.0222 124.955 11.0675C125.829 9.80886 126.757 8.94486 127.739 8.47553C128.72 7.98486 129.787 7.73953 130.939 7.73953C132.24 7.73953 133.285 8.1342 134.075 8.92353C134.885 9.71286 135.291 10.7369 135.291 11.9955C135.291 12.6569 135.184 13.3075 134.971 13.9475L133.019 20.2515Z"/>
<path d="M154.005 20.0595C153.962 20.2302 153.941 20.3475 153.941 20.4115C153.941 20.5609 153.984 20.6782 154.069 20.7635C154.154 20.8489 154.261 20.8915 154.389 20.8915C154.645 20.8915 154.858 20.7849 155.029 20.5715C155.221 20.3369 155.349 20.2195 155.413 20.2195C155.52 20.2195 155.605 20.2942 155.669 20.4435C155.733 20.5929 155.765 20.7635 155.765 20.9555C155.786 21.5315 155.562 22.1182 155.093 22.7155C154.645 23.3129 154.037 23.8035 153.269 24.1875C152.501 24.5715 151.669 24.7635 150.773 24.7635C149.706 24.7635 148.778 24.5609 147.989 24.1555C147.2 23.7502 146.656 23.2169 146.357 22.5555C145.781 23.3022 145.12 23.8569 144.373 24.2195C143.626 24.5822 142.837 24.7635 142.005 24.7635C141.024 24.7635 140.106 24.5182 139.253 24.0275C138.421 23.5369 137.749 22.8435 137.237 21.9475C136.746 21.0302 136.501 19.9955 136.501 18.8435C136.501 16.9022 136.864 15.0782 137.589 13.3715C138.336 11.6435 139.37 10.2569 140.693 9.21153C142.016 8.14486 143.52 7.61153 145.205 7.61153C146.122 7.61153 146.901 7.7182 147.541 7.93153C148.202 8.14487 148.8 8.46486 149.333 8.89153L150.421 5.30753C150.485 5.11553 150.517 4.95553 150.517 4.82753C150.517 4.59286 150.453 4.40086 150.325 4.25153C150.218 4.1022 150.069 3.95286 149.877 3.80353C149.664 3.63286 149.504 3.48353 149.397 3.35553C149.312 3.22753 149.301 3.05686 149.365 2.84353C149.493 2.35286 150.165 1.9262 151.381 1.56353C152.597 1.20086 153.866 1.01953 155.189 1.01953C156.426 1.01953 157.333 1.2542 157.909 1.72353C158.506 2.19286 158.805 2.83286 158.805 3.64353C158.805 4.11286 158.73 4.57153 158.581 5.01953L154.005 20.0595ZM148.661 11.0675C148.32 10.7689 147.946 10.6195 147.541 10.6195C146.922 10.6195 146.314 11.0782 145.717 11.9955C145.12 12.9129 144.64 14.0222 144.277 15.3235C143.914 16.6249 143.744 17.7982 143.765 18.8435C143.765 20.0169 144.149 20.6035 144.917 20.6035C145.194 20.6035 145.429 20.4969 145.621 20.2835C145.813 20.0489 145.994 19.6755 146.165 19.1635L148.661 11.0675Z"/>
<path d="M165.707 7.45153C167.478 7.45153 169.003 7.61153 170.283 7.93153C171.585 8.25153 172.577 8.69953 173.259 9.27553C173.963 9.85153 174.315 10.5022 174.315 11.2275C174.315 11.9742 174.017 12.5822 173.419 13.0515C172.843 13.5209 172.033 13.7555 170.987 13.7555C169.921 13.7555 169.014 13.4889 168.267 12.9555C167.542 12.4222 167.179 11.7502 167.179 10.9395C167.179 10.6622 167.222 10.3955 167.307 10.1395C166.923 10.0329 166.582 9.97953 166.283 9.97953C165.75 9.97953 165.302 10.1075 164.939 10.3635C164.598 10.6195 164.438 10.9822 164.459 11.4515C164.459 12.0062 164.737 12.4755 165.291 12.8595C165.846 13.2435 166.742 13.7235 167.979 14.2995C169.046 14.7689 169.921 15.2062 170.603 15.6115C171.307 15.9955 171.894 16.4862 172.363 17.0835C172.854 17.6809 173.099 18.3849 173.099 19.1955C173.099 19.3662 173.057 19.6862 172.971 20.1555C172.63 21.5849 171.681 22.7155 170.123 23.5475C168.566 24.3795 166.518 24.7955 163.979 24.7955C161.121 24.7955 158.849 24.4115 157.163 23.6435C155.499 22.8755 154.667 21.8195 154.667 20.4755C154.667 19.5582 154.945 18.8649 155.499 18.3955C156.054 17.9262 156.79 17.6915 157.707 17.6915C158.774 17.6915 159.681 18.0222 160.427 18.6835C161.195 19.3449 161.579 20.1875 161.579 21.2115C161.579 21.4889 161.547 21.7769 161.483 22.0755C161.995 22.2035 162.486 22.2675 162.955 22.2675C163.51 22.2675 163.969 22.1182 164.331 21.8195C164.694 21.5209 164.875 21.1049 164.875 20.5715C164.854 20.0809 164.609 19.6649 164.139 19.3235C163.67 18.9609 162.923 18.5342 161.899 18.0435C160.939 17.5955 160.15 17.1795 159.531 16.7955C158.913 16.3902 158.379 15.8889 157.931 15.2915C157.505 14.6942 157.291 13.9902 157.291 13.1795C157.291 11.4302 158.017 10.0435 159.467 9.01953C160.939 7.9742 163.019 7.45153 165.707 7.45153Z"/>
<path d="M205.002 9.85153C204.661 11.0889 204.021 12.0595 203.082 12.7635C202.144 13.4462 200.96 13.8729 199.53 14.0435C200.554 14.1289 201.322 14.4275 201.834 14.9395C202.346 15.4515 202.602 16.1235 202.602 16.9555C202.602 17.2755 202.549 17.6702 202.442 18.1395L202.09 19.7075C202.048 19.9209 202.026 20.0702 202.026 20.1555C202.026 20.4329 202.09 20.6462 202.218 20.7955C202.346 20.9235 202.528 20.9875 202.762 20.9875C203.21 20.9875 203.53 21.0515 203.722 21.1795C203.936 21.3075 204.01 21.5422 203.946 21.8835C203.861 22.3742 203.605 22.8542 203.178 23.3235C202.752 23.7929 202.144 24.1875 201.354 24.5075C200.586 24.8062 199.648 24.9555 198.538 24.9555C197.13 24.9555 196.01 24.6462 195.178 24.0275C194.346 23.3875 193.93 22.4809 193.93 21.3075C193.93 20.8595 193.994 20.3795 194.122 19.8675L194.634 17.8195C194.72 17.5422 194.762 17.2542 194.762 16.9555C194.762 16.4649 194.592 16.1129 194.25 15.8995C193.93 15.6862 193.408 15.5795 192.682 15.5795H191.466L189.994 20.8915C189.952 21.0195 189.93 21.1795 189.93 21.3715C189.93 21.6702 190.005 21.9262 190.154 22.1395C190.304 22.3529 190.506 22.5769 190.762 22.8115C190.954 22.9609 191.104 23.1102 191.21 23.2595C191.317 23.3875 191.37 23.5262 191.37 23.6755C191.37 24.0382 191.2 24.2942 190.858 24.4435C190.517 24.5929 190.016 24.6675 189.354 24.6675H181.322C180.768 24.6675 180.352 24.5715 180.074 24.3795C179.797 24.1662 179.701 23.8782 179.786 23.5155C179.829 23.3235 179.914 23.1742 180.042 23.0675C180.149 22.9395 180.32 22.8009 180.554 22.6515C180.917 22.4382 181.205 22.2142 181.418 21.9795C181.632 21.7449 181.802 21.3822 181.93 20.8915L185.834 7.09953C185.92 6.8222 185.962 6.55553 185.962 6.29953C185.962 6.06486 185.92 5.87286 185.834 5.72353C185.77 5.55286 185.674 5.36086 185.546 5.14753C185.354 4.8702 185.258 4.6462 185.258 4.47553C185.258 4.41153 185.28 4.2942 185.322 4.12353C185.408 3.8462 185.589 3.6542 185.866 3.54753C186.165 3.41953 186.613 3.35553 187.21 3.35553H197.93C199.402 3.35553 200.682 3.57953 201.77 4.02753C202.88 4.47553 203.722 5.0942 204.298 5.88353C204.896 6.65153 205.194 7.5262 205.194 8.50753C205.194 8.95553 205.13 9.40353 205.002 9.85153ZM196.81 9.53153C196.917 9.04086 196.97 8.66753 196.97 8.41153C196.97 7.28086 196.352 6.71553 195.114 6.71553H193.77L192.362 12.3795H193.706C194.538 12.3795 195.189 12.1769 195.658 11.7715C196.149 11.3662 196.533 10.6195 196.81 9.53153Z"/>
<path d="M217.22 7.73953C220.121 7.73953 222.254 8.3262 223.62 9.49953C225.006 10.6729 225.7 12.2089 225.7 14.1075C225.7 14.7475 225.614 15.4622 225.444 16.2515C225.038 18.0009 224.281 19.5369 223.172 20.8595C222.062 22.1609 220.697 23.1742 219.076 23.8995C217.476 24.6035 215.737 24.9555 213.86 24.9555C210.894 24.9555 208.697 24.3689 207.268 23.1955C205.86 22.0009 205.156 20.4222 205.156 18.4595C205.156 17.7982 205.241 17.0622 205.412 16.2515C205.817 14.5875 206.585 13.1155 207.716 11.8355C208.868 10.5342 210.265 9.53153 211.908 8.82753C213.572 8.1022 215.342 7.73953 217.22 7.73953ZM217.124 10.5875C216.676 10.5875 216.196 10.9929 215.684 11.8035C215.193 12.5929 214.606 14.0969 213.924 16.3155C213.241 18.5342 212.9 20.0915 212.9 20.9875C212.9 21.4569 212.974 21.7769 213.124 21.9475C213.273 22.0969 213.476 22.1715 213.732 22.1715C214.18 22.2142 214.638 21.8302 215.108 21.0195C215.598 20.2089 216.206 18.6302 216.932 16.2835C217.593 14.2142 217.924 12.7102 217.924 11.7715C217.924 11.3235 217.849 11.0142 217.7 10.8435C217.572 10.6729 217.38 10.5875 217.124 10.5875Z"/>
<path d="M236.364 7.45153C238.134 7.45153 239.66 7.61153 240.94 7.93153C242.241 8.25153 243.233 8.69953 243.916 9.27553C244.62 9.85153 244.972 10.5022 244.972 11.2275C244.972 11.9742 244.673 12.5822 244.076 13.0515C243.5 13.5209 242.689 13.7555 241.644 13.7555C240.577 13.7555 239.67 13.4889 238.924 12.9555C238.198 12.4222 237.836 11.7502 237.836 10.9395C237.836 10.6622 237.878 10.3955 237.964 10.1395C237.58 10.0329 237.238 9.97953 236.94 9.97953C236.406 9.97953 235.958 10.1075 235.596 10.3635C235.254 10.6195 235.094 10.9822 235.116 11.4515C235.116 12.0062 235.393 12.4755 235.948 12.8595C236.502 13.2435 237.398 13.7235 238.636 14.2995C239.702 14.7689 240.577 15.2062 241.26 15.6115C241.964 15.9955 242.55 16.4862 243.02 17.0835C243.51 17.6809 243.756 18.3849 243.756 19.1955C243.756 19.3662 243.713 19.6862 243.628 20.1555C243.286 21.5849 242.337 22.7155 240.78 23.5475C239.222 24.3795 237.174 24.7955 234.636 24.7955C231.777 24.7955 229.505 24.4115 227.82 23.6435C226.156 22.8755 225.324 21.8195 225.324 20.4755C225.324 19.5582 225.601 18.8649 226.156 18.3955C226.71 17.9262 227.446 17.6915 228.364 17.6915C229.43 17.6915 230.337 18.0222 231.084 18.6835C231.852 19.3449 232.236 20.1875 232.236 21.2115C232.236 21.4889 232.204 21.7769 232.14 22.0755C232.652 22.2035 233.142 22.2675 233.612 22.2675C234.166 22.2675 234.625 22.1182 234.988 21.8195C235.35 21.5209 235.532 21.1049 235.532 20.5715C235.51 20.0809 235.265 19.6649 234.796 19.3235C234.326 18.9609 233.58 18.5342 232.556 18.0435C231.596 17.5955 230.806 17.1795 230.188 16.7955C229.569 16.3902 229.036 15.8889 228.588 15.2915C228.161 14.6942 227.948 13.9902 227.948 13.1795C227.948 11.4302 228.673 10.0435 230.124 9.01953C231.596 7.9742 233.676 7.45153 236.364 7.45153Z"/>
<path d="M255.652 7.57953C258.362 7.57953 260.324 8.01686 261.54 8.89153C262.756 9.74486 263.364 10.8435 263.364 12.1875C263.364 12.5929 263.322 12.9662 263.236 13.3075C262.916 14.7155 262.02 15.7289 260.548 16.3475C259.098 16.9449 257.38 17.2435 255.396 17.2435C254.394 17.2435 253.455 17.1795 252.58 17.0515C252.559 18.1609 252.858 18.9395 253.476 19.3875C254.095 19.8355 254.959 20.0595 256.068 20.0595C256.58 20.0595 257.071 20.0062 257.54 19.8995C258.01 19.7715 258.607 19.5902 259.332 19.3555C259.93 19.1422 260.335 19.0355 260.548 19.0355C260.783 19.0355 260.9 19.1742 260.9 19.4515C260.922 20.1982 260.644 20.9875 260.068 21.8195C259.492 22.6302 258.639 23.3235 257.508 23.8995C256.378 24.4755 255.012 24.7635 253.412 24.7635C251.044 24.7635 249.103 24.1662 247.588 22.9715C246.074 21.7769 245.316 20.0382 245.316 17.7555C245.316 17.1155 245.402 16.3689 245.572 15.5155C246.106 12.8915 247.268 10.9182 249.06 9.59553C250.874 8.25153 253.071 7.57953 255.652 7.57953ZM252.804 15.1315C252.89 15.1529 253.007 15.1635 253.156 15.1635C254.052 15.1635 254.735 14.7475 255.204 13.9155C255.674 13.0835 255.898 12.1555 255.876 11.1315C255.855 10.5342 255.684 10.2355 255.364 10.2355C255.13 10.2355 254.852 10.4275 254.532 10.8115C254.212 11.1742 253.892 11.7289 253.572 12.4755C253.274 13.2222 253.018 14.1075 252.804 15.1315Z"/>
<path d="M273.239 7.45153C275.009 7.45153 276.535 7.61153 277.815 7.93153C279.116 8.25153 280.108 8.69953 280.791 9.27553C281.495 9.85153 281.847 10.5022 281.847 11.2275C281.847 11.9742 281.548 12.5822 280.951 13.0515C280.375 13.5209 279.564 13.7555 278.519 13.7555C277.452 13.7555 276.545 13.4889 275.799 12.9555C275.073 12.4222 274.711 11.7502 274.711 10.9395C274.711 10.6622 274.753 10.3955 274.839 10.1395C274.455 10.0329 274.113 9.97953 273.815 9.97953C273.281 9.97953 272.833 10.1075 272.471 10.3635C272.129 10.6195 271.969 10.9822 271.991 11.4515C271.991 12.0062 272.268 12.4755 272.823 12.8595C273.377 13.2435 274.273 13.7235 275.511 14.2995C276.577 14.7689 277.452 15.2062 278.135 15.6115C278.839 15.9955 279.425 16.4862 279.895 17.0835C280.385 17.6809 280.631 18.3849 280.631 19.1955C280.631 19.3662 280.588 19.6862 280.503 20.1555C280.161 21.5849 279.212 22.7155 277.655 23.5475C276.097 24.3795 274.049 24.7955 271.511 24.7955C268.652 24.7955 266.38 24.4115 264.695 23.6435C263.031 22.8755 262.199 21.8195 262.199 20.4755C262.199 19.5582 262.476 18.8649 263.031 18.3955C263.585 17.9262 264.321 17.6915 265.239 17.6915C266.305 17.6915 267.212 18.0222 267.959 18.6835C268.727 19.3449 269.111 20.1875 269.111 21.2115C269.111 21.4889 269.079 21.7769 269.015 22.0755C269.527 22.2035 270.017 22.2675 270.487 22.2675C271.041 22.2675 271.5 22.1182 271.863 21.8195C272.225 21.5209 272.407 21.1049 272.407 20.5715C272.385 20.0809 272.14 19.6649 271.671 19.3235C271.201 18.9609 270.455 18.5342 269.431 18.0435C268.471 17.5955 267.681 17.1795 267.063 16.7955C266.444 16.3902 265.911 15.8889 265.463 15.2915C265.036 14.6942 264.823 13.9902 264.823 13.1795C264.823 11.4302 265.548 10.0435 266.999 9.01953C268.471 7.9742 270.551 7.45153 273.239 7.45153Z"/>
</mask>
<path d="M26.315 9.85153C25.9736 11.0889 25.3336 12.0595 24.395 12.7635C23.4563 13.4462 22.2723 13.8729 20.843 14.0435C21.867 14.1289 22.635 14.4275 23.147 14.9395C23.659 15.4515 23.915 16.1235 23.915 16.9555C23.915 17.2755 23.8616 17.6702 23.755 18.1395L23.403 19.7075C23.3603 19.9209 23.339 20.0702 23.339 20.1555C23.339 20.4329 23.403 20.6462 23.531 20.7955C23.659 20.9235 23.8403 20.9875 24.075 20.9875C24.523 20.9875 24.843 21.0515 25.035 21.1795C25.2483 21.3075 25.323 21.5422 25.259 21.8835C25.1736 22.3742 24.9176 22.8542 24.491 23.3235C24.0643 23.7929 23.4563 24.1875 22.667 24.5075C21.899 24.8062 20.9603 24.9555 19.851 24.9555C18.443 24.9555 17.323 24.6462 16.491 24.0275C15.659 23.3875 15.243 22.4809 15.243 21.3075C15.243 20.8595 15.307 20.3795 15.435 19.8675L15.947 17.8195C16.0323 17.5422 16.075 17.2542 16.075 16.9555C16.075 16.4649 15.9043 16.1129 15.563 15.8995C15.243 15.6862 14.7203 15.5795 13.995 15.5795H12.779L11.307 20.8915C11.2643 21.0195 11.243 21.1795 11.243 21.3715C11.243 21.6702 11.3176 21.9262 11.467 22.1395C11.6163 22.3529 11.819 22.5769 12.075 22.8115C12.267 22.9609 12.4163 23.1102 12.523 23.2595C12.6296 23.3875 12.683 23.5262 12.683 23.6755C12.683 24.0382 12.5123 24.2942 12.171 24.4435C11.8296 24.5929 11.3283 24.6675 10.667 24.6675H2.63497C2.0803 24.6675 1.6643 24.5715 1.38697 24.3795C1.10963 24.1662 1.01363 23.8782 1.09897 23.5155C1.14163 23.3235 1.22697 23.1742 1.35497 23.0675C1.46163 22.9395 1.6323 22.8009 1.86697 22.6515C2.22963 22.4382 2.51763 22.2142 2.73097 21.9795C2.9443 21.7449 3.11497 21.3822 3.24297 20.8915L7.14697 7.09953C7.2323 6.8222 7.27497 6.55553 7.27497 6.29953C7.27497 6.06486 7.2323 5.87286 7.14697 5.72353C7.08297 5.55286 6.98697 5.36086 6.85897 5.14753C6.66697 4.8702 6.57097 4.6462 6.57097 4.47553C6.57097 4.41153 6.5923 4.2942 6.63497 4.12353C6.7203 3.8462 6.90163 3.6542 7.17897 3.54753C7.47763 3.41953 7.92563 3.35553 8.52297 3.35553H19.243C20.715 3.35553 21.995 3.57953 23.083 4.02753C24.1923 4.47553 25.035 5.0942 25.611 5.88353C26.2083 6.65153 26.507 7.5262 26.507 8.50753C26.507 8.95553 26.443 9.40353 26.315 9.85153ZM18.123 9.53153C18.2296 9.04086 18.283 8.66753 18.283 8.41153C18.283 7.28086 17.6643 6.71553 16.427 6.71553H15.083L13.675 12.3795H15.019C15.851 12.3795 16.5016 12.1769 16.971 11.7715C17.4616 11.3662 17.8456 10.6195 18.123 9.53153Z" stroke="white" stroke-width="2.5" mask="url(#path-1-outside-1_538_1116)"/>
<path d="M36.9962 7.57953C39.7055 7.57953 41.6682 8.01686 42.8842 8.89153C44.1002 9.74486 44.7082 10.8435 44.7082 12.1875C44.7082 12.5929 44.6655 12.9662 44.5802 13.3075C44.2602 14.7155 43.3642 15.7289 41.8922 16.3475C40.4415 16.9449 38.7242 17.2435 36.7402 17.2435C35.7375 17.2435 34.7989 17.1795 33.9242 17.0515C33.9029 18.1609 34.2016 18.9395 34.8202 19.3875C35.4389 19.8355 36.3029 20.0595 37.4122 20.0595C37.9242 20.0595 38.4149 20.0062 38.8842 19.8995C39.3535 19.7715 39.9509 19.5902 40.6762 19.3555C41.2735 19.1422 41.6789 19.0355 41.8922 19.0355C42.1269 19.0355 42.2442 19.1742 42.2442 19.4515C42.2655 20.1982 41.9882 20.9875 41.4122 21.8195C40.8362 22.6302 39.9829 23.3235 38.8522 23.8995C37.7215 24.4755 36.3562 24.7635 34.7562 24.7635C32.3882 24.7635 30.4469 24.1662 28.9322 22.9715C27.4175 21.7769 26.6602 20.0382 26.6602 17.7555C26.6602 17.1155 26.7455 16.3689 26.9162 15.5155C27.4495 12.8915 28.6122 10.9182 30.4042 9.59553C32.2175 8.25153 34.4149 7.57953 36.9962 7.57953ZM34.1482 15.1315C34.2335 15.1529 34.3509 15.1635 34.5002 15.1635C35.3962 15.1635 36.0789 14.7475 36.5482 13.9155C37.0176 13.0835 37.2415 12.1555 37.2202 11.1315C37.1989 10.5342 37.0282 10.2355 36.7082 10.2355C36.4736 10.2355 36.1962 10.4275 35.8762 10.8115C35.5562 11.1742 35.2362 11.7289 34.9162 12.4755C34.6176 13.2222 34.3616 14.1075 34.1482 15.1315Z" stroke="white" stroke-width="2.5" mask="url(#path-1-outside-1_538_1116)"/>
<path d="M61.9425 20.0595C61.8998 20.2302 61.8785 20.3475 61.8785 20.4115C61.8785 20.5609 61.9211 20.6782 62.0065 20.7635C62.0918 20.8489 62.1985 20.8915 62.3265 20.8915C62.5825 20.8915 62.7958 20.7849 62.9665 20.5715C63.1585 20.3369 63.2865 20.2195 63.3505 20.2195C63.4571 20.2195 63.5425 20.2942 63.6065 20.4435C63.6705 20.5929 63.7025 20.7635 63.7025 20.9555C63.7238 21.5315 63.4998 22.1182 63.0305 22.7155C62.5825 23.3129 61.9745 23.8035 61.2065 24.1875C60.4385 24.5715 59.6065 24.7635 58.7105 24.7635C57.6438 24.7635 56.7158 24.5609 55.9265 24.1555C55.1371 23.7502 54.5931 23.2169 54.2945 22.5555C53.7185 23.3022 53.0571 23.8569 52.3105 24.2195C51.5638 24.5822 50.7745 24.7635 49.9425 24.7635C48.9611 24.7635 48.0438 24.5182 47.1905 24.0275C46.3585 23.5369 45.6865 22.8435 45.1745 21.9475C44.6838 21.0302 44.4385 19.9955 44.4385 18.8435C44.4385 16.9022 44.8011 15.0782 45.5265 13.3715C46.2731 11.6435 47.3078 10.2569 48.6305 9.21153C49.9531 8.14486 51.4571 7.61153 53.1425 7.61153C54.0598 7.61153 54.8385 7.7182 55.4785 7.93153C56.1398 8.14487 56.7371 8.46486 57.2705 8.89153L58.3585 5.30753C58.4225 5.11553 58.4545 4.95553 58.4545 4.82753C58.4545 4.59286 58.3905 4.40086 58.2625 4.25153C58.1558 4.1022 58.0065 3.95286 57.8145 3.80353C57.6011 3.63286 57.4411 3.48353 57.3345 3.35553C57.2491 3.22753 57.2385 3.05686 57.3025 2.84353C57.4305 2.35286 58.1025 1.9262 59.3185 1.56353C60.5345 1.20086 61.8038 1.01953 63.1265 1.01953C64.3638 1.01953 65.2705 1.2542 65.8465 1.72353C66.4438 2.19286 66.7425 2.83286 66.7425 3.64353C66.7425 4.11286 66.6678 4.57153 66.5185 5.01953L61.9425 20.0595ZM56.5985 11.0675C56.2571 10.7689 55.8838 10.6195 55.4785 10.6195C54.8598 10.6195 54.2518 11.0782 53.6545 11.9955C53.0571 12.9129 52.5771 14.0222 52.2145 15.3235C51.8518 16.6249 51.6811 17.7982 51.7025 18.8435C51.7025 20.0169 52.0865 20.6035 52.8545 20.6035C53.1318 20.6035 53.3665 20.4969 53.5585 20.2835C53.7505 20.0489 53.9318 19.6755 54.1025 19.1635L56.5985 11.0675Z" stroke="white" stroke-width="2.5" mask="url(#path-1-outside-1_538_1116)"/>
<path d="M89.7655 16.4115C90.3628 16.4115 90.8108 16.5395 91.1095 16.7955C91.4295 17.0302 91.5895 17.3715 91.5895 17.8195C91.5895 18.0115 91.5575 18.2249 91.4935 18.4595L90.4375 22.2035C90.1601 23.1209 89.7655 23.7609 89.2535 24.1235C88.7628 24.4862 88.0268 24.6675 87.0455 24.6675H72.0055C71.5575 24.6675 71.2161 24.5929 70.9815 24.4435C70.7255 24.2942 70.5975 24.0915 70.5975 23.8355C70.5975 23.7075 70.6295 23.5689 70.6935 23.4195C70.7575 23.2489 70.8641 23.1102 71.0135 23.0035C71.1628 22.8755 71.3228 22.7582 71.4935 22.6515C71.8348 22.4382 72.1121 22.2249 72.3255 22.0115C72.5388 21.7769 72.7201 21.4035 72.8695 20.8915L76.7735 7.09953C76.8588 6.8222 76.9015 6.55553 76.9015 6.29953C76.9015 6.06486 76.8588 5.87286 76.7735 5.72353C76.7095 5.55286 76.6135 5.36086 76.4855 5.14753C76.2935 4.8702 76.1975 4.6462 76.1975 4.47553C76.1975 4.41153 76.2188 4.2942 76.2615 4.12353C76.3468 3.8462 76.5281 3.6542 76.8055 3.54753C77.1041 3.41953 77.5521 3.35553 78.1495 3.35553H85.6695C86.1175 3.35553 86.4588 3.4302 86.6935 3.57953C86.9495 3.70753 87.0775 3.89953 87.0775 4.15553C87.0775 4.2622 87.0455 4.40086 86.9815 4.57153C86.9175 4.72086 86.8215 4.85953 86.6935 4.98753C86.5868 5.0942 86.4801 5.17953 86.3735 5.24353C86.2881 5.2862 86.2241 5.32886 86.1815 5.37153C85.8401 5.56353 85.5628 5.77686 85.3495 6.01153C85.1361 6.2462 84.9548 6.60886 84.8055 7.09953L80.6775 21.5955H82.6615C83.1521 21.5955 83.5681 21.5102 83.9095 21.3395C84.2721 21.1689 84.6455 20.8489 85.0295 20.3795L87.2375 17.7555C87.6428 17.2862 88.0268 16.9449 88.3895 16.7315C88.7735 16.5182 89.2321 16.4115 89.7655 16.4115Z" stroke="white" stroke-width="2.5" mask="url(#path-1-outside-1_538_1116)"/>
<path d="M103.697 7.73953C106.151 7.73953 108.113 8.1982 109.585 9.11553C111.057 10.0115 111.793 11.3875 111.793 13.2435C111.793 13.9475 111.665 14.7475 111.409 15.6435L110.097 20.0595C110.076 20.1449 110.065 20.2515 110.065 20.3795C110.065 20.7209 110.204 20.8915 110.481 20.8915C110.737 20.8915 110.951 20.7849 111.121 20.5715C111.313 20.3369 111.441 20.2195 111.505 20.2195C111.612 20.2195 111.697 20.2942 111.761 20.4435C111.847 20.5929 111.889 20.7635 111.889 20.9555C111.911 21.5315 111.687 22.1182 111.217 22.7155C110.769 23.3129 110.161 23.8035 109.393 24.1875C108.625 24.5715 107.783 24.7635 106.865 24.7635C105.756 24.7635 104.807 24.5609 104.017 24.1555C103.228 23.7502 102.684 23.1529 102.385 22.3635C101.745 23.1315 100.988 23.7289 100.113 24.1555C99.2385 24.5609 98.2999 24.7635 97.2972 24.7635C96.1666 24.7635 95.2172 24.5502 94.4492 24.1235C93.6812 23.6755 93.1052 23.1102 92.7212 22.4275C92.3585 21.7235 92.1772 20.9875 92.1772 20.2195C92.1772 19.8782 92.2092 19.5475 92.2732 19.2275C92.6145 17.7555 93.3505 16.6462 94.4812 15.8995C95.6332 15.1529 96.9986 14.7795 98.5772 14.7795C100.348 14.7795 102.087 15.0569 103.793 15.6115L104.593 13.4995C104.871 12.6035 105.009 11.9102 105.009 11.4195C104.988 10.9075 104.817 10.5235 104.497 10.2675C104.177 10.0115 103.687 9.88353 103.025 9.88353C103.153 10.2249 103.217 10.5769 103.217 10.9395C103.217 11.7289 102.919 12.4115 102.321 12.9875C101.724 13.5635 100.871 13.8515 99.7612 13.8515C98.7159 13.8515 97.8946 13.6275 97.2972 13.1795C96.7212 12.7102 96.4332 12.1342 96.4332 11.4515C96.4332 10.3849 97.0305 9.49953 98.2252 8.79553C99.4199 8.09153 101.244 7.73953 103.697 7.73953ZM101.905 17.4355C101.308 17.4355 100.817 17.6702 100.433 18.1395C100.071 18.5875 99.8892 19.0782 99.8892 19.6115C99.8892 19.9529 99.9639 20.2302 100.113 20.4435C100.284 20.6569 100.519 20.7635 100.817 20.7635C101.095 20.7635 101.393 20.6569 101.713 20.4435C102.055 20.2089 102.3 19.8675 102.449 19.4195L103.121 17.5315C102.759 17.4675 102.353 17.4355 101.905 17.4355Z" stroke="white" stroke-width="2.5" mask="url(#path-1-outside-1_538_1116)"/>
<path d="M133.019 20.2515C132.976 20.3369 132.955 20.4649 132.955 20.6355C132.955 20.7849 132.987 20.9022 133.051 20.9875C133.136 21.0729 133.243 21.1155 133.371 21.1155C133.627 21.1155 133.84 21.0089 134.011 20.7955C134.203 20.5609 134.331 20.4435 134.395 20.4435C134.501 20.4435 134.587 20.5182 134.651 20.6675C134.715 20.7955 134.747 20.9555 134.747 21.1475C134.768 21.7662 134.565 22.3742 134.139 22.9715C133.712 23.5475 133.083 24.0275 132.251 24.4115C131.44 24.7742 130.459 24.9555 129.307 24.9555C127.899 24.9555 126.779 24.6355 125.947 23.9955C125.115 23.3342 124.688 22.4595 124.667 21.3715C124.667 20.5822 124.859 19.6969 125.243 18.7155L127.003 14.1075C127.109 13.8302 127.163 13.6062 127.163 13.4355C127.163 13.1582 127.067 12.9449 126.875 12.7955C126.704 12.6249 126.491 12.5395 126.235 12.5395C125.765 12.5395 125.317 12.7635 124.891 13.2115C124.464 13.6382 124.155 14.1715 123.963 14.8115L121.979 21.3395C121.893 21.5742 121.851 21.7982 121.851 22.0115C121.851 22.2675 121.904 22.4809 122.011 22.6515C122.117 22.8009 122.267 22.9609 122.459 23.1315C122.608 23.2595 122.715 23.3769 122.779 23.4835C122.843 23.5902 122.853 23.7182 122.811 23.8675C122.725 24.1449 122.523 24.3475 122.203 24.4755C121.883 24.6035 121.381 24.6675 120.699 24.6675H113.403C112.848 24.6675 112.453 24.5822 112.219 24.4115C111.963 24.2195 111.867 23.9742 111.931 23.6755C112.016 23.4195 112.24 23.1955 112.603 23.0035C112.923 22.8329 113.189 22.6302 113.403 22.3955C113.616 22.1609 113.797 21.7875 113.947 21.2755L116.795 12.0275C116.837 11.9209 116.859 11.7715 116.859 11.5795C116.859 11.3449 116.805 11.1635 116.699 11.0355C116.613 10.9075 116.464 10.7475 116.251 10.5555C116.037 10.3849 115.888 10.2355 115.803 10.1075C115.717 9.97953 115.707 9.80886 115.771 9.59553C115.899 9.10486 116.571 8.6782 117.787 8.31553C119.003 7.93153 120.272 7.73953 121.595 7.73953C122.661 7.73953 123.504 8.0382 124.123 8.63553C124.741 9.21153 125.019 10.0222 124.955 11.0675C125.829 9.80886 126.757 8.94486 127.739 8.47553C128.72 7.98486 129.787 7.73953 130.939 7.73953C132.24 7.73953 133.285 8.1342 134.075 8.92353C134.885 9.71286 135.291 10.7369 135.291 11.9955C135.291 12.6569 135.184 13.3075 134.971 13.9475L133.019 20.2515Z" stroke="white" stroke-width="2.5" mask="url(#path-1-outside-1_538_1116)"/>
<path d="M154.005 20.0595C153.962 20.2302 153.941 20.3475 153.941 20.4115C153.941 20.5609 153.984 20.6782 154.069 20.7635C154.154 20.8489 154.261 20.8915 154.389 20.8915C154.645 20.8915 154.858 20.7849 155.029 20.5715C155.221 20.3369 155.349 20.2195 155.413 20.2195C155.52 20.2195 155.605 20.2942 155.669 20.4435C155.733 20.5929 155.765 20.7635 155.765 20.9555C155.786 21.5315 155.562 22.1182 155.093 22.7155C154.645 23.3129 154.037 23.8035 153.269 24.1875C152.501 24.5715 151.669 24.7635 150.773 24.7635C149.706 24.7635 148.778 24.5609 147.989 24.1555C147.2 23.7502 146.656 23.2169 146.357 22.5555C145.781 23.3022 145.12 23.8569 144.373 24.2195C143.626 24.5822 142.837 24.7635 142.005 24.7635C141.024 24.7635 140.106 24.5182 139.253 24.0275C138.421 23.5369 137.749 22.8435 137.237 21.9475C136.746 21.0302 136.501 19.9955 136.501 18.8435C136.501 16.9022 136.864 15.0782 137.589 13.3715C138.336 11.6435 139.37 10.2569 140.693 9.21153C142.016 8.14486 143.52 7.61153 145.205 7.61153C146.122 7.61153 146.901 7.7182 147.541 7.93153C148.202 8.14487 148.8 8.46486 149.333 8.89153L150.421 5.30753C150.485 5.11553 150.517 4.95553 150.517 4.82753C150.517 4.59286 150.453 4.40086 150.325 4.25153C150.218 4.1022 150.069 3.95286 149.877 3.80353C149.664 3.63286 149.504 3.48353 149.397 3.35553C149.312 3.22753 149.301 3.05686 149.365 2.84353C149.493 2.35286 150.165 1.9262 151.381 1.56353C152.597 1.20086 153.866 1.01953 155.189 1.01953C156.426 1.01953 157.333 1.2542 157.909 1.72353C158.506 2.19286 158.805 2.83286 158.805 3.64353C158.805 4.11286 158.73 4.57153 158.581 5.01953L154.005 20.0595ZM148.661 11.0675C148.32 10.7689 147.946 10.6195 147.541 10.6195C146.922 10.6195 146.314 11.0782 145.717 11.9955C145.12 12.9129 144.64 14.0222 144.277 15.3235C143.914 16.6249 143.744 17.7982 143.765 18.8435C143.765 20.0169 144.149 20.6035 144.917 20.6035C145.194 20.6035 145.429 20.4969 145.621 20.2835C145.813 20.0489 145.994 19.6755 146.165 19.1635L148.661 11.0675Z" stroke="white" stroke-width="2.5" mask="url(#path-1-outside-1_538_1116)"/>
<path d="M165.707 7.45153C167.478 7.45153 169.003 7.61153 170.283 7.93153C171.585 8.25153 172.577 8.69953 173.259 9.27553C173.963 9.85153 174.315 10.5022 174.315 11.2275C174.315 11.9742 174.017 12.5822 173.419 13.0515C172.843 13.5209 172.033 13.7555 170.987 13.7555C169.921 13.7555 169.014 13.4889 168.267 12.9555C167.542 12.4222 167.179 11.7502 167.179 10.9395C167.179 10.6622 167.222 10.3955 167.307 10.1395C166.923 10.0329 166.582 9.97953 166.283 9.97953C165.75 9.97953 165.302 10.1075 164.939 10.3635C164.598 10.6195 164.438 10.9822 164.459 11.4515C164.459 12.0062 164.737 12.4755 165.291 12.8595C165.846 13.2435 166.742 13.7235 167.979 14.2995C169.046 14.7689 169.921 15.2062 170.603 15.6115C171.307 15.9955 171.894 16.4862 172.363 17.0835C172.854 17.6809 173.099 18.3849 173.099 19.1955C173.099 19.3662 173.057 19.6862 172.971 20.1555C172.63 21.5849 171.681 22.7155 170.123 23.5475C168.566 24.3795 166.518 24.7955 163.979 24.7955C161.121 24.7955 158.849 24.4115 157.163 23.6435C155.499 22.8755 154.667 21.8195 154.667 20.4755C154.667 19.5582 154.945 18.8649 155.499 18.3955C156.054 17.9262 156.79 17.6915 157.707 17.6915C158.774 17.6915 159.681 18.0222 160.427 18.6835C161.195 19.3449 161.579 20.1875 161.579 21.2115C161.579 21.4889 161.547 21.7769 161.483 22.0755C161.995 22.2035 162.486 22.2675 162.955 22.2675C163.51 22.2675 163.969 22.1182 164.331 21.8195C164.694 21.5209 164.875 21.1049 164.875 20.5715C164.854 20.0809 164.609 19.6649 164.139 19.3235C163.67 18.9609 162.923 18.5342 161.899 18.0435C160.939 17.5955 160.15 17.1795 159.531 16.7955C158.913 16.3902 158.379 15.8889 157.931 15.2915C157.505 14.6942 157.291 13.9902 157.291 13.1795C157.291 11.4302 158.017 10.0435 159.467 9.01953C160.939 7.9742 163.019 7.45153 165.707 7.45153Z" stroke="white" stroke-width="2.5" mask="url(#path-1-outside-1_538_1116)"/>
<path d="M205.002 9.85153C204.661 11.0889 204.021 12.0595 203.082 12.7635C202.144 13.4462 200.96 13.8729 199.53 14.0435C200.554 14.1289 201.322 14.4275 201.834 14.9395C202.346 15.4515 202.602 16.1235 202.602 16.9555C202.602 17.2755 202.549 17.6702 202.442 18.1395L202.09 19.7075C202.048 19.9209 202.026 20.0702 202.026 20.1555C202.026 20.4329 202.09 20.6462 202.218 20.7955C202.346 20.9235 202.528 20.9875 202.762 20.9875C203.21 20.9875 203.53 21.0515 203.722 21.1795C203.936 21.3075 204.01 21.5422 203.946 21.8835C203.861 22.3742 203.605 22.8542 203.178 23.3235C202.752 23.7929 202.144 24.1875 201.354 24.5075C200.586 24.8062 199.648 24.9555 198.538 24.9555C197.13 24.9555 196.01 24.6462 195.178 24.0275C194.346 23.3875 193.93 22.4809 193.93 21.3075C193.93 20.8595 193.994 20.3795 194.122 19.8675L194.634 17.8195C194.72 17.5422 194.762 17.2542 194.762 16.9555C194.762 16.4649 194.592 16.1129 194.25 15.8995C193.93 15.6862 193.408 15.5795 192.682 15.5795H191.466L189.994 20.8915C189.952 21.0195 189.93 21.1795 189.93 21.3715C189.93 21.6702 190.005 21.9262 190.154 22.1395C190.304 22.3529 190.506 22.5769 190.762 22.8115C190.954 22.9609 191.104 23.1102 191.21 23.2595C191.317 23.3875 191.37 23.5262 191.37 23.6755C191.37 24.0382 191.2 24.2942 190.858 24.4435C190.517 24.5929 190.016 24.6675 189.354 24.6675H181.322C180.768 24.6675 180.352 24.5715 180.074 24.3795C179.797 24.1662 179.701 23.8782 179.786 23.5155C179.829 23.3235 179.914 23.1742 180.042 23.0675C180.149 22.9395 180.32 22.8009 180.554 22.6515C180.917 22.4382 181.205 22.2142 181.418 21.9795C181.632 21.7449 181.802 21.3822 181.93 20.8915L185.834 7.09953C185.92 6.8222 185.962 6.55553 185.962 6.29953C185.962 6.06486 185.92 5.87286 185.834 5.72353C185.77 5.55286 185.674 5.36086 185.546 5.14753C185.354 4.8702 185.258 4.6462 185.258 4.47553C185.258 4.41153 185.28 4.2942 185.322 4.12353C185.408 3.8462 185.589 3.6542 185.866 3.54753C186.165 3.41953 186.613 3.35553 187.21 3.35553H197.93C199.402 3.35553 200.682 3.57953 201.77 4.02753C202.88 4.47553 203.722 5.0942 204.298 5.88353C204.896 6.65153 205.194 7.5262 205.194 8.50753C205.194 8.95553 205.13 9.40353 205.002 9.85153ZM196.81 9.53153C196.917 9.04086 196.97 8.66753 196.97 8.41153C196.97 7.28086 196.352 6.71553 195.114 6.71553H193.77L192.362 12.3795H193.706C194.538 12.3795 195.189 12.1769 195.658 11.7715C196.149 11.3662 196.533 10.6195 196.81 9.53153Z" stroke="white" stroke-width="2.5" mask="url(#path-1-outside-1_538_1116)"/>
<path d="M217.22 7.73953C220.121 7.73953 222.254 8.3262 223.62 9.49953C225.006 10.6729 225.7 12.2089 225.7 14.1075C225.7 14.7475 225.614 15.4622 225.444 16.2515C225.038 18.0009 224.281 19.5369 223.172 20.8595C222.062 22.1609 220.697 23.1742 219.076 23.8995C217.476 24.6035 215.737 24.9555 213.86 24.9555C210.894 24.9555 208.697 24.3689 207.268 23.1955C205.86 22.0009 205.156 20.4222 205.156 18.4595C205.156 17.7982 205.241 17.0622 205.412 16.2515C205.817 14.5875 206.585 13.1155 207.716 11.8355C208.868 10.5342 210.265 9.53153 211.908 8.82753C213.572 8.1022 215.342 7.73953 217.22 7.73953ZM217.124 10.5875C216.676 10.5875 216.196 10.9929 215.684 11.8035C215.193 12.5929 214.606 14.0969 213.924 16.3155C213.241 18.5342 212.9 20.0915 212.9 20.9875C212.9 21.4569 212.974 21.7769 213.124 21.9475C213.273 22.0969 213.476 22.1715 213.732 22.1715C214.18 22.2142 214.638 21.8302 215.108 21.0195C215.598 20.2089 216.206 18.6302 216.932 16.2835C217.593 14.2142 217.924 12.7102 217.924 11.7715C217.924 11.3235 217.849 11.0142 217.7 10.8435C217.572 10.6729 217.38 10.5875 217.124 10.5875Z" stroke="white" stroke-width="2.5" mask="url(#path-1-outside-1_538_1116)"/>
<path d="M236.364 7.45153C238.134 7.45153 239.66 7.61153 240.94 7.93153C242.241 8.25153 243.233 8.69953 243.916 9.27553C244.62 9.85153 244.972 10.5022 244.972 11.2275C244.972 11.9742 244.673 12.5822 244.076 13.0515C243.5 13.5209 242.689 13.7555 241.644 13.7555C240.577 13.7555 239.67 13.4889 238.924 12.9555C238.198 12.4222 237.836 11.7502 237.836 10.9395C237.836 10.6622 237.878 10.3955 237.964 10.1395C237.58 10.0329 237.238 9.97953 236.94 9.97953C236.406 9.97953 235.958 10.1075 235.596 10.3635C235.254 10.6195 235.094 10.9822 235.116 11.4515C235.116 12.0062 235.393 12.4755 235.948 12.8595C236.502 13.2435 237.398 13.7235 238.636 14.2995C239.702 14.7689 240.577 15.2062 241.26 15.6115C241.964 15.9955 242.55 16.4862 243.02 17.0835C243.51 17.6809 243.756 18.3849 243.756 19.1955C243.756 19.3662 243.713 19.6862 243.628 20.1555C243.286 21.5849 242.337 22.7155 240.78 23.5475C239.222 24.3795 237.174 24.7955 234.636 24.7955C231.777 24.7955 229.505 24.4115 227.82 23.6435C226.156 22.8755 225.324 21.8195 225.324 20.4755C225.324 19.5582 225.601 18.8649 226.156 18.3955C226.71 17.9262 227.446 17.6915 228.364 17.6915C229.43 17.6915 230.337 18.0222 231.084 18.6835C231.852 19.3449 232.236 20.1875 232.236 21.2115C232.236 21.4889 232.204 21.7769 232.14 22.0755C232.652 22.2035 233.142 22.2675 233.612 22.2675C234.166 22.2675 234.625 22.1182 234.988 21.8195C235.35 21.5209 235.532 21.1049 235.532 20.5715C235.51 20.0809 235.265 19.6649 234.796 19.3235C234.326 18.9609 233.58 18.5342 232.556 18.0435C231.596 17.5955 230.806 17.1795 230.188 16.7955C229.569 16.3902 229.036 15.8889 228.588 15.2915C228.161 14.6942 227.948 13.9902 227.948 13.1795C227.948 11.4302 228.673 10.0435 230.124 9.01953C231.596 7.9742 233.676 7.45153 236.364 7.45153Z" stroke="white" stroke-width="2.5" mask="url(#path-1-outside-1_538_1116)"/>
<path d="M255.652 7.57953C258.362 7.57953 260.324 8.01686 261.54 8.89153C262.756 9.74486 263.364 10.8435 263.364 12.1875C263.364 12.5929 263.322 12.9662 263.236 13.3075C262.916 14.7155 262.02 15.7289 260.548 16.3475C259.098 16.9449 257.38 17.2435 255.396 17.2435C254.394 17.2435 253.455 17.1795 252.58 17.0515C252.559 18.1609 252.858 18.9395 253.476 19.3875C254.095 19.8355 254.959 20.0595 256.068 20.0595C256.58 20.0595 257.071 20.0062 257.54 19.8995C258.01 19.7715 258.607 19.5902 259.332 19.3555C259.93 19.1422 260.335 19.0355 260.548 19.0355C260.783 19.0355 260.9 19.1742 260.9 19.4515C260.922 20.1982 260.644 20.9875 260.068 21.8195C259.492 22.6302 258.639 23.3235 257.508 23.8995C256.378 24.4755 255.012 24.7635 253.412 24.7635C251.044 24.7635 249.103 24.1662 247.588 22.9715C246.074 21.7769 245.316 20.0382 245.316 17.7555C245.316 17.1155 245.402 16.3689 245.572 15.5155C246.106 12.8915 247.268 10.9182 249.06 9.59553C250.874 8.25153 253.071 7.57953 255.652 7.57953ZM252.804 15.1315C252.89 15.1529 253.007 15.1635 253.156 15.1635C254.052 15.1635 254.735 14.7475 255.204 13.9155C255.674 13.0835 255.898 12.1555 255.876 11.1315C255.855 10.5342 255.684 10.2355 255.364 10.2355C255.13 10.2355 254.852 10.4275 254.532 10.8115C254.212 11.1742 253.892 11.7289 253.572 12.4755C253.274 13.2222 253.018 14.1075 252.804 15.1315Z" stroke="white" stroke-width="2.5" mask="url(#path-1-outside-1_538_1116)"/>
<path d="M273.239 7.45153C275.009 7.45153 276.535 7.61153 277.815 7.93153C279.116 8.25153 280.108 8.69953 280.791 9.27553C281.495 9.85153 281.847 10.5022 281.847 11.2275C281.847 11.9742 281.548 12.5822 280.951 13.0515C280.375 13.5209 279.564 13.7555 278.519 13.7555C277.452 13.7555 276.545 13.4889 275.799 12.9555C275.073 12.4222 274.711 11.7502 274.711 10.9395C274.711 10.6622 274.753 10.3955 274.839 10.1395C274.455 10.0329 274.113 9.97953 273.815 9.97953C273.281 9.97953 272.833 10.1075 272.471 10.3635C272.129 10.6195 271.969 10.9822 271.991 11.4515C271.991 12.0062 272.268 12.4755 272.823 12.8595C273.377 13.2435 274.273 13.7235 275.511 14.2995C276.577 14.7689 277.452 15.2062 278.135 15.6115C278.839 15.9955 279.425 16.4862 279.895 17.0835C280.385 17.6809 280.631 18.3849 280.631 19.1955C280.631 19.3662 280.588 19.6862 280.503 20.1555C280.161 21.5849 279.212 22.7155 277.655 23.5475C276.097 24.3795 274.049 24.7955 271.511 24.7955C268.652 24.7955 266.38 24.4115 264.695 23.6435C263.031 22.8755 262.199 21.8195 262.199 20.4755C262.199 19.5582 262.476 18.8649 263.031 18.3955C263.585 17.9262 264.321 17.6915 265.239 17.6915C266.305 17.6915 267.212 18.0222 267.959 18.6835C268.727 19.3449 269.111 20.1875 269.111 21.2115C269.111 21.4889 269.079 21.7769 269.015 22.0755C269.527 22.2035 270.017 22.2675 270.487 22.2675C271.041 22.2675 271.5 22.1182 271.863 21.8195C272.225 21.5209 272.407 21.1049 272.407 20.5715C272.385 20.0809 272.14 19.6649 271.671 19.3235C271.201 18.9609 270.455 18.5342 269.431 18.0435C268.471 17.5955 267.681 17.1795 267.063 16.7955C266.444 16.3902 265.911 15.8889 265.463 15.2915C265.036 14.6942 264.823 13.9902 264.823 13.1795C264.823 11.4302 265.548 10.0435 266.999 9.01953C268.471 7.9742 270.551 7.45153 273.239 7.45153Z" stroke="white" stroke-width="2.5" mask="url(#path-1-outside-1_538_1116)"/>
</svg>
