<svg width="114" height="27" viewBox="0 0 114 27" fill="none" xmlns="http://www.w3.org/2000/svg">
<mask id="path-1-outside-1_538_1115" maskUnits="userSpaceOnUse" x="0.747803" y="0.6875" width="113" height="26" fill="black">
<rect fill="white" x="0.747803" y="0.6875" width="113" height="26"/>
<path d="M11.2518 25.5275C9.4598 25.5275 7.84914 25.1968 6.4198 24.5355C4.99047 23.8742 3.84914 22.9035 2.9958 21.6235C2.1638 20.3222 1.7478 18.7542 1.7478 16.9195C1.7478 15.6395 1.9718 14.2528 2.4198 12.7595C3.40114 9.5595 4.8838 7.2555 6.8678 5.8475C8.8518 4.41817 10.9745 3.7035 13.2358 3.7035C14.4518 3.7035 15.5291 3.88483 16.4678 4.2475C17.4065 4.61017 18.2705 5.13283 19.0598 5.8155L19.9238 5.1435C20.4998 4.6955 20.9798 4.38617 21.3638 4.2155C21.7691 4.04483 22.2171 3.9595 22.7078 3.9595C23.2411 3.9595 23.6678 4.07683 23.9878 4.3115C24.3078 4.54617 24.4678 4.8875 24.4678 5.3355C24.4678 5.57017 24.4251 5.80483 24.3398 6.0395L22.5478 11.0315C22.3558 11.6075 22.1211 12.0128 21.8438 12.2475C21.5878 12.4822 21.1931 12.5995 20.6598 12.5995C20.1051 12.5995 19.6465 12.4075 19.2838 12.0235C18.9425 11.6182 18.5478 10.9355 18.0998 9.9755C17.5878 8.97283 17.1718 8.3115 16.8518 7.9915C16.5318 7.6715 16.0625 7.5115 15.4438 7.5115C14.5691 7.5115 13.7265 8.0555 12.9158 9.1435C12.1051 10.2102 11.3691 11.8208 10.7078 13.9755C10.1531 15.7888 9.8758 17.3035 9.8758 18.5195C9.8758 19.5862 10.0785 20.3862 10.4838 20.9195C10.8891 21.4315 11.4331 21.6875 12.1158 21.6875C13.1185 21.6875 13.9398 21.4635 14.5798 21.0155C15.2411 20.5675 15.9131 19.9595 16.5958 19.1915C17.0225 18.7222 17.3638 18.3808 17.6198 18.1675C17.8971 17.9328 18.1851 17.8155 18.4838 17.8155C18.8678 17.8155 19.2731 18.0075 19.6998 18.3915C20.1265 18.7755 20.3291 19.1595 20.3078 19.5435C20.3291 20.0128 19.9451 20.7382 19.1558 21.7195C18.3878 22.7008 17.3105 23.5862 15.9238 24.3755C14.5585 25.1435 13.0011 25.5275 11.2518 25.5275Z"/>
<path d="M41.8881 20.9195C41.8454 21.0048 41.8241 21.1328 41.8241 21.3035C41.8241 21.4528 41.8561 21.5702 41.9201 21.6555C42.0054 21.7408 42.1121 21.7835 42.2401 21.7835C42.4961 21.7835 42.7094 21.6768 42.8801 21.4635C43.0721 21.2288 43.2001 21.1115 43.2641 21.1115C43.3707 21.1115 43.4561 21.1862 43.5201 21.3355C43.5841 21.4635 43.6161 21.6235 43.6161 21.8155C43.6374 22.4342 43.4347 23.0422 43.0081 23.6395C42.5814 24.2155 41.9521 24.6955 41.1201 25.0795C40.3094 25.4422 39.3281 25.6235 38.1761 25.6235C36.7681 25.6235 35.6481 25.3035 34.8161 24.6635C33.9841 24.0022 33.5574 23.1275 33.5361 22.0395C33.5361 21.2502 33.7281 20.3648 34.1121 19.3835L35.8721 14.7755C35.9787 14.4982 36.0321 14.2742 36.0321 14.1035C36.0321 13.8262 35.9361 13.6128 35.7441 13.4635C35.5734 13.2928 35.3601 13.2075 35.1041 13.2075C34.6987 13.2075 34.2827 13.3995 33.8561 13.7835C33.4507 14.1462 33.1201 14.7435 32.8641 15.5755V15.5115L30.8481 22.0075C30.7841 22.2635 30.7521 22.4875 30.7521 22.6795C30.7521 22.9568 30.8054 23.1808 30.9121 23.3515C31.0187 23.5008 31.1681 23.6502 31.3601 23.7995C31.5094 23.9488 31.6161 24.0768 31.6801 24.1835C31.7441 24.2688 31.7547 24.3862 31.7121 24.5355C31.6054 24.8128 31.3921 25.0155 31.0721 25.1435C30.7521 25.2715 30.2614 25.3355 29.6001 25.3355H22.3041C21.7494 25.3355 21.3441 25.2502 21.0881 25.0795C20.8321 24.8875 20.7467 24.6422 20.8321 24.3435C20.9174 24.0875 21.1414 23.8635 21.5041 23.6715C21.8241 23.5008 22.0907 23.2982 22.3041 23.0635C22.5174 22.8288 22.6987 22.4555 22.8481 21.9435L27.7121 5.9755C27.7761 5.7835 27.8081 5.6235 27.8081 5.4955C27.8081 5.26083 27.7441 5.06883 27.6161 4.9195C27.5094 4.77017 27.3601 4.62083 27.1681 4.4715C26.9547 4.30083 26.7947 4.1515 26.6881 4.0235C26.6027 3.8955 26.5921 3.72483 26.6561 3.5115C26.7841 3.02083 27.4561 2.59417 28.6721 2.2315C29.8881 1.86883 31.1574 1.6875 32.4801 1.6875C33.7174 1.6875 34.6241 1.92217 35.2001 2.3915C35.7974 2.86083 36.0961 3.50083 36.0961 4.3115C36.0961 4.78083 36.0214 5.2395 35.8721 5.6875L34.1441 11.3195C34.9761 10.2315 35.8507 9.47417 36.7681 9.0475C37.7067 8.62083 38.7201 8.4075 39.8081 8.4075C41.1094 8.4075 42.1547 8.80217 42.9441 9.5915C43.7547 10.3808 44.1601 11.4048 44.1601 12.6635C44.1601 13.3248 44.0534 13.9755 43.8401 14.6155L41.8881 20.9195Z"/>
<path d="M55.8388 8.2475C58.5481 8.2475 60.5108 8.68483 61.7268 9.5595C62.9428 10.4128 63.5508 11.5115 63.5508 12.8555C63.5508 13.2608 63.5081 13.6342 63.4228 13.9755C63.1028 15.3835 62.2068 16.3968 60.7348 17.0155C59.2841 17.6128 57.5668 17.9115 55.5828 17.9115C54.5801 17.9115 53.6415 17.8475 52.7668 17.7195C52.7455 18.8288 53.0441 19.6075 53.6628 20.0555C54.2815 20.5035 55.1455 20.7275 56.2548 20.7275C56.7668 20.7275 57.2575 20.6742 57.7268 20.5675C58.1961 20.4395 58.7935 20.2582 59.5188 20.0235C60.1161 19.8102 60.5215 19.7035 60.7348 19.7035C60.9695 19.7035 61.0868 19.8422 61.0868 20.1195C61.1081 20.8662 60.8308 21.6555 60.2548 22.4875C59.6788 23.2982 58.8255 23.9915 57.6948 24.5675C56.5641 25.1435 55.1988 25.4315 53.5988 25.4315C51.2308 25.4315 49.2895 24.8342 47.7748 23.6395C46.2601 22.4448 45.5028 20.7062 45.5028 18.4235C45.5028 17.7835 45.5881 17.0368 45.7588 16.1835C46.2921 13.5595 47.4548 11.5862 49.2468 10.2635C51.0601 8.9195 53.2575 8.2475 55.8388 8.2475ZM52.9908 15.7995C53.0761 15.8208 53.1935 15.8315 53.3428 15.8315C54.2388 15.8315 54.9215 15.4155 55.3908 14.5835C55.8601 13.7515 56.0841 12.8235 56.0628 11.7995C56.0415 11.2022 55.8708 10.9035 55.5508 10.9035C55.3161 10.9035 55.0388 11.0955 54.7188 11.4795C54.3988 11.8422 54.0788 12.3968 53.7588 13.1435C53.4601 13.8902 53.2041 14.7755 52.9908 15.7995Z"/>
<path d="M92.9451 12.9515C92.9451 14.8502 92.2837 16.7915 90.9611 18.7755C89.6384 20.7595 87.9637 22.4022 85.937 23.7035C83.9317 24.9835 81.9584 25.6235 80.0171 25.6235C78.4811 25.6235 77.1797 25.3568 76.1131 24.8235C75.0464 24.2902 74.3531 23.5222 74.0331 22.5195C73.2437 23.4795 72.3691 24.2048 71.409 24.6955C70.4491 25.1862 69.4464 25.4315 68.4011 25.4315C66.9504 25.4315 65.7664 25.0795 64.8491 24.3755C63.9531 23.6502 63.5051 22.5942 63.5051 21.2075C63.5051 20.4822 63.6224 19.7355 63.8571 18.9675L65.6491 12.6955C65.6917 12.5248 65.7131 12.3968 65.7131 12.3115C65.7131 12.0982 65.6597 11.9168 65.5531 11.7675C65.4464 11.6182 65.2971 11.4582 65.1051 11.2875C64.7851 11.0102 64.6251 10.7648 64.6251 10.5515C64.6037 10.2528 64.7851 9.93283 65.1691 9.5915C65.5531 9.25017 66.0864 8.97283 66.7691 8.7595C67.4731 8.52483 68.2624 8.4075 69.1371 8.4075C70.5664 8.4075 71.6757 8.7595 72.465 9.4635C73.2757 10.1462 73.6811 11.0422 73.6811 12.1515C73.6811 12.6422 73.5957 13.1755 73.4251 13.7515L71.7931 19.1915C71.7077 19.4902 71.6651 19.6928 71.6651 19.7995C71.6651 20.0768 71.7397 20.2902 71.8891 20.4395C72.0597 20.5888 72.2837 20.6635 72.5611 20.6635C72.9451 20.6635 73.265 20.5355 73.521 20.2795C73.7984 20.0022 74.0651 19.5648 74.3211 18.9675L76.1451 12.6955C76.1877 12.5248 76.2091 12.3968 76.2091 12.3115C76.2091 12.0982 76.1557 11.9168 76.049 11.7675C75.9424 11.6182 75.7931 11.4582 75.6011 11.2875C75.2811 11.0102 75.1211 10.7648 75.1211 10.5515C75.0997 10.2528 75.2811 9.93283 75.6651 9.5915C76.0491 9.25017 76.5824 8.97283 77.2651 8.7595C77.9691 8.52483 78.7584 8.4075 79.633 8.4075C81.0837 8.4075 82.2037 8.74883 82.993 9.4315C83.7824 10.1142 84.1771 11.0208 84.1771 12.1515C84.1771 12.5995 84.0917 13.1328 83.9211 13.7515L81.841 20.5995C81.7984 20.7062 81.7771 20.8662 81.7771 21.0795C81.7771 21.3568 81.8731 21.5702 82.0651 21.7195C82.2571 21.8688 82.5237 21.9435 82.8651 21.9435C83.3344 21.9435 83.8784 21.7408 84.4971 21.3355C85.1371 20.9088 85.7557 20.3115 86.3531 19.5435C86.9717 18.7542 87.4731 17.8262 87.8571 16.7595C87.0037 16.0128 86.3957 15.2768 86.0331 14.5515C85.6917 13.8262 85.521 13.0795 85.521 12.3115C85.521 11.2235 85.8197 10.3062 86.4171 9.5595C87.0144 8.7915 87.8784 8.4075 89.0091 8.4075C90.1397 8.4075 91.0784 8.81283 91.8251 9.6235C92.5717 10.4342 92.9451 11.5435 92.9451 12.9515Z"/>
<path d="M103.977 8.4075C106.431 8.4075 108.393 8.86617 109.865 9.7835C111.337 10.6795 112.073 12.0555 112.073 13.9115C112.073 14.6155 111.945 15.4155 111.689 16.3115L110.377 20.7275C110.356 20.8128 110.345 20.9195 110.345 21.0475C110.345 21.3888 110.484 21.5595 110.761 21.5595C111.017 21.5595 111.231 21.4528 111.401 21.2395C111.593 21.0048 111.721 20.8875 111.785 20.8875C111.892 20.8875 111.977 20.9622 112.041 21.1115C112.127 21.2608 112.169 21.4315 112.169 21.6235C112.191 22.1995 111.967 22.7862 111.497 23.3835C111.049 23.9808 110.441 24.4715 109.673 24.8555C108.905 25.2395 108.063 25.4315 107.145 25.4315C106.036 25.4315 105.087 25.2288 104.297 24.8235C103.508 24.4182 102.964 23.8208 102.665 23.0315C102.025 23.7995 101.268 24.3968 100.393 24.8235C99.5186 25.2288 98.58 25.4315 97.5773 25.4315C96.4466 25.4315 95.4973 25.2182 94.7293 24.7915C93.9613 24.3435 93.3853 23.7782 93.0013 23.0955C92.6386 22.3915 92.4573 21.6555 92.4573 20.8875C92.4573 20.5462 92.4893 20.2155 92.5533 19.8955C92.8946 18.4235 93.6306 17.3142 94.7613 16.5675C95.9133 15.8208 97.2786 15.4475 98.8573 15.4475C100.628 15.4475 102.367 15.7248 104.073 16.2795L104.873 14.1675C105.151 13.2715 105.289 12.5782 105.289 12.0875C105.268 11.5755 105.097 11.1915 104.777 10.9355C104.457 10.6795 103.967 10.5515 103.305 10.5515C103.433 10.8928 103.497 11.2448 103.497 11.6075C103.497 12.3968 103.199 13.0795 102.601 13.6555C102.004 14.2315 101.151 14.5195 100.041 14.5195C98.996 14.5195 98.1746 14.2955 97.5773 13.8475C97.0013 13.3782 96.7133 12.8022 96.7133 12.1195C96.7133 11.0528 97.3106 10.1675 98.5053 9.4635C99.7 8.7595 101.524 8.4075 103.977 8.4075ZM102.185 18.1035C101.588 18.1035 101.097 18.3382 100.713 18.8075C100.351 19.2555 100.169 19.7462 100.169 20.2795C100.169 20.6208 100.244 20.8982 100.393 21.1115C100.564 21.3248 100.799 21.4315 101.097 21.4315C101.375 21.4315 101.673 21.3248 101.993 21.1115C102.335 20.8768 102.58 20.5355 102.729 20.0875L103.401 18.1995C103.039 18.1355 102.633 18.1035 102.185 18.1035Z"/>
</mask>
<path d="M11.2518 25.5275C9.4598 25.5275 7.84914 25.1968 6.4198 24.5355C4.99047 23.8742 3.84914 22.9035 2.9958 21.6235C2.1638 20.3222 1.7478 18.7542 1.7478 16.9195C1.7478 15.6395 1.9718 14.2528 2.4198 12.7595C3.40114 9.5595 4.8838 7.2555 6.8678 5.8475C8.8518 4.41817 10.9745 3.7035 13.2358 3.7035C14.4518 3.7035 15.5291 3.88483 16.4678 4.2475C17.4065 4.61017 18.2705 5.13283 19.0598 5.8155L19.9238 5.1435C20.4998 4.6955 20.9798 4.38617 21.3638 4.2155C21.7691 4.04483 22.2171 3.9595 22.7078 3.9595C23.2411 3.9595 23.6678 4.07683 23.9878 4.3115C24.3078 4.54617 24.4678 4.8875 24.4678 5.3355C24.4678 5.57017 24.4251 5.80483 24.3398 6.0395L22.5478 11.0315C22.3558 11.6075 22.1211 12.0128 21.8438 12.2475C21.5878 12.4822 21.1931 12.5995 20.6598 12.5995C20.1051 12.5995 19.6465 12.4075 19.2838 12.0235C18.9425 11.6182 18.5478 10.9355 18.0998 9.9755C17.5878 8.97283 17.1718 8.3115 16.8518 7.9915C16.5318 7.6715 16.0625 7.5115 15.4438 7.5115C14.5691 7.5115 13.7265 8.0555 12.9158 9.1435C12.1051 10.2102 11.3691 11.8208 10.7078 13.9755C10.1531 15.7888 9.8758 17.3035 9.8758 18.5195C9.8758 19.5862 10.0785 20.3862 10.4838 20.9195C10.8891 21.4315 11.4331 21.6875 12.1158 21.6875C13.1185 21.6875 13.9398 21.4635 14.5798 21.0155C15.2411 20.5675 15.9131 19.9595 16.5958 19.1915C17.0225 18.7222 17.3638 18.3808 17.6198 18.1675C17.8971 17.9328 18.1851 17.8155 18.4838 17.8155C18.8678 17.8155 19.2731 18.0075 19.6998 18.3915C20.1265 18.7755 20.3291 19.1595 20.3078 19.5435C20.3291 20.0128 19.9451 20.7382 19.1558 21.7195C18.3878 22.7008 17.3105 23.5862 15.9238 24.3755C14.5585 25.1435 13.0011 25.5275 11.2518 25.5275Z" stroke="white" stroke-width="2" mask="url(#path-1-outside-1_538_1115)"/>
<path d="M41.8881 20.9195C41.8454 21.0048 41.8241 21.1328 41.8241 21.3035C41.8241 21.4528 41.8561 21.5702 41.9201 21.6555C42.0054 21.7408 42.1121 21.7835 42.2401 21.7835C42.4961 21.7835 42.7094 21.6768 42.8801 21.4635C43.0721 21.2288 43.2001 21.1115 43.2641 21.1115C43.3707 21.1115 43.4561 21.1862 43.5201 21.3355C43.5841 21.4635 43.6161 21.6235 43.6161 21.8155C43.6374 22.4342 43.4347 23.0422 43.0081 23.6395C42.5814 24.2155 41.9521 24.6955 41.1201 25.0795C40.3094 25.4422 39.3281 25.6235 38.1761 25.6235C36.7681 25.6235 35.6481 25.3035 34.8161 24.6635C33.9841 24.0022 33.5574 23.1275 33.5361 22.0395C33.5361 21.2502 33.7281 20.3648 34.1121 19.3835L35.8721 14.7755C35.9787 14.4982 36.0321 14.2742 36.0321 14.1035C36.0321 13.8262 35.9361 13.6128 35.7441 13.4635C35.5734 13.2928 35.3601 13.2075 35.1041 13.2075C34.6987 13.2075 34.2827 13.3995 33.8561 13.7835C33.4507 14.1462 33.1201 14.7435 32.8641 15.5755V15.5115L30.8481 22.0075C30.7841 22.2635 30.7521 22.4875 30.7521 22.6795C30.7521 22.9568 30.8054 23.1808 30.9121 23.3515C31.0187 23.5008 31.1681 23.6502 31.3601 23.7995C31.5094 23.9488 31.6161 24.0768 31.6801 24.1835C31.7441 24.2688 31.7547 24.3862 31.7121 24.5355C31.6054 24.8128 31.3921 25.0155 31.0721 25.1435C30.7521 25.2715 30.2614 25.3355 29.6001 25.3355H22.3041C21.7494 25.3355 21.3441 25.2502 21.0881 25.0795C20.8321 24.8875 20.7467 24.6422 20.8321 24.3435C20.9174 24.0875 21.1414 23.8635 21.5041 23.6715C21.8241 23.5008 22.0907 23.2982 22.3041 23.0635C22.5174 22.8288 22.6987 22.4555 22.8481 21.9435L27.7121 5.9755C27.7761 5.7835 27.8081 5.6235 27.8081 5.4955C27.8081 5.26083 27.7441 5.06883 27.6161 4.9195C27.5094 4.77017 27.3601 4.62083 27.1681 4.4715C26.9547 4.30083 26.7947 4.1515 26.6881 4.0235C26.6027 3.8955 26.5921 3.72483 26.6561 3.5115C26.7841 3.02083 27.4561 2.59417 28.6721 2.2315C29.8881 1.86883 31.1574 1.6875 32.4801 1.6875C33.7174 1.6875 34.6241 1.92217 35.2001 2.3915C35.7974 2.86083 36.0961 3.50083 36.0961 4.3115C36.0961 4.78083 36.0214 5.2395 35.8721 5.6875L34.1441 11.3195C34.9761 10.2315 35.8507 9.47417 36.7681 9.0475C37.7067 8.62083 38.7201 8.4075 39.8081 8.4075C41.1094 8.4075 42.1547 8.80217 42.9441 9.5915C43.7547 10.3808 44.1601 11.4048 44.1601 12.6635C44.1601 13.3248 44.0534 13.9755 43.8401 14.6155L41.8881 20.9195Z" stroke="white" stroke-width="2" mask="url(#path-1-outside-1_538_1115)"/>
<path d="M55.8388 8.2475C58.5481 8.2475 60.5108 8.68483 61.7268 9.5595C62.9428 10.4128 63.5508 11.5115 63.5508 12.8555C63.5508 13.2608 63.5081 13.6342 63.4228 13.9755C63.1028 15.3835 62.2068 16.3968 60.7348 17.0155C59.2841 17.6128 57.5668 17.9115 55.5828 17.9115C54.5801 17.9115 53.6415 17.8475 52.7668 17.7195C52.7455 18.8288 53.0441 19.6075 53.6628 20.0555C54.2815 20.5035 55.1455 20.7275 56.2548 20.7275C56.7668 20.7275 57.2575 20.6742 57.7268 20.5675C58.1961 20.4395 58.7935 20.2582 59.5188 20.0235C60.1161 19.8102 60.5215 19.7035 60.7348 19.7035C60.9695 19.7035 61.0868 19.8422 61.0868 20.1195C61.1081 20.8662 60.8308 21.6555 60.2548 22.4875C59.6788 23.2982 58.8255 23.9915 57.6948 24.5675C56.5641 25.1435 55.1988 25.4315 53.5988 25.4315C51.2308 25.4315 49.2895 24.8342 47.7748 23.6395C46.2601 22.4448 45.5028 20.7062 45.5028 18.4235C45.5028 17.7835 45.5881 17.0368 45.7588 16.1835C46.2921 13.5595 47.4548 11.5862 49.2468 10.2635C51.0601 8.9195 53.2575 8.2475 55.8388 8.2475ZM52.9908 15.7995C53.0761 15.8208 53.1935 15.8315 53.3428 15.8315C54.2388 15.8315 54.9215 15.4155 55.3908 14.5835C55.8601 13.7515 56.0841 12.8235 56.0628 11.7995C56.0415 11.2022 55.8708 10.9035 55.5508 10.9035C55.3161 10.9035 55.0388 11.0955 54.7188 11.4795C54.3988 11.8422 54.0788 12.3968 53.7588 13.1435C53.4601 13.8902 53.2041 14.7755 52.9908 15.7995Z" stroke="white" stroke-width="2" mask="url(#path-1-outside-1_538_1115)"/>
<path d="M92.9451 12.9515C92.9451 14.8502 92.2837 16.7915 90.9611 18.7755C89.6384 20.7595 87.9637 22.4022 85.937 23.7035C83.9317 24.9835 81.9584 25.6235 80.0171 25.6235C78.4811 25.6235 77.1797 25.3568 76.1131 24.8235C75.0464 24.2902 74.3531 23.5222 74.0331 22.5195C73.2437 23.4795 72.3691 24.2048 71.409 24.6955C70.4491 25.1862 69.4464 25.4315 68.4011 25.4315C66.9504 25.4315 65.7664 25.0795 64.8491 24.3755C63.9531 23.6502 63.5051 22.5942 63.5051 21.2075C63.5051 20.4822 63.6224 19.7355 63.8571 18.9675L65.6491 12.6955C65.6917 12.5248 65.7131 12.3968 65.7131 12.3115C65.7131 12.0982 65.6597 11.9168 65.5531 11.7675C65.4464 11.6182 65.2971 11.4582 65.1051 11.2875C64.7851 11.0102 64.6251 10.7648 64.6251 10.5515C64.6037 10.2528 64.7851 9.93283 65.1691 9.5915C65.5531 9.25017 66.0864 8.97283 66.7691 8.7595C67.4731 8.52483 68.2624 8.4075 69.1371 8.4075C70.5664 8.4075 71.6757 8.7595 72.465 9.4635C73.2757 10.1462 73.6811 11.0422 73.6811 12.1515C73.6811 12.6422 73.5957 13.1755 73.4251 13.7515L71.7931 19.1915C71.7077 19.4902 71.6651 19.6928 71.6651 19.7995C71.6651 20.0768 71.7397 20.2902 71.8891 20.4395C72.0597 20.5888 72.2837 20.6635 72.5611 20.6635C72.9451 20.6635 73.265 20.5355 73.521 20.2795C73.7984 20.0022 74.0651 19.5648 74.3211 18.9675L76.1451 12.6955C76.1877 12.5248 76.2091 12.3968 76.2091 12.3115C76.2091 12.0982 76.1557 11.9168 76.049 11.7675C75.9424 11.6182 75.7931 11.4582 75.6011 11.2875C75.2811 11.0102 75.1211 10.7648 75.1211 10.5515C75.0997 10.2528 75.2811 9.93283 75.6651 9.5915C76.0491 9.25017 76.5824 8.97283 77.2651 8.7595C77.9691 8.52483 78.7584 8.4075 79.633 8.4075C81.0837 8.4075 82.2037 8.74883 82.993 9.4315C83.7824 10.1142 84.1771 11.0208 84.1771 12.1515C84.1771 12.5995 84.0917 13.1328 83.9211 13.7515L81.841 20.5995C81.7984 20.7062 81.7771 20.8662 81.7771 21.0795C81.7771 21.3568 81.8731 21.5702 82.0651 21.7195C82.2571 21.8688 82.5237 21.9435 82.8651 21.9435C83.3344 21.9435 83.8784 21.7408 84.4971 21.3355C85.1371 20.9088 85.7557 20.3115 86.3531 19.5435C86.9717 18.7542 87.4731 17.8262 87.8571 16.7595C87.0037 16.0128 86.3957 15.2768 86.0331 14.5515C85.6917 13.8262 85.521 13.0795 85.521 12.3115C85.521 11.2235 85.8197 10.3062 86.4171 9.5595C87.0144 8.7915 87.8784 8.4075 89.0091 8.4075C90.1397 8.4075 91.0784 8.81283 91.8251 9.6235C92.5717 10.4342 92.9451 11.5435 92.9451 12.9515Z" stroke="white" stroke-width="2" mask="url(#path-1-outside-1_538_1115)"/>
<path d="M103.977 8.4075C106.431 8.4075 108.393 8.86617 109.865 9.7835C111.337 10.6795 112.073 12.0555 112.073 13.9115C112.073 14.6155 111.945 15.4155 111.689 16.3115L110.377 20.7275C110.356 20.8128 110.345 20.9195 110.345 21.0475C110.345 21.3888 110.484 21.5595 110.761 21.5595C111.017 21.5595 111.231 21.4528 111.401 21.2395C111.593 21.0048 111.721 20.8875 111.785 20.8875C111.892 20.8875 111.977 20.9622 112.041 21.1115C112.127 21.2608 112.169 21.4315 112.169 21.6235C112.191 22.1995 111.967 22.7862 111.497 23.3835C111.049 23.9808 110.441 24.4715 109.673 24.8555C108.905 25.2395 108.063 25.4315 107.145 25.4315C106.036 25.4315 105.087 25.2288 104.297 24.8235C103.508 24.4182 102.964 23.8208 102.665 23.0315C102.025 23.7995 101.268 24.3968 100.393 24.8235C99.5186 25.2288 98.58 25.4315 97.5773 25.4315C96.4466 25.4315 95.4973 25.2182 94.7293 24.7915C93.9613 24.3435 93.3853 23.7782 93.0013 23.0955C92.6386 22.3915 92.4573 21.6555 92.4573 20.8875C92.4573 20.5462 92.4893 20.2155 92.5533 19.8955C92.8946 18.4235 93.6306 17.3142 94.7613 16.5675C95.9133 15.8208 97.2786 15.4475 98.8573 15.4475C100.628 15.4475 102.367 15.7248 104.073 16.2795L104.873 14.1675C105.151 13.2715 105.289 12.5782 105.289 12.0875C105.268 11.5755 105.097 11.1915 104.777 10.9355C104.457 10.6795 103.967 10.5515 103.305 10.5515C103.433 10.8928 103.497 11.2448 103.497 11.6075C103.497 12.3968 103.199 13.0795 102.601 13.6555C102.004 14.2315 101.151 14.5195 100.041 14.5195C98.996 14.5195 98.1746 14.2955 97.5773 13.8475C97.0013 13.3782 96.7133 12.8022 96.7133 12.1195C96.7133 11.0528 97.3106 10.1675 98.5053 9.4635C99.7 8.7595 101.524 8.4075 103.977 8.4075ZM102.185 18.1035C101.588 18.1035 101.097 18.3382 100.713 18.8075C100.351 19.2555 100.169 19.7462 100.169 20.2795C100.169 20.6208 100.244 20.8982 100.393 21.1115C100.564 21.3248 100.799 21.4315 101.097 21.4315C101.375 21.4315 101.673 21.3248 101.993 21.1115C102.335 20.8768 102.58 20.5355 102.729 20.0875L103.401 18.1995C103.039 18.1355 102.633 18.1035 102.185 18.1035Z" stroke="white" stroke-width="2" mask="url(#path-1-outside-1_538_1115)"/>
</svg>
