<svg width="168" height="34" viewBox="0 0 168 34" fill="none" xmlns="http://www.w3.org/2000/svg">
<mask id="path-1-outside-1_538_1117" maskUnits="userSpaceOnUse" x="0.633057" y="0.667969" width="168" height="33" fill="black">
<rect fill="white" x="0.633057" y="0.667969" width="168" height="33"/>
<path d="M22.4971 21.892C22.4117 22.1693 22.3691 22.4466 22.3691 22.724C22.3691 22.9586 22.4011 23.1613 22.4651 23.332C22.5291 23.4813 22.5931 23.6093 22.6571 23.716C22.7424 23.8013 22.7957 23.8653 22.8171 23.908C23.0304 24.1213 23.1371 24.3346 23.1371 24.548C23.1371 24.5906 23.1157 24.6973 23.0731 24.868C22.9877 25.1666 22.7957 25.38 22.4971 25.508C22.2197 25.6146 21.7824 25.668 21.1851 25.668H13.6011C13.1531 25.668 12.8011 25.5933 12.5451 25.444C12.3104 25.2946 12.1931 25.092 12.1931 24.836C12.1931 24.708 12.2251 24.5693 12.2891 24.42C12.3531 24.2493 12.4384 24.1213 12.5451 24.036C12.6731 23.9293 12.8437 23.812 13.0571 23.684C13.3984 23.492 13.6757 23.2786 13.8891 23.044C14.1024 22.8093 14.2837 22.4253 14.4331 21.892L15.2651 19.14H10.2731L9.40906 20.964C9.04639 21.7533 8.86506 22.372 8.86506 22.82C8.86506 23.076 8.90772 23.2893 8.99306 23.46C9.07839 23.6093 9.20639 23.7693 9.37706 23.94C9.52639 24.1106 9.62239 24.26 9.66506 24.388C9.72906 24.4946 9.73972 24.644 9.69706 24.836C9.61172 25.156 9.43039 25.38 9.15306 25.508C8.89706 25.6146 8.48106 25.668 7.90506 25.668H3.13706C2.64639 25.668 2.27306 25.5826 2.01706 25.412C1.76106 25.22 1.63306 24.9746 1.63306 24.676C1.63306 24.3346 1.76106 24.068 2.01706 23.876C2.25172 23.6626 2.61439 23.4386 3.10506 23.204C3.74506 22.884 4.25706 22.5746 4.64106 22.276C5.02506 21.956 5.35572 21.5186 5.63306 20.964L11.3291 9.15597C12.2037 7.3213 13.2277 5.99864 14.4011 5.18797C15.5957 4.35597 17.1637 3.93997 19.1051 3.93997C21.2811 3.93997 22.9664 4.38797 24.1611 5.28397C25.3557 6.15864 25.9531 7.3853 25.9531 8.96397C25.9531 9.6253 25.8464 10.308 25.6331 11.012L22.4971 21.892ZM16.2251 15.94L17.9211 10.308C18.0064 10.052 18.0491 9.7853 18.0491 9.50797C18.0491 9.10264 17.9317 8.80397 17.6971 8.61197C17.4837 8.39864 17.1744 8.29197 16.7691 8.29197C16.2571 8.29197 15.8197 8.4413 15.4571 8.73997C15.0944 9.03864 14.7317 9.57197 14.3691 10.34L11.7451 15.94H16.2251Z"/>
<path d="M33.7048 8.73997C34.9421 8.73997 35.8488 8.97464 36.4248 9.44397C37.0008 9.9133 37.2888 10.5533 37.2888 11.364C37.2888 11.8546 37.2141 12.324 37.0648 12.772L34.1208 22.34C34.0568 22.596 34.0248 22.82 34.0248 23.012C34.0248 23.2893 34.0781 23.5133 34.1848 23.684C34.2915 23.8333 34.4408 23.9826 34.6328 24.132C34.7821 24.2813 34.8888 24.4093 34.9528 24.516C35.0168 24.6013 35.0275 24.7186 34.9848 24.868C34.8781 25.1453 34.6648 25.348 34.3448 25.476C34.0248 25.604 33.5341 25.668 32.8728 25.668H25.5768C25.0221 25.668 24.6168 25.5826 24.3608 25.412C24.1048 25.22 24.0195 24.9746 24.1048 24.676C24.1901 24.42 24.4141 24.196 24.7768 24.004C25.0968 23.8333 25.3635 23.6306 25.5768 23.396C25.7901 23.1613 25.9715 22.788 26.1208 22.276L28.9048 13.028C28.9688 12.836 29.0008 12.676 29.0008 12.548C29.0008 12.3133 28.9475 12.132 28.8408 12.004C28.7341 11.8546 28.5741 11.7053 28.3608 11.556C28.1475 11.3853 27.9981 11.236 27.9128 11.108C27.8275 10.98 27.8168 10.8093 27.8808 10.596C28.0088 10.1053 28.6808 9.67864 29.8968 9.31597C31.1128 8.93197 32.3821 8.73997 33.7048 8.73997ZM35.8488 1.66797C36.6808 1.66797 37.3741 1.9453 37.9288 2.49997C38.4835 3.0333 38.7608 3.69464 38.7608 4.48397C38.7608 5.03864 38.6115 5.58264 38.3128 6.11597C38.0355 6.6493 37.6301 7.08664 37.0968 7.42797C36.5848 7.74797 36.0088 7.90797 35.3688 7.90797C34.5581 7.90797 33.8755 7.6413 33.3208 7.10797C32.7875 6.5533 32.5101 5.87064 32.4888 5.05997C32.4888 4.52664 32.6275 4.00397 32.9048 3.49197C33.1821 2.95864 33.5768 2.5213 34.0888 2.17997C34.6008 1.83864 35.1875 1.66797 35.8488 1.66797Z"/>
<path d="M52.7196 8.73997C53.9142 8.73997 54.8636 9.10264 55.5676 9.82797C56.2929 10.5533 56.6556 11.4493 56.6556 12.516C56.6556 12.9213 56.6129 13.2946 56.5276 13.636C56.3142 14.5106 55.9089 15.1826 55.3116 15.652C54.7142 16.1213 53.9996 16.356 53.1676 16.356C52.3569 16.356 51.7382 16.164 51.3116 15.78C50.9062 15.396 50.5436 14.884 50.2236 14.244C50.0529 13.8813 49.8929 13.6146 49.7436 13.444C49.5942 13.2733 49.4236 13.188 49.2316 13.188C49.0182 13.188 48.8262 13.2733 48.6556 13.444C48.5062 13.6146 48.3676 13.9133 48.2396 14.34L45.7756 22.34C45.7329 22.4466 45.7116 22.6066 45.7116 22.82C45.7116 23.0973 45.7862 23.332 45.9356 23.524C46.1062 23.6946 46.3302 23.8653 46.6076 24.036C46.8636 24.2066 47.0342 24.3453 47.1196 24.452C47.2049 24.5586 47.2369 24.6973 47.2156 24.868C47.1729 25.1453 47.0129 25.348 46.7356 25.476C46.4796 25.604 46.0316 25.668 45.3916 25.668H37.1996C36.6449 25.668 36.2502 25.5826 36.0156 25.412C35.7596 25.22 35.6636 24.9746 35.7276 24.676C35.8129 24.42 36.0369 24.196 36.3996 24.004C36.7196 23.8333 36.9862 23.6306 37.1996 23.396C37.4129 23.1613 37.5942 22.788 37.7436 22.276L40.5916 13.028C40.6342 12.9213 40.6556 12.772 40.6556 12.58C40.6556 12.3453 40.6022 12.164 40.4956 12.036C40.4102 11.908 40.2609 11.748 40.0476 11.556C39.8342 11.3853 39.6849 11.236 39.5996 11.108C39.5142 10.98 39.5036 10.8093 39.5676 10.596C39.6956 10.1053 40.3676 9.67864 41.5836 9.31597C42.7996 8.93197 44.0689 8.73997 45.3916 8.73997C46.2662 8.73997 46.9916 8.94264 47.5676 9.34797C48.1436 9.73197 48.5169 10.2866 48.6876 11.012C49.7116 9.4973 51.0556 8.73997 52.7196 8.73997Z"/>
<path d="M71.5463 8.61197C73.125 8.61197 74.3836 9.1773 75.3223 10.308C76.2823 11.4386 76.7623 12.932 76.7623 14.788C76.7623 15.748 76.645 16.6866 76.4103 17.604C75.7276 20.356 74.5543 22.436 72.8903 23.844C71.2476 25.252 69.349 25.956 67.1943 25.956C65.9783 25.956 64.9223 25.7533 64.0263 25.348C63.1516 24.9213 62.4476 24.324 61.9143 23.556L60.7623 24.548C60.3143 24.932 59.877 25.22 59.4503 25.412C59.0236 25.5826 58.533 25.668 57.9783 25.668H56.5703C56.037 25.668 55.621 25.5613 55.3223 25.348C55.045 25.1133 54.9063 24.7826 54.9063 24.356C54.9063 24.164 54.9383 23.94 55.0023 23.684L60.3463 6.30797C60.4103 6.11597 60.4423 5.95597 60.4423 5.82797C60.4423 5.4653 60.2183 5.12397 59.7703 4.80397C59.557 4.61197 59.4076 4.46264 59.3223 4.35597C59.237 4.22797 59.2263 4.06797 59.2903 3.87597C59.4396 3.3853 60.1116 2.95864 61.3063 2.59597C62.5223 2.21197 63.7916 2.01997 65.1143 2.01997C66.3516 2.01997 67.2583 2.2653 67.8343 2.75597C68.4316 3.2253 68.7303 3.8653 68.7303 4.67597C68.7303 5.12397 68.6556 5.57197 68.5063 6.01997L67.1623 10.372C68.3996 9.19864 69.861 8.61197 71.5463 8.61197ZM67.9303 17.412C68.357 15.9613 68.5703 14.788 68.5703 13.892C68.5703 12.9106 68.2823 12.42 67.7063 12.42C67.1943 12.42 66.7143 12.6866 66.2663 13.22L64.1863 20.004L63.9943 20.612C63.8876 20.932 63.8343 21.2626 63.8343 21.604C63.8343 22.3506 64.1863 22.724 64.8903 22.724C65.4023 22.724 65.893 22.3506 66.3623 21.604C66.8316 20.8573 67.3543 19.46 67.9303 17.412Z"/>
<path d="M92.5946 8.73997C93.7892 8.73997 94.7386 9.10264 95.4426 9.82797C96.1679 10.5533 96.5306 11.4493 96.5306 12.516C96.5306 12.9213 96.4879 13.2946 96.4026 13.636C96.1892 14.5106 95.7839 15.1826 95.1866 15.652C94.5892 16.1213 93.8746 16.356 93.0426 16.356C92.2319 16.356 91.6132 16.164 91.1866 15.78C90.7812 15.396 90.4186 14.884 90.0986 14.244C89.9279 13.8813 89.7679 13.6146 89.6186 13.444C89.4692 13.2733 89.2986 13.188 89.1066 13.188C88.8932 13.188 88.7012 13.2733 88.5306 13.444C88.3812 13.6146 88.2426 13.9133 88.1146 14.34L85.6506 22.34C85.6079 22.4466 85.5866 22.6066 85.5866 22.82C85.5866 23.0973 85.6612 23.332 85.8106 23.524C85.9812 23.6946 86.2052 23.8653 86.4826 24.036C86.7386 24.2066 86.9092 24.3453 86.9946 24.452C87.0799 24.5586 87.1119 24.6973 87.0906 24.868C87.0479 25.1453 86.8879 25.348 86.6106 25.476C86.3546 25.604 85.9066 25.668 85.2666 25.668H77.0746C76.5199 25.668 76.1252 25.5826 75.8906 25.412C75.6346 25.22 75.5386 24.9746 75.6026 24.676C75.6879 24.42 75.9119 24.196 76.2746 24.004C76.5946 23.8333 76.8612 23.6306 77.0746 23.396C77.2879 23.1613 77.4692 22.788 77.6186 22.276L80.4666 13.028C80.5092 12.9213 80.5306 12.772 80.5306 12.58C80.5306 12.3453 80.4772 12.164 80.3706 12.036C80.2852 11.908 80.1359 11.748 79.9226 11.556C79.7092 11.3853 79.5599 11.236 79.4746 11.108C79.3892 10.98 79.3786 10.8093 79.4426 10.596C79.5706 10.1053 80.2426 9.67864 81.4586 9.31597C82.6746 8.93197 83.9439 8.73997 85.2666 8.73997C86.1412 8.73997 86.8666 8.94264 87.4426 9.34797C88.0186 9.73197 88.3919 10.2866 88.5626 11.012C89.5866 9.4973 90.9306 8.73997 92.5946 8.73997Z"/>
<path d="M103.83 8.73997C105.067 8.73997 105.974 8.97464 106.55 9.44397C107.126 9.9133 107.414 10.5533 107.414 11.364C107.414 11.8546 107.339 12.324 107.19 12.772L104.246 22.34C104.182 22.596 104.15 22.82 104.15 23.012C104.15 23.2893 104.203 23.5133 104.31 23.684C104.416 23.8333 104.566 23.9826 104.758 24.132C104.907 24.2813 105.014 24.4093 105.078 24.516C105.142 24.6013 105.152 24.7186 105.11 24.868C105.003 25.1453 104.79 25.348 104.47 25.476C104.15 25.604 103.659 25.668 102.998 25.668H95.7018C95.1471 25.668 94.7418 25.5826 94.4858 25.412C94.2298 25.22 94.1445 24.9746 94.2298 24.676C94.3151 24.42 94.5391 24.196 94.9018 24.004C95.2218 23.8333 95.4885 23.6306 95.7018 23.396C95.9151 23.1613 96.0965 22.788 96.2458 22.276L99.0298 13.028C99.0938 12.836 99.1258 12.676 99.1258 12.548C99.1258 12.3133 99.0725 12.132 98.9658 12.004C98.8591 11.8546 98.6991 11.7053 98.4858 11.556C98.2725 11.3853 98.1231 11.236 98.0378 11.108C97.9525 10.98 97.9418 10.8093 98.0058 10.596C98.1338 10.1053 98.8058 9.67864 100.022 9.31597C101.238 8.93197 102.507 8.73997 103.83 8.73997ZM105.974 1.66797C106.806 1.66797 107.499 1.9453 108.054 2.49997C108.608 3.0333 108.886 3.69464 108.886 4.48397C108.886 5.03864 108.736 5.58264 108.438 6.11597C108.16 6.6493 107.755 7.08664 107.222 7.42797C106.71 7.74797 106.134 7.90797 105.494 7.90797C104.683 7.90797 104 7.6413 103.446 7.10797C102.912 6.5533 102.635 5.87064 102.614 5.05997C102.614 4.52664 102.752 4.00397 103.03 3.49197C103.307 2.95864 103.702 2.5213 104.214 2.17997C104.726 1.83864 105.312 1.66797 105.974 1.66797Z"/>
<path d="M125.021 21.06C124.978 21.2306 124.957 21.348 124.957 21.412C124.957 21.5613 124.999 21.6786 125.085 21.764C125.17 21.8493 125.277 21.892 125.405 21.892C125.661 21.892 125.874 21.7853 126.045 21.572C126.237 21.3373 126.365 21.22 126.429 21.22C126.535 21.22 126.621 21.2946 126.685 21.444C126.749 21.5933 126.781 21.764 126.781 21.956C126.802 22.532 126.578 23.1186 126.109 23.716C125.661 24.3133 125.053 24.804 124.285 25.188C123.517 25.572 122.685 25.764 121.789 25.764C120.722 25.764 119.794 25.5613 119.005 25.156C118.215 24.7506 117.671 24.2173 117.373 23.556C116.797 24.3026 116.135 24.8573 115.389 25.22C114.642 25.5826 113.853 25.764 113.021 25.764C112.039 25.764 111.122 25.5186 110.269 25.028C109.437 24.5373 108.765 23.844 108.253 22.948C107.762 22.0306 107.517 20.996 107.517 19.844C107.517 17.9026 107.879 16.0786 108.605 14.372C109.351 12.644 110.386 11.2573 111.709 10.212C113.031 9.1453 114.535 8.61197 116.221 8.61197C117.138 8.61197 117.917 8.71864 118.557 8.93197C119.218 9.1453 119.815 9.4653 120.349 9.89197L121.437 6.30797C121.501 6.11597 121.533 5.95597 121.533 5.82797C121.533 5.5933 121.469 5.4013 121.341 5.25197C121.234 5.10264 121.085 4.9533 120.893 4.80397C120.679 4.6333 120.519 4.48397 120.413 4.35597C120.327 4.22797 120.317 4.0573 120.381 3.84397C120.509 3.3533 121.181 2.92664 122.397 2.56397C123.613 2.2013 124.882 2.01997 126.205 2.01997C127.442 2.01997 128.349 2.25464 128.925 2.72397C129.522 3.1933 129.821 3.8333 129.821 4.64397C129.821 5.1133 129.746 5.57197 129.597 6.01997L125.021 21.06ZM119.677 12.068C119.335 11.7693 118.962 11.62 118.557 11.62C117.938 11.62 117.33 12.0786 116.733 12.996C116.135 13.9133 115.655 15.0226 115.293 16.324C114.93 17.6253 114.759 18.7986 114.781 19.844C114.781 21.0173 115.165 21.604 115.933 21.604C116.21 21.604 116.445 21.4973 116.637 21.284C116.829 21.0493 117.01 20.676 117.181 20.164L119.677 12.068Z"/>
<path d="M147.493 3.52397C148.176 3.52397 148.837 3.6733 149.477 3.97197C150.139 4.2493 150.672 4.64397 151.077 5.15597C151.504 5.64664 151.717 6.17997 151.717 6.75597C151.717 8.01464 150.864 8.64397 149.157 8.64397C148.667 8.64397 148.283 8.61197 148.005 8.54797C147.749 8.46264 147.44 8.33464 147.077 8.16397C147.013 8.3133 146.981 8.52664 146.981 8.80397C146.981 9.1453 147.035 9.55064 147.141 10.02C147.269 10.4893 147.419 10.9266 147.589 11.332C148.037 11.9933 148.261 12.7826 148.261 13.7C148.261 14.1053 148.208 14.596 148.101 15.172C147.845 16.2813 147.28 17.2946 146.405 18.212C145.552 19.1293 144.443 19.8546 143.077 20.388C141.733 20.9 140.251 21.156 138.629 21.156C137.392 21.156 136.229 21.0706 135.141 20.9C134.821 21.1773 134.661 21.5186 134.661 21.924C134.661 22.2013 134.789 22.436 135.045 22.628C135.301 22.7986 135.728 22.884 136.325 22.884H141.125C142.768 22.884 144.048 23.172 144.965 23.748C145.883 24.3026 146.341 25.1026 146.341 26.148C146.341 26.532 146.277 26.9266 146.149 27.332C145.893 28.164 145.307 28.932 144.389 29.636C143.493 30.3613 142.224 30.948 140.581 31.396C138.939 31.844 136.944 32.068 134.597 32.068C132.507 32.068 130.736 31.8866 129.285 31.524C127.835 31.1613 126.757 30.66 126.053 30.02C125.328 29.4013 124.965 28.708 124.965 27.94C124.965 27.7693 125.008 27.5133 125.093 27.172C125.285 26.5533 125.723 26.052 126.405 25.668C127.067 25.2626 128.165 24.996 129.701 24.868C129.189 24.3773 128.933 23.7906 128.933 23.108C128.933 22.8733 128.965 22.628 129.029 22.372C129.371 21.2626 130.373 20.4413 132.037 19.908C130.437 19.0333 129.637 17.7533 129.637 16.068C129.637 15.5986 129.701 15.108 129.829 14.596C130.085 13.4866 130.651 12.484 131.525 11.588C132.4 10.6706 133.52 9.9453 134.885 9.41197C136.251 8.87864 137.744 8.61197 139.365 8.61197C141.904 8.61197 143.899 8.94264 145.349 9.60397C145.029 9.1133 144.773 8.59064 144.581 8.03597C144.411 7.45997 144.325 6.9373 144.325 6.46797C144.325 5.6573 144.581 4.96397 145.093 4.38797C145.627 3.81197 146.427 3.52397 147.493 3.52397ZM140.549 14.884C140.891 13.796 141.061 12.964 141.061 12.388C141.061 11.6626 140.752 11.3 140.133 11.3C139.6 11.3 139.131 11.5666 138.725 12.1C138.341 12.612 137.947 13.54 137.541 14.884C137.2 15.9933 137.029 16.836 137.029 17.412C137.029 18.116 137.328 18.468 137.925 18.468C138.459 18.468 138.928 18.2013 139.333 17.668C139.739 17.1346 140.144 16.2066 140.549 14.884ZM134.181 26.116C133.584 26.116 133.04 26.084 132.549 26.02C132.293 26.34 132.165 26.7666 132.165 27.3C132.187 27.8333 132.4 28.2173 132.805 28.452C133.232 28.6866 133.883 28.804 134.757 28.804C135.824 28.804 136.688 28.644 137.349 28.324C138.032 28.004 138.373 27.5453 138.373 26.948C138.373 26.692 138.277 26.4893 138.085 26.34C137.893 26.1906 137.616 26.116 137.253 26.116H134.181Z"/>
<path d="M159.262 8.57997C161.971 8.57997 163.934 9.0173 165.15 9.89197C166.366 10.7453 166.974 11.844 166.974 13.188C166.974 13.5933 166.931 13.9666 166.846 14.308C166.526 15.716 165.63 16.7293 164.158 17.348C162.707 17.9453 160.99 18.244 159.006 18.244C158.003 18.244 157.064 18.18 156.19 18.052C156.168 19.1613 156.467 19.94 157.086 20.388C157.704 20.836 158.568 21.06 159.678 21.06C160.19 21.06 160.68 21.0066 161.15 20.9C161.619 20.772 162.216 20.5906 162.942 20.356C163.539 20.1426 163.944 20.036 164.158 20.036C164.392 20.036 164.51 20.1746 164.51 20.452C164.531 21.1986 164.254 21.988 163.678 22.82C163.102 23.6306 162.248 24.324 161.118 24.9C159.987 25.476 158.622 25.764 157.022 25.764C154.654 25.764 152.712 25.1666 151.198 23.972C149.683 22.7773 148.926 21.0386 148.926 18.756C148.926 18.116 149.011 17.3693 149.182 16.516C149.715 13.892 150.878 11.9186 152.67 10.596C154.483 9.25197 156.68 8.57997 159.262 8.57997ZM156.414 16.132C156.499 16.1533 156.616 16.164 156.766 16.164C157.662 16.164 158.344 15.748 158.814 14.916C159.283 14.084 159.507 13.156 159.486 12.132C159.464 11.5346 159.294 11.236 158.974 11.236C158.739 11.236 158.462 11.428 158.142 11.812C157.822 12.1746 157.502 12.7293 157.182 13.476C156.883 14.2226 156.627 15.108 156.414 16.132Z"/>
</mask>
<path d="M22.4971 21.892C22.4117 22.1693 22.3691 22.4466 22.3691 22.724C22.3691 22.9586 22.4011 23.1613 22.4651 23.332C22.5291 23.4813 22.5931 23.6093 22.6571 23.716C22.7424 23.8013 22.7957 23.8653 22.8171 23.908C23.0304 24.1213 23.1371 24.3346 23.1371 24.548C23.1371 24.5906 23.1157 24.6973 23.0731 24.868C22.9877 25.1666 22.7957 25.38 22.4971 25.508C22.2197 25.6146 21.7824 25.668 21.1851 25.668H13.6011C13.1531 25.668 12.8011 25.5933 12.5451 25.444C12.3104 25.2946 12.1931 25.092 12.1931 24.836C12.1931 24.708 12.2251 24.5693 12.2891 24.42C12.3531 24.2493 12.4384 24.1213 12.5451 24.036C12.6731 23.9293 12.8437 23.812 13.0571 23.684C13.3984 23.492 13.6757 23.2786 13.8891 23.044C14.1024 22.8093 14.2837 22.4253 14.4331 21.892L15.2651 19.14H10.2731L9.40906 20.964C9.04639 21.7533 8.86506 22.372 8.86506 22.82C8.86506 23.076 8.90772 23.2893 8.99306 23.46C9.07839 23.6093 9.20639 23.7693 9.37706 23.94C9.52639 24.1106 9.62239 24.26 9.66506 24.388C9.72906 24.4946 9.73972 24.644 9.69706 24.836C9.61172 25.156 9.43039 25.38 9.15306 25.508C8.89706 25.6146 8.48106 25.668 7.90506 25.668H3.13706C2.64639 25.668 2.27306 25.5826 2.01706 25.412C1.76106 25.22 1.63306 24.9746 1.63306 24.676C1.63306 24.3346 1.76106 24.068 2.01706 23.876C2.25172 23.6626 2.61439 23.4386 3.10506 23.204C3.74506 22.884 4.25706 22.5746 4.64106 22.276C5.02506 21.956 5.35572 21.5186 5.63306 20.964L11.3291 9.15597C12.2037 7.3213 13.2277 5.99864 14.4011 5.18797C15.5957 4.35597 17.1637 3.93997 19.1051 3.93997C21.2811 3.93997 22.9664 4.38797 24.1611 5.28397C25.3557 6.15864 25.9531 7.3853 25.9531 8.96397C25.9531 9.6253 25.8464 10.308 25.6331 11.012L22.4971 21.892ZM16.2251 15.94L17.9211 10.308C18.0064 10.052 18.0491 9.7853 18.0491 9.50797C18.0491 9.10264 17.9317 8.80397 17.6971 8.61197C17.4837 8.39864 17.1744 8.29197 16.7691 8.29197C16.2571 8.29197 15.8197 8.4413 15.4571 8.73997C15.0944 9.03864 14.7317 9.57197 14.3691 10.34L11.7451 15.94H16.2251Z" stroke="white" stroke-width="2" mask="url(#path-1-outside-1_538_1117)"/>
<path d="M33.7048 8.73997C34.9421 8.73997 35.8488 8.97464 36.4248 9.44397C37.0008 9.9133 37.2888 10.5533 37.2888 11.364C37.2888 11.8546 37.2141 12.324 37.0648 12.772L34.1208 22.34C34.0568 22.596 34.0248 22.82 34.0248 23.012C34.0248 23.2893 34.0781 23.5133 34.1848 23.684C34.2915 23.8333 34.4408 23.9826 34.6328 24.132C34.7821 24.2813 34.8888 24.4093 34.9528 24.516C35.0168 24.6013 35.0275 24.7186 34.9848 24.868C34.8781 25.1453 34.6648 25.348 34.3448 25.476C34.0248 25.604 33.5341 25.668 32.8728 25.668H25.5768C25.0221 25.668 24.6168 25.5826 24.3608 25.412C24.1048 25.22 24.0195 24.9746 24.1048 24.676C24.1901 24.42 24.4141 24.196 24.7768 24.004C25.0968 23.8333 25.3635 23.6306 25.5768 23.396C25.7901 23.1613 25.9715 22.788 26.1208 22.276L28.9048 13.028C28.9688 12.836 29.0008 12.676 29.0008 12.548C29.0008 12.3133 28.9475 12.132 28.8408 12.004C28.7341 11.8546 28.5741 11.7053 28.3608 11.556C28.1475 11.3853 27.9981 11.236 27.9128 11.108C27.8275 10.98 27.8168 10.8093 27.8808 10.596C28.0088 10.1053 28.6808 9.67864 29.8968 9.31597C31.1128 8.93197 32.3821 8.73997 33.7048 8.73997ZM35.8488 1.66797C36.6808 1.66797 37.3741 1.9453 37.9288 2.49997C38.4835 3.0333 38.7608 3.69464 38.7608 4.48397C38.7608 5.03864 38.6115 5.58264 38.3128 6.11597C38.0355 6.6493 37.6301 7.08664 37.0968 7.42797C36.5848 7.74797 36.0088 7.90797 35.3688 7.90797C34.5581 7.90797 33.8755 7.6413 33.3208 7.10797C32.7875 6.5533 32.5101 5.87064 32.4888 5.05997C32.4888 4.52664 32.6275 4.00397 32.9048 3.49197C33.1821 2.95864 33.5768 2.5213 34.0888 2.17997C34.6008 1.83864 35.1875 1.66797 35.8488 1.66797Z" stroke="white" stroke-width="2" mask="url(#path-1-outside-1_538_1117)"/>
<path d="M52.7196 8.73997C53.9142 8.73997 54.8636 9.10264 55.5676 9.82797C56.2929 10.5533 56.6556 11.4493 56.6556 12.516C56.6556 12.9213 56.6129 13.2946 56.5276 13.636C56.3142 14.5106 55.9089 15.1826 55.3116 15.652C54.7142 16.1213 53.9996 16.356 53.1676 16.356C52.3569 16.356 51.7382 16.164 51.3116 15.78C50.9062 15.396 50.5436 14.884 50.2236 14.244C50.0529 13.8813 49.8929 13.6146 49.7436 13.444C49.5942 13.2733 49.4236 13.188 49.2316 13.188C49.0182 13.188 48.8262 13.2733 48.6556 13.444C48.5062 13.6146 48.3676 13.9133 48.2396 14.34L45.7756 22.34C45.7329 22.4466 45.7116 22.6066 45.7116 22.82C45.7116 23.0973 45.7862 23.332 45.9356 23.524C46.1062 23.6946 46.3302 23.8653 46.6076 24.036C46.8636 24.2066 47.0342 24.3453 47.1196 24.452C47.2049 24.5586 47.2369 24.6973 47.2156 24.868C47.1729 25.1453 47.0129 25.348 46.7356 25.476C46.4796 25.604 46.0316 25.668 45.3916 25.668H37.1996C36.6449 25.668 36.2502 25.5826 36.0156 25.412C35.7596 25.22 35.6636 24.9746 35.7276 24.676C35.8129 24.42 36.0369 24.196 36.3996 24.004C36.7196 23.8333 36.9862 23.6306 37.1996 23.396C37.4129 23.1613 37.5942 22.788 37.7436 22.276L40.5916 13.028C40.6342 12.9213 40.6556 12.772 40.6556 12.58C40.6556 12.3453 40.6022 12.164 40.4956 12.036C40.4102 11.908 40.2609 11.748 40.0476 11.556C39.8342 11.3853 39.6849 11.236 39.5996 11.108C39.5142 10.98 39.5036 10.8093 39.5676 10.596C39.6956 10.1053 40.3676 9.67864 41.5836 9.31597C42.7996 8.93197 44.0689 8.73997 45.3916 8.73997C46.2662 8.73997 46.9916 8.94264 47.5676 9.34797C48.1436 9.73197 48.5169 10.2866 48.6876 11.012C49.7116 9.4973 51.0556 8.73997 52.7196 8.73997Z" stroke="white" stroke-width="2" mask="url(#path-1-outside-1_538_1117)"/>
<path d="M71.5463 8.61197C73.125 8.61197 74.3836 9.1773 75.3223 10.308C76.2823 11.4386 76.7623 12.932 76.7623 14.788C76.7623 15.748 76.645 16.6866 76.4103 17.604C75.7276 20.356 74.5543 22.436 72.8903 23.844C71.2476 25.252 69.349 25.956 67.1943 25.956C65.9783 25.956 64.9223 25.7533 64.0263 25.348C63.1516 24.9213 62.4476 24.324 61.9143 23.556L60.7623 24.548C60.3143 24.932 59.877 25.22 59.4503 25.412C59.0236 25.5826 58.533 25.668 57.9783 25.668H56.5703C56.037 25.668 55.621 25.5613 55.3223 25.348C55.045 25.1133 54.9063 24.7826 54.9063 24.356C54.9063 24.164 54.9383 23.94 55.0023 23.684L60.3463 6.30797C60.4103 6.11597 60.4423 5.95597 60.4423 5.82797C60.4423 5.4653 60.2183 5.12397 59.7703 4.80397C59.557 4.61197 59.4076 4.46264 59.3223 4.35597C59.237 4.22797 59.2263 4.06797 59.2903 3.87597C59.4396 3.3853 60.1116 2.95864 61.3063 2.59597C62.5223 2.21197 63.7916 2.01997 65.1143 2.01997C66.3516 2.01997 67.2583 2.2653 67.8343 2.75597C68.4316 3.2253 68.7303 3.8653 68.7303 4.67597C68.7303 5.12397 68.6556 5.57197 68.5063 6.01997L67.1623 10.372C68.3996 9.19864 69.861 8.61197 71.5463 8.61197ZM67.9303 17.412C68.357 15.9613 68.5703 14.788 68.5703 13.892C68.5703 12.9106 68.2823 12.42 67.7063 12.42C67.1943 12.42 66.7143 12.6866 66.2663 13.22L64.1863 20.004L63.9943 20.612C63.8876 20.932 63.8343 21.2626 63.8343 21.604C63.8343 22.3506 64.1863 22.724 64.8903 22.724C65.4023 22.724 65.893 22.3506 66.3623 21.604C66.8316 20.8573 67.3543 19.46 67.9303 17.412Z" stroke="white" stroke-width="2" mask="url(#path-1-outside-1_538_1117)"/>
<path d="M92.5946 8.73997C93.7892 8.73997 94.7386 9.10264 95.4426 9.82797C96.1679 10.5533 96.5306 11.4493 96.5306 12.516C96.5306 12.9213 96.4879 13.2946 96.4026 13.636C96.1892 14.5106 95.7839 15.1826 95.1866 15.652C94.5892 16.1213 93.8746 16.356 93.0426 16.356C92.2319 16.356 91.6132 16.164 91.1866 15.78C90.7812 15.396 90.4186 14.884 90.0986 14.244C89.9279 13.8813 89.7679 13.6146 89.6186 13.444C89.4692 13.2733 89.2986 13.188 89.1066 13.188C88.8932 13.188 88.7012 13.2733 88.5306 13.444C88.3812 13.6146 88.2426 13.9133 88.1146 14.34L85.6506 22.34C85.6079 22.4466 85.5866 22.6066 85.5866 22.82C85.5866 23.0973 85.6612 23.332 85.8106 23.524C85.9812 23.6946 86.2052 23.8653 86.4826 24.036C86.7386 24.2066 86.9092 24.3453 86.9946 24.452C87.0799 24.5586 87.1119 24.6973 87.0906 24.868C87.0479 25.1453 86.8879 25.348 86.6106 25.476C86.3546 25.604 85.9066 25.668 85.2666 25.668H77.0746C76.5199 25.668 76.1252 25.5826 75.8906 25.412C75.6346 25.22 75.5386 24.9746 75.6026 24.676C75.6879 24.42 75.9119 24.196 76.2746 24.004C76.5946 23.8333 76.8612 23.6306 77.0746 23.396C77.2879 23.1613 77.4692 22.788 77.6186 22.276L80.4666 13.028C80.5092 12.9213 80.5306 12.772 80.5306 12.58C80.5306 12.3453 80.4772 12.164 80.3706 12.036C80.2852 11.908 80.1359 11.748 79.9226 11.556C79.7092 11.3853 79.5599 11.236 79.4746 11.108C79.3892 10.98 79.3786 10.8093 79.4426 10.596C79.5706 10.1053 80.2426 9.67864 81.4586 9.31597C82.6746 8.93197 83.9439 8.73997 85.2666 8.73997C86.1412 8.73997 86.8666 8.94264 87.4426 9.34797C88.0186 9.73197 88.3919 10.2866 88.5626 11.012C89.5866 9.4973 90.9306 8.73997 92.5946 8.73997Z" stroke="white" stroke-width="2" mask="url(#path-1-outside-1_538_1117)"/>
<path d="M103.83 8.73997C105.067 8.73997 105.974 8.97464 106.55 9.44397C107.126 9.9133 107.414 10.5533 107.414 11.364C107.414 11.8546 107.339 12.324 107.19 12.772L104.246 22.34C104.182 22.596 104.15 22.82 104.15 23.012C104.15 23.2893 104.203 23.5133 104.31 23.684C104.416 23.8333 104.566 23.9826 104.758 24.132C104.907 24.2813 105.014 24.4093 105.078 24.516C105.142 24.6013 105.152 24.7186 105.11 24.868C105.003 25.1453 104.79 25.348 104.47 25.476C104.15 25.604 103.659 25.668 102.998 25.668H95.7018C95.1471 25.668 94.7418 25.5826 94.4858 25.412C94.2298 25.22 94.1445 24.9746 94.2298 24.676C94.3151 24.42 94.5391 24.196 94.9018 24.004C95.2218 23.8333 95.4885 23.6306 95.7018 23.396C95.9151 23.1613 96.0965 22.788 96.2458 22.276L99.0298 13.028C99.0938 12.836 99.1258 12.676 99.1258 12.548C99.1258 12.3133 99.0725 12.132 98.9658 12.004C98.8591 11.8546 98.6991 11.7053 98.4858 11.556C98.2725 11.3853 98.1231 11.236 98.0378 11.108C97.9525 10.98 97.9418 10.8093 98.0058 10.596C98.1338 10.1053 98.8058 9.67864 100.022 9.31597C101.238 8.93197 102.507 8.73997 103.83 8.73997ZM105.974 1.66797C106.806 1.66797 107.499 1.9453 108.054 2.49997C108.608 3.0333 108.886 3.69464 108.886 4.48397C108.886 5.03864 108.736 5.58264 108.438 6.11597C108.16 6.6493 107.755 7.08664 107.222 7.42797C106.71 7.74797 106.134 7.90797 105.494 7.90797C104.683 7.90797 104 7.6413 103.446 7.10797C102.912 6.5533 102.635 5.87064 102.614 5.05997C102.614 4.52664 102.752 4.00397 103.03 3.49197C103.307 2.95864 103.702 2.5213 104.214 2.17997C104.726 1.83864 105.312 1.66797 105.974 1.66797Z" stroke="white" stroke-width="2" mask="url(#path-1-outside-1_538_1117)"/>
<path d="M125.021 21.06C124.978 21.2306 124.957 21.348 124.957 21.412C124.957 21.5613 124.999 21.6786 125.085 21.764C125.17 21.8493 125.277 21.892 125.405 21.892C125.661 21.892 125.874 21.7853 126.045 21.572C126.237 21.3373 126.365 21.22 126.429 21.22C126.535 21.22 126.621 21.2946 126.685 21.444C126.749 21.5933 126.781 21.764 126.781 21.956C126.802 22.532 126.578 23.1186 126.109 23.716C125.661 24.3133 125.053 24.804 124.285 25.188C123.517 25.572 122.685 25.764 121.789 25.764C120.722 25.764 119.794 25.5613 119.005 25.156C118.215 24.7506 117.671 24.2173 117.373 23.556C116.797 24.3026 116.135 24.8573 115.389 25.22C114.642 25.5826 113.853 25.764 113.021 25.764C112.039 25.764 111.122 25.5186 110.269 25.028C109.437 24.5373 108.765 23.844 108.253 22.948C107.762 22.0306 107.517 20.996 107.517 19.844C107.517 17.9026 107.879 16.0786 108.605 14.372C109.351 12.644 110.386 11.2573 111.709 10.212C113.031 9.1453 114.535 8.61197 116.221 8.61197C117.138 8.61197 117.917 8.71864 118.557 8.93197C119.218 9.1453 119.815 9.4653 120.349 9.89197L121.437 6.30797C121.501 6.11597 121.533 5.95597 121.533 5.82797C121.533 5.5933 121.469 5.4013 121.341 5.25197C121.234 5.10264 121.085 4.9533 120.893 4.80397C120.679 4.6333 120.519 4.48397 120.413 4.35597C120.327 4.22797 120.317 4.0573 120.381 3.84397C120.509 3.3533 121.181 2.92664 122.397 2.56397C123.613 2.2013 124.882 2.01997 126.205 2.01997C127.442 2.01997 128.349 2.25464 128.925 2.72397C129.522 3.1933 129.821 3.8333 129.821 4.64397C129.821 5.1133 129.746 5.57197 129.597 6.01997L125.021 21.06ZM119.677 12.068C119.335 11.7693 118.962 11.62 118.557 11.62C117.938 11.62 117.33 12.0786 116.733 12.996C116.135 13.9133 115.655 15.0226 115.293 16.324C114.93 17.6253 114.759 18.7986 114.781 19.844C114.781 21.0173 115.165 21.604 115.933 21.604C116.21 21.604 116.445 21.4973 116.637 21.284C116.829 21.0493 117.01 20.676 117.181 20.164L119.677 12.068Z" stroke="white" stroke-width="2" mask="url(#path-1-outside-1_538_1117)"/>
<path d="M147.493 3.52397C148.176 3.52397 148.837 3.6733 149.477 3.97197C150.139 4.2493 150.672 4.64397 151.077 5.15597C151.504 5.64664 151.717 6.17997 151.717 6.75597C151.717 8.01464 150.864 8.64397 149.157 8.64397C148.667 8.64397 148.283 8.61197 148.005 8.54797C147.749 8.46264 147.44 8.33464 147.077 8.16397C147.013 8.3133 146.981 8.52664 146.981 8.80397C146.981 9.1453 147.035 9.55064 147.141 10.02C147.269 10.4893 147.419 10.9266 147.589 11.332C148.037 11.9933 148.261 12.7826 148.261 13.7C148.261 14.1053 148.208 14.596 148.101 15.172C147.845 16.2813 147.28 17.2946 146.405 18.212C145.552 19.1293 144.443 19.8546 143.077 20.388C141.733 20.9 140.251 21.156 138.629 21.156C137.392 21.156 136.229 21.0706 135.141 20.9C134.821 21.1773 134.661 21.5186 134.661 21.924C134.661 22.2013 134.789 22.436 135.045 22.628C135.301 22.7986 135.728 22.884 136.325 22.884H141.125C142.768 22.884 144.048 23.172 144.965 23.748C145.883 24.3026 146.341 25.1026 146.341 26.148C146.341 26.532 146.277 26.9266 146.149 27.332C145.893 28.164 145.307 28.932 144.389 29.636C143.493 30.3613 142.224 30.948 140.581 31.396C138.939 31.844 136.944 32.068 134.597 32.068C132.507 32.068 130.736 31.8866 129.285 31.524C127.835 31.1613 126.757 30.66 126.053 30.02C125.328 29.4013 124.965 28.708 124.965 27.94C124.965 27.7693 125.008 27.5133 125.093 27.172C125.285 26.5533 125.723 26.052 126.405 25.668C127.067 25.2626 128.165 24.996 129.701 24.868C129.189 24.3773 128.933 23.7906 128.933 23.108C128.933 22.8733 128.965 22.628 129.029 22.372C129.371 21.2626 130.373 20.4413 132.037 19.908C130.437 19.0333 129.637 17.7533 129.637 16.068C129.637 15.5986 129.701 15.108 129.829 14.596C130.085 13.4866 130.651 12.484 131.525 11.588C132.4 10.6706 133.52 9.9453 134.885 9.41197C136.251 8.87864 137.744 8.61197 139.365 8.61197C141.904 8.61197 143.899 8.94264 145.349 9.60397C145.029 9.1133 144.773 8.59064 144.581 8.03597C144.411 7.45997 144.325 6.9373 144.325 6.46797C144.325 5.6573 144.581 4.96397 145.093 4.38797C145.627 3.81197 146.427 3.52397 147.493 3.52397ZM140.549 14.884C140.891 13.796 141.061 12.964 141.061 12.388C141.061 11.6626 140.752 11.3 140.133 11.3C139.6 11.3 139.131 11.5666 138.725 12.1C138.341 12.612 137.947 13.54 137.541 14.884C137.2 15.9933 137.029 16.836 137.029 17.412C137.029 18.116 137.328 18.468 137.925 18.468C138.459 18.468 138.928 18.2013 139.333 17.668C139.739 17.1346 140.144 16.2066 140.549 14.884ZM134.181 26.116C133.584 26.116 133.04 26.084 132.549 26.02C132.293 26.34 132.165 26.7666 132.165 27.3C132.187 27.8333 132.4 28.2173 132.805 28.452C133.232 28.6866 133.883 28.804 134.757 28.804C135.824 28.804 136.688 28.644 137.349 28.324C138.032 28.004 138.373 27.5453 138.373 26.948C138.373 26.692 138.277 26.4893 138.085 26.34C137.893 26.1906 137.616 26.116 137.253 26.116H134.181Z" stroke="white" stroke-width="2" mask="url(#path-1-outside-1_538_1117)"/>
<path d="M159.262 8.57997C161.971 8.57997 163.934 9.0173 165.15 9.89197C166.366 10.7453 166.974 11.844 166.974 13.188C166.974 13.5933 166.931 13.9666 166.846 14.308C166.526 15.716 165.63 16.7293 164.158 17.348C162.707 17.9453 160.99 18.244 159.006 18.244C158.003 18.244 157.064 18.18 156.19 18.052C156.168 19.1613 156.467 19.94 157.086 20.388C157.704 20.836 158.568 21.06 159.678 21.06C160.19 21.06 160.68 21.0066 161.15 20.9C161.619 20.772 162.216 20.5906 162.942 20.356C163.539 20.1426 163.944 20.036 164.158 20.036C164.392 20.036 164.51 20.1746 164.51 20.452C164.531 21.1986 164.254 21.988 163.678 22.82C163.102 23.6306 162.248 24.324 161.118 24.9C159.987 25.476 158.622 25.764 157.022 25.764C154.654 25.764 152.712 25.1666 151.198 23.972C149.683 22.7773 148.926 21.0386 148.926 18.756C148.926 18.116 149.011 17.3693 149.182 16.516C149.715 13.892 150.878 11.9186 152.67 10.596C154.483 9.25197 156.68 8.57997 159.262 8.57997ZM156.414 16.132C156.499 16.1533 156.616 16.164 156.766 16.164C157.662 16.164 158.344 15.748 158.814 14.916C159.283 14.084 159.507 13.156 159.486 12.132C159.464 11.5346 159.294 11.236 158.974 11.236C158.739 11.236 158.462 11.428 158.142 11.812C157.822 12.1746 157.502 12.7293 157.182 13.476C156.883 14.2226 156.627 15.108 156.414 16.132Z" stroke="white" stroke-width="2" mask="url(#path-1-outside-1_538_1117)"/>
</svg>
