<svg width="405" height="723" viewBox="0 0 405 723" fill="none" xmlns="http://www.w3.org/2000/svg">
<g clip-path="url(#clip0_157_6736)">
<rect x="0.336426" y="0.558594" width="404" height="722" rx="8" fill="white"/>
<path d="M1.33643 8.5586C1.33643 4.6926 4.47043 1.55859 8.33643 1.55859H446.336C450.202 1.55859 453.336 4.6926 453.336 8.55859V70.5586H1.33643V8.5586Z" fill="white"/>
<path d="M1.33643 8.5586C1.33643 4.6926 4.47043 1.55859 8.33643 1.55859H446.336C450.202 1.55859 453.336 4.6926 453.336 8.55859V70.5586H1.33643V8.5586Z" stroke="#1B1D1F" stroke-width="2"/>
<rect x="38.0669" y="323.146" width="324.92" height="319.678" fill="white" stroke="black" stroke-width="2"/>
<path d="M263.165 594.449C263.165 595.126 262.998 595.71 262.665 596.199C262.336 596.689 261.862 597.064 261.243 597.324C260.628 597.585 259.894 597.715 259.04 597.715C258.623 597.715 258.224 597.691 257.844 597.645C257.464 597.598 257.105 597.53 256.766 597.441C256.433 597.348 256.128 597.236 255.852 597.105V595.34C256.316 595.543 256.834 595.728 257.407 595.895C257.98 596.056 258.563 596.137 259.157 596.137C259.641 596.137 260.042 596.074 260.36 595.949C260.683 595.819 260.922 595.637 261.079 595.402C261.235 595.163 261.313 594.884 261.313 594.566C261.313 594.228 261.222 593.941 261.04 593.707C260.857 593.473 260.581 593.259 260.211 593.066C259.847 592.868 259.389 592.658 258.836 592.434C258.461 592.283 258.102 592.111 257.758 591.918C257.42 591.725 257.118 591.499 256.852 591.238C256.586 590.978 256.375 590.671 256.219 590.316C256.068 589.957 255.993 589.535 255.993 589.051C255.993 588.405 256.146 587.853 256.454 587.395C256.766 586.936 257.204 586.585 257.766 586.34C258.334 586.095 258.995 585.973 259.75 585.973C260.349 585.973 260.912 586.035 261.438 586.16C261.969 586.285 262.49 586.462 263 586.691L262.407 588.199C261.938 588.007 261.482 587.853 261.04 587.738C260.602 587.624 260.154 587.566 259.696 587.566C259.3 587.566 258.964 587.626 258.688 587.746C258.412 587.866 258.201 588.035 258.055 588.254C257.915 588.467 257.844 588.723 257.844 589.02C257.844 589.353 257.925 589.634 258.086 589.863C258.253 590.087 258.508 590.293 258.852 590.48C259.201 590.668 259.649 590.876 260.196 591.105C260.826 591.366 261.36 591.639 261.797 591.926C262.24 592.212 262.579 592.556 262.813 592.957C263.047 593.353 263.165 593.85 263.165 594.449ZM267.016 588.91V597.559H265.18V588.91H267.016ZM266.11 585.598C266.391 585.598 266.633 585.673 266.836 585.824C267.045 585.975 267.149 586.236 267.149 586.605C267.149 586.97 267.045 587.23 266.836 587.387C266.633 587.538 266.391 587.613 266.11 587.613C265.818 587.613 265.571 587.538 265.368 587.387C265.17 587.23 265.071 586.97 265.071 586.605C265.071 586.236 265.17 585.975 265.368 585.824C265.571 585.673 265.818 585.598 266.11 585.598ZM272.118 601.402C270.946 601.402 270.047 601.191 269.422 600.77C268.797 600.348 268.485 599.757 268.485 598.996C268.485 598.465 268.652 598.014 268.985 597.645C269.318 597.28 269.795 597.027 270.415 596.887C270.18 596.783 269.977 596.621 269.805 596.402C269.639 596.178 269.555 595.931 269.555 595.66C269.555 595.337 269.646 595.061 269.829 594.832C270.011 594.603 270.284 594.382 270.649 594.168C270.196 593.975 269.831 593.663 269.555 593.23C269.284 592.793 269.149 592.28 269.149 591.691C269.149 591.066 269.282 590.535 269.547 590.098C269.813 589.655 270.201 589.319 270.711 589.09C271.222 588.855 271.839 588.738 272.563 588.738C272.719 588.738 272.889 588.749 273.071 588.77C273.258 588.785 273.43 588.806 273.586 588.832C273.748 588.853 273.87 588.876 273.954 588.902H276.946V589.926L275.477 590.199C275.618 590.397 275.73 590.624 275.813 590.879C275.896 591.129 275.938 591.402 275.938 591.699C275.938 592.595 275.628 593.301 275.008 593.816C274.394 594.327 273.545 594.582 272.461 594.582C272.201 594.572 271.948 594.551 271.704 594.52C271.516 594.634 271.373 594.762 271.274 594.902C271.175 595.038 271.125 595.191 271.125 595.363C271.125 595.504 271.175 595.618 271.274 595.707C271.373 595.79 271.519 595.853 271.711 595.895C271.909 595.936 272.149 595.957 272.43 595.957H273.922C274.87 595.957 275.594 596.158 276.094 596.559C276.594 596.96 276.844 597.548 276.844 598.324C276.844 599.309 276.438 600.066 275.625 600.598C274.813 601.134 273.644 601.402 272.118 601.402ZM272.188 600.113C272.829 600.113 273.368 600.051 273.805 599.926C274.243 599.801 274.573 599.621 274.797 599.387C275.021 599.158 275.133 598.884 275.133 598.566C275.133 598.285 275.063 598.069 274.922 597.918C274.782 597.767 274.571 597.663 274.29 597.605C274.008 597.548 273.659 597.52 273.243 597.52H271.883C271.545 597.52 271.245 597.572 270.985 597.676C270.724 597.785 270.521 597.941 270.375 598.145C270.235 598.348 270.165 598.592 270.165 598.879C270.165 599.275 270.339 599.579 270.688 599.793C271.042 600.007 271.542 600.113 272.188 600.113ZM272.547 593.379C273.084 593.379 273.482 593.233 273.743 592.941C274.003 592.645 274.133 592.228 274.133 591.691C274.133 591.108 273.998 590.671 273.727 590.379C273.461 590.087 273.066 589.941 272.54 589.941C272.024 589.941 271.631 590.09 271.36 590.387C271.094 590.684 270.961 591.124 270.961 591.707C270.961 592.233 271.094 592.645 271.36 592.941C271.631 593.233 272.027 593.379 272.547 593.379ZM283.032 588.746C284.006 588.746 284.764 588.999 285.305 589.504C285.852 590.004 286.125 590.809 286.125 591.918V597.559H284.29V592.262C284.29 591.59 284.152 591.087 283.875 590.754C283.599 590.415 283.172 590.246 282.594 590.246C281.756 590.246 281.172 590.504 280.844 591.02C280.521 591.535 280.36 592.283 280.36 593.262V597.559H278.524V588.91H279.954L280.211 590.082H280.313C280.5 589.78 280.732 589.533 281.008 589.34C281.29 589.142 281.602 588.993 281.946 588.895C282.295 588.796 282.657 588.746 283.032 588.746ZM293.04 597.559V586.137H294.915V597.559H293.04ZM302.25 588.746C303.224 588.746 303.982 588.999 304.524 589.504C305.071 590.004 305.344 590.809 305.344 591.918V597.559H303.508V592.262C303.508 591.59 303.37 591.087 303.094 590.754C302.818 590.415 302.391 590.246 301.813 590.246C300.974 590.246 300.391 590.504 300.063 591.02C299.74 591.535 299.579 592.283 299.579 593.262V597.559H297.743V588.91H299.172L299.43 590.082H299.532C299.719 589.78 299.951 589.533 300.227 589.34C300.508 589.142 300.821 588.993 301.165 588.895C301.514 588.796 301.875 588.746 302.25 588.746Z" fill="#495057"/>
<rect x="221.836" y="572.559" width="118" height="38" stroke="#495057" stroke-width="2"/>
<rect x="74.8364" y="400.559" width="255" height="38" fill="white"/>
<path d="M97.7583 425.559H91.3989V414.137H97.7583V415.309H92.7271V419.004H97.4692V420.16H92.7271V424.387H97.7583V425.559ZM109.391 416.84C110.334 416.84 111.045 417.087 111.524 417.582C112.003 418.072 112.243 418.861 112.243 419.949V425.559H110.961V420.012C110.961 419.319 110.81 418.801 110.508 418.457C110.211 418.108 109.769 417.934 109.18 417.934C108.352 417.934 107.75 418.173 107.375 418.652C107 419.132 106.813 419.837 106.813 420.77V425.559H105.524V420.012C105.524 419.548 105.456 419.163 105.321 418.855C105.191 418.548 104.993 418.319 104.727 418.168C104.467 418.012 104.136 417.934 103.735 417.934C103.167 417.934 102.711 418.051 102.368 418.285C102.024 418.52 101.774 418.868 101.618 419.332C101.467 419.79 101.391 420.355 101.391 421.027V425.559H100.094V416.996H101.141L101.336 418.207H101.407C101.579 417.91 101.795 417.66 102.055 417.457C102.316 417.254 102.607 417.1 102.93 416.996C103.253 416.892 103.597 416.84 103.961 416.84C104.612 416.84 105.157 416.962 105.594 417.207C106.037 417.447 106.357 417.814 106.555 418.309H106.625C106.907 417.814 107.292 417.447 107.782 417.207C108.271 416.962 108.808 416.84 109.391 416.84ZM118.11 416.855C119.131 416.855 119.889 417.085 120.383 417.543C120.878 418.001 121.125 418.733 121.125 419.738V425.559H120.18L119.93 424.293H119.868C119.628 424.605 119.378 424.868 119.118 425.082C118.857 425.29 118.555 425.449 118.211 425.559C117.873 425.663 117.456 425.715 116.961 425.715C116.441 425.715 115.977 425.624 115.571 425.441C115.17 425.259 114.852 424.983 114.618 424.613C114.389 424.243 114.274 423.775 114.274 423.207C114.274 422.353 114.612 421.697 115.29 421.238C115.967 420.78 116.998 420.53 118.383 420.488L119.86 420.426V419.902C119.86 419.163 119.701 418.645 119.383 418.348C119.066 418.051 118.618 417.902 118.04 417.902C117.592 417.902 117.165 417.967 116.758 418.098C116.352 418.228 115.967 418.382 115.602 418.559L115.204 417.574C115.589 417.376 116.032 417.207 116.532 417.066C117.032 416.926 117.558 416.855 118.11 416.855ZM119.844 421.34L118.54 421.395C117.472 421.436 116.719 421.611 116.282 421.918C115.844 422.225 115.625 422.66 115.625 423.223C115.625 423.712 115.774 424.074 116.071 424.309C116.368 424.543 116.761 424.66 117.25 424.66C118.011 424.66 118.633 424.449 119.118 424.027C119.602 423.605 119.844 422.973 119.844 422.129V421.34ZM125.094 416.996V425.559H123.797V416.996H125.094ZM124.461 413.793C124.675 413.793 124.857 413.863 125.008 414.004C125.165 414.139 125.243 414.353 125.243 414.645C125.243 414.931 125.165 415.145 125.008 415.285C124.857 415.426 124.675 415.496 124.461 415.496C124.237 415.496 124.05 415.426 123.899 415.285C123.753 415.145 123.68 414.931 123.68 414.645C123.68 414.353 123.753 414.139 123.899 414.004C124.05 413.863 124.237 413.793 124.461 413.793ZM129.149 425.559H127.844V413.402H129.149V425.559Z" fill="#495057"/>
<rect x="74.8364" y="400.559" width="255" height="38" stroke="#B2B9C0" stroke-width="2"/>
<rect x="74.8364" y="458.559" width="255" height="38" fill="white"/>
<path d="M94.3833 472.137C95.8573 472.137 96.9328 472.426 97.6099 473.004C98.2922 473.577 98.6333 474.4 98.6333 475.473C98.6333 475.957 98.5526 476.418 98.3911 476.855C98.2349 477.288 97.9797 477.671 97.6255 478.004C97.2713 478.332 96.8052 478.592 96.2271 478.785C95.6541 478.973 94.951 479.066 94.1177 479.066H92.7271V483.559H91.3989V472.137H94.3833ZM94.2583 473.27H92.7271V477.926H93.9692C94.6984 477.926 95.3052 477.848 95.7896 477.691C96.2791 477.535 96.6463 477.283 96.8911 476.934C97.1359 476.579 97.2583 476.111 97.2583 475.527C97.2583 474.767 97.0161 474.202 96.5317 473.832C96.0474 473.457 95.2896 473.27 94.2583 473.27ZM104.032 474.855C105.053 474.855 105.81 475.085 106.305 475.543C106.8 476.001 107.047 476.733 107.047 477.738V483.559H106.102L105.852 482.293H105.79C105.55 482.605 105.3 482.868 105.04 483.082C104.779 483.29 104.477 483.449 104.133 483.559C103.795 483.663 103.378 483.715 102.883 483.715C102.362 483.715 101.899 483.624 101.493 483.441C101.092 483.259 100.774 482.983 100.54 482.613C100.31 482.243 100.196 481.775 100.196 481.207C100.196 480.353 100.534 479.697 101.211 479.238C101.889 478.78 102.92 478.53 104.305 478.488L105.782 478.426V477.902C105.782 477.163 105.623 476.645 105.305 476.348C104.987 476.051 104.54 475.902 103.961 475.902C103.514 475.902 103.086 475.967 102.68 476.098C102.274 476.228 101.889 476.382 101.524 476.559L101.125 475.574C101.511 475.376 101.954 475.207 102.454 475.066C102.954 474.926 103.48 474.855 104.032 474.855ZM105.766 479.34L104.461 479.395C103.394 479.436 102.641 479.611 102.204 479.918C101.766 480.225 101.547 480.66 101.547 481.223C101.547 481.712 101.696 482.074 101.993 482.309C102.29 482.543 102.683 482.66 103.172 482.66C103.933 482.66 104.555 482.449 105.04 482.027C105.524 481.605 105.766 480.973 105.766 480.129V479.34ZM115.258 481.215C115.258 481.762 115.12 482.223 114.844 482.598C114.573 482.967 114.183 483.246 113.672 483.434C113.167 483.621 112.563 483.715 111.86 483.715C111.261 483.715 110.743 483.668 110.305 483.574C109.868 483.48 109.485 483.348 109.157 483.176V481.98C109.506 482.152 109.922 482.309 110.407 482.449C110.891 482.59 111.386 482.66 111.891 482.66C112.631 482.66 113.167 482.54 113.5 482.301C113.834 482.061 114 481.736 114 481.324C114 481.09 113.933 480.884 113.797 480.707C113.667 480.525 113.446 480.35 113.133 480.184C112.821 480.012 112.389 479.824 111.836 479.621C111.29 479.413 110.816 479.207 110.415 479.004C110.019 478.796 109.711 478.543 109.493 478.246C109.279 477.949 109.172 477.564 109.172 477.09C109.172 476.366 109.464 475.811 110.047 475.426C110.636 475.035 111.407 474.84 112.36 474.84C112.875 474.84 113.357 474.892 113.805 474.996C114.258 475.095 114.68 475.23 115.071 475.402L114.633 476.441C114.279 476.29 113.902 476.163 113.5 476.059C113.099 475.954 112.691 475.902 112.274 475.902C111.675 475.902 111.214 476.001 110.891 476.199C110.573 476.397 110.415 476.668 110.415 477.012C110.415 477.277 110.487 477.496 110.633 477.668C110.784 477.84 111.024 478.001 111.352 478.152C111.68 478.303 112.112 478.48 112.649 478.684C113.185 478.882 113.649 479.087 114.04 479.301C114.43 479.509 114.73 479.764 114.938 480.066C115.152 480.363 115.258 480.746 115.258 481.215ZM122.883 481.215C122.883 481.762 122.745 482.223 122.469 482.598C122.198 482.967 121.808 483.246 121.297 483.434C120.792 483.621 120.188 483.715 119.485 483.715C118.886 483.715 118.368 483.668 117.93 483.574C117.493 483.48 117.11 483.348 116.782 483.176V481.98C117.131 482.152 117.547 482.309 118.032 482.449C118.516 482.59 119.011 482.66 119.516 482.66C120.256 482.66 120.792 482.54 121.125 482.301C121.459 482.061 121.625 481.736 121.625 481.324C121.625 481.09 121.558 480.884 121.422 480.707C121.292 480.525 121.071 480.35 120.758 480.184C120.446 480.012 120.014 479.824 119.461 479.621C118.915 479.413 118.441 479.207 118.04 479.004C117.644 478.796 117.336 478.543 117.118 478.246C116.904 477.949 116.797 477.564 116.797 477.09C116.797 476.366 117.089 475.811 117.672 475.426C118.261 475.035 119.032 474.84 119.985 474.84C120.5 474.84 120.982 474.892 121.43 474.996C121.883 475.095 122.305 475.23 122.696 475.402L122.258 476.441C121.904 476.29 121.527 476.163 121.125 476.059C120.724 475.954 120.316 475.902 119.899 475.902C119.3 475.902 118.839 476.001 118.516 476.199C118.198 476.397 118.04 476.668 118.04 477.012C118.04 477.277 118.112 477.496 118.258 477.668C118.409 477.84 118.649 478.001 118.977 478.152C119.305 478.303 119.737 478.48 120.274 478.684C120.81 478.882 121.274 479.087 121.665 479.301C122.055 479.509 122.355 479.764 122.563 480.066C122.777 480.363 122.883 480.746 122.883 481.215ZM131.938 483.543L130.415 478.559C130.347 478.345 130.282 478.137 130.219 477.934C130.162 477.725 130.107 477.527 130.055 477.34C130.008 477.147 129.964 476.97 129.922 476.809C129.886 476.642 129.855 476.499 129.829 476.379H129.774C129.753 476.499 129.724 476.642 129.688 476.809C129.652 476.97 129.607 477.147 129.555 477.34C129.508 477.533 129.456 477.736 129.399 477.949C129.342 478.158 129.277 478.368 129.204 478.582L127.61 483.543H126.149L123.79 474.98H125.133L126.368 479.707C126.451 480.02 126.529 480.329 126.602 480.637C126.68 480.939 126.745 481.225 126.797 481.496C126.855 481.762 126.896 481.993 126.922 482.191H126.985C127.016 482.061 127.05 481.905 127.086 481.723C127.128 481.54 127.172 481.348 127.219 481.145C127.271 480.936 127.326 480.73 127.383 480.527C127.441 480.319 127.498 480.124 127.555 479.941L129.133 474.98H130.532L132.055 479.934C132.133 480.184 132.209 480.444 132.282 480.715C132.36 480.986 132.43 481.249 132.493 481.504C132.555 481.754 132.599 481.978 132.625 482.176H132.688C132.709 481.999 132.748 481.78 132.805 481.52C132.862 481.259 132.928 480.973 133 480.66C133.079 480.348 133.159 480.03 133.243 479.707L134.493 474.98H135.813L133.446 483.543H131.938ZM144.758 479.262C144.758 479.965 144.667 480.592 144.485 481.145C144.303 481.697 144.04 482.163 143.696 482.543C143.352 482.923 142.935 483.215 142.446 483.418C141.961 483.616 141.412 483.715 140.797 483.715C140.224 483.715 139.698 483.616 139.219 483.418C138.745 483.215 138.334 482.923 137.985 482.543C137.641 482.163 137.373 481.697 137.18 481.145C136.993 480.592 136.899 479.965 136.899 479.262C136.899 478.324 137.058 477.527 137.375 476.871C137.693 476.21 138.146 475.707 138.735 475.363C139.329 475.014 140.034 474.84 140.852 474.84C141.633 474.84 142.316 475.014 142.899 475.363C143.487 475.712 143.943 476.217 144.266 476.879C144.594 477.535 144.758 478.329 144.758 479.262ZM138.243 479.262C138.243 479.949 138.334 480.546 138.516 481.051C138.698 481.556 138.98 481.947 139.36 482.223C139.74 482.499 140.23 482.637 140.829 482.637C141.422 482.637 141.909 482.499 142.29 482.223C142.675 481.947 142.959 481.556 143.141 481.051C143.323 480.546 143.415 479.949 143.415 479.262C143.415 478.579 143.323 477.991 143.141 477.496C142.959 476.996 142.678 476.611 142.297 476.34C141.917 476.069 141.425 475.934 140.821 475.934C139.93 475.934 139.277 476.228 138.86 476.816C138.448 477.405 138.243 478.22 138.243 479.262ZM150.891 474.84C151.063 474.84 151.243 474.85 151.43 474.871C151.618 474.887 151.784 474.91 151.93 474.941L151.766 476.145C151.625 476.108 151.469 476.079 151.297 476.059C151.125 476.038 150.964 476.027 150.813 476.027C150.469 476.027 150.144 476.098 149.836 476.238C149.534 476.374 149.269 476.572 149.04 476.832C148.81 477.087 148.631 477.397 148.5 477.762C148.37 478.121 148.305 478.522 148.305 478.965V483.559H147V474.996H148.079L148.219 476.574H148.274C148.451 476.257 148.665 475.967 148.915 475.707C149.165 475.441 149.454 475.23 149.782 475.074C150.115 474.918 150.485 474.84 150.891 474.84ZM156.594 483.715C155.511 483.715 154.652 483.345 154.016 482.605C153.386 481.866 153.071 480.767 153.071 479.309C153.071 477.835 153.394 476.723 154.04 475.973C154.685 475.217 155.545 474.84 156.618 474.84C157.071 474.84 157.467 474.9 157.805 475.02C158.144 475.139 158.435 475.301 158.68 475.504C158.925 475.702 159.131 475.928 159.297 476.184H159.391C159.37 476.022 159.349 475.801 159.329 475.52C159.308 475.238 159.297 475.009 159.297 474.832V471.402H160.594V483.559H159.547L159.352 482.34H159.297C159.136 482.595 158.93 482.827 158.68 483.035C158.435 483.243 158.141 483.41 157.797 483.535C157.459 483.655 157.058 483.715 156.594 483.715ZM156.797 482.637C157.714 482.637 158.362 482.376 158.743 481.855C159.123 481.335 159.313 480.561 159.313 479.535V479.301C159.313 478.212 159.131 477.376 158.766 476.793C158.407 476.21 157.75 475.918 156.797 475.918C156 475.918 155.404 476.225 155.008 476.84C154.612 477.449 154.415 478.283 154.415 479.34C154.415 480.392 154.61 481.204 155 481.777C155.396 482.35 155.995 482.637 156.797 482.637Z" fill="#495057"/>
<rect x="74.8364" y="458.559" width="255" height="38" stroke="#B2B9C0" stroke-width="2"/>
<path d="M103.127 186.896C103.127 187.953 102.871 188.873 102.358 189.654C101.846 190.436 101.097 191.038 100.112 191.461C99.1357 191.884 97.9476 192.096 96.5479 192.096C95.9294 192.096 95.3231 192.055 94.729 191.974C94.1431 191.892 93.5775 191.774 93.0322 191.62C92.4951 191.457 91.9824 191.257 91.4941 191.021V187.506C92.3405 187.88 93.2194 188.218 94.1309 188.519C95.0423 188.82 95.9456 188.971 96.8408 188.971C97.4593 188.971 97.9557 188.889 98.3301 188.727C98.7126 188.564 98.9893 188.34 99.1602 188.055C99.3311 187.77 99.4165 187.445 99.4165 187.079C99.4165 186.631 99.266 186.249 98.9648 185.931C98.6637 185.614 98.2487 185.317 97.7197 185.04C97.1989 184.763 96.6089 184.466 95.9497 184.149C95.5347 183.954 95.083 183.718 94.5947 183.441C94.1064 183.156 93.6426 182.81 93.2031 182.403C92.7637 181.996 92.4015 181.504 92.1167 180.926C91.84 180.34 91.7017 179.64 91.7017 178.827C91.7017 177.761 91.9458 176.849 92.4341 176.092C92.9224 175.335 93.6182 174.758 94.5215 174.359C95.4329 173.952 96.5072 173.749 97.7441 173.749C98.6719 173.749 99.5549 173.858 100.393 174.078C101.239 174.29 102.122 174.599 103.042 175.006L101.821 177.948C100.999 177.614 100.263 177.358 99.6118 177.179C98.9608 176.992 98.2975 176.898 97.6221 176.898C97.1501 176.898 96.7472 176.975 96.4136 177.13C96.0799 177.276 95.8276 177.488 95.6567 177.765C95.4858 178.033 95.4004 178.347 95.4004 178.705C95.4004 179.128 95.5225 179.486 95.7666 179.779C96.0189 180.064 96.3932 180.34 96.8896 180.609C97.3942 180.877 98.0208 181.191 98.7695 181.549C99.681 181.98 100.458 182.432 101.101 182.904C101.752 183.368 102.253 183.917 102.603 184.552C102.952 185.178 103.127 185.96 103.127 186.896ZM106.362 191.852V174.005H110.146V191.852H106.362ZM121.414 181.83H128.494V191.083C127.558 191.392 126.585 191.64 125.576 191.827C124.567 192.006 123.424 192.096 122.146 192.096C120.372 192.096 118.866 191.746 117.629 191.046C116.392 190.346 115.452 189.312 114.81 187.945C114.167 186.578 113.845 184.898 113.845 182.904C113.845 181.032 114.203 179.413 114.919 178.045C115.644 176.678 116.698 175.62 118.081 174.872C119.473 174.123 121.169 173.749 123.171 173.749C124.115 173.749 125.047 173.85 125.967 174.054C126.886 174.257 127.721 174.522 128.469 174.847L127.212 177.875C126.667 177.598 126.044 177.366 125.344 177.179C124.644 176.992 123.912 176.898 123.147 176.898C122.048 176.898 121.092 177.15 120.278 177.655C119.473 178.159 118.846 178.867 118.398 179.779C117.959 180.682 117.739 181.748 117.739 182.977C117.739 184.141 117.898 185.174 118.215 186.078C118.533 186.973 119.033 187.677 119.717 188.189C120.4 188.694 121.292 188.946 122.39 188.946C122.927 188.946 123.379 188.922 123.745 188.873C124.119 188.816 124.469 188.759 124.795 188.702V184.979H121.414V181.83ZM148.586 191.852H143.777L136.013 178.351H135.903C135.936 178.912 135.964 179.478 135.989 180.047C136.013 180.617 136.038 181.187 136.062 181.756C136.086 182.318 136.111 182.883 136.135 183.453V191.852H132.754V174.005H137.527L145.278 187.372H145.364C145.347 186.818 145.327 186.269 145.303 185.724C145.278 185.178 145.254 184.633 145.229 184.088C145.213 183.543 145.197 182.997 145.181 182.452V174.005H148.586V191.852ZM159.585 191.852V174.005H163.369V191.852H159.585ZM183.694 191.852H178.884L171.121 178.351H171.011C171.043 178.912 171.072 179.478 171.096 180.047C171.121 180.617 171.145 181.187 171.169 181.756C171.194 182.318 171.218 182.883 171.243 183.453V191.852H167.861V174.005H172.634L180.386 187.372H180.471C180.455 186.818 180.435 186.269 180.41 185.724C180.386 185.178 180.361 184.633 180.337 184.088C180.321 183.543 180.304 182.997 180.288 182.452V174.005H183.694V191.852ZM201.577 191.852H197.793V177.154H192.947V174.005H206.423V177.154H201.577V191.852ZM225.369 182.904C225.369 184.279 225.198 185.532 224.856 186.664C224.514 187.787 223.993 188.755 223.293 189.569C222.602 190.383 221.723 191.009 220.657 191.449C219.591 191.88 218.329 192.096 216.873 192.096C215.416 192.096 214.154 191.88 213.088 191.449C212.022 191.009 211.139 190.383 210.439 189.569C209.748 188.755 209.231 187.783 208.889 186.651C208.547 185.52 208.376 184.263 208.376 182.879C208.376 181.032 208.678 179.425 209.28 178.058C209.89 176.682 210.826 175.616 212.087 174.859C213.349 174.103 214.952 173.724 216.897 173.724C218.834 173.724 220.425 174.103 221.67 174.859C222.923 175.616 223.851 176.682 224.453 178.058C225.063 179.433 225.369 181.048 225.369 182.904ZM212.344 182.904C212.344 184.149 212.498 185.223 212.808 186.126C213.125 187.022 213.617 187.713 214.285 188.202C214.952 188.682 215.815 188.922 216.873 188.922C217.947 188.922 218.818 188.682 219.485 188.202C220.152 187.713 220.636 187.022 220.938 186.126C221.247 185.223 221.401 184.149 221.401 182.904C221.401 181.032 221.051 179.559 220.352 178.485C219.652 177.411 218.5 176.874 216.897 176.874C215.831 176.874 214.96 177.118 214.285 177.606C213.617 178.086 213.125 178.778 212.808 179.681C212.498 180.576 212.344 181.651 212.344 182.904ZM241.116 181.354L244.839 174.005H248.916L242.996 184.906V191.852H239.236V185.028L233.315 174.005H237.417L241.116 181.354ZM267.361 182.904C267.361 184.279 267.19 185.532 266.848 186.664C266.506 187.787 265.986 188.755 265.286 189.569C264.594 190.383 263.715 191.009 262.649 191.449C261.583 191.88 260.321 192.096 258.865 192.096C257.408 192.096 256.147 191.88 255.081 191.449C254.014 191.009 253.132 190.383 252.432 189.569C251.74 188.755 251.223 187.783 250.881 186.651C250.54 185.52 250.369 184.263 250.369 182.879C250.369 181.032 250.67 179.425 251.272 178.058C251.882 176.682 252.818 175.616 254.08 174.859C255.341 174.103 256.944 173.724 258.889 173.724C260.826 173.724 262.417 174.103 263.662 174.859C264.915 175.616 265.843 176.682 266.445 178.058C267.056 179.433 267.361 181.048 267.361 182.904ZM254.336 182.904C254.336 184.149 254.491 185.223 254.8 186.126C255.117 187.022 255.61 187.713 256.277 188.202C256.944 188.682 257.807 188.922 258.865 188.922C259.939 188.922 260.81 188.682 261.477 188.202C262.144 187.713 262.629 187.022 262.93 186.126C263.239 185.223 263.394 184.149 263.394 182.904C263.394 181.032 263.044 179.559 262.344 178.485C261.644 177.411 260.492 176.874 258.889 176.874C257.823 176.874 256.952 177.118 256.277 177.606C255.61 178.086 255.117 178.778 254.8 179.681C254.491 180.576 254.336 181.651 254.336 182.904ZM285.586 174.005V185.553C285.586 186.782 285.313 187.892 284.768 188.885C284.231 189.87 283.413 190.651 282.314 191.229C281.224 191.807 279.849 192.096 278.188 192.096C275.828 192.096 274.03 191.493 272.793 190.289C271.556 189.085 270.938 187.49 270.938 185.504V174.005H274.709V184.93C274.709 186.403 275.011 187.437 275.613 188.031C276.215 188.625 277.106 188.922 278.286 188.922C279.116 188.922 279.788 188.779 280.3 188.495C280.821 188.21 281.204 187.77 281.448 187.176C281.692 186.582 281.814 185.825 281.814 184.906V174.005H285.586ZM295.156 174.005C296.776 174.005 298.11 174.2 299.16 174.591C300.218 174.981 301.003 175.571 301.516 176.361C302.029 177.15 302.285 178.147 302.285 179.352C302.285 180.165 302.131 180.877 301.821 181.488C301.512 182.098 301.105 182.615 300.601 183.038C300.096 183.461 299.551 183.807 298.965 184.076L304.214 191.852H300.015L295.754 185.003H293.74V191.852H289.956V174.005H295.156ZM294.888 177.105H293.74V181.927H294.961C296.214 181.927 297.109 181.72 297.646 181.305C298.192 180.882 298.464 180.263 298.464 179.449C298.464 178.603 298.171 178.001 297.585 177.643C297.008 177.285 296.108 177.105 294.888 177.105ZM152.322 220.852L151.028 216.604H144.521L143.228 220.852H139.15L145.449 202.932H150.076L156.399 220.852H152.322ZM150.125 213.43L148.831 209.279C148.749 209.003 148.639 208.649 148.501 208.217C148.371 207.778 148.236 207.334 148.098 206.887C147.968 206.431 147.862 206.036 147.781 205.703C147.699 206.036 147.585 206.451 147.439 206.948C147.301 207.436 147.166 207.9 147.036 208.339C146.906 208.779 146.812 209.092 146.755 209.279L145.474 213.43H150.125ZM166.238 205.898C165.514 205.898 164.871 206.04 164.309 206.325C163.756 206.602 163.288 207.005 162.905 207.534C162.531 208.063 162.246 208.701 162.051 209.45C161.855 210.199 161.758 211.041 161.758 211.977C161.758 213.238 161.912 214.317 162.222 215.212C162.539 216.099 163.027 216.778 163.687 217.25C164.346 217.714 165.196 217.946 166.238 217.946C166.962 217.946 167.686 217.865 168.411 217.702C169.143 217.539 169.937 217.307 170.791 217.006V220.18C170.002 220.506 169.224 220.738 168.459 220.876C167.694 221.022 166.836 221.096 165.884 221.096C164.045 221.096 162.531 220.717 161.343 219.96C160.163 219.195 159.288 218.129 158.718 216.762C158.149 215.387 157.864 213.784 157.864 211.953C157.864 210.602 158.047 209.365 158.413 208.242C158.779 207.119 159.316 206.146 160.024 205.324C160.732 204.502 161.607 203.868 162.649 203.42C163.691 202.972 164.887 202.749 166.238 202.749C167.125 202.749 168.012 202.862 168.899 203.09C169.794 203.31 170.649 203.615 171.462 204.006L170.242 207.082C169.574 206.765 168.903 206.488 168.228 206.252C167.552 206.016 166.889 205.898 166.238 205.898ZM182.18 205.898C181.456 205.898 180.813 206.04 180.251 206.325C179.698 206.602 179.23 207.005 178.848 207.534C178.473 208.063 178.188 208.701 177.993 209.45C177.798 210.199 177.7 211.041 177.7 211.977C177.7 213.238 177.855 214.317 178.164 215.212C178.481 216.099 178.97 216.778 179.629 217.25C180.288 217.714 181.139 217.946 182.18 217.946C182.904 217.946 183.629 217.865 184.353 217.702C185.085 217.539 185.879 217.307 186.733 217.006V220.18C185.944 220.506 185.167 220.738 184.402 220.876C183.637 221.022 182.778 221.096 181.826 221.096C179.987 221.096 178.473 220.717 177.285 219.96C176.105 219.195 175.23 218.129 174.661 216.762C174.091 215.387 173.806 213.784 173.806 211.953C173.806 210.602 173.989 209.365 174.355 208.242C174.722 207.119 175.259 206.146 175.967 205.324C176.675 204.502 177.55 203.868 178.591 203.42C179.633 202.972 180.829 202.749 182.18 202.749C183.067 202.749 183.954 202.862 184.841 203.09C185.736 203.31 186.591 203.615 187.405 204.006L186.184 207.082C185.517 206.765 184.845 206.488 184.17 206.252C183.494 206.016 182.831 205.898 182.18 205.898ZM206.741 211.904C206.741 213.279 206.57 214.532 206.228 215.664C205.886 216.787 205.365 217.755 204.666 218.569C203.974 219.383 203.095 220.009 202.029 220.449C200.963 220.88 199.701 221.096 198.245 221.096C196.788 221.096 195.527 220.88 194.46 220.449C193.394 220.009 192.511 219.383 191.812 218.569C191.12 217.755 190.603 216.783 190.261 215.651C189.919 214.52 189.749 213.263 189.749 211.879C189.749 210.032 190.05 208.425 190.652 207.058C191.262 205.682 192.198 204.616 193.459 203.859C194.721 203.103 196.324 202.724 198.269 202.724C200.206 202.724 201.797 203.103 203.042 203.859C204.295 204.616 205.223 205.682 205.825 207.058C206.436 208.433 206.741 210.048 206.741 211.904ZM193.716 211.904C193.716 213.149 193.87 214.223 194.18 215.126C194.497 216.022 194.989 216.713 195.657 217.202C196.324 217.682 197.187 217.922 198.245 217.922C199.319 217.922 200.19 217.682 200.857 217.202C201.524 216.713 202.008 216.022 202.31 215.126C202.619 214.223 202.773 213.149 202.773 211.904C202.773 210.032 202.424 208.559 201.724 207.485C201.024 206.411 199.872 205.874 198.269 205.874C197.203 205.874 196.332 206.118 195.657 206.606C194.989 207.086 194.497 207.778 194.18 208.681C193.87 209.576 193.716 210.651 193.716 211.904ZM224.966 203.005V214.553C224.966 215.782 224.693 216.892 224.148 217.885C223.611 218.87 222.793 219.651 221.694 220.229C220.604 220.807 219.229 221.096 217.568 221.096C215.208 221.096 213.41 220.493 212.173 219.289C210.936 218.085 210.317 216.49 210.317 214.504V203.005H214.089V213.93C214.089 215.403 214.39 216.437 214.993 217.031C215.595 217.625 216.486 217.922 217.666 217.922C218.496 217.922 219.167 217.779 219.68 217.495C220.201 217.21 220.583 216.77 220.828 216.176C221.072 215.582 221.194 214.825 221.194 213.906V203.005H224.966ZM245.168 220.852H240.359L232.595 207.351H232.485C232.518 207.912 232.546 208.478 232.571 209.047C232.595 209.617 232.62 210.187 232.644 210.756C232.668 211.318 232.693 211.883 232.717 212.453V220.852H229.336V203.005H234.109L241.86 216.372H241.946C241.93 215.818 241.909 215.269 241.885 214.724C241.86 214.178 241.836 213.633 241.812 213.088C241.795 212.543 241.779 211.997 241.763 211.452V203.005H245.168V220.852ZM256.558 220.852H252.773V206.154H247.927V203.005H261.404V206.154H256.558V220.852Z" fill="black"/>
<line x1="347.507" y1="28.2939" x2="376.987" y2="28.2939" stroke="black" stroke-width="2"/>
<line x1="347.507" y1="34.9141" x2="376.987" y2="34.9141" stroke="black" stroke-width="2"/>
<line x1="347.507" y1="41.8232" x2="376.987" y2="41.8232" stroke="black" stroke-width="2"/>
</g>
<rect x="1.58643" y="1.80859" width="401.5" height="719.5" rx="6.75" stroke="black" stroke-width="2.5"/>
<defs>
<clipPath id="clip0_157_6736">
<rect x="0.336426" y="0.558594" width="404" height="722" rx="8" fill="white"/>
</clipPath>
</defs>
</svg>
