<svg width="404" height="723" viewBox="0 0 404 723" fill="none" xmlns="http://www.w3.org/2000/svg">
<g clip-path="url(#clip0_174_7107)">
<rect y="0.513672" width="404" height="722" rx="8" fill="white"/>
<path d="M1 8.51367C1 4.64768 4.13401 1.51367 8 1.51367H446C449.866 1.51367 453 4.64768 453 8.51367V70.5137H1V8.51367Z" fill="white"/>
<path d="M1 8.51367C1 4.64768 4.13401 1.51367 8 1.51367H446C449.866 1.51367 453 4.64768 453 8.51367V70.5137H1V8.51367Z" stroke="#1B1D1F" stroke-width="2"/>
<path d="M142.021 152.542H149.101V161.794C148.165 162.104 147.193 162.352 146.184 162.539C145.174 162.718 144.031 162.808 142.753 162.808C140.979 162.808 139.474 162.458 138.237 161.758C137 161.058 136.06 160.024 135.417 158.657C134.774 157.29 134.453 155.61 134.453 153.616C134.453 151.744 134.811 150.125 135.527 148.757C136.251 147.39 137.305 146.332 138.688 145.583C140.08 144.835 141.777 144.46 143.779 144.46C144.723 144.46 145.655 144.562 146.574 144.766C147.494 144.969 148.328 145.234 149.077 145.559L147.819 148.586C147.274 148.31 146.652 148.078 145.952 147.891C145.252 147.703 144.519 147.61 143.754 147.61C142.656 147.61 141.7 147.862 140.886 148.367C140.08 148.871 139.453 149.579 139.006 150.491C138.566 151.394 138.347 152.46 138.347 153.689C138.347 154.853 138.505 155.886 138.823 156.79C139.14 157.685 139.641 158.389 140.324 158.901C141.008 159.406 141.899 159.658 142.998 159.658C143.535 159.658 143.986 159.634 144.353 159.585C144.727 159.528 145.077 159.471 145.402 159.414V155.691H142.021V152.542ZM158.562 144.717C160.181 144.717 161.516 144.912 162.565 145.303C163.623 145.693 164.409 146.283 164.921 147.073C165.434 147.862 165.69 148.859 165.69 150.063C165.69 150.877 165.536 151.589 165.227 152.2C164.917 152.81 164.51 153.327 164.006 153.75C163.501 154.173 162.956 154.519 162.37 154.788L167.619 162.563H163.42L159.16 155.715H157.146V162.563H153.361V144.717H158.562ZM158.293 147.817H157.146V152.639H158.366C159.619 152.639 160.515 152.432 161.052 152.017C161.597 151.593 161.87 150.975 161.87 150.161C161.87 149.315 161.577 148.713 160.991 148.354C160.413 147.996 159.514 147.817 158.293 147.817ZM180.144 162.563H169.865V144.717H180.144V147.817H173.649V151.736H179.692V154.836H173.649V159.438H180.144V162.563ZM194.157 162.563H183.879V144.717H194.157V147.817H187.663V151.736H193.706V154.836H187.663V159.438H194.157V162.563ZM204.777 162.563H200.993V147.866H196.147V144.717H209.624V147.866H204.777V162.563ZM212.37 162.563V144.717H216.154V162.563H212.37ZM236.479 162.563H231.669L223.906 149.062H223.796C223.828 149.624 223.857 150.19 223.881 150.759C223.906 151.329 223.93 151.899 223.955 152.468C223.979 153.03 224.003 153.595 224.028 154.165V162.563H220.646V144.717H225.419L233.171 158.083H233.256C233.24 157.53 233.22 156.981 233.195 156.436C233.171 155.89 233.146 155.345 233.122 154.8C233.106 154.255 233.09 153.709 233.073 153.164V144.717H236.479V162.563ZM247.758 152.542H254.838V161.794C253.903 162.104 252.93 162.352 251.921 162.539C250.912 162.718 249.768 162.808 248.491 162.808C246.717 162.808 245.211 162.458 243.974 161.758C242.737 161.058 241.797 160.024 241.154 158.657C240.511 157.29 240.19 155.61 240.19 153.616C240.19 151.744 240.548 150.125 241.264 148.757C241.988 147.39 243.042 146.332 244.426 145.583C245.817 144.835 247.514 144.46 249.516 144.46C250.46 144.46 251.392 144.562 252.312 144.766C253.231 144.969 254.065 145.234 254.814 145.559L253.557 148.586C253.011 148.31 252.389 148.078 251.689 147.891C250.989 147.703 250.257 147.61 249.492 147.61C248.393 147.61 247.437 147.862 246.623 148.367C245.817 148.871 245.191 149.579 244.743 150.491C244.304 151.394 244.084 152.46 244.084 153.689C244.084 154.853 244.243 155.886 244.56 156.79C244.877 157.685 245.378 158.389 246.062 158.901C246.745 159.406 247.636 159.658 248.735 159.658C249.272 159.658 249.724 159.634 250.09 159.585C250.464 159.528 250.814 159.471 251.14 159.414V155.691H247.758V152.542ZM269.633 157.607C269.633 158.665 269.377 159.585 268.864 160.366C268.352 161.147 267.603 161.75 266.618 162.173C265.642 162.596 264.453 162.808 263.054 162.808C262.435 162.808 261.829 162.767 261.235 162.686C260.649 162.604 260.083 162.486 259.538 162.332C259.001 162.169 258.488 161.969 258 161.733V158.218C258.846 158.592 259.725 158.93 260.637 159.231C261.548 159.532 262.451 159.683 263.347 159.683C263.965 159.683 264.462 159.601 264.836 159.438C265.218 159.276 265.495 159.052 265.666 158.767C265.837 158.482 265.922 158.157 265.922 157.791C265.922 157.343 265.772 156.96 265.471 156.643C265.17 156.326 264.755 156.029 264.226 155.752C263.705 155.475 263.115 155.178 262.456 154.861C262.041 154.666 261.589 154.43 261.101 154.153C260.612 153.868 260.148 153.522 259.709 153.115C259.27 152.708 258.907 152.216 258.623 151.638C258.346 151.052 258.208 150.352 258.208 149.539C258.208 148.472 258.452 147.561 258.94 146.804C259.428 146.047 260.124 145.47 261.027 145.071C261.939 144.664 263.013 144.46 264.25 144.46C265.178 144.46 266.061 144.57 266.899 144.79C267.745 145.002 268.628 145.311 269.548 145.718L268.327 148.66C267.505 148.326 266.769 148.07 266.118 147.891C265.467 147.703 264.803 147.61 264.128 147.61C263.656 147.61 263.253 147.687 262.919 147.842C262.586 147.988 262.333 148.2 262.163 148.477C261.992 148.745 261.906 149.058 261.906 149.417C261.906 149.84 262.028 150.198 262.272 150.491C262.525 150.776 262.899 151.052 263.396 151.321C263.9 151.589 264.527 151.903 265.275 152.261C266.187 152.692 266.964 153.144 267.607 153.616C268.258 154.08 268.758 154.629 269.108 155.264C269.458 155.89 269.633 156.672 269.633 157.607Z" fill="#49494A"/>
<line x1="347.17" y1="28.249" x2="376.651" y2="28.249" stroke="black" stroke-width="2"/>
<line x1="347.17" y1="34.8691" x2="376.651" y2="34.8691" stroke="black" stroke-width="2"/>
<line x1="347.17" y1="41.7783" x2="376.651" y2="41.7783" stroke="black" stroke-width="2"/>
<path d="M142.7 192.962H141.176V187.571H135.223V192.962H133.708V181.509H135.223V186.212H141.176V181.509H142.7V192.962ZM148.598 193.157C147.379 193.157 146.4 192.777 145.661 192.017C144.921 191.251 144.551 190.186 144.551 188.821C144.551 187.467 144.908 186.407 145.622 185.642C146.34 184.871 147.278 184.485 148.434 184.485C149.616 184.485 150.559 184.863 151.262 185.618C151.971 186.373 152.325 187.441 152.325 188.821V189.173H146.083C146.145 190.131 146.408 190.842 146.872 191.306C147.34 191.769 147.916 192.001 148.598 192.001C149.114 192.001 149.577 191.871 149.989 191.61C150.405 191.345 150.624 190.97 150.645 190.485H152.168C152.054 191.34 151.666 191.998 151.004 192.462C150.348 192.925 149.546 193.157 148.598 193.157ZM150.77 188.017C150.65 187.22 150.382 186.623 149.965 186.228C149.549 185.832 149.038 185.634 148.434 185.634C147.846 185.634 147.34 185.832 146.918 186.228C146.497 186.618 146.228 187.215 146.114 188.017H150.77ZM159.231 190.782V188.946H158.223C156.088 188.946 155.02 189.527 155.02 190.688C155.02 191.11 155.176 191.436 155.489 191.665C155.801 191.889 156.223 192.001 156.754 192.001C157.239 192.001 157.708 191.892 158.161 191.673C158.614 191.454 158.971 191.157 159.231 190.782ZM159.231 192.11C158.481 192.808 157.515 193.157 156.333 193.157C155.51 193.157 154.833 192.936 154.301 192.493C153.77 192.045 153.504 191.47 153.504 190.767C153.504 188.829 155.174 187.86 158.512 187.86H159.231C159.231 187.267 159.2 186.837 159.137 186.571C159.075 186.3 158.9 186.076 158.614 185.899C158.327 185.722 157.872 185.634 157.247 185.634C155.934 185.634 155.257 186.103 155.215 187.04H153.747C153.856 185.337 155.049 184.485 157.325 184.485C158.387 184.485 159.215 184.696 159.809 185.118C160.403 185.54 160.7 186.368 160.7 187.603V192.962H159.231V192.11ZM167.192 186.017C166.984 185.954 166.684 185.923 166.293 185.923C165.543 185.923 164.9 186.316 164.364 187.103V192.962H162.887V184.673H164.364V185.829C164.984 184.933 165.702 184.485 166.52 184.485C166.728 184.485 166.952 184.506 167.192 184.548V186.017ZM173.942 185.728C174.676 184.899 175.502 184.485 176.418 184.485C178.288 184.485 179.223 185.504 179.223 187.54V192.962H177.747V187.603C177.747 186.925 177.624 186.438 177.379 186.142C177.14 185.845 176.744 185.696 176.192 185.696C175.442 185.696 174.692 186.139 173.942 187.024V192.962H172.465V181.509H173.942V185.728ZM184.731 184.485C185.913 184.485 186.856 184.863 187.559 185.618C188.267 186.373 188.622 187.441 188.622 188.821C188.622 190.196 188.267 191.264 187.559 192.024C186.856 192.78 185.913 193.157 184.731 193.157C183.554 193.157 182.611 192.78 181.903 192.024C181.2 191.264 180.848 190.196 180.848 188.821C180.848 187.441 181.2 186.373 181.903 185.618C182.611 184.863 183.554 184.485 184.731 184.485ZM184.731 192.001C185.434 192.001 186.004 191.735 186.442 191.204C186.879 190.668 187.098 189.873 187.098 188.821C187.098 187.764 186.879 186.97 186.442 186.438C186.004 185.902 185.434 185.634 184.731 185.634C184.028 185.634 183.458 185.902 183.02 186.438C182.583 186.97 182.364 187.764 182.364 188.821C182.364 189.873 182.583 190.668 183.02 191.204C183.458 191.735 184.028 192.001 184.731 192.001ZM200.661 184.673L198.168 192.962H196.762L194.965 186.868L193.176 192.962H191.77L189.27 184.673H190.903L192.426 190.993L194.293 184.673H195.637L197.512 190.993L199.036 184.673H200.661ZM207.567 192.962H206.09V184.673H207.567V192.962ZM207.567 183.103H206.09V181.509H207.567V183.103ZM212.965 192.978C212.642 193.04 212.291 193.071 211.911 193.071C211.306 193.071 210.864 192.965 210.583 192.751C210.301 192.532 210.127 192.254 210.059 191.915C209.991 191.576 209.958 191.116 209.958 190.532V185.829H208.934V184.673H209.958V182.61H211.426V184.673H212.77V185.829H211.426V190.61C211.426 191.178 211.497 191.54 211.637 191.696C211.783 191.847 211.981 191.923 212.231 191.923C212.486 191.923 212.731 191.902 212.965 191.86V192.978ZM222.965 193.157C221.351 193.157 220.142 192.795 219.34 192.071C218.543 191.347 218.124 190.418 218.083 189.282H219.543C219.622 190.136 219.976 190.769 220.606 191.181C221.241 191.587 222.007 191.79 222.903 191.79C223.752 191.79 224.434 191.616 224.95 191.267C225.471 190.918 225.731 190.444 225.731 189.845C225.731 189.215 225.463 188.756 224.926 188.47C224.39 188.183 223.465 187.902 222.153 187.626C220.846 187.345 219.905 186.957 219.333 186.462C218.765 185.967 218.481 185.308 218.481 184.485C218.481 183.558 218.851 182.798 219.59 182.204C220.335 181.61 221.322 181.313 222.551 181.313C223.843 181.313 224.885 181.613 225.676 182.212C226.468 182.811 226.887 183.657 226.934 184.751H225.458C225.306 183.366 224.359 182.673 222.614 182.673C221.77 182.673 221.116 182.832 220.653 183.149C220.189 183.467 219.958 183.889 219.958 184.415C219.958 184.894 220.142 185.254 220.512 185.493C220.887 185.733 221.583 185.965 222.598 186.188C223.619 186.412 224.429 186.634 225.028 186.853C225.627 187.071 226.14 187.412 226.567 187.876C226.994 188.334 227.208 188.951 227.208 189.728C227.208 190.712 226.814 191.53 226.028 192.181C225.247 192.832 224.226 193.157 222.965 193.157ZM232.481 184.485C233.663 184.485 234.606 184.863 235.309 185.618C236.017 186.373 236.372 187.441 236.372 188.821C236.372 190.196 236.017 191.264 235.309 192.024C234.606 192.78 233.663 193.157 232.481 193.157C231.304 193.157 230.361 192.78 229.653 192.024C228.95 191.264 228.598 190.196 228.598 188.821C228.598 187.441 228.95 186.373 229.653 185.618C230.361 184.863 231.304 184.485 232.481 184.485ZM232.481 192.001C233.184 192.001 233.754 191.735 234.192 191.204C234.629 190.668 234.848 189.873 234.848 188.821C234.848 187.764 234.629 186.97 234.192 186.438C233.754 185.902 233.184 185.634 232.481 185.634C231.778 185.634 231.208 185.902 230.77 186.438C230.333 186.97 230.114 187.764 230.114 188.821C230.114 189.873 230.333 190.668 230.77 191.204C231.208 191.735 231.778 192.001 232.481 192.001ZM243.278 191.907C242.543 192.741 241.718 193.157 240.801 193.157C238.931 193.157 237.997 192.136 237.997 190.095V184.673H239.473V190.032C239.473 190.709 239.593 191.196 239.833 191.493C240.072 191.79 240.468 191.938 241.02 191.938C241.843 191.938 242.596 191.496 243.278 190.61V184.673H244.747V192.962H243.278V191.907ZM248.411 185.728C249.145 184.899 249.971 184.485 250.887 184.485C252.757 184.485 253.692 185.504 253.692 187.54V192.962H252.215V187.603C252.215 186.925 252.093 186.438 251.848 186.142C251.609 185.845 251.213 185.696 250.661 185.696C249.911 185.696 249.161 186.139 248.411 187.024V192.962H246.934V184.673H248.411V185.728ZM261.09 190.579V186.642C260.455 185.97 259.728 185.634 258.911 185.634C258.28 185.634 257.775 185.907 257.395 186.454C257.02 186.996 256.833 187.806 256.833 188.884C256.833 189.905 257.01 190.681 257.364 191.212C257.723 191.738 258.218 192.001 258.848 192.001C259.671 192.001 260.418 191.527 261.09 190.579ZM261.09 191.97C260.434 192.761 259.645 193.157 258.723 193.157C257.64 193.157 256.801 192.772 256.208 192.001C255.614 191.23 255.317 190.191 255.317 188.884C255.317 187.53 255.648 186.459 256.309 185.673C256.976 184.881 257.812 184.485 258.817 184.485C259.713 184.485 260.471 184.761 261.09 185.313V181.509H262.559V192.962H261.09V191.97ZM267.708 193.157C265.442 193.157 264.257 192.267 264.153 190.485H265.629C265.64 191.496 266.327 192.001 267.692 192.001C268.301 192.001 268.765 191.876 269.083 191.626C269.405 191.371 269.567 191.053 269.567 190.673C269.567 190.298 269.411 190.035 269.098 189.884C268.786 189.728 268.14 189.527 267.161 189.282C266.187 189.037 265.473 188.764 265.02 188.462C264.572 188.16 264.348 187.629 264.348 186.868C264.348 186.181 264.627 185.613 265.184 185.165C265.747 184.712 266.497 184.485 267.434 184.485C269.606 184.485 270.715 185.259 270.762 186.806H269.293C269.241 186.024 268.655 185.634 267.536 185.634C267.041 185.634 266.629 185.728 266.301 185.915C265.978 186.103 265.817 186.376 265.817 186.735C265.817 187.058 265.942 187.293 266.192 187.438C266.442 187.579 267.067 187.772 268.067 188.017C269.072 188.256 269.817 188.537 270.301 188.86C270.791 189.183 271.036 189.741 271.036 190.532C271.036 191.287 270.734 191.915 270.129 192.415C269.53 192.91 268.723 193.157 267.708 193.157Z" fill="black"/>
<circle cx="198.863" cy="311.681" r="58.4749" fill="white" stroke="black" stroke-width="3"/>
<path fill-rule="evenodd" clip-rule="evenodd" d="M182.529 293.015V330.348H191.863V293.015H182.529Z" stroke="black" stroke-width="3" stroke-linecap="round" stroke-linejoin="round"/>
<path fill-rule="evenodd" clip-rule="evenodd" d="M205.863 293.015V330.348H215.196V293.015H205.863Z" stroke="black" stroke-width="3" stroke-linecap="round" stroke-linejoin="round"/>
<path d="M163.047 401.033H166.226C169.63 401.033 171.333 402.685 171.333 405.989C171.333 409.366 169.63 411.055 166.226 411.055H163.047V401.033ZM164.374 409.865H166.199C167.653 409.865 168.644 409.528 169.172 408.854C169.701 408.174 169.965 407.22 169.965 405.989C169.965 404.791 169.701 403.863 169.172 403.207C168.648 402.551 167.657 402.223 166.199 402.223H164.374V409.865ZM174.286 411.055H172.994V403.802H174.286V411.055ZM174.286 402.428H172.994V401.033H174.286V402.428ZM179.132 411.226C178.102 411.226 177.278 410.895 176.658 410.234C176.042 409.569 175.735 408.635 175.735 407.432C175.735 406.224 176.042 405.29 176.658 404.629C177.278 403.968 178.102 403.638 179.132 403.638C179.925 403.638 180.586 403.838 181.115 404.239C181.648 404.64 181.962 405.219 182.058 405.976H180.732C180.714 405.543 180.55 405.212 180.24 404.984C179.934 404.757 179.565 404.643 179.132 404.643C178.517 404.643 178.018 404.877 177.635 405.347C177.252 405.812 177.061 406.507 177.061 407.432C177.061 408.352 177.252 409.047 177.635 409.517C178.018 409.981 178.517 410.214 179.132 410.214C179.565 410.214 179.934 410.1 180.24 409.872C180.55 409.644 180.714 409.316 180.732 408.888H182.058C181.962 409.644 181.648 410.223 181.115 410.624C180.586 411.025 179.925 411.226 179.132 411.226ZM186.009 411.068C185.727 411.123 185.419 411.15 185.086 411.15C184.558 411.15 184.17 411.057 183.924 410.87C183.678 410.679 183.526 410.435 183.466 410.139C183.407 409.842 183.377 409.439 183.377 408.929V404.813H182.482V403.802H183.377V401.997H184.663V403.802H185.838V404.813H184.663V408.997C184.663 409.494 184.724 409.811 184.847 409.947C184.975 410.079 185.148 410.146 185.367 410.146C185.59 410.146 185.804 410.127 186.009 410.091V411.068ZM191.683 410.132C191.041 410.861 190.318 411.226 189.516 411.226C187.88 411.226 187.062 410.332 187.062 408.546V403.802H188.354V408.491C188.354 409.084 188.459 409.51 188.668 409.77C188.878 410.029 189.224 410.159 189.708 410.159C190.428 410.159 191.086 409.772 191.683 408.997V403.802H192.968V411.055H191.683V410.132ZM204.685 411.055H203.393V406.365C203.393 405.764 203.306 405.335 203.133 405.08C202.96 404.825 202.671 404.697 202.265 404.697C201.641 404.697 201.028 405.085 200.426 405.859V411.055H199.141V406.365C199.141 405.764 199.055 405.335 198.881 405.08C198.708 404.825 198.417 404.697 198.006 404.697C197.382 404.697 196.771 405.085 196.174 405.859V411.055H194.882V403.802H196.174V404.725C196.785 404 197.462 403.638 198.205 403.638C199.266 403.638 199.943 404.075 200.235 404.95C200.718 404.381 201.128 404.021 201.465 403.87C201.803 403.715 202.133 403.638 202.457 403.638C203.942 403.638 204.685 404.529 204.685 406.311V411.055ZM211.774 404.813V411.055H210.489V404.813H209.422V403.802H210.489V403.159C210.489 401.628 211.166 400.862 212.519 400.862C212.934 400.862 213.255 400.89 213.483 400.944V402.065C213.228 402.02 212.968 401.997 212.704 401.997C212.389 401.997 212.154 402.086 212 402.264C211.849 402.437 211.774 402.74 211.774 403.173V403.802H213.148V404.813H211.774ZM218.753 410.132C218.111 410.861 217.389 411.226 216.586 411.226C214.95 411.226 214.132 410.332 214.132 408.546V403.802H215.424V408.491C215.424 409.084 215.529 409.51 215.739 409.77C215.948 410.029 216.295 410.159 216.778 410.159C217.498 410.159 218.156 409.772 218.753 408.997V403.802H220.039V411.055H218.753V410.132ZM224.543 411.226C222.561 411.226 221.524 410.446 221.433 408.888H222.725C222.734 409.772 223.336 410.214 224.53 410.214C225.063 410.214 225.469 410.104 225.747 409.886C226.029 409.662 226.17 409.384 226.17 409.052C226.17 408.724 226.034 408.493 225.76 408.361C225.487 408.225 224.922 408.049 224.065 407.835C223.213 407.621 222.588 407.382 222.192 407.117C221.8 406.853 221.604 406.388 221.604 405.723C221.604 405.121 221.848 404.624 222.335 404.232C222.828 403.836 223.484 403.638 224.304 403.638C226.205 403.638 227.175 404.314 227.216 405.668H225.931C225.886 404.984 225.373 404.643 224.393 404.643C223.96 404.643 223.6 404.725 223.313 404.889C223.03 405.053 222.889 405.292 222.889 405.606C222.889 405.889 222.999 406.094 223.217 406.222C223.436 406.345 223.983 406.513 224.858 406.728C225.737 406.937 226.389 407.183 226.813 407.466C227.241 407.748 227.456 408.236 227.456 408.929C227.456 409.59 227.191 410.139 226.663 410.576C226.139 411.009 225.432 411.226 224.543 411.226ZM231.892 411.226C230.862 411.226 230.037 410.895 229.417 410.234C228.802 409.569 228.495 408.635 228.495 407.432C228.495 406.224 228.802 405.29 229.417 404.629C230.037 403.968 230.862 403.638 231.892 403.638C232.685 403.638 233.346 403.838 233.875 404.239C234.408 404.64 234.722 405.219 234.818 405.976H233.492C233.473 405.543 233.309 405.212 233 404.984C232.694 404.757 232.325 404.643 231.892 404.643C231.277 404.643 230.778 404.877 230.395 405.347C230.012 405.812 229.821 406.507 229.821 407.432C229.821 408.352 230.012 409.047 230.395 409.517C230.778 409.981 231.277 410.214 231.892 410.214C232.325 410.214 232.694 410.1 233 409.872C233.309 409.644 233.473 409.316 233.492 408.888H234.818C234.722 409.644 234.408 410.223 233.875 410.624C233.346 411.025 232.685 411.226 231.892 411.226ZM239.036 411.226C237.969 411.226 237.112 410.893 236.465 410.228C235.818 409.558 235.495 408.626 235.495 407.432C235.495 406.247 235.807 405.319 236.431 404.649C237.06 403.975 237.88 403.638 238.892 403.638C239.927 403.638 240.751 403.968 241.367 404.629C241.986 405.29 242.296 406.224 242.296 407.432V407.739H236.834C236.889 408.578 237.119 409.2 237.525 409.605C237.935 410.011 238.439 410.214 239.036 410.214C239.487 410.214 239.892 410.1 240.252 409.872C240.617 409.64 240.808 409.312 240.827 408.888H242.16C242.059 409.635 241.72 410.212 241.141 410.617C240.567 411.023 239.865 411.226 239.036 411.226ZM240.936 406.728C240.831 406.03 240.597 405.508 240.232 405.162C239.867 404.816 239.421 404.643 238.892 404.643C238.377 404.643 237.935 404.816 237.566 405.162C237.197 405.504 236.962 406.026 236.862 406.728H240.936Z" fill="black"/>
<circle cx="198.863" cy="493.478" r="58.4749" fill="white" stroke="black" stroke-width="3"/>
<path fill-rule="evenodd" clip-rule="evenodd" d="M219.665 493.052C219.984 493.247 219.984 493.71 219.665 493.905L187.374 513.639C187.04 513.842 186.613 513.602 186.613 513.212V473.745C186.613 473.355 187.04 473.115 187.374 473.318L219.665 493.052Z" stroke="black" stroke-width="4" stroke-linejoin="round"/>
<path d="M159.915 584.022C158.752 584.022 157.882 583.797 157.303 583.346C156.729 582.895 156.364 582.364 156.209 581.753C156.059 581.142 155.984 580.434 155.984 579.627V573.83H157.31V579.606C157.31 580.924 157.531 581.789 157.973 582.204C158.415 582.619 159.062 582.826 159.915 582.826C160.767 582.826 161.414 582.619 161.856 582.204C162.298 581.789 162.519 580.924 162.519 579.606V573.83H163.852V579.627C163.852 580.839 163.706 581.732 163.415 582.307C163.127 582.881 162.692 583.312 162.109 583.599C161.526 583.881 160.794 584.022 159.915 584.022ZM168.747 583.865C168.464 583.92 168.156 583.947 167.824 583.947C167.295 583.947 166.908 583.854 166.662 583.667C166.416 583.476 166.263 583.232 166.204 582.936C166.144 582.639 166.115 582.236 166.115 581.726V577.61H165.219V576.599H166.115V574.794H167.4V576.599H168.576V577.61H167.4V581.794C167.4 582.291 167.461 582.607 167.584 582.744C167.712 582.876 167.885 582.942 168.104 582.942C168.327 582.942 168.542 582.924 168.747 582.888V583.865ZM174.837 577.467C175.412 576.779 176.102 576.435 176.909 576.435C177.857 576.435 178.59 576.772 179.11 577.446C179.629 578.116 179.889 579.023 179.889 580.167C179.889 581.356 179.597 582.298 179.014 582.99C178.435 583.678 177.704 584.022 176.82 584.022C176.036 584.022 175.375 583.779 174.837 583.291V586.641H173.545V576.599H174.837V577.467ZM174.837 582.129C175.389 582.717 176.022 583.011 176.738 583.011C177.294 583.011 177.736 582.774 178.064 582.3C178.392 581.821 178.556 581.11 178.556 580.167C178.556 579.274 178.401 578.597 178.091 578.137C177.781 577.672 177.348 577.439 176.792 577.439C176.077 577.439 175.425 577.854 174.837 578.684V582.129ZM182.63 577.521C183.273 576.797 183.995 576.435 184.797 576.435C186.433 576.435 187.251 577.326 187.251 579.107V583.852H185.959V579.162C185.959 578.57 185.852 578.144 185.638 577.884C185.429 577.624 185.082 577.494 184.599 577.494C183.943 577.494 183.287 577.882 182.63 578.656V583.852H181.338V573.83H182.63V577.521ZM193.725 581.944V580.338H192.843C190.975 580.338 190.041 580.846 190.041 581.862C190.041 582.231 190.177 582.516 190.451 582.717C190.724 582.913 191.093 583.011 191.558 583.011C191.982 583.011 192.392 582.915 192.789 582.724C193.185 582.532 193.497 582.272 193.725 581.944ZM193.725 583.106C193.069 583.717 192.223 584.022 191.189 584.022C190.469 584.022 189.876 583.829 189.412 583.441C188.947 583.049 188.714 582.546 188.714 581.931C188.714 580.235 190.175 579.388 193.096 579.388H193.725C193.725 578.868 193.698 578.492 193.643 578.26C193.588 578.023 193.436 577.827 193.185 577.672C192.934 577.517 192.536 577.439 191.989 577.439C190.84 577.439 190.248 577.85 190.211 578.67H188.926C189.022 577.18 190.066 576.435 192.057 576.435C192.987 576.435 193.711 576.619 194.231 576.988C194.75 577.357 195.01 578.082 195.01 579.162V583.852H193.725V583.106ZM200.691 577.774C200.509 577.72 200.247 577.692 199.905 577.692C199.249 577.692 198.686 578.036 198.216 578.725V583.852H196.924V576.599H198.216V577.61C198.759 576.826 199.388 576.435 200.103 576.435C200.285 576.435 200.481 576.453 200.691 576.489V577.774ZM204.669 584.022C203.603 584.022 202.746 583.69 202.099 583.024C201.452 582.354 201.128 581.423 201.128 580.229C201.128 579.044 201.441 578.116 202.065 577.446C202.694 576.772 203.514 576.435 204.526 576.435C205.56 576.435 206.385 576.765 207 577.426C207.62 578.087 207.93 579.021 207.93 580.229V580.536H202.468C202.523 581.375 202.753 581.997 203.159 582.402C203.569 582.808 204.072 583.011 204.669 583.011C205.121 583.011 205.526 582.897 205.886 582.669C206.251 582.437 206.442 582.108 206.46 581.685H207.793C207.693 582.432 207.354 583.008 206.775 583.414C206.201 583.82 205.499 584.022 204.669 584.022ZM206.57 579.524C206.465 578.827 206.23 578.305 205.866 577.959C205.501 577.613 205.055 577.439 204.526 577.439C204.011 577.439 203.569 577.613 203.2 577.959C202.831 578.301 202.596 578.823 202.496 579.524H206.57ZM212.196 583.865C211.913 583.92 211.606 583.947 211.273 583.947C210.744 583.947 210.357 583.854 210.111 583.667C209.865 583.476 209.712 583.232 209.653 582.936C209.594 582.639 209.564 582.236 209.564 581.726V577.61H208.668V576.599H209.564V574.794H210.849V576.599H212.025V577.61H210.849V581.794C210.849 582.291 210.911 582.607 211.034 582.744C211.161 582.876 211.334 582.942 211.553 582.942C211.777 582.942 211.991 582.924 212.196 582.888V583.865ZM217.042 577.774C216.86 577.72 216.598 577.692 216.256 577.692C215.6 577.692 215.037 578.036 214.568 578.725V583.852H213.276V576.599H214.568V577.61C215.11 576.826 215.739 576.435 216.455 576.435C216.637 576.435 216.833 576.453 217.042 576.489V577.774ZM222.532 581.944V580.338H221.65C219.781 580.338 218.847 580.846 218.847 581.862C218.847 582.231 218.984 582.516 219.257 582.717C219.531 582.913 219.9 583.011 220.365 583.011C220.789 583.011 221.199 582.915 221.595 582.724C221.992 582.532 222.304 582.272 222.532 581.944ZM222.532 583.106C221.875 583.717 221.03 584.022 219.996 584.022C219.276 584.022 218.683 583.829 218.218 583.441C217.753 583.049 217.521 582.546 217.521 581.931C217.521 580.235 218.982 579.388 221.903 579.388H222.532C222.532 578.868 222.504 578.492 222.45 578.26C222.395 578.023 222.242 577.827 221.992 577.672C221.741 577.517 221.342 577.439 220.795 577.439C219.647 577.439 219.055 577.85 219.018 578.67H217.733C217.829 577.18 218.872 576.435 220.864 576.435C221.793 576.435 222.518 576.619 223.038 576.988C223.557 577.357 223.817 578.082 223.817 579.162V583.852H222.532V583.106ZM232.041 584.022C230.058 584.022 229.021 583.243 228.93 581.685H230.222C230.231 582.569 230.833 583.011 232.027 583.011C232.56 583.011 232.966 582.901 233.244 582.683C233.526 582.459 233.667 582.181 233.667 581.849C233.667 581.521 233.531 581.29 233.257 581.158C232.984 581.021 232.419 580.846 231.562 580.632C230.71 580.418 230.085 580.178 229.689 579.914C229.297 579.65 229.101 579.185 229.101 578.52C229.101 577.918 229.345 577.421 229.833 577.029C230.325 576.633 230.981 576.435 231.801 576.435C233.702 576.435 234.672 577.111 234.713 578.465H233.428C233.383 577.781 232.87 577.439 231.89 577.439C231.457 577.439 231.097 577.521 230.81 577.686C230.528 577.85 230.386 578.089 230.386 578.403C230.386 578.686 230.496 578.891 230.714 579.019C230.933 579.142 231.48 579.31 232.355 579.524C233.235 579.734 233.886 579.98 234.31 580.263C234.738 580.545 234.953 581.033 234.953 581.726C234.953 582.386 234.688 582.936 234.16 583.373C233.636 583.806 232.929 584.022 232.041 584.022ZM237.742 583.852H236.45V576.599H237.742V583.852ZM237.742 575.225H236.45V573.83H237.742V575.225ZM242.465 583.865C242.183 583.92 241.875 583.947 241.542 583.947C241.014 583.947 240.626 583.854 240.38 583.667C240.134 583.476 239.982 583.232 239.922 582.936C239.863 582.639 239.833 582.236 239.833 581.726V577.61H238.938V576.599H239.833V574.794H241.119V576.599H242.294V577.61H241.119V581.794C241.119 582.291 241.18 582.607 241.303 582.744C241.431 582.876 241.604 582.942 241.823 582.942C242.046 582.942 242.26 582.924 242.465 582.888V583.865Z" fill="black"/>
<path d="M228.76 683H226.877V673.172H223.534V671.578H232.096V673.172H228.76V683ZM237.104 674.188C237.875 674.188 238.536 674.346 239.088 674.664C239.64 674.982 240.065 675.432 240.362 676.016C240.659 676.599 240.807 677.297 240.807 678.109V679.094H235.034C235.055 679.932 235.278 680.578 235.706 681.031C236.138 681.484 236.742 681.711 237.518 681.711C238.07 681.711 238.565 681.659 239.002 681.555C239.445 681.445 239.901 681.286 240.37 681.078V682.57C239.937 682.773 239.497 682.922 239.049 683.016C238.601 683.109 238.065 683.156 237.44 683.156C236.591 683.156 235.844 682.992 235.198 682.664C234.557 682.331 234.055 681.836 233.69 681.18C233.331 680.523 233.151 679.708 233.151 678.734C233.151 677.766 233.315 676.943 233.643 676.266C233.971 675.589 234.432 675.073 235.026 674.719C235.62 674.365 236.312 674.188 237.104 674.188ZM237.104 675.57C236.526 675.57 236.057 675.758 235.698 676.133C235.344 676.508 235.135 677.057 235.073 677.781H239.01C239.005 677.349 238.932 676.966 238.792 676.633C238.656 676.299 238.448 676.039 238.167 675.852C237.89 675.664 237.536 675.57 237.104 675.57ZM248.69 680.531C248.69 681.099 248.552 681.578 248.276 681.969C248 682.359 247.596 682.656 247.065 682.859C246.539 683.057 245.893 683.156 245.127 683.156C244.523 683.156 244.002 683.112 243.565 683.023C243.133 682.94 242.724 682.81 242.338 682.633V681.047C242.75 681.24 243.211 681.406 243.721 681.547C244.237 681.688 244.724 681.758 245.182 681.758C245.786 681.758 246.221 681.664 246.487 681.477C246.752 681.284 246.885 681.029 246.885 680.711C246.885 680.523 246.831 680.357 246.721 680.211C246.617 680.06 246.419 679.906 246.127 679.75C245.841 679.589 245.419 679.396 244.862 679.172C244.315 678.953 243.854 678.734 243.479 678.516C243.104 678.297 242.82 678.034 242.627 677.727C242.435 677.414 242.338 677.016 242.338 676.531C242.338 675.766 242.64 675.185 243.245 674.789C243.854 674.388 244.659 674.188 245.659 674.188C246.19 674.188 246.69 674.242 247.159 674.352C247.633 674.456 248.096 674.609 248.549 674.812L247.971 676.195C247.581 676.023 247.187 675.883 246.792 675.773C246.401 675.659 246.002 675.602 245.596 675.602C245.122 675.602 244.76 675.674 244.51 675.82C244.265 675.966 244.143 676.174 244.143 676.445C244.143 676.648 244.203 676.82 244.323 676.961C244.443 677.102 244.648 677.242 244.94 677.383C245.237 677.523 245.648 677.698 246.174 677.906C246.69 678.104 247.135 678.312 247.51 678.531C247.89 678.745 248.182 679.008 248.385 679.32C248.588 679.633 248.69 680.036 248.69 680.531ZM253.893 681.672C254.133 681.672 254.37 681.651 254.604 681.609C254.838 681.562 255.052 681.508 255.245 681.445V682.836C255.042 682.924 254.778 683 254.456 683.062C254.133 683.125 253.797 683.156 253.448 683.156C252.958 683.156 252.518 683.076 252.127 682.914C251.737 682.747 251.427 682.464 251.198 682.062C250.969 681.661 250.854 681.107 250.854 680.398V675.75H249.674V674.93L250.94 674.281L251.542 672.43H252.698V674.352H255.174V675.75H252.698V680.375C252.698 680.812 252.807 681.138 253.026 681.352C253.245 681.565 253.534 681.672 253.893 681.672ZM259.854 674.352H261.854L263.627 679.289C263.706 679.513 263.776 679.734 263.838 679.953C263.906 680.167 263.963 680.378 264.01 680.586C264.062 680.794 264.104 681.003 264.135 681.211H264.182C264.234 680.94 264.307 680.638 264.401 680.305C264.5 679.966 264.609 679.628 264.729 679.289L266.432 674.352H268.409L264.698 684.188C264.484 684.75 264.221 685.229 263.909 685.625C263.601 686.026 263.237 686.328 262.815 686.531C262.393 686.74 261.911 686.844 261.37 686.844C261.109 686.844 260.883 686.828 260.69 686.797C260.497 686.771 260.333 686.742 260.198 686.711V685.242C260.307 685.268 260.445 685.292 260.612 685.312C260.778 685.333 260.95 685.344 261.127 685.344C261.456 685.344 261.739 685.279 261.979 685.148C262.219 685.018 262.422 684.833 262.588 684.594C262.755 684.359 262.893 684.091 263.002 683.789L263.307 682.977L259.854 674.352ZM277.377 678.656C277.377 679.375 277.284 680.013 277.096 680.57C276.909 681.128 276.635 681.599 276.276 681.984C275.917 682.365 275.484 682.656 274.979 682.859C274.474 683.057 273.903 683.156 273.268 683.156C272.674 683.156 272.13 683.057 271.635 682.859C271.14 682.656 270.711 682.365 270.346 681.984C269.987 681.599 269.708 681.128 269.51 680.57C269.312 680.013 269.213 679.375 269.213 678.656C269.213 677.703 269.377 676.896 269.706 676.234C270.039 675.568 270.513 675.06 271.127 674.711C271.742 674.362 272.474 674.188 273.323 674.188C274.12 674.188 274.823 674.362 275.432 674.711C276.042 675.06 276.518 675.568 276.862 676.234C277.206 676.901 277.377 677.708 277.377 678.656ZM271.104 678.656C271.104 679.286 271.18 679.826 271.331 680.273C271.487 680.721 271.726 681.065 272.049 681.305C272.372 681.539 272.789 681.656 273.299 681.656C273.81 681.656 274.226 681.539 274.549 681.305C274.872 681.065 275.109 680.721 275.26 680.273C275.411 679.826 275.487 679.286 275.487 678.656C275.487 678.026 275.411 677.492 275.26 677.055C275.109 676.612 274.872 676.276 274.549 676.047C274.226 675.812 273.807 675.695 273.292 675.695C272.531 675.695 271.976 675.951 271.627 676.461C271.278 676.971 271.104 677.703 271.104 678.656ZM287.026 674.352V683H285.581L285.331 681.836H285.229C285.047 682.133 284.815 682.38 284.534 682.578C284.252 682.771 283.94 682.914 283.596 683.008C283.252 683.107 282.89 683.156 282.51 683.156C281.859 683.156 281.302 683.047 280.838 682.828C280.38 682.604 280.028 682.26 279.784 681.797C279.539 681.333 279.417 680.734 279.417 680V674.352H281.26V679.656C281.26 680.328 281.396 680.831 281.667 681.164C281.943 681.497 282.37 681.664 282.948 681.664C283.505 681.664 283.948 681.549 284.276 681.32C284.604 681.091 284.836 680.753 284.971 680.305C285.112 679.857 285.182 679.307 285.182 678.656V674.352H287.026ZM294.042 674.188C294.187 674.188 294.346 674.195 294.518 674.211C294.69 674.227 294.838 674.247 294.963 674.273L294.792 675.992C294.682 675.961 294.547 675.938 294.385 675.922C294.229 675.906 294.088 675.898 293.963 675.898C293.635 675.898 293.323 675.953 293.026 676.062C292.729 676.167 292.466 676.328 292.237 676.547C292.008 676.76 291.828 677.029 291.698 677.352C291.568 677.674 291.502 678.049 291.502 678.477V683H289.659V674.352H291.096L291.346 675.875H291.432C291.604 675.568 291.818 675.286 292.073 675.031C292.328 674.776 292.62 674.573 292.948 674.422C293.281 674.266 293.646 674.188 294.042 674.188ZM302.377 680.531C302.377 681.099 302.239 681.578 301.963 681.969C301.687 682.359 301.284 682.656 300.752 682.859C300.226 683.057 299.581 683.156 298.815 683.156C298.211 683.156 297.69 683.112 297.252 683.023C296.82 682.94 296.411 682.81 296.026 682.633V681.047C296.437 681.24 296.898 681.406 297.409 681.547C297.924 681.688 298.411 681.758 298.87 681.758C299.474 681.758 299.909 681.664 300.174 681.477C300.44 681.284 300.573 681.029 300.573 680.711C300.573 680.523 300.518 680.357 300.409 680.211C300.305 680.06 300.107 679.906 299.815 679.75C299.528 679.589 299.107 679.396 298.549 679.172C298.002 678.953 297.542 678.734 297.167 678.516C296.792 678.297 296.508 678.034 296.315 677.727C296.122 677.414 296.026 677.016 296.026 676.531C296.026 675.766 296.328 675.185 296.932 674.789C297.542 674.388 298.346 674.188 299.346 674.188C299.877 674.188 300.377 674.242 300.846 674.352C301.32 674.456 301.784 674.609 302.237 674.812L301.659 676.195C301.268 676.023 300.875 675.883 300.479 675.773C300.088 675.659 299.69 675.602 299.284 675.602C298.81 675.602 298.448 675.674 298.198 675.82C297.953 675.966 297.831 676.174 297.831 676.445C297.831 676.648 297.89 676.82 298.01 676.961C298.13 677.102 298.336 677.242 298.627 677.383C298.924 677.523 299.336 677.698 299.862 677.906C300.377 678.104 300.823 678.312 301.198 678.531C301.578 678.745 301.87 679.008 302.073 679.32C302.276 679.633 302.377 680.036 302.377 680.531ZM307.807 674.188C308.578 674.188 309.239 674.346 309.792 674.664C310.344 674.982 310.768 675.432 311.065 676.016C311.362 676.599 311.51 677.297 311.51 678.109V679.094H305.737C305.758 679.932 305.982 680.578 306.409 681.031C306.841 681.484 307.445 681.711 308.221 681.711C308.773 681.711 309.268 681.659 309.706 681.555C310.148 681.445 310.604 681.286 311.073 681.078V682.57C310.64 682.773 310.2 682.922 309.752 683.016C309.305 683.109 308.768 683.156 308.143 683.156C307.294 683.156 306.547 682.992 305.901 682.664C305.26 682.331 304.758 681.836 304.393 681.18C304.034 680.523 303.854 679.708 303.854 678.734C303.854 677.766 304.018 676.943 304.346 676.266C304.674 675.589 305.135 675.073 305.729 674.719C306.323 674.365 307.015 674.188 307.807 674.188ZM307.807 675.57C307.229 675.57 306.76 675.758 306.401 676.133C306.047 676.508 305.838 677.057 305.776 677.781H309.713C309.708 677.349 309.635 676.966 309.495 676.633C309.359 676.299 309.151 676.039 308.87 675.852C308.594 675.664 308.239 675.57 307.807 675.57ZM315.424 683H313.581V670.844H315.424V683ZM322.37 675.75H320.268V683H318.432V675.75H317.018V674.867L318.432 674.328V673.727C318.432 672.992 318.547 672.409 318.776 671.977C319.01 671.544 319.344 671.234 319.776 671.047C320.213 670.854 320.734 670.758 321.338 670.758C321.734 670.758 322.096 670.792 322.424 670.859C322.752 670.922 323.028 670.995 323.252 671.078L322.776 672.469C322.599 672.411 322.401 672.359 322.182 672.312C321.963 672.26 321.729 672.234 321.479 672.234C321.062 672.234 320.755 672.365 320.557 672.625C320.364 672.885 320.268 673.266 320.268 673.766V674.352H322.37V675.75ZM327.44 679.75L333.167 677.359L327.44 674.672V673.156L335.073 676.953V677.883L327.44 681.258V679.75ZM336.596 679.75L342.323 677.359L336.596 674.672V673.156L344.229 676.953V677.883L336.596 681.258V679.75Z" fill="#495057"/>
<rect x="192.651" y="658" width="183" height="38" rx="3" stroke="#495057" stroke-width="2"/>
</g>
<rect x="1.25" y="1.76367" width="401.5" height="719.5" rx="6.75" stroke="black" stroke-width="2.5"/>
<defs>
<clipPath id="clip0_174_7107">
<rect y="0.513672" width="404" height="722" rx="8" fill="white"/>
</clipPath>
</defs>
</svg>
