<svg width="404" height="723" viewBox="0 0 404 723" fill="none" xmlns="http://www.w3.org/2000/svg">
<g clip-path="url(#clip0_157_6879)">
<rect y="0.536133" width="404" height="722" rx="8" fill="white"/>
<path d="M1 8.53613C1 4.67014 4.13401 1.53613 8 1.53613H446C449.866 1.53613 453 4.67014 453 8.53613V70.5361H1V8.53613Z" fill="white"/>
<path d="M1 8.53613C1 4.67014 4.13401 1.53613 8 1.53613H446C449.866 1.53613 453 4.67014 453 8.53613V70.5361H1V8.53613Z" stroke="#1B1D1F" stroke-width="2"/>
<line x1="347.17" y1="28.2715" x2="376.651" y2="28.2715" stroke="black" stroke-width="2"/>
<line x1="347.17" y1="34.8926" x2="376.651" y2="34.8926" stroke="black" stroke-width="2"/>
<line x1="347.17" y1="41.8008" x2="376.651" y2="41.8008" stroke="black" stroke-width="2"/>
<path d="M83.7109 327.086H88.2422V333.008C87.6432 333.206 87.0208 333.365 86.375 333.484C85.7292 333.599 84.9974 333.656 84.1797 333.656C83.0443 333.656 82.0807 333.432 81.2891 332.984C80.4974 332.536 79.8958 331.875 79.4844 331C79.0729 330.125 78.8672 329.049 78.8672 327.773C78.8672 326.576 79.0964 325.539 79.5547 324.664C80.0182 323.789 80.6927 323.112 81.5781 322.633C82.4688 322.154 83.5547 321.914 84.8359 321.914C85.4401 321.914 86.0365 321.979 86.625 322.109C87.2135 322.24 87.7474 322.409 88.2266 322.617L87.4219 324.555C87.0729 324.378 86.6745 324.229 86.2266 324.109C85.7786 323.99 85.3099 323.93 84.8203 323.93C84.1172 323.93 83.5052 324.091 82.9844 324.414C82.4688 324.737 82.0677 325.19 81.7812 325.773C81.5 326.352 81.3594 327.034 81.3594 327.82C81.3594 328.565 81.4609 329.227 81.6641 329.805C81.8672 330.378 82.1875 330.828 82.625 331.156C83.0625 331.479 83.6328 331.641 84.3359 331.641C84.6797 331.641 84.9688 331.625 85.2031 331.594C85.4427 331.557 85.6667 331.521 85.875 331.484V329.102H83.7109V327.086ZM95.6562 324.602C95.776 324.602 95.9141 324.609 96.0703 324.625C96.2318 324.635 96.362 324.651 96.4609 324.672L96.2812 326.906C96.2031 326.88 96.0911 326.862 95.9453 326.852C95.8047 326.836 95.6823 326.828 95.5781 326.828C95.2708 326.828 94.9714 326.867 94.6797 326.945C94.3932 327.023 94.1354 327.151 93.9062 327.328C93.6771 327.5 93.4948 327.729 93.3594 328.016C93.2292 328.297 93.1641 328.643 93.1641 329.055V333.5H90.7812V324.766H92.5859L92.9375 326.234H93.0547C93.2266 325.938 93.4401 325.667 93.6953 325.422C93.9557 325.172 94.25 324.974 94.5781 324.828C94.9115 324.677 95.2708 324.602 95.6562 324.602ZM101.648 324.602C102.456 324.602 103.151 324.758 103.734 325.07C104.318 325.378 104.768 325.826 105.086 326.414C105.404 327.003 105.562 327.721 105.562 328.57V329.727H99.9297C99.9557 330.398 100.156 330.927 100.531 331.312C100.911 331.693 101.438 331.883 102.109 331.883C102.667 331.883 103.177 331.826 103.641 331.711C104.104 331.596 104.581 331.424 105.07 331.195V333.039C104.638 333.253 104.185 333.409 103.711 333.508C103.242 333.607 102.672 333.656 102 333.656C101.125 333.656 100.349 333.495 99.6719 333.172C99 332.849 98.4714 332.357 98.0859 331.695C97.7057 331.034 97.5156 330.201 97.5156 329.195C97.5156 328.174 97.6875 327.326 98.0312 326.648C98.3802 325.966 98.8646 325.456 99.4844 325.117C100.104 324.773 100.826 324.602 101.648 324.602ZM101.664 326.297C101.201 326.297 100.815 326.445 100.508 326.742C100.206 327.039 100.031 327.505 99.9844 328.141H103.328C103.323 327.786 103.258 327.471 103.133 327.195C103.013 326.919 102.831 326.701 102.586 326.539C102.346 326.378 102.039 326.297 101.664 326.297ZM111.102 324.602C111.909 324.602 112.604 324.758 113.188 325.07C113.771 325.378 114.221 325.826 114.539 326.414C114.857 327.003 115.016 327.721 115.016 328.57V329.727H109.383C109.409 330.398 109.609 330.927 109.984 331.312C110.365 331.693 110.891 331.883 111.562 331.883C112.12 331.883 112.63 331.826 113.094 331.711C113.557 331.596 114.034 331.424 114.523 331.195V333.039C114.091 333.253 113.638 333.409 113.164 333.508C112.695 333.607 112.125 333.656 111.453 333.656C110.578 333.656 109.802 333.495 109.125 333.172C108.453 332.849 107.924 332.357 107.539 331.695C107.159 331.034 106.969 330.201 106.969 329.195C106.969 328.174 107.141 327.326 107.484 326.648C107.833 325.966 108.318 325.456 108.938 325.117C109.557 324.773 110.279 324.602 111.102 324.602ZM111.117 326.297C110.654 326.297 110.268 326.445 109.961 326.742C109.659 327.039 109.484 327.505 109.438 328.141H112.781C112.776 327.786 112.711 327.471 112.586 327.195C112.466 326.919 112.284 326.701 112.039 326.539C111.799 326.378 111.492 326.297 111.117 326.297ZM120.633 331.758C120.893 331.758 121.146 331.732 121.391 331.68C121.641 331.628 121.888 331.562 122.133 331.484V333.258C121.878 333.372 121.56 333.466 121.18 333.539C120.805 333.617 120.393 333.656 119.945 333.656C119.424 333.656 118.956 333.573 118.539 333.406C118.128 333.234 117.802 332.94 117.562 332.523C117.328 332.102 117.211 331.516 117.211 330.766V326.555H116.07V325.547L117.383 324.75L118.07 322.906H119.594V324.766H122.039V326.555H119.594V330.766C119.594 331.099 119.688 331.349 119.875 331.516C120.068 331.677 120.32 331.758 120.633 331.758ZM126.289 324.766V333.5H123.906V324.766H126.289ZM125.102 321.344C125.456 321.344 125.76 321.427 126.016 321.594C126.271 321.755 126.398 322.06 126.398 322.508C126.398 322.951 126.271 323.258 126.016 323.43C125.76 323.596 125.456 323.68 125.102 323.68C124.742 323.68 124.435 323.596 124.18 323.43C123.93 323.258 123.805 322.951 123.805 322.508C123.805 322.06 123.93 321.755 124.18 321.594C124.435 321.427 124.742 321.344 125.102 321.344ZM133.758 324.602C134.69 324.602 135.44 324.857 136.008 325.367C136.576 325.872 136.859 326.685 136.859 327.805V333.5H134.477V328.398C134.477 327.773 134.362 327.302 134.133 326.984C133.909 326.667 133.555 326.508 133.07 326.508C132.341 326.508 131.844 326.755 131.578 327.25C131.312 327.745 131.18 328.458 131.18 329.391V333.5H128.797V324.766H130.617L130.938 325.883H131.07C131.258 325.581 131.49 325.336 131.766 325.148C132.047 324.961 132.357 324.823 132.695 324.734C133.039 324.646 133.393 324.602 133.758 324.602ZM141.867 337.344C140.648 337.344 139.716 337.13 139.07 336.703C138.43 336.281 138.109 335.688 138.109 334.922C138.109 334.396 138.273 333.956 138.602 333.602C138.93 333.247 139.411 332.995 140.047 332.844C139.802 332.74 139.589 332.57 139.406 332.336C139.224 332.096 139.133 331.844 139.133 331.578C139.133 331.245 139.229 330.969 139.422 330.75C139.615 330.526 139.893 330.307 140.258 330.094C139.799 329.896 139.435 329.578 139.164 329.141C138.898 328.703 138.766 328.188 138.766 327.594C138.766 326.958 138.904 326.419 139.18 325.977C139.461 325.529 139.867 325.188 140.398 324.953C140.935 324.719 141.586 324.602 142.352 324.602C142.513 324.602 142.701 324.612 142.914 324.633C143.128 324.654 143.323 324.677 143.5 324.703C143.682 324.729 143.805 324.75 143.867 324.766H146.914V325.977L145.547 326.328C145.672 326.521 145.766 326.727 145.828 326.945C145.891 327.164 145.922 327.396 145.922 327.641C145.922 328.578 145.594 329.31 144.938 329.836C144.286 330.357 143.38 330.617 142.219 330.617C141.943 330.602 141.682 330.581 141.438 330.555C141.318 330.648 141.227 330.747 141.164 330.852C141.102 330.956 141.07 331.065 141.07 331.18C141.07 331.294 141.117 331.391 141.211 331.469C141.31 331.542 141.456 331.599 141.648 331.641C141.846 331.677 142.091 331.695 142.383 331.695H143.867C144.826 331.695 145.555 331.901 146.055 332.312C146.56 332.724 146.812 333.328 146.812 334.125C146.812 335.146 146.385 335.938 145.531 336.5C144.682 337.062 143.461 337.344 141.867 337.344ZM141.969 335.789C142.536 335.789 143.023 335.734 143.43 335.625C143.841 335.521 144.156 335.37 144.375 335.172C144.594 334.979 144.703 334.747 144.703 334.477C144.703 334.258 144.638 334.083 144.508 333.953C144.383 333.828 144.19 333.74 143.93 333.688C143.674 333.635 143.346 333.609 142.945 333.609H141.711C141.419 333.609 141.156 333.656 140.922 333.75C140.693 333.844 140.51 333.974 140.375 334.141C140.24 334.312 140.172 334.51 140.172 334.734C140.172 335.062 140.328 335.32 140.641 335.508C140.958 335.695 141.401 335.789 141.969 335.789ZM142.352 329.164C142.799 329.164 143.128 329.026 143.336 328.75C143.544 328.474 143.648 328.099 143.648 327.625C143.648 327.099 143.539 326.706 143.32 326.445C143.107 326.18 142.784 326.047 142.352 326.047C141.914 326.047 141.586 326.18 141.367 326.445C141.148 326.706 141.039 327.099 141.039 327.625C141.039 328.099 141.146 328.474 141.359 328.75C141.578 329.026 141.909 329.164 142.352 329.164ZM154.453 330.906C154.453 331.5 154.312 332.003 154.031 332.414C153.755 332.82 153.341 333.13 152.789 333.344C152.237 333.552 151.549 333.656 150.727 333.656C150.117 333.656 149.594 333.617 149.156 333.539C148.724 333.461 148.286 333.331 147.844 333.148V331.18C148.318 331.393 148.826 331.57 149.367 331.711C149.914 331.846 150.393 331.914 150.805 331.914C151.268 331.914 151.599 331.846 151.797 331.711C152 331.57 152.102 331.388 152.102 331.164C152.102 331.018 152.06 330.888 151.977 330.773C151.898 330.654 151.727 330.521 151.461 330.375C151.195 330.224 150.779 330.029 150.211 329.789C149.664 329.56 149.214 329.328 148.859 329.094C148.51 328.859 148.25 328.583 148.078 328.266C147.911 327.943 147.828 327.534 147.828 327.039C147.828 326.232 148.141 325.625 148.766 325.219C149.396 324.807 150.237 324.602 151.289 324.602C151.831 324.602 152.346 324.656 152.836 324.766C153.331 324.875 153.839 325.049 154.359 325.289L153.641 327.008C153.208 326.82 152.799 326.667 152.414 326.547C152.034 326.427 151.646 326.367 151.25 326.367C150.901 326.367 150.638 326.414 150.461 326.508C150.284 326.602 150.195 326.745 150.195 326.938C150.195 327.078 150.24 327.203 150.328 327.312C150.422 327.422 150.599 327.544 150.859 327.68C151.125 327.81 151.513 327.979 152.023 328.188C152.518 328.391 152.948 328.604 153.312 328.828C153.677 329.047 153.958 329.32 154.156 329.648C154.354 329.971 154.453 330.391 154.453 330.906Z" fill="#495057"/>
<rect x="38" y="249" width="157" height="157" rx="3" stroke="#495057" stroke-width="2"/>
<path d="M268.44 333.5H266.057V322.078H272.604V324.062H268.44V327.008H272.315V328.984H268.44V333.5ZM278.229 324.586C279.401 324.586 280.299 324.841 280.924 325.352C281.549 325.862 281.862 326.638 281.862 327.68V333.5H280.198L279.737 332.312H279.674C279.424 332.625 279.169 332.88 278.909 333.078C278.648 333.276 278.349 333.422 278.01 333.516C277.672 333.609 277.26 333.656 276.776 333.656C276.26 333.656 275.797 333.557 275.385 333.359C274.979 333.161 274.659 332.859 274.424 332.453C274.19 332.042 274.073 331.521 274.073 330.891C274.073 329.964 274.398 329.281 275.049 328.844C275.7 328.401 276.677 328.156 277.979 328.109L279.495 328.062V327.68C279.495 327.221 279.375 326.885 279.135 326.672C278.896 326.458 278.562 326.352 278.135 326.352C277.713 326.352 277.299 326.411 276.893 326.531C276.487 326.651 276.081 326.802 275.674 326.984L274.885 325.375C275.349 325.13 275.867 324.938 276.44 324.797C277.018 324.656 277.614 324.586 278.229 324.586ZM279.495 329.453L278.573 329.484C277.802 329.505 277.265 329.643 276.963 329.898C276.667 330.154 276.518 330.49 276.518 330.906C276.518 331.271 276.625 331.531 276.838 331.688C277.052 331.839 277.331 331.914 277.674 331.914C278.185 331.914 278.614 331.763 278.963 331.461C279.318 331.159 279.495 330.729 279.495 330.172V329.453ZM294.581 324.602C295.57 324.602 296.318 324.857 296.823 325.367C297.333 325.872 297.588 326.685 297.588 327.805V333.5H295.198V328.398C295.198 327.773 295.091 327.302 294.877 326.984C294.664 326.667 294.333 326.508 293.885 326.508C293.255 326.508 292.807 326.734 292.542 327.188C292.276 327.635 292.143 328.279 292.143 329.117V333.5H289.76V328.398C289.76 327.982 289.713 327.633 289.62 327.352C289.526 327.07 289.383 326.859 289.19 326.719C288.997 326.578 288.75 326.508 288.448 326.508C288.005 326.508 287.656 326.62 287.401 326.844C287.151 327.062 286.971 327.388 286.862 327.82C286.758 328.247 286.706 328.771 286.706 329.391V333.5H284.323V324.766H286.143L286.463 325.883H286.596C286.773 325.581 286.995 325.336 287.26 325.148C287.531 324.961 287.828 324.823 288.151 324.734C288.474 324.646 288.802 324.602 289.135 324.602C289.776 324.602 290.318 324.706 290.76 324.914C291.208 325.122 291.552 325.445 291.792 325.883H292.002C292.263 325.435 292.63 325.109 293.104 324.906C293.583 324.703 294.075 324.602 294.581 324.602ZM302.424 324.766V333.5H300.042V324.766H302.424ZM301.237 321.344C301.591 321.344 301.896 321.427 302.151 321.594C302.406 321.755 302.534 322.06 302.534 322.508C302.534 322.951 302.406 323.258 302.151 323.43C301.896 323.596 301.591 323.68 301.237 323.68C300.877 323.68 300.57 323.596 300.315 323.43C300.065 323.258 299.94 322.951 299.94 322.508C299.94 322.06 300.065 321.755 300.315 321.594C300.57 321.427 300.877 321.344 301.237 321.344ZM307.315 333.5H304.932V321.344H307.315V333.5ZM308.573 324.766H311.182L312.831 329.68C312.883 329.836 312.927 329.995 312.963 330.156C313 330.318 313.031 330.484 313.057 330.656C313.083 330.828 313.104 331.008 313.12 331.195H313.167C313.198 330.914 313.239 330.651 313.292 330.406C313.349 330.161 313.419 329.919 313.502 329.68L315.12 324.766H317.674L313.979 334.617C313.755 335.221 313.463 335.724 313.104 336.125C312.745 336.531 312.331 336.836 311.862 337.039C311.398 337.242 310.888 337.344 310.331 337.344C310.06 337.344 309.825 337.328 309.627 337.297C309.43 337.271 309.26 337.242 309.12 337.211V335.32C309.229 335.346 309.367 335.37 309.534 335.391C309.7 335.411 309.875 335.422 310.057 335.422C310.39 335.422 310.677 335.352 310.917 335.211C311.156 335.07 311.357 334.88 311.518 334.641C311.68 334.406 311.807 334.148 311.901 333.867L312.042 333.438L308.573 324.766Z" fill="#495057"/>
<rect x="212.651" y="249" width="157" height="157" rx="3" stroke="#495057" stroke-width="2"/>
<path d="M262.479 510.5H260.096V499.078H266.643V501.062H262.479V504.008H266.354V505.984H262.479V510.5ZM272.292 501.602C273.099 501.602 273.794 501.758 274.377 502.07C274.961 502.378 275.411 502.826 275.729 503.414C276.047 504.003 276.206 504.721 276.206 505.57V506.727H270.573C270.599 507.398 270.799 507.927 271.174 508.312C271.555 508.693 272.081 508.883 272.752 508.883C273.31 508.883 273.82 508.826 274.284 508.711C274.747 508.596 275.224 508.424 275.713 508.195V510.039C275.281 510.253 274.828 510.409 274.354 510.508C273.885 510.607 273.315 510.656 272.643 510.656C271.768 510.656 270.992 510.495 270.315 510.172C269.643 509.849 269.114 509.357 268.729 508.695C268.349 508.034 268.159 507.201 268.159 506.195C268.159 505.174 268.331 504.326 268.674 503.648C269.023 502.966 269.508 502.456 270.127 502.117C270.747 501.773 271.469 501.602 272.292 501.602ZM272.307 503.297C271.844 503.297 271.458 503.445 271.151 503.742C270.849 504.039 270.674 504.505 270.627 505.141H273.971C273.966 504.786 273.901 504.471 273.776 504.195C273.656 503.919 273.474 503.701 273.229 503.539C272.989 503.378 272.682 503.297 272.307 503.297ZM281.745 501.602C282.552 501.602 283.247 501.758 283.831 502.07C284.414 502.378 284.864 502.826 285.182 503.414C285.5 504.003 285.659 504.721 285.659 505.57V506.727H280.026C280.052 507.398 280.252 507.927 280.627 508.312C281.008 508.693 281.534 508.883 282.206 508.883C282.763 508.883 283.273 508.826 283.737 508.711C284.2 508.596 284.677 508.424 285.167 508.195V510.039C284.734 510.253 284.281 510.409 283.807 510.508C283.338 510.607 282.768 510.656 282.096 510.656C281.221 510.656 280.445 510.495 279.768 510.172C279.096 509.849 278.568 509.357 278.182 508.695C277.802 508.034 277.612 507.201 277.612 506.195C277.612 505.174 277.784 504.326 278.127 503.648C278.476 502.966 278.961 502.456 279.581 502.117C280.2 501.773 280.922 501.602 281.745 501.602ZM281.76 503.297C281.297 503.297 280.911 503.445 280.604 503.742C280.302 504.039 280.127 504.505 280.081 505.141H283.424C283.419 504.786 283.354 504.471 283.229 504.195C283.109 503.919 282.927 503.701 282.682 503.539C282.443 503.378 282.135 503.297 281.76 503.297ZM289.979 510.5H287.596V498.344H289.979V510.5ZM294.87 501.766V510.5H292.487V501.766H294.87ZM293.682 498.344C294.036 498.344 294.341 498.427 294.596 498.594C294.851 498.755 294.979 499.06 294.979 499.508C294.979 499.951 294.851 500.258 294.596 500.43C294.341 500.596 294.036 500.68 293.682 500.68C293.323 500.68 293.015 500.596 292.76 500.43C292.51 500.258 292.385 499.951 292.385 499.508C292.385 499.06 292.51 498.755 292.76 498.594C293.015 498.427 293.323 498.344 293.682 498.344ZM302.338 501.602C303.271 501.602 304.021 501.857 304.588 502.367C305.156 502.872 305.44 503.685 305.44 504.805V510.5H303.057V505.398C303.057 504.773 302.943 504.302 302.713 503.984C302.489 503.667 302.135 503.508 301.651 503.508C300.922 503.508 300.424 503.755 300.159 504.25C299.893 504.745 299.76 505.458 299.76 506.391V510.5H297.377V501.766H299.198L299.518 502.883H299.651C299.838 502.581 300.07 502.336 300.346 502.148C300.627 501.961 300.937 501.823 301.276 501.734C301.62 501.646 301.974 501.602 302.338 501.602ZM310.448 514.344C309.229 514.344 308.297 514.13 307.651 513.703C307.01 513.281 306.69 512.688 306.69 511.922C306.69 511.396 306.854 510.956 307.182 510.602C307.51 510.247 307.992 509.995 308.627 509.844C308.383 509.74 308.169 509.57 307.987 509.336C307.805 509.096 307.713 508.844 307.713 508.578C307.713 508.245 307.81 507.969 308.002 507.75C308.195 507.526 308.474 507.307 308.838 507.094C308.38 506.896 308.015 506.578 307.745 506.141C307.479 505.703 307.346 505.188 307.346 504.594C307.346 503.958 307.484 503.419 307.76 502.977C308.042 502.529 308.448 502.188 308.979 501.953C309.515 501.719 310.167 501.602 310.932 501.602C311.094 501.602 311.281 501.612 311.495 501.633C311.708 501.654 311.903 501.677 312.081 501.703C312.263 501.729 312.385 501.75 312.448 501.766H315.495V502.977L314.127 503.328C314.252 503.521 314.346 503.727 314.409 503.945C314.471 504.164 314.502 504.396 314.502 504.641C314.502 505.578 314.174 506.31 313.518 506.836C312.867 507.357 311.961 507.617 310.799 507.617C310.523 507.602 310.263 507.581 310.018 507.555C309.898 507.648 309.807 507.747 309.745 507.852C309.682 507.956 309.651 508.065 309.651 508.18C309.651 508.294 309.698 508.391 309.792 508.469C309.89 508.542 310.036 508.599 310.229 508.641C310.427 508.677 310.672 508.695 310.963 508.695H312.448C313.406 508.695 314.135 508.901 314.635 509.312C315.14 509.724 315.393 510.328 315.393 511.125C315.393 512.146 314.966 512.938 314.112 513.5C313.263 514.062 312.042 514.344 310.448 514.344ZM310.549 512.789C311.117 512.789 311.604 512.734 312.01 512.625C312.422 512.521 312.737 512.37 312.956 512.172C313.174 511.979 313.284 511.747 313.284 511.477C313.284 511.258 313.219 511.083 313.088 510.953C312.963 510.828 312.771 510.74 312.51 510.688C312.255 510.635 311.927 510.609 311.526 510.609H310.292C310 510.609 309.737 510.656 309.502 510.75C309.273 510.844 309.091 510.974 308.956 511.141C308.82 511.312 308.752 511.51 308.752 511.734C308.752 512.062 308.909 512.32 309.221 512.508C309.539 512.695 309.982 512.789 310.549 512.789ZM310.932 506.164C311.38 506.164 311.708 506.026 311.917 505.75C312.125 505.474 312.229 505.099 312.229 504.625C312.229 504.099 312.12 503.706 311.901 503.445C311.687 503.18 311.364 503.047 310.932 503.047C310.495 503.047 310.167 503.18 309.948 503.445C309.729 503.706 309.62 504.099 309.62 504.625C309.62 505.099 309.726 505.474 309.94 505.75C310.159 506.026 310.489 506.164 310.932 506.164ZM323.034 507.906C323.034 508.5 322.893 509.003 322.612 509.414C322.336 509.82 321.922 510.13 321.37 510.344C320.818 510.552 320.13 510.656 319.307 510.656C318.698 510.656 318.174 510.617 317.737 510.539C317.305 510.461 316.867 510.331 316.424 510.148V508.18C316.898 508.393 317.406 508.57 317.948 508.711C318.495 508.846 318.974 508.914 319.385 508.914C319.849 508.914 320.18 508.846 320.377 508.711C320.581 508.57 320.682 508.388 320.682 508.164C320.682 508.018 320.64 507.888 320.557 507.773C320.479 507.654 320.307 507.521 320.042 507.375C319.776 507.224 319.359 507.029 318.792 506.789C318.245 506.56 317.794 506.328 317.44 506.094C317.091 505.859 316.831 505.583 316.659 505.266C316.492 504.943 316.409 504.534 316.409 504.039C316.409 503.232 316.721 502.625 317.346 502.219C317.976 501.807 318.818 501.602 319.87 501.602C320.411 501.602 320.927 501.656 321.417 501.766C321.911 501.875 322.419 502.049 322.94 502.289L322.221 504.008C321.789 503.82 321.38 503.667 320.995 503.547C320.614 503.427 320.226 503.367 319.831 503.367C319.482 503.367 319.219 503.414 319.042 503.508C318.864 503.602 318.776 503.745 318.776 503.938C318.776 504.078 318.82 504.203 318.909 504.312C319.002 504.422 319.18 504.544 319.44 504.68C319.706 504.81 320.094 504.979 320.604 505.188C321.099 505.391 321.528 505.604 321.893 505.828C322.258 506.047 322.539 506.32 322.737 506.648C322.935 506.971 323.034 507.391 323.034 507.906Z" fill="#495057"/>
<rect x="212.651" y="426" width="157" height="157" rx="3" stroke="#495057" stroke-width="2"/>
<path d="M98.1328 504.773C98.1328 505.654 98.0234 506.456 97.8047 507.18C97.5859 507.898 97.2526 508.518 96.8047 509.039C96.362 509.56 95.7995 509.961 95.1172 510.242C94.4349 510.518 93.6276 510.656 92.6953 510.656C91.763 510.656 90.9557 510.518 90.2734 510.242C89.5911 509.961 89.026 509.56 88.5781 509.039C88.1354 508.518 87.8047 507.896 87.5859 507.172C87.3672 506.448 87.2578 505.643 87.2578 504.758C87.2578 503.576 87.4505 502.547 87.8359 501.672C88.2266 500.792 88.8255 500.109 89.6328 499.625C90.4401 499.141 91.4661 498.898 92.7109 498.898C93.9505 498.898 94.9688 499.141 95.7656 499.625C96.5677 500.109 97.1615 500.792 97.5469 501.672C97.9375 502.552 98.1328 503.586 98.1328 504.773ZM89.7969 504.773C89.7969 505.57 89.8958 506.258 90.0938 506.836C90.2969 507.409 90.612 507.852 91.0391 508.164C91.4661 508.471 92.0182 508.625 92.6953 508.625C93.3828 508.625 93.9401 508.471 94.3672 508.164C94.7943 507.852 95.1042 507.409 95.2969 506.836C95.4948 506.258 95.5938 505.57 95.5938 504.773C95.5938 503.576 95.3698 502.633 94.9219 501.945C94.474 501.258 93.737 500.914 92.7109 500.914C92.0286 500.914 91.4714 501.07 91.0391 501.383C90.612 501.69 90.2969 502.133 90.0938 502.711C89.8958 503.284 89.7969 503.971 89.7969 504.773ZM102.695 498.344V501.172C102.695 501.5 102.685 501.826 102.664 502.148C102.648 502.471 102.628 502.721 102.602 502.898H102.695C102.924 502.539 103.237 502.234 103.633 501.984C104.029 501.729 104.542 501.602 105.172 501.602C106.151 501.602 106.945 501.984 107.555 502.75C108.164 503.516 108.469 504.638 108.469 506.117C108.469 507.112 108.328 507.948 108.047 508.625C107.766 509.297 107.372 509.805 106.867 510.148C106.362 510.487 105.776 510.656 105.109 510.656C104.469 510.656 103.964 510.542 103.594 510.312C103.224 510.083 102.924 509.826 102.695 509.539H102.531L102.133 510.5H100.312V498.344H102.695ZM104.406 503.508C103.99 503.508 103.659 503.594 103.414 503.766C103.169 503.938 102.99 504.195 102.875 504.539C102.766 504.883 102.706 505.318 102.695 505.844V506.102C102.695 506.951 102.82 507.602 103.07 508.055C103.32 508.503 103.776 508.727 104.438 508.727C104.927 508.727 105.315 508.5 105.602 508.047C105.893 507.594 106.039 506.94 106.039 506.086C106.039 505.232 105.893 504.589 105.602 504.156C105.31 503.724 104.911 503.508 104.406 503.508ZM109.734 514.344C109.464 514.344 109.182 514.323 108.891 514.281C108.599 514.245 108.357 514.201 108.164 514.148V512.273C108.357 512.326 108.539 512.362 108.711 512.383C108.878 512.409 109.068 512.422 109.281 512.422C109.604 512.422 109.878 512.331 110.102 512.148C110.326 511.971 110.438 511.62 110.438 511.094V501.766H112.82V511.445C112.82 511.977 112.719 512.461 112.516 512.898C112.312 513.341 111.984 513.693 111.531 513.953C111.078 514.214 110.479 514.344 109.734 514.344ZM110.336 499.508C110.336 499.06 110.461 498.755 110.711 498.594C110.966 498.427 111.273 498.344 111.633 498.344C111.987 498.344 112.292 498.427 112.547 498.594C112.802 498.755 112.93 499.06 112.93 499.508C112.93 499.951 112.802 500.258 112.547 500.43C112.292 500.596 111.987 500.68 111.633 500.68C111.273 500.68 110.966 500.596 110.711 500.43C110.461 500.258 110.336 499.951 110.336 499.508ZM118.93 501.602C119.737 501.602 120.432 501.758 121.016 502.07C121.599 502.378 122.049 502.826 122.367 503.414C122.685 504.003 122.844 504.721 122.844 505.57V506.727H117.211C117.237 507.398 117.438 507.927 117.812 508.312C118.193 508.693 118.719 508.883 119.391 508.883C119.948 508.883 120.458 508.826 120.922 508.711C121.385 508.596 121.862 508.424 122.352 508.195V510.039C121.919 510.253 121.466 510.409 120.992 510.508C120.523 510.607 119.953 510.656 119.281 510.656C118.406 510.656 117.63 510.495 116.953 510.172C116.281 509.849 115.753 509.357 115.367 508.695C114.987 508.034 114.797 507.201 114.797 506.195C114.797 505.174 114.969 504.326 115.312 503.648C115.661 502.966 116.146 502.456 116.766 502.117C117.385 501.773 118.107 501.602 118.93 501.602ZM118.945 503.297C118.482 503.297 118.096 503.445 117.789 503.742C117.487 504.039 117.312 504.505 117.266 505.141H120.609C120.604 504.786 120.539 504.471 120.414 504.195C120.294 503.919 120.112 503.701 119.867 503.539C119.628 503.378 119.32 503.297 118.945 503.297ZM128.328 510.656C127.464 510.656 126.727 510.5 126.117 510.188C125.508 509.87 125.044 509.38 124.727 508.719C124.409 508.057 124.25 507.211 124.25 506.18C124.25 505.112 124.43 504.242 124.789 503.57C125.154 502.893 125.656 502.396 126.297 502.078C126.943 501.76 127.69 501.602 128.539 501.602C129.143 501.602 129.664 501.661 130.102 501.781C130.544 501.896 130.93 502.034 131.258 502.195L130.555 504.039C130.18 503.888 129.831 503.766 129.508 503.672C129.185 503.573 128.862 503.523 128.539 503.523C128.122 503.523 127.776 503.622 127.5 503.82C127.224 504.013 127.018 504.305 126.883 504.695C126.747 505.086 126.68 505.576 126.68 506.164C126.68 506.742 126.753 507.221 126.898 507.602C127.044 507.982 127.255 508.266 127.531 508.453C127.807 508.635 128.143 508.727 128.539 508.727C129.034 508.727 129.474 508.661 129.859 508.531C130.245 508.396 130.62 508.208 130.984 507.969V510.008C130.62 510.237 130.237 510.401 129.836 510.5C129.44 510.604 128.938 510.656 128.328 510.656ZM136.695 508.758C136.956 508.758 137.208 508.732 137.453 508.68C137.703 508.628 137.951 508.562 138.195 508.484V510.258C137.94 510.372 137.622 510.466 137.242 510.539C136.867 510.617 136.456 510.656 136.008 510.656C135.487 510.656 135.018 510.573 134.602 510.406C134.19 510.234 133.865 509.94 133.625 509.523C133.391 509.102 133.273 508.516 133.273 507.766V503.555H132.133V502.547L133.445 501.75L134.133 499.906H135.656V501.766H138.102V503.555H135.656V507.766C135.656 508.099 135.75 508.349 135.938 508.516C136.13 508.677 136.383 508.758 136.695 508.758ZM146.062 507.906C146.062 508.5 145.922 509.003 145.641 509.414C145.365 509.82 144.951 510.13 144.398 510.344C143.846 510.552 143.159 510.656 142.336 510.656C141.727 510.656 141.203 510.617 140.766 510.539C140.333 510.461 139.896 510.331 139.453 510.148V508.18C139.927 508.393 140.435 508.57 140.977 508.711C141.523 508.846 142.003 508.914 142.414 508.914C142.878 508.914 143.208 508.846 143.406 508.711C143.609 508.57 143.711 508.388 143.711 508.164C143.711 508.018 143.669 507.888 143.586 507.773C143.508 507.654 143.336 507.521 143.07 507.375C142.805 507.224 142.388 507.029 141.82 506.789C141.273 506.56 140.823 506.328 140.469 506.094C140.12 505.859 139.859 505.583 139.688 505.266C139.521 504.943 139.438 504.534 139.438 504.039C139.438 503.232 139.75 502.625 140.375 502.219C141.005 501.807 141.846 501.602 142.898 501.602C143.44 501.602 143.956 501.656 144.445 501.766C144.94 501.875 145.448 502.049 145.969 502.289L145.25 504.008C144.818 503.82 144.409 503.667 144.023 503.547C143.643 503.427 143.255 503.367 142.859 503.367C142.51 503.367 142.247 503.414 142.07 503.508C141.893 503.602 141.805 503.745 141.805 503.938C141.805 504.078 141.849 504.203 141.938 504.312C142.031 504.422 142.208 504.544 142.469 504.68C142.734 504.81 143.122 504.979 143.633 505.188C144.128 505.391 144.557 505.604 144.922 505.828C145.286 506.047 145.568 506.32 145.766 506.648C145.964 506.971 146.062 507.391 146.062 507.906Z" fill="#495057"/>
<rect x="38" y="426" width="157" height="157" rx="3" stroke="#495057" stroke-width="2"/>
<path d="M284.734 674.026H281.656L276.688 665.386H276.617C276.638 665.745 276.656 666.107 276.672 666.472C276.688 666.836 276.703 667.201 276.719 667.565C276.734 667.925 276.75 668.287 276.766 668.651V674.026H274.602V662.604H277.656L282.617 671.159H282.672C282.661 670.805 282.648 670.453 282.633 670.104C282.617 669.756 282.602 669.407 282.586 669.058C282.576 668.709 282.565 668.36 282.555 668.011V662.604H284.734V674.026ZM291.031 665.128C291.839 665.128 292.534 665.284 293.117 665.597C293.701 665.904 294.151 666.352 294.469 666.94C294.786 667.529 294.945 668.248 294.945 669.097V670.253H289.312C289.339 670.925 289.539 671.453 289.914 671.839C290.294 672.219 290.82 672.409 291.492 672.409C292.049 672.409 292.56 672.352 293.023 672.237C293.487 672.123 293.964 671.951 294.453 671.722V673.565C294.021 673.779 293.568 673.935 293.094 674.034C292.625 674.133 292.055 674.183 291.383 674.183C290.508 674.183 289.732 674.021 289.055 673.698C288.383 673.375 287.854 672.883 287.469 672.222C287.089 671.56 286.898 670.727 286.898 669.722C286.898 668.701 287.07 667.852 287.414 667.175C287.763 666.493 288.247 665.982 288.867 665.644C289.487 665.3 290.208 665.128 291.031 665.128ZM291.047 666.823C290.583 666.823 290.198 666.972 289.891 667.269C289.589 667.565 289.414 668.032 289.367 668.667H292.711C292.706 668.313 292.641 667.998 292.516 667.722C292.396 667.446 292.214 667.227 291.969 667.065C291.729 666.904 291.422 666.823 291.047 666.823ZM298.672 669.565L295.859 665.292H298.562L300.258 668.073L301.969 665.292H304.672L301.828 669.565L304.805 674.026H302.094L300.258 671.034L298.414 674.026H295.711L298.672 669.565ZM309.812 672.284C310.073 672.284 310.326 672.258 310.57 672.206C310.82 672.154 311.068 672.089 311.312 672.011V673.784C311.057 673.899 310.74 673.993 310.359 674.065C309.984 674.144 309.573 674.183 309.125 674.183C308.604 674.183 308.135 674.099 307.719 673.933C307.307 673.761 306.982 673.466 306.742 673.05C306.508 672.628 306.391 672.042 306.391 671.292V667.081H305.25V666.073L306.562 665.276L307.25 663.433H308.773V665.292H311.219V667.081H308.773V671.292C308.773 671.625 308.867 671.875 309.055 672.042C309.247 672.203 309.5 672.284 309.812 672.284Z" fill="#495057"/>
<path d="M136.191 187.177C135.467 187.177 134.824 187.32 134.263 187.604C133.709 187.881 133.241 188.284 132.859 188.813C132.485 189.342 132.2 189.981 132.004 190.729C131.809 191.478 131.711 192.32 131.711 193.256C131.711 194.518 131.866 195.596 132.175 196.491C132.493 197.378 132.981 198.058 133.64 198.53C134.299 198.994 135.15 199.226 136.191 199.226C136.916 199.226 137.64 199.144 138.364 198.981C139.097 198.819 139.89 198.587 140.745 198.286V201.459C139.955 201.785 139.178 202.017 138.413 202.155C137.648 202.302 136.79 202.375 135.837 202.375C133.998 202.375 132.485 201.997 131.296 201.24C130.116 200.475 129.242 199.409 128.672 198.042C128.102 196.666 127.817 195.063 127.817 193.232C127.817 191.881 128 190.644 128.367 189.521C128.733 188.398 129.27 187.425 129.978 186.604C130.686 185.782 131.561 185.147 132.603 184.699C133.644 184.252 134.84 184.028 136.191 184.028C137.078 184.028 137.965 184.142 138.853 184.37C139.748 184.589 140.602 184.895 141.416 185.285L140.195 188.361C139.528 188.044 138.857 187.767 138.181 187.531C137.506 187.295 136.842 187.177 136.191 187.177ZM155.479 202.131L154.185 197.883H147.678L146.384 202.131H142.307L148.606 184.211H153.232L159.556 202.131H155.479ZM153.281 194.709L151.987 190.559C151.906 190.282 151.796 189.928 151.658 189.497C151.528 189.057 151.393 188.614 151.255 188.166C151.125 187.71 151.019 187.316 150.938 186.982C150.856 187.316 150.742 187.731 150.596 188.227C150.457 188.715 150.323 189.179 150.193 189.619C150.063 190.058 149.969 190.371 149.912 190.559L148.63 194.709H153.281ZM168.699 202.131H164.915V187.434H160.068V184.284H173.545V187.434H168.699V202.131ZM186.57 202.131H176.292V184.284H186.57V187.385H180.076V191.303H186.118V194.404H180.076V199.006H186.57V202.131ZM197.08 192.109H204.16V201.362C203.224 201.671 202.252 201.919 201.243 202.106C200.234 202.285 199.09 202.375 197.812 202.375C196.038 202.375 194.533 202.025 193.296 201.325C192.059 200.625 191.119 199.592 190.476 198.225C189.833 196.857 189.512 195.177 189.512 193.183C189.512 191.311 189.87 189.692 190.586 188.325C191.31 186.958 192.364 185.9 193.748 185.151C195.139 184.402 196.836 184.028 198.838 184.028C199.782 184.028 200.714 184.13 201.633 184.333C202.553 184.536 203.387 184.801 204.136 185.126L202.878 188.154C202.333 187.877 201.711 187.645 201.011 187.458C200.311 187.271 199.578 187.177 198.813 187.177C197.715 187.177 196.759 187.43 195.945 187.934C195.139 188.439 194.513 189.147 194.065 190.058C193.625 190.961 193.406 192.028 193.406 193.256C193.406 194.42 193.564 195.454 193.882 196.357C194.199 197.252 194.7 197.956 195.383 198.469C196.067 198.973 196.958 199.226 198.057 199.226C198.594 199.226 199.045 199.201 199.412 199.152C199.786 199.095 200.136 199.038 200.461 198.981V195.258H197.08V192.109ZM224.619 193.183C224.619 194.558 224.448 195.812 224.106 196.943C223.765 198.066 223.244 199.034 222.544 199.848C221.852 200.662 220.973 201.289 219.907 201.728C218.841 202.159 217.58 202.375 216.123 202.375C214.666 202.375 213.405 202.159 212.339 201.728C211.273 201.289 210.39 200.662 209.69 199.848C208.998 199.034 208.481 198.062 208.14 196.931C207.798 195.799 207.627 194.542 207.627 193.159C207.627 191.311 207.928 189.704 208.53 188.337C209.141 186.962 210.076 185.896 211.338 185.139C212.599 184.382 214.202 184.003 216.147 184.003C218.084 184.003 219.675 184.382 220.92 185.139C222.174 185.896 223.101 186.962 223.704 188.337C224.314 189.712 224.619 191.328 224.619 193.183ZM211.594 193.183C211.594 194.428 211.749 195.502 212.058 196.406C212.375 197.301 212.868 197.993 213.535 198.481C214.202 198.961 215.065 199.201 216.123 199.201C217.197 199.201 218.068 198.961 218.735 198.481C219.403 197.993 219.887 197.301 220.188 196.406C220.497 195.502 220.652 194.428 220.652 193.183C220.652 191.311 220.302 189.838 219.602 188.764C218.902 187.69 217.751 187.153 216.147 187.153C215.081 187.153 214.211 187.397 213.535 187.885C212.868 188.365 212.375 189.057 212.058 189.96C211.749 190.856 211.594 191.93 211.594 193.183ZM233.518 184.284C235.138 184.284 236.472 184.479 237.522 184.87C238.58 185.261 239.365 185.851 239.878 186.64C240.391 187.43 240.647 188.426 240.647 189.631C240.647 190.445 240.492 191.157 240.183 191.767C239.874 192.377 239.467 192.894 238.962 193.317C238.458 193.741 237.913 194.086 237.327 194.355L242.576 202.131H238.376L234.116 195.283H232.102V202.131H228.318V184.284H233.518ZM233.25 187.385H232.102V192.207H233.323C234.576 192.207 235.471 191.999 236.008 191.584C236.554 191.161 236.826 190.542 236.826 189.729C236.826 188.882 236.533 188.28 235.947 187.922C235.369 187.564 234.47 187.385 233.25 187.385ZM244.822 202.131V184.284H248.606V202.131H244.822ZM263.376 202.131H253.098V184.284H263.376V187.385H256.882V191.303H262.925V194.404H256.882V199.006H263.376V202.131ZM277.646 197.175C277.646 198.233 277.39 199.152 276.877 199.934C276.365 200.715 275.616 201.317 274.631 201.74C273.655 202.163 272.467 202.375 271.067 202.375C270.448 202.375 269.842 202.334 269.248 202.253C268.662 202.172 268.097 202.054 267.551 201.899C267.014 201.736 266.501 201.537 266.013 201.301V197.785C266.86 198.16 267.738 198.497 268.65 198.798C269.561 199.099 270.465 199.25 271.36 199.25C271.978 199.25 272.475 199.169 272.849 199.006C273.232 198.843 273.508 198.619 273.679 198.334C273.85 198.05 273.936 197.724 273.936 197.358C273.936 196.91 273.785 196.528 273.484 196.21C273.183 195.893 272.768 195.596 272.239 195.319C271.718 195.043 271.128 194.746 270.469 194.428C270.054 194.233 269.602 193.997 269.114 193.72C268.625 193.435 268.162 193.09 267.722 192.683C267.283 192.276 266.921 191.783 266.636 191.206C266.359 190.62 266.221 189.92 266.221 189.106C266.221 188.04 266.465 187.128 266.953 186.372C267.441 185.615 268.137 185.037 269.041 184.638C269.952 184.231 271.026 184.028 272.263 184.028C273.191 184.028 274.074 184.138 274.912 184.357C275.758 184.569 276.641 184.878 277.561 185.285L276.34 188.227C275.518 187.893 274.782 187.637 274.131 187.458C273.48 187.271 272.817 187.177 272.141 187.177C271.669 187.177 271.266 187.255 270.933 187.409C270.599 187.556 270.347 187.767 270.176 188.044C270.005 188.312 269.919 188.626 269.919 188.984C269.919 189.407 270.042 189.765 270.286 190.058C270.538 190.343 270.912 190.62 271.409 190.888C271.913 191.157 272.54 191.47 273.289 191.828C274.2 192.259 274.977 192.711 275.62 193.183C276.271 193.647 276.772 194.196 277.122 194.831C277.472 195.458 277.646 196.239 277.646 197.175Z" fill="black"/>
<path d="M333.17 674.026L338.463 668.733C338.854 668.343 338.854 667.71 338.463 667.319L333.17 662.026" stroke="#1B1D1F" stroke-width="2" stroke-linecap="round"/>
</g>
<rect x="1.25" y="1.78613" width="401.5" height="719.5" rx="6.75" stroke="black" stroke-width="2.5"/>
<defs>
<clipPath id="clip0_157_6879">
<rect y="0.536133" width="404" height="722" rx="8" fill="white"/>
</clipPath>
</defs>
</svg>
