<svg width="405" height="723" viewBox="0 0 405 723" fill="none" xmlns="http://www.w3.org/2000/svg">
<g clip-path="url(#clip0_157_6863)">
<rect x="0.672363" y="0.536133" width="404" height="722" rx="8" fill="white"/>
<path d="M1.67236 8.53613C1.67236 4.67014 4.80637 1.53613 8.67236 1.53613H446.672C450.538 1.53613 453.672 4.67014 453.672 8.53613V70.5361H1.67236V8.53613Z" fill="white"/>
<path d="M1.67236 8.53613C1.67236 4.67014 4.80637 1.53613 8.67236 1.53613H446.672C450.538 1.53613 453.672 4.67014 453.672 8.53613V70.5361H1.67236V8.53613Z" stroke="#1B1D1F" stroke-width="2"/>
<line x1="347.843" y1="28.2715" x2="377.323" y2="28.2715" stroke="black" stroke-width="2"/>
<line x1="347.843" y1="34.8926" x2="377.323" y2="34.8926" stroke="black" stroke-width="2"/>
<line x1="347.843" y1="41.8008" x2="377.323" y2="41.8008" stroke="black" stroke-width="2"/>
<path d="M171.727 339.478H168.977L165.985 334.665L164.961 335.399V339.478H162.54V328.056H164.961V333.282C165.123 333.058 165.282 332.834 165.438 332.61C165.594 332.386 165.753 332.162 165.915 331.938L169.008 328.056H171.696L167.711 333.11L171.727 339.478ZM173.165 339.478V328.056H175.586V339.478H173.165ZM185.204 336.306C185.204 336.983 185.04 337.571 184.711 338.071C184.383 338.571 183.904 338.957 183.274 339.228C182.649 339.498 181.889 339.634 180.993 339.634C180.597 339.634 180.209 339.608 179.829 339.556C179.454 339.504 179.092 339.428 178.743 339.329C178.399 339.225 178.071 339.097 177.758 338.946V336.696C178.3 336.936 178.862 337.152 179.446 337.345C180.029 337.537 180.607 337.634 181.18 337.634C181.576 337.634 181.894 337.582 182.133 337.478C182.378 337.373 182.555 337.23 182.665 337.048C182.774 336.866 182.829 336.657 182.829 336.423C182.829 336.136 182.732 335.892 182.54 335.688C182.347 335.485 182.081 335.295 181.743 335.118C181.409 334.941 181.032 334.751 180.61 334.548C180.344 334.423 180.055 334.272 179.743 334.095C179.43 333.912 179.133 333.691 178.852 333.431C178.571 333.17 178.339 332.855 178.157 332.485C177.98 332.11 177.891 331.662 177.891 331.142C177.891 330.459 178.047 329.876 178.36 329.392C178.672 328.907 179.118 328.537 179.696 328.282C180.279 328.022 180.967 327.892 181.758 327.892C182.352 327.892 182.917 327.962 183.454 328.103C183.995 328.238 184.56 328.436 185.149 328.696L184.368 330.579C183.842 330.366 183.37 330.201 182.954 330.087C182.537 329.967 182.112 329.907 181.68 329.907C181.378 329.907 181.12 329.957 180.907 330.056C180.693 330.149 180.532 330.285 180.422 330.462C180.313 330.634 180.258 330.834 180.258 331.063C180.258 331.334 180.336 331.563 180.493 331.751C180.654 331.933 180.894 332.11 181.211 332.282C181.534 332.454 181.935 332.655 182.415 332.884C182.998 333.16 183.495 333.449 183.907 333.751C184.323 334.048 184.644 334.399 184.868 334.806C185.092 335.207 185.204 335.707 185.204 336.306ZM201.305 328.056L198.399 339.478H195.641L194.094 333.478C194.063 333.363 194.021 333.188 193.969 332.954C193.917 332.72 193.862 332.465 193.805 332.188C193.748 331.907 193.696 331.644 193.649 331.399C193.607 331.149 193.579 330.951 193.563 330.806C193.547 330.951 193.516 331.147 193.469 331.392C193.428 331.636 193.378 331.897 193.321 332.173C193.269 332.449 193.217 332.707 193.165 332.946C193.112 333.186 193.071 333.368 193.04 333.493L191.5 339.478H188.75L185.836 328.056H188.219L189.68 334.29C189.722 334.478 189.769 334.701 189.821 334.962C189.878 335.222 189.933 335.496 189.985 335.782C190.042 336.063 190.092 336.337 190.133 336.603C190.18 336.863 190.214 337.09 190.235 337.282C190.261 337.084 190.295 336.855 190.336 336.595C190.378 336.329 190.422 336.061 190.469 335.79C190.521 335.514 190.573 335.259 190.625 335.024C190.678 334.79 190.724 334.6 190.766 334.454L192.43 328.056H194.719L196.383 334.454C196.42 334.595 196.461 334.785 196.508 335.024C196.56 335.259 196.612 335.514 196.665 335.79C196.717 336.066 196.764 336.337 196.805 336.603C196.852 336.863 196.886 337.09 196.907 337.282C196.943 337.022 196.993 336.707 197.055 336.337C197.123 335.962 197.193 335.59 197.266 335.22C197.344 334.85 197.412 334.54 197.469 334.29L198.922 328.056H201.305ZM209.735 339.478L208.907 336.759H204.743L203.915 339.478H201.305L205.336 328.009H208.297L212.344 339.478H209.735ZM208.329 334.728L207.5 332.071C207.448 331.894 207.378 331.668 207.29 331.392C207.206 331.11 207.12 330.826 207.032 330.54C206.948 330.248 206.881 329.996 206.829 329.782C206.777 329.996 206.704 330.261 206.61 330.579C206.521 330.892 206.435 331.188 206.352 331.47C206.269 331.751 206.209 331.951 206.172 332.071L205.352 334.728H208.329ZM223.149 339.478H220.735V334.548H216.211V339.478H213.79V328.056H216.211V332.532H220.735V328.056H223.149V339.478ZM226.04 339.478V328.056H228.461V339.478H226.04ZM231.336 339.478V328.056H233.758V337.478H238.391V339.478H231.336ZM240.383 339.478V328.056H242.805V339.478H240.383Z" fill="#495057"/>
<rect x="65.6724" y="304.978" width="274" height="57" rx="3" stroke="#495057" stroke-width="2"/>
<path d="M182.938 416.536H180.188L177.196 411.724L176.172 412.458V416.536H173.75V405.114H176.172V410.341C176.334 410.117 176.493 409.893 176.649 409.669C176.805 409.445 176.964 409.221 177.125 408.997L180.219 405.114H182.907L178.922 410.169L182.938 416.536ZM184.375 416.536V405.114H186.797V416.536H184.375ZM198.86 416.536H196.11L193.118 411.724L192.094 412.458V416.536H189.672V405.114H192.094V410.341C192.256 410.117 192.415 409.893 192.571 409.669C192.727 409.445 192.886 409.221 193.047 408.997L196.141 405.114H198.829L194.844 410.169L198.86 416.536ZM209.594 405.114V412.505C209.594 413.291 209.42 414.002 209.071 414.638C208.727 415.268 208.204 415.768 207.5 416.138C206.803 416.507 205.922 416.692 204.86 416.692C203.349 416.692 202.198 416.307 201.407 415.536C200.615 414.765 200.219 413.744 200.219 412.474V405.114H202.633V412.106C202.633 413.049 202.826 413.711 203.211 414.091C203.597 414.471 204.167 414.661 204.922 414.661C205.454 414.661 205.883 414.57 206.211 414.388C206.545 414.205 206.79 413.924 206.946 413.544C207.102 413.164 207.18 412.679 207.18 412.091V405.114H209.594ZM215.946 409.817L218.329 405.114H220.938L217.149 412.091V416.536H214.743V412.169L210.954 405.114H213.579L215.946 409.817ZM231.672 405.114V412.505C231.672 413.291 231.498 414.002 231.149 414.638C230.805 415.268 230.282 415.768 229.579 416.138C228.881 416.507 228 416.692 226.938 416.692C225.428 416.692 224.277 416.307 223.485 415.536C222.693 414.765 222.297 413.744 222.297 412.474V405.114H224.711V412.106C224.711 413.049 224.904 413.711 225.29 414.091C225.675 414.471 226.245 414.661 227 414.661C227.532 414.661 227.961 414.57 228.29 414.388C228.623 414.205 228.868 413.924 229.024 413.544C229.18 413.164 229.258 412.679 229.258 412.091V405.114H231.672Z" fill="#495057"/>
<rect x="65.6724" y="382.036" width="274" height="57" rx="3" stroke="#495057" stroke-width="2"/>
<path d="M178.235 487.774C178.235 489.061 177.987 490.136 177.493 491.001C177.003 491.86 176.292 492.509 175.36 492.946C174.428 493.379 173.305 493.595 171.993 493.595H168.758V482.173H172.344C173.542 482.173 174.581 482.386 175.461 482.813C176.342 483.235 177.024 483.863 177.508 484.696C177.993 485.524 178.235 486.55 178.235 487.774ZM175.719 487.837C175.719 486.993 175.594 486.3 175.344 485.759C175.099 485.212 174.735 484.808 174.25 484.548C173.771 484.287 173.178 484.157 172.469 484.157H171.18V491.595H172.219C173.402 491.595 174.279 491.28 174.852 490.649C175.43 490.019 175.719 489.082 175.719 487.837ZM189.961 493.595H187.547V488.665H183.024V493.595H180.602V482.173H183.024V486.649H187.547V482.173H189.961V493.595ZM203.219 487.868C203.219 488.748 203.11 489.55 202.891 490.274C202.672 490.993 202.339 491.613 201.891 492.134C201.448 492.655 200.886 493.056 200.204 493.337C199.521 493.613 198.714 493.751 197.782 493.751C196.849 493.751 196.042 493.613 195.36 493.337C194.678 493.056 194.112 492.655 193.665 492.134C193.222 491.613 192.891 490.991 192.672 490.267C192.454 489.543 192.344 488.738 192.344 487.853C192.344 486.67 192.537 485.642 192.922 484.767C193.313 483.886 193.912 483.204 194.719 482.72C195.527 482.235 196.553 481.993 197.797 481.993C199.037 481.993 200.055 482.235 200.852 482.72C201.654 483.204 202.248 483.886 202.633 484.767C203.024 485.647 203.219 486.681 203.219 487.868ZM194.883 487.868C194.883 488.665 194.982 489.353 195.18 489.931C195.383 490.504 195.698 490.946 196.125 491.259C196.553 491.566 197.105 491.72 197.782 491.72C198.469 491.72 199.027 491.566 199.454 491.259C199.881 490.946 200.191 490.504 200.383 489.931C200.581 489.353 200.68 488.665 200.68 487.868C200.68 486.67 200.456 485.728 200.008 485.04C199.56 484.353 198.823 484.009 197.797 484.009C197.115 484.009 196.558 484.165 196.125 484.478C195.698 484.785 195.383 485.228 195.18 485.806C194.982 486.379 194.883 487.066 194.883 487.868ZM205.586 493.595V482.173H208.008V491.595H212.641V493.595H205.586ZM223.93 482.173V489.563C223.93 490.35 223.756 491.061 223.407 491.696C223.063 492.326 222.54 492.826 221.836 493.196C221.139 493.566 220.258 493.751 219.196 493.751C217.685 493.751 216.534 493.366 215.743 492.595C214.951 491.824 214.555 490.803 214.555 489.532V482.173H216.969V489.165C216.969 490.108 217.162 490.769 217.547 491.149C217.933 491.53 218.503 491.72 219.258 491.72C219.79 491.72 220.219 491.629 220.547 491.446C220.881 491.264 221.125 490.983 221.282 490.603C221.438 490.222 221.516 489.738 221.516 489.149V482.173H223.93ZM237.094 487.868C237.094 488.748 236.985 489.55 236.766 490.274C236.547 490.993 236.214 491.613 235.766 492.134C235.323 492.655 234.761 493.056 234.079 493.337C233.396 493.613 232.589 493.751 231.657 493.751C230.724 493.751 229.917 493.613 229.235 493.337C228.553 493.056 227.987 492.655 227.54 492.134C227.097 491.613 226.766 490.991 226.547 490.267C226.329 489.543 226.219 488.738 226.219 487.853C226.219 486.67 226.412 485.642 226.797 484.767C227.188 483.886 227.787 483.204 228.594 482.72C229.402 482.235 230.428 481.993 231.672 481.993C232.912 481.993 233.93 482.235 234.727 482.72C235.529 483.204 236.123 483.886 236.508 484.767C236.899 485.647 237.094 486.681 237.094 487.868ZM228.758 487.868C228.758 488.665 228.857 489.353 229.055 489.931C229.258 490.504 229.573 490.946 230 491.259C230.428 491.566 230.98 491.72 231.657 491.72C232.344 491.72 232.902 491.566 233.329 491.259C233.756 490.946 234.066 490.504 234.258 489.931C234.456 489.353 234.555 488.665 234.555 487.868C234.555 486.67 234.331 485.728 233.883 485.04C233.435 484.353 232.698 484.009 231.672 484.009C230.99 484.009 230.433 484.165 230 484.478C229.573 484.785 229.258 485.228 229.055 485.806C228.857 486.379 228.758 487.066 228.758 487.868Z" fill="#495057"/>
<rect x="65.6724" y="459.095" width="274" height="57" rx="3" stroke="#495057" stroke-width="2"/>
<path d="M285.407 674.026H282.329L277.36 665.386H277.29C277.31 665.745 277.329 666.107 277.344 666.472C277.36 666.836 277.375 667.201 277.391 667.565C277.407 667.925 277.422 668.287 277.438 668.651V674.026H275.274V662.604H278.329L283.29 671.159H283.344C283.334 670.805 283.321 670.453 283.305 670.104C283.29 669.756 283.274 669.407 283.258 669.058C283.248 668.709 283.237 668.36 283.227 668.011V662.604H285.407V674.026ZM291.704 665.128C292.511 665.128 293.206 665.284 293.79 665.597C294.373 665.904 294.823 666.352 295.141 666.94C295.459 667.529 295.618 668.248 295.618 669.097V670.253H289.985C290.011 670.925 290.211 671.453 290.586 671.839C290.967 672.219 291.493 672.409 292.165 672.409C292.722 672.409 293.232 672.352 293.696 672.237C294.159 672.123 294.636 671.951 295.125 671.722V673.565C294.693 673.779 294.24 673.935 293.766 674.034C293.297 674.133 292.727 674.183 292.055 674.183C291.18 674.183 290.404 674.021 289.727 673.698C289.055 673.375 288.527 672.883 288.141 672.222C287.761 671.56 287.571 670.727 287.571 669.722C287.571 668.701 287.743 667.852 288.086 667.175C288.435 666.493 288.92 665.982 289.54 665.644C290.159 665.3 290.881 665.128 291.704 665.128ZM291.719 666.823C291.256 666.823 290.87 666.972 290.563 667.269C290.261 667.565 290.086 668.032 290.04 668.667H293.383C293.378 668.313 293.313 667.998 293.188 667.722C293.068 667.446 292.886 667.227 292.641 667.065C292.402 666.904 292.094 666.823 291.719 666.823ZM299.344 669.565L296.532 665.292H299.235L300.93 668.073L302.641 665.292H305.344L302.5 669.565L305.477 674.026H302.766L300.93 671.034L299.086 674.026H296.383L299.344 669.565ZM310.485 672.284C310.745 672.284 310.998 672.258 311.243 672.206C311.493 672.154 311.74 672.089 311.985 672.011V673.784C311.73 673.899 311.412 673.993 311.032 674.065C310.657 674.144 310.245 674.183 309.797 674.183C309.277 674.183 308.808 674.099 308.391 673.933C307.98 673.761 307.654 673.466 307.415 673.05C307.18 672.628 307.063 672.042 307.063 671.292V667.081H305.922V666.073L307.235 665.276L307.922 663.433H309.446V665.292H311.891V667.081H309.446V671.292C309.446 671.625 309.54 671.875 309.727 672.042C309.92 672.203 310.172 672.284 310.485 672.284Z" fill="#495057"/>
<path d="M109.593 176.633L113.316 169.284H117.394L111.473 180.185V187.131H107.713V180.307L101.793 169.284H105.895L109.593 176.633ZM135.838 178.183C135.838 179.558 135.667 180.812 135.326 181.943C134.984 183.066 134.463 184.034 133.763 184.848C133.071 185.662 132.193 186.289 131.126 186.728C130.06 187.159 128.799 187.375 127.342 187.375C125.886 187.375 124.624 187.159 123.558 186.728C122.492 186.289 121.609 185.662 120.909 184.848C120.217 184.034 119.701 183.062 119.359 181.931C119.017 180.799 118.846 179.542 118.846 178.159C118.846 176.311 119.147 174.704 119.75 173.337C120.36 171.962 121.296 170.896 122.557 170.139C123.819 169.382 125.422 169.003 127.367 169.003C129.304 169.003 130.895 169.382 132.14 170.139C133.393 170.896 134.321 171.962 134.923 173.337C135.533 174.712 135.838 176.328 135.838 178.183ZM122.813 178.183C122.813 179.428 122.968 180.502 123.277 181.406C123.595 182.301 124.087 182.993 124.754 183.481C125.422 183.961 126.284 184.201 127.342 184.201C128.417 184.201 129.287 183.961 129.955 183.481C130.622 182.993 131.106 182.301 131.407 181.406C131.716 180.502 131.871 179.428 131.871 178.183C131.871 176.311 131.521 174.838 130.821 173.764C130.121 172.69 128.97 172.153 127.367 172.153C126.301 172.153 125.43 172.397 124.754 172.885C124.087 173.365 123.595 174.057 123.277 174.96C122.968 175.856 122.813 176.93 122.813 178.183ZM154.063 169.284V180.832C154.063 182.061 153.791 183.172 153.246 184.165C152.708 185.149 151.891 185.931 150.792 186.508C149.701 187.086 148.326 187.375 146.666 187.375C144.306 187.375 142.507 186.773 141.271 185.568C140.034 184.364 139.415 182.769 139.415 180.783V169.284H143.187V180.209C143.187 181.682 143.488 182.716 144.09 183.31C144.693 183.904 145.584 184.201 146.764 184.201C147.594 184.201 148.265 184.059 148.778 183.774C149.299 183.489 149.681 183.05 149.925 182.456C150.169 181.861 150.292 181.105 150.292 180.185V169.284H154.063ZM163.634 169.284C165.253 169.284 166.588 169.479 167.638 169.87C168.696 170.261 169.481 170.851 169.994 171.64C170.506 172.43 170.763 173.426 170.763 174.631C170.763 175.445 170.608 176.157 170.299 176.767C169.99 177.377 169.583 177.894 169.078 178.317C168.574 178.741 168.028 179.086 167.442 179.355L172.691 187.131H168.492L164.232 180.283H162.218V187.131H158.434V169.284H163.634ZM163.365 172.385H162.218V177.207H163.438C164.692 177.207 165.587 176.999 166.124 176.584C166.669 176.161 166.942 175.542 166.942 174.729C166.942 173.882 166.649 173.28 166.063 172.922C165.485 172.564 164.586 172.385 163.365 172.385ZM191.966 182.175C191.966 183.233 191.71 184.152 191.197 184.934C190.685 185.715 189.936 186.317 188.951 186.74C187.975 187.163 186.786 187.375 185.387 187.375C184.768 187.375 184.162 187.334 183.568 187.253C182.982 187.172 182.416 187.054 181.871 186.899C181.334 186.736 180.821 186.537 180.333 186.301V182.785C181.179 183.16 182.058 183.497 182.97 183.798C183.881 184.099 184.785 184.25 185.68 184.25C186.298 184.25 186.795 184.169 187.169 184.006C187.551 183.843 187.828 183.619 187.999 183.334C188.17 183.05 188.255 182.724 188.255 182.358C188.255 181.91 188.105 181.528 187.804 181.21C187.503 180.893 187.088 180.596 186.559 180.319C186.038 180.043 185.448 179.746 184.789 179.428C184.374 179.233 183.922 178.997 183.434 178.72C182.945 178.435 182.481 178.09 182.042 177.683C181.603 177.276 181.24 176.783 180.956 176.206C180.679 175.62 180.541 174.92 180.541 174.106C180.541 173.04 180.785 172.128 181.273 171.372C181.761 170.615 182.457 170.037 183.36 169.638C184.272 169.231 185.346 169.028 186.583 169.028C187.511 169.028 188.394 169.138 189.232 169.357C190.078 169.569 190.961 169.878 191.881 170.285L190.66 173.227C189.838 172.893 189.102 172.637 188.451 172.458C187.8 172.271 187.136 172.177 186.461 172.177C185.989 172.177 185.586 172.255 185.252 172.409C184.919 172.556 184.667 172.767 184.496 173.044C184.325 173.312 184.239 173.626 184.239 173.984C184.239 174.407 184.361 174.765 184.605 175.058C184.858 175.343 185.232 175.62 185.729 175.888C186.233 176.157 186.86 176.47 187.608 176.828C188.52 177.259 189.297 177.711 189.94 178.183C190.591 178.647 191.091 179.196 191.441 179.831C191.791 180.458 191.966 181.239 191.966 182.175ZM205.479 187.131H195.201V169.284H205.479V172.385H198.985V176.303H205.028V179.404H198.985V184.006H205.479V187.131ZM209.215 187.131V169.284H212.999V184.006H220.238V187.131H209.215ZM233.629 187.131H223.351V169.284H233.629V172.385H227.135V176.303H233.177V179.404H227.135V184.006H233.629V187.131ZM244.945 172.177C244.221 172.177 243.578 172.32 243.016 172.604C242.463 172.881 241.995 173.284 241.612 173.813C241.238 174.342 240.953 174.981 240.758 175.729C240.562 176.478 240.465 177.32 240.465 178.256C240.465 179.518 240.619 180.596 240.929 181.491C241.246 182.378 241.734 183.058 242.394 183.53C243.053 183.994 243.903 184.226 244.945 184.226C245.669 184.226 246.393 184.144 247.118 183.981C247.85 183.819 248.644 183.587 249.498 183.286V186.459C248.709 186.785 247.931 187.017 247.167 187.155C246.402 187.302 245.543 187.375 244.591 187.375C242.752 187.375 241.238 186.997 240.05 186.24C238.87 185.475 237.995 184.409 237.425 183.042C236.856 181.666 236.571 180.063 236.571 178.232C236.571 176.881 236.754 175.644 237.12 174.521C237.486 173.398 238.023 172.425 238.731 171.604C239.439 170.782 240.314 170.147 241.356 169.699C242.398 169.252 243.594 169.028 244.945 169.028C245.832 169.028 246.719 169.142 247.606 169.37C248.501 169.589 249.356 169.895 250.169 170.285L248.949 173.361C248.281 173.044 247.61 172.767 246.935 172.531C246.259 172.295 245.596 172.177 244.945 172.177ZM260.191 187.131H256.407V172.434H251.561V169.284H265.038V172.434H260.191V187.131ZM278.062 187.131H267.784V169.284H278.062V172.385H271.568V176.303H277.611V179.404H271.568V184.006H278.062V187.131ZM296.605 178.037C296.605 180.047 296.218 181.727 295.445 183.078C294.68 184.421 293.569 185.434 292.113 186.118C290.656 186.793 288.902 187.131 286.852 187.131H281.798V169.284H287.401C289.273 169.284 290.896 169.618 292.271 170.285C293.647 170.944 294.713 171.925 295.47 173.227C296.227 174.521 296.605 176.124 296.605 178.037ZM292.674 178.134C292.674 176.816 292.479 175.734 292.088 174.887C291.706 174.033 291.136 173.402 290.379 172.995C289.631 172.588 288.703 172.385 287.596 172.385H285.582V184.006H287.206C289.053 184.006 290.424 183.514 291.319 182.529C292.223 181.544 292.674 180.079 292.674 178.134ZM129.466 216.131V198.284H133.25V213.006H140.489V216.131H129.466ZM154.527 216.131L153.233 211.883H146.727L145.433 216.131H141.356L147.655 198.211H152.281L158.604 216.131H154.527ZM152.33 208.709L151.036 204.559C150.955 204.282 150.845 203.928 150.707 203.497C150.576 203.057 150.442 202.614 150.304 202.166C150.174 201.71 150.068 201.316 149.986 200.982C149.905 201.316 149.791 201.731 149.645 202.227C149.506 202.715 149.372 203.179 149.242 203.619C149.111 204.058 149.018 204.371 148.961 204.559L147.679 208.709H152.33ZM176.695 216.131H171.886L164.122 202.63H164.012C164.045 203.191 164.073 203.757 164.098 204.327C164.122 204.896 164.146 205.466 164.171 206.036C164.195 206.597 164.22 207.163 164.244 207.732V216.131H160.863V198.284H165.636L173.387 211.651H173.473C173.456 211.097 173.436 210.548 173.412 210.003C173.387 209.458 173.363 208.912 173.338 208.367C173.322 207.822 173.306 207.277 173.29 206.731V198.284H176.695V216.131ZM187.975 206.109H195.055V215.362C194.119 215.671 193.146 215.919 192.137 216.106C191.128 216.285 189.985 216.375 188.707 216.375C186.933 216.375 185.427 216.025 184.19 215.325C182.953 214.625 182.014 213.592 181.371 212.225C180.728 210.857 180.406 209.177 180.406 207.183C180.406 205.311 180.764 203.692 181.48 202.325C182.205 200.958 183.259 199.9 184.642 199.151C186.034 198.402 187.73 198.028 189.732 198.028C190.676 198.028 191.608 198.13 192.528 198.333C193.447 198.536 194.282 198.801 195.03 199.126L193.773 202.154C193.228 201.877 192.605 201.645 191.905 201.458C191.205 201.271 190.473 201.177 189.708 201.177C188.609 201.177 187.653 201.43 186.839 201.934C186.034 202.439 185.407 203.147 184.959 204.058C184.52 204.961 184.3 206.028 184.3 207.256C184.3 208.42 184.459 209.454 184.776 210.357C185.094 211.252 185.594 211.956 186.278 212.469C186.961 212.973 187.853 213.226 188.951 213.226C189.488 213.226 189.94 213.201 190.306 213.152C190.681 213.095 191.03 213.038 191.356 212.981V209.258H187.975V206.109ZM213.841 198.284V209.832C213.841 211.061 213.569 212.172 213.023 213.165C212.486 214.149 211.668 214.931 210.57 215.508C209.479 216.086 208.104 216.375 206.444 216.375C204.084 216.375 202.285 215.773 201.048 214.568C199.811 213.364 199.193 211.769 199.193 209.783V198.284H202.965V209.209C202.965 210.682 203.266 211.716 203.868 212.31C204.47 212.904 205.361 213.201 206.542 213.201C207.372 213.201 208.043 213.059 208.556 212.774C209.076 212.489 209.459 212.05 209.703 211.456C209.947 210.861 210.069 210.105 210.069 209.185V198.284H213.841ZM229.137 216.131L227.843 211.883H221.336L220.042 216.131H215.965L222.264 198.211H226.891L233.214 216.131H229.137ZM226.939 208.709L225.646 204.559C225.564 204.282 225.454 203.928 225.316 203.497C225.186 203.057 225.051 202.614 224.913 202.166C224.783 201.71 224.677 201.316 224.596 200.982C224.514 201.316 224.4 201.731 224.254 202.227C224.116 202.715 223.981 203.179 223.851 203.619C223.721 204.058 223.627 204.371 223.57 204.559L222.289 208.709H226.939ZM242.247 206.109H249.327V215.362C248.391 215.671 247.419 215.919 246.41 216.106C245.401 216.285 244.257 216.375 242.979 216.375C241.205 216.375 239.7 216.025 238.463 215.325C237.226 214.625 236.286 213.592 235.643 212.225C235 210.857 234.679 209.177 234.679 207.183C234.679 205.311 235.037 203.692 235.753 202.325C236.477 200.958 237.531 199.9 238.915 199.151C240.306 198.402 242.003 198.028 244.005 198.028C244.949 198.028 245.881 198.13 246.8 198.333C247.72 198.536 248.554 198.801 249.303 199.126L248.045 202.154C247.5 201.877 246.878 201.645 246.178 201.458C245.478 201.271 244.745 201.177 243.98 201.177C242.882 201.177 241.926 201.43 241.112 201.934C240.306 202.439 239.68 203.147 239.232 204.058C238.792 204.961 238.573 206.028 238.573 207.256C238.573 208.42 238.731 209.454 239.049 210.357C239.366 211.252 239.867 211.956 240.55 212.469C241.234 212.973 242.125 213.226 243.224 213.226C243.761 213.226 244.212 213.201 244.579 213.152C244.953 213.095 245.303 213.038 245.628 212.981V209.258H242.247V206.109ZM263.866 216.131H253.587V198.284H263.866V201.385H257.372V205.303H263.414V208.404H257.372V213.006H263.866V216.131ZM278.136 211.175C278.136 212.233 277.879 213.152 277.367 213.934C276.854 214.715 276.105 215.317 275.121 215.74C274.144 216.163 272.956 216.375 271.556 216.375C270.938 216.375 270.331 216.334 269.737 216.253C269.151 216.172 268.586 216.054 268.041 215.899C267.503 215.736 266.991 215.537 266.502 215.301V211.785C267.349 212.16 268.228 212.497 269.139 212.798C270.051 213.099 270.954 213.25 271.849 213.25C272.468 213.25 272.964 213.169 273.338 213.006C273.721 212.843 273.998 212.619 274.168 212.334C274.339 212.05 274.425 211.724 274.425 211.358C274.425 210.91 274.274 210.528 273.973 210.21C273.672 209.893 273.257 209.596 272.728 209.319C272.207 209.043 271.617 208.746 270.958 208.428C270.543 208.233 270.091 207.997 269.603 207.72C269.115 207.435 268.651 207.09 268.211 206.683C267.772 206.276 267.41 205.783 267.125 205.206C266.848 204.62 266.71 203.92 266.71 203.106C266.71 202.04 266.954 201.128 267.442 200.372C267.931 199.615 268.626 199.037 269.53 198.638C270.441 198.231 271.515 198.028 272.752 198.028C273.68 198.028 274.563 198.138 275.401 198.357C276.248 198.569 277.131 198.878 278.05 199.285L276.83 202.227C276.008 201.893 275.271 201.637 274.62 201.458C273.969 201.271 273.306 201.177 272.63 201.177C272.158 201.177 271.756 201.255 271.422 201.409C271.088 201.556 270.836 201.767 270.665 202.044C270.494 202.312 270.409 202.626 270.409 202.984C270.409 203.407 270.531 203.765 270.775 204.058C271.027 204.343 271.402 204.62 271.898 204.888C272.403 205.157 273.029 205.47 273.778 205.828C274.689 206.259 275.466 206.711 276.109 207.183C276.76 207.647 277.261 208.196 277.611 208.831C277.961 209.458 278.136 210.239 278.136 211.175Z" fill="black"/>
<path d="M333.843 674.026L339.136 668.733C339.526 668.343 339.526 667.71 339.136 667.319L333.843 662.026" stroke="#1B1D1F" stroke-width="2" stroke-linecap="round"/>
</g>
<rect x="1.92236" y="1.78613" width="401.5" height="719.5" rx="6.75" stroke="black" stroke-width="2.5"/>
<defs>
<clipPath id="clip0_157_6863">
<rect x="0.672363" y="0.536133" width="404" height="722" rx="8" fill="white"/>
</clipPath>
</defs>
</svg>
