<svg width="405" height="723" viewBox="0 0 405 723" fill="none" xmlns="http://www.w3.org/2000/svg">
<g clip-path="url(#clip0_156_6050)">
<rect x="0.672363" y="0.558594" width="404" height="722" rx="8" fill="white"/>
<path d="M1.67236 8.5586C1.67236 4.6926 4.80637 1.55859 8.67236 1.55859H446.672C450.538 1.55859 453.672 4.6926 453.672 8.55859V70.5586H1.67236V8.5586Z" fill="white"/>
<path d="M1.67236 8.5586C1.67236 4.6926 4.80637 1.55859 8.67236 1.55859H446.672C450.538 1.55859 453.672 4.6926 453.672 8.55859V70.5586H1.67236V8.5586Z" stroke="#1B1D1F" stroke-width="2"/>
<line x1="347.843" y1="28.2939" x2="377.323" y2="28.2939" stroke="black" stroke-width="2"/>
<line x1="347.843" y1="34.9141" x2="377.323" y2="34.9141" stroke="black" stroke-width="2"/>
<line x1="347.843" y1="41.8232" x2="377.323" y2="41.8232" stroke="black" stroke-width="2"/>
<rect x="40.4028" y="278.278" width="324.92" height="386.545" fill="white" stroke="black" stroke-width="2"/>
<path d="M258.368 607.137C259.352 607.137 260.165 607.257 260.805 607.496C261.451 607.736 261.93 608.1 262.243 608.59C262.56 609.079 262.719 609.702 262.719 610.457C262.719 611.02 262.615 611.499 262.407 611.895C262.198 612.29 261.925 612.618 261.586 612.879C261.248 613.139 260.886 613.348 260.5 613.504L263.743 618.559H261.625L258.868 613.98H257.032V618.559H255.157V607.137H258.368ZM258.243 608.699H257.032V612.434H258.329C259.198 612.434 259.829 612.272 260.219 611.949C260.615 611.626 260.813 611.15 260.813 610.52C260.813 609.858 260.602 609.389 260.18 609.113C259.764 608.837 259.118 608.699 258.243 608.699ZM268.633 609.746C269.404 609.746 270.066 609.905 270.618 610.223C271.17 610.54 271.594 610.991 271.891 611.574C272.188 612.158 272.336 612.855 272.336 613.668V614.652H266.563C266.584 615.491 266.808 616.137 267.235 616.59C267.667 617.043 268.271 617.27 269.047 617.27C269.599 617.27 270.094 617.217 270.532 617.113C270.974 617.004 271.43 616.845 271.899 616.637V618.129C271.467 618.332 271.027 618.48 270.579 618.574C270.131 618.668 269.594 618.715 268.969 618.715C268.12 618.715 267.373 618.551 266.727 618.223C266.086 617.889 265.584 617.395 265.219 616.738C264.86 616.082 264.68 615.267 264.68 614.293C264.68 613.324 264.844 612.501 265.172 611.824C265.5 611.147 265.961 610.632 266.555 610.277C267.149 609.923 267.842 609.746 268.633 609.746ZM268.633 611.129C268.055 611.129 267.586 611.316 267.227 611.691C266.873 612.066 266.665 612.616 266.602 613.34H270.54C270.534 612.908 270.461 612.525 270.321 612.191C270.185 611.858 269.977 611.598 269.696 611.41C269.42 611.223 269.066 611.129 268.633 611.129ZM276.875 622.402C275.704 622.402 274.805 622.191 274.18 621.77C273.555 621.348 273.243 620.757 273.243 619.996C273.243 619.465 273.409 619.014 273.743 618.645C274.076 618.28 274.553 618.027 275.172 617.887C274.938 617.783 274.735 617.621 274.563 617.402C274.396 617.178 274.313 616.931 274.313 616.66C274.313 616.337 274.404 616.061 274.586 615.832C274.769 615.603 275.042 615.382 275.407 615.168C274.954 614.975 274.589 614.663 274.313 614.23C274.042 613.793 273.907 613.28 273.907 612.691C273.907 612.066 274.04 611.535 274.305 611.098C274.571 610.655 274.959 610.319 275.469 610.09C275.98 609.855 276.597 609.738 277.321 609.738C277.477 609.738 277.646 609.749 277.829 609.77C278.016 609.785 278.188 609.806 278.344 609.832C278.506 609.853 278.628 609.876 278.711 609.902H281.704V610.926L280.235 611.199C280.375 611.397 280.487 611.624 280.571 611.879C280.654 612.129 280.696 612.402 280.696 612.699C280.696 613.595 280.386 614.301 279.766 614.816C279.152 615.327 278.303 615.582 277.219 615.582C276.959 615.572 276.706 615.551 276.461 615.52C276.274 615.634 276.131 615.762 276.032 615.902C275.933 616.038 275.883 616.191 275.883 616.363C275.883 616.504 275.933 616.618 276.032 616.707C276.131 616.79 276.277 616.853 276.469 616.895C276.667 616.936 276.907 616.957 277.188 616.957H278.68C279.628 616.957 280.352 617.158 280.852 617.559C281.352 617.96 281.602 618.548 281.602 619.324C281.602 620.309 281.196 621.066 280.383 621.598C279.571 622.134 278.402 622.402 276.875 622.402ZM276.946 621.113C277.586 621.113 278.125 621.051 278.563 620.926C279 620.801 279.331 620.621 279.555 620.387C279.779 620.158 279.891 619.884 279.891 619.566C279.891 619.285 279.821 619.069 279.68 618.918C279.54 618.767 279.329 618.663 279.047 618.605C278.766 618.548 278.417 618.52 278 618.52H276.641C276.303 618.52 276.003 618.572 275.743 618.676C275.482 618.785 275.279 618.941 275.133 619.145C274.993 619.348 274.922 619.592 274.922 619.879C274.922 620.275 275.097 620.579 275.446 620.793C275.8 621.007 276.3 621.113 276.946 621.113ZM277.305 614.379C277.842 614.379 278.24 614.233 278.5 613.941C278.761 613.645 278.891 613.228 278.891 612.691C278.891 612.108 278.756 611.671 278.485 611.379C278.219 611.087 277.823 610.941 277.297 610.941C276.782 610.941 276.389 611.09 276.118 611.387C275.852 611.684 275.719 612.124 275.719 612.707C275.719 613.233 275.852 613.645 276.118 613.941C276.389 614.233 276.784 614.379 277.305 614.379ZM285.118 609.91V618.559H283.282V609.91H285.118ZM284.211 606.598C284.493 606.598 284.735 606.673 284.938 606.824C285.146 606.975 285.25 607.236 285.25 607.605C285.25 607.97 285.146 608.23 284.938 608.387C284.735 608.538 284.493 608.613 284.211 608.613C283.92 608.613 283.672 608.538 283.469 608.387C283.271 608.23 283.172 607.97 283.172 607.605C283.172 607.236 283.271 606.975 283.469 606.824C283.672 606.673 283.92 606.598 284.211 606.598ZM293.563 616.09C293.563 616.658 293.425 617.137 293.149 617.527C292.873 617.918 292.469 618.215 291.938 618.418C291.412 618.616 290.766 618.715 290 618.715C289.396 618.715 288.875 618.671 288.438 618.582C288.006 618.499 287.597 618.368 287.211 618.191V616.605C287.623 616.798 288.084 616.965 288.594 617.105C289.11 617.246 289.597 617.316 290.055 617.316C290.659 617.316 291.094 617.223 291.36 617.035C291.625 616.842 291.758 616.587 291.758 616.27C291.758 616.082 291.704 615.915 291.594 615.77C291.49 615.618 291.292 615.465 291 615.309C290.714 615.147 290.292 614.954 289.735 614.73C289.188 614.512 288.727 614.293 288.352 614.074C287.977 613.855 287.693 613.592 287.5 613.285C287.308 612.973 287.211 612.574 287.211 612.09C287.211 611.324 287.514 610.743 288.118 610.348C288.727 609.947 289.532 609.746 290.532 609.746C291.063 609.746 291.563 609.801 292.032 609.91C292.506 610.014 292.969 610.168 293.422 610.371L292.844 611.754C292.454 611.582 292.06 611.441 291.665 611.332C291.274 611.217 290.875 611.16 290.469 611.16C289.995 611.16 289.633 611.233 289.383 611.379C289.139 611.525 289.016 611.733 289.016 612.004C289.016 612.207 289.076 612.379 289.196 612.52C289.316 612.66 289.521 612.801 289.813 612.941C290.11 613.082 290.521 613.257 291.047 613.465C291.563 613.663 292.008 613.871 292.383 614.09C292.764 614.303 293.055 614.566 293.258 614.879C293.461 615.191 293.563 615.595 293.563 616.09ZM298.766 617.23C299.006 617.23 299.243 617.21 299.477 617.168C299.711 617.121 299.925 617.066 300.118 617.004V618.395C299.915 618.483 299.652 618.559 299.329 618.621C299.006 618.684 298.67 618.715 298.321 618.715C297.831 618.715 297.391 618.634 297 618.473C296.61 618.306 296.3 618.022 296.071 617.621C295.842 617.22 295.727 616.665 295.727 615.957V611.309H294.547V610.488L295.813 609.84L296.415 607.988H297.571V609.91H300.047V611.309H297.571V615.934C297.571 616.371 297.68 616.697 297.899 616.91C298.118 617.124 298.407 617.23 298.766 617.23ZM305.321 609.746C306.092 609.746 306.753 609.905 307.305 610.223C307.857 610.54 308.282 610.991 308.579 611.574C308.875 612.158 309.024 612.855 309.024 613.668V614.652H303.25C303.271 615.491 303.495 616.137 303.922 616.59C304.355 617.043 304.959 617.27 305.735 617.27C306.287 617.27 306.782 617.217 307.219 617.113C307.662 617.004 308.118 616.845 308.586 616.637V618.129C308.154 618.332 307.714 618.48 307.266 618.574C306.818 618.668 306.282 618.715 305.657 618.715C304.808 618.715 304.06 618.551 303.415 618.223C302.774 617.889 302.271 617.395 301.907 616.738C301.547 616.082 301.368 615.267 301.368 614.293C301.368 613.324 301.532 612.501 301.86 611.824C302.188 611.147 302.649 610.632 303.243 610.277C303.836 609.923 304.529 609.746 305.321 609.746ZM305.321 611.129C304.743 611.129 304.274 611.316 303.915 611.691C303.56 612.066 303.352 612.616 303.29 613.34H307.227C307.222 612.908 307.149 612.525 307.008 612.191C306.873 611.858 306.665 611.598 306.383 611.41C306.107 611.223 305.753 611.129 305.321 611.129ZM315.477 609.746C315.623 609.746 315.782 609.754 315.954 609.77C316.125 609.785 316.274 609.806 316.399 609.832L316.227 611.551C316.118 611.52 315.982 611.496 315.821 611.48C315.665 611.465 315.524 611.457 315.399 611.457C315.071 611.457 314.758 611.512 314.461 611.621C314.165 611.725 313.902 611.887 313.672 612.105C313.443 612.319 313.264 612.587 313.133 612.91C313.003 613.233 312.938 613.608 312.938 614.035V618.559H311.094V609.91H312.532L312.782 611.434H312.868C313.04 611.126 313.253 610.845 313.508 610.59C313.764 610.335 314.055 610.132 314.383 609.98C314.717 609.824 315.081 609.746 315.477 609.746Z" fill="#495057"/>
<rect x="226.172" y="593.559" width="118" height="38" stroke="#495057" stroke-width="2"/>
<rect x="76.1724" y="330.559" width="255" height="38" fill="white"/>
<path d="M94.063 355.559H92.7349V344.137H99.0942V345.309H94.063V349.496H98.7896V350.66H94.063V355.559ZM107.875 346.996V355.559H106.813L106.625 354.355H106.555C106.378 354.652 106.149 354.902 105.868 355.105C105.586 355.309 105.269 355.46 104.915 355.559C104.566 355.663 104.193 355.715 103.797 355.715C103.12 355.715 102.553 355.605 102.094 355.387C101.636 355.168 101.29 354.829 101.055 354.371C100.826 353.913 100.711 353.324 100.711 352.605V346.996H102.024V352.512C102.024 353.225 102.185 353.759 102.508 354.113C102.831 354.462 103.323 354.637 103.985 354.637C104.62 354.637 105.125 354.517 105.5 354.277C105.881 354.038 106.154 353.686 106.321 353.223C106.487 352.754 106.571 352.181 106.571 351.504V346.996H107.875ZM111.922 355.559H110.618V343.402H111.922V355.559ZM115.969 355.559H114.665V343.402H115.969V355.559ZM131.993 355.559H130.461L124.235 345.965H124.172C124.188 346.22 124.206 346.512 124.227 346.84C124.248 347.163 124.264 347.509 124.274 347.879C124.29 348.243 124.297 348.616 124.297 348.996V355.559H123.063V344.137H124.586L130.79 353.699H130.844C130.834 353.517 130.821 353.259 130.805 352.926C130.79 352.587 130.774 352.225 130.758 351.84C130.748 351.449 130.743 351.087 130.743 350.754V344.137H131.993V355.559ZM138.118 346.855C139.139 346.855 139.896 347.085 140.391 347.543C140.886 348.001 141.133 348.733 141.133 349.738V355.559H140.188L139.938 354.293H139.875C139.636 354.605 139.386 354.868 139.125 355.082C138.865 355.29 138.563 355.449 138.219 355.559C137.881 355.663 137.464 355.715 136.969 355.715C136.448 355.715 135.985 355.624 135.579 355.441C135.178 355.259 134.86 354.983 134.625 354.613C134.396 354.243 134.282 353.775 134.282 353.207C134.282 352.353 134.62 351.697 135.297 351.238C135.974 350.78 137.006 350.53 138.391 350.488L139.868 350.426V349.902C139.868 349.163 139.709 348.645 139.391 348.348C139.073 348.051 138.625 347.902 138.047 347.902C137.599 347.902 137.172 347.967 136.766 348.098C136.36 348.228 135.974 348.382 135.61 348.559L135.211 347.574C135.597 347.376 136.04 347.207 136.54 347.066C137.04 346.926 137.566 346.855 138.118 346.855ZM139.852 351.34L138.547 351.395C137.48 351.436 136.727 351.611 136.29 351.918C135.852 352.225 135.633 352.66 135.633 353.223C135.633 353.712 135.782 354.074 136.079 354.309C136.375 354.543 136.769 354.66 137.258 354.66C138.019 354.66 138.641 354.449 139.125 354.027C139.61 353.605 139.852 352.973 139.852 352.129V351.34ZM153.102 346.84C154.045 346.84 154.756 347.087 155.235 347.582C155.714 348.072 155.954 348.861 155.954 349.949V355.559H154.672V350.012C154.672 349.319 154.521 348.801 154.219 348.457C153.922 348.108 153.48 347.934 152.891 347.934C152.063 347.934 151.461 348.173 151.086 348.652C150.711 349.132 150.524 349.837 150.524 350.77V355.559H149.235V350.012C149.235 349.548 149.167 349.163 149.032 348.855C148.902 348.548 148.704 348.319 148.438 348.168C148.178 348.012 147.847 347.934 147.446 347.934C146.878 347.934 146.422 348.051 146.079 348.285C145.735 348.52 145.485 348.868 145.329 349.332C145.178 349.79 145.102 350.355 145.102 351.027V355.559H143.805V346.996H144.852L145.047 348.207H145.118C145.29 347.91 145.506 347.66 145.766 347.457C146.027 347.254 146.318 347.1 146.641 346.996C146.964 346.892 147.308 346.84 147.672 346.84C148.323 346.84 148.868 346.962 149.305 347.207C149.748 347.447 150.068 347.814 150.266 348.309H150.336C150.618 347.814 151.003 347.447 151.493 347.207C151.982 346.962 152.519 346.84 153.102 346.84ZM161.915 346.84C162.644 346.84 163.269 347.001 163.79 347.324C164.31 347.647 164.709 348.1 164.985 348.684C165.261 349.262 165.399 349.939 165.399 350.715V351.52H159.485C159.5 352.525 159.75 353.29 160.235 353.816C160.719 354.342 161.402 354.605 162.282 354.605C162.823 354.605 163.303 354.556 163.719 354.457C164.136 354.358 164.568 354.212 165.016 354.02V355.16C164.584 355.353 164.154 355.493 163.727 355.582C163.305 355.671 162.805 355.715 162.227 355.715C161.404 355.715 160.685 355.548 160.071 355.215C159.461 354.876 158.987 354.382 158.649 353.73C158.31 353.079 158.141 352.283 158.141 351.34C158.141 350.418 158.295 349.621 158.602 348.949C158.915 348.272 159.352 347.751 159.915 347.387C160.482 347.022 161.149 346.84 161.915 346.84ZM161.899 347.902C161.206 347.902 160.654 348.129 160.243 348.582C159.831 349.035 159.586 349.668 159.508 350.48H164.04C164.034 349.97 163.954 349.522 163.797 349.137C163.646 348.746 163.415 348.444 163.102 348.23C162.79 348.012 162.389 347.902 161.899 347.902Z" fill="#495057"/>
<rect x="76.1724" y="330.559" width="255" height="38" stroke="#B2B9C0" stroke-width="2"/>
<rect x="76.1724" y="452.559" width="255" height="38" fill="white"/>
<path d="M101.375 466.137V473.527C101.375 474.335 101.211 475.053 100.883 475.684C100.56 476.314 100.071 476.811 99.4146 477.176C98.7583 477.535 97.9354 477.715 96.9458 477.715C95.5343 477.715 94.4588 477.332 93.7192 476.566C92.9849 475.801 92.6177 474.777 92.6177 473.496V466.137H93.9536V473.535C93.9536 474.504 94.2088 475.251 94.7192 475.777C95.2349 476.303 96.0031 476.566 97.0239 476.566C97.7218 476.566 98.2922 476.441 98.7349 476.191C99.1828 475.936 99.5135 475.582 99.7271 475.129C99.9458 474.671 100.055 474.142 100.055 473.543V466.137H101.375ZM109.75 475.215C109.75 475.762 109.612 476.223 109.336 476.598C109.066 476.967 108.675 477.246 108.165 477.434C107.659 477.621 107.055 477.715 106.352 477.715C105.753 477.715 105.235 477.668 104.797 477.574C104.36 477.48 103.977 477.348 103.649 477.176V475.98C103.998 476.152 104.415 476.309 104.899 476.449C105.383 476.59 105.878 476.66 106.383 476.66C107.123 476.66 107.659 476.54 107.993 476.301C108.326 476.061 108.493 475.736 108.493 475.324C108.493 475.09 108.425 474.884 108.29 474.707C108.159 474.525 107.938 474.35 107.625 474.184C107.313 474.012 106.881 473.824 106.329 473.621C105.782 473.413 105.308 473.207 104.907 473.004C104.511 472.796 104.204 472.543 103.985 472.246C103.771 471.949 103.665 471.564 103.665 471.09C103.665 470.366 103.956 469.811 104.54 469.426C105.128 469.035 105.899 468.84 106.852 468.84C107.368 468.84 107.849 468.892 108.297 468.996C108.75 469.095 109.172 469.23 109.563 469.402L109.125 470.441C108.771 470.29 108.394 470.163 107.993 470.059C107.592 469.954 107.183 469.902 106.766 469.902C106.167 469.902 105.706 470.001 105.383 470.199C105.066 470.397 104.907 470.668 104.907 471.012C104.907 471.277 104.98 471.496 105.125 471.668C105.277 471.84 105.516 472.001 105.844 472.152C106.172 472.303 106.605 472.48 107.141 472.684C107.678 472.882 108.141 473.087 108.532 473.301C108.922 473.509 109.222 473.764 109.43 474.066C109.644 474.363 109.75 474.746 109.75 475.215ZM115.133 468.84C115.862 468.84 116.487 469.001 117.008 469.324C117.529 469.647 117.928 470.1 118.204 470.684C118.48 471.262 118.618 471.939 118.618 472.715V473.52H112.704C112.719 474.525 112.969 475.29 113.454 475.816C113.938 476.342 114.62 476.605 115.5 476.605C116.042 476.605 116.521 476.556 116.938 476.457C117.355 476.358 117.787 476.212 118.235 476.02V477.16C117.803 477.353 117.373 477.493 116.946 477.582C116.524 477.671 116.024 477.715 115.446 477.715C114.623 477.715 113.904 477.548 113.29 477.215C112.68 476.876 112.206 476.382 111.868 475.73C111.529 475.079 111.36 474.283 111.36 473.34C111.36 472.418 111.514 471.621 111.821 470.949C112.133 470.272 112.571 469.751 113.133 469.387C113.701 469.022 114.368 468.84 115.133 468.84ZM115.118 469.902C114.425 469.902 113.873 470.129 113.461 470.582C113.05 471.035 112.805 471.668 112.727 472.48H117.258C117.253 471.97 117.172 471.522 117.016 471.137C116.865 470.746 116.633 470.444 116.321 470.23C116.008 470.012 115.607 469.902 115.118 469.902ZM124.711 468.84C124.883 468.84 125.063 468.85 125.25 468.871C125.438 468.887 125.605 468.91 125.75 468.941L125.586 470.145C125.446 470.108 125.29 470.079 125.118 470.059C124.946 470.038 124.784 470.027 124.633 470.027C124.29 470.027 123.964 470.098 123.657 470.238C123.355 470.374 123.089 470.572 122.86 470.832C122.631 471.087 122.451 471.397 122.321 471.762C122.191 472.121 122.125 472.522 122.125 472.965V477.559H120.821V468.996H121.899L122.04 470.574H122.094C122.271 470.257 122.485 469.967 122.735 469.707C122.985 469.441 123.274 469.23 123.602 469.074C123.935 468.918 124.305 468.84 124.711 468.84ZM131.422 468.84C132.438 468.84 133.206 469.09 133.727 469.59C134.248 470.085 134.508 470.882 134.508 471.98V477.559H133.227V472.066C133.227 471.353 133.063 470.819 132.735 470.465C132.412 470.111 131.915 469.934 131.243 469.934C130.295 469.934 129.628 470.202 129.243 470.738C128.857 471.275 128.665 472.053 128.665 473.074V477.559H127.368V468.996H128.415L128.61 470.23H128.68C128.862 469.928 129.094 469.676 129.375 469.473C129.657 469.264 129.972 469.108 130.321 469.004C130.67 468.895 131.037 468.84 131.422 468.84ZM140.383 468.855C141.404 468.855 142.162 469.085 142.657 469.543C143.152 470.001 143.399 470.733 143.399 471.738V477.559H142.454L142.204 476.293H142.141C141.902 476.605 141.652 476.868 141.391 477.082C141.131 477.29 140.829 477.449 140.485 477.559C140.146 477.663 139.73 477.715 139.235 477.715C138.714 477.715 138.25 477.624 137.844 477.441C137.443 477.259 137.125 476.983 136.891 476.613C136.662 476.243 136.547 475.775 136.547 475.207C136.547 474.353 136.886 473.697 137.563 473.238C138.24 472.78 139.271 472.53 140.657 472.488L142.133 472.426V471.902C142.133 471.163 141.974 470.645 141.657 470.348C141.339 470.051 140.891 469.902 140.313 469.902C139.865 469.902 139.438 469.967 139.032 470.098C138.625 470.228 138.24 470.382 137.875 470.559L137.477 469.574C137.862 469.376 138.305 469.207 138.805 469.066C139.305 468.926 139.831 468.855 140.383 468.855ZM142.118 473.34L140.813 473.395C139.745 473.436 138.993 473.611 138.555 473.918C138.118 474.225 137.899 474.66 137.899 475.223C137.899 475.712 138.047 476.074 138.344 476.309C138.641 476.543 139.034 476.66 139.524 476.66C140.284 476.66 140.907 476.449 141.391 476.027C141.875 475.605 142.118 474.973 142.118 474.129V473.34ZM155.368 468.84C156.31 468.84 157.021 469.087 157.5 469.582C157.98 470.072 158.219 470.861 158.219 471.949V477.559H156.938V472.012C156.938 471.319 156.787 470.801 156.485 470.457C156.188 470.108 155.745 469.934 155.157 469.934C154.329 469.934 153.727 470.173 153.352 470.652C152.977 471.132 152.79 471.837 152.79 472.77V477.559H151.5V472.012C151.5 471.548 151.433 471.163 151.297 470.855C151.167 470.548 150.969 470.319 150.704 470.168C150.443 470.012 150.112 469.934 149.711 469.934C149.144 469.934 148.688 470.051 148.344 470.285C148 470.52 147.75 470.868 147.594 471.332C147.443 471.79 147.368 472.355 147.368 473.027V477.559H146.071V468.996H147.118L147.313 470.207H147.383C147.555 469.91 147.771 469.66 148.032 469.457C148.292 469.254 148.584 469.1 148.907 468.996C149.23 468.892 149.573 468.84 149.938 468.84C150.589 468.84 151.133 468.962 151.571 469.207C152.014 469.447 152.334 469.814 152.532 470.309H152.602C152.883 469.814 153.269 469.447 153.758 469.207C154.248 468.962 154.784 468.84 155.368 468.84ZM164.18 468.84C164.909 468.84 165.534 469.001 166.055 469.324C166.576 469.647 166.974 470.1 167.25 470.684C167.527 471.262 167.665 471.939 167.665 472.715V473.52H161.75C161.766 474.525 162.016 475.29 162.5 475.816C162.985 476.342 163.667 476.605 164.547 476.605C165.089 476.605 165.568 476.556 165.985 476.457C166.402 476.358 166.834 476.212 167.282 476.02V477.16C166.849 477.353 166.42 477.493 165.993 477.582C165.571 477.671 165.071 477.715 164.493 477.715C163.67 477.715 162.951 477.548 162.336 477.215C161.727 476.876 161.253 476.382 160.915 475.73C160.576 475.079 160.407 474.283 160.407 473.34C160.407 472.418 160.56 471.621 160.868 470.949C161.18 470.272 161.618 469.751 162.18 469.387C162.748 469.022 163.415 468.84 164.18 468.84ZM164.165 469.902C163.472 469.902 162.92 470.129 162.508 470.582C162.097 471.035 161.852 471.668 161.774 472.48H166.305C166.3 471.97 166.219 471.522 166.063 471.137C165.912 470.746 165.68 470.444 165.368 470.23C165.055 470.012 164.654 469.902 164.165 469.902Z" fill="#495057"/>
<rect x="76.1724" y="452.559" width="255" height="38" stroke="#B2B9C0" stroke-width="2"/>
<rect x="76.1724" y="391.559" width="255" height="38" fill="white"/>
<path d="M99.0942 416.559H92.7349V405.137H99.0942V406.309H94.063V410.004H98.8052V411.16H94.063V415.387H99.0942V416.559ZM110.727 407.84C111.67 407.84 112.381 408.087 112.86 408.582C113.339 409.072 113.579 409.861 113.579 410.949V416.559H112.297V411.012C112.297 410.319 112.146 409.801 111.844 409.457C111.547 409.108 111.105 408.934 110.516 408.934C109.688 408.934 109.086 409.173 108.711 409.652C108.336 410.132 108.149 410.837 108.149 411.77V416.559H106.86V411.012C106.86 410.548 106.792 410.163 106.657 409.855C106.527 409.548 106.329 409.319 106.063 409.168C105.803 409.012 105.472 408.934 105.071 408.934C104.503 408.934 104.047 409.051 103.704 409.285C103.36 409.52 103.11 409.868 102.954 410.332C102.803 410.79 102.727 411.355 102.727 412.027V416.559H101.43V407.996H102.477L102.672 409.207H102.743C102.915 408.91 103.131 408.66 103.391 408.457C103.652 408.254 103.943 408.1 104.266 407.996C104.589 407.892 104.933 407.84 105.297 407.84C105.948 407.84 106.493 407.962 106.93 408.207C107.373 408.447 107.693 408.814 107.891 409.309H107.961C108.243 408.814 108.628 408.447 109.118 408.207C109.607 407.962 110.144 407.84 110.727 407.84ZM119.446 407.855C120.467 407.855 121.224 408.085 121.719 408.543C122.214 409.001 122.461 409.733 122.461 410.738V416.559H121.516L121.266 415.293H121.204C120.964 415.605 120.714 415.868 120.454 416.082C120.193 416.29 119.891 416.449 119.547 416.559C119.209 416.663 118.792 416.715 118.297 416.715C117.777 416.715 117.313 416.624 116.907 416.441C116.506 416.259 116.188 415.983 115.954 415.613C115.724 415.243 115.61 414.775 115.61 414.207C115.61 413.353 115.948 412.697 116.625 412.238C117.303 411.78 118.334 411.53 119.719 411.488L121.196 411.426V410.902C121.196 410.163 121.037 409.645 120.719 409.348C120.402 409.051 119.954 408.902 119.375 408.902C118.928 408.902 118.5 408.967 118.094 409.098C117.688 409.228 117.303 409.382 116.938 409.559L116.54 408.574C116.925 408.376 117.368 408.207 117.868 408.066C118.368 407.926 118.894 407.855 119.446 407.855ZM121.18 412.34L119.875 412.395C118.808 412.436 118.055 412.611 117.618 412.918C117.18 413.225 116.961 413.66 116.961 414.223C116.961 414.712 117.11 415.074 117.407 415.309C117.704 415.543 118.097 415.66 118.586 415.66C119.347 415.66 119.969 415.449 120.454 415.027C120.938 414.605 121.18 413.973 121.18 413.129V412.34ZM126.43 407.996V416.559H125.133V407.996H126.43ZM125.797 404.793C126.011 404.793 126.193 404.863 126.344 405.004C126.5 405.139 126.579 405.353 126.579 405.645C126.579 405.931 126.5 406.145 126.344 406.285C126.193 406.426 126.011 406.496 125.797 406.496C125.573 406.496 125.386 406.426 125.235 406.285C125.089 406.145 125.016 405.931 125.016 405.645C125.016 405.353 125.089 405.139 125.235 405.004C125.386 404.863 125.573 404.793 125.797 404.793ZM130.485 416.559H129.18V404.402H130.485V416.559Z" fill="#495057"/>
<rect x="76.1724" y="391.559" width="255" height="38" stroke="#B2B9C0" stroke-width="2"/>
<rect x="76.1724" y="513.559" width="255" height="38" fill="white"/>
<path d="M95.7192 527.137C97.1932 527.137 98.2687 527.426 98.9458 528.004C99.6281 528.577 99.9692 529.4 99.9692 530.473C99.9692 530.957 99.8885 531.418 99.7271 531.855C99.5708 532.288 99.3156 532.671 98.9614 533.004C98.6073 533.332 98.1411 533.592 97.563 533.785C96.9901 533.973 96.2869 534.066 95.4536 534.066H94.063V538.559H92.7349V527.137H95.7192ZM95.5942 528.27H94.063V532.926H95.3052C96.0343 532.926 96.6411 532.848 97.1255 532.691C97.6151 532.535 97.9823 532.283 98.2271 531.934C98.4718 531.579 98.5942 531.111 98.5942 530.527C98.5942 529.767 98.3521 529.202 97.8677 528.832C97.3833 528.457 96.6255 528.27 95.5942 528.27ZM105.368 529.855C106.389 529.855 107.146 530.085 107.641 530.543C108.136 531.001 108.383 531.733 108.383 532.738V538.559H107.438L107.188 537.293H107.125C106.886 537.605 106.636 537.868 106.375 538.082C106.115 538.29 105.813 538.449 105.469 538.559C105.131 538.663 104.714 538.715 104.219 538.715C103.698 538.715 103.235 538.624 102.829 538.441C102.428 538.259 102.11 537.983 101.875 537.613C101.646 537.243 101.532 536.775 101.532 536.207C101.532 535.353 101.87 534.697 102.547 534.238C103.224 533.78 104.256 533.53 105.641 533.488L107.118 533.426V532.902C107.118 532.163 106.959 531.645 106.641 531.348C106.323 531.051 105.875 530.902 105.297 530.902C104.849 530.902 104.422 530.967 104.016 531.098C103.61 531.228 103.224 531.382 102.86 531.559L102.461 530.574C102.847 530.376 103.29 530.207 103.79 530.066C104.29 529.926 104.816 529.855 105.368 529.855ZM107.102 534.34L105.797 534.395C104.73 534.436 103.977 534.611 103.54 534.918C103.102 535.225 102.883 535.66 102.883 536.223C102.883 536.712 103.032 537.074 103.329 537.309C103.625 537.543 104.019 537.66 104.508 537.66C105.269 537.66 105.891 537.449 106.375 537.027C106.86 536.605 107.102 535.973 107.102 535.129V534.34ZM116.594 536.215C116.594 536.762 116.456 537.223 116.18 537.598C115.909 537.967 115.519 538.246 115.008 538.434C114.503 538.621 113.899 538.715 113.196 538.715C112.597 538.715 112.079 538.668 111.641 538.574C111.204 538.48 110.821 538.348 110.493 538.176V536.98C110.842 537.152 111.258 537.309 111.743 537.449C112.227 537.59 112.722 537.66 113.227 537.66C113.967 537.66 114.503 537.54 114.836 537.301C115.17 537.061 115.336 536.736 115.336 536.324C115.336 536.09 115.269 535.884 115.133 535.707C115.003 535.525 114.782 535.35 114.469 535.184C114.157 535.012 113.724 534.824 113.172 534.621C112.625 534.413 112.152 534.207 111.75 534.004C111.355 533.796 111.047 533.543 110.829 533.246C110.615 532.949 110.508 532.564 110.508 532.09C110.508 531.366 110.8 530.811 111.383 530.426C111.972 530.035 112.743 529.84 113.696 529.84C114.211 529.84 114.693 529.892 115.141 529.996C115.594 530.095 116.016 530.23 116.407 530.402L115.969 531.441C115.615 531.29 115.237 531.163 114.836 531.059C114.435 530.954 114.027 530.902 113.61 530.902C113.011 530.902 112.55 531.001 112.227 531.199C111.909 531.397 111.75 531.668 111.75 532.012C111.75 532.277 111.823 532.496 111.969 532.668C112.12 532.84 112.36 533.001 112.688 533.152C113.016 533.303 113.448 533.48 113.985 533.684C114.521 533.882 114.985 534.087 115.375 534.301C115.766 534.509 116.066 534.764 116.274 535.066C116.487 535.363 116.594 535.746 116.594 536.215ZM124.219 536.215C124.219 536.762 124.081 537.223 123.805 537.598C123.534 537.967 123.144 538.246 122.633 538.434C122.128 538.621 121.524 538.715 120.821 538.715C120.222 538.715 119.704 538.668 119.266 538.574C118.829 538.48 118.446 538.348 118.118 538.176V536.98C118.467 537.152 118.883 537.309 119.368 537.449C119.852 537.59 120.347 537.66 120.852 537.66C121.592 537.66 122.128 537.54 122.461 537.301C122.795 537.061 122.961 536.736 122.961 536.324C122.961 536.09 122.894 535.884 122.758 535.707C122.628 535.525 122.407 535.35 122.094 535.184C121.782 535.012 121.349 534.824 120.797 534.621C120.25 534.413 119.777 534.207 119.375 534.004C118.98 533.796 118.672 533.543 118.454 533.246C118.24 532.949 118.133 532.564 118.133 532.09C118.133 531.366 118.425 530.811 119.008 530.426C119.597 530.035 120.368 529.84 121.321 529.84C121.836 529.84 122.318 529.892 122.766 529.996C123.219 530.095 123.641 530.23 124.032 530.402L123.594 531.441C123.24 531.29 122.862 531.163 122.461 531.059C122.06 530.954 121.652 530.902 121.235 530.902C120.636 530.902 120.175 531.001 119.852 531.199C119.534 531.397 119.375 531.668 119.375 532.012C119.375 532.277 119.448 532.496 119.594 532.668C119.745 532.84 119.985 533.001 120.313 533.152C120.641 533.303 121.073 533.48 121.61 533.684C122.146 533.882 122.61 534.087 123 534.301C123.391 534.509 123.691 534.764 123.899 535.066C124.112 535.363 124.219 535.746 124.219 536.215ZM133.274 538.543L131.75 533.559C131.683 533.345 131.618 533.137 131.555 532.934C131.498 532.725 131.443 532.527 131.391 532.34C131.344 532.147 131.3 531.97 131.258 531.809C131.222 531.642 131.191 531.499 131.165 531.379H131.11C131.089 531.499 131.06 531.642 131.024 531.809C130.987 531.97 130.943 532.147 130.891 532.34C130.844 532.533 130.792 532.736 130.735 532.949C130.678 533.158 130.612 533.368 130.54 533.582L128.946 538.543H127.485L125.125 529.98H126.469L127.704 534.707C127.787 535.02 127.865 535.329 127.938 535.637C128.016 535.939 128.081 536.225 128.133 536.496C128.191 536.762 128.232 536.993 128.258 537.191H128.321C128.352 537.061 128.386 536.905 128.422 536.723C128.464 536.54 128.508 536.348 128.555 536.145C128.607 535.936 128.662 535.73 128.719 535.527C128.777 535.319 128.834 535.124 128.891 534.941L130.469 529.98H131.868L133.391 534.934C133.469 535.184 133.545 535.444 133.618 535.715C133.696 535.986 133.766 536.249 133.829 536.504C133.891 536.754 133.935 536.978 133.961 537.176H134.024C134.045 536.999 134.084 536.78 134.141 536.52C134.198 536.259 134.264 535.973 134.336 535.66C134.415 535.348 134.495 535.03 134.579 534.707L135.829 529.98H137.149L134.782 538.543H133.274ZM146.094 534.262C146.094 534.965 146.003 535.592 145.821 536.145C145.639 536.697 145.375 537.163 145.032 537.543C144.688 537.923 144.271 538.215 143.782 538.418C143.297 538.616 142.748 538.715 142.133 538.715C141.56 538.715 141.034 538.616 140.555 538.418C140.081 538.215 139.67 537.923 139.321 537.543C138.977 537.163 138.709 536.697 138.516 536.145C138.329 535.592 138.235 534.965 138.235 534.262C138.235 533.324 138.394 532.527 138.711 531.871C139.029 531.21 139.482 530.707 140.071 530.363C140.665 530.014 141.37 529.84 142.188 529.84C142.969 529.84 143.652 530.014 144.235 530.363C144.823 530.712 145.279 531.217 145.602 531.879C145.93 532.535 146.094 533.329 146.094 534.262ZM139.579 534.262C139.579 534.949 139.67 535.546 139.852 536.051C140.034 536.556 140.316 536.947 140.696 537.223C141.076 537.499 141.566 537.637 142.165 537.637C142.758 537.637 143.245 537.499 143.625 537.223C144.011 536.947 144.295 536.556 144.477 536.051C144.659 535.546 144.75 534.949 144.75 534.262C144.75 533.579 144.659 532.991 144.477 532.496C144.295 531.996 144.014 531.611 143.633 531.34C143.253 531.069 142.761 530.934 142.157 530.934C141.266 530.934 140.612 531.228 140.196 531.816C139.784 532.405 139.579 533.22 139.579 534.262ZM152.227 529.84C152.399 529.84 152.579 529.85 152.766 529.871C152.954 529.887 153.12 529.91 153.266 529.941L153.102 531.145C152.961 531.108 152.805 531.079 152.633 531.059C152.461 531.038 152.3 531.027 152.149 531.027C151.805 531.027 151.48 531.098 151.172 531.238C150.87 531.374 150.605 531.572 150.375 531.832C150.146 532.087 149.967 532.397 149.836 532.762C149.706 533.121 149.641 533.522 149.641 533.965V538.559H148.336V529.996H149.415L149.555 531.574H149.61C149.787 531.257 150 530.967 150.25 530.707C150.5 530.441 150.79 530.23 151.118 530.074C151.451 529.918 151.821 529.84 152.227 529.84ZM157.93 538.715C156.847 538.715 155.987 538.345 155.352 537.605C154.722 536.866 154.407 535.767 154.407 534.309C154.407 532.835 154.73 531.723 155.375 530.973C156.021 530.217 156.881 529.84 157.954 529.84C158.407 529.84 158.803 529.9 159.141 530.02C159.48 530.139 159.771 530.301 160.016 530.504C160.261 530.702 160.467 530.928 160.633 531.184H160.727C160.706 531.022 160.685 530.801 160.665 530.52C160.644 530.238 160.633 530.009 160.633 529.832V526.402H161.93V538.559H160.883L160.688 537.34H160.633C160.472 537.595 160.266 537.827 160.016 538.035C159.771 538.243 159.477 538.41 159.133 538.535C158.795 538.655 158.394 538.715 157.93 538.715ZM158.133 537.637C159.05 537.637 159.698 537.376 160.079 536.855C160.459 536.335 160.649 535.561 160.649 534.535V534.301C160.649 533.212 160.467 532.376 160.102 531.793C159.743 531.21 159.086 530.918 158.133 530.918C157.336 530.918 156.74 531.225 156.344 531.84C155.948 532.449 155.75 533.283 155.75 534.34C155.75 535.392 155.946 536.204 156.336 536.777C156.732 537.35 157.331 537.637 158.133 537.637Z" fill="#495057"/>
<rect x="76.1724" y="513.559" width="255" height="38" stroke="#B2B9C0" stroke-width="2"/>
<path d="M113.585 167.212C115.205 167.212 116.54 167.407 117.589 167.798C118.647 168.188 119.433 168.778 119.945 169.568C120.458 170.357 120.714 171.354 120.714 172.559C120.714 173.372 120.56 174.084 120.25 174.695C119.941 175.305 119.534 175.822 119.03 176.245C118.525 176.668 117.98 177.014 117.394 177.283L122.643 185.059H118.444L114.184 178.21H112.169V185.059H108.385V167.212H113.585ZM113.317 170.312H112.169V175.134H113.39C114.643 175.134 115.539 174.927 116.076 174.512C116.621 174.089 116.894 173.47 116.894 172.656C116.894 171.81 116.601 171.208 116.015 170.85C115.437 170.492 114.538 170.312 113.317 170.312ZM135.167 185.059H124.889V167.212H135.167V170.312H128.673V174.231H134.716V177.332H128.673V181.934H135.167V185.059ZM145.678 175.037H152.758V184.29C151.822 184.599 150.849 184.847 149.84 185.034C148.831 185.213 147.688 185.303 146.41 185.303C144.636 185.303 143.131 184.953 141.894 184.253C140.657 183.553 139.717 182.52 139.074 181.152C138.431 179.785 138.109 178.105 138.109 176.111C138.109 174.239 138.467 172.62 139.184 171.252C139.908 169.885 140.962 168.827 142.345 168.079C143.737 167.33 145.434 166.956 147.436 166.956C148.38 166.956 149.311 167.057 150.231 167.261C151.151 167.464 151.985 167.729 152.733 168.054L151.476 171.082C150.931 170.805 150.308 170.573 149.608 170.386C148.909 170.199 148.176 170.105 147.411 170.105C146.312 170.105 145.356 170.357 144.542 170.862C143.737 171.366 143.11 172.074 142.663 172.986C142.223 173.889 142.003 174.955 142.003 176.184C142.003 177.348 142.162 178.381 142.479 179.285C142.797 180.18 143.297 180.884 143.981 181.396C144.665 181.901 145.556 182.153 146.654 182.153C147.191 182.153 147.643 182.129 148.009 182.08C148.384 182.023 148.734 181.966 149.059 181.909V178.186H145.678V175.037ZM157.018 185.059V167.212H160.802V185.059H157.018ZM175.829 180.103C175.829 181.16 175.573 182.08 175.06 182.861C174.547 183.643 173.799 184.245 172.814 184.668C171.837 185.091 170.649 185.303 169.25 185.303C168.631 185.303 168.025 185.262 167.431 185.181C166.845 185.099 166.279 184.981 165.734 184.827C165.197 184.664 164.684 184.465 164.196 184.229V180.713C165.042 181.087 165.921 181.425 166.833 181.726C167.744 182.027 168.647 182.178 169.542 182.178C170.161 182.178 170.657 182.096 171.032 181.934C171.414 181.771 171.691 181.547 171.862 181.262C172.033 180.977 172.118 180.652 172.118 180.286C172.118 179.838 171.968 179.456 171.667 179.138C171.365 178.821 170.95 178.524 170.421 178.247C169.901 177.97 169.311 177.673 168.651 177.356C168.236 177.161 167.785 176.925 167.296 176.648C166.808 176.363 166.344 176.017 165.905 175.61C165.465 175.203 165.103 174.711 164.818 174.133C164.542 173.547 164.403 172.847 164.403 172.034C164.403 170.968 164.647 170.056 165.136 169.299C165.624 168.542 166.32 167.965 167.223 167.566C168.135 167.159 169.209 166.956 170.446 166.956C171.374 166.956 172.257 167.065 173.095 167.285C173.941 167.497 174.824 167.806 175.744 168.213L174.523 171.155C173.701 170.821 172.965 170.565 172.313 170.386C171.662 170.199 170.999 170.105 170.324 170.105C169.852 170.105 169.449 170.182 169.115 170.337C168.782 170.483 168.529 170.695 168.358 170.972C168.188 171.24 168.102 171.554 168.102 171.912C168.102 172.335 168.224 172.693 168.468 172.986C168.721 173.271 169.095 173.547 169.591 173.816C170.096 174.084 170.722 174.398 171.471 174.756C172.383 175.187 173.16 175.639 173.803 176.111C174.454 176.575 174.954 177.124 175.304 177.759C175.654 178.385 175.829 179.167 175.829 180.103ZM185.949 185.059H182.165V170.361H177.318V167.212H190.795V170.361H185.949V185.059ZM203.82 185.059H193.542V167.212H203.82V170.312H197.326V174.231H203.368V177.332H197.326V181.934H203.82V185.059ZM212.755 167.212C214.375 167.212 215.709 167.407 216.759 167.798C217.817 168.188 218.603 168.778 219.115 169.568C219.628 170.357 219.884 171.354 219.884 172.559C219.884 173.372 219.73 174.084 219.42 174.695C219.111 175.305 218.704 175.822 218.2 176.245C217.695 176.668 217.15 177.014 216.564 177.283L221.813 185.059H217.614L213.354 178.21H211.339V185.059H207.555V167.212H212.755ZM212.487 170.312H211.339V175.134H212.56C213.813 175.134 214.708 174.927 215.246 174.512C215.791 174.089 216.063 173.47 216.063 172.656C216.063 171.81 215.771 171.208 215.185 170.85C214.607 170.492 213.708 170.312 212.487 170.312ZM236.107 174.561L239.831 167.212H243.908L237.987 178.113V185.059H234.228V178.235L228.307 167.212H232.409L236.107 174.561ZM262.353 176.111C262.353 177.486 262.182 178.739 261.84 179.871C261.498 180.994 260.977 181.962 260.277 182.776C259.586 183.59 258.707 184.216 257.641 184.656C256.575 185.087 255.313 185.303 253.856 185.303C252.4 185.303 251.138 185.087 250.072 184.656C249.006 184.216 248.123 183.59 247.423 182.776C246.732 181.962 246.215 180.99 245.873 179.858C245.531 178.727 245.36 177.47 245.36 176.086C245.36 174.239 245.661 172.632 246.264 171.265C246.874 169.889 247.81 168.823 249.071 168.066C250.333 167.31 251.936 166.931 253.881 166.931C255.818 166.931 257.409 167.31 258.654 168.066C259.907 168.823 260.835 169.889 261.437 171.265C262.047 172.64 262.353 174.255 262.353 176.111ZM249.328 176.111C249.328 177.356 249.482 178.43 249.792 179.333C250.109 180.229 250.601 180.92 251.269 181.409C251.936 181.889 252.799 182.129 253.856 182.129C254.931 182.129 255.801 181.889 256.469 181.409C257.136 180.92 257.62 180.229 257.921 179.333C258.231 178.43 258.385 177.356 258.385 176.111C258.385 174.239 258.035 172.766 257.335 171.692C256.636 170.618 255.484 170.081 253.881 170.081C252.815 170.081 251.944 170.325 251.269 170.813C250.601 171.293 250.109 171.985 249.792 172.888C249.482 173.783 249.328 174.858 249.328 176.111ZM280.578 167.212V178.76C280.578 179.989 280.305 181.099 279.76 182.092C279.223 183.077 278.405 183.858 277.306 184.436C276.216 185.014 274.84 185.303 273.18 185.303C270.82 185.303 269.022 184.701 267.785 183.496C266.548 182.292 265.929 180.697 265.929 178.711V167.212H269.701V178.137C269.701 179.61 270.002 180.644 270.604 181.238C271.207 181.832 272.098 182.129 273.278 182.129C274.108 182.129 274.779 181.986 275.292 181.702C275.813 181.417 276.195 180.977 276.439 180.383C276.684 179.789 276.806 179.032 276.806 178.113V167.212H280.578ZM290.148 167.212C291.767 167.212 293.102 167.407 294.152 167.798C295.21 168.188 295.995 168.778 296.508 169.568C297.021 170.357 297.277 171.354 297.277 172.559C297.277 173.372 297.122 174.084 296.813 174.695C296.504 175.305 296.097 175.822 295.592 176.245C295.088 176.668 294.542 177.014 293.957 177.283L299.206 185.059H295.006L290.746 178.21H288.732V185.059H284.948V167.212H290.148ZM289.879 170.312H288.732V175.134H289.953C291.206 175.134 292.101 174.927 292.638 174.512C293.183 174.089 293.456 173.47 293.456 172.656C293.456 171.81 293.163 171.208 292.577 170.85C291.999 170.492 291.1 170.312 289.879 170.312ZM157.714 210.059L156.42 205.811H149.914L148.62 210.059H144.542L150.841 192.139H155.468L161.791 210.059H157.714ZM155.517 202.637L154.223 198.486C154.141 198.21 154.031 197.856 153.893 197.424C153.763 196.985 153.629 196.541 153.49 196.094C153.36 195.638 153.254 195.243 153.173 194.91C153.091 195.243 152.978 195.658 152.831 196.155C152.693 196.643 152.558 197.107 152.428 197.546C152.298 197.986 152.204 198.299 152.147 198.486L150.866 202.637H155.517ZM171.63 195.105C170.906 195.105 170.263 195.247 169.701 195.532C169.148 195.809 168.68 196.212 168.297 196.741C167.923 197.27 167.638 197.909 167.443 198.657C167.248 199.406 167.15 200.248 167.15 201.184C167.15 202.445 167.305 203.524 167.614 204.419C167.931 205.306 168.419 205.986 169.079 206.458C169.738 206.921 170.588 207.153 171.63 207.153C172.354 207.153 173.078 207.072 173.803 206.909C174.535 206.746 175.329 206.514 176.183 206.213V209.387C175.394 209.713 174.617 209.945 173.852 210.083C173.087 210.229 172.228 210.303 171.276 210.303C169.437 210.303 167.923 209.924 166.735 209.167C165.555 208.403 164.68 207.336 164.11 205.969C163.541 204.594 163.256 202.991 163.256 201.16C163.256 199.809 163.439 198.572 163.805 197.449C164.171 196.326 164.708 195.353 165.417 194.531C166.125 193.709 166.999 193.075 168.041 192.627C169.083 192.179 170.279 191.956 171.63 191.956C172.517 191.956 173.404 192.069 174.291 192.297C175.186 192.517 176.041 192.822 176.854 193.213L175.634 196.289C174.966 195.972 174.295 195.695 173.62 195.459C172.944 195.223 172.281 195.105 171.63 195.105ZM187.572 195.105C186.848 195.105 186.205 195.247 185.644 195.532C185.09 195.809 184.622 196.212 184.24 196.741C183.865 197.27 183.581 197.909 183.385 198.657C183.19 199.406 183.092 200.248 183.092 201.184C183.092 202.445 183.247 203.524 183.556 204.419C183.874 205.306 184.362 205.986 185.021 206.458C185.68 206.921 186.531 207.153 187.572 207.153C188.297 207.153 189.021 207.072 189.745 206.909C190.478 206.746 191.271 206.514 192.125 206.213V209.387C191.336 209.713 190.559 209.945 189.794 210.083C189.029 210.229 188.17 210.303 187.218 210.303C185.379 210.303 183.865 209.924 182.677 209.167C181.497 208.403 180.622 207.336 180.053 205.969C179.483 204.594 179.198 202.991 179.198 201.16C179.198 199.809 179.381 198.572 179.748 197.449C180.114 196.326 180.651 195.353 181.359 194.531C182.067 193.709 182.942 193.075 183.983 192.627C185.025 192.179 186.221 191.956 187.572 191.956C188.459 191.956 189.346 192.069 190.233 192.297C191.129 192.517 191.983 192.822 192.797 193.213L191.576 196.289C190.909 195.972 190.237 195.695 189.562 195.459C188.887 195.223 188.223 195.105 187.572 195.105ZM212.133 201.111C212.133 202.486 211.962 203.739 211.62 204.871C211.278 205.994 210.757 206.962 210.058 207.776C209.366 208.59 208.487 209.216 207.421 209.656C206.355 210.087 205.093 210.303 203.637 210.303C202.18 210.303 200.919 210.087 199.853 209.656C198.786 209.216 197.903 208.59 197.204 207.776C196.512 206.962 195.995 205.99 195.653 204.858C195.312 203.727 195.141 202.47 195.141 201.086C195.141 199.239 195.442 197.632 196.044 196.265C196.654 194.889 197.59 193.823 198.852 193.066C200.113 192.31 201.716 191.931 203.661 191.931C205.598 191.931 207.189 192.31 208.434 193.066C209.687 193.823 210.615 194.889 211.217 196.265C211.828 197.64 212.133 199.255 212.133 201.111ZM199.108 201.111C199.108 202.356 199.263 203.43 199.572 204.333C199.889 205.229 200.382 205.92 201.049 206.409C201.716 206.889 202.579 207.129 203.637 207.129C204.711 207.129 205.582 206.889 206.249 206.409C206.916 205.92 207.401 205.229 207.702 204.333C208.011 203.43 208.166 202.356 208.166 201.111C208.166 199.239 207.816 197.766 207.116 196.692C206.416 195.618 205.264 195.081 203.661 195.081C202.595 195.081 201.724 195.325 201.049 195.813C200.382 196.293 199.889 196.985 199.572 197.888C199.263 198.783 199.108 199.858 199.108 201.111ZM230.358 192.212V203.76C230.358 204.989 230.085 206.099 229.54 207.092C229.003 208.077 228.185 208.858 227.086 209.436C225.996 210.014 224.621 210.303 222.96 210.303C220.6 210.303 218.802 209.701 217.565 208.496C216.328 207.292 215.709 205.697 215.709 203.711V192.212H219.481V203.137C219.481 204.61 219.783 205.644 220.385 206.238C220.987 206.832 221.878 207.129 223.058 207.129C223.888 207.129 224.56 206.986 225.072 206.702C225.593 206.417 225.976 205.977 226.22 205.383C226.464 204.789 226.586 204.032 226.586 203.113V192.212H230.358ZM250.561 210.059H245.751L237.987 196.558H237.877C237.91 197.119 237.938 197.685 237.963 198.254C237.987 198.824 238.012 199.394 238.036 199.963C238.061 200.525 238.085 201.09 238.109 201.66V210.059H234.728V192.212H239.501L247.252 205.579H247.338C247.322 205.025 247.301 204.476 247.277 203.931C247.252 203.385 247.228 202.84 247.204 202.295C247.187 201.75 247.171 201.204 247.155 200.659V192.212H250.561V210.059ZM261.95 210.059H258.166V195.361H253.319V192.212H266.796V195.361H261.95V210.059Z" fill="black"/>
</g>
<rect x="1.92236" y="1.80859" width="401.5" height="719.5" rx="6.75" stroke="black" stroke-width="2.5"/>
<defs>
<clipPath id="clip0_156_6050">
<rect x="0.672363" y="0.558594" width="404" height="722" rx="8" fill="white"/>
</clipPath>
</defs>
</svg>
