<svg width="405" height="723" viewBox="0 0 405 723" fill="none" xmlns="http://www.w3.org/2000/svg">
<g clip-path="url(#clip0_157_6821)">
<rect x="0.672363" y="0.536133" width="404" height="722" rx="8" fill="white"/>
<path d="M1.67236 8.53613C1.67236 4.67014 4.80637 1.53613 8.67236 1.53613H446.672C450.538 1.53613 453.672 4.67014 453.672 8.53613V70.5361H1.67236V8.53613Z" fill="white"/>
<path d="M1.67236 8.53613C1.67236 4.67014 4.80637 1.53613 8.67236 1.53613H446.672C450.538 1.53613 453.672 4.67014 453.672 8.53613V70.5361H1.67236V8.53613Z" stroke="#1B1D1F" stroke-width="2"/>
<line x1="347.843" y1="28.2715" x2="377.323" y2="28.2715" stroke="black" stroke-width="2"/>
<line x1="347.843" y1="34.8926" x2="377.323" y2="34.8926" stroke="black" stroke-width="2"/>
<line x1="347.843" y1="41.8008" x2="377.323" y2="41.8008" stroke="black" stroke-width="2"/>
<path d="M168.165 279.056H171.719C173.24 279.056 174.391 279.269 175.172 279.696C175.954 280.123 176.344 280.873 176.344 281.946C176.344 282.379 176.274 282.769 176.133 283.118C175.998 283.467 175.8 283.754 175.54 283.978C175.279 284.201 174.961 284.347 174.586 284.415V284.493C174.967 284.571 175.31 284.707 175.618 284.899C175.925 285.087 176.17 285.363 176.352 285.728C176.54 286.087 176.633 286.566 176.633 287.165C176.633 287.858 176.464 288.451 176.125 288.946C175.787 289.441 175.303 289.821 174.672 290.087C174.047 290.347 173.303 290.478 172.438 290.478H168.165V279.056ZM170.586 283.579H171.993C172.696 283.579 173.183 283.47 173.454 283.251C173.724 283.027 173.86 282.699 173.86 282.267C173.86 281.829 173.698 281.517 173.375 281.329C173.058 281.136 172.553 281.04 171.86 281.04H170.586V283.579ZM170.586 285.501V288.478H172.165C172.894 288.478 173.402 288.337 173.688 288.056C173.974 287.774 174.118 287.397 174.118 286.923C174.118 286.642 174.055 286.394 173.93 286.181C173.805 285.967 173.594 285.8 173.297 285.681C173.006 285.561 172.602 285.501 172.086 285.501H170.586ZM182.329 281.579C183.136 281.579 183.831 281.735 184.415 282.048C184.998 282.355 185.448 282.803 185.766 283.392C186.084 283.98 186.243 284.699 186.243 285.548V286.704H180.61C180.636 287.376 180.836 287.905 181.211 288.29C181.592 288.67 182.118 288.86 182.79 288.86C183.347 288.86 183.857 288.803 184.321 288.688C184.784 288.574 185.261 288.402 185.75 288.173V290.017C185.318 290.23 184.865 290.386 184.391 290.485C183.922 290.584 183.352 290.634 182.68 290.634C181.805 290.634 181.029 290.472 180.352 290.149C179.68 289.826 179.152 289.334 178.766 288.673C178.386 288.011 178.196 287.178 178.196 286.173C178.196 285.152 178.368 284.303 178.711 283.626C179.06 282.944 179.545 282.433 180.165 282.095C180.784 281.751 181.506 281.579 182.329 281.579ZM182.344 283.274C181.881 283.274 181.495 283.423 181.188 283.72C180.886 284.017 180.711 284.483 180.665 285.118H184.008C184.003 284.764 183.938 284.449 183.813 284.173C183.693 283.897 183.511 283.678 183.266 283.517C183.027 283.355 182.719 283.274 182.344 283.274ZM190.735 294.321C189.516 294.321 188.584 294.108 187.938 293.681C187.297 293.259 186.977 292.665 186.977 291.899C186.977 291.373 187.141 290.933 187.469 290.579C187.797 290.225 188.279 289.972 188.915 289.821C188.67 289.717 188.456 289.548 188.274 289.313C188.092 289.074 188 288.821 188 288.556C188 288.222 188.097 287.946 188.29 287.728C188.482 287.504 188.761 287.285 189.125 287.071C188.667 286.873 188.303 286.556 188.032 286.118C187.766 285.681 187.633 285.165 187.633 284.571C187.633 283.936 187.771 283.397 188.047 282.954C188.329 282.506 188.735 282.165 189.266 281.931C189.803 281.696 190.454 281.579 191.219 281.579C191.381 281.579 191.568 281.59 191.782 281.61C191.995 281.631 192.191 281.655 192.368 281.681C192.55 281.707 192.672 281.728 192.735 281.743H195.782V282.954L194.415 283.306C194.54 283.498 194.633 283.704 194.696 283.923C194.758 284.142 194.79 284.373 194.79 284.618C194.79 285.556 194.461 286.287 193.805 286.813C193.154 287.334 192.248 287.595 191.086 287.595C190.81 287.579 190.55 287.558 190.305 287.532C190.185 287.626 190.094 287.725 190.032 287.829C189.969 287.933 189.938 288.043 189.938 288.157C189.938 288.272 189.985 288.368 190.079 288.446C190.178 288.519 190.323 288.576 190.516 288.618C190.714 288.655 190.959 288.673 191.25 288.673H192.735C193.693 288.673 194.422 288.879 194.922 289.29C195.428 289.701 195.68 290.306 195.68 291.103C195.68 292.123 195.253 292.915 194.399 293.478C193.55 294.04 192.329 294.321 190.735 294.321ZM190.836 292.767C191.404 292.767 191.891 292.712 192.297 292.603C192.709 292.498 193.024 292.347 193.243 292.149C193.461 291.957 193.571 291.725 193.571 291.454C193.571 291.235 193.506 291.061 193.375 290.931C193.25 290.806 193.058 290.717 192.797 290.665C192.542 290.613 192.214 290.587 191.813 290.587H190.579C190.287 290.587 190.024 290.634 189.79 290.728C189.56 290.821 189.378 290.951 189.243 291.118C189.107 291.29 189.04 291.488 189.04 291.712C189.04 292.04 189.196 292.298 189.508 292.485C189.826 292.673 190.269 292.767 190.836 292.767ZM191.219 286.142C191.667 286.142 191.995 286.004 192.204 285.728C192.412 285.451 192.516 285.076 192.516 284.603C192.516 284.076 192.407 283.683 192.188 283.423C191.974 283.157 191.652 283.024 191.219 283.024C190.782 283.024 190.454 283.157 190.235 283.423C190.016 283.683 189.907 284.076 189.907 284.603C189.907 285.076 190.014 285.451 190.227 285.728C190.446 286.004 190.777 286.142 191.219 286.142ZM199.61 281.743V290.478H197.227V281.743H199.61ZM198.422 278.321C198.777 278.321 199.081 278.405 199.336 278.571C199.592 278.733 199.719 279.037 199.719 279.485C199.719 279.928 199.592 280.235 199.336 280.407C199.081 280.574 198.777 280.657 198.422 280.657C198.063 280.657 197.756 280.574 197.5 280.407C197.25 280.235 197.125 279.928 197.125 279.485C197.125 279.037 197.25 278.733 197.5 278.571C197.756 278.405 198.063 278.321 198.422 278.321ZM207.079 281.579C208.011 281.579 208.761 281.834 209.329 282.345C209.896 282.85 210.18 283.662 210.18 284.782V290.478H207.797V285.376C207.797 284.751 207.683 284.28 207.454 283.962C207.23 283.644 206.875 283.485 206.391 283.485C205.662 283.485 205.165 283.733 204.899 284.228C204.633 284.722 204.5 285.436 204.5 286.368V290.478H202.118V281.743H203.938L204.258 282.86H204.391C204.579 282.558 204.81 282.313 205.086 282.126C205.368 281.938 205.678 281.8 206.016 281.712C206.36 281.623 206.714 281.579 207.079 281.579ZM217.594 281.579C218.527 281.579 219.277 281.834 219.844 282.345C220.412 282.85 220.696 283.662 220.696 284.782V290.478H218.313V285.376C218.313 284.751 218.198 284.28 217.969 283.962C217.745 283.644 217.391 283.485 216.907 283.485C216.178 283.485 215.68 283.733 215.415 284.228C215.149 284.722 215.016 285.436 215.016 286.368V290.478H212.633V281.743H214.454L214.774 282.86H214.907C215.094 282.558 215.326 282.313 215.602 282.126C215.883 281.938 216.193 281.8 216.532 281.712C216.875 281.623 217.23 281.579 217.594 281.579ZM226.75 281.579C227.558 281.579 228.253 281.735 228.836 282.048C229.42 282.355 229.87 282.803 230.188 283.392C230.506 283.98 230.665 284.699 230.665 285.548V286.704H225.032C225.058 287.376 225.258 287.905 225.633 288.29C226.014 288.67 226.54 288.86 227.211 288.86C227.769 288.86 228.279 288.803 228.743 288.688C229.206 288.574 229.683 288.402 230.172 288.173V290.017C229.74 290.23 229.287 290.386 228.813 290.485C228.344 290.584 227.774 290.634 227.102 290.634C226.227 290.634 225.451 290.472 224.774 290.149C224.102 289.826 223.573 289.334 223.188 288.673C222.808 288.011 222.618 287.178 222.618 286.173C222.618 285.152 222.79 284.303 223.133 283.626C223.482 282.944 223.967 282.433 224.586 282.095C225.206 281.751 225.928 281.579 226.75 281.579ZM226.766 283.274C226.303 283.274 225.917 283.423 225.61 283.72C225.308 284.017 225.133 284.483 225.086 285.118H228.43C228.425 284.764 228.36 284.449 228.235 284.173C228.115 283.897 227.933 283.678 227.688 283.517C227.448 283.355 227.141 283.274 226.766 283.274ZM237.477 281.579C237.597 281.579 237.735 281.587 237.891 281.603C238.053 281.613 238.183 281.629 238.282 281.649L238.102 283.884C238.024 283.858 237.912 283.84 237.766 283.829C237.625 283.813 237.503 283.806 237.399 283.806C237.092 283.806 236.792 283.845 236.5 283.923C236.214 284.001 235.956 284.129 235.727 284.306C235.498 284.478 235.316 284.707 235.18 284.993C235.05 285.274 234.985 285.621 234.985 286.032V290.478H232.602V281.743H234.407L234.758 283.212H234.875C235.047 282.915 235.261 282.644 235.516 282.399C235.777 282.149 236.071 281.951 236.399 281.806C236.732 281.655 237.092 281.579 237.477 281.579Z" fill="#495057"/>
<rect x="65.6724" y="255.978" width="274" height="57" rx="3" stroke="#495057" stroke-width="2"/>
<path d="M151.235 367.536V356.114H153.657V367.536H151.235ZM161.305 358.638C162.237 358.638 162.987 358.893 163.555 359.403C164.123 359.909 164.407 360.721 164.407 361.841V367.536H162.024V362.435C162.024 361.81 161.909 361.338 161.68 361.021C161.456 360.703 161.102 360.544 160.618 360.544C159.889 360.544 159.391 360.791 159.125 361.286C158.86 361.781 158.727 362.494 158.727 363.427V367.536H156.344V358.802H158.165L158.485 359.919H158.618C158.805 359.617 159.037 359.372 159.313 359.185C159.594 358.997 159.904 358.859 160.243 358.771C160.586 358.682 160.941 358.638 161.305 358.638ZM170.54 365.794C170.8 365.794 171.053 365.768 171.297 365.716C171.547 365.664 171.795 365.599 172.04 365.521V367.294C171.784 367.409 171.467 367.502 171.086 367.575C170.711 367.653 170.3 367.692 169.852 367.692C169.331 367.692 168.862 367.609 168.446 367.442C168.034 367.271 167.709 366.976 167.469 366.56C167.235 366.138 167.118 365.552 167.118 364.802V360.591H165.977V359.583L167.29 358.786L167.977 356.942H169.5V358.802H171.946V360.591H169.5V364.802C169.5 365.135 169.594 365.385 169.782 365.552C169.974 365.713 170.227 365.794 170.54 365.794ZM177.415 358.638C178.222 358.638 178.917 358.794 179.5 359.106C180.084 359.414 180.534 359.862 180.852 360.45C181.17 361.039 181.329 361.757 181.329 362.606V363.763H175.696C175.722 364.435 175.922 364.963 176.297 365.349C176.678 365.729 177.204 365.919 177.875 365.919C178.433 365.919 178.943 365.862 179.407 365.747C179.87 365.632 180.347 365.461 180.836 365.231V367.075C180.404 367.289 179.951 367.445 179.477 367.544C179.008 367.643 178.438 367.692 177.766 367.692C176.891 367.692 176.115 367.531 175.438 367.208C174.766 366.885 174.237 366.393 173.852 365.731C173.472 365.07 173.282 364.237 173.282 363.231C173.282 362.211 173.454 361.362 173.797 360.685C174.146 360.002 174.631 359.492 175.25 359.153C175.87 358.81 176.592 358.638 177.415 358.638ZM177.43 360.333C176.967 360.333 176.581 360.481 176.274 360.778C175.972 361.075 175.797 361.541 175.75 362.177H179.094C179.089 361.823 179.024 361.507 178.899 361.231C178.779 360.955 178.597 360.737 178.352 360.575C178.112 360.414 177.805 360.333 177.43 360.333ZM188.141 358.638C188.261 358.638 188.399 358.646 188.555 358.661C188.717 358.672 188.847 358.687 188.946 358.708L188.766 360.942C188.688 360.916 188.576 360.898 188.43 360.888C188.29 360.872 188.167 360.864 188.063 360.864C187.756 360.864 187.456 360.903 187.165 360.981C186.878 361.06 186.62 361.187 186.391 361.364C186.162 361.536 185.98 361.765 185.844 362.052C185.714 362.333 185.649 362.679 185.649 363.091V367.536H183.266V358.802H185.071L185.422 360.271H185.54C185.711 359.974 185.925 359.703 186.18 359.458C186.441 359.208 186.735 359.01 187.063 358.864C187.396 358.713 187.756 358.638 188.141 358.638ZM200.79 358.638C201.779 358.638 202.527 358.893 203.032 359.403C203.542 359.909 203.797 360.721 203.797 361.841V367.536H201.407V362.435C201.407 361.81 201.3 361.338 201.086 361.021C200.873 360.703 200.542 360.544 200.094 360.544C199.464 360.544 199.016 360.771 198.75 361.224C198.485 361.672 198.352 362.315 198.352 363.153V367.536H195.969V362.435C195.969 362.018 195.922 361.669 195.829 361.388C195.735 361.106 195.592 360.896 195.399 360.755C195.206 360.614 194.959 360.544 194.657 360.544C194.214 360.544 193.865 360.656 193.61 360.88C193.36 361.099 193.18 361.424 193.071 361.856C192.967 362.284 192.915 362.807 192.915 363.427V367.536H190.532V358.802H192.352L192.672 359.919H192.805C192.982 359.617 193.204 359.372 193.469 359.185C193.74 358.997 194.037 358.859 194.36 358.771C194.683 358.682 195.011 358.638 195.344 358.638C195.985 358.638 196.527 358.742 196.969 358.95C197.417 359.159 197.761 359.481 198 359.919H198.211C198.472 359.471 198.839 359.146 199.313 358.942C199.792 358.739 200.284 358.638 200.79 358.638ZM209.852 358.638C210.659 358.638 211.355 358.794 211.938 359.106C212.521 359.414 212.972 359.862 213.29 360.45C213.607 361.039 213.766 361.757 213.766 362.606V363.763H208.133C208.159 364.435 208.36 364.963 208.735 365.349C209.115 365.729 209.641 365.919 210.313 365.919C210.87 365.919 211.381 365.862 211.844 365.747C212.308 365.632 212.784 365.461 213.274 365.231V367.075C212.842 367.289 212.389 367.445 211.915 367.544C211.446 367.643 210.875 367.692 210.204 367.692C209.329 367.692 208.553 367.531 207.875 367.208C207.204 366.885 206.675 366.393 206.29 365.731C205.909 365.07 205.719 364.237 205.719 363.231C205.719 362.211 205.891 361.362 206.235 360.685C206.584 360.002 207.068 359.492 207.688 359.153C208.308 358.81 209.029 358.638 209.852 358.638ZM209.868 360.333C209.404 360.333 209.019 360.481 208.711 360.778C208.409 361.075 208.235 361.541 208.188 362.177H211.532C211.527 361.823 211.461 361.507 211.336 361.231C211.217 360.955 211.034 360.737 210.79 360.575C210.55 360.414 210.243 360.333 209.868 360.333ZM218.469 367.692C217.495 367.692 216.701 367.312 216.086 366.552C215.477 365.786 215.172 364.664 215.172 363.185C215.172 361.69 215.482 360.56 216.102 359.794C216.722 359.023 217.532 358.638 218.532 358.638C218.948 358.638 219.316 358.695 219.633 358.81C219.951 358.924 220.224 359.078 220.454 359.271C220.688 359.463 220.886 359.679 221.047 359.919H221.125C221.094 359.752 221.055 359.507 221.008 359.185C220.967 358.856 220.946 358.521 220.946 358.177V355.38H223.336V367.536H221.508L221.047 366.403H220.946C220.795 366.643 220.605 366.862 220.375 367.06C220.152 367.252 219.883 367.406 219.571 367.521C219.258 367.635 218.891 367.692 218.469 367.692ZM219.305 365.794C219.956 365.794 220.415 365.601 220.68 365.216C220.951 364.825 221.094 364.239 221.11 363.458V363.2C221.11 362.351 220.98 361.703 220.719 361.255C220.459 360.802 219.974 360.575 219.266 360.575C218.74 360.575 218.329 360.802 218.032 361.255C217.735 361.708 217.586 362.362 217.586 363.216C217.586 364.07 217.735 364.713 218.032 365.146C218.334 365.578 218.758 365.794 219.305 365.794ZM228.211 358.802V367.536H225.829V358.802H228.211ZM227.024 355.38C227.378 355.38 227.683 355.463 227.938 355.63C228.193 355.791 228.321 356.096 228.321 356.544C228.321 356.987 228.193 357.294 227.938 357.466C227.683 357.632 227.378 357.716 227.024 357.716C226.665 357.716 226.357 357.632 226.102 357.466C225.852 357.294 225.727 356.987 225.727 356.544C225.727 356.096 225.852 355.791 226.102 355.63C226.357 355.463 226.665 355.38 227.024 355.38ZM234.297 358.622C235.469 358.622 236.368 358.877 236.993 359.388C237.618 359.898 237.93 360.674 237.93 361.716V367.536H236.266L235.805 366.349H235.743C235.493 366.661 235.237 366.916 234.977 367.114C234.717 367.312 234.417 367.458 234.079 367.552C233.74 367.646 233.329 367.692 232.844 367.692C232.329 367.692 231.865 367.593 231.454 367.396C231.047 367.198 230.727 366.896 230.493 366.489C230.258 366.078 230.141 365.557 230.141 364.927C230.141 364 230.467 363.317 231.118 362.88C231.769 362.437 232.745 362.192 234.047 362.146L235.563 362.099V361.716C235.563 361.257 235.443 360.922 235.204 360.708C234.964 360.494 234.631 360.388 234.204 360.388C233.782 360.388 233.368 360.448 232.961 360.567C232.555 360.687 232.149 360.838 231.743 361.021L230.954 359.411C231.417 359.166 231.935 358.974 232.508 358.833C233.086 358.692 233.683 358.622 234.297 358.622ZM235.563 363.489L234.641 363.521C233.87 363.541 233.334 363.679 233.032 363.935C232.735 364.19 232.586 364.526 232.586 364.942C232.586 365.307 232.693 365.567 232.907 365.724C233.12 365.875 233.399 365.95 233.743 365.95C234.253 365.95 234.683 365.799 235.032 365.497C235.386 365.195 235.563 364.765 235.563 364.208V363.489ZM244.071 365.794C244.331 365.794 244.584 365.768 244.829 365.716C245.079 365.664 245.326 365.599 245.571 365.521V367.294C245.316 367.409 244.998 367.502 244.618 367.575C244.243 367.653 243.831 367.692 243.383 367.692C242.862 367.692 242.394 367.609 241.977 367.442C241.566 367.271 241.24 366.976 241 366.56C240.766 366.138 240.649 365.552 240.649 364.802V360.591H239.508V359.583L240.821 358.786L241.508 356.942H243.032V358.802H245.477V360.591H243.032V364.802C243.032 365.135 243.125 365.385 243.313 365.552C243.506 365.713 243.758 365.794 244.071 365.794ZM250.946 358.638C251.753 358.638 252.448 358.794 253.032 359.106C253.615 359.414 254.066 359.862 254.383 360.45C254.701 361.039 254.86 361.757 254.86 362.606V363.763H249.227C249.253 364.435 249.454 364.963 249.829 365.349C250.209 365.729 250.735 365.919 251.407 365.919C251.964 365.919 252.474 365.862 252.938 365.747C253.402 365.632 253.878 365.461 254.368 365.231V367.075C253.935 367.289 253.482 367.445 253.008 367.544C252.54 367.643 251.969 367.692 251.297 367.692C250.422 367.692 249.646 367.531 248.969 367.208C248.297 366.885 247.769 366.393 247.383 365.731C247.003 365.07 246.813 364.237 246.813 363.231C246.813 362.211 246.985 361.362 247.329 360.685C247.678 360.002 248.162 359.492 248.782 359.153C249.402 358.81 250.123 358.638 250.946 358.638ZM250.961 360.333C250.498 360.333 250.112 360.481 249.805 360.778C249.503 361.075 249.329 361.541 249.282 362.177H252.625C252.62 361.823 252.555 361.507 252.43 361.231C252.31 360.955 252.128 360.737 251.883 360.575C251.644 360.414 251.336 360.333 250.961 360.333Z" fill="#495057"/>
<rect x="65.6724" y="333.036" width="274" height="57" rx="3" stroke="#495057" stroke-width="2"/>
<path d="M171.961 444.595L171.133 441.876H166.969L166.141 444.595H163.532L167.563 433.126H170.524L174.571 444.595H171.961ZM170.555 439.845L169.727 437.188C169.675 437.011 169.605 436.785 169.516 436.509C169.433 436.228 169.347 435.944 169.258 435.657C169.175 435.366 169.107 435.113 169.055 434.899C169.003 435.113 168.93 435.379 168.836 435.696C168.748 436.009 168.662 436.306 168.579 436.587C168.495 436.868 168.435 437.069 168.399 437.188L167.579 439.845H170.555ZM178.594 444.751C177.62 444.751 176.826 444.371 176.211 443.61C175.602 442.845 175.297 441.722 175.297 440.243C175.297 438.748 175.607 437.618 176.227 436.853C176.847 436.082 177.657 435.696 178.657 435.696C179.073 435.696 179.441 435.754 179.758 435.868C180.076 435.983 180.349 436.136 180.579 436.329C180.813 436.522 181.011 436.738 181.172 436.978H181.25C181.219 436.811 181.18 436.566 181.133 436.243C181.092 435.915 181.071 435.579 181.071 435.235V432.438H183.461V444.595H181.633L181.172 443.462H181.071C180.92 443.701 180.73 443.92 180.5 444.118C180.277 444.311 180.008 444.465 179.696 444.579C179.383 444.694 179.016 444.751 178.594 444.751ZM179.43 442.853C180.081 442.853 180.54 442.66 180.805 442.274C181.076 441.884 181.219 441.298 181.235 440.517V440.259C181.235 439.41 181.105 438.761 180.844 438.313C180.584 437.86 180.099 437.634 179.391 437.634C178.865 437.634 178.454 437.86 178.157 438.313C177.86 438.767 177.711 439.42 177.711 440.274C177.711 441.129 177.86 441.772 178.157 442.204C178.459 442.636 178.883 442.853 179.43 442.853ZM188.032 444.595L184.704 435.86H187.196L188.883 440.837C188.977 441.129 189.05 441.436 189.102 441.759C189.159 442.082 189.198 442.371 189.219 442.626H189.282C189.297 442.35 189.334 442.056 189.391 441.743C189.454 441.431 189.534 441.129 189.633 440.837L191.313 435.86H193.805L190.477 444.595H188.032ZM198.641 435.681C199.813 435.681 200.711 435.936 201.336 436.446C201.961 436.957 202.274 437.733 202.274 438.774V444.595H200.61L200.149 443.407H200.086C199.836 443.72 199.581 443.975 199.321 444.173C199.06 444.371 198.761 444.517 198.422 444.61C198.084 444.704 197.672 444.751 197.188 444.751C196.672 444.751 196.209 444.652 195.797 444.454C195.391 444.256 195.071 443.954 194.836 443.548C194.602 443.136 194.485 442.616 194.485 441.985C194.485 441.058 194.81 440.376 195.461 439.938C196.112 439.496 197.089 439.251 198.391 439.204L199.907 439.157V438.774C199.907 438.316 199.787 437.98 199.547 437.767C199.308 437.553 198.974 437.446 198.547 437.446C198.125 437.446 197.711 437.506 197.305 437.626C196.899 437.746 196.493 437.897 196.086 438.079L195.297 436.47C195.761 436.225 196.279 436.032 196.852 435.892C197.43 435.751 198.027 435.681 198.641 435.681ZM199.907 440.548L198.985 440.579C198.214 440.6 197.678 440.738 197.375 440.993C197.079 441.248 196.93 441.584 196.93 442.001C196.93 442.366 197.037 442.626 197.25 442.782C197.464 442.933 197.743 443.009 198.086 443.009C198.597 443.009 199.027 442.858 199.375 442.556C199.73 442.254 199.907 441.824 199.907 441.267V440.548ZM209.696 435.696C210.628 435.696 211.378 435.951 211.946 436.462C212.514 436.967 212.797 437.78 212.797 438.899V444.595H210.415V439.493C210.415 438.868 210.3 438.397 210.071 438.079C209.847 437.761 209.493 437.603 209.008 437.603C208.279 437.603 207.782 437.85 207.516 438.345C207.25 438.84 207.118 439.553 207.118 440.485V444.595H204.735V435.86H206.555L206.875 436.978H207.008C207.196 436.675 207.428 436.431 207.704 436.243C207.985 436.056 208.295 435.918 208.633 435.829C208.977 435.741 209.331 435.696 209.696 435.696ZM218.797 444.751C217.933 444.751 217.196 444.595 216.586 444.282C215.977 443.965 215.514 443.475 215.196 442.813C214.878 442.152 214.719 441.306 214.719 440.274C214.719 439.207 214.899 438.337 215.258 437.665C215.623 436.988 216.125 436.491 216.766 436.173C217.412 435.855 218.159 435.696 219.008 435.696C219.612 435.696 220.133 435.756 220.571 435.876C221.014 435.991 221.399 436.129 221.727 436.29L221.024 438.134C220.649 437.983 220.3 437.86 219.977 437.767C219.654 437.668 219.331 437.618 219.008 437.618C218.592 437.618 218.245 437.717 217.969 437.915C217.693 438.108 217.487 438.399 217.352 438.79C217.217 439.181 217.149 439.67 217.149 440.259C217.149 440.837 217.222 441.316 217.368 441.696C217.514 442.076 217.724 442.36 218 442.548C218.277 442.73 218.612 442.821 219.008 442.821C219.503 442.821 219.943 442.756 220.329 442.626C220.714 442.491 221.089 442.303 221.454 442.063V444.103C221.089 444.332 220.706 444.496 220.305 444.595C219.909 444.699 219.407 444.751 218.797 444.751ZM227.086 435.696C227.894 435.696 228.589 435.853 229.172 436.165C229.756 436.472 230.206 436.92 230.524 437.509C230.842 438.097 231 438.816 231 439.665V440.821H225.368C225.394 441.493 225.594 442.022 225.969 442.407C226.349 442.787 226.875 442.978 227.547 442.978C228.105 442.978 228.615 442.92 229.079 442.806C229.542 442.691 230.019 442.519 230.508 442.29V444.134C230.076 444.347 229.623 444.504 229.149 444.603C228.68 444.701 228.11 444.751 227.438 444.751C226.563 444.751 225.787 444.59 225.11 444.267C224.438 443.944 223.909 443.451 223.524 442.79C223.144 442.129 222.954 441.295 222.954 440.29C222.954 439.269 223.125 438.42 223.469 437.743C223.818 437.061 224.303 436.55 224.922 436.212C225.542 435.868 226.264 435.696 227.086 435.696ZM227.102 437.392C226.639 437.392 226.253 437.54 225.946 437.837C225.644 438.134 225.469 438.6 225.422 439.235H228.766C228.761 438.881 228.696 438.566 228.571 438.29C228.451 438.014 228.269 437.795 228.024 437.634C227.784 437.472 227.477 437.392 227.102 437.392ZM235.704 444.751C234.73 444.751 233.935 444.371 233.321 443.61C232.711 442.845 232.407 441.722 232.407 440.243C232.407 438.748 232.717 437.618 233.336 436.853C233.956 436.082 234.766 435.696 235.766 435.696C236.183 435.696 236.55 435.754 236.868 435.868C237.185 435.983 237.459 436.136 237.688 436.329C237.922 436.522 238.12 436.738 238.282 436.978H238.36C238.329 436.811 238.29 436.566 238.243 436.243C238.201 435.915 238.18 435.579 238.18 435.235V432.438H240.571V444.595H238.743L238.282 443.462H238.18C238.029 443.701 237.839 443.92 237.61 444.118C237.386 444.311 237.118 444.465 236.805 444.579C236.493 444.694 236.125 444.751 235.704 444.751ZM236.54 442.853C237.191 442.853 237.649 442.66 237.915 442.274C238.185 441.884 238.329 441.298 238.344 440.517V440.259C238.344 439.41 238.214 438.761 237.954 438.313C237.693 437.86 237.209 437.634 236.5 437.634C235.974 437.634 235.563 437.86 235.266 438.313C234.969 438.767 234.821 439.42 234.821 440.274C234.821 441.129 234.969 441.772 235.266 442.204C235.568 442.636 235.993 442.853 236.54 442.853Z" fill="#495057"/>
<rect x="65.6724" y="410.095" width="274" height="57" rx="3" stroke="#495057" stroke-width="2"/>
<path d="M285.407 674.026H282.329L277.36 665.386H277.29C277.31 665.745 277.329 666.107 277.344 666.472C277.36 666.836 277.375 667.201 277.391 667.565C277.407 667.925 277.422 668.287 277.438 668.651V674.026H275.274V662.604H278.329L283.29 671.159H283.344C283.334 670.805 283.321 670.453 283.305 670.104C283.29 669.756 283.274 669.407 283.258 669.058C283.248 668.709 283.237 668.36 283.227 668.011V662.604H285.407V674.026ZM291.704 665.128C292.511 665.128 293.206 665.284 293.79 665.597C294.373 665.904 294.823 666.352 295.141 666.94C295.459 667.529 295.618 668.248 295.618 669.097V670.253H289.985C290.011 670.925 290.211 671.453 290.586 671.839C290.967 672.219 291.493 672.409 292.165 672.409C292.722 672.409 293.232 672.352 293.696 672.237C294.159 672.123 294.636 671.951 295.125 671.722V673.565C294.693 673.779 294.24 673.935 293.766 674.034C293.297 674.133 292.727 674.183 292.055 674.183C291.18 674.183 290.404 674.021 289.727 673.698C289.055 673.375 288.527 672.883 288.141 672.222C287.761 671.56 287.571 670.727 287.571 669.722C287.571 668.701 287.743 667.852 288.086 667.175C288.435 666.493 288.92 665.982 289.54 665.644C290.159 665.3 290.881 665.128 291.704 665.128ZM291.719 666.823C291.256 666.823 290.87 666.972 290.563 667.269C290.261 667.565 290.086 668.032 290.04 668.667H293.383C293.378 668.313 293.313 667.998 293.188 667.722C293.068 667.446 292.886 667.227 292.641 667.065C292.402 666.904 292.094 666.823 291.719 666.823ZM299.344 669.565L296.532 665.292H299.235L300.93 668.073L302.641 665.292H305.344L302.5 669.565L305.477 674.026H302.766L300.93 671.034L299.086 674.026H296.383L299.344 669.565ZM310.485 672.284C310.745 672.284 310.998 672.258 311.243 672.206C311.493 672.154 311.74 672.089 311.985 672.011V673.784C311.73 673.899 311.412 673.993 311.032 674.065C310.657 674.144 310.245 674.183 309.797 674.183C309.277 674.183 308.808 674.099 308.391 673.933C307.98 673.761 307.654 673.466 307.415 673.05C307.18 672.628 307.063 672.042 307.063 671.292V667.081H305.922V666.073L307.235 665.276L307.922 663.433H309.446V665.292H311.891V667.081H309.446V671.292C309.446 671.625 309.54 671.875 309.727 672.042C309.92 672.203 310.172 672.284 310.485 672.284Z" fill="#495057"/>
<path d="M82.9458 187.177C82.2215 187.177 81.5786 187.32 81.0171 187.604C80.4637 187.881 79.9958 188.284 79.6133 188.813C79.2389 189.342 78.9541 189.981 78.7588 190.729C78.5635 191.478 78.4658 192.32 78.4658 193.256C78.4658 194.518 78.6204 195.596 78.9297 196.491C79.2471 197.378 79.7354 198.058 80.3945 198.53C81.0537 198.994 81.9041 199.226 82.9458 199.226C83.6701 199.226 84.3944 199.144 85.1187 198.981C85.8511 198.819 86.6445 198.587 87.499 198.286V201.459C86.7096 201.785 85.9325 202.017 85.1675 202.155C84.4025 202.302 83.5439 202.375 82.5918 202.375C80.7526 202.375 79.2389 201.997 78.0508 201.24C76.8708 200.475 75.9959 199.409 75.4263 198.042C74.8566 196.666 74.5718 195.063 74.5718 193.232C74.5718 191.881 74.7549 190.644 75.1211 189.521C75.4873 188.398 76.0244 187.425 76.7324 186.604C77.4404 185.782 78.3153 185.147 79.3569 184.699C80.3986 184.252 81.5949 184.028 82.9458 184.028C83.8328 184.028 84.7199 184.142 85.6069 184.37C86.5021 184.589 87.3566 184.895 88.1704 185.285L86.9497 188.361C86.2824 188.044 85.611 187.767 84.9355 187.531C84.2601 187.295 83.5968 187.177 82.9458 187.177ZM105.932 202.131H102.16V194.428H95.0918V202.131H91.3076V184.284H95.0918V191.279H102.16V184.284H105.932V202.131ZM126.647 193.183C126.647 194.558 126.476 195.812 126.134 196.943C125.792 198.066 125.272 199.034 124.572 199.848C123.88 200.662 123.001 201.289 121.935 201.728C120.869 202.159 119.608 202.375 118.151 202.375C116.694 202.375 115.433 202.159 114.367 201.728C113.301 201.289 112.418 200.662 111.718 199.848C111.026 199.034 110.509 198.062 110.167 196.931C109.826 195.799 109.655 194.542 109.655 193.159C109.655 191.311 109.956 189.704 110.558 188.337C111.168 186.962 112.104 185.896 113.366 185.139C114.627 184.382 116.23 184.003 118.175 184.003C120.112 184.003 121.703 184.382 122.948 185.139C124.201 185.896 125.129 186.962 125.731 188.337C126.342 189.712 126.647 191.328 126.647 193.183ZM113.622 193.183C113.622 194.428 113.777 195.502 114.086 196.406C114.403 197.301 114.896 197.993 115.563 198.481C116.23 198.961 117.093 199.201 118.151 199.201C119.225 199.201 120.096 198.961 120.763 198.481C121.431 197.993 121.915 197.301 122.216 196.406C122.525 195.502 122.68 194.428 122.68 193.183C122.68 191.311 122.33 189.838 121.63 188.764C120.93 187.69 119.778 187.153 118.175 187.153C117.109 187.153 116.238 187.397 115.563 187.885C114.896 188.365 114.403 189.057 114.086 189.96C113.777 190.856 113.622 191.93 113.622 193.183ZM146.544 193.183C146.544 194.558 146.374 195.812 146.032 196.943C145.69 198.066 145.169 199.034 144.469 199.848C143.778 200.662 142.899 201.289 141.833 201.728C140.766 202.159 139.505 202.375 138.048 202.375C136.592 202.375 135.33 202.159 134.264 201.728C133.198 201.289 132.315 200.662 131.615 199.848C130.924 199.034 130.407 198.062 130.065 196.931C129.723 195.799 129.552 194.542 129.552 193.159C129.552 191.311 129.853 189.704 130.456 188.337C131.066 186.962 132.002 185.896 133.263 185.139C134.525 184.382 136.128 184.003 138.073 184.003C140.01 184.003 141.601 184.382 142.846 185.139C144.099 185.896 145.027 186.962 145.629 188.337C146.239 189.712 146.544 191.328 146.544 193.183ZM133.52 193.183C133.52 194.428 133.674 195.502 133.983 196.406C134.301 197.301 134.793 197.993 135.46 198.481C136.128 198.961 136.99 199.201 138.048 199.201C139.123 199.201 139.993 198.961 140.661 198.481C141.328 197.993 141.812 197.301 142.113 196.406C142.423 195.502 142.577 194.428 142.577 193.183C142.577 191.311 142.227 189.838 141.527 188.764C140.827 187.69 139.676 187.153 138.073 187.153C137.007 187.153 136.136 187.397 135.46 187.885C134.793 188.365 134.301 189.057 133.983 189.96C133.674 190.856 133.52 191.93 133.52 193.183ZM160.778 197.175C160.778 198.233 160.521 199.152 160.009 199.934C159.496 200.715 158.747 201.317 157.763 201.74C156.786 202.163 155.598 202.375 154.198 202.375C153.58 202.375 152.973 202.334 152.379 202.253C151.793 202.172 151.228 202.054 150.683 201.899C150.146 201.736 149.633 201.537 149.145 201.301V197.785C149.991 198.16 150.87 198.497 151.781 198.798C152.693 199.099 153.596 199.25 154.491 199.25C155.11 199.25 155.606 199.169 155.98 199.006C156.363 198.843 156.64 198.619 156.811 198.334C156.981 198.05 157.067 197.724 157.067 197.358C157.067 196.91 156.916 196.528 156.615 196.21C156.314 195.893 155.899 195.596 155.37 195.319C154.849 195.043 154.259 194.746 153.6 194.428C153.185 194.233 152.733 193.997 152.245 193.72C151.757 193.435 151.293 193.09 150.854 192.683C150.414 192.276 150.052 191.783 149.767 191.206C149.49 190.62 149.352 189.92 149.352 189.106C149.352 188.04 149.596 187.128 150.084 186.372C150.573 185.615 151.269 185.037 152.172 184.638C153.083 184.231 154.158 184.028 155.395 184.028C156.322 184.028 157.205 184.138 158.043 184.357C158.89 184.569 159.773 184.878 160.692 185.285L159.472 188.227C158.65 187.893 157.913 187.637 157.262 187.458C156.611 187.271 155.948 187.177 155.272 187.177C154.8 187.177 154.398 187.255 154.064 187.409C153.73 187.556 153.478 187.767 153.307 188.044C153.136 188.312 153.051 188.626 153.051 188.984C153.051 189.407 153.173 189.765 153.417 190.058C153.669 190.343 154.044 190.62 154.54 190.888C155.045 191.157 155.671 191.47 156.42 191.828C157.331 192.259 158.109 192.711 158.751 193.183C159.403 193.647 159.903 194.196 160.253 194.831C160.603 195.458 160.778 196.239 160.778 197.175ZM174.291 202.131H164.013V184.284H174.291V187.385H167.797V191.303H173.839V194.404H167.797V199.006H174.291V202.131ZM190.075 191.633L193.798 184.284H197.875L191.955 195.185V202.131H188.195V195.307L182.274 184.284H186.376L190.075 191.633ZM216.32 193.183C216.32 194.558 216.149 195.812 215.807 196.943C215.465 198.066 214.944 199.034 214.245 199.848C213.553 200.662 212.674 201.289 211.608 201.728C210.542 202.159 209.28 202.375 207.824 202.375C206.367 202.375 205.106 202.159 204.04 201.728C202.973 201.289 202.09 200.662 201.391 199.848C200.699 199.034 200.182 198.062 199.84 196.931C199.499 195.799 199.328 194.542 199.328 193.159C199.328 191.311 199.629 189.704 200.231 188.337C200.841 186.962 201.777 185.896 203.039 185.139C204.3 184.382 205.903 184.003 207.848 184.003C209.785 184.003 211.376 184.382 212.621 185.139C213.874 185.896 214.802 186.962 215.404 188.337C216.015 189.712 216.32 191.328 216.32 193.183ZM203.295 193.183C203.295 194.428 203.45 195.502 203.759 196.406C204.076 197.301 204.569 197.993 205.236 198.481C205.903 198.961 206.766 199.201 207.824 199.201C208.898 199.201 209.769 198.961 210.436 198.481C211.103 197.993 211.588 197.301 211.889 196.406C212.198 195.502 212.353 194.428 212.353 193.183C212.353 191.311 212.003 189.838 211.303 188.764C210.603 187.69 209.451 187.153 207.848 187.153C206.782 187.153 205.911 187.397 205.236 187.885C204.569 188.365 204.076 189.057 203.759 189.96C203.45 190.856 203.295 191.93 203.295 193.183ZM234.545 184.284V195.832C234.545 197.061 234.272 198.172 233.727 199.165C233.19 200.149 232.372 200.931 231.273 201.508C230.183 202.086 228.808 202.375 227.147 202.375C224.787 202.375 222.989 201.773 221.752 200.568C220.515 199.364 219.896 197.769 219.896 195.783V184.284H223.668V195.209C223.668 196.682 223.97 197.716 224.572 198.31C225.174 198.904 226.065 199.201 227.245 199.201C228.075 199.201 228.747 199.059 229.259 198.774C229.78 198.489 230.163 198.05 230.407 197.456C230.651 196.861 230.773 196.105 230.773 195.185V184.284H234.545ZM244.115 184.284C245.735 184.284 247.069 184.479 248.119 184.87C249.177 185.261 249.962 185.851 250.475 186.64C250.988 187.43 251.244 188.426 251.244 189.631C251.244 190.445 251.09 191.157 250.78 191.767C250.471 192.377 250.064 192.894 249.56 193.317C249.055 193.741 248.51 194.086 247.924 194.355L253.173 202.131H248.974L244.713 195.283H242.699V202.131H238.915V184.284H244.115ZM243.847 187.385H242.699V192.207H243.92C245.173 192.207 246.068 191.999 246.605 191.584C247.151 191.161 247.423 190.542 247.423 189.729C247.423 188.882 247.13 188.28 246.544 187.922C245.967 187.564 245.067 187.385 243.847 187.385ZM261.913 202.131V184.284H265.697V199.006H272.936V202.131H261.913ZM286.327 202.131H276.049V184.284H286.327V187.385H279.833V191.303H285.875V194.404H279.833V199.006H286.327V202.131ZM304.064 184.284L297.997 202.131H293.871L287.816 184.284H291.637L294.994 194.904C295.051 195.083 295.145 195.421 295.275 195.917C295.405 196.406 295.535 196.927 295.666 197.48C295.804 198.025 295.897 198.477 295.946 198.835C295.995 198.477 296.081 198.025 296.203 197.48C296.333 196.935 296.459 196.418 296.581 195.93C296.711 195.433 296.805 195.091 296.862 194.904L300.243 184.284H304.064ZM316.601 202.131H306.322V184.284H316.601V187.385H310.106V191.303H316.149V194.404H310.106V199.006H316.601V202.131ZM320.336 202.131V184.284H324.12V199.006H331.359V202.131H320.336Z" fill="black"/>
<path d="M333.843 674.026L339.136 668.733C339.526 668.343 339.526 667.71 339.136 667.319L333.843 662.026" stroke="#1B1D1F" stroke-width="2" stroke-linecap="round"/>
</g>
<rect x="1.92236" y="1.78613" width="401.5" height="719.5" rx="6.75" stroke="black" stroke-width="2.5"/>
<defs>
<clipPath id="clip0_157_6821">
<rect x="0.672363" y="0.536133" width="404" height="722" rx="8" fill="white"/>
</clipPath>
</defs>
</svg>
