<svg width="405" height="723" viewBox="0 0 405 723" fill="none" xmlns="http://www.w3.org/2000/svg">
<g clip-path="url(#clip0_181_7172)">
<rect x="0.672363" y="0.491211" width="404" height="722" rx="8" fill="white"/>
<path d="M1.67236 8.49121C1.67236 4.62522 4.80637 1.49121 8.67236 1.49121H446.672C450.538 1.49121 453.672 4.62522 453.672 8.49121V70.4912H1.67236V8.49121Z" fill="white"/>
<path d="M1.67236 8.49121C1.67236 4.62522 4.80637 1.49121 8.67236 1.49121H446.672C450.538 1.49121 453.672 4.62522 453.672 8.49121V70.4912H1.67236V8.49121Z" stroke="#1B1D1F" stroke-width="2"/>
<path d="M117.229 160.491H113.445V145.794H108.599V142.645H122.076V145.794H117.229V160.491ZM135.101 160.491H124.822V142.645H135.101V145.745H128.606V149.664H134.649V152.764H128.606V157.366H135.101V160.491ZM149.371 155.535C149.371 156.593 149.114 157.513 148.602 158.294C148.089 159.075 147.34 159.677 146.355 160.101C145.379 160.524 144.191 160.735 142.791 160.735C142.173 160.735 141.566 160.695 140.972 160.613C140.386 160.532 139.821 160.414 139.275 160.259C138.738 160.097 138.226 159.897 137.737 159.661V156.146C138.584 156.52 139.463 156.858 140.374 157.159C141.285 157.46 142.189 157.61 143.084 157.61C143.702 157.61 144.199 157.529 144.573 157.366C144.956 157.203 145.232 156.98 145.403 156.695C145.574 156.41 145.66 156.084 145.66 155.718C145.66 155.271 145.509 154.888 145.208 154.571C144.907 154.253 144.492 153.956 143.963 153.68C143.442 153.403 142.852 153.106 142.193 152.789C141.778 152.593 141.326 152.357 140.838 152.081C140.35 151.796 139.886 151.45 139.446 151.043C139.007 150.636 138.645 150.144 138.36 149.566C138.083 148.98 137.945 148.28 137.945 147.466C137.945 146.4 138.189 145.489 138.677 144.732C139.166 143.975 139.861 143.397 140.765 142.999C141.676 142.592 142.75 142.388 143.987 142.388C144.915 142.388 145.798 142.498 146.636 142.718C147.483 142.929 148.366 143.239 149.285 143.646L148.064 146.587C147.243 146.254 146.506 145.997 145.855 145.818C145.204 145.631 144.541 145.538 143.865 145.538C143.393 145.538 142.99 145.615 142.657 145.77C142.323 145.916 142.071 146.128 141.9 146.404C141.729 146.673 141.644 146.986 141.644 147.344C141.644 147.767 141.766 148.125 142.01 148.418C142.262 148.703 142.636 148.98 143.133 149.249C143.637 149.517 144.264 149.83 145.013 150.188C145.924 150.62 146.701 151.071 147.344 151.543C147.995 152.007 148.496 152.557 148.846 153.191C149.196 153.818 149.371 154.599 149.371 155.535ZM159.49 160.491H155.706V145.794H150.86V142.645H164.336V145.794H159.49V160.491ZM179.131 149.993L182.854 142.645H186.932L181.011 153.545V160.491H177.251V153.667L171.331 142.645H175.433L179.131 149.993ZM205.376 151.543C205.376 152.919 205.206 154.172 204.864 155.303C204.522 156.426 204.001 157.395 203.301 158.208C202.61 159.022 201.731 159.649 200.665 160.088C199.598 160.52 198.337 160.735 196.88 160.735C195.424 160.735 194.162 160.52 193.096 160.088C192.03 159.649 191.147 159.022 190.447 158.208C189.756 157.395 189.239 156.422 188.897 155.291C188.555 154.16 188.384 152.903 188.384 151.519C188.384 149.672 188.685 148.064 189.288 146.697C189.898 145.322 190.834 144.256 192.095 143.499C193.357 142.742 194.96 142.364 196.905 142.364C198.842 142.364 200.433 142.742 201.678 143.499C202.931 144.256 203.859 145.322 204.461 146.697C205.071 148.073 205.376 149.688 205.376 151.543ZM192.352 151.543C192.352 152.789 192.506 153.863 192.815 154.766C193.133 155.661 193.625 156.353 194.292 156.841C194.96 157.321 195.822 157.562 196.88 157.562C197.955 157.562 198.825 157.321 199.493 156.841C200.16 156.353 200.644 155.661 200.945 154.766C201.255 153.863 201.409 152.789 201.409 151.543C201.409 149.672 201.059 148.199 200.359 147.125C199.66 146.05 198.508 145.513 196.905 145.513C195.839 145.513 194.968 145.757 194.292 146.246C193.625 146.726 193.133 147.417 192.815 148.321C192.506 149.216 192.352 150.29 192.352 151.543ZM223.602 142.645V154.192C223.602 155.421 223.329 156.532 222.784 157.525C222.247 158.51 221.429 159.291 220.33 159.869C219.24 160.446 217.864 160.735 216.204 160.735C213.844 160.735 212.046 160.133 210.809 158.929C209.572 157.724 208.953 156.129 208.953 154.144V142.645H212.725V153.57C212.725 155.043 213.026 156.076 213.628 156.67C214.231 157.264 215.122 157.562 216.302 157.562C217.132 157.562 217.803 157.419 218.316 157.134C218.837 156.849 219.219 156.41 219.463 155.816C219.708 155.222 219.83 154.465 219.83 153.545V142.645H223.602ZM233.172 142.645C234.791 142.645 236.126 142.84 237.176 143.23C238.234 143.621 239.019 144.211 239.532 145C240.044 145.79 240.301 146.787 240.301 147.991C240.301 148.805 240.146 149.517 239.837 150.127C239.528 150.738 239.121 151.255 238.616 151.678C238.112 152.101 237.566 152.447 236.98 152.715L242.229 160.491H238.03L233.77 153.643H231.756V160.491H227.972V142.645H233.172ZM232.903 145.745H231.756V150.567H232.977C234.23 150.567 235.125 150.359 235.662 149.944C236.207 149.521 236.48 148.903 236.48 148.089C236.48 147.243 236.187 146.64 235.601 146.282C235.023 145.924 234.124 145.745 232.903 145.745ZM255.01 155.535C255.01 156.593 254.754 157.513 254.241 158.294C253.729 159.075 252.98 159.677 251.995 160.101C251.019 160.524 249.83 160.735 248.431 160.735C247.812 160.735 247.206 160.695 246.612 160.613C246.026 160.532 245.46 160.414 244.915 160.259C244.378 160.097 243.865 159.897 243.377 159.661V156.146C244.223 156.52 245.102 156.858 246.014 157.159C246.925 157.46 247.828 157.61 248.724 157.61C249.342 157.61 249.839 157.529 250.213 157.366C250.595 157.203 250.872 156.98 251.043 156.695C251.214 156.41 251.299 156.084 251.299 155.718C251.299 155.271 251.149 154.888 250.848 154.571C250.547 154.253 250.132 153.956 249.603 153.68C249.082 153.403 248.492 153.106 247.833 152.789C247.417 152.593 246.966 152.357 246.478 152.081C245.989 151.796 245.525 151.45 245.086 151.043C244.646 150.636 244.284 150.144 244 149.566C243.723 148.98 243.584 148.28 243.584 147.466C243.584 146.4 243.829 145.489 244.317 144.732C244.805 143.975 245.501 143.397 246.404 142.999C247.316 142.592 248.39 142.388 249.627 142.388C250.555 142.388 251.438 142.498 252.276 142.718C253.122 142.929 254.005 143.239 254.925 143.646L253.704 146.587C252.882 146.254 252.146 145.997 251.495 145.818C250.844 145.631 250.18 145.538 249.505 145.538C249.033 145.538 248.63 145.615 248.296 145.77C247.963 145.916 247.71 146.128 247.54 146.404C247.369 146.673 247.283 146.986 247.283 147.344C247.283 147.767 247.405 148.125 247.649 148.418C247.902 148.703 248.276 148.98 248.772 149.249C249.277 149.517 249.904 149.83 250.652 150.188C251.564 150.62 252.341 151.071 252.984 151.543C253.635 152.007 254.135 152.557 254.485 153.191C254.835 153.818 255.01 154.599 255.01 155.535ZM268.523 160.491H258.245V142.645H268.523V145.745H262.029V149.664H268.072V152.764H262.029V157.366H268.523V160.491ZM272.259 160.491V142.645H276.043V157.366H283.282V160.491H272.259ZM290.118 160.491H286.395V142.645H296.624V145.745H290.118V150.347H296.172V153.436H290.118V160.491Z" fill="#49494A"/>
<line x1="347.843" y1="28.2266" x2="377.323" y2="28.2266" stroke="black" stroke-width="2"/>
<line x1="347.843" y1="34.8477" x2="377.323" y2="34.8477" stroke="black" stroke-width="2"/>
<line x1="347.843" y1="41.7559" x2="377.323" y2="41.7559" stroke="black" stroke-width="2"/>
<path d="M92.2695 192.939L89.2305 181.486H90.7852L92.5273 188.994C92.7148 189.781 92.8763 190.562 93.0117 191.338C93.3034 190.114 93.4753 189.408 93.5273 189.221L95.707 181.486H97.5352L99.1758 187.283C99.5872 188.721 99.8841 190.072 100.066 191.338C100.212 190.614 100.402 189.783 100.637 188.846L102.434 181.486H103.957L100.816 192.939H99.3555L96.9414 184.213C96.7383 183.484 96.6185 183.036 96.582 182.869C96.4622 183.395 96.3503 183.843 96.2461 184.213L93.8164 192.939H92.2695ZM105.199 192.939V181.486H106.605V185.596C107.262 184.835 108.09 184.455 109.09 184.455C109.704 184.455 110.238 184.577 110.691 184.822C111.145 185.062 111.467 185.395 111.66 185.822C111.858 186.249 111.957 186.869 111.957 187.682V192.939H110.551V187.682C110.551 186.979 110.397 186.468 110.09 186.15C109.788 185.827 109.358 185.666 108.801 185.666C108.384 185.666 107.991 185.775 107.621 185.994C107.257 186.208 106.996 186.499 106.84 186.869C106.684 187.239 106.605 187.749 106.605 188.4V192.939H105.199ZM119.52 191.916C118.999 192.359 118.496 192.671 118.012 192.854C117.533 193.036 117.017 193.127 116.465 193.127C115.553 193.127 114.853 192.906 114.363 192.463C113.874 192.015 113.629 191.445 113.629 190.752C113.629 190.346 113.72 189.976 113.902 189.643C114.09 189.304 114.332 189.033 114.629 188.83C114.931 188.627 115.27 188.473 115.645 188.369C115.921 188.296 116.337 188.226 116.895 188.158C118.03 188.023 118.866 187.861 119.402 187.674C119.408 187.481 119.41 187.359 119.41 187.307C119.41 186.734 119.277 186.33 119.012 186.096C118.652 185.778 118.118 185.619 117.41 185.619C116.749 185.619 116.259 185.736 115.941 185.971C115.629 186.2 115.397 186.609 115.246 187.197L113.871 187.01C113.996 186.421 114.202 185.947 114.488 185.588C114.775 185.223 115.189 184.945 115.73 184.752C116.272 184.554 116.9 184.455 117.613 184.455C118.322 184.455 118.897 184.538 119.34 184.705C119.783 184.872 120.108 185.083 120.316 185.338C120.525 185.588 120.671 185.906 120.754 186.291C120.801 186.531 120.824 186.963 120.824 187.588V189.463C120.824 190.77 120.853 191.598 120.91 191.947C120.973 192.291 121.092 192.622 121.27 192.939H119.801C119.655 192.648 119.561 192.307 119.52 191.916ZM119.402 188.775C118.892 188.984 118.126 189.161 117.105 189.307C116.527 189.39 116.118 189.484 115.879 189.588C115.639 189.692 115.454 189.846 115.324 190.049C115.194 190.247 115.129 190.468 115.129 190.713C115.129 191.088 115.27 191.4 115.551 191.65C115.837 191.9 116.254 192.025 116.801 192.025C117.342 192.025 117.824 191.908 118.246 191.674C118.668 191.434 118.978 191.109 119.176 190.697C119.327 190.38 119.402 189.911 119.402 189.291V188.775ZM126.082 191.682L126.285 192.924C125.889 193.007 125.535 193.049 125.223 193.049C124.712 193.049 124.316 192.968 124.035 192.807C123.754 192.645 123.556 192.434 123.441 192.174C123.327 191.908 123.27 191.354 123.27 190.51V185.736H122.238V184.643H123.27V182.588L124.668 181.744V184.643H126.082V185.736H124.668V190.588C124.668 190.989 124.691 191.247 124.738 191.361C124.79 191.476 124.871 191.567 124.98 191.635C125.095 191.702 125.257 191.736 125.465 191.736C125.621 191.736 125.827 191.718 126.082 191.682ZM137.301 192.939V191.893C136.775 192.715 136.001 193.127 134.98 193.127C134.319 193.127 133.71 192.945 133.152 192.58C132.6 192.215 132.171 191.708 131.863 191.057C131.561 190.4 131.41 189.648 131.41 188.799C131.41 187.971 131.548 187.221 131.824 186.549C132.1 185.872 132.514 185.354 133.066 184.994C133.618 184.635 134.236 184.455 134.918 184.455C135.418 184.455 135.863 184.562 136.254 184.775C136.645 184.984 136.962 185.257 137.207 185.596V181.486H138.605V192.939H137.301ZM132.855 188.799C132.855 189.861 133.079 190.656 133.527 191.182C133.975 191.708 134.504 191.971 135.113 191.971C135.728 191.971 136.249 191.721 136.676 191.221C137.108 190.715 137.324 189.947 137.324 188.916C137.324 187.781 137.105 186.947 136.668 186.416C136.23 185.885 135.691 185.619 135.051 185.619C134.426 185.619 133.902 185.874 133.48 186.385C133.064 186.895 132.855 187.7 132.855 188.799ZM140.301 188.791C140.301 187.255 140.728 186.117 141.582 185.377C142.296 184.762 143.165 184.455 144.191 184.455C145.332 184.455 146.264 184.83 146.988 185.58C147.712 186.325 148.074 187.356 148.074 188.674C148.074 189.742 147.913 190.583 147.59 191.197C147.272 191.807 146.806 192.281 146.191 192.619C145.582 192.958 144.915 193.127 144.191 193.127C143.03 193.127 142.09 192.755 141.371 192.01C140.658 191.265 140.301 190.192 140.301 188.791ZM141.746 188.791C141.746 189.854 141.978 190.65 142.441 191.182C142.905 191.708 143.488 191.971 144.191 191.971C144.889 191.971 145.47 191.705 145.934 191.174C146.397 190.643 146.629 189.833 146.629 188.744C146.629 187.718 146.395 186.942 145.926 186.416C145.462 185.885 144.884 185.619 144.191 185.619C143.488 185.619 142.905 185.882 142.441 186.408C141.978 186.934 141.746 187.729 141.746 188.791ZM155.41 190.268L156.863 190.447C156.634 191.296 156.21 191.955 155.59 192.424C154.97 192.893 154.178 193.127 153.215 193.127C152.001 193.127 151.038 192.755 150.324 192.01C149.616 191.26 149.262 190.21 149.262 188.861C149.262 187.465 149.621 186.382 150.34 185.611C151.059 184.84 151.991 184.455 153.137 184.455C154.246 184.455 155.152 184.833 155.855 185.588C156.559 186.343 156.91 187.406 156.91 188.775C156.91 188.859 156.908 188.984 156.902 189.15H150.715C150.767 190.062 151.025 190.76 151.488 191.244C151.952 191.729 152.53 191.971 153.223 191.971C153.738 191.971 154.178 191.835 154.543 191.564C154.908 191.294 155.197 190.861 155.41 190.268ZM150.793 187.994H155.426C155.363 187.296 155.186 186.773 154.895 186.424C154.447 185.882 153.866 185.611 153.152 185.611C152.507 185.611 151.962 185.827 151.52 186.26C151.082 186.692 150.84 187.27 150.793 187.994ZM158.074 190.463L159.465 190.244C159.543 190.801 159.759 191.229 160.113 191.525C160.473 191.822 160.973 191.971 161.613 191.971C162.259 191.971 162.738 191.84 163.051 191.58C163.363 191.314 163.52 191.005 163.52 190.65C163.52 190.333 163.382 190.083 163.105 189.9C162.913 189.775 162.434 189.617 161.668 189.424C160.637 189.163 159.921 188.939 159.52 188.752C159.124 188.559 158.822 188.296 158.613 187.963C158.41 187.624 158.309 187.252 158.309 186.846C158.309 186.476 158.392 186.135 158.559 185.822C158.73 185.505 158.962 185.242 159.254 185.033C159.473 184.872 159.77 184.736 160.145 184.627C160.525 184.512 160.931 184.455 161.363 184.455C162.014 184.455 162.585 184.549 163.074 184.736C163.569 184.924 163.934 185.179 164.168 185.502C164.402 185.82 164.564 186.247 164.652 186.783L163.277 186.971C163.215 186.544 163.033 186.21 162.73 185.971C162.434 185.731 162.012 185.611 161.465 185.611C160.819 185.611 160.358 185.718 160.082 185.932C159.806 186.145 159.668 186.395 159.668 186.682C159.668 186.864 159.725 187.028 159.84 187.174C159.954 187.325 160.134 187.45 160.379 187.549C160.52 187.601 160.934 187.721 161.621 187.908C162.616 188.174 163.309 188.393 163.699 188.564C164.095 188.731 164.405 188.976 164.629 189.299C164.853 189.622 164.965 190.023 164.965 190.502C164.965 190.971 164.827 191.413 164.551 191.83C164.28 192.242 163.887 192.562 163.371 192.791C162.855 193.015 162.272 193.127 161.621 193.127C160.543 193.127 159.72 192.903 159.152 192.455C158.59 192.007 158.23 191.343 158.074 190.463ZM171.199 192.939V181.486H179.691V183.424H173.512V185.963H179.262V187.893H173.512V191.01H179.91V192.939H171.199ZM181.652 193.486L184.16 193.791C184.202 194.083 184.298 194.283 184.449 194.393C184.658 194.549 184.986 194.627 185.434 194.627C186.007 194.627 186.436 194.541 186.723 194.369C186.915 194.255 187.061 194.07 187.16 193.814C187.228 193.632 187.262 193.296 187.262 192.807V191.596C186.605 192.492 185.777 192.939 184.777 192.939C183.663 192.939 182.78 192.468 182.129 191.525C181.618 190.781 181.363 189.854 181.363 188.744C181.363 187.354 181.697 186.291 182.363 185.557C183.035 184.822 183.868 184.455 184.863 184.455C185.889 184.455 186.736 184.906 187.402 185.807V184.643H189.457V192.088C189.457 193.067 189.376 193.799 189.215 194.283C189.053 194.768 188.827 195.148 188.535 195.424C188.243 195.7 187.853 195.916 187.363 196.072C186.879 196.229 186.264 196.307 185.52 196.307C184.113 196.307 183.116 196.064 182.527 195.58C181.939 195.101 181.645 194.492 181.645 193.752C181.645 193.679 181.647 193.59 181.652 193.486ZM183.613 188.619C183.613 189.499 183.783 190.145 184.121 190.557C184.465 190.963 184.887 191.166 185.387 191.166C185.923 191.166 186.376 190.958 186.746 190.541C187.116 190.119 187.301 189.497 187.301 188.674C187.301 187.814 187.124 187.176 186.77 186.76C186.415 186.343 185.967 186.135 185.426 186.135C184.9 186.135 184.465 186.34 184.121 186.752C183.783 187.158 183.613 187.781 183.613 188.619ZM196.441 190.299L198.629 190.666C198.348 191.468 197.902 192.08 197.293 192.502C196.689 192.919 195.931 193.127 195.02 193.127C193.577 193.127 192.509 192.656 191.816 191.713C191.27 190.958 190.996 190.005 190.996 188.854C190.996 187.479 191.355 186.403 192.074 185.627C192.793 184.846 193.702 184.455 194.801 184.455C196.035 184.455 197.009 184.864 197.723 185.682C198.436 186.494 198.777 187.742 198.746 189.424H193.246C193.262 190.075 193.439 190.583 193.777 190.947C194.116 191.307 194.538 191.486 195.043 191.486C195.387 191.486 195.676 191.393 195.91 191.205C196.145 191.018 196.322 190.715 196.441 190.299ZM196.566 188.08C196.551 187.445 196.387 186.963 196.074 186.635C195.762 186.301 195.382 186.135 194.934 186.135C194.454 186.135 194.059 186.309 193.746 186.658C193.434 187.007 193.28 187.481 193.285 188.08H196.566ZM204.348 184.643V186.393H202.848V189.736C202.848 190.413 202.861 190.809 202.887 190.924C202.918 191.033 202.983 191.124 203.082 191.197C203.186 191.27 203.311 191.307 203.457 191.307C203.66 191.307 203.954 191.236 204.34 191.096L204.527 192.799C204.017 193.018 203.439 193.127 202.793 193.127C202.397 193.127 202.04 193.062 201.723 192.932C201.405 192.796 201.171 192.624 201.02 192.416C200.874 192.202 200.772 191.916 200.715 191.557C200.668 191.301 200.645 190.786 200.645 190.01V186.393H199.637V184.643H200.645V182.994L202.848 181.713V184.643H204.348ZM215.129 190.299L217.316 190.666C217.035 191.468 216.59 192.08 215.98 192.502C215.376 192.919 214.618 193.127 213.707 193.127C212.264 193.127 211.197 192.656 210.504 191.713C209.957 190.958 209.684 190.005 209.684 188.854C209.684 187.479 210.043 186.403 210.762 185.627C211.48 184.846 212.389 184.455 213.488 184.455C214.723 184.455 215.697 184.864 216.41 185.682C217.124 186.494 217.465 187.742 217.434 189.424H211.934C211.949 190.075 212.126 190.583 212.465 190.947C212.803 191.307 213.225 191.486 213.73 191.486C214.074 191.486 214.363 191.393 214.598 191.205C214.832 191.018 215.009 190.715 215.129 190.299ZM215.254 188.08C215.238 187.445 215.074 186.963 214.762 186.635C214.449 186.301 214.069 186.135 213.621 186.135C213.142 186.135 212.746 186.309 212.434 186.658C212.121 187.007 211.967 187.481 211.973 188.08H215.254ZM218.457 190.572L220.66 190.236C220.754 190.663 220.944 190.989 221.23 191.213C221.517 191.432 221.918 191.541 222.434 191.541C223.001 191.541 223.428 191.437 223.715 191.229C223.908 191.083 224.004 190.887 224.004 190.643C224.004 190.476 223.952 190.338 223.848 190.229C223.738 190.124 223.493 190.028 223.113 189.939C221.342 189.549 220.22 189.192 219.746 188.869C219.09 188.421 218.762 187.799 218.762 187.002C218.762 186.283 219.046 185.679 219.613 185.189C220.181 184.7 221.061 184.455 222.254 184.455C223.389 184.455 224.233 184.64 224.785 185.01C225.337 185.38 225.717 185.926 225.926 186.65L223.855 187.033C223.767 186.71 223.598 186.463 223.348 186.291C223.103 186.119 222.751 186.033 222.293 186.033C221.715 186.033 221.301 186.114 221.051 186.275C220.884 186.39 220.801 186.538 220.801 186.721C220.801 186.877 220.874 187.01 221.02 187.119C221.217 187.265 221.9 187.471 223.066 187.736C224.238 188.002 225.056 188.327 225.52 188.713C225.978 189.104 226.207 189.648 226.207 190.346C226.207 191.106 225.889 191.76 225.254 192.307C224.618 192.854 223.678 193.127 222.434 193.127C221.303 193.127 220.408 192.898 219.746 192.439C219.09 191.981 218.66 191.359 218.457 190.572ZM231.941 184.643V186.393H230.441V189.736C230.441 190.413 230.454 190.809 230.48 190.924C230.512 191.033 230.577 191.124 230.676 191.197C230.78 191.27 230.905 191.307 231.051 191.307C231.254 191.307 231.548 191.236 231.934 191.096L232.121 192.799C231.611 193.018 231.033 193.127 230.387 193.127C229.991 193.127 229.634 193.062 229.316 192.932C228.999 192.796 228.764 192.624 228.613 192.416C228.467 192.202 228.366 191.916 228.309 191.557C228.262 191.301 228.238 190.786 228.238 190.01V186.393H227.23V184.643H228.238V182.994L230.441 181.713V184.643H231.941ZM237.918 192.939V181.486H240.113V192.939H237.918ZM241.863 188.674C241.863 187.945 242.043 187.239 242.402 186.557C242.762 185.874 243.27 185.354 243.926 184.994C244.587 184.635 245.324 184.455 246.137 184.455C247.392 184.455 248.421 184.864 249.223 185.682C250.025 186.494 250.426 187.523 250.426 188.768C250.426 190.023 250.02 191.064 249.207 191.893C248.4 192.715 247.382 193.127 246.152 193.127C245.392 193.127 244.665 192.955 243.973 192.611C243.285 192.268 242.762 191.765 242.402 191.104C242.043 190.437 241.863 189.627 241.863 188.674ZM244.113 188.791C244.113 189.614 244.309 190.244 244.699 190.682C245.09 191.119 245.572 191.338 246.145 191.338C246.717 191.338 247.197 191.119 247.582 190.682C247.973 190.244 248.168 189.609 248.168 188.775C248.168 187.963 247.973 187.338 247.582 186.9C247.197 186.463 246.717 186.244 246.145 186.244C245.572 186.244 245.09 186.463 244.699 186.9C244.309 187.338 244.113 187.968 244.113 188.791ZM254.254 192.939H252.059V184.643H254.098V185.822C254.447 185.265 254.759 184.898 255.035 184.721C255.316 184.544 255.634 184.455 255.988 184.455C256.488 184.455 256.97 184.593 257.434 184.869L256.754 186.783C256.384 186.544 256.04 186.424 255.723 186.424C255.415 186.424 255.155 186.51 254.941 186.682C254.728 186.848 254.559 187.153 254.434 187.596C254.314 188.038 254.254 188.965 254.254 190.377V192.939ZM263.191 190.299L265.379 190.666C265.098 191.468 264.652 192.08 264.043 192.502C263.439 192.919 262.681 193.127 261.77 193.127C260.327 193.127 259.259 192.656 258.566 191.713C258.02 190.958 257.746 190.005 257.746 188.854C257.746 187.479 258.105 186.403 258.824 185.627C259.543 184.846 260.452 184.455 261.551 184.455C262.785 184.455 263.759 184.864 264.473 185.682C265.186 186.494 265.527 187.742 265.496 189.424H259.996C260.012 190.075 260.189 190.583 260.527 190.947C260.866 191.307 261.288 191.486 261.793 191.486C262.137 191.486 262.426 191.393 262.66 191.205C262.895 191.018 263.072 190.715 263.191 190.299ZM263.316 188.08C263.301 187.445 263.137 186.963 262.824 186.635C262.512 186.301 262.132 186.135 261.684 186.135C261.204 186.135 260.809 186.309 260.496 186.658C260.184 187.007 260.03 187.481 260.035 188.08H263.316ZM267.129 184.643H269.152V185.775C269.876 184.895 270.738 184.455 271.738 184.455C272.27 184.455 272.73 184.564 273.121 184.783C273.512 185.002 273.832 185.333 274.082 185.775C274.447 185.333 274.84 185.002 275.262 184.783C275.684 184.564 276.134 184.455 276.613 184.455C277.223 184.455 277.738 184.58 278.16 184.83C278.582 185.075 278.897 185.437 279.105 185.916C279.257 186.27 279.332 186.843 279.332 187.635V192.939H277.137V188.197C277.137 187.374 277.061 186.843 276.91 186.604C276.707 186.291 276.395 186.135 275.973 186.135C275.665 186.135 275.376 186.229 275.105 186.416C274.835 186.604 274.639 186.88 274.52 187.244C274.4 187.604 274.34 188.174 274.34 188.955V192.939H272.145V188.393C272.145 187.585 272.105 187.064 272.027 186.83C271.949 186.596 271.827 186.421 271.66 186.307C271.499 186.192 271.277 186.135 270.996 186.135C270.658 186.135 270.353 186.226 270.082 186.408C269.811 186.59 269.616 186.854 269.496 187.197C269.382 187.541 269.324 188.111 269.324 188.908V192.939H267.129V184.643ZM285.887 192.939V184.643H287.145V185.807C287.405 185.4 287.751 185.075 288.184 184.83C288.616 184.58 289.108 184.455 289.66 184.455C290.275 184.455 290.777 184.583 291.168 184.838C291.564 185.093 291.842 185.45 292.004 185.908C292.66 184.939 293.514 184.455 294.566 184.455C295.389 184.455 296.022 184.684 296.465 185.143C296.908 185.596 297.129 186.296 297.129 187.244V192.939H295.73V187.713C295.73 187.15 295.684 186.747 295.59 186.502C295.501 186.252 295.337 186.051 295.098 185.9C294.858 185.749 294.577 185.674 294.254 185.674C293.671 185.674 293.186 185.869 292.801 186.26C292.415 186.645 292.223 187.265 292.223 188.119V192.939H290.816V187.549C290.816 186.924 290.702 186.455 290.473 186.143C290.243 185.83 289.868 185.674 289.348 185.674C288.952 185.674 288.585 185.778 288.246 185.986C287.913 186.195 287.671 186.499 287.52 186.9C287.368 187.301 287.293 187.88 287.293 188.635V192.939H285.887ZM304.895 190.268L306.348 190.447C306.118 191.296 305.694 191.955 305.074 192.424C304.454 192.893 303.663 193.127 302.699 193.127C301.486 193.127 300.522 192.755 299.809 192.01C299.1 191.26 298.746 190.21 298.746 188.861C298.746 187.465 299.105 186.382 299.824 185.611C300.543 184.84 301.475 184.455 302.621 184.455C303.73 184.455 304.637 184.833 305.34 185.588C306.043 186.343 306.395 187.406 306.395 188.775C306.395 188.859 306.392 188.984 306.387 189.15H300.199C300.251 190.062 300.509 190.76 300.973 191.244C301.436 191.729 302.014 191.971 302.707 191.971C303.223 191.971 303.663 191.835 304.027 191.564C304.392 191.294 304.681 190.861 304.895 190.268ZM300.277 187.994H304.91C304.848 187.296 304.671 186.773 304.379 186.424C303.931 185.882 303.35 185.611 302.637 185.611C301.991 185.611 301.447 185.827 301.004 186.26C300.566 186.692 300.324 187.27 300.277 187.994ZM313.535 191.916C313.014 192.359 312.512 192.671 312.027 192.854C311.548 193.036 311.033 193.127 310.48 193.127C309.569 193.127 308.868 192.906 308.379 192.463C307.889 192.015 307.645 191.445 307.645 190.752C307.645 190.346 307.736 189.976 307.918 189.643C308.105 189.304 308.348 189.033 308.645 188.83C308.947 188.627 309.285 188.473 309.66 188.369C309.936 188.296 310.353 188.226 310.91 188.158C312.046 188.023 312.882 187.861 313.418 187.674C313.423 187.481 313.426 187.359 313.426 187.307C313.426 186.734 313.293 186.33 313.027 186.096C312.668 185.778 312.134 185.619 311.426 185.619C310.764 185.619 310.275 185.736 309.957 185.971C309.645 186.2 309.413 186.609 309.262 187.197L307.887 187.01C308.012 186.421 308.217 185.947 308.504 185.588C308.79 185.223 309.204 184.945 309.746 184.752C310.288 184.554 310.915 184.455 311.629 184.455C312.337 184.455 312.913 184.538 313.355 184.705C313.798 184.872 314.124 185.083 314.332 185.338C314.54 185.588 314.686 185.906 314.77 186.291C314.816 186.531 314.84 186.963 314.84 187.588V189.463C314.84 190.77 314.868 191.598 314.926 191.947C314.988 192.291 315.108 192.622 315.285 192.939H313.816C313.671 192.648 313.577 192.307 313.535 191.916ZM313.418 188.775C312.908 188.984 312.142 189.161 311.121 189.307C310.543 189.39 310.134 189.484 309.895 189.588C309.655 189.692 309.47 189.846 309.34 190.049C309.21 190.247 309.145 190.468 309.145 190.713C309.145 191.088 309.285 191.4 309.566 191.65C309.853 191.9 310.27 192.025 310.816 192.025C311.358 192.025 311.84 191.908 312.262 191.674C312.684 191.434 312.993 191.109 313.191 190.697C313.342 190.38 313.418 189.911 313.418 189.291V188.775ZM317.027 192.939V184.643H318.293V185.822C318.902 184.911 319.783 184.455 320.934 184.455C321.434 184.455 321.892 184.546 322.309 184.729C322.73 184.906 323.046 185.14 323.254 185.432C323.462 185.723 323.608 186.07 323.691 186.471C323.743 186.731 323.77 187.187 323.77 187.838V192.939H322.363V187.893C322.363 187.32 322.309 186.893 322.199 186.611C322.09 186.325 321.895 186.098 321.613 185.932C321.337 185.76 321.012 185.674 320.637 185.674C320.038 185.674 319.52 185.864 319.082 186.244C318.65 186.624 318.434 187.346 318.434 188.408V192.939H317.027ZM328.566 190.119C328.561 189.932 328.559 189.791 328.559 189.697C328.559 189.145 328.637 188.669 328.793 188.268C328.908 187.965 329.092 187.661 329.348 187.354C329.535 187.13 329.871 186.804 330.355 186.377C330.845 185.945 331.163 185.601 331.309 185.346C331.454 185.09 331.527 184.812 331.527 184.51C331.527 183.963 331.314 183.484 330.887 183.072C330.46 182.656 329.936 182.447 329.316 182.447C328.717 182.447 328.217 182.635 327.816 183.01C327.415 183.385 327.152 183.971 327.027 184.768L325.582 184.596C325.712 183.528 326.098 182.71 326.738 182.143C327.384 181.575 328.236 181.291 329.293 181.291C330.413 181.291 331.306 181.596 331.973 182.205C332.639 182.814 332.973 183.551 332.973 184.416C332.973 184.916 332.855 185.377 332.621 185.799C332.387 186.221 331.928 186.734 331.246 187.338C330.788 187.744 330.488 188.044 330.348 188.236C330.207 188.429 330.103 188.65 330.035 188.9C329.967 189.15 329.928 189.557 329.918 190.119H328.566ZM328.48 192.939V191.338H330.082V192.939H328.48Z" fill="black"/>
<path d="M294.672 679.828C294.672 680.505 294.508 681.094 294.18 681.594C293.852 682.094 293.372 682.479 292.742 682.75C292.117 683.021 291.357 683.156 290.461 683.156C290.065 683.156 289.677 683.13 289.297 683.078C288.922 683.026 288.56 682.951 288.211 682.852C287.867 682.747 287.539 682.62 287.227 682.469V680.219C287.768 680.458 288.331 680.674 288.914 680.867C289.497 681.06 290.076 681.156 290.648 681.156C291.044 681.156 291.362 681.104 291.602 681C291.846 680.896 292.023 680.753 292.133 680.57C292.242 680.388 292.297 680.18 292.297 679.945C292.297 679.659 292.201 679.414 292.008 679.211C291.815 679.008 291.549 678.818 291.211 678.641C290.878 678.464 290.5 678.273 290.078 678.07C289.812 677.945 289.523 677.794 289.211 677.617C288.898 677.435 288.602 677.214 288.32 676.953C288.039 676.693 287.807 676.378 287.625 676.008C287.448 675.633 287.359 675.185 287.359 674.664C287.359 673.982 287.516 673.398 287.828 672.914C288.141 672.43 288.586 672.06 289.164 671.805C289.747 671.544 290.435 671.414 291.227 671.414C291.82 671.414 292.385 671.484 292.922 671.625C293.464 671.76 294.029 671.958 294.617 672.219L293.836 674.102C293.31 673.888 292.839 673.724 292.422 673.609C292.005 673.49 291.581 673.43 291.148 673.43C290.846 673.43 290.589 673.479 290.375 673.578C290.161 673.672 290 673.807 289.891 673.984C289.781 674.156 289.727 674.357 289.727 674.586C289.727 674.857 289.805 675.086 289.961 675.273C290.122 675.456 290.362 675.633 290.68 675.805C291.003 675.977 291.404 676.177 291.883 676.406C292.466 676.682 292.964 676.971 293.375 677.273C293.792 677.57 294.112 677.922 294.336 678.328C294.56 678.729 294.672 679.229 294.672 679.828ZM304.57 674.266V683H302.742L302.422 681.883H302.297C302.109 682.18 301.875 682.422 301.594 682.609C301.312 682.797 301.003 682.935 300.664 683.023C300.326 683.112 299.974 683.156 299.609 683.156C298.984 683.156 298.44 683.047 297.977 682.828C297.513 682.604 297.151 682.258 296.891 681.789C296.635 681.32 296.508 680.711 296.508 679.961V674.266H298.891V679.367C298.891 679.992 299.003 680.464 299.227 680.781C299.451 681.099 299.807 681.258 300.297 681.258C300.781 681.258 301.161 681.148 301.438 680.93C301.714 680.706 301.906 680.38 302.016 679.953C302.13 679.521 302.188 678.995 302.188 678.375V674.266H304.57ZM309.453 670.844V673.672C309.453 674 309.443 674.326 309.422 674.648C309.406 674.971 309.385 675.221 309.359 675.398H309.453C309.682 675.039 309.995 674.734 310.391 674.484C310.786 674.229 311.299 674.102 311.93 674.102C312.909 674.102 313.703 674.484 314.312 675.25C314.922 676.016 315.227 677.138 315.227 678.617C315.227 679.612 315.086 680.448 314.805 681.125C314.523 681.797 314.13 682.305 313.625 682.648C313.12 682.987 312.534 683.156 311.867 683.156C311.227 683.156 310.721 683.042 310.352 682.812C309.982 682.583 309.682 682.326 309.453 682.039H309.289L308.891 683H307.07V670.844H309.453ZM311.164 676.008C310.747 676.008 310.417 676.094 310.172 676.266C309.927 676.438 309.747 676.695 309.633 677.039C309.523 677.383 309.464 677.818 309.453 678.344V678.602C309.453 679.451 309.578 680.102 309.828 680.555C310.078 681.003 310.534 681.227 311.195 681.227C311.685 681.227 312.073 681 312.359 680.547C312.651 680.094 312.797 679.44 312.797 678.586C312.797 677.732 312.651 677.089 312.359 676.656C312.068 676.224 311.669 676.008 311.164 676.008ZM327.453 674.102C328.443 674.102 329.19 674.357 329.695 674.867C330.206 675.372 330.461 676.185 330.461 677.305V683H328.07V677.898C328.07 677.273 327.964 676.802 327.75 676.484C327.536 676.167 327.206 676.008 326.758 676.008C326.128 676.008 325.68 676.234 325.414 676.688C325.148 677.135 325.016 677.779 325.016 678.617V683H322.633V677.898C322.633 677.482 322.586 677.133 322.492 676.852C322.398 676.57 322.255 676.359 322.062 676.219C321.87 676.078 321.622 676.008 321.32 676.008C320.878 676.008 320.529 676.12 320.273 676.344C320.023 676.562 319.844 676.888 319.734 677.32C319.63 677.747 319.578 678.271 319.578 678.891V683H317.195V674.266H319.016L319.336 675.383H319.469C319.646 675.081 319.867 674.836 320.133 674.648C320.404 674.461 320.701 674.323 321.023 674.234C321.346 674.146 321.674 674.102 322.008 674.102C322.648 674.102 323.19 674.206 323.633 674.414C324.081 674.622 324.424 674.945 324.664 675.383H324.875C325.135 674.935 325.503 674.609 325.977 674.406C326.456 674.203 326.948 674.102 327.453 674.102ZM335.297 674.266V683H332.914V674.266H335.297ZM334.109 670.844C334.464 670.844 334.768 670.927 335.023 671.094C335.279 671.255 335.406 671.56 335.406 672.008C335.406 672.451 335.279 672.758 335.023 672.93C334.768 673.096 334.464 673.18 334.109 673.18C333.75 673.18 333.443 673.096 333.188 672.93C332.938 672.758 332.812 672.451 332.812 672.008C332.812 671.56 332.938 671.255 333.188 671.094C333.443 670.927 333.75 670.844 334.109 670.844ZM341.484 681.258C341.745 681.258 341.997 681.232 342.242 681.18C342.492 681.128 342.74 681.062 342.984 680.984V682.758C342.729 682.872 342.411 682.966 342.031 683.039C341.656 683.117 341.245 683.156 340.797 683.156C340.276 683.156 339.807 683.073 339.391 682.906C338.979 682.734 338.654 682.44 338.414 682.023C338.18 681.602 338.062 681.016 338.062 680.266V676.055H336.922V675.047L338.234 674.25L338.922 672.406H340.445V674.266H342.891V676.055H340.445V680.266C340.445 680.599 340.539 680.849 340.727 681.016C340.919 681.177 341.172 681.258 341.484 681.258Z" fill="#495057"/>
<rect x="254" y="658" width="122" height="38" rx="3" stroke="#495057" stroke-width="2"/>
<rect x="32.4434" y="151.991" width="329.14" height="422.601" rx="7" fill="white" stroke="black" stroke-width="2"/>
<circle cx="196.58" cy="276.854" r="54.4199" stroke="#49494A" stroke-width="4"/>
<path d="M169.546 282.898L186.089 299.441C186.284 299.636 186.601 299.636 186.796 299.441L223.613 262.623" stroke="#4F4F4F" stroke-width="8" stroke-linecap="round"/>
<path d="M128.72 382.537L132.798 382.14C133.044 383.509 133.539 384.514 134.285 385.156C135.04 385.798 136.055 386.119 137.33 386.119C138.68 386.119 139.694 385.836 140.374 385.27C141.063 384.694 141.408 384.023 141.408 383.259C141.408 382.768 141.261 382.353 140.969 382.013C140.686 381.663 140.185 381.361 139.468 381.106C138.977 380.937 137.858 380.634 136.112 380.2C133.865 379.643 132.289 378.959 131.382 378.147C130.108 377.005 129.471 375.612 129.471 373.97C129.471 372.912 129.768 371.926 130.363 371.01C130.967 370.085 131.831 369.382 132.954 368.9C134.087 368.419 135.451 368.178 137.046 368.178C139.652 368.178 141.611 368.749 142.923 369.892C144.244 371.034 144.938 372.558 145.004 374.465L140.813 374.649C140.634 373.583 140.247 372.818 139.652 372.355C139.067 371.883 138.184 371.647 137.004 371.647C135.786 371.647 134.833 371.898 134.144 372.398C133.7 372.719 133.478 373.148 133.478 373.687C133.478 374.177 133.686 374.597 134.101 374.947C134.63 375.39 135.914 375.853 137.953 376.334C139.992 376.816 141.497 377.316 142.47 377.835C143.451 378.345 144.216 379.049 144.764 379.945C145.321 380.833 145.599 381.932 145.599 383.245C145.599 384.434 145.269 385.548 144.608 386.586C143.947 387.625 143.013 388.399 141.804 388.909C140.596 389.409 139.09 389.659 137.287 389.659C134.663 389.659 132.647 389.055 131.241 387.847C129.834 386.629 128.994 384.859 128.72 382.537ZM149.097 368.532H153.288V379.775C153.288 381.56 153.34 382.716 153.444 383.245C153.623 384.094 154.048 384.779 154.718 385.298C155.398 385.808 156.323 386.062 157.494 386.062C158.683 386.062 159.58 385.822 160.184 385.34C160.788 384.849 161.152 384.25 161.274 383.542C161.397 382.834 161.458 381.659 161.458 380.016V368.532H165.65V379.436C165.65 381.928 165.537 383.688 165.31 384.717C165.083 385.746 164.663 386.615 164.05 387.323C163.446 388.031 162.634 388.597 161.614 389.022C160.595 389.437 159.264 389.645 157.621 389.645C155.639 389.645 154.133 389.418 153.104 388.965C152.084 388.503 151.277 387.908 150.683 387.181C150.088 386.445 149.696 385.675 149.507 384.873C149.234 383.684 149.097 381.928 149.097 379.605V368.532ZM183.364 381.659L187.428 382.947C186.805 385.213 185.767 386.898 184.313 388.002C182.869 389.097 181.033 389.645 178.805 389.645C176.048 389.645 173.783 388.706 172.008 386.827C170.233 384.939 169.346 382.362 169.346 379.096C169.346 375.641 170.238 372.96 172.022 371.053C173.806 369.136 176.152 368.178 179.06 368.178C181.599 368.178 183.662 368.929 185.248 370.43C186.192 371.317 186.9 372.591 187.372 374.253L183.223 375.244C182.977 374.168 182.463 373.318 181.679 372.695C180.905 372.072 179.961 371.761 178.847 371.761C177.308 371.761 176.058 372.313 175.095 373.417C174.141 374.522 173.665 376.311 173.665 378.784C173.665 381.409 174.137 383.278 175.081 384.392C176.025 385.506 177.252 386.062 178.762 386.062C179.876 386.062 180.834 385.708 181.637 385C182.439 384.292 183.015 383.179 183.364 381.659ZM204.321 381.659L208.385 382.947C207.762 385.213 206.724 386.898 205.27 388.002C203.826 389.097 201.99 389.645 199.762 389.645C197.005 389.645 194.74 388.706 192.965 386.827C191.19 384.939 190.303 382.362 190.303 379.096C190.303 375.641 191.195 372.96 192.979 371.053C194.763 369.136 197.109 368.178 200.017 368.178C202.556 368.178 204.619 368.929 206.205 370.43C207.149 371.317 207.857 372.591 208.329 374.253L204.18 375.244C203.934 374.168 203.42 373.318 202.636 372.695C201.862 372.072 200.918 371.761 199.804 371.761C198.265 371.761 197.015 372.313 196.052 373.417C195.098 374.522 194.622 376.311 194.622 378.784C194.622 381.409 195.094 383.278 196.038 384.392C196.982 385.506 198.209 386.062 199.719 386.062C200.833 386.062 201.791 385.708 202.594 385C203.396 384.292 203.972 383.179 204.321 381.659ZM211.996 389.291V368.532H227.388V372.044H216.188V376.646H226.609V380.144H216.188V385.793H227.785V389.291H211.996ZM230.277 382.537L234.355 382.14C234.6 383.509 235.096 384.514 235.842 385.156C236.597 385.798 237.612 386.119 238.886 386.119C240.236 386.119 241.251 385.836 241.931 385.27C242.62 384.694 242.964 384.023 242.964 383.259C242.964 382.768 242.818 382.353 242.525 382.013C242.242 381.663 241.742 381.361 241.024 381.106C240.534 380.937 239.415 380.634 237.668 380.2C235.422 379.643 233.845 378.959 232.939 378.147C231.665 377.005 231.027 375.612 231.027 373.97C231.027 372.912 231.325 371.926 231.919 371.01C232.524 370.085 233.387 369.382 234.511 368.9C235.644 368.419 237.008 368.178 238.603 368.178C241.208 368.178 243.167 368.749 244.479 369.892C245.801 371.034 246.495 372.558 246.561 374.465L242.37 374.649C242.19 373.583 241.803 372.818 241.208 372.355C240.623 371.883 239.741 371.647 238.561 371.647C237.343 371.647 236.389 371.898 235.7 372.398C235.257 372.719 235.035 373.148 235.035 373.687C235.035 374.177 235.242 374.597 235.658 374.947C236.186 375.39 237.47 375.853 239.509 376.334C241.548 376.816 243.054 377.316 244.026 377.835C245.008 378.345 245.773 379.049 246.32 379.945C246.877 380.833 247.156 381.932 247.156 383.245C247.156 384.434 246.825 385.548 246.165 386.586C245.504 387.625 244.569 388.399 243.361 388.909C242.153 389.409 240.647 389.659 238.844 389.659C236.219 389.659 234.204 389.055 232.797 387.847C231.391 386.629 230.551 384.859 230.277 382.537ZM249.62 382.537L253.698 382.14C253.943 383.509 254.439 384.514 255.185 385.156C255.94 385.798 256.955 386.119 258.229 386.119C259.579 386.119 260.594 385.836 261.273 385.27C261.963 384.694 262.307 384.023 262.307 383.259C262.307 382.768 262.161 382.353 261.868 382.013C261.585 381.663 261.085 381.361 260.367 381.106C259.876 380.937 258.758 380.634 257.011 380.2C254.764 379.643 253.188 378.959 252.282 378.147C251.007 377.005 250.37 375.612 250.37 373.97C250.37 372.912 250.667 371.926 251.262 371.01C251.866 370.085 252.73 369.382 253.854 368.9C254.986 368.419 256.35 368.178 257.946 368.178C260.551 368.178 262.51 368.749 263.822 369.892C265.144 371.034 265.838 372.558 265.904 374.465L261.712 374.649C261.533 373.583 261.146 372.818 260.551 372.355C259.966 371.883 259.083 371.647 257.903 371.647C256.686 371.647 255.732 371.898 255.043 372.398C254.599 372.719 254.377 373.148 254.377 373.687C254.377 374.177 254.585 374.597 255 374.947C255.529 375.39 256.813 375.853 258.852 376.334C260.891 376.816 262.397 377.316 263.369 377.835C264.351 378.345 265.116 379.049 265.663 379.945C266.22 380.833 266.499 381.932 266.499 383.245C266.499 384.434 266.168 385.548 265.507 386.586C264.847 387.625 263.912 388.399 262.704 388.909C261.495 389.409 259.99 389.659 258.187 389.659C255.562 389.659 253.547 389.055 252.14 387.847C250.734 386.629 249.893 384.859 249.62 382.537ZM271.554 383.938L270.52 373.403V368.532H274.825V373.403L273.805 383.938H271.554ZM270.69 389.291V385.312H274.669V389.291H270.69Z" fill="#49494A"/>
<path d="M117.685 417.291V412.471L113.49 405.838H116.201L118.896 410.369L121.537 405.838H124.201L119.99 412.486V417.291H117.685ZM123.638 413.025C123.638 412.296 123.818 411.59 124.177 410.908C124.537 410.226 125.044 409.705 125.701 409.346C126.362 408.986 127.099 408.807 127.912 408.807C129.167 408.807 130.195 409.215 130.998 410.033C131.8 410.846 132.201 411.874 132.201 413.119C132.201 414.374 131.794 415.416 130.982 416.244C130.175 417.067 129.156 417.479 127.927 417.479C127.167 417.479 126.44 417.307 125.748 416.963C125.06 416.619 124.537 416.117 124.177 415.455C123.818 414.788 123.638 413.979 123.638 413.025ZM125.888 413.143C125.888 413.965 126.083 414.596 126.474 415.033C126.865 415.471 127.347 415.689 127.919 415.689C128.492 415.689 128.972 415.471 129.357 415.033C129.748 414.596 129.943 413.96 129.943 413.127C129.943 412.314 129.748 411.689 129.357 411.252C128.972 410.814 128.492 410.596 127.919 410.596C127.347 410.596 126.865 410.814 126.474 411.252C126.083 411.689 125.888 412.32 125.888 413.143ZM139.388 417.291V416.049C139.086 416.492 138.688 416.84 138.193 417.096C137.703 417.351 137.185 417.479 136.638 417.479C136.081 417.479 135.581 417.356 135.138 417.111C134.695 416.867 134.375 416.523 134.177 416.08C133.979 415.637 133.88 415.025 133.88 414.244V408.994H136.076V412.807C136.076 413.973 136.115 414.689 136.193 414.955C136.276 415.215 136.425 415.424 136.638 415.58C136.852 415.731 137.123 415.807 137.451 415.807C137.826 415.807 138.162 415.705 138.458 415.502C138.755 415.294 138.958 415.038 139.068 414.736C139.177 414.429 139.232 413.682 139.232 412.494V408.994H141.427V417.291H139.388ZM152.966 414.65L155.154 415.018C154.873 415.82 154.427 416.432 153.818 416.854C153.214 417.27 152.456 417.479 151.544 417.479C150.102 417.479 149.034 417.007 148.341 416.064C147.794 415.309 147.521 414.356 147.521 413.205C147.521 411.83 147.88 410.755 148.599 409.979C149.318 409.197 150.227 408.807 151.326 408.807C152.56 408.807 153.534 409.215 154.248 410.033C154.961 410.846 155.302 412.093 155.271 413.775H149.771C149.787 414.426 149.964 414.934 150.302 415.299C150.641 415.658 151.063 415.838 151.568 415.838C151.912 415.838 152.201 415.744 152.435 415.557C152.669 415.369 152.847 415.067 152.966 414.65ZM153.091 412.432C153.076 411.796 152.912 411.314 152.599 410.986C152.287 410.653 151.906 410.486 151.458 410.486C150.979 410.486 150.583 410.661 150.271 411.01C149.958 411.359 149.805 411.833 149.81 412.432H153.091ZM158.708 411.525L156.716 411.166C156.94 410.364 157.326 409.77 157.873 409.385C158.419 408.999 159.232 408.807 160.31 408.807C161.289 408.807 162.018 408.924 162.498 409.158C162.977 409.387 163.313 409.682 163.505 410.041C163.703 410.395 163.802 411.049 163.802 412.002L163.779 414.564C163.779 415.294 163.813 415.833 163.88 416.182C163.953 416.525 164.086 416.895 164.279 417.291H162.107C162.05 417.145 161.979 416.929 161.896 416.643C161.86 416.512 161.833 416.426 161.818 416.385C161.443 416.749 161.042 417.023 160.615 417.205C160.188 417.387 159.732 417.479 159.248 417.479C158.393 417.479 157.719 417.247 157.224 416.783C156.735 416.32 156.49 415.734 156.49 415.025C156.49 414.557 156.602 414.14 156.826 413.775C157.05 413.406 157.362 413.124 157.763 412.932C158.169 412.734 158.753 412.562 159.513 412.416C160.539 412.223 161.25 412.044 161.646 411.877V411.658C161.646 411.236 161.542 410.937 161.333 410.76C161.125 410.577 160.732 410.486 160.154 410.486C159.763 410.486 159.458 410.564 159.24 410.721C159.021 410.872 158.844 411.14 158.708 411.525ZM161.646 413.307C161.365 413.4 160.919 413.512 160.31 413.643C159.701 413.773 159.302 413.9 159.115 414.025C158.828 414.229 158.685 414.486 158.685 414.799C158.685 415.106 158.8 415.372 159.029 415.596C159.258 415.82 159.55 415.932 159.904 415.932C160.3 415.932 160.677 415.801 161.037 415.541C161.302 415.343 161.477 415.101 161.56 414.814C161.617 414.627 161.646 414.27 161.646 413.744V413.307ZM168.076 417.291H165.88V408.994H167.919V410.174C168.268 409.617 168.581 409.249 168.857 409.072C169.138 408.895 169.456 408.807 169.81 408.807C170.31 408.807 170.792 408.945 171.255 409.221L170.576 411.135C170.206 410.895 169.862 410.775 169.544 410.775C169.237 410.775 168.977 410.861 168.763 411.033C168.55 411.2 168.38 411.505 168.255 411.947C168.136 412.39 168.076 413.317 168.076 414.729V417.291ZM179.755 417.291H177.56V413.057C177.56 412.161 177.513 411.583 177.419 411.322C177.326 411.057 177.172 410.851 176.958 410.705C176.75 410.559 176.498 410.486 176.201 410.486C175.82 410.486 175.479 410.59 175.177 410.799C174.875 411.007 174.667 411.283 174.552 411.627C174.443 411.971 174.388 412.606 174.388 413.533V417.291H172.193V408.994H174.232V410.213C174.956 409.275 175.867 408.807 176.966 408.807C177.451 408.807 177.893 408.895 178.294 409.072C178.695 409.244 178.998 409.465 179.201 409.736C179.409 410.007 179.552 410.314 179.63 410.658C179.714 411.002 179.755 411.494 179.755 412.135V417.291ZM186.794 414.65L188.982 415.018C188.701 415.82 188.255 416.432 187.646 416.854C187.042 417.27 186.284 417.479 185.373 417.479C183.93 417.479 182.862 417.007 182.169 416.064C181.623 415.309 181.349 414.356 181.349 413.205C181.349 411.83 181.708 410.755 182.427 409.979C183.146 409.197 184.055 408.807 185.154 408.807C186.388 408.807 187.362 409.215 188.076 410.033C188.789 410.846 189.13 412.093 189.099 413.775H183.599C183.615 414.426 183.792 414.934 184.13 415.299C184.469 415.658 184.891 415.838 185.396 415.838C185.74 415.838 186.029 415.744 186.263 415.557C186.498 415.369 186.675 415.067 186.794 414.65ZM186.919 412.432C186.904 411.796 186.74 411.314 186.427 410.986C186.115 410.653 185.735 410.486 185.287 410.486C184.807 410.486 184.412 410.661 184.099 411.01C183.787 411.359 183.633 411.833 183.638 412.432H186.919ZM198.505 417.291H196.466V416.072C196.128 416.546 195.727 416.9 195.263 417.135C194.805 417.364 194.341 417.479 193.873 417.479C192.919 417.479 192.102 417.096 191.419 416.33C190.742 415.559 190.404 414.486 190.404 413.111C190.404 411.705 190.735 410.637 191.396 409.908C192.057 409.174 192.893 408.807 193.904 408.807C194.831 408.807 195.633 409.192 196.31 409.963V405.838H198.505V417.291ZM192.646 412.963C192.646 413.848 192.768 414.489 193.013 414.885C193.367 415.458 193.862 415.744 194.498 415.744C195.003 415.744 195.432 415.531 195.787 415.104C196.141 414.671 196.318 414.028 196.318 413.174C196.318 412.221 196.146 411.536 195.802 411.119C195.458 410.697 195.018 410.486 194.482 410.486C193.961 410.486 193.524 410.695 193.169 411.111C192.82 411.523 192.646 412.14 192.646 412.963ZM210.279 417.291H208.083V409.018C207.281 409.768 206.336 410.322 205.248 410.682V408.689C205.82 408.502 206.443 408.148 207.115 407.627C207.787 407.101 208.248 406.489 208.498 405.791H210.279V417.291ZM217.279 405.791C218.388 405.791 219.255 406.187 219.88 406.979C220.625 407.916 220.998 409.471 220.998 411.643C220.998 413.809 220.623 415.367 219.873 416.314C219.253 417.096 218.388 417.486 217.279 417.486C216.164 417.486 215.266 417.059 214.583 416.205C213.901 415.346 213.56 413.817 213.56 411.619C213.56 409.463 213.935 407.911 214.685 406.963C215.305 406.182 216.169 405.791 217.279 405.791ZM217.279 407.611C217.013 407.611 216.776 407.697 216.568 407.869C216.36 408.036 216.198 408.338 216.083 408.775C215.932 409.343 215.857 410.299 215.857 411.643C215.857 412.986 215.925 413.911 216.06 414.416C216.195 414.916 216.365 415.249 216.568 415.416C216.776 415.583 217.013 415.666 217.279 415.666C217.544 415.666 217.781 415.583 217.99 415.416C218.198 415.244 218.36 414.939 218.474 414.502C218.625 413.939 218.701 412.986 218.701 411.643C218.701 410.299 218.633 409.377 218.498 408.877C218.362 408.372 218.19 408.036 217.982 407.869C217.779 407.697 217.544 407.611 217.279 407.611ZM227.333 408.994H229.38V410.213C229.646 409.796 230.005 409.458 230.458 409.197C230.912 408.937 231.414 408.807 231.966 408.807C232.93 408.807 233.748 409.184 234.419 409.939C235.091 410.695 235.427 411.747 235.427 413.096C235.427 414.481 235.089 415.559 234.412 416.33C233.735 417.096 232.914 417.479 231.951 417.479C231.492 417.479 231.076 417.387 230.701 417.205C230.331 417.023 229.94 416.71 229.529 416.268V420.447H227.333V408.994ZM229.505 413.002C229.505 413.934 229.69 414.624 230.06 415.072C230.43 415.515 230.88 415.736 231.412 415.736C231.922 415.736 232.347 415.533 232.685 415.127C233.024 414.715 233.193 414.044 233.193 413.111C233.193 412.242 233.018 411.596 232.669 411.174C232.32 410.752 231.888 410.541 231.373 410.541C230.836 410.541 230.391 410.749 230.037 411.166C229.682 411.577 229.505 412.189 229.505 413.002ZM236.669 413.025C236.669 412.296 236.849 411.59 237.208 410.908C237.568 410.226 238.076 409.705 238.732 409.346C239.393 408.986 240.13 408.807 240.943 408.807C242.198 408.807 243.227 409.215 244.029 410.033C244.831 410.846 245.232 411.874 245.232 413.119C245.232 414.374 244.826 415.416 244.013 416.244C243.206 417.067 242.188 417.479 240.958 417.479C240.198 417.479 239.472 417.307 238.779 416.963C238.091 416.619 237.568 416.117 237.208 415.455C236.849 414.788 236.669 413.979 236.669 413.025ZM238.919 413.143C238.919 413.965 239.115 414.596 239.505 415.033C239.896 415.471 240.378 415.689 240.951 415.689C241.524 415.689 242.003 415.471 242.388 415.033C242.779 414.596 242.974 413.96 242.974 413.127C242.974 412.314 242.779 411.689 242.388 411.252C242.003 410.814 241.524 410.596 240.951 410.596C240.378 410.596 239.896 410.814 239.505 411.252C239.115 411.689 238.919 412.32 238.919 413.143ZM246.958 407.869V405.838H249.154V407.869H246.958ZM246.958 417.291V408.994H249.154V417.291H246.958ZM258.958 417.291H256.763V413.057C256.763 412.161 256.716 411.583 256.623 411.322C256.529 411.057 256.375 410.851 256.162 410.705C255.953 410.559 255.701 410.486 255.404 410.486C255.024 410.486 254.682 410.59 254.38 410.799C254.078 411.007 253.87 411.283 253.755 411.627C253.646 411.971 253.591 412.606 253.591 413.533V417.291H251.396V408.994H253.435V410.213C254.159 409.275 255.07 408.807 256.169 408.807C256.654 408.807 257.097 408.895 257.498 409.072C257.899 409.244 258.201 409.465 258.404 409.736C258.612 410.007 258.755 410.314 258.833 410.658C258.917 411.002 258.958 411.494 258.958 412.135V417.291ZM264.998 408.994V410.744H263.498V414.088C263.498 414.765 263.511 415.161 263.537 415.275C263.568 415.385 263.633 415.476 263.732 415.549C263.836 415.622 263.961 415.658 264.107 415.658C264.31 415.658 264.604 415.588 264.99 415.447L265.177 417.15C264.667 417.369 264.089 417.479 263.443 417.479C263.047 417.479 262.69 417.413 262.373 417.283C262.055 417.148 261.82 416.976 261.669 416.768C261.524 416.554 261.422 416.268 261.365 415.908C261.318 415.653 261.294 415.137 261.294 414.361V410.744H260.287V408.994H261.294V407.346L263.498 406.064V408.994H264.998ZM265.748 414.924L267.951 414.588C268.044 415.015 268.235 415.34 268.521 415.564C268.807 415.783 269.208 415.893 269.724 415.893C270.292 415.893 270.719 415.788 271.005 415.58C271.198 415.434 271.294 415.239 271.294 414.994C271.294 414.827 271.242 414.689 271.138 414.58C271.029 414.476 270.784 414.38 270.404 414.291C268.633 413.9 267.511 413.544 267.037 413.221C266.38 412.773 266.052 412.15 266.052 411.354C266.052 410.635 266.336 410.031 266.904 409.541C267.472 409.051 268.352 408.807 269.544 408.807C270.68 408.807 271.524 408.992 272.076 409.361C272.628 409.731 273.008 410.278 273.216 411.002L271.146 411.385C271.057 411.062 270.888 410.814 270.638 410.643C270.393 410.471 270.042 410.385 269.583 410.385C269.005 410.385 268.591 410.465 268.341 410.627C268.175 410.742 268.091 410.89 268.091 411.072C268.091 411.229 268.164 411.361 268.31 411.471C268.508 411.617 269.19 411.822 270.357 412.088C271.529 412.354 272.347 412.679 272.81 413.064C273.268 413.455 273.498 413.999 273.498 414.697C273.498 415.458 273.18 416.111 272.544 416.658C271.909 417.205 270.969 417.479 269.724 417.479C268.594 417.479 267.698 417.249 267.037 416.791C266.38 416.333 265.951 415.71 265.748 414.924ZM276.287 414.338L275.716 408.525V405.838H278.091V408.525L277.529 414.338H276.287ZM275.81 417.291V415.096H278.005V417.291H275.81Z" fill="#49494A"/>
</g>
<rect x="1.92236" y="1.74121" width="401.5" height="719.5" rx="6.75" stroke="black" stroke-width="2.5"/>
<defs>
<clipPath id="clip0_181_7172">
<rect x="0.672363" y="0.491211" width="404" height="722" rx="8" fill="white"/>
</clipPath>
</defs>
</svg>
