<svg width="405" height="723" viewBox="0 0 405 723" fill="none" xmlns="http://www.w3.org/2000/svg">
<g clip-path="url(#clip0_171_7037)">
<rect x="0.86084" y="0.513672" width="404" height="722" rx="8" fill="white"/>
<path d="M1.86084 8.51367C1.86084 4.64768 4.99485 1.51367 8.86084 1.51367H446.861C450.727 1.51367 453.861 4.64768 453.861 8.51367V70.5137H1.86084V8.51367Z" fill="white"/>
<path d="M1.86084 8.51367C1.86084 4.64768 4.99485 1.51367 8.86084 1.51367H446.861C450.727 1.51367 453.861 4.64768 453.861 8.51367V70.5137H1.86084V8.51367Z" stroke="#1B1D1F" stroke-width="2"/>
<path d="M142.882 152.542H149.962V161.794C149.026 162.104 148.054 162.352 147.044 162.539C146.035 162.718 144.892 162.808 143.614 162.808C141.84 162.808 140.335 162.458 139.098 161.758C137.861 161.058 136.921 160.024 136.278 158.657C135.635 157.29 135.313 155.61 135.313 153.616C135.313 151.744 135.672 150.125 136.388 148.757C137.112 147.39 138.166 146.332 139.549 145.583C140.941 144.835 142.638 144.46 144.64 144.46C145.584 144.46 146.515 144.562 147.435 144.766C148.355 144.969 149.189 145.234 149.938 145.559L148.68 148.586C148.135 148.31 147.512 148.078 146.812 147.891C146.113 147.703 145.38 147.61 144.615 147.61C143.517 147.61 142.56 147.862 141.747 148.367C140.941 148.871 140.314 149.579 139.867 150.491C139.427 151.394 139.208 152.46 139.208 153.689C139.208 154.853 139.366 155.886 139.684 156.79C140.001 157.685 140.501 158.389 141.185 158.901C141.869 159.406 142.76 159.658 143.858 159.658C144.396 159.658 144.847 159.634 145.213 159.585C145.588 159.528 145.938 159.471 146.263 159.414V155.691H142.882V152.542ZM159.422 144.717C161.042 144.717 162.376 144.912 163.426 145.303C164.484 145.693 165.27 146.283 165.782 147.073C166.295 147.862 166.551 148.859 166.551 150.063C166.551 150.877 166.397 151.589 166.087 152.2C165.778 152.81 165.371 153.327 164.867 153.75C164.362 154.173 163.817 154.519 163.231 154.788L168.48 162.563H164.281L160.021 155.715H158.006V162.563H154.222V144.717H159.422ZM159.154 147.817H158.006V152.639H159.227C160.48 152.639 161.375 152.432 161.913 152.017C162.458 151.593 162.73 150.975 162.73 150.161C162.73 149.315 162.438 148.713 161.852 148.354C161.274 147.996 160.375 147.817 159.154 147.817ZM181.004 162.563H170.726V144.717H181.004V147.817H174.51V151.736H180.553V154.836H174.51V159.438H181.004V162.563ZM195.018 162.563H184.74V144.717H195.018V147.817H188.524V151.736H194.566V154.836H188.524V159.438H195.018V162.563ZM205.638 162.563H201.854V147.866H197.008V144.717H210.484V147.866H205.638V162.563ZM213.231 162.563V144.717H217.015V162.563H213.231ZM237.34 162.563H232.53L224.767 149.062H224.657C224.689 149.624 224.718 150.19 224.742 150.759C224.767 151.329 224.791 151.899 224.815 152.468C224.84 153.03 224.864 153.595 224.889 154.165V162.563H221.507V144.717H226.28L234.032 158.083H234.117C234.101 157.53 234.081 156.981 234.056 156.436C234.032 155.89 234.007 155.345 233.983 154.8C233.967 154.255 233.95 153.709 233.934 153.164V144.717H237.34V162.563ZM248.619 152.542H255.699V161.794C254.763 162.104 253.791 162.352 252.782 162.539C251.773 162.718 250.629 162.808 249.352 162.808C247.577 162.808 246.072 162.458 244.835 161.758C243.598 161.058 242.658 160.024 242.015 158.657C241.372 157.29 241.051 155.61 241.051 153.616C241.051 151.744 241.409 150.125 242.125 148.757C242.849 147.39 243.903 146.332 245.287 145.583C246.678 144.835 248.375 144.46 250.377 144.46C251.321 144.46 252.253 144.562 253.172 144.766C254.092 144.969 254.926 145.234 255.675 145.559L254.417 148.586C253.872 148.31 253.25 148.078 252.55 147.891C251.85 147.703 251.118 147.61 250.353 147.61C249.254 147.61 248.298 147.862 247.484 148.367C246.678 148.871 246.052 149.579 245.604 150.491C245.165 151.394 244.945 152.46 244.945 153.689C244.945 154.853 245.104 155.886 245.421 156.79C245.738 157.685 246.239 158.389 246.922 158.901C247.606 159.406 248.497 159.658 249.596 159.658C250.133 159.658 250.584 159.634 250.951 159.585C251.325 159.528 251.675 159.471 252 159.414V155.691H248.619V152.542ZM270.494 157.607C270.494 158.665 270.238 159.585 269.725 160.366C269.212 161.147 268.464 161.75 267.479 162.173C266.502 162.596 265.314 162.808 263.915 162.808C263.296 162.808 262.69 162.767 262.096 162.686C261.51 162.604 260.944 162.486 260.399 162.332C259.862 162.169 259.349 161.969 258.861 161.733V158.218C259.707 158.592 260.586 158.93 261.498 159.231C262.409 159.532 263.312 159.683 264.208 159.683C264.826 159.683 265.322 159.601 265.697 159.438C266.079 159.276 266.356 159.052 266.527 158.767C266.698 158.482 266.783 158.157 266.783 157.791C266.783 157.343 266.633 156.96 266.332 156.643C266.03 156.326 265.615 156.029 265.086 155.752C264.566 155.475 263.976 155.178 263.316 154.861C262.901 154.666 262.45 154.43 261.961 154.153C261.473 153.868 261.009 153.522 260.57 153.115C260.13 152.708 259.768 152.216 259.483 151.638C259.207 151.052 259.068 150.352 259.068 149.539C259.068 148.472 259.312 147.561 259.801 146.804C260.289 146.047 260.985 145.47 261.888 145.071C262.8 144.664 263.874 144.46 265.111 144.46C266.039 144.46 266.922 144.57 267.76 144.79C268.606 145.002 269.489 145.311 270.409 145.718L269.188 148.66C268.366 148.326 267.63 148.07 266.979 147.891C266.327 147.703 265.664 147.61 264.989 147.61C264.517 147.61 264.114 147.687 263.78 147.842C263.447 147.988 263.194 148.2 263.023 148.477C262.853 148.745 262.767 149.058 262.767 149.417C262.767 149.84 262.889 150.198 263.133 150.491C263.386 150.776 263.76 151.052 264.256 151.321C264.761 151.589 265.388 151.903 266.136 152.261C267.048 152.692 267.825 153.144 268.468 153.616C269.119 154.08 269.619 154.629 269.969 155.264C270.319 155.89 270.494 156.672 270.494 157.607Z" fill="#49494A"/>
<line x1="348.031" y1="28.249" x2="377.512" y2="28.249" stroke="black" stroke-width="2"/>
<line x1="348.031" y1="34.8691" x2="377.512" y2="34.8691" stroke="black" stroke-width="2"/>
<line x1="348.031" y1="41.7783" x2="377.512" y2="41.7783" stroke="black" stroke-width="2"/>
<path d="M143.561 192.962H142.037V187.571H136.084V192.962H134.568V181.509H136.084V186.212H142.037V181.509H143.561V192.962ZM149.459 193.157C148.24 193.157 147.261 192.777 146.521 192.017C145.782 191.251 145.412 190.186 145.412 188.821C145.412 187.467 145.769 186.407 146.482 185.642C147.201 184.871 148.139 184.485 149.295 184.485C150.477 184.485 151.42 184.863 152.123 185.618C152.831 186.373 153.186 187.441 153.186 188.821V189.173H146.943C147.006 190.131 147.269 190.842 147.732 191.306C148.201 191.769 148.777 192.001 149.459 192.001C149.975 192.001 150.438 191.871 150.85 191.61C151.266 191.345 151.485 190.97 151.506 190.485H153.029C152.915 191.34 152.527 191.998 151.865 192.462C151.209 192.925 150.407 193.157 149.459 193.157ZM151.631 188.017C151.511 187.22 151.243 186.623 150.826 186.228C150.41 185.832 149.899 185.634 149.295 185.634C148.706 185.634 148.201 185.832 147.779 186.228C147.357 186.618 147.089 187.215 146.975 188.017H151.631ZM160.092 190.782V188.946H159.084C156.949 188.946 155.881 189.527 155.881 190.688C155.881 191.11 156.037 191.436 156.35 191.665C156.662 191.889 157.084 192.001 157.615 192.001C158.1 192.001 158.568 191.892 159.021 191.673C159.475 191.454 159.831 191.157 160.092 190.782ZM160.092 192.11C159.342 192.808 158.376 193.157 157.193 193.157C156.37 193.157 155.693 192.936 155.162 192.493C154.631 192.045 154.365 191.47 154.365 190.767C154.365 188.829 156.035 187.86 159.373 187.86H160.092C160.092 187.267 160.061 186.837 159.998 186.571C159.936 186.3 159.761 186.076 159.475 185.899C159.188 185.722 158.732 185.634 158.107 185.634C156.795 185.634 156.118 186.103 156.076 187.04H154.607C154.717 185.337 155.91 184.485 158.186 184.485C159.248 184.485 160.076 184.696 160.67 185.118C161.264 185.54 161.561 186.368 161.561 187.603V192.962H160.092V192.11ZM168.053 186.017C167.844 185.954 167.545 185.923 167.154 185.923C166.404 185.923 165.761 186.316 165.225 187.103V192.962H163.748V184.673H165.225V185.829C165.844 184.933 166.563 184.485 167.381 184.485C167.589 184.485 167.813 184.506 168.053 184.548V186.017ZM174.803 185.728C175.537 184.899 176.363 184.485 177.279 184.485C179.149 184.485 180.084 185.504 180.084 187.54V192.962H178.607V187.603C178.607 186.925 178.485 186.438 178.24 186.142C178.001 185.845 177.605 185.696 177.053 185.696C176.303 185.696 175.553 186.139 174.803 187.024V192.962H173.326V181.509H174.803V185.728ZM185.592 184.485C186.774 184.485 187.717 184.863 188.42 185.618C189.128 186.373 189.482 187.441 189.482 188.821C189.482 190.196 189.128 191.264 188.42 192.024C187.717 192.78 186.774 193.157 185.592 193.157C184.415 193.157 183.472 192.78 182.764 192.024C182.061 191.264 181.709 190.196 181.709 188.821C181.709 187.441 182.061 186.373 182.764 185.618C183.472 184.863 184.415 184.485 185.592 184.485ZM185.592 192.001C186.295 192.001 186.865 191.735 187.303 191.204C187.74 190.668 187.959 189.873 187.959 188.821C187.959 187.764 187.74 186.97 187.303 186.438C186.865 185.902 186.295 185.634 185.592 185.634C184.889 185.634 184.318 185.902 183.881 186.438C183.443 186.97 183.225 187.764 183.225 188.821C183.225 189.873 183.443 190.668 183.881 191.204C184.318 191.735 184.889 192.001 185.592 192.001ZM201.521 184.673L199.029 192.962H197.623L195.826 186.868L194.037 192.962H192.631L190.131 184.673H191.764L193.287 190.993L195.154 184.673H196.498L198.373 190.993L199.896 184.673H201.521ZM208.428 192.962H206.951V184.673H208.428V192.962ZM208.428 183.103H206.951V181.509H208.428V183.103ZM213.826 192.978C213.503 193.04 213.152 193.071 212.771 193.071C212.167 193.071 211.725 192.965 211.443 192.751C211.162 192.532 210.988 192.254 210.92 191.915C210.852 191.576 210.818 191.116 210.818 190.532V185.829H209.795V184.673H210.818V182.61H212.287V184.673H213.631V185.829H212.287V190.61C212.287 191.178 212.357 191.54 212.498 191.696C212.644 191.847 212.842 191.923 213.092 191.923C213.347 191.923 213.592 191.902 213.826 191.86V192.978ZM223.826 193.157C222.212 193.157 221.003 192.795 220.201 192.071C219.404 191.347 218.985 190.418 218.943 189.282H220.404C220.482 190.136 220.837 190.769 221.467 191.181C222.102 191.587 222.868 191.79 223.764 191.79C224.613 191.79 225.295 191.616 225.811 191.267C226.331 190.918 226.592 190.444 226.592 189.845C226.592 189.215 226.324 188.756 225.787 188.47C225.251 188.183 224.326 187.902 223.014 187.626C221.706 187.345 220.766 186.957 220.193 186.462C219.626 185.967 219.342 185.308 219.342 184.485C219.342 183.558 219.712 182.798 220.451 182.204C221.196 181.61 222.183 181.313 223.412 181.313C224.704 181.313 225.745 181.613 226.537 182.212C227.329 182.811 227.748 183.657 227.795 184.751H226.318C226.167 183.366 225.219 182.673 223.475 182.673C222.631 182.673 221.977 182.832 221.514 183.149C221.05 183.467 220.818 183.889 220.818 184.415C220.818 184.894 221.003 185.254 221.373 185.493C221.748 185.733 222.443 185.965 223.459 186.188C224.48 186.412 225.29 186.634 225.889 186.853C226.488 187.071 227.001 187.412 227.428 187.876C227.855 188.334 228.068 188.951 228.068 189.728C228.068 190.712 227.675 191.53 226.889 192.181C226.107 192.832 225.087 193.157 223.826 193.157ZM233.342 184.485C234.524 184.485 235.467 184.863 236.17 185.618C236.878 186.373 237.232 187.441 237.232 188.821C237.232 190.196 236.878 191.264 236.17 192.024C235.467 192.78 234.524 193.157 233.342 193.157C232.165 193.157 231.222 192.78 230.514 192.024C229.811 191.264 229.459 190.196 229.459 188.821C229.459 187.441 229.811 186.373 230.514 185.618C231.222 184.863 232.165 184.485 233.342 184.485ZM233.342 192.001C234.045 192.001 234.615 191.735 235.053 191.204C235.49 190.668 235.709 189.873 235.709 188.821C235.709 187.764 235.49 186.97 235.053 186.438C234.615 185.902 234.045 185.634 233.342 185.634C232.639 185.634 232.068 185.902 231.631 186.438C231.193 186.97 230.975 187.764 230.975 188.821C230.975 189.873 231.193 190.668 231.631 191.204C232.068 191.735 232.639 192.001 233.342 192.001ZM244.139 191.907C243.404 192.741 242.579 193.157 241.662 193.157C239.792 193.157 238.857 192.136 238.857 190.095V184.673H240.334V190.032C240.334 190.709 240.454 191.196 240.693 191.493C240.933 191.79 241.329 191.938 241.881 191.938C242.704 191.938 243.456 191.496 244.139 190.61V184.673H245.607V192.962H244.139V191.907ZM249.271 185.728C250.006 184.899 250.831 184.485 251.748 184.485C253.618 184.485 254.553 185.504 254.553 187.54V192.962H253.076V187.603C253.076 186.925 252.954 186.438 252.709 186.142C252.469 185.845 252.074 185.696 251.521 185.696C250.771 185.696 250.021 186.139 249.271 187.024V192.962H247.795V184.673H249.271V185.728ZM261.951 190.579V186.642C261.316 185.97 260.589 185.634 259.771 185.634C259.141 185.634 258.636 185.907 258.256 186.454C257.881 186.996 257.693 187.806 257.693 188.884C257.693 189.905 257.87 190.681 258.225 191.212C258.584 191.738 259.079 192.001 259.709 192.001C260.532 192.001 261.279 191.527 261.951 190.579ZM261.951 191.97C261.295 192.761 260.506 193.157 259.584 193.157C258.501 193.157 257.662 192.772 257.068 192.001C256.475 191.23 256.178 190.191 256.178 188.884C256.178 187.53 256.508 186.459 257.17 185.673C257.837 184.881 258.673 184.485 259.678 184.485C260.574 184.485 261.331 184.761 261.951 185.313V181.509H263.42V192.962H261.951V191.97ZM268.568 193.157C266.303 193.157 265.118 192.267 265.014 190.485H266.49C266.501 191.496 267.188 192.001 268.553 192.001C269.162 192.001 269.626 191.876 269.943 191.626C270.266 191.371 270.428 191.053 270.428 190.673C270.428 190.298 270.271 190.035 269.959 189.884C269.646 189.728 269.001 189.527 268.021 189.282C267.048 189.037 266.334 188.764 265.881 188.462C265.433 188.16 265.209 187.629 265.209 186.868C265.209 186.181 265.488 185.613 266.045 185.165C266.607 184.712 267.357 184.485 268.295 184.485C270.467 184.485 271.576 185.259 271.623 186.806H270.154C270.102 186.024 269.516 185.634 268.396 185.634C267.902 185.634 267.49 185.728 267.162 185.915C266.839 186.103 266.678 186.376 266.678 186.735C266.678 187.058 266.803 187.293 267.053 187.438C267.303 187.579 267.928 187.772 268.928 188.017C269.933 188.256 270.678 188.537 271.162 188.86C271.652 189.183 271.896 189.741 271.896 190.532C271.896 191.287 271.594 191.915 270.99 192.415C270.391 192.91 269.584 193.157 268.568 193.157Z" fill="black"/>
<circle cx="199.724" cy="311.681" r="58.4749" fill="white" stroke="black" stroke-width="3"/>
<path fill-rule="evenodd" clip-rule="evenodd" d="M220.525 311.255C220.845 311.45 220.845 311.913 220.525 312.108L188.234 331.842C187.901 332.045 187.474 331.806 187.474 331.415V291.948C187.474 291.558 187.901 291.318 188.234 291.522L220.525 311.255Z" stroke="black" stroke-width="4" stroke-linejoin="round"/>
<path d="M163.908 401.033H167.087C170.491 401.033 172.193 402.685 172.193 405.989C172.193 409.366 170.491 411.055 167.087 411.055H163.908V401.033ZM165.234 409.865H167.06C168.513 409.865 169.505 409.528 170.033 408.854C170.562 408.174 170.826 407.22 170.826 405.989C170.826 404.791 170.562 403.863 170.033 403.207C169.509 402.551 168.518 402.223 167.06 402.223H165.234V409.865ZM175.146 411.055H173.854V403.802H175.146V411.055ZM175.146 402.428H173.854V401.033H175.146V402.428ZM179.993 411.226C178.963 411.226 178.138 410.895 177.519 410.234C176.903 409.569 176.596 408.635 176.596 407.432C176.596 406.224 176.903 405.29 177.519 404.629C178.138 403.968 178.963 403.638 179.993 403.638C180.786 403.638 181.447 403.838 181.976 404.239C182.509 404.64 182.823 405.219 182.919 405.976H181.593C181.575 405.543 181.41 405.212 181.101 404.984C180.795 404.757 180.426 404.643 179.993 404.643C179.378 404.643 178.879 404.877 178.496 405.347C178.113 405.812 177.922 406.507 177.922 407.432C177.922 408.352 178.113 409.047 178.496 409.517C178.879 409.981 179.378 410.214 179.993 410.214C180.426 410.214 180.795 410.1 181.101 409.872C181.41 409.644 181.575 409.316 181.593 408.888H182.919C182.823 409.644 182.509 410.223 181.976 410.624C181.447 411.025 180.786 411.226 179.993 411.226ZM186.87 411.068C186.588 411.123 186.28 411.15 185.947 411.15C185.419 411.15 185.031 411.057 184.785 410.87C184.539 410.679 184.386 410.435 184.327 410.139C184.268 409.842 184.238 409.439 184.238 408.929V404.813H183.343V403.802H184.238V401.997H185.523V403.802H186.699V404.813H185.523V408.997C185.523 409.494 185.585 409.811 185.708 409.947C185.836 410.079 186.009 410.146 186.228 410.146C186.451 410.146 186.665 410.127 186.87 410.091V411.068ZM192.544 410.132C191.901 410.861 191.179 411.226 190.377 411.226C188.741 411.226 187.923 410.332 187.923 408.546V403.802H189.215V408.491C189.215 409.084 189.32 409.51 189.529 409.77C189.739 410.029 190.085 410.159 190.568 410.159C191.288 410.159 191.947 409.772 192.544 408.997V403.802H193.829V411.055H192.544V410.132ZM205.546 411.055H204.254V406.365C204.254 405.764 204.167 405.335 203.994 405.08C203.821 404.825 203.532 404.697 203.126 404.697C202.502 404.697 201.889 405.085 201.287 405.859V411.055H200.002V406.365C200.002 405.764 199.915 405.335 199.742 405.08C199.569 404.825 199.277 404.697 198.867 404.697C198.243 404.697 197.632 405.085 197.035 405.859V411.055H195.743V403.802H197.035V404.725C197.646 404 198.323 403.638 199.065 403.638C200.127 403.638 200.804 404.075 201.096 404.95C201.579 404.381 201.989 404.021 202.326 403.87C202.663 403.715 202.994 403.638 203.317 403.638C204.803 403.638 205.546 404.529 205.546 406.311V411.055ZM212.635 404.813V411.055H211.35V404.813H210.283V403.802H211.35V403.159C211.35 401.628 212.026 400.862 213.38 400.862C213.795 400.862 214.116 400.89 214.344 400.944V402.065C214.089 402.02 213.829 401.997 213.564 401.997C213.25 401.997 213.015 402.086 212.86 402.264C212.71 402.437 212.635 402.74 212.635 403.173V403.802H214.009V404.813H212.635ZM219.614 410.132C218.972 410.861 218.249 411.226 217.447 411.226C215.811 411.226 214.993 410.332 214.993 408.546V403.802H216.285V408.491C216.285 409.084 216.39 409.51 216.6 409.77C216.809 410.029 217.156 410.159 217.639 410.159C218.359 410.159 219.017 409.772 219.614 408.997V403.802H220.899V411.055H219.614V410.132ZM225.404 411.226C223.422 411.226 222.385 410.446 222.294 408.888H223.586C223.595 409.772 224.197 410.214 225.391 410.214C225.924 410.214 226.329 410.104 226.607 409.886C226.89 409.662 227.031 409.384 227.031 409.052C227.031 408.724 226.895 408.493 226.621 408.361C226.348 408.225 225.783 408.049 224.926 407.835C224.074 407.621 223.449 407.382 223.053 407.117C222.661 406.853 222.465 406.388 222.465 405.723C222.465 405.121 222.709 404.624 223.196 404.232C223.688 403.836 224.345 403.638 225.165 403.638C227.065 403.638 228.036 404.314 228.077 405.668H226.792C226.746 404.984 226.234 404.643 225.254 404.643C224.821 404.643 224.461 404.725 224.174 404.889C223.891 405.053 223.75 405.292 223.75 405.606C223.75 405.889 223.859 406.094 224.078 406.222C224.297 406.345 224.844 406.513 225.719 406.728C226.598 406.937 227.25 407.183 227.674 407.466C228.102 407.748 228.316 408.236 228.316 408.929C228.316 409.59 228.052 410.139 227.523 410.576C226.999 411.009 226.293 411.226 225.404 411.226ZM232.753 411.226C231.723 411.226 230.898 410.895 230.278 410.234C229.663 409.569 229.355 408.635 229.355 407.432C229.355 406.224 229.663 405.29 230.278 404.629C230.898 403.968 231.723 403.638 232.753 403.638C233.546 403.638 234.207 403.838 234.735 404.239C235.269 404.64 235.583 405.219 235.679 405.976H234.353C234.334 405.543 234.17 405.212 233.86 404.984C233.555 404.757 233.186 404.643 232.753 404.643C232.138 404.643 231.639 404.877 231.256 405.347C230.873 405.812 230.682 406.507 230.682 407.432C230.682 408.352 230.873 409.047 231.256 409.517C231.639 409.981 232.138 410.214 232.753 410.214C233.186 410.214 233.555 410.1 233.86 409.872C234.17 409.644 234.334 409.316 234.353 408.888H235.679C235.583 409.644 235.269 410.223 234.735 410.624C234.207 411.025 233.546 411.226 232.753 411.226ZM239.896 411.226C238.83 411.226 237.973 410.893 237.326 410.228C236.679 409.558 236.355 408.626 236.355 407.432C236.355 406.247 236.668 405.319 237.292 404.649C237.921 403.975 238.741 403.638 239.753 403.638C240.787 403.638 241.612 403.968 242.228 404.629C242.847 405.29 243.157 406.224 243.157 407.432V407.739H237.695C237.75 408.578 237.98 409.2 238.386 409.605C238.796 410.011 239.299 410.214 239.896 410.214C240.348 410.214 240.753 410.1 241.113 409.872C241.478 409.64 241.669 409.312 241.688 408.888H243.021C242.92 409.635 242.581 410.212 242.002 410.617C241.428 411.023 240.726 411.226 239.896 411.226ZM241.797 406.728C241.692 406.03 241.457 405.508 241.093 405.162C240.728 404.816 240.282 404.643 239.753 404.643C239.238 404.643 238.796 404.816 238.427 405.162C238.058 405.504 237.823 406.026 237.723 406.728H241.797Z" fill="black"/>
<circle cx="199.724" cy="493.478" r="58.4749" fill="white" stroke="black" stroke-width="3"/>
<path fill-rule="evenodd" clip-rule="evenodd" d="M220.525 493.052C220.845 493.247 220.845 493.71 220.525 493.905L188.234 513.639C187.901 513.842 187.474 513.602 187.474 513.212V473.745C187.474 473.355 187.901 473.115 188.234 473.318L220.525 493.052Z" stroke="black" stroke-width="4" stroke-linejoin="round"/>
<path d="M160.775 584.022C159.613 584.022 158.743 583.797 158.164 583.346C157.59 582.895 157.225 582.364 157.07 581.753C156.92 581.142 156.845 580.434 156.845 579.627V573.83H158.171V579.606C158.171 580.924 158.392 581.789 158.834 582.204C159.276 582.619 159.923 582.826 160.775 582.826C161.628 582.826 162.275 582.619 162.717 582.204C163.159 581.789 163.38 580.924 163.38 579.606V573.83H164.713V579.627C164.713 580.839 164.567 581.732 164.275 582.307C163.988 582.881 163.553 583.312 162.97 583.599C162.386 583.881 161.655 584.022 160.775 584.022ZM169.607 583.865C169.325 583.92 169.017 583.947 168.685 583.947C168.156 583.947 167.769 583.854 167.522 583.667C167.276 583.476 167.124 583.232 167.064 582.936C167.005 582.639 166.976 582.236 166.976 581.726V577.61H166.08V576.599H166.976V574.794H168.261V576.599H169.437V577.61H168.261V581.794C168.261 582.291 168.322 582.607 168.445 582.744C168.573 582.876 168.746 582.942 168.965 582.942C169.188 582.942 169.402 582.924 169.607 582.888V583.865ZM175.698 577.467C176.272 576.779 176.963 576.435 177.77 576.435C178.717 576.435 179.451 576.772 179.971 577.446C180.49 578.116 180.75 579.023 180.75 580.167C180.75 581.356 180.458 582.298 179.875 582.99C179.296 583.678 178.565 584.022 177.681 584.022C176.897 584.022 176.236 583.779 175.698 583.291V586.641H174.406V576.599H175.698V577.467ZM175.698 582.129C176.25 582.717 176.883 583.011 177.599 583.011C178.155 583.011 178.597 582.774 178.925 582.3C179.253 581.821 179.417 581.11 179.417 580.167C179.417 579.274 179.262 578.597 178.952 578.137C178.642 577.672 178.209 577.439 177.653 577.439C176.938 577.439 176.286 577.854 175.698 578.684V582.129ZM183.491 577.521C184.134 576.797 184.856 576.435 185.658 576.435C187.294 576.435 188.112 577.326 188.112 579.107V583.852H186.82V579.162C186.82 578.57 186.713 578.144 186.499 577.884C186.289 577.624 185.943 577.494 185.46 577.494C184.804 577.494 184.147 577.882 183.491 578.656V583.852H182.199V573.83H183.491V577.521ZM194.586 581.944V580.338H193.704C191.836 580.338 190.901 580.846 190.901 581.862C190.901 582.231 191.038 582.516 191.312 582.717C191.585 582.913 191.954 583.011 192.419 583.011C192.843 583.011 193.253 582.915 193.649 582.724C194.046 582.532 194.358 582.272 194.586 581.944ZM194.586 583.106C193.93 583.717 193.084 584.022 192.05 584.022C191.33 584.022 190.737 583.829 190.272 583.441C189.808 583.049 189.575 582.546 189.575 581.931C189.575 580.235 191.036 579.388 193.957 579.388H194.586C194.586 578.868 194.559 578.492 194.504 578.26C194.449 578.023 194.297 577.827 194.046 577.672C193.795 577.517 193.396 577.439 192.85 577.439C191.701 577.439 191.109 577.85 191.072 578.67H189.787C189.883 577.18 190.926 576.435 192.918 576.435C193.848 576.435 194.572 576.619 195.092 576.988C195.611 577.357 195.871 578.082 195.871 579.162V583.852H194.586V583.106ZM201.552 577.774C201.369 577.72 201.107 577.692 200.766 577.692C200.109 577.692 199.547 578.036 199.077 578.725V583.852H197.785V576.599H199.077V577.61C199.619 576.826 200.248 576.435 200.964 576.435C201.146 576.435 201.342 576.453 201.552 576.489V577.774ZM205.53 584.022C204.464 584.022 203.607 583.69 202.96 583.024C202.313 582.354 201.989 581.423 201.989 580.229C201.989 579.044 202.301 578.116 202.926 577.446C203.555 576.772 204.375 576.435 205.387 576.435C206.421 576.435 207.246 576.765 207.861 577.426C208.481 578.087 208.791 579.021 208.791 580.229V580.536H203.329C203.384 581.375 203.614 581.997 204.02 582.402C204.43 582.808 204.933 583.011 205.53 583.011C205.981 583.011 206.387 582.897 206.747 582.669C207.112 582.437 207.303 582.108 207.321 581.685H208.654C208.554 582.432 208.215 583.008 207.636 583.414C207.062 583.82 206.36 584.022 205.53 584.022ZM207.431 579.524C207.326 578.827 207.091 578.305 206.727 577.959C206.362 577.613 205.915 577.439 205.387 577.439C204.872 577.439 204.43 577.613 204.061 577.959C203.691 578.301 203.457 578.823 203.356 579.524H207.431ZM213.057 583.865C212.774 583.92 212.466 583.947 212.134 583.947C211.605 583.947 211.218 583.854 210.972 583.667C210.726 583.476 210.573 583.232 210.514 582.936C210.454 582.639 210.425 582.236 210.425 581.726V577.61H209.529V576.599H210.425V574.794H211.71V576.599H212.886V577.61H211.71V581.794C211.71 582.291 211.771 582.607 211.895 582.744C212.022 582.876 212.195 582.942 212.414 582.942C212.637 582.942 212.852 582.924 213.057 582.888V583.865ZM217.903 577.774C217.721 577.72 217.459 577.692 217.117 577.692C216.461 577.692 215.898 578.036 215.429 578.725V583.852H214.137V576.599H215.429V577.61C215.971 576.826 216.6 576.435 217.315 576.435C217.498 576.435 217.694 576.453 217.903 576.489V577.774ZM223.393 581.944V580.338H222.511C220.642 580.338 219.708 580.846 219.708 581.862C219.708 582.231 219.845 582.516 220.118 582.717C220.392 582.913 220.761 583.011 221.226 583.011C221.649 583.011 222.06 582.915 222.456 582.724C222.853 582.532 223.165 582.272 223.393 581.944ZM223.393 583.106C222.736 583.717 221.891 584.022 220.856 584.022C220.136 584.022 219.544 583.829 219.079 583.441C218.614 583.049 218.382 582.546 218.382 581.931C218.382 580.235 219.842 579.388 222.764 579.388H223.393C223.393 578.868 223.365 578.492 223.311 578.26C223.256 578.023 223.103 577.827 222.853 577.672C222.602 577.517 222.203 577.439 221.656 577.439C220.508 577.439 219.915 577.85 219.879 578.67H218.594C218.689 577.18 219.733 576.435 221.725 576.435C222.654 576.435 223.379 576.619 223.898 576.988C224.418 577.357 224.678 578.082 224.678 579.162V583.852H223.393V583.106ZM232.901 584.022C230.919 584.022 229.882 583.243 229.791 581.685H231.083C231.092 582.569 231.694 583.011 232.888 583.011C233.421 583.011 233.826 582.901 234.104 582.683C234.387 582.459 234.528 582.181 234.528 581.849C234.528 581.521 234.392 581.29 234.118 581.158C233.845 581.021 233.28 580.846 232.423 580.632C231.571 580.418 230.946 580.178 230.55 579.914C230.158 579.65 229.962 579.185 229.962 578.52C229.962 577.918 230.206 577.421 230.693 577.029C231.186 576.633 231.842 576.435 232.662 576.435C234.562 576.435 235.533 577.111 235.574 578.465H234.289C234.243 577.781 233.731 577.439 232.751 577.439C232.318 577.439 231.958 577.521 231.671 577.686C231.388 577.85 231.247 578.089 231.247 578.403C231.247 578.686 231.356 578.891 231.575 579.019C231.794 579.142 232.341 579.31 233.216 579.524C234.095 579.734 234.747 579.98 235.171 580.263C235.599 580.545 235.813 581.033 235.813 581.726C235.813 582.386 235.549 582.936 235.021 583.373C234.496 583.806 233.79 584.022 232.901 584.022ZM238.603 583.852H237.311V576.599H238.603V583.852ZM238.603 575.225H237.311V573.83H238.603V575.225ZM243.326 583.865C243.044 583.92 242.736 583.947 242.403 583.947C241.875 583.947 241.487 583.854 241.241 583.667C240.995 583.476 240.842 583.232 240.783 582.936C240.724 582.639 240.694 582.236 240.694 581.726V577.61H239.799V576.599H240.694V574.794H241.979V576.599H243.155V577.61H241.979V581.794C241.979 582.291 242.041 582.607 242.164 582.744C242.292 582.876 242.465 582.942 242.684 582.942C242.907 582.942 243.121 582.924 243.326 582.888V583.865Z" fill="black"/>
<path d="M229.621 683H227.738V673.172H224.395V671.578H232.957V673.172H229.621V683ZM237.965 674.188C238.736 674.188 239.397 674.346 239.949 674.664C240.501 674.982 240.926 675.432 241.223 676.016C241.52 676.599 241.668 677.297 241.668 678.109V679.094H235.895C235.915 679.932 236.139 680.578 236.566 681.031C236.999 681.484 237.603 681.711 238.379 681.711C238.931 681.711 239.426 681.659 239.863 681.555C240.306 681.445 240.762 681.286 241.23 681.078V682.57C240.798 682.773 240.358 682.922 239.91 683.016C239.462 683.109 238.926 683.156 238.301 683.156C237.452 683.156 236.704 682.992 236.059 682.664C235.418 682.331 234.915 681.836 234.551 681.18C234.191 680.523 234.012 679.708 234.012 678.734C234.012 677.766 234.176 676.943 234.504 676.266C234.832 675.589 235.293 675.073 235.887 674.719C236.48 674.365 237.173 674.188 237.965 674.188ZM237.965 675.57C237.387 675.57 236.918 675.758 236.559 676.133C236.204 676.508 235.996 677.057 235.934 677.781H239.871C239.866 677.349 239.793 676.966 239.652 676.633C239.517 676.299 239.309 676.039 239.027 675.852C238.751 675.664 238.397 675.57 237.965 675.57ZM249.551 680.531C249.551 681.099 249.413 681.578 249.137 681.969C248.861 682.359 248.457 682.656 247.926 682.859C247.4 683.057 246.754 683.156 245.988 683.156C245.384 683.156 244.863 683.112 244.426 683.023C243.993 682.94 243.585 682.81 243.199 682.633V681.047C243.611 681.24 244.072 681.406 244.582 681.547C245.098 681.688 245.585 681.758 246.043 681.758C246.647 681.758 247.082 681.664 247.348 681.477C247.613 681.284 247.746 681.029 247.746 680.711C247.746 680.523 247.691 680.357 247.582 680.211C247.478 680.06 247.28 679.906 246.988 679.75C246.702 679.589 246.28 679.396 245.723 679.172C245.176 678.953 244.715 678.734 244.34 678.516C243.965 678.297 243.681 678.034 243.488 677.727C243.296 677.414 243.199 677.016 243.199 676.531C243.199 675.766 243.501 675.185 244.105 674.789C244.715 674.388 245.52 674.188 246.52 674.188C247.051 674.188 247.551 674.242 248.02 674.352C248.493 674.456 248.957 674.609 249.41 674.812L248.832 676.195C248.441 676.023 248.048 675.883 247.652 675.773C247.262 675.659 246.863 675.602 246.457 675.602C245.983 675.602 245.621 675.674 245.371 675.82C245.126 675.966 245.004 676.174 245.004 676.445C245.004 676.648 245.064 676.82 245.184 676.961C245.303 677.102 245.509 677.242 245.801 677.383C246.098 677.523 246.509 677.698 247.035 677.906C247.551 678.104 247.996 678.312 248.371 678.531C248.751 678.745 249.043 679.008 249.246 679.32C249.449 679.633 249.551 680.036 249.551 680.531ZM254.754 681.672C254.993 681.672 255.23 681.651 255.465 681.609C255.699 681.562 255.913 681.508 256.105 681.445V682.836C255.902 682.924 255.639 683 255.316 683.062C254.993 683.125 254.658 683.156 254.309 683.156C253.819 683.156 253.379 683.076 252.988 682.914C252.598 682.747 252.288 682.464 252.059 682.062C251.829 681.661 251.715 681.107 251.715 680.398V675.75H250.535V674.93L251.801 674.281L252.402 672.43H253.559V674.352H256.035V675.75H253.559V680.375C253.559 680.812 253.668 681.138 253.887 681.352C254.105 681.565 254.395 681.672 254.754 681.672ZM260.715 674.352H262.715L264.488 679.289C264.566 679.513 264.637 679.734 264.699 679.953C264.767 680.167 264.824 680.378 264.871 680.586C264.923 680.794 264.965 681.003 264.996 681.211H265.043C265.095 680.94 265.168 680.638 265.262 680.305C265.361 679.966 265.47 679.628 265.59 679.289L267.293 674.352H269.27L265.559 684.188C265.345 684.75 265.082 685.229 264.77 685.625C264.462 686.026 264.098 686.328 263.676 686.531C263.254 686.74 262.772 686.844 262.23 686.844C261.97 686.844 261.743 686.828 261.551 686.797C261.358 686.771 261.194 686.742 261.059 686.711V685.242C261.168 685.268 261.306 685.292 261.473 685.312C261.639 685.333 261.811 685.344 261.988 685.344C262.316 685.344 262.6 685.279 262.84 685.148C263.079 685.018 263.283 684.833 263.449 684.594C263.616 684.359 263.754 684.091 263.863 683.789L264.168 682.977L260.715 674.352ZM278.238 678.656C278.238 679.375 278.145 680.013 277.957 680.57C277.77 681.128 277.496 681.599 277.137 681.984C276.777 682.365 276.345 682.656 275.84 682.859C275.335 683.057 274.764 683.156 274.129 683.156C273.535 683.156 272.991 683.057 272.496 682.859C272.001 682.656 271.572 682.365 271.207 681.984C270.848 681.599 270.569 681.128 270.371 680.57C270.173 680.013 270.074 679.375 270.074 678.656C270.074 677.703 270.238 676.896 270.566 676.234C270.9 675.568 271.374 675.06 271.988 674.711C272.603 674.362 273.335 674.188 274.184 674.188C274.98 674.188 275.684 674.362 276.293 674.711C276.902 675.06 277.379 675.568 277.723 676.234C278.066 676.901 278.238 677.708 278.238 678.656ZM271.965 678.656C271.965 679.286 272.04 679.826 272.191 680.273C272.348 680.721 272.587 681.065 272.91 681.305C273.233 681.539 273.65 681.656 274.16 681.656C274.671 681.656 275.087 681.539 275.41 681.305C275.733 681.065 275.97 680.721 276.121 680.273C276.272 679.826 276.348 679.286 276.348 678.656C276.348 678.026 276.272 677.492 276.121 677.055C275.97 676.612 275.733 676.276 275.41 676.047C275.087 675.812 274.668 675.695 274.152 675.695C273.392 675.695 272.837 675.951 272.488 676.461C272.139 676.971 271.965 677.703 271.965 678.656ZM287.887 674.352V683H286.441L286.191 681.836H286.09C285.908 682.133 285.676 682.38 285.395 682.578C285.113 682.771 284.801 682.914 284.457 683.008C284.113 683.107 283.751 683.156 283.371 683.156C282.72 683.156 282.163 683.047 281.699 682.828C281.241 682.604 280.889 682.26 280.645 681.797C280.4 681.333 280.277 680.734 280.277 680V674.352H282.121V679.656C282.121 680.328 282.257 680.831 282.527 681.164C282.803 681.497 283.23 681.664 283.809 681.664C284.366 681.664 284.809 681.549 285.137 681.32C285.465 681.091 285.697 680.753 285.832 680.305C285.973 679.857 286.043 679.307 286.043 678.656V674.352H287.887ZM294.902 674.188C295.048 674.188 295.207 674.195 295.379 674.211C295.551 674.227 295.699 674.247 295.824 674.273L295.652 675.992C295.543 675.961 295.408 675.938 295.246 675.922C295.09 675.906 294.949 675.898 294.824 675.898C294.496 675.898 294.184 675.953 293.887 676.062C293.59 676.167 293.327 676.328 293.098 676.547C292.868 676.76 292.689 677.029 292.559 677.352C292.428 677.674 292.363 678.049 292.363 678.477V683H290.52V674.352H291.957L292.207 675.875H292.293C292.465 675.568 292.678 675.286 292.934 675.031C293.189 674.776 293.48 674.573 293.809 674.422C294.142 674.266 294.507 674.188 294.902 674.188ZM303.238 680.531C303.238 681.099 303.1 681.578 302.824 681.969C302.548 682.359 302.145 682.656 301.613 682.859C301.087 683.057 300.441 683.156 299.676 683.156C299.072 683.156 298.551 683.112 298.113 683.023C297.681 682.94 297.272 682.81 296.887 682.633V681.047C297.298 681.24 297.759 681.406 298.27 681.547C298.785 681.688 299.272 681.758 299.73 681.758C300.335 681.758 300.77 681.664 301.035 681.477C301.301 681.284 301.434 681.029 301.434 680.711C301.434 680.523 301.379 680.357 301.27 680.211C301.165 680.06 300.967 679.906 300.676 679.75C300.389 679.589 299.967 679.396 299.41 679.172C298.863 678.953 298.402 678.734 298.027 678.516C297.652 678.297 297.368 678.034 297.176 677.727C296.983 677.414 296.887 677.016 296.887 676.531C296.887 675.766 297.189 675.185 297.793 674.789C298.402 674.388 299.207 674.188 300.207 674.188C300.738 674.188 301.238 674.242 301.707 674.352C302.181 674.456 302.645 674.609 303.098 674.812L302.52 676.195C302.129 676.023 301.736 675.883 301.34 675.773C300.949 675.659 300.551 675.602 300.145 675.602C299.671 675.602 299.309 675.674 299.059 675.82C298.814 675.966 298.691 676.174 298.691 676.445C298.691 676.648 298.751 676.82 298.871 676.961C298.991 677.102 299.197 677.242 299.488 677.383C299.785 677.523 300.197 677.698 300.723 677.906C301.238 678.104 301.684 678.312 302.059 678.531C302.439 678.745 302.73 679.008 302.934 679.32C303.137 679.633 303.238 680.036 303.238 680.531ZM308.668 674.188C309.439 674.188 310.1 674.346 310.652 674.664C311.204 674.982 311.629 675.432 311.926 676.016C312.223 676.599 312.371 677.297 312.371 678.109V679.094H306.598C306.618 679.932 306.842 680.578 307.27 681.031C307.702 681.484 308.306 681.711 309.082 681.711C309.634 681.711 310.129 681.659 310.566 681.555C311.009 681.445 311.465 681.286 311.934 681.078V682.57C311.501 682.773 311.061 682.922 310.613 683.016C310.165 683.109 309.629 683.156 309.004 683.156C308.155 683.156 307.408 682.992 306.762 682.664C306.121 682.331 305.618 681.836 305.254 681.18C304.895 680.523 304.715 679.708 304.715 678.734C304.715 677.766 304.879 676.943 305.207 676.266C305.535 675.589 305.996 675.073 306.59 674.719C307.184 674.365 307.876 674.188 308.668 674.188ZM308.668 675.57C308.09 675.57 307.621 675.758 307.262 676.133C306.908 676.508 306.699 677.057 306.637 677.781H310.574C310.569 677.349 310.496 676.966 310.355 676.633C310.22 676.299 310.012 676.039 309.73 675.852C309.454 675.664 309.1 675.57 308.668 675.57ZM316.285 683H314.441V670.844H316.285V683ZM323.23 675.75H321.129V683H319.293V675.75H317.879V674.867L319.293 674.328V673.727C319.293 672.992 319.408 672.409 319.637 671.977C319.871 671.544 320.204 671.234 320.637 671.047C321.074 670.854 321.595 670.758 322.199 670.758C322.595 670.758 322.957 670.792 323.285 670.859C323.613 670.922 323.889 670.995 324.113 671.078L323.637 672.469C323.46 672.411 323.262 672.359 323.043 672.312C322.824 672.26 322.59 672.234 322.34 672.234C321.923 672.234 321.616 672.365 321.418 672.625C321.225 672.885 321.129 673.266 321.129 673.766V674.352H323.23V675.75ZM328.301 679.75L334.027 677.359L328.301 674.672V673.156L335.934 676.953V677.883L328.301 681.258V679.75ZM337.457 679.75L343.184 677.359L337.457 674.672V673.156L345.09 676.953V677.883L337.457 681.258V679.75Z" fill="#495057"/>
<rect x="193.512" y="658" width="183" height="38" rx="3" stroke="#495057" stroke-width="2"/>
</g>
<rect x="2.11084" y="1.76367" width="401.5" height="719.5" rx="6.75" stroke="black" stroke-width="2.5"/>
<defs>
<clipPath id="clip0_171_7037">
<rect x="0.86084" y="0.513672" width="404" height="722" rx="8" fill="white"/>
</clipPath>
</defs>
</svg>
