<svg width="405" height="723" viewBox="0 0 405 723" fill="none" xmlns="http://www.w3.org/2000/svg">
<g clip-path="url(#clip0_177_7131)">
<rect x="0.672363" y="0.491211" width="404" height="722" rx="8" fill="white"/>
<path d="M1.67236 8.49121C1.67236 4.62522 4.80637 1.49121 8.67236 1.49121H446.672C450.538 1.49121 453.672 4.62522 453.672 8.49121V70.4912H1.67236V8.49121Z" fill="white"/>
<path d="M1.67236 8.49121C1.67236 4.62522 4.80637 1.49121 8.67236 1.49121H446.672C450.538 1.49121 453.672 4.62522 453.672 8.49121V70.4912H1.67236V8.49121Z" stroke="#1B1D1F" stroke-width="2"/>
<path d="M117.229 160.491H113.445V145.794H108.599V142.645H122.076V145.794H117.229V160.491ZM135.101 160.491H124.822V142.645H135.101V145.745H128.606V149.664H134.649V152.764H128.606V157.366H135.101V160.491ZM149.371 155.535C149.371 156.593 149.114 157.513 148.602 158.294C148.089 159.075 147.34 159.677 146.355 160.101C145.379 160.524 144.191 160.735 142.791 160.735C142.173 160.735 141.566 160.695 140.972 160.613C140.386 160.532 139.821 160.414 139.275 160.259C138.738 160.097 138.226 159.897 137.737 159.661V156.146C138.584 156.52 139.463 156.858 140.374 157.159C141.285 157.46 142.189 157.61 143.084 157.61C143.702 157.61 144.199 157.529 144.573 157.366C144.956 157.203 145.232 156.98 145.403 156.695C145.574 156.41 145.66 156.084 145.66 155.718C145.66 155.271 145.509 154.888 145.208 154.571C144.907 154.253 144.492 153.956 143.963 153.68C143.442 153.403 142.852 153.106 142.193 152.789C141.778 152.593 141.326 152.357 140.838 152.081C140.35 151.796 139.886 151.45 139.446 151.043C139.007 150.636 138.645 150.144 138.36 149.566C138.083 148.98 137.945 148.28 137.945 147.466C137.945 146.4 138.189 145.489 138.677 144.732C139.166 143.975 139.861 143.397 140.765 142.999C141.676 142.592 142.75 142.388 143.987 142.388C144.915 142.388 145.798 142.498 146.636 142.718C147.483 142.929 148.366 143.239 149.285 143.646L148.064 146.587C147.243 146.254 146.506 145.997 145.855 145.818C145.204 145.631 144.541 145.538 143.865 145.538C143.393 145.538 142.99 145.615 142.657 145.77C142.323 145.916 142.071 146.128 141.9 146.404C141.729 146.673 141.644 146.986 141.644 147.344C141.644 147.767 141.766 148.125 142.01 148.418C142.262 148.703 142.636 148.98 143.133 149.249C143.637 149.517 144.264 149.83 145.013 150.188C145.924 150.62 146.701 151.071 147.344 151.543C147.995 152.007 148.496 152.557 148.846 153.191C149.196 153.818 149.371 154.599 149.371 155.535ZM159.49 160.491H155.706V145.794H150.86V142.645H164.336V145.794H159.49V160.491ZM179.131 149.993L182.854 142.645H186.932L181.011 153.545V160.491H177.251V153.667L171.331 142.645H175.433L179.131 149.993ZM205.376 151.543C205.376 152.919 205.206 154.172 204.864 155.303C204.522 156.426 204.001 157.395 203.301 158.208C202.61 159.022 201.731 159.649 200.665 160.088C199.598 160.52 198.337 160.735 196.88 160.735C195.424 160.735 194.162 160.52 193.096 160.088C192.03 159.649 191.147 159.022 190.447 158.208C189.756 157.395 189.239 156.422 188.897 155.291C188.555 154.16 188.384 152.903 188.384 151.519C188.384 149.672 188.685 148.064 189.288 146.697C189.898 145.322 190.834 144.256 192.095 143.499C193.357 142.742 194.96 142.364 196.905 142.364C198.842 142.364 200.433 142.742 201.678 143.499C202.931 144.256 203.859 145.322 204.461 146.697C205.071 148.073 205.376 149.688 205.376 151.543ZM192.352 151.543C192.352 152.789 192.506 153.863 192.815 154.766C193.133 155.661 193.625 156.353 194.292 156.841C194.96 157.321 195.822 157.562 196.88 157.562C197.955 157.562 198.825 157.321 199.493 156.841C200.16 156.353 200.644 155.661 200.945 154.766C201.255 153.863 201.409 152.789 201.409 151.543C201.409 149.672 201.059 148.199 200.359 147.125C199.66 146.05 198.508 145.513 196.905 145.513C195.839 145.513 194.968 145.757 194.292 146.246C193.625 146.726 193.133 147.417 192.815 148.321C192.506 149.216 192.352 150.29 192.352 151.543ZM223.602 142.645V154.192C223.602 155.421 223.329 156.532 222.784 157.525C222.247 158.51 221.429 159.291 220.33 159.869C219.24 160.446 217.864 160.735 216.204 160.735C213.844 160.735 212.046 160.133 210.809 158.929C209.572 157.724 208.953 156.129 208.953 154.144V142.645H212.725V153.57C212.725 155.043 213.026 156.076 213.628 156.67C214.231 157.264 215.122 157.562 216.302 157.562C217.132 157.562 217.803 157.419 218.316 157.134C218.837 156.849 219.219 156.41 219.463 155.816C219.708 155.222 219.83 154.465 219.83 153.545V142.645H223.602ZM233.172 142.645C234.791 142.645 236.126 142.84 237.176 143.23C238.234 143.621 239.019 144.211 239.532 145C240.044 145.79 240.301 146.787 240.301 147.991C240.301 148.805 240.146 149.517 239.837 150.127C239.528 150.738 239.121 151.255 238.616 151.678C238.112 152.101 237.566 152.447 236.98 152.715L242.229 160.491H238.03L233.77 153.643H231.756V160.491H227.972V142.645H233.172ZM232.903 145.745H231.756V150.567H232.977C234.23 150.567 235.125 150.359 235.662 149.944C236.207 149.521 236.48 148.903 236.48 148.089C236.48 147.243 236.187 146.64 235.601 146.282C235.023 145.924 234.124 145.745 232.903 145.745ZM255.01 155.535C255.01 156.593 254.754 157.513 254.241 158.294C253.729 159.075 252.98 159.677 251.995 160.101C251.019 160.524 249.83 160.735 248.431 160.735C247.812 160.735 247.206 160.695 246.612 160.613C246.026 160.532 245.46 160.414 244.915 160.259C244.378 160.097 243.865 159.897 243.377 159.661V156.146C244.223 156.52 245.102 156.858 246.014 157.159C246.925 157.46 247.828 157.61 248.724 157.61C249.342 157.61 249.839 157.529 250.213 157.366C250.595 157.203 250.872 156.98 251.043 156.695C251.214 156.41 251.299 156.084 251.299 155.718C251.299 155.271 251.149 154.888 250.848 154.571C250.547 154.253 250.132 153.956 249.603 153.68C249.082 153.403 248.492 153.106 247.833 152.789C247.417 152.593 246.966 152.357 246.478 152.081C245.989 151.796 245.525 151.45 245.086 151.043C244.646 150.636 244.284 150.144 244 149.566C243.723 148.98 243.584 148.28 243.584 147.466C243.584 146.4 243.829 145.489 244.317 144.732C244.805 143.975 245.501 143.397 246.404 142.999C247.316 142.592 248.39 142.388 249.627 142.388C250.555 142.388 251.438 142.498 252.276 142.718C253.122 142.929 254.005 143.239 254.925 143.646L253.704 146.587C252.882 146.254 252.146 145.997 251.495 145.818C250.844 145.631 250.18 145.538 249.505 145.538C249.033 145.538 248.63 145.615 248.296 145.77C247.963 145.916 247.71 146.128 247.54 146.404C247.369 146.673 247.283 146.986 247.283 147.344C247.283 147.767 247.405 148.125 247.649 148.418C247.902 148.703 248.276 148.98 248.772 149.249C249.277 149.517 249.904 149.83 250.652 150.188C251.564 150.62 252.341 151.071 252.984 151.543C253.635 152.007 254.135 152.557 254.485 153.191C254.835 153.818 255.01 154.599 255.01 155.535ZM268.523 160.491H258.245V142.645H268.523V145.745H262.029V149.664H268.072V152.764H262.029V157.366H268.523V160.491ZM272.259 160.491V142.645H276.043V157.366H283.282V160.491H272.259ZM290.118 160.491H286.395V142.645H296.624V145.745H290.118V150.347H296.172V153.436H290.118V160.491Z" fill="#49494A"/>
<line x1="347.843" y1="28.2266" x2="377.323" y2="28.2266" stroke="black" stroke-width="2"/>
<line x1="347.843" y1="34.8477" x2="377.323" y2="34.8477" stroke="black" stroke-width="2"/>
<line x1="347.843" y1="41.7559" x2="377.323" y2="41.7559" stroke="black" stroke-width="2"/>
<path d="M92.2695 192.939L89.2305 181.486H90.7852L92.5273 188.994C92.7148 189.781 92.8763 190.562 93.0117 191.338C93.3034 190.114 93.4753 189.408 93.5273 189.221L95.707 181.486H97.5352L99.1758 187.283C99.5872 188.721 99.8841 190.072 100.066 191.338C100.212 190.614 100.402 189.783 100.637 188.846L102.434 181.486H103.957L100.816 192.939H99.3555L96.9414 184.213C96.7383 183.484 96.6185 183.036 96.582 182.869C96.4622 183.395 96.3503 183.843 96.2461 184.213L93.8164 192.939H92.2695ZM105.199 192.939V181.486H106.605V185.596C107.262 184.835 108.09 184.455 109.09 184.455C109.704 184.455 110.238 184.577 110.691 184.822C111.145 185.062 111.467 185.395 111.66 185.822C111.858 186.249 111.957 186.869 111.957 187.682V192.939H110.551V187.682C110.551 186.979 110.397 186.468 110.09 186.15C109.788 185.827 109.358 185.666 108.801 185.666C108.384 185.666 107.991 185.775 107.621 185.994C107.257 186.208 106.996 186.499 106.84 186.869C106.684 187.239 106.605 187.749 106.605 188.4V192.939H105.199ZM119.52 191.916C118.999 192.359 118.496 192.671 118.012 192.854C117.533 193.036 117.017 193.127 116.465 193.127C115.553 193.127 114.853 192.906 114.363 192.463C113.874 192.015 113.629 191.445 113.629 190.752C113.629 190.346 113.72 189.976 113.902 189.643C114.09 189.304 114.332 189.033 114.629 188.83C114.931 188.627 115.27 188.473 115.645 188.369C115.921 188.296 116.337 188.226 116.895 188.158C118.03 188.023 118.866 187.861 119.402 187.674C119.408 187.481 119.41 187.359 119.41 187.307C119.41 186.734 119.277 186.33 119.012 186.096C118.652 185.778 118.118 185.619 117.41 185.619C116.749 185.619 116.259 185.736 115.941 185.971C115.629 186.2 115.397 186.609 115.246 187.197L113.871 187.01C113.996 186.421 114.202 185.947 114.488 185.588C114.775 185.223 115.189 184.945 115.73 184.752C116.272 184.554 116.9 184.455 117.613 184.455C118.322 184.455 118.897 184.538 119.34 184.705C119.783 184.872 120.108 185.083 120.316 185.338C120.525 185.588 120.671 185.906 120.754 186.291C120.801 186.531 120.824 186.963 120.824 187.588V189.463C120.824 190.77 120.853 191.598 120.91 191.947C120.973 192.291 121.092 192.622 121.27 192.939H119.801C119.655 192.648 119.561 192.307 119.52 191.916ZM119.402 188.775C118.892 188.984 118.126 189.161 117.105 189.307C116.527 189.39 116.118 189.484 115.879 189.588C115.639 189.692 115.454 189.846 115.324 190.049C115.194 190.247 115.129 190.468 115.129 190.713C115.129 191.088 115.27 191.4 115.551 191.65C115.837 191.9 116.254 192.025 116.801 192.025C117.342 192.025 117.824 191.908 118.246 191.674C118.668 191.434 118.978 191.109 119.176 190.697C119.327 190.38 119.402 189.911 119.402 189.291V188.775ZM126.082 191.682L126.285 192.924C125.889 193.007 125.535 193.049 125.223 193.049C124.712 193.049 124.316 192.968 124.035 192.807C123.754 192.645 123.556 192.434 123.441 192.174C123.327 191.908 123.27 191.354 123.27 190.51V185.736H122.238V184.643H123.27V182.588L124.668 181.744V184.643H126.082V185.736H124.668V190.588C124.668 190.989 124.691 191.247 124.738 191.361C124.79 191.476 124.871 191.567 124.98 191.635C125.095 191.702 125.257 191.736 125.465 191.736C125.621 191.736 125.827 191.718 126.082 191.682ZM137.301 192.939V191.893C136.775 192.715 136.001 193.127 134.98 193.127C134.319 193.127 133.71 192.945 133.152 192.58C132.6 192.215 132.171 191.708 131.863 191.057C131.561 190.4 131.41 189.648 131.41 188.799C131.41 187.971 131.548 187.221 131.824 186.549C132.1 185.872 132.514 185.354 133.066 184.994C133.618 184.635 134.236 184.455 134.918 184.455C135.418 184.455 135.863 184.562 136.254 184.775C136.645 184.984 136.962 185.257 137.207 185.596V181.486H138.605V192.939H137.301ZM132.855 188.799C132.855 189.861 133.079 190.656 133.527 191.182C133.975 191.708 134.504 191.971 135.113 191.971C135.728 191.971 136.249 191.721 136.676 191.221C137.108 190.715 137.324 189.947 137.324 188.916C137.324 187.781 137.105 186.947 136.668 186.416C136.23 185.885 135.691 185.619 135.051 185.619C134.426 185.619 133.902 185.874 133.48 186.385C133.064 186.895 132.855 187.7 132.855 188.799ZM140.301 188.791C140.301 187.255 140.728 186.117 141.582 185.377C142.296 184.762 143.165 184.455 144.191 184.455C145.332 184.455 146.264 184.83 146.988 185.58C147.712 186.325 148.074 187.356 148.074 188.674C148.074 189.742 147.913 190.583 147.59 191.197C147.272 191.807 146.806 192.281 146.191 192.619C145.582 192.958 144.915 193.127 144.191 193.127C143.03 193.127 142.09 192.755 141.371 192.01C140.658 191.265 140.301 190.192 140.301 188.791ZM141.746 188.791C141.746 189.854 141.978 190.65 142.441 191.182C142.905 191.708 143.488 191.971 144.191 191.971C144.889 191.971 145.47 191.705 145.934 191.174C146.397 190.643 146.629 189.833 146.629 188.744C146.629 187.718 146.395 186.942 145.926 186.416C145.462 185.885 144.884 185.619 144.191 185.619C143.488 185.619 142.905 185.882 142.441 186.408C141.978 186.934 141.746 187.729 141.746 188.791ZM155.41 190.268L156.863 190.447C156.634 191.296 156.21 191.955 155.59 192.424C154.97 192.893 154.178 193.127 153.215 193.127C152.001 193.127 151.038 192.755 150.324 192.01C149.616 191.26 149.262 190.21 149.262 188.861C149.262 187.465 149.621 186.382 150.34 185.611C151.059 184.84 151.991 184.455 153.137 184.455C154.246 184.455 155.152 184.833 155.855 185.588C156.559 186.343 156.91 187.406 156.91 188.775C156.91 188.859 156.908 188.984 156.902 189.15H150.715C150.767 190.062 151.025 190.76 151.488 191.244C151.952 191.729 152.53 191.971 153.223 191.971C153.738 191.971 154.178 191.835 154.543 191.564C154.908 191.294 155.197 190.861 155.41 190.268ZM150.793 187.994H155.426C155.363 187.296 155.186 186.773 154.895 186.424C154.447 185.882 153.866 185.611 153.152 185.611C152.507 185.611 151.962 185.827 151.52 186.26C151.082 186.692 150.84 187.27 150.793 187.994ZM158.074 190.463L159.465 190.244C159.543 190.801 159.759 191.229 160.113 191.525C160.473 191.822 160.973 191.971 161.613 191.971C162.259 191.971 162.738 191.84 163.051 191.58C163.363 191.314 163.52 191.005 163.52 190.65C163.52 190.333 163.382 190.083 163.105 189.9C162.913 189.775 162.434 189.617 161.668 189.424C160.637 189.163 159.921 188.939 159.52 188.752C159.124 188.559 158.822 188.296 158.613 187.963C158.41 187.624 158.309 187.252 158.309 186.846C158.309 186.476 158.392 186.135 158.559 185.822C158.73 185.505 158.962 185.242 159.254 185.033C159.473 184.872 159.77 184.736 160.145 184.627C160.525 184.512 160.931 184.455 161.363 184.455C162.014 184.455 162.585 184.549 163.074 184.736C163.569 184.924 163.934 185.179 164.168 185.502C164.402 185.82 164.564 186.247 164.652 186.783L163.277 186.971C163.215 186.544 163.033 186.21 162.73 185.971C162.434 185.731 162.012 185.611 161.465 185.611C160.819 185.611 160.358 185.718 160.082 185.932C159.806 186.145 159.668 186.395 159.668 186.682C159.668 186.864 159.725 187.028 159.84 187.174C159.954 187.325 160.134 187.45 160.379 187.549C160.52 187.601 160.934 187.721 161.621 187.908C162.616 188.174 163.309 188.393 163.699 188.564C164.095 188.731 164.405 188.976 164.629 189.299C164.853 189.622 164.965 190.023 164.965 190.502C164.965 190.971 164.827 191.413 164.551 191.83C164.28 192.242 163.887 192.562 163.371 192.791C162.855 193.015 162.272 193.127 161.621 193.127C160.543 193.127 159.72 192.903 159.152 192.455C158.59 192.007 158.23 191.343 158.074 190.463ZM171.199 192.939V181.486H179.691V183.424H173.512V185.963H179.262V187.893H173.512V191.01H179.91V192.939H171.199ZM181.652 193.486L184.16 193.791C184.202 194.083 184.298 194.283 184.449 194.393C184.658 194.549 184.986 194.627 185.434 194.627C186.007 194.627 186.436 194.541 186.723 194.369C186.915 194.255 187.061 194.07 187.16 193.814C187.228 193.632 187.262 193.296 187.262 192.807V191.596C186.605 192.492 185.777 192.939 184.777 192.939C183.663 192.939 182.78 192.468 182.129 191.525C181.618 190.781 181.363 189.854 181.363 188.744C181.363 187.354 181.697 186.291 182.363 185.557C183.035 184.822 183.868 184.455 184.863 184.455C185.889 184.455 186.736 184.906 187.402 185.807V184.643H189.457V192.088C189.457 193.067 189.376 193.799 189.215 194.283C189.053 194.768 188.827 195.148 188.535 195.424C188.243 195.7 187.853 195.916 187.363 196.072C186.879 196.229 186.264 196.307 185.52 196.307C184.113 196.307 183.116 196.064 182.527 195.58C181.939 195.101 181.645 194.492 181.645 193.752C181.645 193.679 181.647 193.59 181.652 193.486ZM183.613 188.619C183.613 189.499 183.783 190.145 184.121 190.557C184.465 190.963 184.887 191.166 185.387 191.166C185.923 191.166 186.376 190.958 186.746 190.541C187.116 190.119 187.301 189.497 187.301 188.674C187.301 187.814 187.124 187.176 186.77 186.76C186.415 186.343 185.967 186.135 185.426 186.135C184.9 186.135 184.465 186.34 184.121 186.752C183.783 187.158 183.613 187.781 183.613 188.619ZM196.441 190.299L198.629 190.666C198.348 191.468 197.902 192.08 197.293 192.502C196.689 192.919 195.931 193.127 195.02 193.127C193.577 193.127 192.509 192.656 191.816 191.713C191.27 190.958 190.996 190.005 190.996 188.854C190.996 187.479 191.355 186.403 192.074 185.627C192.793 184.846 193.702 184.455 194.801 184.455C196.035 184.455 197.009 184.864 197.723 185.682C198.436 186.494 198.777 187.742 198.746 189.424H193.246C193.262 190.075 193.439 190.583 193.777 190.947C194.116 191.307 194.538 191.486 195.043 191.486C195.387 191.486 195.676 191.393 195.91 191.205C196.145 191.018 196.322 190.715 196.441 190.299ZM196.566 188.08C196.551 187.445 196.387 186.963 196.074 186.635C195.762 186.301 195.382 186.135 194.934 186.135C194.454 186.135 194.059 186.309 193.746 186.658C193.434 187.007 193.28 187.481 193.285 188.08H196.566ZM204.348 184.643V186.393H202.848V189.736C202.848 190.413 202.861 190.809 202.887 190.924C202.918 191.033 202.983 191.124 203.082 191.197C203.186 191.27 203.311 191.307 203.457 191.307C203.66 191.307 203.954 191.236 204.34 191.096L204.527 192.799C204.017 193.018 203.439 193.127 202.793 193.127C202.397 193.127 202.04 193.062 201.723 192.932C201.405 192.796 201.171 192.624 201.02 192.416C200.874 192.202 200.772 191.916 200.715 191.557C200.668 191.301 200.645 190.786 200.645 190.01V186.393H199.637V184.643H200.645V182.994L202.848 181.713V184.643H204.348ZM215.129 190.299L217.316 190.666C217.035 191.468 216.59 192.08 215.98 192.502C215.376 192.919 214.618 193.127 213.707 193.127C212.264 193.127 211.197 192.656 210.504 191.713C209.957 190.958 209.684 190.005 209.684 188.854C209.684 187.479 210.043 186.403 210.762 185.627C211.48 184.846 212.389 184.455 213.488 184.455C214.723 184.455 215.697 184.864 216.41 185.682C217.124 186.494 217.465 187.742 217.434 189.424H211.934C211.949 190.075 212.126 190.583 212.465 190.947C212.803 191.307 213.225 191.486 213.73 191.486C214.074 191.486 214.363 191.393 214.598 191.205C214.832 191.018 215.009 190.715 215.129 190.299ZM215.254 188.08C215.238 187.445 215.074 186.963 214.762 186.635C214.449 186.301 214.069 186.135 213.621 186.135C213.142 186.135 212.746 186.309 212.434 186.658C212.121 187.007 211.967 187.481 211.973 188.08H215.254ZM218.457 190.572L220.66 190.236C220.754 190.663 220.944 190.989 221.23 191.213C221.517 191.432 221.918 191.541 222.434 191.541C223.001 191.541 223.428 191.437 223.715 191.229C223.908 191.083 224.004 190.887 224.004 190.643C224.004 190.476 223.952 190.338 223.848 190.229C223.738 190.124 223.493 190.028 223.113 189.939C221.342 189.549 220.22 189.192 219.746 188.869C219.09 188.421 218.762 187.799 218.762 187.002C218.762 186.283 219.046 185.679 219.613 185.189C220.181 184.7 221.061 184.455 222.254 184.455C223.389 184.455 224.233 184.64 224.785 185.01C225.337 185.38 225.717 185.926 225.926 186.65L223.855 187.033C223.767 186.71 223.598 186.463 223.348 186.291C223.103 186.119 222.751 186.033 222.293 186.033C221.715 186.033 221.301 186.114 221.051 186.275C220.884 186.39 220.801 186.538 220.801 186.721C220.801 186.877 220.874 187.01 221.02 187.119C221.217 187.265 221.9 187.471 223.066 187.736C224.238 188.002 225.056 188.327 225.52 188.713C225.978 189.104 226.207 189.648 226.207 190.346C226.207 191.106 225.889 191.76 225.254 192.307C224.618 192.854 223.678 193.127 222.434 193.127C221.303 193.127 220.408 192.898 219.746 192.439C219.09 191.981 218.66 191.359 218.457 190.572ZM231.941 184.643V186.393H230.441V189.736C230.441 190.413 230.454 190.809 230.48 190.924C230.512 191.033 230.577 191.124 230.676 191.197C230.78 191.27 230.905 191.307 231.051 191.307C231.254 191.307 231.548 191.236 231.934 191.096L232.121 192.799C231.611 193.018 231.033 193.127 230.387 193.127C229.991 193.127 229.634 193.062 229.316 192.932C228.999 192.796 228.764 192.624 228.613 192.416C228.467 192.202 228.366 191.916 228.309 191.557C228.262 191.301 228.238 190.786 228.238 190.01V186.393H227.23V184.643H228.238V182.994L230.441 181.713V184.643H231.941ZM237.918 192.939V181.486H240.113V192.939H237.918ZM241.863 188.674C241.863 187.945 242.043 187.239 242.402 186.557C242.762 185.874 243.27 185.354 243.926 184.994C244.587 184.635 245.324 184.455 246.137 184.455C247.392 184.455 248.421 184.864 249.223 185.682C250.025 186.494 250.426 187.523 250.426 188.768C250.426 190.023 250.02 191.064 249.207 191.893C248.4 192.715 247.382 193.127 246.152 193.127C245.392 193.127 244.665 192.955 243.973 192.611C243.285 192.268 242.762 191.765 242.402 191.104C242.043 190.437 241.863 189.627 241.863 188.674ZM244.113 188.791C244.113 189.614 244.309 190.244 244.699 190.682C245.09 191.119 245.572 191.338 246.145 191.338C246.717 191.338 247.197 191.119 247.582 190.682C247.973 190.244 248.168 189.609 248.168 188.775C248.168 187.963 247.973 187.338 247.582 186.9C247.197 186.463 246.717 186.244 246.145 186.244C245.572 186.244 245.09 186.463 244.699 186.9C244.309 187.338 244.113 187.968 244.113 188.791ZM254.254 192.939H252.059V184.643H254.098V185.822C254.447 185.265 254.759 184.898 255.035 184.721C255.316 184.544 255.634 184.455 255.988 184.455C256.488 184.455 256.97 184.593 257.434 184.869L256.754 186.783C256.384 186.544 256.04 186.424 255.723 186.424C255.415 186.424 255.155 186.51 254.941 186.682C254.728 186.848 254.559 187.153 254.434 187.596C254.314 188.038 254.254 188.965 254.254 190.377V192.939ZM263.191 190.299L265.379 190.666C265.098 191.468 264.652 192.08 264.043 192.502C263.439 192.919 262.681 193.127 261.77 193.127C260.327 193.127 259.259 192.656 258.566 191.713C258.02 190.958 257.746 190.005 257.746 188.854C257.746 187.479 258.105 186.403 258.824 185.627C259.543 184.846 260.452 184.455 261.551 184.455C262.785 184.455 263.759 184.864 264.473 185.682C265.186 186.494 265.527 187.742 265.496 189.424H259.996C260.012 190.075 260.189 190.583 260.527 190.947C260.866 191.307 261.288 191.486 261.793 191.486C262.137 191.486 262.426 191.393 262.66 191.205C262.895 191.018 263.072 190.715 263.191 190.299ZM263.316 188.08C263.301 187.445 263.137 186.963 262.824 186.635C262.512 186.301 262.132 186.135 261.684 186.135C261.204 186.135 260.809 186.309 260.496 186.658C260.184 187.007 260.03 187.481 260.035 188.08H263.316ZM267.129 184.643H269.152V185.775C269.876 184.895 270.738 184.455 271.738 184.455C272.27 184.455 272.73 184.564 273.121 184.783C273.512 185.002 273.832 185.333 274.082 185.775C274.447 185.333 274.84 185.002 275.262 184.783C275.684 184.564 276.134 184.455 276.613 184.455C277.223 184.455 277.738 184.58 278.16 184.83C278.582 185.075 278.897 185.437 279.105 185.916C279.257 186.27 279.332 186.843 279.332 187.635V192.939H277.137V188.197C277.137 187.374 277.061 186.843 276.91 186.604C276.707 186.291 276.395 186.135 275.973 186.135C275.665 186.135 275.376 186.229 275.105 186.416C274.835 186.604 274.639 186.88 274.52 187.244C274.4 187.604 274.34 188.174 274.34 188.955V192.939H272.145V188.393C272.145 187.585 272.105 187.064 272.027 186.83C271.949 186.596 271.827 186.421 271.66 186.307C271.499 186.192 271.277 186.135 270.996 186.135C270.658 186.135 270.353 186.226 270.082 186.408C269.811 186.59 269.616 186.854 269.496 187.197C269.382 187.541 269.324 188.111 269.324 188.908V192.939H267.129V184.643ZM285.887 192.939V184.643H287.145V185.807C287.405 185.4 287.751 185.075 288.184 184.83C288.616 184.58 289.108 184.455 289.66 184.455C290.275 184.455 290.777 184.583 291.168 184.838C291.564 185.093 291.842 185.45 292.004 185.908C292.66 184.939 293.514 184.455 294.566 184.455C295.389 184.455 296.022 184.684 296.465 185.143C296.908 185.596 297.129 186.296 297.129 187.244V192.939H295.73V187.713C295.73 187.15 295.684 186.747 295.59 186.502C295.501 186.252 295.337 186.051 295.098 185.9C294.858 185.749 294.577 185.674 294.254 185.674C293.671 185.674 293.186 185.869 292.801 186.26C292.415 186.645 292.223 187.265 292.223 188.119V192.939H290.816V187.549C290.816 186.924 290.702 186.455 290.473 186.143C290.243 185.83 289.868 185.674 289.348 185.674C288.952 185.674 288.585 185.778 288.246 185.986C287.913 186.195 287.671 186.499 287.52 186.9C287.368 187.301 287.293 187.88 287.293 188.635V192.939H285.887ZM304.895 190.268L306.348 190.447C306.118 191.296 305.694 191.955 305.074 192.424C304.454 192.893 303.663 193.127 302.699 193.127C301.486 193.127 300.522 192.755 299.809 192.01C299.1 191.26 298.746 190.21 298.746 188.861C298.746 187.465 299.105 186.382 299.824 185.611C300.543 184.84 301.475 184.455 302.621 184.455C303.73 184.455 304.637 184.833 305.34 185.588C306.043 186.343 306.395 187.406 306.395 188.775C306.395 188.859 306.392 188.984 306.387 189.15H300.199C300.251 190.062 300.509 190.76 300.973 191.244C301.436 191.729 302.014 191.971 302.707 191.971C303.223 191.971 303.663 191.835 304.027 191.564C304.392 191.294 304.681 190.861 304.895 190.268ZM300.277 187.994H304.91C304.848 187.296 304.671 186.773 304.379 186.424C303.931 185.882 303.35 185.611 302.637 185.611C301.991 185.611 301.447 185.827 301.004 186.26C300.566 186.692 300.324 187.27 300.277 187.994ZM313.535 191.916C313.014 192.359 312.512 192.671 312.027 192.854C311.548 193.036 311.033 193.127 310.48 193.127C309.569 193.127 308.868 192.906 308.379 192.463C307.889 192.015 307.645 191.445 307.645 190.752C307.645 190.346 307.736 189.976 307.918 189.643C308.105 189.304 308.348 189.033 308.645 188.83C308.947 188.627 309.285 188.473 309.66 188.369C309.936 188.296 310.353 188.226 310.91 188.158C312.046 188.023 312.882 187.861 313.418 187.674C313.423 187.481 313.426 187.359 313.426 187.307C313.426 186.734 313.293 186.33 313.027 186.096C312.668 185.778 312.134 185.619 311.426 185.619C310.764 185.619 310.275 185.736 309.957 185.971C309.645 186.2 309.413 186.609 309.262 187.197L307.887 187.01C308.012 186.421 308.217 185.947 308.504 185.588C308.79 185.223 309.204 184.945 309.746 184.752C310.288 184.554 310.915 184.455 311.629 184.455C312.337 184.455 312.913 184.538 313.355 184.705C313.798 184.872 314.124 185.083 314.332 185.338C314.54 185.588 314.686 185.906 314.77 186.291C314.816 186.531 314.84 186.963 314.84 187.588V189.463C314.84 190.77 314.868 191.598 314.926 191.947C314.988 192.291 315.108 192.622 315.285 192.939H313.816C313.671 192.648 313.577 192.307 313.535 191.916ZM313.418 188.775C312.908 188.984 312.142 189.161 311.121 189.307C310.543 189.39 310.134 189.484 309.895 189.588C309.655 189.692 309.47 189.846 309.34 190.049C309.21 190.247 309.145 190.468 309.145 190.713C309.145 191.088 309.285 191.4 309.566 191.65C309.853 191.9 310.27 192.025 310.816 192.025C311.358 192.025 311.84 191.908 312.262 191.674C312.684 191.434 312.993 191.109 313.191 190.697C313.342 190.38 313.418 189.911 313.418 189.291V188.775ZM317.027 192.939V184.643H318.293V185.822C318.902 184.911 319.783 184.455 320.934 184.455C321.434 184.455 321.892 184.546 322.309 184.729C322.73 184.906 323.046 185.14 323.254 185.432C323.462 185.723 323.608 186.07 323.691 186.471C323.743 186.731 323.77 187.187 323.77 187.838V192.939H322.363V187.893C322.363 187.32 322.309 186.893 322.199 186.611C322.09 186.325 321.895 186.098 321.613 185.932C321.337 185.76 321.012 185.674 320.637 185.674C320.038 185.674 319.52 185.864 319.082 186.244C318.65 186.624 318.434 187.346 318.434 188.408V192.939H317.027ZM328.566 190.119C328.561 189.932 328.559 189.791 328.559 189.697C328.559 189.145 328.637 188.669 328.793 188.268C328.908 187.965 329.092 187.661 329.348 187.354C329.535 187.13 329.871 186.804 330.355 186.377C330.845 185.945 331.163 185.601 331.309 185.346C331.454 185.09 331.527 184.812 331.527 184.51C331.527 183.963 331.314 183.484 330.887 183.072C330.46 182.656 329.936 182.447 329.316 182.447C328.717 182.447 328.217 182.635 327.816 183.01C327.415 183.385 327.152 183.971 327.027 184.768L325.582 184.596C325.712 183.528 326.098 182.71 326.738 182.143C327.384 181.575 328.236 181.291 329.293 181.291C330.413 181.291 331.306 181.596 331.973 182.205C332.639 182.814 332.973 183.551 332.973 184.416C332.973 184.916 332.855 185.377 332.621 185.799C332.387 186.221 331.928 186.734 331.246 187.338C330.788 187.744 330.488 188.044 330.348 188.236C330.207 188.429 330.103 188.65 330.035 188.9C329.967 189.15 329.928 189.557 329.918 190.119H328.566ZM328.48 192.939V191.338H330.082V192.939H328.48Z" fill="black"/>
<path d="M294.672 679.828C294.672 680.505 294.508 681.094 294.18 681.594C293.852 682.094 293.372 682.479 292.742 682.75C292.117 683.021 291.357 683.156 290.461 683.156C290.065 683.156 289.677 683.13 289.297 683.078C288.922 683.026 288.56 682.951 288.211 682.852C287.867 682.747 287.539 682.62 287.227 682.469V680.219C287.768 680.458 288.331 680.674 288.914 680.867C289.497 681.06 290.076 681.156 290.648 681.156C291.044 681.156 291.362 681.104 291.602 681C291.846 680.896 292.023 680.753 292.133 680.57C292.242 680.388 292.297 680.18 292.297 679.945C292.297 679.659 292.201 679.414 292.008 679.211C291.815 679.008 291.549 678.818 291.211 678.641C290.878 678.464 290.5 678.273 290.078 678.07C289.812 677.945 289.523 677.794 289.211 677.617C288.898 677.435 288.602 677.214 288.32 676.953C288.039 676.693 287.807 676.378 287.625 676.008C287.448 675.633 287.359 675.185 287.359 674.664C287.359 673.982 287.516 673.398 287.828 672.914C288.141 672.43 288.586 672.06 289.164 671.805C289.747 671.544 290.435 671.414 291.227 671.414C291.82 671.414 292.385 671.484 292.922 671.625C293.464 671.76 294.029 671.958 294.617 672.219L293.836 674.102C293.31 673.888 292.839 673.724 292.422 673.609C292.005 673.49 291.581 673.43 291.148 673.43C290.846 673.43 290.589 673.479 290.375 673.578C290.161 673.672 290 673.807 289.891 673.984C289.781 674.156 289.727 674.357 289.727 674.586C289.727 674.857 289.805 675.086 289.961 675.273C290.122 675.456 290.362 675.633 290.68 675.805C291.003 675.977 291.404 676.177 291.883 676.406C292.466 676.682 292.964 676.971 293.375 677.273C293.792 677.57 294.112 677.922 294.336 678.328C294.56 678.729 294.672 679.229 294.672 679.828ZM304.57 674.266V683H302.742L302.422 681.883H302.297C302.109 682.18 301.875 682.422 301.594 682.609C301.312 682.797 301.003 682.935 300.664 683.023C300.326 683.112 299.974 683.156 299.609 683.156C298.984 683.156 298.44 683.047 297.977 682.828C297.513 682.604 297.151 682.258 296.891 681.789C296.635 681.32 296.508 680.711 296.508 679.961V674.266H298.891V679.367C298.891 679.992 299.003 680.464 299.227 680.781C299.451 681.099 299.807 681.258 300.297 681.258C300.781 681.258 301.161 681.148 301.438 680.93C301.714 680.706 301.906 680.38 302.016 679.953C302.13 679.521 302.188 678.995 302.188 678.375V674.266H304.57ZM309.453 670.844V673.672C309.453 674 309.443 674.326 309.422 674.648C309.406 674.971 309.385 675.221 309.359 675.398H309.453C309.682 675.039 309.995 674.734 310.391 674.484C310.786 674.229 311.299 674.102 311.93 674.102C312.909 674.102 313.703 674.484 314.312 675.25C314.922 676.016 315.227 677.138 315.227 678.617C315.227 679.612 315.086 680.448 314.805 681.125C314.523 681.797 314.13 682.305 313.625 682.648C313.12 682.987 312.534 683.156 311.867 683.156C311.227 683.156 310.721 683.042 310.352 682.812C309.982 682.583 309.682 682.326 309.453 682.039H309.289L308.891 683H307.07V670.844H309.453ZM311.164 676.008C310.747 676.008 310.417 676.094 310.172 676.266C309.927 676.438 309.747 676.695 309.633 677.039C309.523 677.383 309.464 677.818 309.453 678.344V678.602C309.453 679.451 309.578 680.102 309.828 680.555C310.078 681.003 310.534 681.227 311.195 681.227C311.685 681.227 312.073 681 312.359 680.547C312.651 680.094 312.797 679.44 312.797 678.586C312.797 677.732 312.651 677.089 312.359 676.656C312.068 676.224 311.669 676.008 311.164 676.008ZM327.453 674.102C328.443 674.102 329.19 674.357 329.695 674.867C330.206 675.372 330.461 676.185 330.461 677.305V683H328.07V677.898C328.07 677.273 327.964 676.802 327.75 676.484C327.536 676.167 327.206 676.008 326.758 676.008C326.128 676.008 325.68 676.234 325.414 676.688C325.148 677.135 325.016 677.779 325.016 678.617V683H322.633V677.898C322.633 677.482 322.586 677.133 322.492 676.852C322.398 676.57 322.255 676.359 322.062 676.219C321.87 676.078 321.622 676.008 321.32 676.008C320.878 676.008 320.529 676.12 320.273 676.344C320.023 676.562 319.844 676.888 319.734 677.32C319.63 677.747 319.578 678.271 319.578 678.891V683H317.195V674.266H319.016L319.336 675.383H319.469C319.646 675.081 319.867 674.836 320.133 674.648C320.404 674.461 320.701 674.323 321.023 674.234C321.346 674.146 321.674 674.102 322.008 674.102C322.648 674.102 323.19 674.206 323.633 674.414C324.081 674.622 324.424 674.945 324.664 675.383H324.875C325.135 674.935 325.503 674.609 325.977 674.406C326.456 674.203 326.948 674.102 327.453 674.102ZM335.297 674.266V683H332.914V674.266H335.297ZM334.109 670.844C334.464 670.844 334.768 670.927 335.023 671.094C335.279 671.255 335.406 671.56 335.406 672.008C335.406 672.451 335.279 672.758 335.023 672.93C334.768 673.096 334.464 673.18 334.109 673.18C333.75 673.18 333.443 673.096 333.188 672.93C332.938 672.758 332.812 672.451 332.812 672.008C332.812 671.56 332.938 671.255 333.188 671.094C333.443 670.927 333.75 670.844 334.109 670.844ZM341.484 681.258C341.745 681.258 341.997 681.232 342.242 681.18C342.492 681.128 342.74 681.062 342.984 680.984V682.758C342.729 682.872 342.411 682.966 342.031 683.039C341.656 683.117 341.245 683.156 340.797 683.156C340.276 683.156 339.807 683.073 339.391 682.906C338.979 682.734 338.654 682.44 338.414 682.023C338.18 681.602 338.062 681.016 338.062 680.266V676.055H336.922V675.047L338.234 674.25L338.922 672.406H340.445V674.266H342.891V676.055H340.445V680.266C340.445 680.599 340.539 680.849 340.727 681.016C340.919 681.177 341.172 681.258 341.484 681.258Z" fill="#495057"/>
<rect x="254" y="658" width="122" height="38" rx="3" stroke="#495057" stroke-width="2"/>
<rect x="111.535" y="284.5" width="21" height="21" rx="10.5" fill="white"/>
<rect x="111.535" y="284.5" width="21" height="21" rx="10.5" stroke="#707070" stroke-width="3"/>
<rect x="108.535" y="350.991" width="21" height="21" rx="10.5" fill="white"/>
<rect x="108.535" y="350.991" width="21" height="21" rx="10.5" stroke="#707070" stroke-width="3"/>
<rect x="108.535" y="417.482" width="21" height="21" rx="10.5" fill="white"/>
<rect x="108.535" y="417.482" width="21" height="21" rx="10.5" stroke="#707070" stroke-width="3"/>
<rect x="108.535" y="483.974" width="21" height="21" rx="10.5" fill="white"/>
<rect x="108.535" y="483.974" width="21" height="21" rx="10.5" stroke="#707070" stroke-width="3"/>
<rect x="108.535" y="550.465" width="21" height="21" rx="10.5" fill="white"/>
<rect x="108.535" y="550.465" width="21" height="21" rx="10.5" stroke="#707070" stroke-width="3"/>
<path d="M153.791 287.523H158.017C158.97 287.523 159.697 287.596 160.197 287.742C160.869 287.94 161.444 288.292 161.923 288.797C162.403 289.302 162.767 289.922 163.017 290.656C163.267 291.385 163.392 292.286 163.392 293.359C163.392 294.302 163.275 295.115 163.041 295.797C162.754 296.63 162.345 297.305 161.814 297.82C161.413 298.211 160.871 298.516 160.189 298.734C159.679 298.896 158.996 298.977 158.142 298.977H153.791V287.523ZM156.103 289.461V297.047H157.83C158.475 297.047 158.942 297.01 159.228 296.938C159.603 296.844 159.913 296.685 160.158 296.461C160.408 296.237 160.611 295.87 160.767 295.359C160.923 294.844 161.001 294.143 161.001 293.258C161.001 292.372 160.923 291.693 160.767 291.219C160.611 290.745 160.392 290.375 160.111 290.109C159.83 289.844 159.473 289.664 159.041 289.57C158.718 289.497 158.085 289.461 157.142 289.461H156.103ZM165.345 289.555V287.523H167.541V289.555H165.345ZM165.345 298.977V290.68H167.541V298.977H165.345ZM177.033 293.133L174.869 293.523C174.796 293.091 174.629 292.766 174.369 292.547C174.113 292.328 173.78 292.219 173.369 292.219C172.822 292.219 172.384 292.409 172.056 292.789C171.733 293.164 171.572 293.794 171.572 294.68C171.572 295.664 171.736 296.359 172.064 296.766C172.397 297.172 172.843 297.375 173.4 297.375C173.817 297.375 174.158 297.258 174.423 297.023C174.689 296.784 174.876 296.375 174.986 295.797L177.142 296.164C176.918 297.154 176.488 297.901 175.853 298.406C175.218 298.911 174.366 299.164 173.298 299.164C172.085 299.164 171.116 298.781 170.392 298.016C169.673 297.25 169.314 296.19 169.314 294.836C169.314 293.466 169.676 292.401 170.4 291.641C171.124 290.875 172.103 290.492 173.337 290.492C174.348 290.492 175.15 290.711 175.744 291.148C176.343 291.581 176.772 292.242 177.033 293.133ZM182.509 290.68V292.43H181.009V295.773C181.009 296.451 181.022 296.846 181.048 296.961C181.08 297.07 181.145 297.161 181.244 297.234C181.348 297.307 181.473 297.344 181.619 297.344C181.822 297.344 182.116 297.273 182.501 297.133L182.689 298.836C182.179 299.055 181.6 299.164 180.955 299.164C180.559 299.164 180.202 299.099 179.884 298.969C179.567 298.833 179.332 298.661 179.181 298.453C179.035 298.24 178.934 297.953 178.876 297.594C178.83 297.339 178.806 296.823 178.806 296.047V292.43H177.798V290.68H178.806V289.031L181.009 287.75V290.68H182.509ZM189.494 298.977V297.734C189.192 298.177 188.793 298.526 188.298 298.781C187.809 299.036 187.291 299.164 186.744 299.164C186.186 299.164 185.686 299.042 185.244 298.797C184.801 298.552 184.481 298.208 184.283 297.766C184.085 297.323 183.986 296.711 183.986 295.93V290.68H186.181V294.492C186.181 295.659 186.22 296.375 186.298 296.641C186.382 296.901 186.53 297.109 186.744 297.266C186.957 297.417 187.228 297.492 187.556 297.492C187.931 297.492 188.267 297.391 188.564 297.188C188.861 296.979 189.064 296.724 189.173 296.422C189.283 296.115 189.337 295.367 189.337 294.18V290.68H191.533V298.977H189.494ZM193.65 290.68H195.673V291.812C196.397 290.932 197.259 290.492 198.259 290.492C198.791 290.492 199.251 290.602 199.642 290.82C200.033 291.039 200.353 291.37 200.603 291.812C200.968 291.37 201.361 291.039 201.783 290.82C202.205 290.602 202.655 290.492 203.134 290.492C203.744 290.492 204.259 290.617 204.681 290.867C205.103 291.112 205.418 291.474 205.626 291.953C205.778 292.307 205.853 292.88 205.853 293.672V298.977H203.658V294.234C203.658 293.411 203.582 292.88 203.431 292.641C203.228 292.328 202.916 292.172 202.494 292.172C202.186 292.172 201.897 292.266 201.626 292.453C201.356 292.641 201.16 292.917 201.041 293.281C200.921 293.641 200.861 294.211 200.861 294.992V298.977H198.666V294.43C198.666 293.622 198.626 293.102 198.548 292.867C198.47 292.633 198.348 292.458 198.181 292.344C198.02 292.229 197.798 292.172 197.517 292.172C197.179 292.172 196.874 292.263 196.603 292.445C196.332 292.628 196.137 292.891 196.017 293.234C195.903 293.578 195.845 294.148 195.845 294.945V298.977H193.65V290.68ZM211.541 290.68H212.759V290.055C212.759 289.357 212.832 288.836 212.978 288.492C213.129 288.148 213.403 287.87 213.798 287.656C214.199 287.438 214.705 287.328 215.314 287.328C215.939 287.328 216.551 287.422 217.15 287.609L216.853 289.141C216.504 289.057 216.168 289.016 215.845 289.016C215.528 289.016 215.298 289.091 215.158 289.242C215.022 289.388 214.955 289.672 214.955 290.094V290.68H216.595V292.406H214.955V298.977H212.759V292.406H211.541V290.68ZM223.291 298.977V297.734C222.988 298.177 222.59 298.526 222.095 298.781C221.606 299.036 221.087 299.164 220.541 299.164C219.983 299.164 219.483 299.042 219.041 298.797C218.598 298.552 218.278 298.208 218.08 297.766C217.882 297.323 217.783 296.711 217.783 295.93V290.68H219.978V294.492C219.978 295.659 220.017 296.375 220.095 296.641C220.179 296.901 220.327 297.109 220.541 297.266C220.754 297.417 221.025 297.492 221.353 297.492C221.728 297.492 222.064 297.391 222.361 297.188C222.658 296.979 222.861 296.724 222.97 296.422C223.08 296.115 223.134 295.367 223.134 294.18V290.68H225.33V298.977H223.291ZM226.837 296.609L229.041 296.273C229.134 296.701 229.324 297.026 229.611 297.25C229.897 297.469 230.298 297.578 230.814 297.578C231.382 297.578 231.809 297.474 232.095 297.266C232.288 297.12 232.384 296.924 232.384 296.68C232.384 296.513 232.332 296.375 232.228 296.266C232.119 296.161 231.874 296.065 231.494 295.977C229.723 295.586 228.6 295.229 228.126 294.906C227.47 294.458 227.142 293.836 227.142 293.039C227.142 292.32 227.426 291.716 227.994 291.227C228.561 290.737 229.442 290.492 230.634 290.492C231.77 290.492 232.613 290.677 233.166 291.047C233.718 291.417 234.098 291.964 234.306 292.688L232.236 293.07C232.147 292.747 231.978 292.5 231.728 292.328C231.483 292.156 231.132 292.07 230.673 292.07C230.095 292.07 229.681 292.151 229.431 292.312C229.264 292.427 229.181 292.576 229.181 292.758C229.181 292.914 229.254 293.047 229.4 293.156C229.598 293.302 230.28 293.508 231.447 293.773C232.619 294.039 233.436 294.365 233.9 294.75C234.358 295.141 234.587 295.685 234.587 296.383C234.587 297.143 234.27 297.797 233.634 298.344C232.999 298.891 232.059 299.164 230.814 299.164C229.684 299.164 228.788 298.935 228.126 298.477C227.47 298.018 227.041 297.396 226.837 296.609ZM243.751 293.133L241.587 293.523C241.514 293.091 241.348 292.766 241.087 292.547C240.832 292.328 240.499 292.219 240.087 292.219C239.541 292.219 239.103 292.409 238.775 292.789C238.452 293.164 238.291 293.794 238.291 294.68C238.291 295.664 238.455 296.359 238.783 296.766C239.116 297.172 239.561 297.375 240.119 297.375C240.535 297.375 240.876 297.258 241.142 297.023C241.408 296.784 241.595 296.375 241.705 295.797L243.861 296.164C243.637 297.154 243.207 297.901 242.572 298.406C241.936 298.911 241.085 299.164 240.017 299.164C238.804 299.164 237.835 298.781 237.111 298.016C236.392 297.25 236.033 296.19 236.033 294.836C236.033 293.466 236.395 292.401 237.119 291.641C237.843 290.875 238.822 290.492 240.056 290.492C241.067 290.492 241.869 290.711 242.462 291.148C243.061 291.581 243.491 292.242 243.751 293.133ZM250.228 296.336L252.416 296.703C252.134 297.505 251.689 298.117 251.08 298.539C250.475 298.956 249.718 299.164 248.806 299.164C247.363 299.164 246.296 298.693 245.603 297.75C245.056 296.995 244.783 296.042 244.783 294.891C244.783 293.516 245.142 292.44 245.861 291.664C246.58 290.883 247.488 290.492 248.587 290.492C249.822 290.492 250.796 290.901 251.509 291.719C252.223 292.531 252.564 293.779 252.533 295.461H247.033C247.048 296.112 247.225 296.62 247.564 296.984C247.903 297.344 248.324 297.523 248.83 297.523C249.173 297.523 249.462 297.43 249.697 297.242C249.931 297.055 250.108 296.753 250.228 296.336ZM250.353 294.117C250.337 293.482 250.173 293 249.861 292.672C249.548 292.339 249.168 292.172 248.72 292.172C248.241 292.172 247.845 292.346 247.533 292.695C247.22 293.044 247.067 293.518 247.072 294.117H250.353Z" fill="#49494A"/>
<path d="M152.783 357.015H155.095V363.218C155.095 364.202 155.124 364.84 155.181 365.132C155.28 365.601 155.514 365.978 155.884 366.265C156.259 366.546 156.77 366.687 157.416 366.687C158.072 366.687 158.567 366.554 158.9 366.288C159.233 366.017 159.434 365.687 159.501 365.296C159.569 364.905 159.603 364.257 159.603 363.351V357.015H161.916V363.03C161.916 364.405 161.853 365.377 161.728 365.944C161.603 366.512 161.371 366.991 161.033 367.382C160.699 367.772 160.251 368.085 159.689 368.319C159.126 368.549 158.392 368.663 157.486 368.663C156.392 368.663 155.561 368.538 154.994 368.288C154.431 368.033 153.986 367.705 153.658 367.304C153.33 366.897 153.113 366.473 153.009 366.03C152.858 365.374 152.783 364.405 152.783 363.124V357.015ZM168.15 360.171V361.921H166.65V365.265C166.65 365.942 166.663 366.338 166.689 366.452C166.72 366.562 166.785 366.653 166.884 366.726C166.988 366.799 167.113 366.835 167.259 366.835C167.462 366.835 167.757 366.765 168.142 366.624L168.33 368.327C167.819 368.546 167.241 368.655 166.595 368.655C166.199 368.655 165.843 368.59 165.525 368.46C165.207 368.325 164.973 368.153 164.822 367.944C164.676 367.731 164.574 367.444 164.517 367.085C164.47 366.83 164.447 366.314 164.447 365.538V361.921H163.439V360.171H164.447V358.522L166.65 357.241V360.171H168.15ZM174.064 360.171H176.111V361.39C176.376 360.973 176.736 360.634 177.189 360.374C177.642 360.114 178.145 359.983 178.697 359.983C179.66 359.983 180.478 360.361 181.15 361.116C181.822 361.871 182.158 362.924 182.158 364.272C182.158 365.658 181.819 366.736 181.142 367.507C180.465 368.272 179.645 368.655 178.681 368.655C178.223 368.655 177.806 368.564 177.431 368.382C177.061 368.2 176.671 367.887 176.259 367.444V371.624H174.064V360.171ZM176.236 364.179C176.236 365.111 176.421 365.801 176.791 366.249C177.16 366.692 177.611 366.913 178.142 366.913C178.653 366.913 179.077 366.71 179.416 366.304C179.754 365.892 179.923 365.22 179.923 364.288C179.923 363.418 179.749 362.772 179.4 362.351C179.051 361.929 178.619 361.718 178.103 361.718C177.567 361.718 177.121 361.926 176.767 362.343C176.413 362.754 176.236 363.366 176.236 364.179ZM186.095 357.015V361.226C186.804 360.397 187.65 359.983 188.634 359.983C189.139 359.983 189.595 360.077 190.001 360.265C190.408 360.452 190.712 360.692 190.916 360.983C191.124 361.275 191.264 361.598 191.337 361.952C191.416 362.306 191.455 362.856 191.455 363.601V368.468H189.259V364.085C189.259 363.215 189.218 362.663 189.134 362.429C189.051 362.194 188.903 362.009 188.689 361.874C188.481 361.733 188.218 361.663 187.9 361.663C187.535 361.663 187.21 361.752 186.923 361.929C186.637 362.106 186.426 362.374 186.291 362.733C186.16 363.088 186.095 363.614 186.095 364.312V368.468H183.9V357.015H186.095ZM195.33 362.702L193.337 362.343C193.561 361.541 193.947 360.947 194.494 360.562C195.041 360.176 195.853 359.983 196.931 359.983C197.91 359.983 198.639 360.101 199.119 360.335C199.598 360.564 199.934 360.858 200.126 361.218C200.324 361.572 200.423 362.226 200.423 363.179L200.4 365.741C200.4 366.47 200.434 367.009 200.501 367.358C200.574 367.702 200.707 368.072 200.9 368.468H198.728C198.671 368.322 198.6 368.106 198.517 367.819C198.481 367.689 198.455 367.603 198.439 367.562C198.064 367.926 197.663 368.2 197.236 368.382C196.809 368.564 196.353 368.655 195.869 368.655C195.014 368.655 194.34 368.424 193.845 367.96C193.356 367.496 193.111 366.91 193.111 366.202C193.111 365.733 193.223 365.317 193.447 364.952C193.671 364.582 193.983 364.301 194.384 364.108C194.791 363.91 195.374 363.739 196.134 363.593C197.16 363.4 197.871 363.22 198.267 363.054V362.835C198.267 362.413 198.163 362.114 197.955 361.937C197.746 361.754 197.353 361.663 196.775 361.663C196.384 361.663 196.08 361.741 195.861 361.897C195.642 362.049 195.465 362.317 195.33 362.702ZM198.267 364.483C197.986 364.577 197.541 364.689 196.931 364.819C196.322 364.95 195.923 365.077 195.736 365.202C195.449 365.405 195.306 365.663 195.306 365.976C195.306 366.283 195.421 366.549 195.65 366.772C195.879 366.996 196.171 367.108 196.525 367.108C196.921 367.108 197.298 366.978 197.658 366.718C197.923 366.52 198.098 366.278 198.181 365.991C198.238 365.804 198.267 365.447 198.267 364.921V364.483ZM204.697 368.468H202.501V360.171H204.541V361.351C204.889 360.793 205.202 360.426 205.478 360.249C205.759 360.072 206.077 359.983 206.431 359.983C206.931 359.983 207.413 360.121 207.876 360.397L207.197 362.312C206.827 362.072 206.483 361.952 206.166 361.952C205.858 361.952 205.598 362.038 205.384 362.21C205.171 362.377 205.001 362.681 204.876 363.124C204.757 363.567 204.697 364.494 204.697 365.905V368.468ZM213.634 365.827L215.822 366.194C215.541 366.996 215.095 367.608 214.486 368.03C213.882 368.447 213.124 368.655 212.212 368.655C210.77 368.655 209.702 368.184 209.009 367.241C208.462 366.486 208.189 365.533 208.189 364.382C208.189 363.007 208.548 361.931 209.267 361.155C209.986 360.374 210.895 359.983 211.994 359.983C213.228 359.983 214.202 360.392 214.916 361.21C215.629 362.022 215.97 363.27 215.939 364.952H210.439C210.455 365.603 210.632 366.111 210.97 366.476C211.309 366.835 211.731 367.015 212.236 367.015C212.58 367.015 212.869 366.921 213.103 366.733C213.337 366.546 213.514 366.244 213.634 365.827ZM213.759 363.608C213.744 362.973 213.58 362.491 213.267 362.163C212.955 361.83 212.574 361.663 212.126 361.663C211.647 361.663 211.251 361.838 210.939 362.187C210.626 362.535 210.473 363.009 210.478 363.608H213.759ZM221.541 360.171V361.921H220.041V365.265C220.041 365.942 220.054 366.338 220.08 366.452C220.111 366.562 220.176 366.653 220.275 366.726C220.379 366.799 220.504 366.835 220.65 366.835C220.853 366.835 221.147 366.765 221.533 366.624L221.72 368.327C221.21 368.546 220.632 368.655 219.986 368.655C219.59 368.655 219.233 368.59 218.916 368.46C218.598 368.325 218.363 368.153 218.212 367.944C218.067 367.731 217.965 367.444 217.908 367.085C217.861 366.83 217.837 366.314 217.837 365.538V361.921H216.83V360.171H217.837V358.522L220.041 357.241V360.171H221.541ZM225.166 368.468H222.97V360.171H225.009V361.351C225.358 360.793 225.671 360.426 225.947 360.249C226.228 360.072 226.546 359.983 226.9 359.983C227.4 359.983 227.882 360.121 228.345 360.397L227.666 362.312C227.296 362.072 226.952 361.952 226.634 361.952C226.327 361.952 226.067 362.038 225.853 362.21C225.639 362.377 225.47 362.681 225.345 363.124C225.225 363.567 225.166 364.494 225.166 365.905V368.468ZM230.939 362.702L228.947 362.343C229.171 361.541 229.556 360.947 230.103 360.562C230.65 360.176 231.462 359.983 232.541 359.983C233.52 359.983 234.249 360.101 234.728 360.335C235.207 360.564 235.543 360.858 235.736 361.218C235.934 361.572 236.033 362.226 236.033 363.179L236.009 365.741C236.009 366.47 236.043 367.009 236.111 367.358C236.184 367.702 236.317 368.072 236.509 368.468H234.337C234.28 368.322 234.21 368.106 234.126 367.819C234.09 367.689 234.064 367.603 234.048 367.562C233.673 367.926 233.272 368.2 232.845 368.382C232.418 368.564 231.962 368.655 231.478 368.655C230.624 368.655 229.949 368.424 229.455 367.96C228.965 367.496 228.72 366.91 228.72 366.202C228.72 365.733 228.832 365.317 229.056 364.952C229.28 364.582 229.593 364.301 229.994 364.108C230.4 363.91 230.983 363.739 231.744 363.593C232.77 363.4 233.481 363.22 233.876 363.054V362.835C233.876 362.413 233.772 362.114 233.564 361.937C233.356 361.754 232.962 361.663 232.384 361.663C231.994 361.663 231.689 361.741 231.47 361.897C231.251 362.049 231.074 362.317 230.939 362.702ZM233.876 364.483C233.595 364.577 233.15 364.689 232.541 364.819C231.931 364.95 231.533 365.077 231.345 365.202C231.059 365.405 230.916 365.663 230.916 365.976C230.916 366.283 231.03 366.549 231.259 366.772C231.488 366.996 231.78 367.108 232.134 367.108C232.53 367.108 232.908 366.978 233.267 366.718C233.533 366.52 233.707 366.278 233.791 365.991C233.848 365.804 233.876 365.447 233.876 364.921V364.483ZM241.884 366.101L244.087 365.765C244.181 366.192 244.371 366.517 244.658 366.741C244.944 366.96 245.345 367.069 245.861 367.069C246.429 367.069 246.856 366.965 247.142 366.757C247.335 366.611 247.431 366.416 247.431 366.171C247.431 366.004 247.379 365.866 247.275 365.757C247.166 365.653 246.921 365.556 246.541 365.468C244.77 365.077 243.647 364.72 243.173 364.397C242.517 363.95 242.189 363.327 242.189 362.53C242.189 361.812 242.473 361.207 243.041 360.718C243.608 360.228 244.488 359.983 245.681 359.983C246.817 359.983 247.66 360.168 248.212 360.538C248.764 360.908 249.145 361.455 249.353 362.179L247.283 362.562C247.194 362.239 247.025 361.991 246.775 361.819C246.53 361.647 246.179 361.562 245.72 361.562C245.142 361.562 244.728 361.642 244.478 361.804C244.311 361.918 244.228 362.067 244.228 362.249C244.228 362.405 244.301 362.538 244.447 362.647C244.645 362.793 245.327 362.999 246.494 363.265C247.666 363.53 248.483 363.856 248.947 364.241C249.405 364.632 249.634 365.176 249.634 365.874C249.634 366.634 249.317 367.288 248.681 367.835C248.046 368.382 247.106 368.655 245.861 368.655C244.731 368.655 243.835 368.426 243.173 367.968C242.517 367.509 242.087 366.887 241.884 366.101ZM251.564 359.046V357.015H253.759V359.046H251.564ZM251.564 368.468V360.171H253.759V368.468H251.564ZM259.822 360.171V361.921H258.322V365.265C258.322 365.942 258.335 366.338 258.361 366.452C258.392 366.562 258.457 366.653 258.556 366.726C258.66 366.799 258.785 366.835 258.931 366.835C259.134 366.835 259.429 366.765 259.814 366.624L260.001 368.327C259.491 368.546 258.913 368.655 258.267 368.655C257.871 368.655 257.514 368.59 257.197 368.46C256.879 368.325 256.645 368.153 256.494 367.944C256.348 367.731 256.246 367.444 256.189 367.085C256.142 366.83 256.119 366.314 256.119 365.538V361.921H255.111V360.171H256.119V358.522L258.322 357.241V360.171H259.822Z" fill="#49494A"/>
<path d="M152.466 435.959V424.506H154.716L159.404 432.154V424.506H161.552V435.959H159.232L154.615 428.49V435.959H152.466ZM169.451 435.959V434.717C169.149 435.16 168.75 435.508 168.255 435.764C167.766 436.019 167.248 436.146 166.701 436.146C166.143 436.146 165.643 436.024 165.201 435.779C164.758 435.535 164.438 435.191 164.24 434.748C164.042 434.305 163.943 433.693 163.943 432.912V427.662H166.138V431.475C166.138 432.641 166.177 433.357 166.255 433.623C166.339 433.883 166.487 434.092 166.701 434.248C166.914 434.399 167.185 434.475 167.513 434.475C167.888 434.475 168.224 434.373 168.521 434.17C168.818 433.962 169.021 433.706 169.13 433.404C169.24 433.097 169.294 432.35 169.294 431.162V427.662H171.49V435.959H169.451ZM173.771 435.959V424.506H175.966V435.959H173.771ZM178.224 435.959V424.506H180.419V435.959H178.224ZM184.318 430.193L182.326 429.834C182.55 429.032 182.935 428.438 183.482 428.053C184.029 427.667 184.841 427.475 185.919 427.475C186.899 427.475 187.628 427.592 188.107 427.826C188.586 428.055 188.922 428.35 189.115 428.709C189.313 429.063 189.412 429.717 189.412 430.67L189.388 433.232C189.388 433.962 189.422 434.501 189.49 434.85C189.563 435.193 189.695 435.563 189.888 435.959H187.716C187.659 435.813 187.589 435.597 187.505 435.311C187.469 435.18 187.443 435.094 187.427 435.053C187.052 435.417 186.651 435.691 186.224 435.873C185.797 436.055 185.341 436.146 184.857 436.146C184.003 436.146 183.328 435.915 182.833 435.451C182.344 434.988 182.099 434.402 182.099 433.693C182.099 433.225 182.211 432.808 182.435 432.443C182.659 432.074 182.972 431.792 183.373 431.6C183.779 431.402 184.362 431.23 185.123 431.084C186.149 430.891 186.86 430.712 187.255 430.545V430.326C187.255 429.904 187.151 429.605 186.943 429.428C186.735 429.245 186.341 429.154 185.763 429.154C185.373 429.154 185.068 429.232 184.849 429.389C184.63 429.54 184.453 429.808 184.318 430.193ZM187.255 431.975C186.974 432.068 186.529 432.18 185.919 432.311C185.31 432.441 184.912 432.568 184.724 432.693C184.438 432.896 184.294 433.154 184.294 433.467C184.294 433.774 184.409 434.04 184.638 434.264C184.867 434.488 185.159 434.6 185.513 434.6C185.909 434.6 186.287 434.469 186.646 434.209C186.912 434.011 187.086 433.769 187.169 433.482C187.227 433.295 187.255 432.938 187.255 432.412V431.975ZM191.419 427.662H193.443V428.795C194.167 427.915 195.029 427.475 196.029 427.475C196.56 427.475 197.021 427.584 197.412 427.803C197.802 428.021 198.123 428.352 198.373 428.795C198.737 428.352 199.13 428.021 199.552 427.803C199.974 427.584 200.425 427.475 200.904 427.475C201.513 427.475 202.029 427.6 202.451 427.85C202.873 428.094 203.188 428.456 203.396 428.936C203.547 429.29 203.623 429.863 203.623 430.654V435.959H201.427V431.217C201.427 430.394 201.352 429.863 201.201 429.623C200.998 429.311 200.685 429.154 200.263 429.154C199.956 429.154 199.667 429.248 199.396 429.436C199.125 429.623 198.93 429.899 198.81 430.264C198.69 430.623 198.63 431.193 198.63 431.975V435.959H196.435V431.412C196.435 430.605 196.396 430.084 196.318 429.85C196.24 429.615 196.117 429.441 195.951 429.326C195.789 429.212 195.568 429.154 195.287 429.154C194.948 429.154 194.643 429.245 194.373 429.428C194.102 429.61 193.906 429.873 193.787 430.217C193.672 430.561 193.615 431.131 193.615 431.928V435.959H191.419V427.662ZM215.076 433.318L217.263 433.686C216.982 434.488 216.537 435.1 215.927 435.521C215.323 435.938 214.565 436.146 213.654 436.146C212.211 436.146 211.143 435.675 210.451 434.732C209.904 433.977 209.63 433.024 209.63 431.873C209.63 430.498 209.99 429.423 210.708 428.646C211.427 427.865 212.336 427.475 213.435 427.475C214.669 427.475 215.643 427.883 216.357 428.701C217.07 429.514 217.412 430.761 217.38 432.443H211.88C211.896 433.094 212.073 433.602 212.412 433.967C212.75 434.326 213.172 434.506 213.677 434.506C214.021 434.506 214.31 434.412 214.544 434.225C214.779 434.037 214.956 433.735 215.076 433.318ZM215.201 431.1C215.185 430.464 215.021 429.982 214.708 429.654C214.396 429.321 214.016 429.154 213.568 429.154C213.089 429.154 212.693 429.329 212.38 429.678C212.068 430.027 211.914 430.501 211.919 431.1H215.201ZM218.974 436.506L221.482 436.811C221.524 437.102 221.62 437.303 221.771 437.412C221.979 437.568 222.307 437.646 222.755 437.646C223.328 437.646 223.758 437.561 224.044 437.389C224.237 437.274 224.383 437.089 224.482 436.834C224.55 436.652 224.583 436.316 224.583 435.826V434.615C223.927 435.511 223.099 435.959 222.099 435.959C220.985 435.959 220.102 435.488 219.451 434.545C218.94 433.8 218.685 432.873 218.685 431.764C218.685 430.373 219.018 429.311 219.685 428.576C220.357 427.842 221.19 427.475 222.185 427.475C223.211 427.475 224.057 427.925 224.724 428.826V427.662H226.779V435.107C226.779 436.087 226.698 436.818 226.537 437.303C226.375 437.787 226.149 438.167 225.857 438.443C225.565 438.719 225.175 438.936 224.685 439.092C224.201 439.248 223.586 439.326 222.841 439.326C221.435 439.326 220.438 439.084 219.849 438.6C219.261 438.12 218.966 437.511 218.966 436.771C218.966 436.699 218.969 436.61 218.974 436.506ZM220.935 431.639C220.935 432.519 221.104 433.165 221.443 433.576C221.787 433.982 222.208 434.186 222.708 434.186C223.245 434.186 223.698 433.977 224.068 433.561C224.438 433.139 224.623 432.516 224.623 431.693C224.623 430.834 224.445 430.196 224.091 429.779C223.737 429.363 223.289 429.154 222.748 429.154C222.222 429.154 221.787 429.36 221.443 429.771C221.104 430.178 220.935 430.8 220.935 431.639ZM233.763 433.318L235.951 433.686C235.669 434.488 235.224 435.1 234.615 435.521C234.011 435.938 233.253 436.146 232.341 436.146C230.899 436.146 229.831 435.675 229.138 434.732C228.591 433.977 228.318 433.024 228.318 431.873C228.318 430.498 228.677 429.423 229.396 428.646C230.115 427.865 231.024 427.475 232.123 427.475C233.357 427.475 234.331 427.883 235.044 428.701C235.758 429.514 236.099 430.761 236.068 432.443H230.568C230.583 433.094 230.761 433.602 231.099 433.967C231.438 434.326 231.86 434.506 232.365 434.506C232.708 434.506 232.998 434.412 233.232 434.225C233.466 434.037 233.643 433.735 233.763 433.318ZM233.888 431.1C233.873 430.464 233.708 429.982 233.396 429.654C233.083 429.321 232.703 429.154 232.255 429.154C231.776 429.154 231.38 429.329 231.068 429.678C230.755 430.027 230.602 430.501 230.607 431.1H233.888ZM241.669 427.662V429.412H240.169V432.756C240.169 433.433 240.182 433.829 240.208 433.943C240.24 434.053 240.305 434.144 240.404 434.217C240.508 434.29 240.633 434.326 240.779 434.326C240.982 434.326 241.276 434.256 241.662 434.115L241.849 435.818C241.339 436.037 240.761 436.146 240.115 436.146C239.719 436.146 239.362 436.081 239.044 435.951C238.727 435.816 238.492 435.644 238.341 435.436C238.195 435.222 238.094 434.936 238.037 434.576C237.99 434.321 237.966 433.805 237.966 433.029V429.412H236.958V427.662H237.966V426.014L240.169 424.732V427.662H241.669Z" fill="#49494A"/>
<path d="M152.451 489.997H157.029C157.935 489.997 158.61 490.036 159.052 490.114C159.5 490.187 159.899 490.343 160.248 490.583C160.602 490.823 160.896 491.143 161.13 491.544C161.365 491.94 161.482 492.385 161.482 492.88C161.482 493.416 161.336 493.909 161.044 494.356C160.758 494.804 160.367 495.14 159.873 495.364C160.57 495.567 161.107 495.914 161.482 496.403C161.857 496.893 162.044 497.468 162.044 498.13C162.044 498.651 161.922 499.159 161.677 499.653C161.438 500.143 161.107 500.536 160.685 500.833C160.268 501.125 159.753 501.304 159.138 501.372C158.753 501.414 157.823 501.44 156.349 501.45H152.451V489.997ZM154.763 491.903V494.552H156.279C157.18 494.552 157.74 494.539 157.958 494.513C158.354 494.466 158.664 494.33 158.888 494.106C159.117 493.877 159.232 493.578 159.232 493.208C159.232 492.854 159.133 492.567 158.935 492.349C158.742 492.125 158.453 491.989 158.068 491.942C157.839 491.916 157.18 491.903 156.091 491.903H154.763ZM154.763 496.458V499.521H156.904C157.737 499.521 158.266 499.497 158.49 499.45C158.833 499.388 159.112 499.237 159.326 498.997C159.544 498.752 159.654 498.427 159.654 498.021C159.654 497.677 159.57 497.385 159.404 497.146C159.237 496.906 158.995 496.731 158.677 496.622C158.365 496.513 157.682 496.458 156.63 496.458H154.763ZM163.99 492.028V489.997H166.185V492.028H163.99ZM163.99 501.45V493.153H166.185V501.45H163.99ZM168.349 501.45V489.997H170.544V494.122C171.222 493.351 172.024 492.966 172.951 492.966C173.961 492.966 174.797 493.333 175.458 494.067C176.12 494.797 176.451 495.846 176.451 497.216C176.451 498.632 176.112 499.724 175.435 500.489C174.763 501.255 173.945 501.638 172.982 501.638C172.508 501.638 172.039 501.521 171.576 501.286C171.117 501.047 170.722 500.695 170.388 500.231V501.45H168.349ZM170.529 497.122C170.529 497.981 170.664 498.617 170.935 499.028C171.315 499.612 171.82 499.903 172.451 499.903C172.935 499.903 173.347 499.698 173.685 499.286C174.029 498.869 174.201 498.216 174.201 497.325C174.201 496.377 174.029 495.695 173.685 495.278C173.341 494.856 172.901 494.646 172.365 494.646C171.839 494.646 171.401 494.851 171.052 495.263C170.703 495.669 170.529 496.289 170.529 497.122ZM183.029 498.81L185.216 499.177C184.935 499.979 184.49 500.591 183.88 501.013C183.276 501.429 182.518 501.638 181.607 501.638C180.164 501.638 179.097 501.166 178.404 500.224C177.857 499.468 177.583 498.515 177.583 497.364C177.583 495.989 177.943 494.914 178.662 494.138C179.38 493.356 180.289 492.966 181.388 492.966C182.623 492.966 183.597 493.375 184.31 494.192C185.024 495.005 185.365 496.252 185.333 497.935H179.833C179.849 498.586 180.026 499.093 180.365 499.458C180.703 499.817 181.125 499.997 181.63 499.997C181.974 499.997 182.263 499.903 182.498 499.716C182.732 499.528 182.909 499.226 183.029 498.81ZM183.154 496.591C183.138 495.955 182.974 495.474 182.662 495.146C182.349 494.812 181.969 494.646 181.521 494.646C181.042 494.646 180.646 494.82 180.333 495.169C180.021 495.518 179.867 495.992 179.873 496.591H183.154ZM194.677 501.45H192.482V497.216C192.482 496.32 192.435 495.742 192.341 495.481C192.248 495.216 192.094 495.01 191.88 494.864C191.672 494.718 191.419 494.646 191.123 494.646C190.742 494.646 190.401 494.75 190.099 494.958C189.797 495.166 189.589 495.442 189.474 495.786C189.365 496.13 189.31 496.765 189.31 497.692V501.45H187.115V493.153H189.154V494.372C189.878 493.435 190.789 492.966 191.888 492.966C192.373 492.966 192.815 493.054 193.216 493.231C193.617 493.403 193.919 493.625 194.123 493.896C194.331 494.166 194.474 494.474 194.552 494.817C194.636 495.161 194.677 495.653 194.677 496.294V501.45ZM204.521 501.45H202.482V500.231C202.143 500.705 201.742 501.06 201.279 501.294C200.82 501.523 200.357 501.638 199.888 501.638C198.935 501.638 198.117 501.255 197.435 500.489C196.758 499.718 196.419 498.646 196.419 497.271C196.419 495.864 196.75 494.797 197.412 494.067C198.073 493.333 198.909 492.966 199.919 492.966C200.847 492.966 201.649 493.351 202.326 494.122V489.997H204.521V501.45ZM198.662 497.122C198.662 498.007 198.784 498.648 199.029 499.044C199.383 499.617 199.878 499.903 200.513 499.903C201.018 499.903 201.448 499.69 201.802 499.263C202.156 498.83 202.333 498.187 202.333 497.333C202.333 496.38 202.162 495.695 201.818 495.278C201.474 494.856 201.034 494.646 200.498 494.646C199.977 494.646 199.539 494.854 199.185 495.271C198.836 495.682 198.662 496.299 198.662 497.122ZM212.154 501.45V500.208C211.852 500.651 211.453 501 210.958 501.255C210.469 501.51 209.951 501.638 209.404 501.638C208.847 501.638 208.347 501.515 207.904 501.271C207.461 501.026 207.141 500.682 206.943 500.239C206.745 499.797 206.646 499.185 206.646 498.403V493.153H208.841V496.966C208.841 498.132 208.88 498.849 208.958 499.114C209.042 499.375 209.19 499.583 209.404 499.739C209.617 499.89 209.888 499.966 210.216 499.966C210.591 499.966 210.927 499.864 211.224 499.661C211.521 499.453 211.724 499.198 211.833 498.896C211.943 498.588 211.998 497.841 211.998 496.653V493.153H214.193V501.45H212.154ZM216.31 493.153H218.333V494.286C219.057 493.406 219.919 492.966 220.919 492.966C221.451 492.966 221.912 493.075 222.302 493.294C222.693 493.513 223.013 493.843 223.263 494.286C223.628 493.843 224.021 493.513 224.443 493.294C224.865 493.075 225.315 492.966 225.794 492.966C226.404 492.966 226.919 493.091 227.341 493.341C227.763 493.586 228.078 493.948 228.287 494.427C228.438 494.781 228.513 495.354 228.513 496.146V501.45H226.318V496.708C226.318 495.885 226.242 495.354 226.091 495.114C225.888 494.802 225.576 494.646 225.154 494.646C224.847 494.646 224.557 494.739 224.287 494.927C224.016 495.114 223.82 495.39 223.701 495.755C223.581 496.114 223.521 496.685 223.521 497.466V501.45H221.326V496.903C221.326 496.096 221.287 495.575 221.208 495.341C221.13 495.106 221.008 494.932 220.841 494.817C220.68 494.703 220.458 494.646 220.177 494.646C219.839 494.646 219.534 494.737 219.263 494.919C218.992 495.101 218.797 495.364 218.677 495.708C218.563 496.052 218.505 496.622 218.505 497.419V501.45H216.31V493.153ZM236.802 495.685L234.81 495.325C235.034 494.523 235.419 493.929 235.966 493.544C236.513 493.159 237.326 492.966 238.404 492.966C239.383 492.966 240.112 493.083 240.591 493.317C241.07 493.547 241.406 493.841 241.599 494.2C241.797 494.554 241.896 495.208 241.896 496.161L241.873 498.724C241.873 499.453 241.906 499.992 241.974 500.341C242.047 500.685 242.18 501.054 242.373 501.45H240.201C240.143 501.304 240.073 501.088 239.99 500.802C239.953 500.672 239.927 500.586 239.912 500.544C239.537 500.909 239.136 501.182 238.708 501.364C238.281 501.547 237.826 501.638 237.341 501.638C236.487 501.638 235.813 501.406 235.318 500.942C234.828 500.479 234.583 499.893 234.583 499.185C234.583 498.716 234.695 498.299 234.919 497.935C235.143 497.565 235.456 497.284 235.857 497.091C236.263 496.893 236.847 496.721 237.607 496.575C238.633 496.382 239.344 496.203 239.74 496.036V495.817C239.74 495.396 239.636 495.096 239.427 494.919C239.219 494.737 238.826 494.646 238.248 494.646C237.857 494.646 237.552 494.724 237.333 494.88C237.115 495.031 236.938 495.299 236.802 495.685ZM239.74 497.466C239.458 497.56 239.013 497.672 238.404 497.802C237.794 497.932 237.396 498.06 237.208 498.185C236.922 498.388 236.779 498.646 236.779 498.958C236.779 499.265 236.893 499.531 237.123 499.755C237.352 499.979 237.643 500.091 237.998 500.091C238.393 500.091 238.771 499.961 239.13 499.7C239.396 499.502 239.57 499.26 239.654 498.974C239.711 498.786 239.74 498.429 239.74 497.903V497.466ZM247.873 493.153V494.903H246.373V498.247C246.373 498.924 246.386 499.32 246.412 499.435C246.443 499.544 246.508 499.635 246.607 499.708C246.711 499.781 246.836 499.817 246.982 499.817C247.185 499.817 247.479 499.747 247.865 499.606L248.052 501.31C247.542 501.528 246.964 501.638 246.318 501.638C245.922 501.638 245.565 501.573 245.248 501.442C244.93 501.307 244.695 501.135 244.544 500.927C244.399 500.713 244.297 500.427 244.24 500.067C244.193 499.812 244.169 499.297 244.169 498.521V494.903H243.162V493.153H244.169V491.505L246.373 490.224V493.153H247.873ZM256.13 501.45L252.787 493.153H255.091L256.654 497.388L257.107 498.802C257.227 498.442 257.302 498.205 257.333 498.091C257.406 497.856 257.485 497.622 257.568 497.388L259.146 493.153H261.404L258.107 501.45H256.13ZM264.396 495.685L262.404 495.325C262.628 494.523 263.013 493.929 263.56 493.544C264.107 493.159 264.919 492.966 265.998 492.966C266.977 492.966 267.706 493.083 268.185 493.317C268.664 493.547 269 493.841 269.193 494.2C269.391 494.554 269.49 495.208 269.49 496.161L269.466 498.724C269.466 499.453 269.5 499.992 269.568 500.341C269.641 500.685 269.774 501.054 269.966 501.45H267.794C267.737 501.304 267.667 501.088 267.583 500.802C267.547 500.672 267.521 500.586 267.505 500.544C267.13 500.909 266.729 501.182 266.302 501.364C265.875 501.547 265.419 501.638 264.935 501.638C264.081 501.638 263.406 501.406 262.912 500.942C262.422 500.479 262.177 499.893 262.177 499.185C262.177 498.716 262.289 498.299 262.513 497.935C262.737 497.565 263.05 497.284 263.451 497.091C263.857 496.893 264.44 496.721 265.201 496.575C266.227 496.382 266.938 496.203 267.333 496.036V495.817C267.333 495.396 267.229 495.096 267.021 494.919C266.813 494.737 266.419 494.646 265.841 494.646C265.451 494.646 265.146 494.724 264.927 494.88C264.708 495.031 264.531 495.299 264.396 495.685ZM267.333 497.466C267.052 497.56 266.607 497.672 265.998 497.802C265.388 497.932 264.99 498.06 264.802 498.185C264.516 498.388 264.373 498.646 264.373 498.958C264.373 499.265 264.487 499.531 264.716 499.755C264.945 499.979 265.237 500.091 265.591 500.091C265.987 500.091 266.365 499.961 266.724 499.7C266.99 499.502 267.164 499.26 267.248 498.974C267.305 498.786 267.333 498.429 267.333 497.903V497.466ZM273.763 501.45H271.568V493.153H273.607V494.333C273.956 493.776 274.268 493.409 274.544 493.231C274.826 493.054 275.143 492.966 275.498 492.966C275.998 492.966 276.479 493.104 276.943 493.38L276.263 495.294C275.893 495.054 275.55 494.935 275.232 494.935C274.925 494.935 274.664 495.021 274.451 495.192C274.237 495.359 274.068 495.664 273.943 496.106C273.823 496.549 273.763 497.476 273.763 498.888V501.45ZM277.896 492.028V489.997H280.091V492.028H277.896ZM277.896 501.45V493.153H280.091V501.45H277.896ZM287.81 501.45V500.208C287.508 500.651 287.11 501 286.615 501.255C286.125 501.51 285.607 501.638 285.06 501.638C284.503 501.638 284.003 501.515 283.56 501.271C283.117 501.026 282.797 500.682 282.599 500.239C282.401 499.797 282.302 499.185 282.302 498.403V493.153H284.498V496.966C284.498 498.132 284.537 498.849 284.615 499.114C284.698 499.375 284.847 499.583 285.06 499.739C285.274 499.89 285.544 499.966 285.873 499.966C286.248 499.966 286.583 499.864 286.88 499.661C287.177 499.453 287.38 499.198 287.49 498.896C287.599 498.588 287.654 497.841 287.654 496.653V493.153H289.849V501.45H287.81ZM291.357 499.083L293.56 498.747C293.654 499.174 293.844 499.5 294.13 499.724C294.417 499.942 294.818 500.052 295.333 500.052C295.901 500.052 296.328 499.948 296.615 499.739C296.807 499.593 296.904 499.398 296.904 499.153C296.904 498.987 296.852 498.849 296.748 498.739C296.638 498.635 296.393 498.539 296.013 498.45C294.242 498.06 293.12 497.703 292.646 497.38C291.99 496.932 291.662 496.31 291.662 495.513C291.662 494.794 291.945 494.19 292.513 493.7C293.081 493.211 293.961 492.966 295.154 492.966C296.289 492.966 297.133 493.151 297.685 493.521C298.237 493.89 298.617 494.437 298.826 495.161L296.755 495.544C296.667 495.221 296.498 494.974 296.248 494.802C296.003 494.63 295.651 494.544 295.193 494.544C294.615 494.544 294.201 494.625 293.951 494.786C293.784 494.901 293.701 495.049 293.701 495.231C293.701 495.388 293.774 495.521 293.919 495.63C294.117 495.776 294.8 495.981 295.966 496.247C297.138 496.513 297.956 496.838 298.419 497.224C298.878 497.614 299.107 498.159 299.107 498.856C299.107 499.617 298.789 500.271 298.154 500.817C297.518 501.364 296.578 501.638 295.333 501.638C294.203 501.638 293.307 501.409 292.646 500.95C291.99 500.492 291.56 499.869 291.357 499.083Z" fill="#49494A"/>
<path d="M152.412 568.941V557.488H155.873L157.951 565.301L160.005 557.488H163.474V568.941H161.326V559.926L159.052 568.941H156.826L154.56 559.926V568.941H152.412ZM165.248 564.676C165.248 563.947 165.427 563.241 165.787 562.559C166.146 561.876 166.654 561.355 167.31 560.996C167.972 560.637 168.708 560.457 169.521 560.457C170.776 560.457 171.805 560.866 172.607 561.684C173.409 562.496 173.81 563.525 173.81 564.77C173.81 566.025 173.404 567.066 172.591 567.895C171.784 568.717 170.766 569.129 169.537 569.129C168.776 569.129 168.05 568.957 167.357 568.613C166.669 568.27 166.146 567.767 165.787 567.105C165.427 566.439 165.248 565.629 165.248 564.676ZM167.498 564.793C167.498 565.616 167.693 566.246 168.083 566.684C168.474 567.121 168.956 567.34 169.529 567.34C170.102 567.34 170.581 567.121 170.966 566.684C171.357 566.246 171.552 565.611 171.552 564.777C171.552 563.965 171.357 563.34 170.966 562.902C170.581 562.465 170.102 562.246 169.529 562.246C168.956 562.246 168.474 562.465 168.083 562.902C167.693 563.34 167.498 563.97 167.498 564.793ZM177.638 568.941H175.443V560.645H177.482V561.824C177.831 561.267 178.143 560.9 178.419 560.723C178.701 560.546 179.018 560.457 179.373 560.457C179.873 560.457 180.354 560.595 180.818 560.871L180.138 562.785C179.768 562.546 179.425 562.426 179.107 562.426C178.8 562.426 178.539 562.512 178.326 562.684C178.112 562.85 177.943 563.155 177.818 563.598C177.698 564.04 177.638 564.967 177.638 566.379V568.941ZM181.677 568.941V557.488H183.873V561.613C184.55 560.842 185.352 560.457 186.279 560.457C187.289 560.457 188.125 560.824 188.787 561.559C189.448 562.288 189.779 563.337 189.779 564.707C189.779 566.124 189.44 567.215 188.763 567.98C188.091 568.746 187.274 569.129 186.31 569.129C185.836 569.129 185.367 569.012 184.904 568.777C184.445 568.538 184.05 568.186 183.716 567.723V568.941H181.677ZM183.857 564.613C183.857 565.473 183.992 566.108 184.263 566.52C184.643 567.103 185.149 567.395 185.779 567.395C186.263 567.395 186.675 567.189 187.013 566.777C187.357 566.361 187.529 565.707 187.529 564.816C187.529 563.868 187.357 563.186 187.013 562.77C186.669 562.348 186.229 562.137 185.693 562.137C185.167 562.137 184.729 562.342 184.38 562.754C184.031 563.16 183.857 563.78 183.857 564.613ZM191.552 559.52V557.488H193.748V559.52H191.552ZM191.552 568.941V560.645H193.748V568.941H191.552ZM205.263 566.301L207.451 566.668C207.169 567.47 206.724 568.082 206.115 568.504C205.511 568.921 204.753 569.129 203.841 569.129C202.399 569.129 201.331 568.658 200.638 567.715C200.091 566.96 199.818 566.007 199.818 564.855C199.818 563.48 200.177 562.405 200.896 561.629C201.615 560.848 202.524 560.457 203.623 560.457C204.857 560.457 205.831 560.866 206.544 561.684C207.258 562.496 207.599 563.743 207.568 565.426H202.068C202.083 566.077 202.261 566.585 202.599 566.949C202.938 567.309 203.36 567.488 203.865 567.488C204.208 567.488 204.498 567.395 204.732 567.207C204.966 567.02 205.143 566.717 205.263 566.301ZM205.388 564.082C205.373 563.447 205.208 562.965 204.896 562.637C204.583 562.303 204.203 562.137 203.755 562.137C203.276 562.137 202.88 562.311 202.568 562.66C202.255 563.009 202.102 563.483 202.107 564.082H205.388ZM216.912 568.941H214.716V564.707C214.716 563.811 214.669 563.233 214.576 562.973C214.482 562.707 214.328 562.501 214.115 562.355C213.906 562.21 213.654 562.137 213.357 562.137C212.977 562.137 212.636 562.241 212.333 562.449C212.031 562.658 211.823 562.934 211.708 563.277C211.599 563.621 211.544 564.257 211.544 565.184V568.941H209.349V560.645H211.388V561.863C212.112 560.926 213.024 560.457 214.123 560.457C214.607 560.457 215.05 560.546 215.451 560.723C215.852 560.895 216.154 561.116 216.357 561.387C216.565 561.658 216.708 561.965 216.787 562.309C216.87 562.652 216.912 563.145 216.912 563.785V568.941ZM219.146 559.52V557.488H221.341V559.52H219.146ZM219.146 568.941V560.645H221.341V568.941H219.146ZM223.435 560.645H225.458V561.777C226.182 560.897 227.044 560.457 228.044 560.457C228.576 560.457 229.037 560.566 229.427 560.785C229.818 561.004 230.138 561.335 230.388 561.777C230.753 561.335 231.146 561.004 231.568 560.785C231.99 560.566 232.44 560.457 232.919 560.457C233.529 560.457 234.044 560.582 234.466 560.832C234.888 561.077 235.203 561.439 235.412 561.918C235.563 562.272 235.638 562.845 235.638 563.637V568.941H233.443V564.199C233.443 563.376 233.367 562.845 233.216 562.605C233.013 562.293 232.701 562.137 232.279 562.137C231.972 562.137 231.682 562.23 231.412 562.418C231.141 562.605 230.945 562.882 230.826 563.246C230.706 563.605 230.646 564.176 230.646 564.957V568.941H228.451V564.395C228.451 563.587 228.412 563.066 228.333 562.832C228.255 562.598 228.133 562.423 227.966 562.309C227.805 562.194 227.583 562.137 227.302 562.137C226.964 562.137 226.659 562.228 226.388 562.41C226.117 562.592 225.922 562.855 225.802 563.199C225.688 563.543 225.63 564.113 225.63 564.91V568.941H223.435V560.645Z" fill="#49494A"/>
</g>
<rect x="1.92236" y="1.74121" width="401.5" height="719.5" rx="6.75" stroke="black" stroke-width="2.5"/>
<defs>
<clipPath id="clip0_177_7131">
<rect x="0.672363" y="0.491211" width="404" height="722" rx="8" fill="white"/>
</clipPath>
</defs>
</svg>
