<svg width="1214" height="124" viewBox="0 0 1214 124" fill="none" xmlns="http://www.w3.org/2000/svg">
<path d="M113.598 9.20707L112.848 10.332C111.535 12.3944 109.285 16.3317 109.285 23.8314V99.2029C109.285 107.452 112.098 111.39 113.41 113.265L113.598 113.827C114.91 115.89 114.348 119.639 111.16 119.639H84.724C79.2868 119.639 74.5995 116.077 73.662 110.077C67.2873 115.89 58.6627 119.639 48.3507 119.639C25.2893 119.639 7.10265 107.452 7.10265 78.2039V23.8314C7.10265 15.9568 4.85275 11.832 3.54031 10.1445C3.35282 9.95704 2.97784 9.39456 2.97784 9.20707C1.6654 7.14467 2.22787 3.39484 5.41522 3.39484H44.7884C47.9757 3.39484 48.5382 7.14467 47.2258 9.20707L46.4758 10.332C45.1634 12.0194 43.101 15.9568 43.101 23.8314V78.2039C43.101 92.8282 46.2883 105.203 55.6629 105.203C63.9125 105.203 73.4746 96.578 73.4746 81.7662V23.8314C73.4746 15.3943 70.6622 11.457 69.3497 9.58205L68.9748 8.6446L69.1623 9.20707C68.0373 7.14467 68.0373 3.39484 71.7871 3.39484H111.16C114.16 3.39484 114.723 7.14467 113.598 9.20707ZM111.91 7.89463L111.723 8.08213C112.285 7.14467 112.285 5.64474 111.16 5.64474H71.7871C70.4747 5.64474 70.6622 7.51965 71.2247 8.45711L71.5996 9.20707L71.4121 8.6446C72.7246 10.707 75.7244 14.8318 75.7244 23.8314V81.7662C75.7244 98.0779 65.0374 107.452 55.6629 107.452C44.4134 107.452 40.8511 93.9531 40.8511 78.2039V23.8314C40.8511 15.0193 43.476 10.8945 44.7884 9.01959L45.5384 7.89463L45.3509 8.08213C45.9133 7.14467 45.9133 5.64474 44.7884 5.64474H5.41522C4.47777 5.64474 4.47777 7.14467 4.85275 8.08213L5.41522 9.01959C6.72766 10.8945 9.35254 15.0193 9.35254 23.8314V78.2039C9.35254 105.953 26.4142 117.39 48.3507 117.39C59.2252 117.39 68.4123 112.702 75.7244 105.203C75.7244 112.327 79.8493 117.39 84.724 117.39H111.16C112.285 117.39 112.098 115.515 111.535 114.577L111.16 113.64L111.348 114.202C110.035 112.14 107.035 108.015 107.035 99.2029V23.8314C107.035 15.2068 109.848 10.8945 111.16 9.01959L111.91 7.89463Z" stroke="#BBBBB9" stroke-width="5"/>
<path d="M203.964 47.0803C203.964 57.3923 195.152 60.2047 186.34 60.2047C181.09 60.2047 175.465 59.0797 171.528 57.7673C173.778 47.0803 166.466 37.7057 160.091 37.7057C155.591 37.7057 152.404 39.9556 152.404 45.2054C152.404 51.0176 161.966 55.8924 172.466 61.1422C187.09 68.6418 203.964 76.8914 203.964 92.0782C203.964 108.952 184.09 121.514 161.779 121.514C143.217 121.514 122.405 117.765 119.781 106.14C118.281 95.828 132.53 84.3911 145.279 85.141C150.717 85.3285 151.842 87.3909 151.842 91.3282C151.842 98.6404 158.404 108.765 163.466 108.765C167.966 108.765 171.341 106.515 171.341 101.265C171.341 96.0155 161.404 90.7658 151.654 85.891C137.967 78.9538 119.781 68.4543 119.781 54.3925C119.781 38.0807 137.967 24.9563 167.028 24.9563C188.965 24.9563 203.964 33.9559 203.964 47.0803ZM201.714 47.0803C201.714 35.4559 187.465 27.2062 167.028 27.2062C139.467 27.2062 122.03 39.2057 122.03 54.3925C122.03 68.4543 138.53 77.0789 152.779 84.0161C164.028 89.6408 173.59 94.5156 173.59 101.265C173.59 108.015 169.091 111.015 163.466 111.015C157.279 111.015 149.592 99.7654 149.592 91.3282C149.592 88.8909 148.842 87.5784 145.279 87.3909C133.467 86.641 120.155 96.578 122.03 105.765C123.905 116.265 143.779 119.264 161.779 119.264C182.965 119.264 201.714 107.827 201.714 92.0782C201.714 78.3914 185.402 70.1417 171.341 63.0171C160.466 57.5798 150.154 52.1426 150.154 45.2054C150.154 38.4557 154.466 35.4559 160.091 35.4559C167.216 35.4559 175.653 45.2054 174.153 56.2674C177.34 57.2048 182.028 57.9548 186.34 57.9548C194.027 57.9548 201.714 55.5174 201.714 47.0803Z" stroke="#BBBBB9" stroke-width="5"/>
<path d="M298.574 55.5174C298.574 62.4546 295.949 68.2668 285.075 70.1417L247.764 76.7039C251.326 87.5784 259.201 90.9533 267.45 90.9533C276.075 90.9533 284.887 87.2034 289.387 83.8286C293.887 80.6412 298.574 83.6411 298.574 87.7659C298.574 109.515 276.262 121.514 256.388 121.514C230.14 121.514 208.578 105.765 208.578 73.1416C208.578 40.5181 230.14 24.9563 256.388 24.9563C285.262 24.9563 298.574 42.2055 298.574 55.5174ZM296.324 55.5174C296.324 43.3305 283.762 27.2062 256.388 27.2062C231.265 27.2062 210.828 42.018 210.828 73.1416C210.828 104.265 231.265 119.264 256.388 119.264C275.138 119.264 296.324 108.015 296.324 87.7659C296.324 85.7035 293.324 84.5786 290.887 85.7035C286.199 89.0784 276.637 93.2032 267.45 93.2032C257.888 93.2032 248.701 88.7034 244.764 74.829L284.7 67.8918C293.512 66.0169 296.324 61.1422 296.324 55.5174ZM262.951 63.392C259.013 64.142 243.639 66.7669 243.639 66.7669C243.264 64.142 243.264 62.6421 243.264 61.3296C243.264 47.6428 249.264 35.4559 255.263 35.4559C261.076 35.4559 265.575 43.893 268.575 53.2675C268.575 53.455 268.763 53.6425 268.763 53.83C269.7 56.8299 271.013 61.8921 262.951 63.392ZM262.576 61.1422C268.2 60.0172 267.075 56.4549 266.513 54.58C266.513 54.3925 266.325 54.3925 266.325 54.0175C263.701 45.3929 259.763 37.7057 255.263 37.7057C250.389 37.7057 245.514 48.7677 245.514 61.3296C245.514 62.6421 245.326 62.8296 245.514 64.142L262.576 61.1422Z" stroke="#BBBBB9" stroke-width="5"/>
<path d="M372.223 26.8312C385.535 26.8312 393.222 33.206 393.222 42.393C393.222 56.6424 373.91 65.4545 362.098 65.4545C362.098 56.8299 356.286 51.0176 350.099 51.0176C347.286 51.0176 344.099 52.5176 341.662 55.3299V103.328C341.662 108.765 342.974 112.515 343.912 113.827C345.037 115.89 344.662 119.639 341.287 119.639H308.288C304.913 119.639 304.538 115.89 305.663 113.827C306.601 112.515 307.913 108.765 307.913 103.328V49.3302C307.913 44.2679 305.663 40.5181 304.726 39.2057V39.3932C303.226 37.3308 303.039 33.3934 307.351 32.456L339.787 26.8312C343.724 26.2688 345.037 28.1437 344.474 31.331L343.537 34.7059C342.787 37.1433 341.849 40.3306 341.662 45.0179C346.162 37.7057 357.411 26.8312 372.223 26.8312ZM372.223 29.0811C354.599 29.0811 342.787 45.2054 341.662 50.6426L339.412 50.4551V48.2053C339.412 41.6431 340.537 36.5808 341.474 33.5809L342.224 30.9561C342.412 29.8311 341.474 29.0811 340.162 29.0811L307.726 34.7059C305.851 35.2684 305.851 37.1433 306.601 38.0807C307.538 39.5807 310.163 43.7055 310.163 49.3302V103.328C310.163 108.952 308.476 113.265 307.538 114.952C307.163 115.89 307.163 117.39 308.288 117.39H341.287C342.412 117.39 342.412 115.89 342.037 114.952C341.099 113.265 339.412 108.952 339.412 103.328V54.205C342.599 50.4551 346.349 48.7677 350.099 48.7677C357.224 48.7677 363.973 54.205 364.348 63.2046C374.848 62.6421 390.972 54.7675 390.972 42.393C390.972 34.7059 384.035 29.0811 372.223 29.0811Z" stroke="#BBBBB9" stroke-width="5"/>
<path d="M508.271 2.2699C533.02 2.2699 547.269 15.9568 547.269 33.7684C547.269 63.767 516.333 73.3291 492.334 80.4538L488.21 81.7662V99.2029C488.21 106.89 490.46 111.202 491.772 113.077C492.147 113.452 492.522 113.827 492.522 114.202C493.647 116.265 492.897 119.639 489.897 119.639H450.524C447.337 119.639 446.774 115.89 448.086 113.827L447.899 114.39C447.899 114.765 448.461 113.452 448.649 113.077C449.961 111.202 452.211 106.89 452.211 99.2029V23.8314C452.211 15.9568 449.961 11.832 448.649 10.1445C448.461 9.95704 448.086 9.39456 448.086 9.20707C446.774 7.14467 447.337 3.39484 450.524 3.39484H466.086C473.023 3.39484 481.46 3.20735 489.335 2.83238C496.459 2.64488 503.209 2.2699 508.271 2.2699ZM508.271 4.51979C503.209 4.51979 496.459 4.89477 489.335 5.08226C481.835 5.45725 472.648 5.64474 466.086 5.64474H450.524C449.586 5.64474 449.586 7.14467 449.961 8.08213L450.524 9.01959C451.836 10.8945 454.461 15.0193 454.461 23.8314V99.2029C454.461 108.202 451.461 112.515 450.336 114.39L450.149 114.577C449.586 115.515 449.399 117.39 450.524 117.39H489.897C491.022 117.39 490.834 115.515 490.272 114.577C490.272 114.577 490.085 114.577 490.085 114.39C488.96 112.702 485.96 108.39 485.96 99.2029V79.8913L491.959 78.2039H491.772C515.021 71.0792 545.019 61.8921 545.019 33.7684C545.019 17.0817 531.52 4.51979 508.271 4.51979ZM485.96 72.0166V12.9569H491.397C505.084 12.9569 508.271 29.2686 508.271 40.1431C508.271 50.8301 500.397 66.0169 485.96 72.0166ZM488.21 15.2068V68.6418C499.647 62.8296 506.021 49.7052 506.021 40.1431C506.021 30.0186 503.209 15.2068 491.397 15.2068H488.21Z" stroke="#BBBBB9" stroke-width="5"/>
<path d="M637.12 55.5174C637.12 62.4546 634.495 68.2668 623.621 70.1417L586.31 76.7039C589.872 87.5784 597.747 90.9533 605.997 90.9533C614.621 90.9533 623.433 87.2034 627.933 83.8286C632.433 80.6412 637.12 83.6411 637.12 87.7659C637.12 109.515 614.809 121.514 594.935 121.514C568.686 121.514 547.124 105.765 547.124 73.1416C547.124 40.5181 568.686 24.9563 594.935 24.9563C623.808 24.9563 637.12 42.2055 637.12 55.5174ZM634.87 55.5174C634.87 43.3305 622.308 27.2062 594.935 27.2062C569.811 27.2062 549.374 42.018 549.374 73.1416C549.374 104.265 569.811 119.264 594.935 119.264C613.684 119.264 634.87 108.015 634.87 87.7659C634.87 85.7035 631.87 84.5786 629.433 85.7035C624.746 89.0784 615.184 93.2032 605.997 93.2032C596.435 93.2032 587.247 88.7034 583.31 74.829L623.246 67.8918C632.058 66.0169 634.87 61.1422 634.87 55.5174ZM601.497 63.392C597.559 64.142 582.185 66.7669 582.185 66.7669C581.81 64.142 581.81 62.6421 581.81 61.3296C581.81 47.6428 587.81 35.4559 593.81 35.4559C599.622 35.4559 604.122 43.893 607.122 53.2675C607.122 53.455 607.309 53.6425 607.309 53.83C608.246 56.8299 609.559 61.8921 601.497 63.392ZM601.122 61.1422C606.747 60.0172 605.622 56.4549 605.059 54.58C605.059 54.3925 604.872 54.3925 604.872 54.0175C602.247 45.3929 598.309 37.7057 593.81 37.7057C588.935 37.7057 584.06 48.7677 584.06 61.3296C584.06 62.6421 583.873 62.8296 584.06 64.142L601.122 61.1422Z" stroke="#BBBBB9" stroke-width="5"/>
<path d="M710.769 26.8312C724.081 26.8312 731.768 33.206 731.768 42.393C731.768 56.6424 712.457 65.4545 700.645 65.4545C700.645 56.8299 694.832 51.0176 688.645 51.0176C685.833 51.0176 682.645 52.5176 680.208 55.3299V103.328C680.208 108.765 681.52 112.515 682.458 113.827C683.583 115.89 683.208 119.639 679.833 119.639H646.835C643.46 119.639 643.085 115.89 644.21 113.827C645.147 112.515 646.46 108.765 646.46 103.328V49.3302C646.46 44.2679 644.21 40.5181 643.272 39.2057V39.3932C641.772 37.3308 641.585 33.3934 645.897 32.456L678.333 26.8312C682.27 26.2688 683.583 28.1437 683.02 31.331L682.083 34.7059C681.333 37.1433 680.395 40.3306 680.208 45.0179C684.708 37.7057 695.957 26.8312 710.769 26.8312ZM710.769 29.0811C693.145 29.0811 681.333 45.2054 680.208 50.6426L677.958 50.4551V48.2053C677.958 41.6431 679.083 36.5808 680.021 33.5809L680.77 30.9561C680.958 29.8311 680.021 29.0811 678.708 29.0811L646.272 34.7059C644.397 35.2684 644.397 37.1433 645.147 38.0807C646.085 39.5807 648.709 43.7055 648.709 49.3302V103.328C648.709 108.952 647.022 113.265 646.085 114.952C645.71 115.89 645.71 117.39 646.835 117.39H679.833C680.958 117.39 680.958 115.89 680.583 114.952C679.646 113.265 677.958 108.952 677.958 103.328V54.205C681.145 50.4551 684.895 48.7677 688.645 48.7677C695.77 48.7677 702.519 54.205 702.894 63.2046C713.394 62.6421 729.518 54.7675 729.518 42.393C729.518 34.7059 722.581 29.0811 710.769 29.0811Z" stroke="#BBBBB9" stroke-width="5"/>
<path d="M820.451 47.0803C820.451 57.3923 811.639 60.2047 802.827 60.2047C797.578 60.2047 791.953 59.0797 788.015 57.7673C790.265 47.0803 782.953 37.7057 776.578 37.7057C772.079 37.7057 768.891 39.9556 768.891 45.2054C768.891 51.0176 778.453 55.8924 788.953 61.1422C803.577 68.6418 820.451 76.8914 820.451 92.0782C820.451 108.952 800.577 121.514 778.266 121.514C759.704 121.514 738.893 117.765 736.268 106.14C734.768 95.828 749.017 84.3911 761.767 85.141C767.204 85.3285 768.329 87.3909 768.329 91.3282C768.329 98.6404 774.891 108.765 779.953 108.765C784.453 108.765 787.828 106.515 787.828 101.265C787.828 96.0155 777.891 90.7658 768.141 85.891C754.455 78.9538 736.268 68.4543 736.268 54.3925C736.268 38.0807 754.455 24.9563 783.516 24.9563C805.452 24.9563 820.451 33.9559 820.451 47.0803ZM818.202 47.0803C818.202 35.4559 803.952 27.2062 783.516 27.2062C755.954 27.2062 738.518 39.2057 738.518 54.3925C738.518 68.4543 755.017 77.0789 769.266 84.0161C780.516 89.6408 790.078 94.5156 790.078 101.265C790.078 108.015 785.578 111.015 779.953 111.015C773.766 111.015 766.079 99.7654 766.079 91.3282C766.079 88.8909 765.329 87.5784 761.767 87.3909C749.955 86.641 736.643 96.578 738.518 105.765C740.393 116.265 760.267 119.264 778.266 119.264C799.452 119.264 818.202 107.827 818.202 92.0782C818.202 78.3914 801.89 70.1417 787.828 63.0171C776.954 57.5798 766.641 52.1426 766.641 45.2054C766.641 38.4557 770.954 35.4559 776.578 35.4559C783.703 35.4559 792.14 45.2054 790.64 56.2674C793.828 57.2048 798.515 57.9548 802.827 57.9548C810.514 57.9548 818.202 55.5174 818.202 47.0803Z" stroke="#BBBBB9" stroke-width="5"/>
<path d="M872.876 24.9563C899.312 24.9563 920.874 40.5181 920.874 73.1416C920.874 105.765 899.312 121.514 872.876 121.514C846.627 121.514 825.065 105.765 825.065 73.1416C825.065 40.5181 846.627 24.9563 872.876 24.9563ZM872.876 27.2062C847.752 27.2062 827.315 42.018 827.315 73.1416C827.315 104.265 847.752 119.264 872.876 119.264C898.187 119.264 918.624 104.265 918.624 73.1416C918.624 42.018 898.187 27.2062 872.876 27.2062ZM872.876 108.765C880.75 108.765 883.375 92.8282 883.375 73.1416C883.375 53.6425 880.75 37.7057 872.876 37.7057C865.189 37.7057 862.564 53.455 862.564 73.1416C862.564 92.8282 865.189 108.765 872.876 108.765ZM872.876 111.015C863.689 111.015 860.314 93.9531 860.314 73.1416C860.314 52.3301 863.689 35.4559 872.876 35.4559C882.25 35.4559 885.625 52.5176 885.625 73.1416C885.625 93.9531 882.25 111.015 872.876 111.015Z" stroke="#BBBBB9" stroke-width="5"/>
<path d="M1022.53 113.827C1023.84 115.89 1023.28 119.639 1020.09 119.639H987.092C983.529 119.639 983.154 115.89 984.467 113.827C985.217 112.702 986.717 108.952 986.717 103.328V64.3295C986.717 54.9549 981.279 51.7676 975.28 51.7676C970.967 51.7676 966.468 53.2675 963.093 55.3299V103.328C963.093 108.765 964.405 112.515 965.343 113.827C966.468 115.89 966.093 119.639 962.718 119.639H929.719C926.344 119.639 925.969 115.89 927.094 113.827C928.032 112.515 929.344 108.765 929.344 103.328V49.3302C929.344 44.2679 927.094 40.5181 926.157 39.2057V39.3932C924.657 37.3308 924.47 33.3934 928.782 32.456L961.218 26.8312C965.155 26.2688 966.468 28.1437 965.905 31.331L964.968 34.7059C964.218 37.1433 963.28 40.5181 963.093 45.3929C968.53 36.7683 980.154 26.8312 993.279 26.8312C1009.03 26.8312 1020.47 38.6432 1020.47 55.8924V103.328C1020.47 108.952 1021.78 112.702 1022.53 113.827ZM1020.65 114.952C1019.9 113.452 1018.22 109.327 1018.22 103.328V55.8924C1018.22 40.1431 1007.9 29.0811 993.279 29.0811C979.03 29.0811 966.28 42.2055 962.905 51.0176L960.843 50.6426V48.2053C960.843 41.6431 961.968 36.5808 962.905 33.5809L963.655 30.9561C963.843 29.8311 962.905 29.0811 961.593 29.0811L929.157 34.7059C927.282 35.2684 927.282 37.1433 928.032 38.0807C928.969 39.5807 931.594 43.7055 931.594 49.3302V103.328C931.594 108.952 929.907 113.265 928.969 114.952C928.594 115.89 928.594 117.39 929.719 117.39H962.718C963.843 117.39 963.843 115.89 963.468 114.952C962.53 113.265 960.843 108.952 960.843 103.328V54.205C964.968 51.3926 970.405 49.5177 975.28 49.5177C982.404 49.5177 988.967 53.455 988.967 64.3295V103.328C988.967 109.515 987.092 113.64 986.342 114.952C985.779 115.89 985.779 117.39 987.092 117.39H1020.09C1021.22 117.39 1021.22 115.89 1020.65 114.952Z" stroke="#BBBBB9" stroke-width="5"/>
<path d="M1117.19 98.0779H1117.37C1121.12 98.8279 1121.87 99.5779 1121.87 102.953C1121.69 109.14 1115.12 119.639 1100.69 119.639C1090.38 119.639 1082.13 115.515 1080.25 106.89C1075.94 113.64 1069.56 119.639 1057.19 119.639C1042.94 119.639 1027.75 112.14 1027.75 94.5156C1027.75 77.2664 1050.82 67.3294 1068.25 67.3294C1072.94 67.3294 1076.69 67.8918 1080.06 69.3918V62.4546C1080.06 53.455 1076.69 39.5807 1069.56 39.5807C1064.5 39.5807 1063 44.0804 1063 49.1427C1063 55.8924 1066 65.0795 1066 65.0795C1066 65.0795 1056.25 67.5169 1047.82 67.5169C1040.69 67.5169 1033.57 65.8294 1030 60.7672C1028.5 58.5173 1027.75 55.7049 1027.75 53.455C1027.75 40.1431 1048.75 26.8312 1071.81 26.8312C1097.31 26.8312 1113.81 39.2057 1113.81 59.4547V90.5783C1113.81 95.4531 1115.31 97.8904 1117.19 98.0779ZM1117 100.328C1114 99.9528 1111.56 96.578 1111.56 90.5783V59.4547C1111.56 40.7056 1095.81 29.0811 1071.81 29.0811C1049.88 29.0811 1030 41.2681 1030 53.455C1030 55.5174 1030.57 57.5798 1031.88 59.6422C1034.88 63.9545 1041.44 65.267 1047.82 65.267C1054.38 65.267 1063 63.5795 1063 63.5795C1062.25 61.1422 1060.75 55.1424 1060.75 49.1427C1060.75 42.9555 1062.63 37.3308 1069.56 37.3308C1078.19 37.3308 1082.31 52.705 1082.31 62.4546V72.9541C1078 70.7042 1073.13 69.5793 1068.25 69.5793C1051.94 69.5793 1030 78.7663 1030 94.5156C1030 110.64 1044.07 117.39 1057.19 117.39C1069.75 117.39 1077.44 109.515 1082.13 101.265C1082.31 113.077 1090.19 117.39 1100.69 117.39C1113.62 117.39 1119.44 108.39 1119.62 102.953C1119.62 101.078 1119.25 100.89 1117 100.328ZM1082.31 99.2029C1079.13 100.89 1061.31 101.265 1061.31 89.8283C1061.31 76.8914 1075.38 74.829 1082.31 74.829V99.2029ZM1080.06 97.5155V77.0789C1074.06 77.2664 1063.56 79.1413 1063.56 89.8283C1063.56 99.0154 1077.44 98.2654 1080.06 97.5155Z" stroke="#BBBBB9" stroke-width="5"/>
<path d="M1211.91 47.0803C1211.91 57.3923 1203.1 60.2047 1194.29 60.2047C1189.04 60.2047 1183.41 59.0797 1179.48 57.7673C1181.73 47.0803 1174.41 37.7057 1168.04 37.7057C1163.54 37.7057 1160.35 39.9556 1160.35 45.2054C1160.35 51.0176 1169.91 55.8924 1180.41 61.1422C1195.04 68.6418 1211.91 76.8914 1211.91 92.0782C1211.91 108.952 1192.04 121.514 1169.73 121.514C1151.17 121.514 1130.35 117.765 1127.73 106.14C1126.23 95.828 1140.48 84.3911 1153.23 85.141C1158.67 85.3285 1159.79 87.3909 1159.79 91.3282C1159.79 98.6404 1166.35 108.765 1171.41 108.765C1175.91 108.765 1179.29 106.515 1179.29 101.265C1179.29 96.0155 1169.35 90.7658 1159.6 85.891C1145.92 78.9538 1127.73 68.4543 1127.73 54.3925C1127.73 38.0807 1145.92 24.9563 1174.98 24.9563C1196.91 24.9563 1211.91 33.9559 1211.91 47.0803ZM1209.66 47.0803C1209.66 35.4559 1195.41 27.2062 1174.98 27.2062C1147.42 27.2062 1129.98 39.2057 1129.98 54.3925C1129.98 68.4543 1146.48 77.0789 1160.73 84.0161C1171.98 89.6408 1181.54 94.5156 1181.54 101.265C1181.54 108.015 1177.04 111.015 1171.41 111.015C1165.23 111.015 1157.54 99.7654 1157.54 91.3282C1157.54 88.8909 1156.79 87.5784 1153.23 87.3909C1141.42 86.641 1128.1 96.578 1129.98 105.765C1131.85 116.265 1151.73 119.264 1169.73 119.264C1190.91 119.264 1209.66 107.827 1209.66 92.0782C1209.66 78.3914 1193.35 70.1417 1179.29 63.0171C1168.41 57.5798 1158.1 52.1426 1158.1 45.2054C1158.1 38.4557 1162.41 35.4559 1168.04 35.4559C1175.16 35.4559 1183.6 45.2054 1182.1 56.2674C1185.29 57.2048 1189.98 57.9548 1194.29 57.9548C1201.98 57.9548 1209.66 55.5174 1209.66 47.0803Z" stroke="#BBBBB9" stroke-width="5"/>
</svg>
