<svg width="303" height="90" viewBox="0 0 303 90" fill="none" xmlns="http://www.w3.org/2000/svg">
<mask id="path-1-outside-1_713_675" maskUnits="userSpaceOnUse" x="0.938965" y="0.528076" width="302" height="89" fill="#cf941c">
<rect fill="white" x="0.938965" y="0.528076" width="302" height="89"/>
<path d="M49.6048 51.7361C51.1408 55.9601 52.8688 57.5921 53.7328 58.4561L54.2128 58.9361C55.0768 59.9921 55.6528 62.3921 52.8688 62.3921H29.9248C28.2928 62.3921 27.7168 60.8561 27.8128 59.8001C27.9088 59.2241 28.1968 58.5521 28.4848 57.8801L28.3888 57.9761C28.9648 56.6321 29.8288 55.0001 29.8288 50.8721C29.8288 47.7041 29.8288 38.8721 28.0048 35.5121C26.3728 37.6241 24.4528 39.7361 22.8208 41.8481V51.9281C22.8208 55.8641 23.9728 58.0721 24.6448 59.0321C24.8368 59.2241 25.0288 59.4161 25.0288 59.6081C25.6048 60.6641 25.2208 62.3921 23.6848 62.3921H3.52482C1.89282 62.3921 1.60482 60.4721 2.27682 59.4161L2.18082 59.7041C2.18082 59.8961 2.46882 59.2241 2.56482 59.0321C3.23682 58.0721 4.38882 55.8641 4.38882 51.9281V13.3361C4.38882 9.30408 3.23682 7.19208 2.56482 6.32808C2.46882 6.23208 2.27682 5.94408 2.27682 5.84808C1.60482 4.79208 1.89282 2.87208 3.52482 2.87208H23.6848C25.3168 2.87208 25.6048 4.79208 24.9328 5.84808L24.5488 6.42408C23.8768 7.28808 22.8208 9.30408 22.8208 13.3361V31.2881L34.3408 16.9841C35.2048 15.7361 35.6848 14.4881 35.6848 13.4321C35.6848 10.9361 34.2448 8.72808 33.1888 7.19208L32.2288 5.56008C31.5568 3.92808 32.8048 2.87208 34.4368 2.87208H53.1568C55.5568 2.87208 55.7488 4.69608 53.7328 6.04008L53.8288 5.94408L53.3488 6.32808C52.1008 7.19208 49.0288 9.40008 45.3808 13.7201L32.2288 30.2321C32.9968 30.0401 33.4768 30.0401 34.4368 30.0401C37.9888 30.0401 42.7888 32.4401 45.3808 40.3121L49.6048 51.7361ZM48.4528 52.1201L44.2288 40.6961C41.8288 32.9201 37.7008 31.1921 34.4368 31.1921C32.7088 31.1921 31.2688 31.5761 30.4048 31.9601L29.8288 31.1921L44.4208 12.9521C48.0688 8.53608 51.3328 6.23208 52.7728 5.36808L52.6768 5.46408L53.1568 5.08008C53.8288 4.60008 53.8288 4.02408 53.1568 4.02408H34.4368C33.6688 4.02408 33.0928 4.50408 33.3808 5.27208C33.4768 5.65607 33.7648 5.94408 34.1488 6.61608C35.2048 8.24808 36.8368 10.6481 36.8368 13.4321C36.8368 14.8721 36.4528 16.3121 35.3008 17.7521L21.6688 34.7441V13.3361C21.6688 8.82408 23.0128 6.71208 23.6848 5.75208L24.0688 5.17607L23.9728 5.27208C24.2608 4.79208 24.2608 4.02408 23.6848 4.02408H3.52482C3.04482 4.02408 3.04482 4.79208 3.23682 5.27208L3.52482 5.75208C4.19682 6.71208 5.54082 8.82408 5.54082 13.3361V51.9281C5.54082 56.5361 4.00482 58.7441 3.42882 59.7041L3.33282 59.8001C3.04482 60.2801 2.94882 61.2401 3.52482 61.2401H23.6848C24.2608 61.2401 24.1648 60.2801 23.8768 59.8001C23.8768 59.8001 23.7808 59.8001 23.7808 59.7041C23.2048 58.8401 21.6688 56.6321 21.6688 51.9281V41.3681L28.0048 33.4001C30.9808 35.7041 30.9808 47.3201 30.9808 50.8721C30.9808 55.2881 30.0208 57.0161 29.4448 58.4561C29.1568 58.9361 29.0608 59.4161 28.9648 59.9921C28.8688 60.4721 29.1568 61.2401 29.9248 61.2401H52.8688C54.0208 61.2401 53.7328 60.1841 53.3488 59.7041H53.4448L52.9648 59.2241C51.9088 58.1681 49.9888 56.3441 48.4528 52.1201Z"/>
<path d="M132.367 59.4161C132.943 60.4721 132.847 62.3921 131.023 62.3921H114.127C112.591 62.3921 112.303 60.4721 112.879 59.4161C113.263 58.7441 113.935 56.8241 113.935 54.0401V34.0721C113.935 29.2721 111.247 27.6401 108.175 27.6401C105.967 27.6401 103.663 28.4081 101.935 29.4641V54.0401C101.935 56.8241 102.607 58.7441 102.991 59.4161C103.567 60.4721 103.279 62.3921 101.743 62.3921H84.8466C82.9266 62.3921 82.9266 60.4721 83.5026 59.4161C83.8866 58.8401 84.6546 56.9201 84.6546 54.0401V19.8641C81.4866 22.2641 75.4386 25.3361 69.3906 25.3361C67.5666 25.3361 65.6466 25.0481 63.9186 24.4721C59.6946 22.9361 57.4866 19.5761 57.4866 16.2161C57.4866 11.5121 61.3266 6.80808 68.3346 6.80808C69.3906 6.80808 70.7346 6.90408 72.6546 7.38408C70.4466 14.1041 78.4146 15.5441 86.4786 15.5441C90.4146 15.5441 94.3506 15.2561 97.2306 15.0641C98.9586 14.9681 100.207 14.8721 100.975 14.8721C102.799 14.6801 103.663 15.6401 103.375 17.1761L102.895 18.9041C102.511 20.1521 102.031 21.8801 101.935 24.3761C104.623 19.8641 110.575 14.8721 117.391 14.8721C125.551 14.8721 131.215 20.9201 131.215 29.7521V54.0401C131.215 56.9201 131.983 58.8401 132.367 59.4161ZM131.407 59.9921C131.023 59.3201 130.063 57.2081 130.063 54.0401V29.7521C130.063 21.6881 124.783 16.0241 117.391 16.0241C109.999 16.0241 103.567 22.7441 101.839 27.2561H100.783V25.8161C100.783 22.4561 101.359 19.8641 101.839 18.3281L102.223 16.9841C102.319 16.3121 102.031 15.9281 101.167 16.0241C100.399 16.0241 98.9586 16.1201 97.2306 16.2161C94.3506 16.4081 90.4146 16.6961 86.4786 16.6961C77.9346 16.6961 69.4866 15.0641 71.1186 8.15208C70.1586 7.96008 69.1986 7.96008 68.3346 7.96008C62.0946 7.96008 58.6386 12.0881 58.6386 16.2161C58.6386 19.1921 60.4626 22.0721 64.3026 23.3201C66.0306 23.8961 67.7586 24.1841 69.3906 24.1841C76.0146 24.1841 82.9266 20.1521 85.8066 17.4641V54.0401C85.8066 57.0161 84.8466 59.2241 84.4626 59.9921C84.2706 60.4721 84.2706 61.2401 84.8466 61.2401H101.743C102.319 61.2401 102.319 60.4721 102.031 59.9921C101.647 59.2241 100.783 57.1121 100.783 54.0401V28.8881C102.895 27.4481 105.679 26.4881 108.175 26.4881C111.823 26.4881 115.087 28.5041 115.087 34.0721V54.0401C115.087 57.1121 114.223 59.2241 113.839 59.9921C113.551 60.4721 113.551 61.2401 114.127 61.2401H131.023C131.599 61.2401 131.599 60.4721 131.407 59.9921ZM77.0706 26.2961C78.9906 26.0081 79.7586 26.9681 79.4706 28.6001L78.9906 30.3281C78.5106 31.7681 78.0306 33.8801 78.0306 37.2401V54.0401C78.0306 56.8241 78.7026 58.7441 79.0866 59.4161C79.6626 60.4721 79.3746 62.3921 77.8386 62.3921H60.9426C59.1186 62.3921 58.9266 60.4721 59.5986 59.4161C59.9826 58.8401 60.7506 56.9201 60.7506 54.0401V37.8161C60.7506 35.1281 59.5986 33.2081 59.1186 32.7281C58.1586 31.6721 58.2546 29.5601 60.4626 29.1761L77.0706 26.2961ZM77.2626 27.4481L60.6546 30.3281C59.6946 30.6161 59.6946 31.4801 60.0786 31.9601C60.5586 32.5361 61.9026 34.6481 61.9026 37.8161V54.0401C61.9026 57.2081 60.9426 59.3201 60.5586 59.9921C60.2706 60.4721 60.2706 61.2401 60.9426 61.2401H77.8386C78.4146 61.2401 78.4146 60.4721 78.1266 59.9921C77.7426 59.2241 76.8786 57.1121 76.8786 54.0401V37.2401C76.8786 33.8801 77.4546 31.2881 77.9346 29.7521L78.3186 28.4081C78.4146 27.8321 77.9346 27.4481 77.2626 27.4481Z"/>
<path d="M180.455 14.8721C182.279 14.8721 182.663 16.6961 181.511 17.8481H181.607C181.031 18.6161 179.687 20.6321 178.631 23.3201L163.175 70.4561C159.335 81.8801 154.727 88.0241 143.783 88.0241C135.527 88.0241 130.823 82.2641 130.823 75.7361C130.823 72.1841 132.455 68.1521 135.911 64.6961C139.847 67.4801 144.455 69.1121 148.391 69.1121C152.807 69.1121 157.031 67.0001 158.759 62.4881V62.3921H156.359C152.903 62.3921 149.543 60.2801 147.431 54.2321C147.431 54.2321 138.023 25.5281 137.255 23.3201C136.295 20.5361 134.951 18.6161 134.279 17.8481C133.319 16.6961 133.607 14.8721 135.431 14.8721H154.343C156.071 14.8721 156.263 16.1201 155.879 17.5601C155.879 17.6561 155.975 17.8481 155.783 18.0401C155.399 19.0001 154.631 20.6321 155.399 22.9361L157.415 28.9841L163.655 47.8961L168.263 33.8801C168.743 32.3441 168.935 30.8081 168.935 29.5601C168.935 23.6081 165.191 20.0561 162.887 17.8481V17.9441C161.735 16.8881 162.311 14.8721 164.039 14.8721H180.455ZM180.455 16.0241H164.039C163.463 16.0241 163.271 16.6961 163.655 17.0801C166.151 19.4801 170.087 23.2241 170.087 29.5601C170.087 31.0001 169.895 32.6321 169.415 34.2641L163.655 51.7361L156.263 29.3681L154.247 23.3201C153.479 20.7281 154.247 18.7121 154.631 17.6561C154.727 17.5601 154.727 17.4641 154.727 17.3681C154.919 16.6001 154.919 16.0241 154.343 16.0241H135.431C134.855 16.0241 134.855 16.6961 135.239 17.0801C135.911 17.8481 137.447 20.0561 138.407 22.9361C139.367 25.7201 148.583 53.8481 148.583 53.8481C150.503 59.0321 153.479 61.2401 156.359 61.2401H160.583L159.911 62.8721C157.991 68.0561 153.383 70.2641 148.391 70.2641C144.263 70.2641 139.847 68.8241 136.007 66.1361C133.223 69.0161 131.975 72.4721 131.975 75.7361C131.975 81.6881 136.295 86.8721 143.783 86.8721C153.767 86.8721 158.471 80.4401 162.023 70.0721L177.479 22.9361C178.535 19.8641 179.879 18.1361 180.359 17.4641C180.935 16.8881 181.031 16.0241 180.455 16.0241Z"/>
<path d="M204.498 13.9121C218.034 13.9121 229.074 21.8801 229.074 38.5841C229.074 55.2881 218.034 63.3521 204.498 63.3521C191.058 63.3521 180.018 55.2881 180.018 38.5841C180.018 21.8801 191.058 13.9121 204.498 13.9121ZM204.498 15.0641C191.634 15.0641 181.17 22.6481 181.17 38.5841C181.17 54.5201 191.634 62.2001 204.498 62.2001C217.458 62.2001 227.922 54.5201 227.922 38.5841C227.922 22.6481 217.458 15.0641 204.498 15.0641ZM204.498 56.8241C208.53 56.8241 209.874 48.6641 209.874 38.5841C209.874 28.6001 208.53 20.4401 204.498 20.4401C200.562 20.4401 199.218 28.5041 199.218 38.5841C199.218 48.6641 200.562 56.8241 204.498 56.8241ZM204.498 57.9761C199.794 57.9761 198.066 49.2401 198.066 38.5841C198.066 27.9281 199.794 19.2881 204.498 19.2881C209.298 19.2881 211.026 28.0241 211.026 38.5841C211.026 49.2401 209.298 57.9761 204.498 57.9761Z"/>
<path d="M264.024 40.7921L264.504 40.1201C265.656 39.9281 266.712 39.8321 267.864 39.8321C274.968 39.8321 278.712 44.7281 278.712 49.9121C278.712 55.9601 273.816 62.3921 263.544 62.3921H245.496C236.952 62.3921 232.824 57.9761 232.824 52.7921C232.824 50.0081 233.976 46.9361 236.568 44.0561H236.472C242.808 36.1841 248.568 29.2721 254.904 21.4001H253.944C248.568 21.4001 244.056 26.4881 240.984 30.0401C239.736 31.3841 238.776 32.6321 238.296 32.9201C235.704 34.5521 231.768 33.7841 231.768 30.1361C231.768 27.6401 233.016 20.4401 233.016 20.4401C233.496 17.4641 234.168 14.8721 239.928 14.8721H273.912C276.696 14.8721 277.944 16.4081 277.944 18.3281C277.944 19.3841 277.56 20.8241 276.696 21.9761L253.752 50.2001C252.888 51.4481 252.312 52.6001 252.312 53.5601C252.312 54.9041 253.176 55.8641 254.616 55.8641C259.416 55.8641 265.176 46.4561 264.024 40.7921ZM267.864 40.9841C267 40.9841 266.136 41.0801 265.272 41.1761C266.136 47.5121 259.8 57.0161 254.616 57.0161C252.408 57.0161 251.16 55.4801 251.16 53.5601C251.16 52.3121 251.64 50.8721 252.792 49.4321L275.736 21.2081C276.312 20.2481 276.792 19.0001 276.792 18.3281C276.792 16.9841 275.928 16.0241 273.912 16.0241H239.928C235.32 16.0241 234.648 18.2321 234.168 20.6321C234.072 21.3041 232.92 27.9281 232.92 30.1361C232.92 32.7281 235.512 33.4001 237.144 32.3441H237.048C237.72 31.7681 238.776 30.7121 240.024 29.2721C243.288 25.5281 247.896 20.2481 253.944 20.2481H257.4L237.336 44.8241C235.032 47.4161 233.976 50.2001 233.976 52.7921C233.976 57.4001 237.72 61.2401 245.496 61.2401H263.544C273.048 61.2401 277.56 55.3841 277.56 49.9121C277.56 45.3041 274.2 40.9841 267.864 40.9841Z"/>
<path d="M301.343 59.4161C301.919 60.4721 301.727 62.3921 299.999 62.3921H283.103C281.375 62.3921 281.183 60.4721 281.759 59.4161C282.239 58.7441 282.911 56.8241 282.911 54.0401V26.3921C282.911 23.8001 281.759 21.8801 281.279 21.2081V21.3041C280.511 20.2481 280.415 18.2321 282.623 17.7521L299.231 14.8721C301.247 14.5841 301.919 15.5441 301.631 17.1761L301.151 18.9041C300.671 20.3441 300.191 22.4561 300.191 25.8161V54.0401C300.191 56.8241 300.863 58.7441 301.343 59.4161ZM300.383 59.9921C299.903 59.2241 299.039 57.1121 299.039 54.0401V25.8161C299.039 22.4561 299.615 19.8641 300.095 18.3281L300.479 16.9841C300.575 16.4081 300.095 16.0241 299.423 16.0241L282.815 18.9041C281.855 19.1921 281.855 20.1521 282.239 20.6321C282.719 21.4001 284.063 23.5121 284.063 26.3921V54.0401C284.063 56.9201 283.199 59.1281 282.719 59.9921C282.527 60.4721 282.527 61.2401 283.103 61.2401H299.999C300.575 61.2401 300.575 60.4721 300.383 59.9921ZM291.263 15.2561C286.175 15.2561 282.719 13.2401 282.719 8.34408C282.719 3.54408 286.175 1.52808 291.263 1.52808C296.351 1.52808 299.711 3.54408 299.711 8.34408C299.711 13.2401 296.351 15.2561 291.263 15.2561ZM291.263 14.1041C295.583 14.1041 298.559 12.4721 298.559 8.34408C298.559 4.31207 295.583 2.68008 291.263 2.68008C286.943 2.68008 283.871 4.31207 283.871 8.34408C283.871 12.4721 286.943 14.1041 291.263 14.1041Z"/>
</mask>
<path d="M49.6048 51.7361C51.1408 55.9601 52.8688 57.5921 53.7328 58.4561L54.2128 58.9361C55.0768 59.9921 55.6528 62.3921 52.8688 62.3921H29.9248C28.2928 62.3921 27.7168 60.8561 27.8128 59.8001C27.9088 59.2241 28.1968 58.5521 28.4848 57.8801L28.3888 57.9761C28.9648 56.6321 29.8288 55.0001 29.8288 50.8721C29.8288 47.7041 29.8288 38.8721 28.0048 35.5121C26.3728 37.6241 24.4528 39.7361 22.8208 41.8481V51.9281C22.8208 55.8641 23.9728 58.0721 24.6448 59.0321C24.8368 59.2241 25.0288 59.4161 25.0288 59.6081C25.6048 60.6641 25.2208 62.3921 23.6848 62.3921H3.52482C1.89282 62.3921 1.60482 60.4721 2.27682 59.4161L2.18082 59.7041C2.18082 59.8961 2.46882 59.2241 2.56482 59.0321C3.23682 58.0721 4.38882 55.8641 4.38882 51.9281V13.3361C4.38882 9.30408 3.23682 7.19208 2.56482 6.32808C2.46882 6.23208 2.27682 5.94408 2.27682 5.84808C1.60482 4.79208 1.89282 2.87208 3.52482 2.87208H23.6848C25.3168 2.87208 25.6048 4.79208 24.9328 5.84808L24.5488 6.42408C23.8768 7.28808 22.8208 9.30408 22.8208 13.3361V31.2881L34.3408 16.9841C35.2048 15.7361 35.6848 14.4881 35.6848 13.4321C35.6848 10.9361 34.2448 8.72808 33.1888 7.19208L32.2288 5.56008C31.5568 3.92808 32.8048 2.87208 34.4368 2.87208H53.1568C55.5568 2.87208 55.7488 4.69608 53.7328 6.04008L53.8288 5.94408L53.3488 6.32808C52.1008 7.19208 49.0288 9.40008 45.3808 13.7201L32.2288 30.2321C32.9968 30.0401 33.4768 30.0401 34.4368 30.0401C37.9888 30.0401 42.7888 32.4401 45.3808 40.3121L49.6048 51.7361ZM48.4528 52.1201L44.2288 40.6961C41.8288 32.9201 37.7008 31.1921 34.4368 31.1921C32.7088 31.1921 31.2688 31.5761 30.4048 31.9601L29.8288 31.1921L44.4208 12.9521C48.0688 8.53608 51.3328 6.23208 52.7728 5.36808L52.6768 5.46408L53.1568 5.08008C53.8288 4.60008 53.8288 4.02408 53.1568 4.02408H34.4368C33.6688 4.02408 33.0928 4.50408 33.3808 5.27208C33.4768 5.65607 33.7648 5.94408 34.1488 6.61608C35.2048 8.24808 36.8368 10.6481 36.8368 13.4321C36.8368 14.8721 36.4528 16.3121 35.3008 17.7521L21.6688 34.7441V13.3361C21.6688 8.82408 23.0128 6.71208 23.6848 5.75208L24.0688 5.17607L23.9728 5.27208C24.2608 4.79208 24.2608 4.02408 23.6848 4.02408H3.52482C3.04482 4.02408 3.04482 4.79208 3.23682 5.27208L3.52482 5.75208C4.19682 6.71208 5.54082 8.82408 5.54082 13.3361V51.9281C5.54082 56.5361 4.00482 58.7441 3.42882 59.7041L3.33282 59.8001C3.04482 60.2801 2.94882 61.2401 3.52482 61.2401H23.6848C24.2608 61.2401 24.1648 60.2801 23.8768 59.8001C23.8768 59.8001 23.7808 59.8001 23.7808 59.7041C23.2048 58.8401 21.6688 56.6321 21.6688 51.9281V41.3681L28.0048 33.4001C30.9808 35.7041 30.9808 47.3201 30.9808 50.8721C30.9808 55.2881 30.0208 57.0161 29.4448 58.4561C29.1568 58.9361 29.0608 59.4161 28.9648 59.9921C28.8688 60.4721 29.1568 61.2401 29.9248 61.2401H52.8688C54.0208 61.2401 53.7328 60.1841 53.3488 59.7041H53.4448L52.9648 59.2241C51.9088 58.1681 49.9888 56.3441 48.4528 52.1201Z" fill="#cf941c"/>
<path d="M132.367 59.4161C132.943 60.4721 132.847 62.3921 131.023 62.3921H114.127C112.591 62.3921 112.303 60.4721 112.879 59.4161C113.263 58.7441 113.935 56.8241 113.935 54.0401V34.0721C113.935 29.2721 111.247 27.6401 108.175 27.6401C105.967 27.6401 103.663 28.4081 101.935 29.4641V54.0401C101.935 56.8241 102.607 58.7441 102.991 59.4161C103.567 60.4721 103.279 62.3921 101.743 62.3921H84.8466C82.9266 62.3921 82.9266 60.4721 83.5026 59.4161C83.8866 58.8401 84.6546 56.9201 84.6546 54.0401V19.8641C81.4866 22.2641 75.4386 25.3361 69.3906 25.3361C67.5666 25.3361 65.6466 25.0481 63.9186 24.4721C59.6946 22.9361 57.4866 19.5761 57.4866 16.2161C57.4866 11.5121 61.3266 6.80808 68.3346 6.80808C69.3906 6.80808 70.7346 6.90408 72.6546 7.38408C70.4466 14.1041 78.4146 15.5441 86.4786 15.5441C90.4146 15.5441 94.3506 15.2561 97.2306 15.0641C98.9586 14.9681 100.207 14.8721 100.975 14.8721C102.799 14.6801 103.663 15.6401 103.375 17.1761L102.895 18.9041C102.511 20.1521 102.031 21.8801 101.935 24.3761C104.623 19.8641 110.575 14.8721 117.391 14.8721C125.551 14.8721 131.215 20.9201 131.215 29.7521V54.0401C131.215 56.9201 131.983 58.8401 132.367 59.4161ZM131.407 59.9921C131.023 59.3201 130.063 57.2081 130.063 54.0401V29.7521C130.063 21.6881 124.783 16.0241 117.391 16.0241C109.999 16.0241 103.567 22.7441 101.839 27.2561H100.783V25.8161C100.783 22.4561 101.359 19.8641 101.839 18.3281L102.223 16.9841C102.319 16.3121 102.031 15.9281 101.167 16.0241C100.399 16.0241 98.9586 16.1201 97.2306 16.2161C94.3506 16.4081 90.4146 16.6961 86.4786 16.6961C77.9346 16.6961 69.4866 15.0641 71.1186 8.15208C70.1586 7.96008 69.1986 7.96008 68.3346 7.96008C62.0946 7.96008 58.6386 12.0881 58.6386 16.2161C58.6386 19.1921 60.4626 22.0721 64.3026 23.3201C66.0306 23.8961 67.7586 24.1841 69.3906 24.1841C76.0146 24.1841 82.9266 20.1521 85.8066 17.4641V54.0401C85.8066 57.0161 84.8466 59.2241 84.4626 59.9921C84.2706 60.4721 84.2706 61.2401 84.8466 61.2401H101.743C102.319 61.2401 102.319 60.4721 102.031 59.9921C101.647 59.2241 100.783 57.1121 100.783 54.0401V28.8881C102.895 27.4481 105.679 26.4881 108.175 26.4881C111.823 26.4881 115.087 28.5041 115.087 34.0721V54.0401C115.087 57.1121 114.223 59.2241 113.839 59.9921C113.551 60.4721 113.551 61.2401 114.127 61.2401H131.023C131.599 61.2401 131.599 60.4721 131.407 59.9921ZM77.0706 26.2961C78.9906 26.0081 79.7586 26.9681 79.4706 28.6001L78.9906 30.3281C78.5106 31.7681 78.0306 33.8801 78.0306 37.2401V54.0401C78.0306 56.8241 78.7026 58.7441 79.0866 59.4161C79.6626 60.4721 79.3746 62.3921 77.8386 62.3921H60.9426C59.1186 62.3921 58.9266 60.4721 59.5986 59.4161C59.9826 58.8401 60.7506 56.9201 60.7506 54.0401V37.8161C60.7506 35.1281 59.5986 33.2081 59.1186 32.7281C58.1586 31.6721 58.2546 29.5601 60.4626 29.1761L77.0706 26.2961ZM77.2626 27.4481L60.6546 30.3281C59.6946 30.6161 59.6946 31.4801 60.0786 31.9601C60.5586 32.5361 61.9026 34.6481 61.9026 37.8161V54.0401C61.9026 57.2081 60.9426 59.3201 60.5586 59.9921C60.2706 60.4721 60.2706 61.2401 60.9426 61.2401H77.8386C78.4146 61.2401 78.4146 60.4721 78.1266 59.9921C77.7426 59.2241 76.8786 57.1121 76.8786 54.0401V37.2401C76.8786 33.8801 77.4546 31.2881 77.9346 29.7521L78.3186 28.4081C78.4146 27.8321 77.9346 27.4481 77.2626 27.4481Z" fill="#cf941c"/>
<path d="M180.455 14.8721C182.279 14.8721 182.663 16.6961 181.511 17.8481H181.607C181.031 18.6161 179.687 20.6321 178.631 23.3201L163.175 70.4561C159.335 81.8801 154.727 88.0241 143.783 88.0241C135.527 88.0241 130.823 82.2641 130.823 75.7361C130.823 72.1841 132.455 68.1521 135.911 64.6961C139.847 67.4801 144.455 69.1121 148.391 69.1121C152.807 69.1121 157.031 67.0001 158.759 62.4881V62.3921H156.359C152.903 62.3921 149.543 60.2801 147.431 54.2321C147.431 54.2321 138.023 25.5281 137.255 23.3201C136.295 20.5361 134.951 18.6161 134.279 17.8481C133.319 16.6961 133.607 14.8721 135.431 14.8721H154.343C156.071 14.8721 156.263 16.1201 155.879 17.5601C155.879 17.6561 155.975 17.8481 155.783 18.0401C155.399 19.0001 154.631 20.6321 155.399 22.9361L157.415 28.9841L163.655 47.8961L168.263 33.8801C168.743 32.3441 168.935 30.8081 168.935 29.5601C168.935 23.6081 165.191 20.0561 162.887 17.8481V17.9441C161.735 16.8881 162.311 14.8721 164.039 14.8721H180.455ZM180.455 16.0241H164.039C163.463 16.0241 163.271 16.6961 163.655 17.0801C166.151 19.4801 170.087 23.2241 170.087 29.5601C170.087 31.0001 169.895 32.6321 169.415 34.2641L163.655 51.7361L156.263 29.3681L154.247 23.3201C153.479 20.7281 154.247 18.7121 154.631 17.6561C154.727 17.5601 154.727 17.4641 154.727 17.3681C154.919 16.6001 154.919 16.0241 154.343 16.0241H135.431C134.855 16.0241 134.855 16.6961 135.239 17.0801C135.911 17.8481 137.447 20.0561 138.407 22.9361C139.367 25.7201 148.583 53.8481 148.583 53.8481C150.503 59.0321 153.479 61.2401 156.359 61.2401H160.583L159.911 62.8721C157.991 68.0561 153.383 70.2641 148.391 70.2641C144.263 70.2641 139.847 68.8241 136.007 66.1361C133.223 69.0161 131.975 72.4721 131.975 75.7361C131.975 81.6881 136.295 86.8721 143.783 86.8721C153.767 86.8721 158.471 80.4401 162.023 70.0721L177.479 22.9361C178.535 19.8641 179.879 18.1361 180.359 17.4641C180.935 16.8881 181.031 16.0241 180.455 16.0241Z" fill="#cf941c"/>
<path d="M204.498 13.9121C218.034 13.9121 229.074 21.8801 229.074 38.5841C229.074 55.2881 218.034 63.3521 204.498 63.3521C191.058 63.3521 180.018 55.2881 180.018 38.5841C180.018 21.8801 191.058 13.9121 204.498 13.9121ZM204.498 15.0641C191.634 15.0641 181.17 22.6481 181.17 38.5841C181.17 54.5201 191.634 62.2001 204.498 62.2001C217.458 62.2001 227.922 54.5201 227.922 38.5841C227.922 22.6481 217.458 15.0641 204.498 15.0641ZM204.498 56.8241C208.53 56.8241 209.874 48.6641 209.874 38.5841C209.874 28.6001 208.53 20.4401 204.498 20.4401C200.562 20.4401 199.218 28.5041 199.218 38.5841C199.218 48.6641 200.562 56.8241 204.498 56.8241ZM204.498 57.9761C199.794 57.9761 198.066 49.2401 198.066 38.5841C198.066 27.9281 199.794 19.2881 204.498 19.2881C209.298 19.2881 211.026 28.0241 211.026 38.5841C211.026 49.2401 209.298 57.9761 204.498 57.9761Z" fill="#cf941c"/>
<path d="M264.024 40.7921L264.504 40.1201C265.656 39.9281 266.712 39.8321 267.864 39.8321C274.968 39.8321 278.712 44.7281 278.712 49.9121C278.712 55.9601 273.816 62.3921 263.544 62.3921H245.496C236.952 62.3921 232.824 57.9761 232.824 52.7921C232.824 50.0081 233.976 46.9361 236.568 44.0561H236.472C242.808 36.1841 248.568 29.2721 254.904 21.4001H253.944C248.568 21.4001 244.056 26.4881 240.984 30.0401C239.736 31.3841 238.776 32.6321 238.296 32.9201C235.704 34.5521 231.768 33.7841 231.768 30.1361C231.768 27.6401 233.016 20.4401 233.016 20.4401C233.496 17.4641 234.168 14.8721 239.928 14.8721H273.912C276.696 14.8721 277.944 16.4081 277.944 18.3281C277.944 19.3841 277.56 20.8241 276.696 21.9761L253.752 50.2001C252.888 51.4481 252.312 52.6001 252.312 53.5601C252.312 54.9041 253.176 55.8641 254.616 55.8641C259.416 55.8641 265.176 46.4561 264.024 40.7921ZM267.864 40.9841C267 40.9841 266.136 41.0801 265.272 41.1761C266.136 47.5121 259.8 57.0161 254.616 57.0161C252.408 57.0161 251.16 55.4801 251.16 53.5601C251.16 52.3121 251.64 50.8721 252.792 49.4321L275.736 21.2081C276.312 20.2481 276.792 19.0001 276.792 18.3281C276.792 16.9841 275.928 16.0241 273.912 16.0241H239.928C235.32 16.0241 234.648 18.2321 234.168 20.6321C234.072 21.3041 232.92 27.9281 232.92 30.1361C232.92 32.7281 235.512 33.4001 237.144 32.3441H237.048C237.72 31.7681 238.776 30.7121 240.024 29.2721C243.288 25.5281 247.896 20.2481 253.944 20.2481H257.4L237.336 44.8241C235.032 47.4161 233.976 50.2001 233.976 52.7921C233.976 57.4001 237.72 61.2401 245.496 61.2401H263.544C273.048 61.2401 277.56 55.3841 277.56 49.9121C277.56 45.3041 274.2 40.9841 267.864 40.9841Z" fill="#cf941c"/>
<path d="M301.343 59.4161C301.919 60.4721 301.727 62.3921 299.999 62.3921H283.103C281.375 62.3921 281.183 60.4721 281.759 59.4161C282.239 58.7441 282.911 56.8241 282.911 54.0401V26.3921C282.911 23.8001 281.759 21.8801 281.279 21.2081V21.3041C280.511 20.2481 280.415 18.2321 282.623 17.7521L299.231 14.8721C301.247 14.5841 301.919 15.5441 301.631 17.1761L301.151 18.9041C300.671 20.3441 300.191 22.4561 300.191 25.8161V54.0401C300.191 56.8241 300.863 58.7441 301.343 59.4161ZM300.383 59.9921C299.903 59.2241 299.039 57.1121 299.039 54.0401V25.8161C299.039 22.4561 299.615 19.8641 300.095 18.3281L300.479 16.9841C300.575 16.4081 300.095 16.0241 299.423 16.0241L282.815 18.9041C281.855 19.1921 281.855 20.1521 282.239 20.6321C282.719 21.4001 284.063 23.5121 284.063 26.3921V54.0401C284.063 56.9201 283.199 59.1281 282.719 59.9921C282.527 60.4721 282.527 61.2401 283.103 61.2401H299.999C300.575 61.2401 300.575 60.4721 300.383 59.9921ZM291.263 15.2561C286.175 15.2561 282.719 13.2401 282.719 8.34408C282.719 3.54408 286.175 1.52808 291.263 1.52808C296.351 1.52808 299.711 3.54408 299.711 8.34408C299.711 13.2401 296.351 15.2561 291.263 15.2561ZM291.263 14.1041C295.583 14.1041 298.559 12.4721 298.559 8.34408C298.559 4.31207 295.583 2.68008 291.263 2.68008C286.943 2.68008 283.871 4.31207 283.871 8.34408C283.871 12.4721 286.943 14.1041 291.263 14.1041Z" fill="#cf941c"/>
<path d="M49.6048 51.7361C51.1408 55.9601 52.8688 57.5921 53.7328 58.4561L54.2128 58.9361C55.0768 59.9921 55.6528 62.3921 52.8688 62.3921H29.9248C28.2928 62.3921 27.7168 60.8561 27.8128 59.8001C27.9088 59.2241 28.1968 58.5521 28.4848 57.8801L28.3888 57.9761C28.9648 56.6321 29.8288 55.0001 29.8288 50.8721C29.8288 47.7041 29.8288 38.8721 28.0048 35.5121C26.3728 37.6241 24.4528 39.7361 22.8208 41.8481V51.9281C22.8208 55.8641 23.9728 58.0721 24.6448 59.0321C24.8368 59.2241 25.0288 59.4161 25.0288 59.6081C25.6048 60.6641 25.2208 62.3921 23.6848 62.3921H3.52482C1.89282 62.3921 1.60482 60.4721 2.27682 59.4161L2.18082 59.7041C2.18082 59.8961 2.46882 59.2241 2.56482 59.0321C3.23682 58.0721 4.38882 55.8641 4.38882 51.9281V13.3361C4.38882 9.30408 3.23682 7.19208 2.56482 6.32808C2.46882 6.23208 2.27682 5.94408 2.27682 5.84808C1.60482 4.79208 1.89282 2.87208 3.52482 2.87208H23.6848C25.3168 2.87208 25.6048 4.79208 24.9328 5.84808L24.5488 6.42408C23.8768 7.28808 22.8208 9.30408 22.8208 13.3361V31.2881L34.3408 16.9841C35.2048 15.7361 35.6848 14.4881 35.6848 13.4321C35.6848 10.9361 34.2448 8.72808 33.1888 7.19208L32.2288 5.56008C31.5568 3.92808 32.8048 2.87208 34.4368 2.87208H53.1568C55.5568 2.87208 55.7488 4.69608 53.7328 6.04008L53.8288 5.94408L53.3488 6.32808C52.1008 7.19208 49.0288 9.40008 45.3808 13.7201L32.2288 30.2321C32.9968 30.0401 33.4768 30.0401 34.4368 30.0401C37.9888 30.0401 42.7888 32.4401 45.3808 40.3121L49.6048 51.7361ZM48.4528 52.1201L44.2288 40.6961C41.8288 32.9201 37.7008 31.1921 34.4368 31.1921C32.7088 31.1921 31.2688 31.5761 30.4048 31.9601L29.8288 31.1921L44.4208 12.9521C48.0688 8.53608 51.3328 6.23208 52.7728 5.36808L52.6768 5.46408L53.1568 5.08008C53.8288 4.60008 53.8288 4.02408 53.1568 4.02408H34.4368C33.6688 4.02408 33.0928 4.50408 33.3808 5.27208C33.4768 5.65607 33.7648 5.94408 34.1488 6.61608C35.2048 8.24808 36.8368 10.6481 36.8368 13.4321C36.8368 14.8721 36.4528 16.3121 35.3008 17.7521L21.6688 34.7441V13.3361C21.6688 8.82408 23.0128 6.71208 23.6848 5.75208L24.0688 5.17607L23.9728 5.27208C24.2608 4.79208 24.2608 4.02408 23.6848 4.02408H3.52482C3.04482 4.02408 3.04482 4.79208 3.23682 5.27208L3.52482 5.75208C4.19682 6.71208 5.54082 8.82408 5.54082 13.3361V51.9281C5.54082 56.5361 4.00482 58.7441 3.42882 59.7041L3.33282 59.8001C3.04482 60.2801 2.94882 61.2401 3.52482 61.2401H23.6848C24.2608 61.2401 24.1648 60.2801 23.8768 59.8001C23.8768 59.8001 23.7808 59.8001 23.7808 59.7041C23.2048 58.8401 21.6688 56.6321 21.6688 51.9281V41.3681L28.0048 33.4001C30.9808 35.7041 30.9808 47.3201 30.9808 50.8721C30.9808 55.2881 30.0208 57.0161 29.4448 58.4561C29.1568 58.9361 29.0608 59.4161 28.9648 59.9921C28.8688 60.4721 29.1568 61.2401 29.9248 61.2401H52.8688C54.0208 61.2401 53.7328 60.1841 53.3488 59.7041H53.4448L52.9648 59.2241C51.9088 58.1681 49.9888 56.3441 48.4528 52.1201Z" stroke="#cf941c" stroke-width="2" mask="url(#path-1-outside-1_713_675)"/>
<path d="M132.367 59.4161C132.943 60.4721 132.847 62.3921 131.023 62.3921H114.127C112.591 62.3921 112.303 60.4721 112.879 59.4161C113.263 58.7441 113.935 56.8241 113.935 54.0401V34.0721C113.935 29.2721 111.247 27.6401 108.175 27.6401C105.967 27.6401 103.663 28.4081 101.935 29.4641V54.0401C101.935 56.8241 102.607 58.7441 102.991 59.4161C103.567 60.4721 103.279 62.3921 101.743 62.3921H84.8466C82.9266 62.3921 82.9266 60.4721 83.5026 59.4161C83.8866 58.8401 84.6546 56.9201 84.6546 54.0401V19.8641C81.4866 22.2641 75.4386 25.3361 69.3906 25.3361C67.5666 25.3361 65.6466 25.0481 63.9186 24.4721C59.6946 22.9361 57.4866 19.5761 57.4866 16.2161C57.4866 11.5121 61.3266 6.80808 68.3346 6.80808C69.3906 6.80808 70.7346 6.90408 72.6546 7.38408C70.4466 14.1041 78.4146 15.5441 86.4786 15.5441C90.4146 15.5441 94.3506 15.2561 97.2306 15.0641C98.9586 14.9681 100.207 14.8721 100.975 14.8721C102.799 14.6801 103.663 15.6401 103.375 17.1761L102.895 18.9041C102.511 20.1521 102.031 21.8801 101.935 24.3761C104.623 19.8641 110.575 14.8721 117.391 14.8721C125.551 14.8721 131.215 20.9201 131.215 29.7521V54.0401C131.215 56.9201 131.983 58.8401 132.367 59.4161ZM131.407 59.9921C131.023 59.3201 130.063 57.2081 130.063 54.0401V29.7521C130.063 21.6881 124.783 16.0241 117.391 16.0241C109.999 16.0241 103.567 22.7441 101.839 27.2561H100.783V25.8161C100.783 22.4561 101.359 19.8641 101.839 18.3281L102.223 16.9841C102.319 16.3121 102.031 15.9281 101.167 16.0241C100.399 16.0241 98.9586 16.1201 97.2306 16.2161C94.3506 16.4081 90.4146 16.6961 86.4786 16.6961C77.9346 16.6961 69.4866 15.0641 71.1186 8.15208C70.1586 7.96008 69.1986 7.96008 68.3346 7.96008C62.0946 7.96008 58.6386 12.0881 58.6386 16.2161C58.6386 19.1921 60.4626 22.0721 64.3026 23.3201C66.0306 23.8961 67.7586 24.1841 69.3906 24.1841C76.0146 24.1841 82.9266 20.1521 85.8066 17.4641V54.0401C85.8066 57.0161 84.8466 59.2241 84.4626 59.9921C84.2706 60.4721 84.2706 61.2401 84.8466 61.2401H101.743C102.319 61.2401 102.319 60.4721 102.031 59.9921C101.647 59.2241 100.783 57.1121 100.783 54.0401V28.8881C102.895 27.4481 105.679 26.4881 108.175 26.4881C111.823 26.4881 115.087 28.5041 115.087 34.0721V54.0401C115.087 57.1121 114.223 59.2241 113.839 59.9921C113.551 60.4721 113.551 61.2401 114.127 61.2401H131.023C131.599 61.2401 131.599 60.4721 131.407 59.9921ZM77.0706 26.2961C78.9906 26.0081 79.7586 26.9681 79.4706 28.6001L78.9906 30.3281C78.5106 31.7681 78.0306 33.8801 78.0306 37.2401V54.0401C78.0306 56.8241 78.7026 58.7441 79.0866 59.4161C79.6626 60.4721 79.3746 62.3921 77.8386 62.3921H60.9426C59.1186 62.3921 58.9266 60.4721 59.5986 59.4161C59.9826 58.8401 60.7506 56.9201 60.7506 54.0401V37.8161C60.7506 35.1281 59.5986 33.2081 59.1186 32.7281C58.1586 31.6721 58.2546 29.5601 60.4626 29.1761L77.0706 26.2961ZM77.2626 27.4481L60.6546 30.3281C59.6946 30.6161 59.6946 31.4801 60.0786 31.9601C60.5586 32.5361 61.9026 34.6481 61.9026 37.8161V54.0401C61.9026 57.2081 60.9426 59.3201 60.5586 59.9921C60.2706 60.4721 60.2706 61.2401 60.9426 61.2401H77.8386C78.4146 61.2401 78.4146 60.4721 78.1266 59.9921C77.7426 59.2241 76.8786 57.1121 76.8786 54.0401V37.2401C76.8786 33.8801 77.4546 31.2881 77.9346 29.7521L78.3186 28.4081C78.4146 27.8321 77.9346 27.4481 77.2626 27.4481Z" stroke="#cf941c" stroke-width="2" mask="url(#path-1-outside-1_713_675)"/>
<path d="M180.455 14.8721C182.279 14.8721 182.663 16.6961 181.511 17.8481H181.607C181.031 18.6161 179.687 20.6321 178.631 23.3201L163.175 70.4561C159.335 81.8801 154.727 88.0241 143.783 88.0241C135.527 88.0241 130.823 82.2641 130.823 75.7361C130.823 72.1841 132.455 68.1521 135.911 64.6961C139.847 67.4801 144.455 69.1121 148.391 69.1121C152.807 69.1121 157.031 67.0001 158.759 62.4881V62.3921H156.359C152.903 62.3921 149.543 60.2801 147.431 54.2321C147.431 54.2321 138.023 25.5281 137.255 23.3201C136.295 20.5361 134.951 18.6161 134.279 17.8481C133.319 16.6961 133.607 14.8721 135.431 14.8721H154.343C156.071 14.8721 156.263 16.1201 155.879 17.5601C155.879 17.6561 155.975 17.8481 155.783 18.0401C155.399 19.0001 154.631 20.6321 155.399 22.9361L157.415 28.9841L163.655 47.8961L168.263 33.8801C168.743 32.3441 168.935 30.8081 168.935 29.5601C168.935 23.6081 165.191 20.0561 162.887 17.8481V17.9441C161.735 16.8881 162.311 14.8721 164.039 14.8721H180.455ZM180.455 16.0241H164.039C163.463 16.0241 163.271 16.6961 163.655 17.0801C166.151 19.4801 170.087 23.2241 170.087 29.5601C170.087 31.0001 169.895 32.6321 169.415 34.2641L163.655 51.7361L156.263 29.3681L154.247 23.3201C153.479 20.7281 154.247 18.7121 154.631 17.6561C154.727 17.5601 154.727 17.4641 154.727 17.3681C154.919 16.6001 154.919 16.0241 154.343 16.0241H135.431C134.855 16.0241 134.855 16.6961 135.239 17.0801C135.911 17.8481 137.447 20.0561 138.407 22.9361C139.367 25.7201 148.583 53.8481 148.583 53.8481C150.503 59.0321 153.479 61.2401 156.359 61.2401H160.583L159.911 62.8721C157.991 68.0561 153.383 70.2641 148.391 70.2641C144.263 70.2641 139.847 68.8241 136.007 66.1361C133.223 69.0161 131.975 72.4721 131.975 75.7361C131.975 81.6881 136.295 86.8721 143.783 86.8721C153.767 86.8721 158.471 80.4401 162.023 70.0721L177.479 22.9361C178.535 19.8641 179.879 18.1361 180.359 17.4641C180.935 16.8881 181.031 16.0241 180.455 16.0241Z" stroke="#cf941c" stroke-width="2" mask="url(#path-1-outside-1_713_675)"/>
<path d="M204.498 13.9121C218.034 13.9121 229.074 21.8801 229.074 38.5841C229.074 55.2881 218.034 63.3521 204.498 63.3521C191.058 63.3521 180.018 55.2881 180.018 38.5841C180.018 21.8801 191.058 13.9121 204.498 13.9121ZM204.498 15.0641C191.634 15.0641 181.17 22.6481 181.17 38.5841C181.17 54.5201 191.634 62.2001 204.498 62.2001C217.458 62.2001 227.922 54.5201 227.922 38.5841C227.922 22.6481 217.458 15.0641 204.498 15.0641ZM204.498 56.8241C208.53 56.8241 209.874 48.6641 209.874 38.5841C209.874 28.6001 208.53 20.4401 204.498 20.4401C200.562 20.4401 199.218 28.5041 199.218 38.5841C199.218 48.6641 200.562 56.8241 204.498 56.8241ZM204.498 57.9761C199.794 57.9761 198.066 49.2401 198.066 38.5841C198.066 27.9281 199.794 19.2881 204.498 19.2881C209.298 19.2881 211.026 28.0241 211.026 38.5841C211.026 49.2401 209.298 57.9761 204.498 57.9761Z" stroke="#cf941c" stroke-width="2" mask="url(#path-1-outside-1_713_675)"/>
<path d="M264.024 40.7921L264.504 40.1201C265.656 39.9281 266.712 39.8321 267.864 39.8321C274.968 39.8321 278.712 44.7281 278.712 49.9121C278.712 55.9601 273.816 62.3921 263.544 62.3921H245.496C236.952 62.3921 232.824 57.9761 232.824 52.7921C232.824 50.0081 233.976 46.9361 236.568 44.0561H236.472C242.808 36.1841 248.568 29.2721 254.904 21.4001H253.944C248.568 21.4001 244.056 26.4881 240.984 30.0401C239.736 31.3841 238.776 32.6321 238.296 32.9201C235.704 34.5521 231.768 33.7841 231.768 30.1361C231.768 27.6401 233.016 20.4401 233.016 20.4401C233.496 17.4641 234.168 14.8721 239.928 14.8721H273.912C276.696 14.8721 277.944 16.4081 277.944 18.3281C277.944 19.3841 277.56 20.8241 276.696 21.9761L253.752 50.2001C252.888 51.4481 252.312 52.6001 252.312 53.5601C252.312 54.9041 253.176 55.8641 254.616 55.8641C259.416 55.8641 265.176 46.4561 264.024 40.7921ZM267.864 40.9841C267 40.9841 266.136 41.0801 265.272 41.1761C266.136 47.5121 259.8 57.0161 254.616 57.0161C252.408 57.0161 251.16 55.4801 251.16 53.5601C251.16 52.3121 251.64 50.8721 252.792 49.4321L275.736 21.2081C276.312 20.2481 276.792 19.0001 276.792 18.3281C276.792 16.9841 275.928 16.0241 273.912 16.0241H239.928C235.32 16.0241 234.648 18.2321 234.168 20.6321C234.072 21.3041 232.92 27.9281 232.92 30.1361C232.92 32.7281 235.512 33.4001 237.144 32.3441H237.048C237.72 31.7681 238.776 30.7121 240.024 29.2721C243.288 25.5281 247.896 20.2481 253.944 20.2481H257.4L237.336 44.8241C235.032 47.4161 233.976 50.2001 233.976 52.7921C233.976 57.4001 237.72 61.2401 245.496 61.2401H263.544C273.048 61.2401 277.56 55.3841 277.56 49.9121C277.56 45.3041 274.2 40.9841 267.864 40.9841Z" stroke="#cf941c" stroke-width="2" mask="url(#path-1-outside-1_713_675)"/>
<path d="M301.343 59.4161C301.919 60.4721 301.727 62.3921 299.999 62.3921H283.103C281.375 62.3921 281.183 60.4721 281.759 59.4161C282.239 58.7441 282.911 56.8241 282.911 54.0401V26.3921C282.911 23.8001 281.759 21.8801 281.279 21.2081V21.3041C280.511 20.2481 280.415 18.2321 282.623 17.7521L299.231 14.8721C301.247 14.5841 301.919 15.5441 301.631 17.1761L301.151 18.9041C300.671 20.3441 300.191 22.4561 300.191 25.8161V54.0401C300.191 56.8241 300.863 58.7441 301.343 59.4161ZM300.383 59.9921C299.903 59.2241 299.039 57.1121 299.039 54.0401V25.8161C299.039 22.4561 299.615 19.8641 300.095 18.3281L300.479 16.9841C300.575 16.4081 300.095 16.0241 299.423 16.0241L282.815 18.9041C281.855 19.1921 281.855 20.1521 282.239 20.6321C282.719 21.4001 284.063 23.5121 284.063 26.3921V54.0401C284.063 56.9201 283.199 59.1281 282.719 59.9921C282.527 60.4721 282.527 61.2401 283.103 61.2401H299.999C300.575 61.2401 300.575 60.4721 300.383 59.9921ZM291.263 15.2561C286.175 15.2561 282.719 13.2401 282.719 8.34408C282.719 3.54408 286.175 1.52808 291.263 1.52808C296.351 1.52808 299.711 3.54408 299.711 8.34408C299.711 13.2401 296.351 15.2561 291.263 15.2561ZM291.263 14.1041C295.583 14.1041 298.559 12.4721 298.559 8.34408C298.559 4.31207 295.583 2.68008 291.263 2.68008C286.943 2.68008 283.871 4.31207 283.871 8.34408C283.871 12.4721 286.943 14.1041 291.263 14.1041Z" stroke="#cf941c" stroke-width="2" mask="url(#path-1-outside-1_713_675)"/>
</svg>
