<svg width="650" height="145" viewBox="0 0 650 145" fill="none" xmlns="http://www.w3.org/2000/svg">
<path d="M117.228 89.614C118.564 97.129 121.737 100.803 122.906 102.306L123.24 103.308L123.073 102.64C124.576 104.644 124.91 107.984 121.57 107.984H86.667C83.828 107.984 83.16 104.811 83.828 102.64C84.329 101.471 85.331 99.3 85.331 95.459C85.331 94.123 85.164 91.952 84.83 89.948L79.152 57.383L67.963 98.298C66.46 104.143 64.79 107.984 59.112 107.984H51.764C46.587 107.984 44.249 104.644 42.579 98.131L31.557 57.717C30.221 64.898 28.885 72.079 27.716 79.26C27.382 81.097 27.215 82.934 27.215 84.437C27.215 92.954 31.39 98.465 33.561 101.304L34.73 102.807C35.732 104.644 34.563 107.984 31.891 107.984H4.50302C1.66402 107.984 1.49702 104.31 3.16702 102.64L5.33802 100.636C8.17702 98.298 13.688 93.956 15.692 82.934L24.71 31.498L22.372 22.814V22.981C20.535 15.8 17.863 12.46 16.527 10.623H16.694L15.859 9.62102C14.69 7.78403 15.191 4.44402 17.696 4.44402H52.432C54.436 4.44402 54.77 7.45002 54.77 9.12002C54.77 9.28702 54.603 9.78802 54.603 9.95502C54.269 11.625 53.601 15.132 55.438 22.313L65.959 61.892L74.476 30.83L72.973 22.814C71.637 15.466 68.965 11.959 67.629 10.289H67.796L67.128 9.62102C65.959 7.78403 65.792 4.44402 68.631 4.44402H103.701C106.373 4.44402 107.041 7.61702 106.54 9.45403C106.54 9.78802 106.206 9.95502 106.039 10.456L106.206 10.289C105.705 11.458 104.87 13.629 104.87 17.136C104.87 18.305 105.037 20.476 105.371 22.48C109.212 44.357 113.554 67.737 117.228 89.614ZM115.224 89.948L103.367 22.814C103.033 20.643 102.866 18.806 102.866 17.136C102.866 12.961 103.701 10.79 104.202 9.62102C104.369 9.28702 104.536 8.95302 104.536 8.78603C104.87 7.95103 104.703 6.44803 103.701 6.44803H68.631C68.13 6.44803 68.464 7.78403 68.798 8.61903C69.132 8.95302 69.8 9.78802 69.967 9.78802C71.136 11.291 73.641 14.798 74.977 22.48L76.48 30.997L65.959 69.908L53.434 22.981C51.43 15.299 52.265 11.458 52.599 9.62102C52.599 9.45403 52.766 9.12002 52.766 8.95302C52.933 8.11802 53.1 6.44803 52.432 6.44803H17.696C17.028 6.44803 17.195 7.78403 17.529 8.61903L18.698 9.95502C19.867 11.625 22.205 14.631 24.376 22.48L26.714 31.498L17.696 83.268C15.525 95.125 9.17902 100.302 5.83902 102.974V102.807L4.50302 103.976C3.83502 104.644 3.66802 105.98 4.50302 105.98H31.891C32.726 105.98 33.227 104.644 33.06 103.809L31.891 102.306V102.473C29.72 99.634 25.211 93.789 25.211 84.437C25.211 82.767 25.378 80.596 25.712 78.926L30.388 52.206L32.225 52.039L44.583 97.463C46.086 102.974 47.923 105.98 51.764 105.98H59.112C63.287 105.98 64.623 102.974 65.959 97.63L78.484 51.872L80.321 52.039L86.834 89.614C87.168 91.785 87.335 93.622 87.335 95.459C87.335 99.467 86.166 101.972 85.498 103.642L85.665 103.475C85.498 104.31 85.665 105.98 86.667 105.98H121.57C122.405 105.98 121.904 104.644 121.236 103.809L120.902 102.807L121.069 103.475C119.9 101.972 116.727 98.298 115.224 89.948Z" stroke="#BBBBB9" stroke-width="3"/>
<path d="M165.919 23.649C189.466 23.649 208.671 37.51 208.671 66.568C208.671 95.626 189.466 109.654 165.919 109.654C142.539 109.654 123.334 95.626 123.334 66.568C123.334 37.51 142.539 23.649 165.919 23.649ZM165.919 25.653C143.541 25.653 125.338 38.846 125.338 66.568C125.338 94.29 143.541 107.65 165.919 107.65C188.464 107.65 206.667 94.29 206.667 66.568C206.667 38.846 188.464 25.653 165.919 25.653ZM165.919 98.298C172.933 98.298 175.271 84.103 175.271 66.568C175.271 49.2 172.933 35.005 165.919 35.005C159.072 35.005 156.734 49.033 156.734 66.568C156.734 84.103 159.072 98.298 165.919 98.298ZM165.919 100.302C157.736 100.302 154.73 85.105 154.73 66.568C154.73 48.031 157.736 33.001 165.919 33.001C174.269 33.001 177.275 48.198 177.275 66.568C177.275 85.105 174.269 100.302 165.919 100.302Z" stroke="#BBBBB9" stroke-width="3"/>
<path d="M295.148 43.522C295.148 57.383 270.265 61.558 263.418 59.387C263.919 56.715 264.086 54.377 264.086 52.373C264.086 43.355 261.414 35.005 257.573 35.005C253.231 35.005 250.392 43.689 249.724 53.208C248.054 74.751 258.074 82.266 268.929 82.266C275.275 82.266 281.788 79.761 286.965 76.087C291.307 72.914 295.148 75.92 295.148 79.594C295.148 96.795 277.613 109.654 257.907 109.654C234.36 109.654 214.988 95.626 214.988 66.568C214.988 37.51 236.03 23.649 259.577 23.649C279.116 23.649 295.148 30.496 295.148 43.522ZM293.144 43.522C293.144 31.832 278.114 25.653 259.577 25.653C237.032 25.653 216.992 38.846 216.992 66.568C216.992 94.29 235.362 107.65 257.907 107.65C276.611 107.65 293.144 95.793 293.144 79.594C293.144 77.59 290.806 75.92 288.134 77.757H288.301C282.79 81.765 275.776 84.27 268.929 84.27C257.072 84.27 246.384 75.419 247.72 53.208C248.388 42.854 252.062 33.001 257.573 33.001C262.416 33.001 266.09 42.353 266.09 52.373C266.09 54.21 265.923 56.214 265.756 57.884C272.603 59.22 293.144 55.379 293.144 43.522Z" stroke="#BBBBB9" stroke-width="3"/>
<path d="M378.617 25.319C381.79 25.319 381.957 28.325 379.285 30.663C374.442 34.671 359.746 49.2 344.716 64.23C345.885 64.063 347.388 64.063 349.058 64.063C357.074 64.063 368.597 67.236 370.935 79.761L372.605 89.614C373.774 96.127 377.114 100.636 378.283 101.972H378.116C379.953 103.809 380.955 107.984 375.778 107.984H342.545C339.873 107.984 338.704 105.312 338.871 103.475C339.205 101.471 340.541 92.787 340.541 84.771C340.541 81.765 340.374 78.926 339.873 76.254C339.539 73.916 338.537 72.914 337.535 72.914C336.199 72.914 334.696 73.916 333.527 75.586V93.455C333.527 98.298 334.696 101.638 335.531 102.807C336.533 104.644 336.199 107.984 333.193 107.984H303.801C300.795 107.984 300.461 104.644 301.463 102.807C302.298 101.638 303.467 98.298 303.467 93.455V22.313C303.467 17.637 301.463 14.297 300.628 13.128V13.295C299.292 11.625 299.459 8.11802 302.966 7.28302L331.857 2.27302C335.03 1.77203 336.533 3.60902 336.032 6.28103L335.197 9.28702C334.362 11.792 333.527 15.466 333.527 21.311V59.888L345.05 48.365C348.056 45.359 348.891 42.186 348.891 39.347C348.891 35.339 347.221 32.333 346.386 30.997C346.219 30.663 345.885 30.162 345.885 29.995C344.382 27.323 345.885 25.319 348.891 25.319H378.617ZM378.617 27.323H348.891C347.555 27.323 346.887 28.325 347.722 29.661C347.722 29.828 347.889 29.661 348.056 29.995C348.891 31.665 350.895 35.172 350.895 39.347C350.895 42.52 349.893 46.194 346.386 49.701L331.523 64.564V21.311C331.523 15.466 332.525 10.957 333.36 8.28502L334.028 5.94702C334.195 4.77803 333.694 3.94303 332.191 4.27702L303.3 9.28702C302.131 9.62102 301.296 10.623 301.63 11.124C302.632 12.627 305.471 16.969 305.471 22.313V93.455C305.471 98.465 303.968 102.306 303.133 103.809C302.799 104.644 302.799 105.98 303.801 105.98H333.193C334.195 105.98 334.195 104.644 333.861 103.809C333.026 102.306 331.523 98.465 331.523 93.455V75.252C333.193 72.747 335.531 70.91 337.535 70.91C339.372 70.91 341.209 72.58 341.877 75.92C342.378 78.425 342.545 81.598 342.545 84.771C342.545 92.787 341.209 101.471 340.875 103.809C340.875 104.644 341.376 105.98 342.545 105.98H375.778C377.949 105.98 377.448 104.143 376.613 103.308C375.444 101.972 371.937 97.63 370.601 89.948C370.267 87.443 369.432 82.6 368.931 80.095C367.261 68.071 356.573 66.067 349.058 66.067C346.052 66.067 341.71 66.568 339.539 66.902C357.408 48.866 374.609 31.665 377.949 28.993C378.951 28.325 379.285 27.323 378.617 27.323Z" stroke="#BBBBB9" stroke-width="3"/>
<path d="M473.088 88.779H473.255C476.929 89.447 477.263 90.115 477.263 93.121C477.263 98.632 471.251 107.984 458.392 107.984C448.038 107.984 440.022 101.972 440.022 92.62V91.618C435.346 99.3 424.825 107.984 413.302 107.984C399.274 107.984 389.087 97.463 389.087 81.932V45.359C389.087 40.85 387.083 37.51 386.248 36.341V36.508C384.912 34.671 384.745 31.164 388.586 30.329L417.477 25.319C420.984 24.818 422.153 26.488 421.652 29.327L420.817 32.333C419.982 34.838 419.147 38.512 419.147 44.357V74.417C419.147 82.934 423.823 85.773 429.167 85.773C433.008 85.773 437.016 84.27 440.022 82.433V45.359C440.022 40.85 438.185 37.677 437.183 36.508C435.847 34.671 435.513 31.164 439.688 30.329L468.579 25.319C471.752 24.818 472.921 26.655 472.754 29.494L472.253 31.498C471.418 34.17 470.082 38.345 470.082 44.357V82.099C470.082 86.441 471.418 88.612 473.088 88.779ZM475.259 93.121C475.259 91.618 475.092 91.117 473.088 90.783C470.416 90.616 468.078 87.61 468.078 82.099V44.357C468.078 37.677 469.414 33.502 470.249 30.83V30.997L470.75 28.993C470.75 27.991 469.748 27.323 468.913 27.323L440.022 32.333C438.352 32.834 438.185 34.337 438.853 35.172C439.855 36.341 442.026 40.182 442.026 45.359V83.435C438.519 85.94 433.509 87.777 429.167 87.777C422.821 87.777 417.143 84.27 417.143 74.417V44.357C417.143 38.512 418.145 34.003 418.98 31.331L419.648 28.993C419.815 27.991 418.98 27.323 417.811 27.323L388.92 32.333C387.25 32.834 387.25 34.504 387.918 35.339C388.753 36.675 391.091 40.349 391.091 45.359V81.932C391.091 96.127 400.276 105.98 413.302 105.98C425.994 105.98 437.35 94.123 440.189 86.441L442.026 86.775V92.62C442.026 100.636 449.04 105.98 458.392 105.98C469.915 105.98 475.259 97.964 475.259 93.121Z" stroke="#BBBBB9" stroke-width="3"/>
<path d="M539.917 25.319C553.945 25.319 566.303 38.679 566.303 66.568C566.303 94.624 553.945 107.984 539.917 107.984C529.897 107.984 520.044 100.636 515.368 92.119V128.358C515.368 133.368 516.537 136.541 517.372 137.71C518.374 139.547 518.04 142.887 515.034 142.887H485.642C482.636 142.887 482.302 139.547 483.304 137.71C484.139 136.541 485.308 133.368 485.308 128.358V45.359C485.308 40.85 483.304 37.51 482.469 36.341V36.508C481.133 34.671 480.966 31.164 484.807 30.329L513.698 25.319C517.205 24.818 518.374 26.488 517.873 29.327L517.038 32.333C516.37 34.337 515.702 37.009 515.368 41.017C520.211 32.333 529.897 25.319 539.917 25.319ZM539.917 27.323C528.895 27.323 518.374 36.675 515.201 46.862L513.364 46.528V44.357C513.364 38.512 514.366 34.003 515.201 31.331L515.869 28.993C516.036 27.991 515.201 27.323 514.032 27.323L485.141 32.333C483.471 32.834 483.471 34.504 484.139 35.339C484.974 36.675 487.312 40.349 487.312 45.359V128.358C487.312 133.535 485.809 137.209 484.974 138.712C484.64 139.547 484.64 140.883 485.642 140.883H515.034C516.036 140.883 516.036 139.547 515.702 138.712C514.867 137.209 513.364 133.535 513.364 128.358V86.775L515.201 86.441C518.207 96.461 528.728 105.98 539.917 105.98C552.943 105.98 564.299 93.288 564.299 66.568C564.299 40.015 552.943 27.323 539.917 27.323ZM513.364 83.268V49.701C516.704 47.029 519.71 45.693 522.382 45.693C529.897 45.693 535.575 54.711 535.575 66.568C535.575 78.258 529.897 87.443 522.382 87.443C519.71 87.443 516.704 86.274 513.364 83.268ZM515.368 50.703V82.6C517.873 84.771 520.044 85.439 522.382 85.439C528.895 85.439 533.571 77.256 533.571 66.568C533.571 55.713 528.895 47.697 522.382 47.697C520.211 47.697 518.04 48.699 515.368 50.703Z" stroke="#BBBBB9" stroke-width="3"/>
<path d="M647.949 43.355C647.949 52.54 640.1 55.045 632.251 55.045C627.575 55.045 622.565 54.043 619.058 52.874C621.062 43.355 614.549 35.005 608.871 35.005C604.863 35.005 602.024 37.009 602.024 41.685C602.024 46.862 610.541 51.204 619.893 55.88C632.919 62.56 647.949 69.908 647.949 83.435C647.949 98.465 630.247 109.654 610.374 109.654C593.841 109.654 575.304 106.314 572.966 95.96C571.63 86.775 584.322 76.588 595.678 77.256C600.521 77.423 601.523 79.26 601.523 82.767C601.523 89.28 607.368 98.298 611.877 98.298C615.885 98.298 618.891 96.294 618.891 91.618C618.891 86.942 610.04 82.266 601.356 77.924C589.165 71.745 572.966 62.393 572.966 49.868C572.966 35.339 589.165 23.649 615.05 23.649C634.589 23.649 647.949 31.665 647.949 43.355ZM645.945 43.355C645.945 33.001 633.253 25.653 615.05 25.653C590.501 25.653 574.97 36.341 574.97 49.868C574.97 62.393 589.666 70.075 602.358 76.254C612.378 81.264 620.895 85.606 620.895 91.618C620.895 97.63 616.887 100.302 611.877 100.302C606.366 100.302 599.519 90.282 599.519 82.767C599.519 80.596 598.851 79.427 595.678 79.26C585.157 78.592 573.3 87.443 574.97 95.626C576.64 104.978 594.342 107.65 610.374 107.65C629.245 107.65 645.945 97.463 645.945 83.435C645.945 71.244 631.416 63.896 618.891 57.55C609.205 52.707 600.02 47.864 600.02 41.685C600.02 35.673 603.861 33.001 608.871 33.001C615.217 33.001 622.732 41.685 621.396 51.538C624.235 52.373 628.41 53.041 632.251 53.041C639.098 53.041 645.945 50.87 645.945 43.355Z" stroke="#BBBBB9" stroke-width="3"/>
</svg>
