<svg width="584" height="60" viewBox="0 0 584 60" fill="none" xmlns="http://www.w3.org/2000/svg">
<path d="M54.92 4.66997L54.56 5.20996C53.93 6.19997 52.85 8.08996 52.85 11.69V47.87C52.85 51.83 54.2 53.72 54.83 54.62L54.92 54.89C55.55 55.88 55.28 57.68 53.75 57.68H41.06C38.45 57.68 36.2 55.97 35.75 53.09C32.69 55.88 28.55 57.68 23.6 57.68C12.53 57.68 3.80004 51.83 3.80004 37.79V11.69C3.80004 7.90997 2.72004 5.92997 2.09004 5.11997C2.00004 5.02997 1.82004 4.75996 1.82004 4.66997C1.19004 3.67997 1.46004 1.87996 2.99004 1.87996H21.89C23.42 1.87996 23.69 3.67997 23.06 4.66997L22.7 5.20996C22.07 6.01996 21.08 7.90997 21.08 11.69V37.79C21.08 44.81 22.61 50.75 27.11 50.75C31.07 50.75 35.66 46.61 35.66 39.5V11.69C35.66 7.63996 34.31 5.74997 33.68 4.84996L33.5 4.39996L33.59 4.66997C33.05 3.67997 33.05 1.87996 34.85 1.87996H53.75C55.19 1.87996 55.46 3.67997 54.92 4.66997ZM54.11 4.03996L54.02 4.12997C54.29 3.67997 54.29 2.95997 53.75 2.95997H34.85C34.22 2.95997 34.31 3.85997 34.58 4.30997L34.76 4.66997L34.67 4.39996C35.3 5.38997 36.74 7.36996 36.74 11.69V39.5C36.74 47.33 31.61 51.83 27.11 51.83C21.71 51.83 20 45.35 20 37.79V11.69C20 7.45997 21.26 5.47997 21.89 4.57997L22.25 4.03996L22.16 4.12997C22.43 3.67997 22.43 2.95997 21.89 2.95997H2.99004C2.54004 2.95997 2.54004 3.67997 2.72004 4.12997L2.99004 4.57997C3.62004 5.47997 4.88004 7.45997 4.88004 11.69V37.79C4.88004 51.11 13.07 56.6 23.6 56.6C28.82 56.6 33.23 54.35 36.74 50.75C36.74 54.17 38.72 56.6 41.06 56.6H53.75C54.29 56.6 54.2 55.7 53.93 55.25L53.75 54.8L53.84 55.07C53.21 54.08 51.77 52.1 51.77 47.87V11.69C51.77 7.54997 53.12 5.47997 53.75 4.57997L54.11 4.03996Z" stroke="#CBCAC7" stroke-width="2"/>
<path d="M98.2979 22.85C98.2979 27.8 94.0679 29.15 89.8379 29.15C87.3179 29.15 84.6179 28.61 82.7279 27.98C83.8079 22.85 80.2979 18.35 77.2379 18.35C75.0779 18.35 73.5479 19.43 73.5479 21.95C73.5479 24.74 78.1379 27.08 83.1779 29.6C90.1979 33.2 98.2979 37.16 98.2979 44.45C98.2979 52.55 88.7579 58.58 78.0479 58.58C69.1379 58.58 59.1479 56.78 57.8879 51.2C57.1679 46.25 64.0079 40.76 70.1279 41.12C72.7379 41.21 73.2779 42.2 73.2779 44.09C73.2779 47.6 76.4279 52.46 78.8579 52.46C81.0179 52.46 82.6379 51.38 82.6379 48.86C82.6379 46.34 77.8679 43.82 73.1879 41.48C66.6179 38.15 57.8879 33.11 57.8879 26.36C57.8879 18.53 66.6179 12.23 80.5679 12.23C91.0979 12.23 98.2979 16.55 98.2979 22.85ZM97.2179 22.85C97.2179 17.27 90.3779 13.31 80.5679 13.31C67.3379 13.31 58.9679 19.07 58.9679 26.36C58.9679 33.11 66.8879 37.25 73.7279 40.58C79.1279 43.28 83.7179 45.62 83.7179 48.86C83.7179 52.1 81.5579 53.54 78.8579 53.54C75.8879 53.54 72.1979 48.14 72.1979 44.09C72.1979 42.92 71.8379 42.29 70.1279 42.2C64.4579 41.84 58.0679 46.61 58.9679 51.02C59.8679 56.06 69.4079 57.5 78.0479 57.5C88.2179 57.5 97.2179 52.01 97.2179 44.45C97.2179 37.88 89.3879 33.92 82.6379 30.5C77.4179 27.89 72.4679 25.28 72.4679 21.95C72.4679 18.71 74.5379 17.27 77.2379 17.27C80.6579 17.27 84.7079 21.95 83.9879 27.26C85.5179 27.71 87.7679 28.07 89.8379 28.07C93.5279 28.07 97.2179 26.9 97.2179 22.85Z" stroke="#CBCAC7" stroke-width="2"/>
<path d="M143.713 26.9C143.713 30.23 142.453 33.02 137.233 33.92L119.323 37.07C121.033 42.29 124.813 43.91 128.773 43.91C132.913 43.91 137.143 42.11 139.303 40.49C141.463 38.96 143.713 40.4 143.713 42.38C143.713 52.82 133.003 58.58 123.463 58.58C110.863 58.58 100.513 51.02 100.513 35.36C100.513 19.7 110.863 12.23 123.463 12.23C137.323 12.23 143.713 20.51 143.713 26.9ZM142.633 26.9C142.633 21.05 136.603 13.31 123.463 13.31C111.403 13.31 101.593 20.42 101.593 35.36C101.593 50.3 111.403 57.5 123.463 57.5C132.463 57.5 142.633 52.1 142.633 42.38C142.633 41.39 141.193 40.85 140.023 41.39C137.773 43.01 133.183 44.99 128.773 44.99C124.183 44.99 119.773 42.83 117.883 36.17L137.053 32.84C141.283 31.94 142.633 29.6 142.633 26.9ZM126.613 30.68C124.723 31.04 117.343 32.3 117.343 32.3C117.163 31.04 117.163 30.32 117.163 29.69C117.163 23.12 120.043 17.27 122.923 17.27C125.713 17.27 127.873 21.32 129.313 25.82C129.313 25.91 129.403 26 129.403 26.09C129.853 27.53 130.483 29.96 126.613 30.68ZM126.433 29.6C129.133 29.06 128.593 27.35 128.323 26.45C128.323 26.36 128.233 26.36 128.233 26.18C126.973 22.04 125.083 18.35 122.923 18.35C120.583 18.35 118.243 23.66 118.243 29.69C118.243 30.32 118.153 30.41 118.243 31.04L126.433 29.6Z" stroke="#CBCAC7" stroke-width="2"/>
<path d="M179.066 13.13C185.456 13.13 189.146 16.19 189.146 20.6C189.146 27.44 179.876 31.67 174.206 31.67C174.206 27.53 171.416 24.74 168.446 24.74C167.096 24.74 165.566 25.46 164.396 26.81V49.85C164.396 52.46 165.026 54.26 165.476 54.89C166.016 55.88 165.836 57.68 164.216 57.68H148.376C146.756 57.68 146.576 55.88 147.116 54.89C147.566 54.26 148.196 52.46 148.196 49.85V23.93C148.196 21.5 147.116 19.7 146.666 19.07V19.16C145.946 18.17 145.856 16.28 147.926 15.83L163.496 13.13C165.386 12.86 166.016 13.76 165.746 15.29L165.296 16.91C164.936 18.08 164.486 19.61 164.396 21.86C166.556 18.35 171.956 13.13 179.066 13.13ZM179.066 14.21C170.606 14.21 164.936 21.95 164.396 24.56L163.316 24.47V23.39C163.316 20.24 163.856 17.81 164.306 16.37L164.666 15.11C164.756 14.57 164.306 14.21 163.676 14.21L148.106 16.91C147.206 17.18 147.206 18.08 147.566 18.53C148.016 19.25 149.276 21.23 149.276 23.93V49.85C149.276 52.55 148.466 54.62 148.016 55.43C147.836 55.88 147.836 56.6 148.376 56.6H164.216C164.756 56.6 164.756 55.88 164.576 55.43C164.126 54.62 163.316 52.55 163.316 49.85V26.27C164.846 24.47 166.646 23.66 168.446 23.66C171.866 23.66 175.106 26.27 175.286 30.59C180.326 30.32 188.066 26.54 188.066 20.6C188.066 16.91 184.736 14.21 179.066 14.21Z" stroke="#CBCAC7" stroke-width="2"/>
<path d="M244.372 1.33997C256.252 1.33997 263.092 7.90997 263.092 16.46C263.092 30.86 248.242 35.45 236.722 38.87L234.742 39.5V47.87C234.742 51.56 235.822 53.63 236.452 54.53C236.632 54.71 236.812 54.89 236.812 55.07C237.352 56.06 236.992 57.68 235.552 57.68H216.652C215.122 57.68 214.852 55.88 215.482 54.89L215.392 55.16C215.392 55.34 215.662 54.71 215.752 54.53C216.382 53.63 217.462 51.56 217.462 47.87V11.69C217.462 7.90997 216.382 5.92997 215.752 5.11997C215.662 5.02997 215.482 4.75996 215.482 4.66997C214.852 3.67997 215.122 1.87996 216.652 1.87996H224.122C227.452 1.87996 231.502 1.78997 235.282 1.60997C238.702 1.51996 241.942 1.33997 244.372 1.33997ZM244.372 2.41996C241.942 2.41996 238.702 2.59997 235.282 2.68996C231.682 2.86997 227.272 2.95997 224.122 2.95997H216.652C216.202 2.95997 216.202 3.67997 216.382 4.12997L216.652 4.57997C217.282 5.47997 218.542 7.45997 218.542 11.69V47.87C218.542 52.19 217.102 54.26 216.562 55.16L216.472 55.25C216.202 55.7 216.112 56.6 216.652 56.6H235.552C236.092 56.6 236.002 55.7 235.732 55.25C235.732 55.25 235.642 55.25 235.642 55.16C235.102 54.35 233.662 52.28 233.662 47.87V38.6L236.542 37.79H236.452C247.612 34.37 262.012 29.96 262.012 16.46C262.012 8.44997 255.532 2.41996 244.372 2.41996ZM233.662 34.82V6.46996H236.272C242.842 6.46996 244.372 14.3 244.372 19.52C244.372 24.65 240.592 31.94 233.662 34.82ZM234.742 7.54997V33.2C240.232 30.41 243.292 24.11 243.292 19.52C243.292 14.66 241.942 7.54997 236.272 7.54997H234.742Z" stroke="#CBCAC7" stroke-width="2"/>
<path d="M306.223 26.9C306.223 30.23 304.963 33.02 299.743 33.92L281.833 37.07C283.543 42.29 287.323 43.91 291.283 43.91C295.423 43.91 299.653 42.11 301.813 40.49C303.973 38.96 306.223 40.4 306.223 42.38C306.223 52.82 295.513 58.58 285.973 58.58C273.373 58.58 263.023 51.02 263.023 35.36C263.023 19.7 273.373 12.23 285.973 12.23C299.833 12.23 306.223 20.51 306.223 26.9ZM305.143 26.9C305.143 21.05 299.113 13.31 285.973 13.31C273.913 13.31 264.103 20.42 264.103 35.36C264.103 50.3 273.913 57.5 285.973 57.5C294.973 57.5 305.143 52.1 305.143 42.38C305.143 41.39 303.703 40.85 302.533 41.39C300.283 43.01 295.693 44.99 291.283 44.99C286.693 44.99 282.283 42.83 280.393 36.17L299.563 32.84C303.793 31.94 305.143 29.6 305.143 26.9ZM289.123 30.68C287.233 31.04 279.853 32.3 279.853 32.3C279.673 31.04 279.673 30.32 279.673 29.69C279.673 23.12 282.553 17.27 285.433 17.27C288.223 17.27 290.383 21.32 291.823 25.82C291.823 25.91 291.913 26 291.913 26.09C292.363 27.53 292.993 29.96 289.123 30.68ZM288.943 29.6C291.643 29.06 291.103 27.35 290.833 26.45C290.833 26.36 290.743 26.36 290.743 26.18C289.483 22.04 287.593 18.35 285.433 18.35C283.093 18.35 280.753 23.66 280.753 29.69C280.753 30.32 280.663 30.41 280.753 31.04L288.943 29.6Z" stroke="#CBCAC7" stroke-width="2"/>
<path d="M341.576 13.13C347.966 13.13 351.656 16.19 351.656 20.6C351.656 27.44 342.386 31.67 336.716 31.67C336.716 27.53 333.926 24.74 330.956 24.74C329.606 24.74 328.076 25.46 326.906 26.81V49.85C326.906 52.46 327.536 54.26 327.986 54.89C328.526 55.88 328.346 57.68 326.726 57.68H310.886C309.266 57.68 309.086 55.88 309.626 54.89C310.076 54.26 310.706 52.46 310.706 49.85V23.93C310.706 21.5 309.626 19.7 309.176 19.07V19.16C308.456 18.17 308.366 16.28 310.436 15.83L326.006 13.13C327.896 12.86 328.526 13.76 328.256 15.29L327.806 16.91C327.446 18.08 326.996 19.61 326.906 21.86C329.066 18.35 334.466 13.13 341.576 13.13ZM341.576 14.21C333.116 14.21 327.446 21.95 326.906 24.56L325.826 24.47V23.39C325.826 20.24 326.366 17.81 326.816 16.37L327.176 15.11C327.266 14.57 326.816 14.21 326.186 14.21L310.616 16.91C309.716 17.18 309.716 18.08 310.076 18.53C310.526 19.25 311.786 21.23 311.786 23.93V49.85C311.786 52.55 310.976 54.62 310.526 55.43C310.346 55.88 310.346 56.6 310.886 56.6H326.726C327.266 56.6 327.266 55.88 327.086 55.43C326.636 54.62 325.826 52.55 325.826 49.85V26.27C327.356 24.47 329.156 23.66 330.956 23.66C334.376 23.66 337.616 26.27 337.796 30.59C342.836 30.32 350.576 26.54 350.576 20.6C350.576 16.91 347.246 14.21 341.576 14.21Z" stroke="#CBCAC7" stroke-width="2"/>
<path d="M394.226 22.85C394.226 27.8 389.996 29.15 385.766 29.15C383.246 29.15 380.546 28.61 378.656 27.98C379.736 22.85 376.226 18.35 373.166 18.35C371.006 18.35 369.476 19.43 369.476 21.95C369.476 24.74 374.066 27.08 379.106 29.6C386.126 33.2 394.226 37.16 394.226 44.45C394.226 52.55 384.686 58.58 373.976 58.58C365.066 58.58 355.076 56.78 353.816 51.2C353.096 46.25 359.936 40.76 366.056 41.12C368.666 41.21 369.206 42.2 369.206 44.09C369.206 47.6 372.356 52.46 374.786 52.46C376.946 52.46 378.566 51.38 378.566 48.86C378.566 46.34 373.796 43.82 369.116 41.48C362.546 38.15 353.816 33.11 353.816 26.36C353.816 18.53 362.546 12.23 376.496 12.23C387.026 12.23 394.226 16.55 394.226 22.85ZM393.146 22.85C393.146 17.27 386.306 13.31 376.496 13.31C363.266 13.31 354.896 19.07 354.896 26.36C354.896 33.11 362.816 37.25 369.656 40.58C375.056 43.28 379.646 45.62 379.646 48.86C379.646 52.1 377.486 53.54 374.786 53.54C371.816 53.54 368.126 48.14 368.126 44.09C368.126 42.92 367.766 42.29 366.056 42.2C360.386 41.84 353.996 46.61 354.896 51.02C355.796 56.06 365.336 57.5 373.976 57.5C384.146 57.5 393.146 52.01 393.146 44.45C393.146 37.88 385.316 33.92 378.566 30.5C373.346 27.89 368.396 25.28 368.396 21.95C368.396 18.71 370.466 17.27 373.166 17.27C376.586 17.27 380.636 21.95 379.916 27.26C381.446 27.71 383.696 28.07 385.766 28.07C389.456 28.07 393.146 26.9 393.146 22.85Z" stroke="#CBCAC7" stroke-width="2"/>
<path d="M419.391 12.23C432.081 12.23 442.431 19.7 442.431 35.36C442.431 51.02 432.081 58.58 419.391 58.58C406.791 58.58 396.44 51.02 396.44 35.36C396.44 19.7 406.791 12.23 419.391 12.23ZM419.391 13.31C407.331 13.31 397.521 20.42 397.521 35.36C397.521 50.3 407.331 57.5 419.391 57.5C431.541 57.5 441.35 50.3 441.35 35.36C441.35 20.42 431.541 13.31 419.391 13.31ZM419.391 52.46C423.171 52.46 424.431 44.81 424.431 35.36C424.431 26 423.171 18.35 419.391 18.35C415.701 18.35 414.44 25.91 414.44 35.36C414.44 44.81 415.701 52.46 419.391 52.46ZM419.391 53.54C414.981 53.54 413.361 45.35 413.361 35.36C413.361 25.37 414.981 17.27 419.391 17.27C423.891 17.27 425.51 25.46 425.51 35.36C425.51 45.35 423.891 53.54 419.391 53.54Z" stroke="#CBCAC7" stroke-width="2"/>
<path d="M491.227 54.89C491.857 55.88 491.587 57.68 490.057 57.68H474.217C472.507 57.68 472.327 55.88 472.957 54.89C473.317 54.35 474.037 52.55 474.037 49.85V31.13C474.037 26.63 471.427 25.1 468.547 25.1C466.477 25.1 464.317 25.82 462.697 26.81V49.85C462.697 52.46 463.327 54.26 463.777 54.89C464.317 55.88 464.137 57.68 462.517 57.68H446.677C445.057 57.68 444.877 55.88 445.417 54.89C445.867 54.26 446.497 52.46 446.497 49.85V23.93C446.497 21.5 445.417 19.7 444.967 19.07V19.16C444.247 18.17 444.157 16.28 446.227 15.83L461.797 13.13C463.687 12.86 464.317 13.76 464.047 15.29L463.597 16.91C463.237 18.08 462.787 19.7 462.697 22.04C465.307 17.9 470.887 13.13 477.187 13.13C484.747 13.13 490.237 18.8 490.237 27.08V49.85C490.237 52.55 490.867 54.35 491.227 54.89ZM490.327 55.43C489.967 54.71 489.157 52.73 489.157 49.85V27.08C489.157 19.52 484.207 14.21 477.187 14.21C470.347 14.21 464.227 20.51 462.607 24.74L461.617 24.56V23.39C461.617 20.24 462.157 17.81 462.607 16.37L462.967 15.11C463.057 14.57 462.607 14.21 461.977 14.21L446.407 16.91C445.507 17.18 445.507 18.08 445.867 18.53C446.317 19.25 447.577 21.23 447.577 23.93V49.85C447.577 52.55 446.767 54.62 446.317 55.43C446.137 55.88 446.137 56.6 446.677 56.6H462.517C463.057 56.6 463.057 55.88 462.877 55.43C462.427 54.62 461.617 52.55 461.617 49.85V26.27C463.597 24.92 466.207 24.02 468.547 24.02C471.967 24.02 475.117 25.91 475.117 31.13V49.85C475.117 52.82 474.217 54.8 473.857 55.43C473.587 55.88 473.587 56.6 474.217 56.6H490.057C490.597 56.6 490.597 55.88 490.327 55.43Z" stroke="#CBCAC7" stroke-width="2"/>
<path d="M536.665 47.33H536.755C538.555 47.69 538.915 48.05 538.915 49.67C538.825 52.64 535.675 57.68 528.745 57.68C523.795 57.68 519.835 55.7 518.935 51.56C516.865 54.8 513.805 57.68 507.865 57.68C501.025 57.68 493.735 54.08 493.735 45.62C493.735 37.34 504.805 32.57 513.175 32.57C515.425 32.57 517.225 32.84 518.845 33.56V30.23C518.845 25.91 517.225 19.25 513.805 19.25C511.375 19.25 510.655 21.41 510.655 23.84C510.655 27.08 512.095 31.49 512.095 31.49C512.095 31.49 507.415 32.66 503.365 32.66C499.945 32.66 496.525 31.85 494.815 29.42C494.095 28.34 493.735 26.99 493.735 25.91C493.735 19.52 503.815 13.13 514.885 13.13C527.125 13.13 535.045 19.07 535.045 28.79V43.73C535.045 46.07 535.765 47.24 536.665 47.33ZM536.575 48.41C535.135 48.23 533.965 46.61 533.965 43.73V28.79C533.965 19.79 526.405 14.21 514.885 14.21C504.355 14.21 494.815 20.06 494.815 25.91C494.815 26.9 495.085 27.89 495.715 28.88C497.155 30.95 500.305 31.58 503.365 31.58C506.515 31.58 510.655 30.77 510.655 30.77C510.295 29.6 509.575 26.72 509.575 23.84C509.575 20.87 510.475 18.17 513.805 18.17C517.945 18.17 519.925 25.55 519.925 30.23V35.27C517.855 34.19 515.515 33.65 513.175 33.65C505.345 33.65 494.815 38.06 494.815 45.62C494.815 53.36 501.565 56.6 507.865 56.6C513.895 56.6 517.585 52.82 519.835 48.86C519.925 54.53 523.705 56.6 528.745 56.6C534.955 56.6 537.745 52.28 537.835 49.67C537.835 48.77 537.655 48.68 536.575 48.41ZM519.925 47.87C518.395 48.68 509.845 48.86 509.845 43.37C509.845 37.16 516.595 36.17 519.925 36.17V47.87ZM518.845 47.06V37.25C515.965 37.34 510.925 38.24 510.925 43.37C510.925 47.78 517.585 47.42 518.845 47.06Z" stroke="#CBCAC7" stroke-width="2"/>
<path d="M582.136 22.85C582.136 27.8 577.906 29.15 573.676 29.15C571.156 29.15 568.456 28.61 566.566 27.98C567.646 22.85 564.136 18.35 561.076 18.35C558.916 18.35 557.386 19.43 557.386 21.95C557.386 24.74 561.976 27.08 567.016 29.6C574.036 33.2 582.136 37.16 582.136 44.45C582.136 52.55 572.596 58.58 561.886 58.58C552.976 58.58 542.986 56.78 541.726 51.2C541.006 46.25 547.846 40.76 553.966 41.12C556.576 41.21 557.116 42.2 557.116 44.09C557.116 47.6 560.266 52.46 562.696 52.46C564.856 52.46 566.476 51.38 566.476 48.86C566.476 46.34 561.706 43.82 557.026 41.48C550.456 38.15 541.726 33.11 541.726 26.36C541.726 18.53 550.456 12.23 564.406 12.23C574.936 12.23 582.136 16.55 582.136 22.85ZM581.056 22.85C581.056 17.27 574.216 13.31 564.406 13.31C551.176 13.31 542.806 19.07 542.806 26.36C542.806 33.11 550.726 37.25 557.566 40.58C562.966 43.28 567.556 45.62 567.556 48.86C567.556 52.1 565.396 53.54 562.696 53.54C559.726 53.54 556.036 48.14 556.036 44.09C556.036 42.92 555.676 42.29 553.966 42.2C548.296 41.84 541.906 46.61 542.806 51.02C543.706 56.06 553.246 57.5 561.886 57.5C572.056 57.5 581.056 52.01 581.056 44.45C581.056 37.88 573.226 33.92 566.476 30.5C561.256 27.89 556.306 25.28 556.306 21.95C556.306 18.71 558.376 17.27 561.076 17.27C564.496 17.27 568.546 21.95 567.826 27.26C569.356 27.71 571.606 28.07 573.676 28.07C577.366 28.07 581.056 26.9 581.056 22.85Z" stroke="#CBCAC7" stroke-width="2"/>
</svg>
