<svg width="252" height="34" viewBox="0 0 252 34" fill="none" xmlns="http://www.w3.org/2000/svg">
<mask id="path-1-outside-1_406_84" maskUnits="userSpaceOnUse" x="0.912109" y="0.269531" width="251" height="34" fill="black">
<rect fill="white" x="0.912109" y="0.269531" width="251" height="34"/>
<path d="M15.0357 31.4179C14.5317 31.5619 14.0517 31.6339 13.5957 31.6339C13.1397 31.6579 12.6717 31.6819 12.1917 31.7059C11.7357 31.7299 11.0997 31.7419 10.2837 31.7419C9.46775 31.7419 8.24375 31.7179 6.61175 31.6699C6.22775 31.6939 5.84375 31.7059 5.45975 31.7059C5.07575 31.7059 4.71575 31.6339 4.37975 31.4899C3.63575 31.1779 3.13175 30.4579 2.86775 29.3299C2.74775 28.8019 2.61575 28.4299 2.47175 28.2139C2.30375 27.9979 2.17175 27.7939 2.07575 27.6019C1.83575 27.2179 1.85975 26.5819 2.14775 25.6939C2.41175 24.8059 2.75975 23.7139 3.19175 22.4179C3.62375 21.0979 4.11575 19.7059 4.66775 18.2419C5.96375 14.7619 7.12775 12.0019 8.15975 9.96189C8.56775 9.0499 8.91575 8.2579 9.20375 7.5859C9.51575 6.9139 9.79175 6.3379 10.0317 5.85789C10.2717 5.3539 10.3917 5.0899 10.3917 5.0659C10.6317 4.15389 11.5557 3.38589 13.1637 2.7619C14.7237 2.1139 16.1397 1.9459 17.4117 2.2579C18.8277 2.6179 19.4517 3.5539 19.2837 5.0659C18.9477 6.5539 18.4437 8.0419 17.7717 9.5299C17.1237 11.0179 16.3797 12.5779 15.5397 14.2099C14.6997 15.8419 13.7877 17.5699 12.8037 19.3939C11.8197 21.2179 10.8477 23.1979 9.88775 25.3339C9.86375 25.4299 9.91175 25.5139 10.0317 25.5859C10.3437 25.5619 10.7757 25.4659 11.3277 25.2979C11.9037 25.1299 12.4917 24.9859 13.0917 24.8659C13.7157 24.7219 14.3277 24.6499 14.9277 24.6499C15.5277 24.6499 16.0317 24.8059 16.4397 25.1179C16.4157 25.5499 16.5237 25.8979 16.7637 26.1619C17.0037 26.4019 17.2437 26.6419 17.4837 26.8819C18.0837 27.5059 18.1317 28.3339 17.6277 29.3659C17.1477 30.3739 16.2837 31.0579 15.0357 31.4179Z"/>
<path d="M34.5764 3.6259V3.69789C34.5764 3.7219 34.5764 3.7339 34.5764 3.7339C34.6004 3.7339 34.6124 3.7459 34.6124 3.7699V3.84189H34.6484L34.8644 4.4179C35.1044 5.1139 34.4804 7.2739 32.9924 10.8979C31.4084 14.7619 30.6764 17.7739 30.7964 19.9339C31.0604 21.4699 32.3444 20.2339 34.6484 16.2259C36.4724 13.1059 38.2364 9.6859 39.9404 5.9659C40.1564 5.4619 40.3844 4.9459 40.6244 4.4179C40.8644 3.8659 41.1644 3.4099 41.5244 3.0499C42.3164 2.1859 43.2764 1.9579 44.4044 2.36589C44.7884 1.90989 45.2324 1.59789 45.7364 1.4299C46.2644 1.26189 46.7564 1.22589 47.2124 1.32189C47.6924 1.4179 48.1004 1.6459 48.4364 2.00589C48.7724 2.34189 48.9524 2.7979 48.9764 3.3739C49.0484 3.8539 48.7964 4.9939 48.2204 6.7939C47.6684 8.59389 47.1524 10.2379 46.6724 11.7259C46.1924 13.2139 45.7004 14.8339 45.1964 16.5859C43.9724 20.7379 43.0004 24.6499 42.2804 28.3219C42.2564 29.0899 41.9204 29.7259 41.2724 30.2299C40.6484 30.7339 39.9404 31.0579 39.1484 31.2019C38.3804 31.3699 37.6484 31.3459 36.9524 31.1299C36.1124 30.8899 35.6684 30.2899 35.6204 29.3299C35.6204 29.0659 35.6084 28.8019 35.5844 28.5379C35.6324 29.3539 35.0444 30.0499 33.8204 30.6259C33.4844 30.7939 33.1724 30.9499 32.8844 31.0939C31.2044 31.5979 29.4404 31.4899 27.5924 30.7699C26.7284 30.4099 25.9484 29.9299 25.2524 29.3299C24.5804 28.7059 24.1124 27.9739 23.8484 27.1339C23.0084 24.4459 23.1644 20.9179 24.3164 16.5499C24.7964 14.6779 25.3844 12.8539 26.0804 11.0779C26.7764 9.3019 27.2804 8.0179 27.5924 7.2259C27.9284 6.4339 28.1684 5.8939 28.3124 5.6059C28.4564 5.2939 28.6124 4.9939 28.7804 4.7059C29.1884 3.8899 29.5364 3.3379 29.8244 3.0499L30.2564 2.65389C30.3044 2.6059 30.3524 2.5819 30.4004 2.5819C30.4484 2.5579 30.5084 2.5219 30.5804 2.4739C30.7724 2.3539 30.9764 2.2699 31.1924 2.2219L31.6964 2.1139H31.9124C32.6084 2.0179 33.2084 2.1619 33.7124 2.5459C33.7124 2.5699 33.7364 2.5819 33.7844 2.5819L34.0724 2.83389L34.1804 2.9419L34.2884 3.0859C34.2884 3.1099 34.2884 3.1219 34.2884 3.1219C34.3124 3.1219 34.3244 3.1339 34.3244 3.15789L34.3604 3.19389V3.2659C34.3844 3.2659 34.3964 3.2779 34.3964 3.3019V3.33789C34.4204 3.3619 34.4444 3.3739 34.4684 3.3739V3.4099C34.4684 3.4339 34.4684 3.4459 34.4684 3.4459C34.4924 3.4459 34.5044 3.4579 34.5044 3.48189C34.5044 3.48189 34.5164 3.49389 34.5404 3.51789V3.5539C34.5404 3.5779 34.5524 3.6019 34.5764 3.6259ZM35.5484 27.4939C35.5244 27.5179 35.5124 27.6139 35.5124 27.7819C35.5124 27.7099 35.5244 27.6619 35.5484 27.6379V27.4939Z"/>
<path d="M62.245 31.4179C61.741 31.5619 61.261 31.6339 60.805 31.6339C60.349 31.6579 59.881 31.6819 59.401 31.7059C58.945 31.7299 58.309 31.7419 57.493 31.7419C56.677 31.7419 55.453 31.7179 53.821 31.6699C53.437 31.6939 53.053 31.7059 52.669 31.7059C52.285 31.7059 51.925 31.6339 51.589 31.4899C50.845 31.1779 50.341 30.4579 50.077 29.3299C49.957 28.8019 49.825 28.4299 49.681 28.2139C49.513 27.9979 49.381 27.7939 49.285 27.6019C49.045 27.2179 49.069 26.5819 49.357 25.6939C49.621 24.8059 49.969 23.7139 50.401 22.4179C50.833 21.0979 51.325 19.7059 51.877 18.2419C53.173 14.7619 54.337 12.0019 55.369 9.96189C55.777 9.0499 56.125 8.2579 56.413 7.5859C56.725 6.9139 57.001 6.3379 57.241 5.85789C57.481 5.3539 57.601 5.0899 57.601 5.0659C57.841 4.15389 58.765 3.38589 60.373 2.7619C61.933 2.1139 63.349 1.9459 64.621 2.2579C66.037 2.6179 66.661 3.5539 66.493 5.0659C66.157 6.5539 65.653 8.0419 64.981 9.5299C64.333 11.0179 63.589 12.5779 62.749 14.2099C61.909 15.8419 60.997 17.5699 60.013 19.3939C59.029 21.2179 58.057 23.1979 57.097 25.3339C57.073 25.4299 57.121 25.5139 57.241 25.5859C57.553 25.5619 57.985 25.4659 58.537 25.2979C59.113 25.1299 59.701 24.9859 60.301 24.8659C60.925 24.7219 61.537 24.6499 62.137 24.6499C62.737 24.6499 63.241 24.8059 63.649 25.1179C63.625 25.5499 63.733 25.8979 63.973 26.1619C64.213 26.4019 64.453 26.6419 64.693 26.8819C65.293 27.5059 65.341 28.3339 64.837 29.3659C64.357 30.3739 63.493 31.0579 62.245 31.4179Z"/>
<path d="M81.7857 3.6259V3.69789C81.7857 3.7219 81.7857 3.7339 81.7857 3.7339C81.8097 3.7339 81.8217 3.7459 81.8217 3.7699V3.84189H81.8577L82.0737 4.4179C82.3137 5.1139 81.6897 7.2739 80.2017 10.8979C78.6177 14.7619 77.8857 17.7739 78.0057 19.9339C78.2697 21.4699 79.5537 20.2339 81.8577 16.2259C83.6817 13.1059 85.4457 9.6859 87.1497 5.9659C87.3657 5.4619 87.5937 4.9459 87.8337 4.4179C88.0737 3.8659 88.3737 3.4099 88.7337 3.0499C89.5257 2.1859 90.4857 1.9579 91.6137 2.36589C91.9977 1.90989 92.4417 1.59789 92.9457 1.4299C93.4737 1.26189 93.9657 1.22589 94.4217 1.32189C94.9017 1.4179 95.3097 1.6459 95.6457 2.00589C95.9817 2.34189 96.1617 2.7979 96.1857 3.3739C96.2577 3.8539 96.0057 4.9939 95.4297 6.7939C94.8777 8.59389 94.3617 10.2379 93.8817 11.7259C93.4017 13.2139 92.9097 14.8339 92.4057 16.5859C91.1817 20.7379 90.2097 24.6499 89.4897 28.3219C89.4657 29.0899 89.1297 29.7259 88.4817 30.2299C87.8577 30.7339 87.1497 31.0579 86.3577 31.2019C85.5897 31.3699 84.8577 31.3459 84.1617 31.1299C83.3217 30.8899 82.8777 30.2899 82.8297 29.3299C82.8297 29.0659 82.8177 28.8019 82.7937 28.5379C82.8417 29.3539 82.2537 30.0499 81.0297 30.6259C80.6937 30.7939 80.3817 30.9499 80.0937 31.0939C78.4137 31.5979 76.6497 31.4899 74.8017 30.7699C73.9377 30.4099 73.1577 29.9299 72.4617 29.3299C71.7897 28.7059 71.3216 27.9739 71.0576 27.1339C70.2176 24.4459 70.3736 20.9179 71.5257 16.5499C72.0057 14.6779 72.5936 12.8539 73.2896 11.0779C73.9856 9.3019 74.4897 8.0179 74.8017 7.2259C75.1377 6.4339 75.3777 5.8939 75.5217 5.6059C75.6657 5.2939 75.8217 4.9939 75.9897 4.7059C76.3977 3.8899 76.7457 3.3379 77.0337 3.0499L77.4657 2.65389C77.5137 2.6059 77.5616 2.5819 77.6096 2.5819C77.6576 2.5579 77.7177 2.5219 77.7896 2.4739C77.9816 2.3539 78.1856 2.2699 78.4016 2.2219L78.9057 2.1139H79.1217C79.8177 2.0179 80.4177 2.1619 80.9217 2.5459C80.9217 2.5699 80.9457 2.5819 80.9937 2.5819L81.2817 2.83389L81.3896 2.9419L81.4977 3.0859C81.4977 3.1099 81.4977 3.1219 81.4977 3.1219C81.5217 3.1219 81.5337 3.1339 81.5337 3.15789L81.5696 3.19389V3.2659C81.5936 3.2659 81.6057 3.2779 81.6057 3.3019V3.33789C81.6297 3.3619 81.6537 3.3739 81.6777 3.3739V3.4099C81.6777 3.4339 81.6777 3.4459 81.6777 3.4459C81.7017 3.4459 81.7137 3.4579 81.7137 3.48189C81.7137 3.48189 81.7256 3.49389 81.7496 3.51789V3.5539C81.7496 3.5779 81.7617 3.6019 81.7857 3.6259ZM82.7577 27.4939C82.7337 27.5179 82.7216 27.6139 82.7216 27.7819C82.7216 27.7099 82.7337 27.6619 82.7577 27.6379V27.4939Z"/>
<path d="M125.205 3.4099C125.445 4.0579 125.577 4.4899 125.601 4.7059C125.649 5.1619 125.481 5.5459 125.097 5.85789C125.097 5.8819 125.073 5.9179 125.025 5.9659C125.241 7.09389 125.289 8.1499 125.169 9.1339C125.049 10.1179 124.893 11.0659 124.701 11.9779C125.997 9.76989 127.029 8.1499 127.797 7.1179C129.381 4.9819 130.857 3.4579 132.225 2.5459C132.681 2.2819 133.233 2.0899 133.881 1.9699C134.553 1.8259 135.189 1.8019 135.789 1.8979C136.389 1.9939 136.881 2.2339 137.265 2.6179C137.673 3.00189 137.853 3.57789 137.805 4.34589C137.133 9.0259 136.413 13.3939 135.645 17.4499C134.877 21.4819 133.881 25.3339 132.657 29.0059V29.0779H132.621C132.333 29.9419 131.613 30.5539 130.461 30.9139C129.333 31.2499 128.325 31.2739 127.437 30.9859C126.357 30.6739 125.865 30.0979 125.961 29.2579L125.997 28.4299V28.3579C126.093 27.7819 126.141 27.3979 126.141 27.2059C126.165 26.9899 126.189 26.8339 126.213 26.7379C126.261 26.1139 126.357 25.5379 126.501 25.0099C126.669 24.4579 126.789 24.0139 126.861 23.6779C126.933 23.3419 127.005 23.0299 127.077 22.7419C127.149 22.4299 127.197 22.1899 127.221 22.0219C126.309 23.2699 125.661 24.0259 125.277 24.2899C124.317 24.9619 123.201 25.2739 121.929 25.2259C121.137 25.1779 120.681 24.9979 120.561 24.6859C120.321 24.0139 120.153 23.6179 120.057 23.4979C119.913 23.3059 119.793 22.9819 119.697 22.5259C119.073 25.2859 118.461 27.2419 117.861 28.3939C117.621 28.8499 117.381 29.2579 117.141 29.6179C116.805 30.4099 116.037 30.9619 114.837 31.2739C113.709 31.5859 112.629 31.5619 111.597 31.2019C110.541 30.8659 110.037 30.2659 110.085 29.4019C110.133 28.5379 110.313 27.4579 110.625 26.1619C110.913 24.8419 111.261 23.4499 111.669 21.9859C112.893 17.3539 113.757 14.3419 114.261 12.9499C114.789 11.5579 115.233 10.4659 115.593 9.67389C116.457 7.8259 117.225 6.4819 117.897 5.6419C118.641 4.1299 119.877 3.2179 121.605 2.9059C122.973 2.6419 124.173 2.8099 125.205 3.4099Z"/>
<path d="M151.176 3.6259V3.69789C151.176 3.7219 151.176 3.7339 151.176 3.7339C151.2 3.7339 151.212 3.7459 151.212 3.7699V3.84189H151.248L151.464 4.4179C151.704 5.1139 151.08 7.2739 149.592 10.8979C148.008 14.7619 147.276 17.7739 147.396 19.9339C147.66 21.4699 148.944 20.2339 151.248 16.2259C153.072 13.1059 154.836 9.6859 156.54 5.9659C156.756 5.4619 156.984 4.9459 157.224 4.4179C157.464 3.8659 157.764 3.4099 158.124 3.0499C158.916 2.1859 159.876 1.9579 161.004 2.36589C161.388 1.90989 161.832 1.59789 162.336 1.4299C162.864 1.26189 163.356 1.22589 163.812 1.32189C164.292 1.4179 164.7 1.6459 165.036 2.00589C165.372 2.34189 165.552 2.7979 165.576 3.3739C165.648 3.8539 165.396 4.9939 164.82 6.7939C164.268 8.59389 163.752 10.2379 163.272 11.7259C162.792 13.2139 162.3 14.8339 161.796 16.5859C160.572 20.7379 159.6 24.6499 158.88 28.3219C158.856 29.0899 158.52 29.7259 157.872 30.2299C157.248 30.7339 156.54 31.0579 155.748 31.2019C154.98 31.3699 154.248 31.3459 153.552 31.1299C152.712 30.8899 152.268 30.2899 152.22 29.3299C152.22 29.0659 152.208 28.8019 152.184 28.5379C152.232 29.3539 151.644 30.0499 150.42 30.6259C150.084 30.7939 149.772 30.9499 149.484 31.0939C147.804 31.5979 146.04 31.4899 144.192 30.7699C143.328 30.4099 142.548 29.9299 141.852 29.3299C141.18 28.7059 140.712 27.9739 140.448 27.1339C139.608 24.4459 139.764 20.9179 140.916 16.5499C141.396 14.6779 141.984 12.8539 142.68 11.0779C143.376 9.3019 143.88 8.0179 144.192 7.2259C144.528 6.4339 144.768 5.8939 144.912 5.6059C145.056 5.2939 145.212 4.9939 145.38 4.7059C145.788 3.8899 146.136 3.3379 146.424 3.0499L146.856 2.65389C146.904 2.6059 146.952 2.5819 147 2.5819C147.048 2.5579 147.108 2.5219 147.18 2.4739C147.372 2.3539 147.576 2.2699 147.792 2.2219L148.296 2.1139H148.512C149.208 2.0179 149.808 2.1619 150.312 2.5459C150.312 2.5699 150.336 2.5819 150.384 2.5819L150.672 2.83389L150.78 2.9419L150.888 3.0859C150.888 3.1099 150.888 3.1219 150.888 3.1219C150.912 3.1219 150.924 3.1339 150.924 3.15789L150.96 3.19389V3.2659C150.984 3.2659 150.996 3.2779 150.996 3.3019V3.33789C151.02 3.3619 151.044 3.3739 151.068 3.3739V3.4099C151.068 3.4339 151.068 3.4459 151.068 3.4459C151.092 3.4459 151.104 3.4579 151.104 3.48189C151.104 3.48189 151.116 3.49389 151.14 3.51789V3.5539C151.14 3.5779 151.152 3.6019 151.176 3.6259ZM152.148 27.4939C152.124 27.5179 152.112 27.6139 152.112 27.7819C152.112 27.7099 152.124 27.6619 152.148 27.6379V27.4939Z"/>
<path d="M178.88 20.4739C178.232 22.3459 177.572 24.1459 176.9 25.8739C176.228 27.6019 175.664 28.9099 175.208 29.7979C174.776 30.7099 174.392 31.3339 174.056 31.6699C173.72 32.0059 173.372 32.2339 173.012 32.3539C172.676 32.4739 172.328 32.5219 171.968 32.4979C171.632 32.4739 171.284 32.4499 170.924 32.4259C168.908 32.1139 168.284 30.6619 169.052 28.0699C169.556 26.0059 169.964 24.3259 170.276 23.0299C170.588 21.7099 170.84 20.6299 171.032 19.7899C171.248 18.9259 171.428 18.2179 171.572 17.6659C171.716 17.0899 171.872 16.5259 172.04 15.9739C172.208 15.4219 172.412 14.7979 172.652 14.1019C172.916 13.4059 173.252 12.4819 173.66 11.3299C172.748 11.4499 171.932 11.3539 171.212 11.0419C170.156 10.5859 169.724 9.6019 169.916 8.0899C170.012 7.3939 170.384 6.7459 171.032 6.1459C171.368 5.83389 171.764 5.49789 172.22 5.1379C173.156 4.39389 175.016 3.60189 177.8 2.7619C180.68 1.8979 183.152 1.48989 185.216 1.53789C185.768 1.4419 186.332 1.5139 186.908 1.7539C187.508 1.9699 187.988 2.2699 188.348 2.65389C188.708 3.0379 188.888 3.4579 188.888 3.9139C188.912 4.3699 188.624 4.7779 188.024 5.1379C187.736 5.3299 187.532 5.6539 187.412 6.1099C187.292 6.5419 187.16 7.0099 187.016 7.51389C186.872 7.9939 186.656 8.4379 186.368 8.84589C186.104 9.2539 185.672 9.4939 185.072 9.5659C184.76 9.7339 184.316 9.8539 183.74 9.9259C183.188 9.9979 182.816 10.0579 182.624 10.1059C182.456 10.1299 182.36 10.1899 182.336 10.2859C181.904 11.5579 181.388 13.1059 180.788 14.9299C180.188 16.7299 179.552 18.5779 178.88 20.4739ZM174.02 10.9339C173.972 10.9339 173.948 10.9459 173.948 10.9699C173.948 10.9699 173.972 10.9699 174.02 10.9699V10.9339Z"/>
<path d="M199.651 3.6259V3.69789C199.651 3.7219 199.651 3.7339 199.651 3.7339C199.675 3.7339 199.687 3.7459 199.687 3.7699V3.84189H199.723L199.939 4.4179C200.179 5.1139 199.554 7.2739 198.066 10.8979C196.482 14.7619 195.75 17.7739 195.87 19.9339C196.134 21.4699 197.419 20.2339 199.723 16.2259C201.547 13.1059 203.311 9.6859 205.015 5.9659C205.231 5.4619 205.459 4.9459 205.699 4.4179C205.939 3.8659 206.239 3.4099 206.599 3.0499C207.391 2.1859 208.35 1.9579 209.479 2.36589C209.862 1.90989 210.307 1.59789 210.811 1.4299C211.339 1.26189 211.83 1.22589 212.286 1.32189C212.766 1.4179 213.175 1.6459 213.511 2.00589C213.847 2.34189 214.027 2.7979 214.051 3.3739C214.123 3.8539 213.871 4.9939 213.295 6.7939C212.743 8.59389 212.227 10.2379 211.747 11.7259C211.267 13.2139 210.775 14.8339 210.271 16.5859C209.047 20.7379 208.075 24.6499 207.355 28.3219C207.331 29.0899 206.995 29.7259 206.347 30.2299C205.723 30.7339 205.015 31.0579 204.223 31.2019C203.455 31.3699 202.723 31.3459 202.027 31.1299C201.187 30.8899 200.743 30.2899 200.695 29.3299C200.695 29.0659 200.683 28.8019 200.659 28.5379C200.707 29.3539 200.119 30.0499 198.895 30.6259C198.559 30.7939 198.247 30.9499 197.959 31.0939C196.279 31.5979 194.515 31.4899 192.667 30.7699C191.803 30.4099 191.023 29.9299 190.327 29.3299C189.655 28.7059 189.187 27.9739 188.923 27.1339C188.083 24.4459 188.239 20.9179 189.391 16.5499C189.871 14.6779 190.459 12.8539 191.155 11.0779C191.851 9.3019 192.355 8.0179 192.667 7.2259C193.003 6.4339 193.243 5.8939 193.387 5.6059C193.531 5.2939 193.687 4.9939 193.855 4.7059C194.263 3.8899 194.61 3.3379 194.898 3.0499L195.331 2.65389C195.379 2.6059 195.427 2.5819 195.475 2.5819C195.523 2.5579 195.583 2.5219 195.655 2.4739C195.847 2.3539 196.051 2.2699 196.267 2.2219L196.771 2.1139H196.987C197.683 2.0179 198.282 2.1619 198.786 2.5459C198.786 2.5699 198.811 2.5819 198.859 2.5819L199.146 2.83389L199.255 2.9419L199.363 3.0859C199.363 3.1099 199.363 3.1219 199.363 3.1219C199.387 3.1219 199.398 3.1339 199.398 3.15789L199.435 3.19389V3.2659C199.459 3.2659 199.471 3.2779 199.471 3.3019V3.33789C199.495 3.3619 199.519 3.3739 199.543 3.3739V3.4099C199.543 3.4339 199.543 3.4459 199.543 3.4459C199.567 3.4459 199.579 3.4579 199.579 3.48189C199.579 3.48189 199.591 3.49389 199.615 3.51789V3.5539C199.615 3.5779 199.627 3.6019 199.651 3.6259ZM200.622 27.4939C200.598 27.5179 200.587 27.6139 200.587 27.7819C200.587 27.7099 200.598 27.6619 200.622 27.6379V27.4939Z"/>
<path d="M227.319 31.4179C226.815 31.5619 226.335 31.6339 225.879 31.6339C225.423 31.6579 224.955 31.6819 224.475 31.7059C224.019 31.7299 223.383 31.7419 222.567 31.7419C221.751 31.7419 220.527 31.7179 218.895 31.6699C218.511 31.6939 218.127 31.7059 217.743 31.7059C217.359 31.7059 216.999 31.6339 216.663 31.4899C215.919 31.1779 215.415 30.4579 215.151 29.3299C215.031 28.8019 214.899 28.4299 214.755 28.2139C214.587 27.9979 214.455 27.7939 214.359 27.6019C214.119 27.2179 214.143 26.5819 214.431 25.6939C214.695 24.8059 215.043 23.7139 215.475 22.4179C215.907 21.0979 216.399 19.7059 216.951 18.2419C218.247 14.7619 219.411 12.0019 220.443 9.96189C220.851 9.0499 221.199 8.2579 221.487 7.5859C221.799 6.9139 222.075 6.3379 222.315 5.85789C222.555 5.3539 222.675 5.0899 222.675 5.0659C222.915 4.15389 223.839 3.38589 225.447 2.7619C227.007 2.1139 228.423 1.9459 229.695 2.2579C231.111 2.6179 231.735 3.5539 231.567 5.0659C231.231 6.5539 230.727 8.0419 230.055 9.5299C229.407 11.0179 228.663 12.5779 227.823 14.2099C226.983 15.8419 226.071 17.5699 225.087 19.3939C224.103 21.2179 223.131 23.1979 222.171 25.3339C222.147 25.4299 222.195 25.5139 222.315 25.5859C222.627 25.5619 223.059 25.4659 223.611 25.2979C224.187 25.1299 224.775 24.9859 225.375 24.8659C225.999 24.7219 226.611 24.6499 227.211 24.6499C227.811 24.6499 228.315 24.8059 228.723 25.1179C228.699 25.5499 228.807 25.8979 229.047 26.1619C229.287 26.4019 229.527 26.6419 229.767 26.8819C230.367 27.5059 230.415 28.3339 229.911 29.3659C229.431 30.3739 228.567 31.0579 227.319 31.4179Z"/>
<path d="M249.74 5.35389C248.9 7.9699 248.12 10.3339 247.4 12.4459C246.704 14.5579 246.056 16.5019 245.456 18.2779C244.88 20.0539 244.34 21.6979 243.836 23.2099C243.332 24.6979 242.864 26.1259 242.432 27.4939C242.192 29.0779 241.412 30.1939 240.092 30.8419C239.324 31.2019 238.412 31.3819 237.356 31.3819C236.3 31.3819 235.508 31.2619 234.98 31.0219C234.452 30.8059 234.116 30.4819 233.972 30.0499C233.804 29.6179 233.804 29.1019 233.972 28.5019C234.116 27.8779 234.38 27.0379 234.764 25.9819C235.148 24.9019 235.628 23.4499 236.204 21.6259C236.804 19.8019 237.428 17.9539 238.076 16.0819C239.684 11.4019 240.956 8.1619 241.892 6.3619C242.252 5.6899 242.612 5.24589 242.972 5.02989C243.332 4.78989 243.68 4.62189 244.016 4.52589C244.352 4.40589 244.664 4.27389 244.952 4.1299C245.24 3.9859 245.492 3.6259 245.708 3.0499C245.948 2.4739 246.368 2.07789 246.968 1.86189C247.592 1.64589 248.168 1.63389 248.696 1.82589C249.248 1.9939 249.656 2.3779 249.92 2.9779C250.208 3.55389 250.148 4.34589 249.74 5.35389Z"/>
</mask>
<path d="M15.0357 31.4179C14.5317 31.5619 14.0517 31.6339 13.5957 31.6339C13.1397 31.6579 12.6717 31.6819 12.1917 31.7059C11.7357 31.7299 11.0997 31.7419 10.2837 31.7419C9.46775 31.7419 8.24375 31.7179 6.61175 31.6699C6.22775 31.6939 5.84375 31.7059 5.45975 31.7059C5.07575 31.7059 4.71575 31.6339 4.37975 31.4899C3.63575 31.1779 3.13175 30.4579 2.86775 29.3299C2.74775 28.8019 2.61575 28.4299 2.47175 28.2139C2.30375 27.9979 2.17175 27.7939 2.07575 27.6019C1.83575 27.2179 1.85975 26.5819 2.14775 25.6939C2.41175 24.8059 2.75975 23.7139 3.19175 22.4179C3.62375 21.0979 4.11575 19.7059 4.66775 18.2419C5.96375 14.7619 7.12775 12.0019 8.15975 9.96189C8.56775 9.0499 8.91575 8.2579 9.20375 7.5859C9.51575 6.9139 9.79175 6.3379 10.0317 5.85789C10.2717 5.3539 10.3917 5.0899 10.3917 5.0659C10.6317 4.15389 11.5557 3.38589 13.1637 2.7619C14.7237 2.1139 16.1397 1.9459 17.4117 2.2579C18.8277 2.6179 19.4517 3.5539 19.2837 5.0659C18.9477 6.5539 18.4437 8.0419 17.7717 9.5299C17.1237 11.0179 16.3797 12.5779 15.5397 14.2099C14.6997 15.8419 13.7877 17.5699 12.8037 19.3939C11.8197 21.2179 10.8477 23.1979 9.88775 25.3339C9.86375 25.4299 9.91175 25.5139 10.0317 25.5859C10.3437 25.5619 10.7757 25.4659 11.3277 25.2979C11.9037 25.1299 12.4917 24.9859 13.0917 24.8659C13.7157 24.7219 14.3277 24.6499 14.9277 24.6499C15.5277 24.6499 16.0317 24.8059 16.4397 25.1179C16.4157 25.5499 16.5237 25.8979 16.7637 26.1619C17.0037 26.4019 17.2437 26.6419 17.4837 26.8819C18.0837 27.5059 18.1317 28.3339 17.6277 29.3659C17.1477 30.3739 16.2837 31.0579 15.0357 31.4179Z" stroke="white" stroke-width="2" mask="url(#path-1-outside-1_406_84)"/>
<path d="M34.5764 3.6259V3.69789C34.5764 3.7219 34.5764 3.7339 34.5764 3.7339C34.6004 3.7339 34.6124 3.7459 34.6124 3.7699V3.84189H34.6484L34.8644 4.4179C35.1044 5.1139 34.4804 7.2739 32.9924 10.8979C31.4084 14.7619 30.6764 17.7739 30.7964 19.9339C31.0604 21.4699 32.3444 20.2339 34.6484 16.2259C36.4724 13.1059 38.2364 9.6859 39.9404 5.9659C40.1564 5.4619 40.3844 4.9459 40.6244 4.4179C40.8644 3.8659 41.1644 3.4099 41.5244 3.0499C42.3164 2.1859 43.2764 1.9579 44.4044 2.36589C44.7884 1.90989 45.2324 1.59789 45.7364 1.4299C46.2644 1.26189 46.7564 1.22589 47.2124 1.32189C47.6924 1.4179 48.1004 1.6459 48.4364 2.00589C48.7724 2.34189 48.9524 2.7979 48.9764 3.3739C49.0484 3.8539 48.7964 4.9939 48.2204 6.7939C47.6684 8.59389 47.1524 10.2379 46.6724 11.7259C46.1924 13.2139 45.7004 14.8339 45.1964 16.5859C43.9724 20.7379 43.0004 24.6499 42.2804 28.3219C42.2564 29.0899 41.9204 29.7259 41.2724 30.2299C40.6484 30.7339 39.9404 31.0579 39.1484 31.2019C38.3804 31.3699 37.6484 31.3459 36.9524 31.1299C36.1124 30.8899 35.6684 30.2899 35.6204 29.3299C35.6204 29.0659 35.6084 28.8019 35.5844 28.5379C35.6324 29.3539 35.0444 30.0499 33.8204 30.6259C33.4844 30.7939 33.1724 30.9499 32.8844 31.0939C31.2044 31.5979 29.4404 31.4899 27.5924 30.7699C26.7284 30.4099 25.9484 29.9299 25.2524 29.3299C24.5804 28.7059 24.1124 27.9739 23.8484 27.1339C23.0084 24.4459 23.1644 20.9179 24.3164 16.5499C24.7964 14.6779 25.3844 12.8539 26.0804 11.0779C26.7764 9.3019 27.2804 8.0179 27.5924 7.2259C27.9284 6.4339 28.1684 5.8939 28.3124 5.6059C28.4564 5.2939 28.6124 4.9939 28.7804 4.7059C29.1884 3.8899 29.5364 3.3379 29.8244 3.0499L30.2564 2.65389C30.3044 2.6059 30.3524 2.5819 30.4004 2.5819C30.4484 2.5579 30.5084 2.5219 30.5804 2.4739C30.7724 2.3539 30.9764 2.2699 31.1924 2.2219L31.6964 2.1139H31.9124C32.6084 2.0179 33.2084 2.1619 33.7124 2.5459C33.7124 2.5699 33.7364 2.5819 33.7844 2.5819L34.0724 2.83389L34.1804 2.9419L34.2884 3.0859C34.2884 3.1099 34.2884 3.1219 34.2884 3.1219C34.3124 3.1219 34.3244 3.1339 34.3244 3.15789L34.3604 3.19389V3.2659C34.3844 3.2659 34.3964 3.2779 34.3964 3.3019V3.33789C34.4204 3.3619 34.4444 3.3739 34.4684 3.3739V3.4099C34.4684 3.4339 34.4684 3.4459 34.4684 3.4459C34.4924 3.4459 34.5044 3.4579 34.5044 3.48189C34.5044 3.48189 34.5164 3.49389 34.5404 3.51789V3.5539C34.5404 3.5779 34.5524 3.6019 34.5764 3.6259ZM35.5484 27.4939C35.5244 27.5179 35.5124 27.6139 35.5124 27.7819C35.5124 27.7099 35.5244 27.6619 35.5484 27.6379V27.4939Z" stroke="white" stroke-width="2" mask="url(#path-1-outside-1_406_84)"/>
<path d="M62.245 31.4179C61.741 31.5619 61.261 31.6339 60.805 31.6339C60.349 31.6579 59.881 31.6819 59.401 31.7059C58.945 31.7299 58.309 31.7419 57.493 31.7419C56.677 31.7419 55.453 31.7179 53.821 31.6699C53.437 31.6939 53.053 31.7059 52.669 31.7059C52.285 31.7059 51.925 31.6339 51.589 31.4899C50.845 31.1779 50.341 30.4579 50.077 29.3299C49.957 28.8019 49.825 28.4299 49.681 28.2139C49.513 27.9979 49.381 27.7939 49.285 27.6019C49.045 27.2179 49.069 26.5819 49.357 25.6939C49.621 24.8059 49.969 23.7139 50.401 22.4179C50.833 21.0979 51.325 19.7059 51.877 18.2419C53.173 14.7619 54.337 12.0019 55.369 9.96189C55.777 9.0499 56.125 8.2579 56.413 7.5859C56.725 6.9139 57.001 6.3379 57.241 5.85789C57.481 5.3539 57.601 5.0899 57.601 5.0659C57.841 4.15389 58.765 3.38589 60.373 2.7619C61.933 2.1139 63.349 1.9459 64.621 2.2579C66.037 2.6179 66.661 3.5539 66.493 5.0659C66.157 6.5539 65.653 8.0419 64.981 9.5299C64.333 11.0179 63.589 12.5779 62.749 14.2099C61.909 15.8419 60.997 17.5699 60.013 19.3939C59.029 21.2179 58.057 23.1979 57.097 25.3339C57.073 25.4299 57.121 25.5139 57.241 25.5859C57.553 25.5619 57.985 25.4659 58.537 25.2979C59.113 25.1299 59.701 24.9859 60.301 24.8659C60.925 24.7219 61.537 24.6499 62.137 24.6499C62.737 24.6499 63.241 24.8059 63.649 25.1179C63.625 25.5499 63.733 25.8979 63.973 26.1619C64.213 26.4019 64.453 26.6419 64.693 26.8819C65.293 27.5059 65.341 28.3339 64.837 29.3659C64.357 30.3739 63.493 31.0579 62.245 31.4179Z" stroke="white" stroke-width="2" mask="url(#path-1-outside-1_406_84)"/>
<path d="M81.7857 3.6259V3.69789C81.7857 3.7219 81.7857 3.7339 81.7857 3.7339C81.8097 3.7339 81.8217 3.7459 81.8217 3.7699V3.84189H81.8577L82.0737 4.4179C82.3137 5.1139 81.6897 7.2739 80.2017 10.8979C78.6177 14.7619 77.8857 17.7739 78.0057 19.9339C78.2697 21.4699 79.5537 20.2339 81.8577 16.2259C83.6817 13.1059 85.4457 9.6859 87.1497 5.9659C87.3657 5.4619 87.5937 4.9459 87.8337 4.4179C88.0737 3.8659 88.3737 3.4099 88.7337 3.0499C89.5257 2.1859 90.4857 1.9579 91.6137 2.36589C91.9977 1.90989 92.4417 1.59789 92.9457 1.4299C93.4737 1.26189 93.9657 1.22589 94.4217 1.32189C94.9017 1.4179 95.3097 1.6459 95.6457 2.00589C95.9817 2.34189 96.1617 2.7979 96.1857 3.3739C96.2577 3.8539 96.0057 4.9939 95.4297 6.7939C94.8777 8.59389 94.3617 10.2379 93.8817 11.7259C93.4017 13.2139 92.9097 14.8339 92.4057 16.5859C91.1817 20.7379 90.2097 24.6499 89.4897 28.3219C89.4657 29.0899 89.1297 29.7259 88.4817 30.2299C87.8577 30.7339 87.1497 31.0579 86.3577 31.2019C85.5897 31.3699 84.8577 31.3459 84.1617 31.1299C83.3217 30.8899 82.8777 30.2899 82.8297 29.3299C82.8297 29.0659 82.8177 28.8019 82.7937 28.5379C82.8417 29.3539 82.2537 30.0499 81.0297 30.6259C80.6937 30.7939 80.3817 30.9499 80.0937 31.0939C78.4137 31.5979 76.6497 31.4899 74.8017 30.7699C73.9377 30.4099 73.1577 29.9299 72.4617 29.3299C71.7897 28.7059 71.3216 27.9739 71.0576 27.1339C70.2176 24.4459 70.3736 20.9179 71.5257 16.5499C72.0057 14.6779 72.5936 12.8539 73.2896 11.0779C73.9856 9.3019 74.4897 8.0179 74.8017 7.2259C75.1377 6.4339 75.3777 5.8939 75.5217 5.6059C75.6657 5.2939 75.8217 4.9939 75.9897 4.7059C76.3977 3.8899 76.7457 3.3379 77.0337 3.0499L77.4657 2.65389C77.5137 2.6059 77.5616 2.5819 77.6096 2.5819C77.6576 2.5579 77.7177 2.5219 77.7896 2.4739C77.9816 2.3539 78.1856 2.2699 78.4016 2.2219L78.9057 2.1139H79.1217C79.8177 2.0179 80.4177 2.1619 80.9217 2.5459C80.9217 2.5699 80.9457 2.5819 80.9937 2.5819L81.2817 2.83389L81.3896 2.9419L81.4977 3.0859C81.4977 3.1099 81.4977 3.1219 81.4977 3.1219C81.5217 3.1219 81.5337 3.1339 81.5337 3.15789L81.5696 3.19389V3.2659C81.5936 3.2659 81.6057 3.2779 81.6057 3.3019V3.33789C81.6297 3.3619 81.6537 3.3739 81.6777 3.3739V3.4099C81.6777 3.4339 81.6777 3.4459 81.6777 3.4459C81.7017 3.4459 81.7137 3.4579 81.7137 3.48189C81.7137 3.48189 81.7256 3.49389 81.7496 3.51789V3.5539C81.7496 3.5779 81.7617 3.6019 81.7857 3.6259ZM82.7577 27.4939C82.7337 27.5179 82.7216 27.6139 82.7216 27.7819C82.7216 27.7099 82.7337 27.6619 82.7577 27.6379V27.4939Z" stroke="white" stroke-width="2" mask="url(#path-1-outside-1_406_84)"/>
<path d="M125.205 3.4099C125.445 4.0579 125.577 4.4899 125.601 4.7059C125.649 5.1619 125.481 5.5459 125.097 5.85789C125.097 5.8819 125.073 5.9179 125.025 5.9659C125.241 7.09389 125.289 8.1499 125.169 9.1339C125.049 10.1179 124.893 11.0659 124.701 11.9779C125.997 9.76989 127.029 8.1499 127.797 7.1179C129.381 4.9819 130.857 3.4579 132.225 2.5459C132.681 2.2819 133.233 2.0899 133.881 1.9699C134.553 1.8259 135.189 1.8019 135.789 1.8979C136.389 1.9939 136.881 2.2339 137.265 2.6179C137.673 3.00189 137.853 3.57789 137.805 4.34589C137.133 9.0259 136.413 13.3939 135.645 17.4499C134.877 21.4819 133.881 25.3339 132.657 29.0059V29.0779H132.621C132.333 29.9419 131.613 30.5539 130.461 30.9139C129.333 31.2499 128.325 31.2739 127.437 30.9859C126.357 30.6739 125.865 30.0979 125.961 29.2579L125.997 28.4299V28.3579C126.093 27.7819 126.141 27.3979 126.141 27.2059C126.165 26.9899 126.189 26.8339 126.213 26.7379C126.261 26.1139 126.357 25.5379 126.501 25.0099C126.669 24.4579 126.789 24.0139 126.861 23.6779C126.933 23.3419 127.005 23.0299 127.077 22.7419C127.149 22.4299 127.197 22.1899 127.221 22.0219C126.309 23.2699 125.661 24.0259 125.277 24.2899C124.317 24.9619 123.201 25.2739 121.929 25.2259C121.137 25.1779 120.681 24.9979 120.561 24.6859C120.321 24.0139 120.153 23.6179 120.057 23.4979C119.913 23.3059 119.793 22.9819 119.697 22.5259C119.073 25.2859 118.461 27.2419 117.861 28.3939C117.621 28.8499 117.381 29.2579 117.141 29.6179C116.805 30.4099 116.037 30.9619 114.837 31.2739C113.709 31.5859 112.629 31.5619 111.597 31.2019C110.541 30.8659 110.037 30.2659 110.085 29.4019C110.133 28.5379 110.313 27.4579 110.625 26.1619C110.913 24.8419 111.261 23.4499 111.669 21.9859C112.893 17.3539 113.757 14.3419 114.261 12.9499C114.789 11.5579 115.233 10.4659 115.593 9.67389C116.457 7.8259 117.225 6.4819 117.897 5.6419C118.641 4.1299 119.877 3.2179 121.605 2.9059C122.973 2.6419 124.173 2.8099 125.205 3.4099Z" stroke="white" stroke-width="2" mask="url(#path-1-outside-1_406_84)"/>
<path d="M151.176 3.6259V3.69789C151.176 3.7219 151.176 3.7339 151.176 3.7339C151.2 3.7339 151.212 3.7459 151.212 3.7699V3.84189H151.248L151.464 4.4179C151.704 5.1139 151.08 7.2739 149.592 10.8979C148.008 14.7619 147.276 17.7739 147.396 19.9339C147.66 21.4699 148.944 20.2339 151.248 16.2259C153.072 13.1059 154.836 9.6859 156.54 5.9659C156.756 5.4619 156.984 4.9459 157.224 4.4179C157.464 3.8659 157.764 3.4099 158.124 3.0499C158.916 2.1859 159.876 1.9579 161.004 2.36589C161.388 1.90989 161.832 1.59789 162.336 1.4299C162.864 1.26189 163.356 1.22589 163.812 1.32189C164.292 1.4179 164.7 1.6459 165.036 2.00589C165.372 2.34189 165.552 2.7979 165.576 3.3739C165.648 3.8539 165.396 4.9939 164.82 6.7939C164.268 8.59389 163.752 10.2379 163.272 11.7259C162.792 13.2139 162.3 14.8339 161.796 16.5859C160.572 20.7379 159.6 24.6499 158.88 28.3219C158.856 29.0899 158.52 29.7259 157.872 30.2299C157.248 30.7339 156.54 31.0579 155.748 31.2019C154.98 31.3699 154.248 31.3459 153.552 31.1299C152.712 30.8899 152.268 30.2899 152.22 29.3299C152.22 29.0659 152.208 28.8019 152.184 28.5379C152.232 29.3539 151.644 30.0499 150.42 30.6259C150.084 30.7939 149.772 30.9499 149.484 31.0939C147.804 31.5979 146.04 31.4899 144.192 30.7699C143.328 30.4099 142.548 29.9299 141.852 29.3299C141.18 28.7059 140.712 27.9739 140.448 27.1339C139.608 24.4459 139.764 20.9179 140.916 16.5499C141.396 14.6779 141.984 12.8539 142.68 11.0779C143.376 9.3019 143.88 8.0179 144.192 7.2259C144.528 6.4339 144.768 5.8939 144.912 5.6059C145.056 5.2939 145.212 4.9939 145.38 4.7059C145.788 3.8899 146.136 3.3379 146.424 3.0499L146.856 2.65389C146.904 2.6059 146.952 2.5819 147 2.5819C147.048 2.5579 147.108 2.5219 147.18 2.4739C147.372 2.3539 147.576 2.2699 147.792 2.2219L148.296 2.1139H148.512C149.208 2.0179 149.808 2.1619 150.312 2.5459C150.312 2.5699 150.336 2.5819 150.384 2.5819L150.672 2.83389L150.78 2.9419L150.888 3.0859C150.888 3.1099 150.888 3.1219 150.888 3.1219C150.912 3.1219 150.924 3.1339 150.924 3.15789L150.96 3.19389V3.2659C150.984 3.2659 150.996 3.2779 150.996 3.3019V3.33789C151.02 3.3619 151.044 3.3739 151.068 3.3739V3.4099C151.068 3.4339 151.068 3.4459 151.068 3.4459C151.092 3.4459 151.104 3.4579 151.104 3.48189C151.104 3.48189 151.116 3.49389 151.14 3.51789V3.5539C151.14 3.5779 151.152 3.6019 151.176 3.6259ZM152.148 27.4939C152.124 27.5179 152.112 27.6139 152.112 27.7819C152.112 27.7099 152.124 27.6619 152.148 27.6379V27.4939Z" stroke="white" stroke-width="2" mask="url(#path-1-outside-1_406_84)"/>
<path d="M178.88 20.4739C178.232 22.3459 177.572 24.1459 176.9 25.8739C176.228 27.6019 175.664 28.9099 175.208 29.7979C174.776 30.7099 174.392 31.3339 174.056 31.6699C173.72 32.0059 173.372 32.2339 173.012 32.3539C172.676 32.4739 172.328 32.5219 171.968 32.4979C171.632 32.4739 171.284 32.4499 170.924 32.4259C168.908 32.1139 168.284 30.6619 169.052 28.0699C169.556 26.0059 169.964 24.3259 170.276 23.0299C170.588 21.7099 170.84 20.6299 171.032 19.7899C171.248 18.9259 171.428 18.2179 171.572 17.6659C171.716 17.0899 171.872 16.5259 172.04 15.9739C172.208 15.4219 172.412 14.7979 172.652 14.1019C172.916 13.4059 173.252 12.4819 173.66 11.3299C172.748 11.4499 171.932 11.3539 171.212 11.0419C170.156 10.5859 169.724 9.6019 169.916 8.0899C170.012 7.3939 170.384 6.7459 171.032 6.1459C171.368 5.83389 171.764 5.49789 172.22 5.1379C173.156 4.39389 175.016 3.60189 177.8 2.7619C180.68 1.8979 183.152 1.48989 185.216 1.53789C185.768 1.4419 186.332 1.5139 186.908 1.7539C187.508 1.9699 187.988 2.2699 188.348 2.65389C188.708 3.0379 188.888 3.4579 188.888 3.9139C188.912 4.3699 188.624 4.7779 188.024 5.1379C187.736 5.3299 187.532 5.6539 187.412 6.1099C187.292 6.5419 187.16 7.0099 187.016 7.51389C186.872 7.9939 186.656 8.4379 186.368 8.84589C186.104 9.2539 185.672 9.4939 185.072 9.5659C184.76 9.7339 184.316 9.8539 183.74 9.9259C183.188 9.9979 182.816 10.0579 182.624 10.1059C182.456 10.1299 182.36 10.1899 182.336 10.2859C181.904 11.5579 181.388 13.1059 180.788 14.9299C180.188 16.7299 179.552 18.5779 178.88 20.4739ZM174.02 10.9339C173.972 10.9339 173.948 10.9459 173.948 10.9699C173.948 10.9699 173.972 10.9699 174.02 10.9699V10.9339Z" stroke="white" stroke-width="2" mask="url(#path-1-outside-1_406_84)"/>
<path d="M199.651 3.6259V3.69789C199.651 3.7219 199.651 3.7339 199.651 3.7339C199.675 3.7339 199.687 3.7459 199.687 3.7699V3.84189H199.723L199.939 4.4179C200.179 5.1139 199.554 7.2739 198.066 10.8979C196.482 14.7619 195.75 17.7739 195.87 19.9339C196.134 21.4699 197.419 20.2339 199.723 16.2259C201.547 13.1059 203.311 9.6859 205.015 5.9659C205.231 5.4619 205.459 4.9459 205.699 4.4179C205.939 3.8659 206.239 3.4099 206.599 3.0499C207.391 2.1859 208.35 1.9579 209.479 2.36589C209.862 1.90989 210.307 1.59789 210.811 1.4299C211.339 1.26189 211.83 1.22589 212.286 1.32189C212.766 1.4179 213.175 1.6459 213.511 2.00589C213.847 2.34189 214.027 2.7979 214.051 3.3739C214.123 3.8539 213.871 4.9939 213.295 6.7939C212.743 8.59389 212.227 10.2379 211.747 11.7259C211.267 13.2139 210.775 14.8339 210.271 16.5859C209.047 20.7379 208.075 24.6499 207.355 28.3219C207.331 29.0899 206.995 29.7259 206.347 30.2299C205.723 30.7339 205.015 31.0579 204.223 31.2019C203.455 31.3699 202.723 31.3459 202.027 31.1299C201.187 30.8899 200.743 30.2899 200.695 29.3299C200.695 29.0659 200.683 28.8019 200.659 28.5379C200.707 29.3539 200.119 30.0499 198.895 30.6259C198.559 30.7939 198.247 30.9499 197.959 31.0939C196.279 31.5979 194.515 31.4899 192.667 30.7699C191.803 30.4099 191.023 29.9299 190.327 29.3299C189.655 28.7059 189.187 27.9739 188.923 27.1339C188.083 24.4459 188.239 20.9179 189.391 16.5499C189.871 14.6779 190.459 12.8539 191.155 11.0779C191.851 9.3019 192.355 8.0179 192.667 7.2259C193.003 6.4339 193.243 5.8939 193.387 5.6059C193.531 5.2939 193.687 4.9939 193.855 4.7059C194.263 3.8899 194.61 3.3379 194.898 3.0499L195.331 2.65389C195.379 2.6059 195.427 2.5819 195.475 2.5819C195.523 2.5579 195.583 2.5219 195.655 2.4739C195.847 2.3539 196.051 2.2699 196.267 2.2219L196.771 2.1139H196.987C197.683 2.0179 198.282 2.1619 198.786 2.5459C198.786 2.5699 198.811 2.5819 198.859 2.5819L199.146 2.83389L199.255 2.9419L199.363 3.0859C199.363 3.1099 199.363 3.1219 199.363 3.1219C199.387 3.1219 199.398 3.1339 199.398 3.15789L199.435 3.19389V3.2659C199.459 3.2659 199.471 3.2779 199.471 3.3019V3.33789C199.495 3.3619 199.519 3.3739 199.543 3.3739V3.4099C199.543 3.4339 199.543 3.4459 199.543 3.4459C199.567 3.4459 199.579 3.4579 199.579 3.48189C199.579 3.48189 199.591 3.49389 199.615 3.51789V3.5539C199.615 3.5779 199.627 3.6019 199.651 3.6259ZM200.622 27.4939C200.598 27.5179 200.587 27.6139 200.587 27.7819C200.587 27.7099 200.598 27.6619 200.622 27.6379V27.4939Z" stroke="white" stroke-width="2" mask="url(#path-1-outside-1_406_84)"/>
<path d="M227.319 31.4179C226.815 31.5619 226.335 31.6339 225.879 31.6339C225.423 31.6579 224.955 31.6819 224.475 31.7059C224.019 31.7299 223.383 31.7419 222.567 31.7419C221.751 31.7419 220.527 31.7179 218.895 31.6699C218.511 31.6939 218.127 31.7059 217.743 31.7059C217.359 31.7059 216.999 31.6339 216.663 31.4899C215.919 31.1779 215.415 30.4579 215.151 29.3299C215.031 28.8019 214.899 28.4299 214.755 28.2139C214.587 27.9979 214.455 27.7939 214.359 27.6019C214.119 27.2179 214.143 26.5819 214.431 25.6939C214.695 24.8059 215.043 23.7139 215.475 22.4179C215.907 21.0979 216.399 19.7059 216.951 18.2419C218.247 14.7619 219.411 12.0019 220.443 9.96189C220.851 9.0499 221.199 8.2579 221.487 7.5859C221.799 6.9139 222.075 6.3379 222.315 5.85789C222.555 5.3539 222.675 5.0899 222.675 5.0659C222.915 4.15389 223.839 3.38589 225.447 2.7619C227.007 2.1139 228.423 1.9459 229.695 2.2579C231.111 2.6179 231.735 3.5539 231.567 5.0659C231.231 6.5539 230.727 8.0419 230.055 9.5299C229.407 11.0179 228.663 12.5779 227.823 14.2099C226.983 15.8419 226.071 17.5699 225.087 19.3939C224.103 21.2179 223.131 23.1979 222.171 25.3339C222.147 25.4299 222.195 25.5139 222.315 25.5859C222.627 25.5619 223.059 25.4659 223.611 25.2979C224.187 25.1299 224.775 24.9859 225.375 24.8659C225.999 24.7219 226.611 24.6499 227.211 24.6499C227.811 24.6499 228.315 24.8059 228.723 25.1179C228.699 25.5499 228.807 25.8979 229.047 26.1619C229.287 26.4019 229.527 26.6419 229.767 26.8819C230.367 27.5059 230.415 28.3339 229.911 29.3659C229.431 30.3739 228.567 31.0579 227.319 31.4179Z" stroke="white" stroke-width="2" mask="url(#path-1-outside-1_406_84)"/>
<path d="M249.74 5.35389C248.9 7.9699 248.12 10.3339 247.4 12.4459C246.704 14.5579 246.056 16.5019 245.456 18.2779C244.88 20.0539 244.34 21.6979 243.836 23.2099C243.332 24.6979 242.864 26.1259 242.432 27.4939C242.192 29.0779 241.412 30.1939 240.092 30.8419C239.324 31.2019 238.412 31.3819 237.356 31.3819C236.3 31.3819 235.508 31.2619 234.98 31.0219C234.452 30.8059 234.116 30.4819 233.972 30.0499C233.804 29.6179 233.804 29.1019 233.972 28.5019C234.116 27.8779 234.38 27.0379 234.764 25.9819C235.148 24.9019 235.628 23.4499 236.204 21.6259C236.804 19.8019 237.428 17.9539 238.076 16.0819C239.684 11.4019 240.956 8.1619 241.892 6.3619C242.252 5.6899 242.612 5.24589 242.972 5.02989C243.332 4.78989 243.68 4.62189 244.016 4.52589C244.352 4.40589 244.664 4.27389 244.952 4.1299C245.24 3.9859 245.492 3.6259 245.708 3.0499C245.948 2.4739 246.368 2.07789 246.968 1.86189C247.592 1.64589 248.168 1.63389 248.696 1.82589C249.248 1.9939 249.656 2.3779 249.92 2.9779C250.208 3.55389 250.148 4.34589 249.74 5.35389Z" stroke="white" stroke-width="2" mask="url(#path-1-outside-1_406_84)"/>
</svg>
