<svg width="159" height="35" viewBox="0 0 159 35" fill="none" xmlns="http://www.w3.org/2000/svg">
<path d="M12.484 1.736C17.236 1.736 19.972 4.364 19.972 7.784C19.972 13.544 14.032 15.38 9.42397 16.748L8.63197 17V20.348C8.63197 21.824 9.06397 22.652 9.31597 23.012C9.38797 23.084 9.45997 23.156 9.45997 23.228C9.67597 23.624 9.53197 24.272 8.95597 24.272H1.39597C0.783966 24.272 0.675966 23.552 0.927966 23.156L0.891966 23.264C0.891966 23.336 0.999966 23.084 1.03597 23.012C1.28797 22.652 1.71997 21.824 1.71997 20.348V5.876C1.71997 4.364 1.28797 3.572 1.03597 3.248C0.999966 3.212 0.927966 3.104 0.927966 3.068C0.675966 2.672 0.783966 1.952 1.39597 1.952H4.38397C5.71597 1.952 7.33597 1.916 8.84797 1.844C10.216 1.808 11.512 1.736 12.484 1.736ZM12.484 2.168C11.512 2.168 10.216 2.24 8.84797 2.276C7.40797 2.348 5.64397 2.384 4.38397 2.384H1.39597C1.21597 2.384 1.21597 2.672 1.28797 2.852L1.39597 3.032C1.64797 3.392 2.15197 4.184 2.15197 5.876V20.348C2.15197 22.076 1.57597 22.904 1.35997 23.264L1.32397 23.3C1.21597 23.48 1.17997 23.84 1.39597 23.84H8.95597C9.17197 23.84 9.13597 23.48 9.02797 23.3C9.02797 23.3 8.99197 23.3 8.99197 23.264C8.77597 22.94 8.19997 22.112 8.19997 20.348V16.64L9.35197 16.316H9.31597C13.78 14.948 19.54 13.184 19.54 7.784C19.54 4.58 16.948 2.168 12.484 2.168ZM8.19997 15.128V3.788H9.24397C11.872 3.788 12.484 6.92 12.484 9.008C12.484 11.06 10.972 13.976 8.19997 15.128ZM8.63197 4.22V14.48C10.828 13.364 12.052 10.844 12.052 9.008C12.052 7.064 11.512 4.22 9.24397 4.22H8.63197Z" fill="white"/>
<path d="M33.9982 6.452C36.5542 6.452 38.0302 7.676 38.0302 9.44C38.0302 12.176 34.3222 13.868 32.0542 13.868C32.0542 12.212 30.9382 11.096 29.7502 11.096C29.2102 11.096 28.5982 11.384 28.1302 11.924V21.14C28.1302 22.184 28.3822 22.904 28.5622 23.156C28.7782 23.552 28.7062 24.272 28.0582 24.272H21.7222C21.0742 24.272 21.0022 23.552 21.2182 23.156C21.3982 22.904 21.6502 22.184 21.6502 21.14V10.772C21.6502 9.8 21.2182 9.08 21.0382 8.828V8.864C20.7502 8.468 20.7142 7.712 21.5422 7.532L27.7702 6.452C28.5262 6.344 28.7782 6.704 28.6702 7.316L28.4902 7.964C28.3462 8.432 28.1662 9.044 28.1302 9.944C28.9942 8.54 31.1542 6.452 33.9982 6.452ZM33.9982 6.884C30.6142 6.884 28.3462 9.98 28.1302 11.024L27.6982 10.988V10.556C27.6982 9.296 27.9142 8.324 28.0942 7.748L28.2382 7.244C28.2742 7.028 28.0942 6.884 27.8422 6.884L21.6142 7.964C21.2542 8.072 21.2542 8.432 21.3982 8.612C21.5782 8.9 22.0822 9.692 22.0822 10.772V21.14C22.0822 22.22 21.7582 23.048 21.5782 23.372C21.5062 23.552 21.5062 23.84 21.7222 23.84H28.0582C28.2742 23.84 28.2742 23.552 28.2022 23.372C28.0222 23.048 27.6982 22.22 27.6982 21.14V11.708C28.3102 10.988 29.0302 10.664 29.7502 10.664C31.1182 10.664 32.4142 11.708 32.4862 13.436C34.5022 13.328 37.5982 11.816 37.5982 9.44C37.5982 7.964 36.2662 6.884 33.9982 6.884Z" fill="white"/>
<path d="M47.3351 6.092C52.4111 6.092 56.5511 9.08 56.5511 15.344C56.5511 21.608 52.4111 24.632 47.3351 24.632C42.2951 24.632 38.1551 21.608 38.1551 15.344C38.1551 9.08 42.2951 6.092 47.3351 6.092ZM47.3351 6.524C42.5111 6.524 38.5871 9.368 38.5871 15.344C38.5871 21.32 42.5111 24.2 47.3351 24.2C52.1951 24.2 56.1191 21.32 56.1191 15.344C56.1191 9.368 52.1951 6.524 47.3351 6.524ZM47.3351 22.184C48.8471 22.184 49.3511 19.124 49.3511 15.344C49.3511 11.6 48.8471 8.54 47.3351 8.54C45.8591 8.54 45.3551 11.564 45.3551 15.344C45.3551 19.124 45.8591 22.184 47.3351 22.184ZM47.3351 22.616C45.5711 22.616 44.9231 19.34 44.9231 15.344C44.9231 11.348 45.5711 8.108 47.3351 8.108C49.1351 8.108 49.7831 11.384 49.7831 15.344C49.7831 19.34 49.1351 22.616 47.3351 22.616Z" fill="white"/>
<path d="M68.163 18.44C68.703 18.152 69.603 18.296 69.603 19.52C69.603 22.148 67.335 24.272 64.671 24.272C61.071 24.272 58.623 22.184 58.623 18.404V8.9H57.831C57.219 8.9 56.823 8.36 56.823 7.676C56.823 6.956 57.255 6.596 57.795 6.452H57.759C59.343 6.02 61.467 4.904 62.619 2.528C62.979 1.808 63.519 1.448 64.023 1.448C64.599 1.448 65.103 1.952 65.103 2.888V6.452H68.523C69.135 6.452 69.531 6.992 69.531 7.676C69.531 8.36 69.135 8.9 68.523 8.9H65.103V16.496C65.103 18.044 65.931 18.728 66.939 18.728C67.335 18.728 67.731 18.62 68.163 18.44ZM68.379 18.8C67.875 19.052 67.407 19.16 66.939 19.16C65.715 19.16 64.671 18.332 64.671 16.496V8.468H68.523C68.847 8.468 69.099 8.144 69.099 7.676C69.099 7.208 68.847 6.884 68.523 6.884H64.671V2.888C64.671 2.24 64.383 1.88 64.023 1.88C63.663 1.88 63.267 2.204 62.979 2.744C61.755 5.12 59.487 6.452 57.867 6.884C57.543 6.956 57.255 7.208 57.255 7.676C57.255 8.144 57.507 8.468 57.831 8.468H59.055V18.404C59.055 21.896 61.359 23.84 64.671 23.84C67.119 23.84 69.171 21.932 69.171 19.52C69.171 18.764 68.667 18.656 68.379 18.8Z" fill="white"/>
<path d="M79.2921 6.092C84.3681 6.092 88.5081 9.08 88.5081 15.344C88.5081 21.608 84.3681 24.632 79.2921 24.632C74.2521 24.632 70.1121 21.608 70.1121 15.344C70.1121 9.08 74.2521 6.092 79.2921 6.092ZM79.2921 6.524C74.4681 6.524 70.5441 9.368 70.5441 15.344C70.5441 21.32 74.4681 24.2 79.2921 24.2C84.1521 24.2 88.0761 21.32 88.0761 15.344C88.0761 9.368 84.1521 6.524 79.2921 6.524ZM79.2921 22.184C80.8041 22.184 81.3081 19.124 81.3081 15.344C81.3081 11.6 80.8041 8.54 79.2921 8.54C77.8161 8.54 77.3121 11.564 77.3121 15.344C77.3121 19.124 77.8161 22.184 79.2921 22.184ZM79.2921 22.616C77.5281 22.616 76.8801 19.34 76.8801 15.344C76.8801 11.348 77.5281 8.108 79.2921 8.108C81.0921 8.108 81.7401 11.384 81.7401 15.344C81.7401 19.34 81.0921 22.616 79.2921 22.616Z" fill="white"/>
<path d="M100.12 18.44C100.66 18.152 101.56 18.296 101.56 19.52C101.56 22.148 99.2921 24.272 96.6281 24.272C93.0281 24.272 90.5801 22.184 90.5801 18.404V8.9H89.7881C89.1761 8.9 88.7801 8.36 88.7801 7.676C88.7801 6.956 89.2121 6.596 89.7521 6.452H89.7161C91.3001 6.02 93.4241 4.904 94.5761 2.528C94.9361 1.808 95.4761 1.448 95.9801 1.448C96.5561 1.448 97.0601 1.952 97.0601 2.888V6.452H100.48C101.092 6.452 101.488 6.992 101.488 7.676C101.488 8.36 101.092 8.9 100.48 8.9H97.0601V16.496C97.0601 18.044 97.8881 18.728 98.8961 18.728C99.2921 18.728 99.6881 18.62 100.12 18.44ZM100.336 18.8C99.8321 19.052 99.3641 19.16 98.8961 19.16C97.6721 19.16 96.6281 18.332 96.6281 16.496V8.468H100.48C100.804 8.468 101.056 8.144 101.056 7.676C101.056 7.208 100.804 6.884 100.48 6.884H96.6281V2.888C96.6281 2.24 96.3401 1.88 95.9801 1.88C95.6201 1.88 95.2241 2.204 94.9361 2.744C93.7121 5.12 91.4441 6.452 89.8241 6.884C89.5001 6.956 89.2121 7.208 89.2121 7.676C89.2121 8.144 89.4641 8.468 89.7881 8.468H91.0121V18.404C91.0121 21.896 93.3161 23.84 96.6281 23.84C99.0761 23.84 101.128 21.932 101.128 19.52C101.128 18.764 100.624 18.656 100.336 18.8Z" fill="white"/>
<path d="M119.389 6.452C120.073 6.452 120.217 7.136 119.785 7.568H119.821C119.605 7.856 119.101 8.612 118.705 9.62L112.909 27.296C111.469 31.58 109.741 33.884 105.637 33.884C102.541 33.884 100.777 31.724 100.777 29.276C100.777 27.944 101.389 26.432 102.685 25.136C104.161 26.18 105.889 26.792 107.365 26.792C109.021 26.792 110.605 26 111.253 24.308V24.272H110.353C109.057 24.272 107.797 23.48 107.005 21.212C107.005 21.212 103.477 10.448 103.189 9.62C102.829 8.576 102.325 7.856 102.073 7.568C101.713 7.136 101.821 6.452 102.505 6.452H109.597C110.245 6.452 110.317 6.92 110.173 7.46C110.173 7.496 110.209 7.568 110.137 7.64C109.993 8 109.705 8.612 109.993 9.476L110.749 11.744L113.089 18.836L114.817 13.58C114.997 13.004 115.069 12.428 115.069 11.96C115.069 9.728 113.665 8.396 112.801 7.568V7.604C112.369 7.208 112.585 6.452 113.233 6.452H119.389ZM119.389 6.884H113.233C113.017 6.884 112.945 7.136 113.089 7.28C114.025 8.18 115.501 9.584 115.501 11.96C115.501 12.5 115.429 13.112 115.249 13.724L113.089 20.276L110.317 11.888L109.561 9.62C109.273 8.648 109.561 7.892 109.705 7.496C109.741 7.46 109.741 7.424 109.741 7.388C109.813 7.1 109.813 6.884 109.597 6.884H102.505C102.289 6.884 102.289 7.136 102.433 7.28C102.685 7.568 103.261 8.396 103.621 9.476C103.981 10.52 107.437 21.068 107.437 21.068C108.157 23.012 109.273 23.84 110.353 23.84H111.937L111.685 24.452C110.965 26.396 109.237 27.224 107.365 27.224C105.817 27.224 104.161 26.684 102.721 25.676C101.677 26.756 101.209 28.052 101.209 29.276C101.209 31.508 102.829 33.452 105.637 33.452C109.381 33.452 111.145 31.04 112.477 27.152L118.273 9.476C118.669 8.324 119.173 7.676 119.353 7.424C119.569 7.208 119.605 6.884 119.389 6.884Z" fill="white"/>
<path d="M133.407 6.452C136.431 6.452 139.095 9.332 139.095 15.344C139.095 21.392 136.431 24.272 133.407 24.272C131.247 24.272 129.123 22.688 128.115 20.852V28.664C128.115 29.744 128.367 30.428 128.547 30.68C128.763 31.076 128.691 31.796 128.043 31.796H121.707C121.059 31.796 120.987 31.076 121.203 30.68C121.383 30.428 121.635 29.744 121.635 28.664V10.772C121.635 9.8 121.203 9.08 121.023 8.828V8.864C120.735 8.468 120.699 7.712 121.527 7.532L127.755 6.452C128.511 6.344 128.763 6.704 128.655 7.316L128.475 7.964C128.331 8.396 128.187 8.972 128.115 9.836C129.159 7.964 131.247 6.452 133.407 6.452ZM133.407 6.884C131.031 6.884 128.763 8.9 128.079 11.096L127.683 11.024V10.556C127.683 9.296 127.899 8.324 128.079 7.748L128.223 7.244C128.259 7.028 128.079 6.884 127.827 6.884L121.599 7.964C121.239 8.072 121.239 8.432 121.383 8.612C121.563 8.9 122.067 9.692 122.067 10.772V28.664C122.067 29.78 121.743 30.572 121.563 30.896C121.491 31.076 121.491 31.364 121.707 31.364H128.043C128.259 31.364 128.259 31.076 128.187 30.896C128.007 30.572 127.683 29.78 127.683 28.664V19.7L128.079 19.628C128.727 21.788 130.995 23.84 133.407 23.84C136.215 23.84 138.663 21.104 138.663 15.344C138.663 9.62 136.215 6.884 133.407 6.884ZM127.683 18.944V11.708C128.403 11.132 129.051 10.844 129.627 10.844C131.247 10.844 132.471 12.788 132.471 15.344C132.471 17.864 131.247 19.844 129.627 19.844C129.051 19.844 128.403 19.592 127.683 18.944ZM128.115 11.924V18.8C128.655 19.268 129.123 19.412 129.627 19.412C131.031 19.412 132.039 17.648 132.039 15.344C132.039 13.004 131.031 11.276 129.627 11.276C129.159 11.276 128.691 11.492 128.115 11.924Z" fill="white"/>
<path d="M157.775 11.96C157.775 13.292 157.271 14.408 155.183 14.768L148.019 16.028C148.703 18.116 150.215 18.764 151.799 18.764C153.455 18.764 155.147 18.044 156.011 17.396C156.875 16.784 157.775 17.36 157.775 18.152C157.775 22.328 153.491 24.632 149.675 24.632C144.635 24.632 140.495 21.608 140.495 15.344C140.495 9.08 144.635 6.092 149.675 6.092C155.219 6.092 157.775 9.404 157.775 11.96ZM157.343 11.96C157.343 9.62 154.931 6.524 149.675 6.524C144.851 6.524 140.927 9.368 140.927 15.344C140.927 21.32 144.851 24.2 149.675 24.2C153.275 24.2 157.343 22.04 157.343 18.152C157.343 17.756 156.767 17.54 156.299 17.756C155.399 18.404 153.563 19.196 151.799 19.196C149.963 19.196 148.199 18.332 147.443 15.668L155.111 14.336C156.803 13.976 157.343 13.04 157.343 11.96ZM150.935 13.472C150.179 13.616 147.227 14.12 147.227 14.12C147.155 13.616 147.155 13.328 147.155 13.076C147.155 10.448 148.307 8.108 149.459 8.108C150.575 8.108 151.439 9.728 152.015 11.528C152.015 11.564 152.051 11.6 152.051 11.636C152.231 12.212 152.483 13.184 150.935 13.472ZM150.863 13.04C151.943 12.824 151.727 12.14 151.619 11.78C151.619 11.744 151.583 11.744 151.583 11.672C151.079 10.016 150.323 8.54 149.459 8.54C148.523 8.54 147.587 10.664 147.587 13.076C147.587 13.328 147.551 13.364 147.587 13.616L150.863 13.04Z" fill="white"/>
<path d="M12.484 1.736C17.236 1.736 19.972 4.364 19.972 7.784C19.972 13.544 14.032 15.38 9.42397 16.748L8.63197 17V20.348C8.63197 21.824 9.06397 22.652 9.31597 23.012C9.38797 23.084 9.45997 23.156 9.45997 23.228C9.67597 23.624 9.53197 24.272 8.95597 24.272H1.39597C0.783966 24.272 0.675966 23.552 0.927966 23.156L0.891966 23.264C0.891966 23.336 0.999966 23.084 1.03597 23.012C1.28797 22.652 1.71997 21.824 1.71997 20.348V5.876C1.71997 4.364 1.28797 3.572 1.03597 3.248C0.999966 3.212 0.927966 3.104 0.927966 3.068C0.675966 2.672 0.783966 1.952 1.39597 1.952H4.38397C5.71597 1.952 7.33597 1.916 8.84797 1.844C10.216 1.808 11.512 1.736 12.484 1.736ZM12.484 2.168C11.512 2.168 10.216 2.24 8.84797 2.276C7.40797 2.348 5.64397 2.384 4.38397 2.384H1.39597C1.21597 2.384 1.21597 2.672 1.28797 2.852L1.39597 3.032C1.64797 3.392 2.15197 4.184 2.15197 5.876V20.348C2.15197 22.076 1.57597 22.904 1.35997 23.264L1.32397 23.3C1.21597 23.48 1.17997 23.84 1.39597 23.84H8.95597C9.17197 23.84 9.13597 23.48 9.02797 23.3C9.02797 23.3 8.99197 23.3 8.99197 23.264C8.77597 22.94 8.19997 22.112 8.19997 20.348V16.64L9.35197 16.316H9.31597C13.78 14.948 19.54 13.184 19.54 7.784C19.54 4.58 16.948 2.168 12.484 2.168ZM8.19997 15.128V3.788H9.24397C11.872 3.788 12.484 6.92 12.484 9.008C12.484 11.06 10.972 13.976 8.19997 15.128ZM8.63197 4.22V14.48C10.828 13.364 12.052 10.844 12.052 9.008C12.052 7.064 11.512 4.22 9.24397 4.22H8.63197Z" stroke="#CDA75C"/>
<path d="M33.9982 6.452C36.5542 6.452 38.0302 7.676 38.0302 9.44C38.0302 12.176 34.3222 13.868 32.0542 13.868C32.0542 12.212 30.9382 11.096 29.7502 11.096C29.2102 11.096 28.5982 11.384 28.1302 11.924V21.14C28.1302 22.184 28.3822 22.904 28.5622 23.156C28.7782 23.552 28.7062 24.272 28.0582 24.272H21.7222C21.0742 24.272 21.0022 23.552 21.2182 23.156C21.3982 22.904 21.6502 22.184 21.6502 21.14V10.772C21.6502 9.8 21.2182 9.08 21.0382 8.828V8.864C20.7502 8.468 20.7142 7.712 21.5422 7.532L27.7702 6.452C28.5262 6.344 28.7782 6.704 28.6702 7.316L28.4902 7.964C28.3462 8.432 28.1662 9.044 28.1302 9.944C28.9942 8.54 31.1542 6.452 33.9982 6.452ZM33.9982 6.884C30.6142 6.884 28.3462 9.98 28.1302 11.024L27.6982 10.988V10.556C27.6982 9.296 27.9142 8.324 28.0942 7.748L28.2382 7.244C28.2742 7.028 28.0942 6.884 27.8422 6.884L21.6142 7.964C21.2542 8.072 21.2542 8.432 21.3982 8.612C21.5782 8.9 22.0822 9.692 22.0822 10.772V21.14C22.0822 22.22 21.7582 23.048 21.5782 23.372C21.5062 23.552 21.5062 23.84 21.7222 23.84H28.0582C28.2742 23.84 28.2742 23.552 28.2022 23.372C28.0222 23.048 27.6982 22.22 27.6982 21.14V11.708C28.3102 10.988 29.0302 10.664 29.7502 10.664C31.1182 10.664 32.4142 11.708 32.4862 13.436C34.5022 13.328 37.5982 11.816 37.5982 9.44C37.5982 7.964 36.2662 6.884 33.9982 6.884Z" stroke="#CDA75C"/>
<path d="M47.3351 6.092C52.4111 6.092 56.5511 9.08 56.5511 15.344C56.5511 21.608 52.4111 24.632 47.3351 24.632C42.2951 24.632 38.1551 21.608 38.1551 15.344C38.1551 9.08 42.2951 6.092 47.3351 6.092ZM47.3351 6.524C42.5111 6.524 38.5871 9.368 38.5871 15.344C38.5871 21.32 42.5111 24.2 47.3351 24.2C52.1951 24.2 56.1191 21.32 56.1191 15.344C56.1191 9.368 52.1951 6.524 47.3351 6.524ZM47.3351 22.184C48.8471 22.184 49.3511 19.124 49.3511 15.344C49.3511 11.6 48.8471 8.54 47.3351 8.54C45.8591 8.54 45.3551 11.564 45.3551 15.344C45.3551 19.124 45.8591 22.184 47.3351 22.184ZM47.3351 22.616C45.5711 22.616 44.9231 19.34 44.9231 15.344C44.9231 11.348 45.5711 8.108 47.3351 8.108C49.1351 8.108 49.7831 11.384 49.7831 15.344C49.7831 19.34 49.1351 22.616 47.3351 22.616Z" stroke="#CDA75C"/>
<path d="M68.163 18.44C68.703 18.152 69.603 18.296 69.603 19.52C69.603 22.148 67.335 24.272 64.671 24.272C61.071 24.272 58.623 22.184 58.623 18.404V8.9H57.831C57.219 8.9 56.823 8.36 56.823 7.676C56.823 6.956 57.255 6.596 57.795 6.452H57.759C59.343 6.02 61.467 4.904 62.619 2.528C62.979 1.808 63.519 1.448 64.023 1.448C64.599 1.448 65.103 1.952 65.103 2.888V6.452H68.523C69.135 6.452 69.531 6.992 69.531 7.676C69.531 8.36 69.135 8.9 68.523 8.9H65.103V16.496C65.103 18.044 65.931 18.728 66.939 18.728C67.335 18.728 67.731 18.62 68.163 18.44ZM68.379 18.8C67.875 19.052 67.407 19.16 66.939 19.16C65.715 19.16 64.671 18.332 64.671 16.496V8.468H68.523C68.847 8.468 69.099 8.144 69.099 7.676C69.099 7.208 68.847 6.884 68.523 6.884H64.671V2.888C64.671 2.24 64.383 1.88 64.023 1.88C63.663 1.88 63.267 2.204 62.979 2.744C61.755 5.12 59.487 6.452 57.867 6.884C57.543 6.956 57.255 7.208 57.255 7.676C57.255 8.144 57.507 8.468 57.831 8.468H59.055V18.404C59.055 21.896 61.359 23.84 64.671 23.84C67.119 23.84 69.171 21.932 69.171 19.52C69.171 18.764 68.667 18.656 68.379 18.8Z" stroke="#CDA75C"/>
<path d="M79.2921 6.092C84.3681 6.092 88.5081 9.08 88.5081 15.344C88.5081 21.608 84.3681 24.632 79.2921 24.632C74.2521 24.632 70.1121 21.608 70.1121 15.344C70.1121 9.08 74.2521 6.092 79.2921 6.092ZM79.2921 6.524C74.4681 6.524 70.5441 9.368 70.5441 15.344C70.5441 21.32 74.4681 24.2 79.2921 24.2C84.1521 24.2 88.0761 21.32 88.0761 15.344C88.0761 9.368 84.1521 6.524 79.2921 6.524ZM79.2921 22.184C80.8041 22.184 81.3081 19.124 81.3081 15.344C81.3081 11.6 80.8041 8.54 79.2921 8.54C77.8161 8.54 77.3121 11.564 77.3121 15.344C77.3121 19.124 77.8161 22.184 79.2921 22.184ZM79.2921 22.616C77.5281 22.616 76.8801 19.34 76.8801 15.344C76.8801 11.348 77.5281 8.108 79.2921 8.108C81.0921 8.108 81.7401 11.384 81.7401 15.344C81.7401 19.34 81.0921 22.616 79.2921 22.616Z" stroke="#CDA75C"/>
<path d="M100.12 18.44C100.66 18.152 101.56 18.296 101.56 19.52C101.56 22.148 99.2921 24.272 96.6281 24.272C93.0281 24.272 90.5801 22.184 90.5801 18.404V8.9H89.7881C89.1761 8.9 88.7801 8.36 88.7801 7.676C88.7801 6.956 89.2121 6.596 89.7521 6.452H89.7161C91.3001 6.02 93.4241 4.904 94.5761 2.528C94.9361 1.808 95.4761 1.448 95.9801 1.448C96.5561 1.448 97.0601 1.952 97.0601 2.888V6.452H100.48C101.092 6.452 101.488 6.992 101.488 7.676C101.488 8.36 101.092 8.9 100.48 8.9H97.0601V16.496C97.0601 18.044 97.8881 18.728 98.8961 18.728C99.2921 18.728 99.6881 18.62 100.12 18.44ZM100.336 18.8C99.8321 19.052 99.3641 19.16 98.8961 19.16C97.6721 19.16 96.6281 18.332 96.6281 16.496V8.468H100.48C100.804 8.468 101.056 8.144 101.056 7.676C101.056 7.208 100.804 6.884 100.48 6.884H96.6281V2.888C96.6281 2.24 96.3401 1.88 95.9801 1.88C95.6201 1.88 95.2241 2.204 94.9361 2.744C93.7121 5.12 91.4441 6.452 89.8241 6.884C89.5001 6.956 89.2121 7.208 89.2121 7.676C89.2121 8.144 89.4641 8.468 89.7881 8.468H91.0121V18.404C91.0121 21.896 93.3161 23.84 96.6281 23.84C99.0761 23.84 101.128 21.932 101.128 19.52C101.128 18.764 100.624 18.656 100.336 18.8Z" stroke="#CDA75C"/>
<path d="M119.389 6.452C120.073 6.452 120.217 7.136 119.785 7.568H119.821C119.605 7.856 119.101 8.612 118.705 9.62L112.909 27.296C111.469 31.58 109.741 33.884 105.637 33.884C102.541 33.884 100.777 31.724 100.777 29.276C100.777 27.944 101.389 26.432 102.685 25.136C104.161 26.18 105.889 26.792 107.365 26.792C109.021 26.792 110.605 26 111.253 24.308V24.272H110.353C109.057 24.272 107.797 23.48 107.005 21.212C107.005 21.212 103.477 10.448 103.189 9.62C102.829 8.576 102.325 7.856 102.073 7.568C101.713 7.136 101.821 6.452 102.505 6.452H109.597C110.245 6.452 110.317 6.92 110.173 7.46C110.173 7.496 110.209 7.568 110.137 7.64C109.993 8 109.705 8.612 109.993 9.476L110.749 11.744L113.089 18.836L114.817 13.58C114.997 13.004 115.069 12.428 115.069 11.96C115.069 9.728 113.665 8.396 112.801 7.568V7.604C112.369 7.208 112.585 6.452 113.233 6.452H119.389ZM119.389 6.884H113.233C113.017 6.884 112.945 7.136 113.089 7.28C114.025 8.18 115.501 9.584 115.501 11.96C115.501 12.5 115.429 13.112 115.249 13.724L113.089 20.276L110.317 11.888L109.561 9.62C109.273 8.648 109.561 7.892 109.705 7.496C109.741 7.46 109.741 7.424 109.741 7.388C109.813 7.1 109.813 6.884 109.597 6.884H102.505C102.289 6.884 102.289 7.136 102.433 7.28C102.685 7.568 103.261 8.396 103.621 9.476C103.981 10.52 107.437 21.068 107.437 21.068C108.157 23.012 109.273 23.84 110.353 23.84H111.937L111.685 24.452C110.965 26.396 109.237 27.224 107.365 27.224C105.817 27.224 104.161 26.684 102.721 25.676C101.677 26.756 101.209 28.052 101.209 29.276C101.209 31.508 102.829 33.452 105.637 33.452C109.381 33.452 111.145 31.04 112.477 27.152L118.273 9.476C118.669 8.324 119.173 7.676 119.353 7.424C119.569 7.208 119.605 6.884 119.389 6.884Z" stroke="#CDA75C"/>
<path d="M133.407 6.452C136.431 6.452 139.095 9.332 139.095 15.344C139.095 21.392 136.431 24.272 133.407 24.272C131.247 24.272 129.123 22.688 128.115 20.852V28.664C128.115 29.744 128.367 30.428 128.547 30.68C128.763 31.076 128.691 31.796 128.043 31.796H121.707C121.059 31.796 120.987 31.076 121.203 30.68C121.383 30.428 121.635 29.744 121.635 28.664V10.772C121.635 9.8 121.203 9.08 121.023 8.828V8.864C120.735 8.468 120.699 7.712 121.527 7.532L127.755 6.452C128.511 6.344 128.763 6.704 128.655 7.316L128.475 7.964C128.331 8.396 128.187 8.972 128.115 9.836C129.159 7.964 131.247 6.452 133.407 6.452ZM133.407 6.884C131.031 6.884 128.763 8.9 128.079 11.096L127.683 11.024V10.556C127.683 9.296 127.899 8.324 128.079 7.748L128.223 7.244C128.259 7.028 128.079 6.884 127.827 6.884L121.599 7.964C121.239 8.072 121.239 8.432 121.383 8.612C121.563 8.9 122.067 9.692 122.067 10.772V28.664C122.067 29.78 121.743 30.572 121.563 30.896C121.491 31.076 121.491 31.364 121.707 31.364H128.043C128.259 31.364 128.259 31.076 128.187 30.896C128.007 30.572 127.683 29.78 127.683 28.664V19.7L128.079 19.628C128.727 21.788 130.995 23.84 133.407 23.84C136.215 23.84 138.663 21.104 138.663 15.344C138.663 9.62 136.215 6.884 133.407 6.884ZM127.683 18.944V11.708C128.403 11.132 129.051 10.844 129.627 10.844C131.247 10.844 132.471 12.788 132.471 15.344C132.471 17.864 131.247 19.844 129.627 19.844C129.051 19.844 128.403 19.592 127.683 18.944ZM128.115 11.924V18.8C128.655 19.268 129.123 19.412 129.627 19.412C131.031 19.412 132.039 17.648 132.039 15.344C132.039 13.004 131.031 11.276 129.627 11.276C129.159 11.276 128.691 11.492 128.115 11.924Z" stroke="#CDA75C"/>
<path d="M157.775 11.96C157.775 13.292 157.271 14.408 155.183 14.768L148.019 16.028C148.703 18.116 150.215 18.764 151.799 18.764C153.455 18.764 155.147 18.044 156.011 17.396C156.875 16.784 157.775 17.36 157.775 18.152C157.775 22.328 153.491 24.632 149.675 24.632C144.635 24.632 140.495 21.608 140.495 15.344C140.495 9.08 144.635 6.092 149.675 6.092C155.219 6.092 157.775 9.404 157.775 11.96ZM157.343 11.96C157.343 9.62 154.931 6.524 149.675 6.524C144.851 6.524 140.927 9.368 140.927 15.344C140.927 21.32 144.851 24.2 149.675 24.2C153.275 24.2 157.343 22.04 157.343 18.152C157.343 17.756 156.767 17.54 156.299 17.756C155.399 18.404 153.563 19.196 151.799 19.196C149.963 19.196 148.199 18.332 147.443 15.668L155.111 14.336C156.803 13.976 157.343 13.04 157.343 11.96ZM150.935 13.472C150.179 13.616 147.227 14.12 147.227 14.12C147.155 13.616 147.155 13.328 147.155 13.076C147.155 10.448 148.307 8.108 149.459 8.108C150.575 8.108 151.439 9.728 152.015 11.528C152.015 11.564 152.051 11.6 152.051 11.636C152.231 12.212 152.483 13.184 150.935 13.472ZM150.863 13.04C151.943 12.824 151.727 12.14 151.619 11.78C151.619 11.744 151.583 11.744 151.583 11.672C151.079 10.016 150.323 8.54 149.459 8.54C148.523 8.54 147.587 10.664 147.587 13.076C147.587 13.328 147.551 13.364 147.587 13.616L150.863 13.04Z" stroke="#CDA75C"/>
</svg>
