<svg width="359" height="30" viewBox="0 0 359 30" fill="none" xmlns="http://www.w3.org/2000/svg">
<mask id="path-1-outside-1_416_98" maskUnits="userSpaceOnUse" x="0.102051" y="0.395996" width="359" height="29" fill="black">
<rect fill="white" x="0.102051" y="0.395996" width="359" height="29"/>
<path d="M29.5039 11.332C29.1199 12.724 28.3999 13.816 27.3439 14.608C26.2879 15.376 24.9559 15.856 23.3479 16.048C24.4999 16.144 25.3639 16.48 25.9399 17.056C26.5159 17.632 26.8039 18.388 26.8039 19.324C26.8039 19.684 26.7439 20.128 26.6239 20.656L26.2279 22.42C26.1799 22.66 26.1559 22.828 26.1559 22.924C26.1559 23.236 26.2279 23.476 26.3719 23.644C26.5159 23.788 26.7199 23.86 26.9839 23.86C27.4879 23.86 27.8479 23.932 28.0639 24.076C28.3039 24.22 28.3879 24.484 28.3159 24.868C28.2199 25.42 27.9319 25.96 27.4519 26.488C26.9719 27.016 26.2879 27.46 25.3999 27.82C24.5359 28.156 23.4799 28.324 22.2319 28.324C20.6479 28.324 19.3879 27.976 18.4519 27.28C17.5159 26.56 17.0479 25.54 17.0479 24.22C17.0479 23.716 17.1199 23.176 17.2639 22.6L17.8399 20.296C17.9359 19.984 17.9839 19.66 17.9839 19.324C17.9839 18.772 17.7919 18.376 17.4079 18.136C17.0479 17.896 16.4599 17.776 15.6439 17.776H14.2759L12.6199 23.752C12.5719 23.896 12.5479 24.076 12.5479 24.292C12.5479 24.628 12.6319 24.916 12.7999 25.156C12.9679 25.396 13.1959 25.648 13.4839 25.912C13.6999 26.08 13.8679 26.248 13.9879 26.416C14.1079 26.56 14.1679 26.716 14.1679 26.884C14.1679 27.292 13.9759 27.58 13.5919 27.748C13.2079 27.916 12.6439 28 11.8999 28H2.86393C2.23993 28 1.77193 27.892 1.45993 27.676C1.14793 27.436 1.03993 27.112 1.13593 26.704C1.18393 26.488 1.27993 26.32 1.42393 26.2C1.54393 26.056 1.73593 25.9 1.99993 25.732C2.40793 25.492 2.73193 25.24 2.97193 24.976C3.21193 24.712 3.40393 24.304 3.54793 23.752L7.93993 8.236C8.03593 7.924 8.08393 7.624 8.08393 7.336C8.08393 7.072 8.03593 6.856 7.93993 6.688C7.86793 6.496 7.75993 6.28 7.61593 6.04C7.39993 5.728 7.29193 5.476 7.29193 5.284C7.29193 5.212 7.31593 5.08 7.36393 4.888C7.45993 4.576 7.66393 4.36 7.97593 4.24C8.31193 4.096 8.81593 4.024 9.48793 4.024H21.5479C23.2039 4.024 24.6439 4.276 25.8679 4.78C27.1159 5.284 28.0639 5.98 28.7119 6.868C29.3839 7.732 29.7199 8.716 29.7199 9.82C29.7199 10.324 29.6479 10.828 29.5039 11.332ZM20.2879 10.972C20.4079 10.42 20.4679 10 20.4679 9.712C20.4679 8.44 19.7719 7.804 18.3799 7.804H16.8679L15.2839 14.176H16.7959C17.7319 14.176 18.4639 13.948 18.9919 13.492C19.5439 13.036 19.9759 12.196 20.2879 10.972Z"/>
<path d="M44.4003 8.776C47.4483 8.776 49.6563 9.268 51.0243 10.252C52.3923 11.212 53.0763 12.448 53.0763 13.96C53.0763 14.416 53.0283 14.836 52.9323 15.22C52.5723 16.804 51.5643 17.944 49.9083 18.64C48.2763 19.312 46.3443 19.648 44.1123 19.648C42.9843 19.648 41.9283 19.576 40.9443 19.432C40.9203 20.68 41.2563 21.556 41.9523 22.06C42.6483 22.564 43.6203 22.816 44.8683 22.816C45.4443 22.816 45.9963 22.756 46.5243 22.636C47.0523 22.492 47.7243 22.288 48.5403 22.024C49.2123 21.784 49.6683 21.664 49.9083 21.664C50.1723 21.664 50.3043 21.82 50.3043 22.132C50.3283 22.972 50.0163 23.86 49.3683 24.796C48.7203 25.708 47.7603 26.488 46.4883 27.136C45.2163 27.784 43.6803 28.108 41.8803 28.108C39.2163 28.108 37.0323 27.436 35.3283 26.092C33.6243 24.748 32.7723 22.792 32.7723 20.224C32.7723 19.504 32.8683 18.664 33.0603 17.704C33.6603 14.752 34.9683 12.532 36.9843 11.044C39.0243 9.532 41.4963 8.776 44.4003 8.776ZM41.1963 17.272C41.2923 17.296 41.4243 17.308 41.5923 17.308C42.6003 17.308 43.3683 16.84 43.8963 15.904C44.4243 14.968 44.6763 13.924 44.6523 12.772C44.6283 12.1 44.4363 11.764 44.0763 11.764C43.8123 11.764 43.5003 11.98 43.1403 12.412C42.7803 12.82 42.4203 13.444 42.0603 14.284C41.7243 15.124 41.4363 16.12 41.1963 17.272Z"/>
<path d="M75.3449 22.816C75.2969 23.008 75.2729 23.14 75.2729 23.212C75.2729 23.38 75.3209 23.512 75.4169 23.608C75.5129 23.704 75.6329 23.752 75.7769 23.752C76.0649 23.752 76.3049 23.632 76.4969 23.392C76.7129 23.128 76.8569 22.996 76.9289 22.996C77.0489 22.996 77.1449 23.08 77.2169 23.248C77.2889 23.416 77.3249 23.608 77.3249 23.824C77.3489 24.472 77.0969 25.132 76.5689 25.804C76.0649 26.476 75.3809 27.028 74.5169 27.46C73.6529 27.892 72.7169 28.108 71.7089 28.108C70.5089 28.108 69.4649 27.88 68.5769 27.424C67.6889 26.968 67.0769 26.368 66.7409 25.624C66.0929 26.464 65.3489 27.088 64.5089 27.496C63.6689 27.904 62.7809 28.108 61.8449 28.108C60.7409 28.108 59.7089 27.832 58.7489 27.28C57.8129 26.728 57.0569 25.948 56.4809 24.94C55.9289 23.908 55.6529 22.744 55.6529 21.448C55.6529 19.264 56.0609 17.212 56.8769 15.292C57.7169 13.348 58.8809 11.788 60.3689 10.612C61.8569 9.412 63.5489 8.812 65.4449 8.812C66.4769 8.812 67.3529 8.932 68.0729 9.172C68.8169 9.412 69.4889 9.772 70.0889 10.252L71.3129 6.22C71.3849 6.004 71.4209 5.824 71.4209 5.68C71.4209 5.416 71.3489 5.2 71.2049 5.032C71.0849 4.864 70.9169 4.696 70.7009 4.528C70.4609 4.336 70.2809 4.168 70.1609 4.024C70.0649 3.88 70.0529 3.688 70.1249 3.448C70.2689 2.896 71.0249 2.416 72.3929 2.00799C73.7609 1.6 75.1889 1.396 76.6769 1.396C78.0689 1.396 79.0889 1.66 79.7369 2.188C80.4089 2.716 80.7449 3.436 80.7449 4.348C80.7449 4.876 80.6609 5.392 80.4929 5.896L75.3449 22.816ZM69.3329 12.7C68.9489 12.364 68.5289 12.196 68.0729 12.196C67.3769 12.196 66.6929 12.712 66.0209 13.744C65.3489 14.776 64.8089 16.024 64.4009 17.488C63.9929 18.952 63.8009 20.272 63.8249 21.448C63.8249 22.768 64.2569 23.428 65.1209 23.428C65.4329 23.428 65.6969 23.308 65.9129 23.068C66.1289 22.804 66.3329 22.384 66.5249 21.808L69.3329 12.7Z"/>
<path d="M112.406 18.712C113.078 18.712 113.582 18.856 113.918 19.144C114.278 19.408 114.458 19.792 114.458 20.296C114.458 20.512 114.422 20.752 114.35 21.016L113.162 25.228C112.85 26.26 112.406 26.98 111.83 27.388C111.278 27.796 110.45 28 109.346 28H92.4258C91.9218 28 91.5378 27.916 91.2738 27.748C90.9858 27.58 90.8418 27.352 90.8418 27.064C90.8418 26.92 90.8778 26.764 90.9498 26.596C91.0218 26.404 91.1418 26.248 91.3098 26.128C91.4778 25.984 91.6577 25.852 91.8497 25.732C92.2337 25.492 92.5458 25.252 92.7858 25.012C93.0258 24.748 93.2298 24.328 93.3978 23.752L97.7897 8.236C97.8857 7.924 97.9337 7.624 97.9337 7.336C97.9337 7.072 97.8857 6.856 97.7897 6.688C97.7177 6.496 97.6098 6.28 97.4658 6.04C97.2498 5.728 97.1417 5.476 97.1417 5.284C97.1417 5.212 97.1658 5.08 97.2138 4.888C97.3098 4.576 97.5138 4.36 97.8258 4.24C98.1618 4.096 98.6658 4.024 99.3378 4.024H107.798C108.302 4.024 108.686 4.108 108.95 4.276C109.238 4.42 109.382 4.636 109.382 4.924C109.382 5.044 109.346 5.2 109.274 5.392C109.202 5.56 109.094 5.716 108.95 5.86C108.83 5.98 108.71 6.076 108.59 6.14799C108.494 6.196 108.422 6.244 108.374 6.292C107.99 6.508 107.678 6.748 107.438 7.012C107.198 7.276 106.994 7.684 106.826 8.236L102.182 24.544H104.414C104.966 24.544 105.434 24.448 105.818 24.256C106.226 24.064 106.646 23.704 107.078 23.176L109.562 20.224C110.018 19.696 110.45 19.312 110.858 19.072C111.29 18.832 111.806 18.712 112.406 18.712Z"/>
<path d="M130.959 8.956C133.719 8.956 135.927 9.472 137.583 10.504C139.239 11.512 140.067 13.06 140.067 15.148C140.067 15.94 139.923 16.84 139.635 17.848L138.159 22.816C138.135 22.912 138.123 23.032 138.123 23.176C138.123 23.56 138.279 23.752 138.591 23.752C138.879 23.752 139.119 23.632 139.311 23.392C139.527 23.128 139.671 22.996 139.743 22.996C139.863 22.996 139.959 23.08 140.031 23.248C140.127 23.416 140.175 23.608 140.175 23.824C140.199 24.472 139.947 25.132 139.419 25.804C138.915 26.476 138.231 27.028 137.367 27.46C136.503 27.892 135.555 28.108 134.523 28.108C133.275 28.108 132.207 27.88 131.319 27.424C130.431 26.968 129.819 26.296 129.483 25.408C128.763 26.272 127.911 26.944 126.927 27.424C125.943 27.88 124.887 28.108 123.759 28.108C122.487 28.108 121.419 27.868 120.555 27.388C119.691 26.884 119.043 26.248 118.611 25.48C118.203 24.688 117.999 23.86 117.999 22.996C117.999 22.612 118.035 22.24 118.107 21.88C118.491 20.224 119.319 18.976 120.591 18.136C121.887 17.296 123.423 16.876 125.199 16.876C127.191 16.876 129.147 17.188 131.067 17.812L131.967 15.436C132.279 14.428 132.435 13.648 132.435 13.096C132.411 12.52 132.219 12.088 131.859 11.8C131.499 11.512 130.947 11.368 130.203 11.368C130.347 11.752 130.419 12.148 130.419 12.556C130.419 13.444 130.083 14.212 129.411 14.86C128.739 15.508 127.779 15.832 126.531 15.832C125.355 15.832 124.431 15.58 123.759 15.076C123.111 14.548 122.787 13.9 122.787 13.132C122.787 11.932 123.459 10.936 124.803 10.144C126.147 9.352 128.199 8.956 130.959 8.956ZM128.943 19.864C128.271 19.864 127.719 20.128 127.287 20.656C126.879 21.16 126.675 21.712 126.675 22.312C126.675 22.696 126.759 23.008 126.927 23.248C127.119 23.488 127.383 23.608 127.719 23.608C128.031 23.608 128.367 23.488 128.727 23.248C129.111 22.984 129.387 22.6 129.555 22.096L130.311 19.972C129.903 19.9 129.447 19.864 128.943 19.864Z"/>
<path d="M166.826 23.032C166.778 23.128 166.754 23.272 166.754 23.464C166.754 23.632 166.79 23.764 166.862 23.86C166.958 23.956 167.078 24.004 167.222 24.004C167.51 24.004 167.75 23.884 167.942 23.644C168.158 23.38 168.302 23.248 168.374 23.248C168.494 23.248 168.59 23.332 168.662 23.5C168.734 23.644 168.77 23.824 168.77 24.04C168.794 24.736 168.566 25.42 168.086 26.092C167.606 26.74 166.898 27.28 165.962 27.712C165.05 28.12 163.946 28.324 162.65 28.324C161.066 28.324 159.806 27.964 158.87 27.244C157.934 26.5 157.454 25.516 157.43 24.292C157.43 23.404 157.646 22.408 158.078 21.304L160.058 16.12C160.178 15.808 160.238 15.556 160.238 15.364C160.238 15.052 160.13 14.812 159.914 14.644C159.722 14.452 159.482 14.356 159.194 14.356C158.666 14.356 158.162 14.608 157.682 15.112C157.202 15.592 156.854 16.192 156.638 16.912L154.406 24.256C154.31 24.52 154.262 24.772 154.262 25.012C154.262 25.3 154.322 25.54 154.442 25.732C154.562 25.9 154.73 26.08 154.946 26.272C155.114 26.416 155.234 26.548 155.306 26.668C155.378 26.788 155.39 26.932 155.342 27.1C155.246 27.412 155.018 27.64 154.658 27.784C154.298 27.928 153.734 28 152.966 28H144.758C144.134 28 143.69 27.904 143.426 27.712C143.138 27.496 143.03 27.22 143.102 26.884C143.198 26.596 143.45 26.344 143.858 26.128C144.218 25.936 144.518 25.708 144.758 25.444C144.998 25.18 145.202 24.76 145.37 24.184L148.574 13.78C148.622 13.66 148.646 13.492 148.646 13.276C148.646 13.012 148.586 12.808 148.466 12.664C148.37 12.52 148.202 12.34 147.962 12.124C147.722 11.932 147.554 11.764 147.458 11.62C147.362 11.476 147.35 11.284 147.422 11.044C147.566 10.492 148.322 10.012 149.69 9.604C151.058 9.172 152.486 8.956 153.974 8.956C155.174 8.956 156.122 9.292 156.818 9.96399C157.514 10.612 157.826 11.524 157.754 12.7C158.738 11.284 159.782 10.312 160.886 9.784C161.99 9.232 163.19 8.956 164.486 8.956C165.95 8.956 167.126 9.4 168.014 10.288C168.926 11.176 169.382 12.328 169.382 13.744C169.382 14.488 169.262 15.22 169.022 15.94L166.826 23.032Z"/>
<path d="M193.315 22.816C193.267 23.008 193.243 23.14 193.243 23.212C193.243 23.38 193.291 23.512 193.387 23.608C193.483 23.704 193.603 23.752 193.747 23.752C194.035 23.752 194.275 23.632 194.467 23.392C194.683 23.128 194.827 22.996 194.899 22.996C195.019 22.996 195.115 23.08 195.187 23.248C195.259 23.416 195.295 23.608 195.295 23.824C195.319 24.472 195.067 25.132 194.539 25.804C194.035 26.476 193.351 27.028 192.487 27.46C191.623 27.892 190.687 28.108 189.679 28.108C188.479 28.108 187.435 27.88 186.547 27.424C185.659 26.968 185.047 26.368 184.711 25.624C184.063 26.464 183.319 27.088 182.479 27.496C181.639 27.904 180.751 28.108 179.815 28.108C178.711 28.108 177.679 27.832 176.719 27.28C175.783 26.728 175.027 25.948 174.451 24.94C173.899 23.908 173.623 22.744 173.623 21.448C173.623 19.264 174.031 17.212 174.847 15.292C175.687 13.348 176.851 11.788 178.339 10.612C179.827 9.412 181.519 8.812 183.415 8.812C184.447 8.812 185.323 8.932 186.043 9.172C186.787 9.412 187.459 9.772 188.059 10.252L189.283 6.22C189.355 6.004 189.391 5.824 189.391 5.68C189.391 5.416 189.319 5.2 189.175 5.032C189.055 4.864 188.887 4.696 188.671 4.528C188.431 4.336 188.251 4.168 188.131 4.024C188.035 3.88 188.023 3.688 188.095 3.448C188.239 2.896 188.995 2.416 190.363 2.00799C191.731 1.6 193.159 1.396 194.647 1.396C196.039 1.396 197.059 1.66 197.707 2.188C198.379 2.716 198.715 3.436 198.715 4.348C198.715 4.876 198.631 5.392 198.463 5.896L193.315 22.816ZM187.303 12.7C186.919 12.364 186.499 12.196 186.043 12.196C185.347 12.196 184.663 12.712 183.991 13.744C183.319 14.776 182.779 16.024 182.371 17.488C181.963 18.952 181.771 20.272 181.795 21.448C181.795 22.768 182.227 23.428 183.091 23.428C183.403 23.428 183.667 23.308 183.883 23.068C184.099 22.804 184.303 22.384 184.495 21.808L187.303 12.7Z"/>
<path d="M209.361 8.632C211.353 8.632 213.068 8.812 214.508 9.172C215.972 9.532 217.089 10.036 217.857 10.684C218.649 11.332 219.045 12.064 219.045 12.88C219.045 13.72 218.708 14.404 218.036 14.932C217.388 15.46 216.477 15.724 215.301 15.724C214.101 15.724 213.081 15.424 212.241 14.824C211.425 14.224 211.017 13.468 211.017 12.556C211.017 12.244 211.065 11.944 211.161 11.656C210.729 11.536 210.344 11.476 210.008 11.476C209.408 11.476 208.905 11.62 208.497 11.908C208.113 12.196 207.933 12.604 207.957 13.132C207.957 13.756 208.269 14.284 208.893 14.716C209.517 15.148 210.525 15.688 211.917 16.336C213.117 16.864 214.1 17.356 214.868 17.812C215.661 18.244 216.321 18.796 216.849 19.468C217.401 20.14 217.676 20.932 217.676 21.844C217.676 22.036 217.628 22.396 217.533 22.924C217.149 24.532 216.081 25.804 214.329 26.74C212.577 27.676 210.273 28.144 207.417 28.144C204.201 28.144 201.645 27.712 199.749 26.848C197.877 25.984 196.941 24.796 196.941 23.284C196.941 22.252 197.253 21.472 197.877 20.944C198.501 20.416 199.329 20.152 200.361 20.152C201.561 20.152 202.581 20.524 203.421 21.268C204.285 22.012 204.717 22.96 204.717 24.112C204.717 24.424 204.681 24.748 204.609 25.084C205.185 25.228 205.737 25.3 206.265 25.3C206.889 25.3 207.405 25.132 207.812 24.796C208.22 24.46 208.424 23.992 208.424 23.392C208.4 22.84 208.125 22.372 207.597 21.988C207.069 21.58 206.229 21.1 205.077 20.548C203.997 20.044 203.109 19.576 202.413 19.144C201.717 18.688 201.117 18.124 200.613 17.452C200.133 16.78 199.893 15.988 199.893 15.076C199.893 13.108 200.708 11.548 202.34 10.396C203.997 9.22 206.337 8.632 209.361 8.632Z"/>
<path d="M259.327 11.332C258.943 12.724 258.223 13.816 257.167 14.608C256.111 15.376 254.779 15.856 253.171 16.048C254.323 16.144 255.187 16.48 255.763 17.056C256.339 17.632 256.627 18.388 256.627 19.324C256.627 19.684 256.567 20.128 256.447 20.656L256.051 22.42C256.003 22.66 255.979 22.828 255.979 22.924C255.979 23.236 256.051 23.476 256.195 23.644C256.339 23.788 256.543 23.86 256.807 23.86C257.311 23.86 257.671 23.932 257.887 24.076C258.127 24.22 258.211 24.484 258.139 24.868C258.043 25.42 257.755 25.96 257.275 26.488C256.795 27.016 256.111 27.46 255.223 27.82C254.359 28.156 253.303 28.324 252.055 28.324C250.471 28.324 249.211 27.976 248.275 27.28C247.339 26.56 246.871 25.54 246.871 24.22C246.871 23.716 246.943 23.176 247.087 22.6L247.663 20.296C247.759 19.984 247.807 19.66 247.807 19.324C247.807 18.772 247.615 18.376 247.231 18.136C246.871 17.896 246.283 17.776 245.467 17.776H244.099L242.443 23.752C242.395 23.896 242.371 24.076 242.371 24.292C242.371 24.628 242.455 24.916 242.623 25.156C242.791 25.396 243.019 25.648 243.307 25.912C243.523 26.08 243.691 26.248 243.811 26.416C243.931 26.56 243.991 26.716 243.991 26.884C243.991 27.292 243.799 27.58 243.415 27.748C243.031 27.916 242.467 28 241.723 28H232.687C232.063 28 231.595 27.892 231.283 27.676C230.971 27.436 230.863 27.112 230.959 26.704C231.007 26.488 231.103 26.32 231.247 26.2C231.367 26.056 231.559 25.9 231.823 25.732C232.231 25.492 232.555 25.24 232.795 24.976C233.035 24.712 233.227 24.304 233.371 23.752L237.763 8.236C237.859 7.924 237.907 7.624 237.907 7.336C237.907 7.072 237.859 6.856 237.763 6.688C237.691 6.496 237.583 6.28 237.439 6.04C237.223 5.728 237.115 5.476 237.115 5.284C237.115 5.212 237.139 5.08 237.187 4.888C237.283 4.576 237.487 4.36 237.799 4.24C238.135 4.096 238.639 4.024 239.311 4.024H251.371C253.027 4.024 254.467 4.276 255.691 4.78C256.939 5.284 257.887 5.98 258.535 6.868C259.207 7.732 259.543 8.716 259.543 9.82C259.543 10.324 259.471 10.828 259.327 11.332ZM250.111 10.972C250.231 10.42 250.291 10 250.291 9.712C250.291 8.44 249.595 7.804 248.203 7.804H246.691L245.107 14.176H246.619C247.555 14.176 248.287 13.948 248.815 13.492C249.367 13.036 249.799 12.196 250.111 10.972Z"/>
<path d="M275.952 8.956C279.216 8.956 281.616 9.61599 283.152 10.936C284.712 12.256 285.492 13.984 285.492 16.12C285.492 16.84 285.396 17.644 285.204 18.532C284.748 20.5 283.896 22.228 282.648 23.716C281.4 25.18 279.864 26.32 278.04 27.136C276.24 27.928 274.284 28.324 272.172 28.324C268.836 28.324 266.364 27.664 264.756 26.344C263.172 25 262.38 23.224 262.38 21.016C262.38 20.272 262.476 19.444 262.668 18.532C263.124 16.66 263.988 15.004 265.26 13.564C266.556 12.1 268.128 10.972 269.976 10.18C271.848 9.364 273.84 8.956 275.952 8.956ZM275.844 12.16C275.34 12.16 274.8 12.616 274.224 13.528C273.672 14.416 273.012 16.108 272.244 18.604C271.476 21.1 271.092 22.852 271.092 23.86C271.092 24.388 271.176 24.748 271.344 24.94C271.512 25.108 271.74 25.192 272.028 25.192C272.532 25.24 273.048 24.808 273.576 23.896C274.128 22.984 274.812 21.208 275.628 18.568C276.372 16.24 276.744 14.548 276.744 13.492C276.744 12.988 276.66 12.64 276.492 12.448C276.348 12.256 276.132 12.16 275.844 12.16Z"/>
<path d="M300.369 8.632C302.361 8.632 304.077 8.812 305.517 9.172C306.981 9.532 308.097 10.036 308.865 10.684C309.657 11.332 310.053 12.064 310.053 12.88C310.053 13.72 309.717 14.404 309.045 14.932C308.397 15.46 307.485 15.724 306.309 15.724C305.109 15.724 304.089 15.424 303.249 14.824C302.433 14.224 302.025 13.468 302.025 12.556C302.025 12.244 302.073 11.944 302.169 11.656C301.737 11.536 301.353 11.476 301.017 11.476C300.417 11.476 299.913 11.62 299.505 11.908C299.121 12.196 298.941 12.604 298.965 13.132C298.965 13.756 299.277 14.284 299.901 14.716C300.525 15.148 301.533 15.688 302.925 16.336C304.125 16.864 305.109 17.356 305.877 17.812C306.669 18.244 307.329 18.796 307.857 19.468C308.409 20.14 308.685 20.932 308.685 21.844C308.685 22.036 308.637 22.396 308.541 22.924C308.157 24.532 307.089 25.804 305.337 26.74C303.585 27.676 301.281 28.144 298.425 28.144C295.209 28.144 292.653 27.712 290.757 26.848C288.885 25.984 287.949 24.796 287.949 23.284C287.949 22.252 288.261 21.472 288.885 20.944C289.509 20.416 290.337 20.152 291.369 20.152C292.569 20.152 293.589 20.524 294.429 21.268C295.293 22.012 295.725 22.96 295.725 24.112C295.725 24.424 295.689 24.748 295.617 25.084C296.193 25.228 296.745 25.3 297.273 25.3C297.897 25.3 298.413 25.132 298.821 24.796C299.229 24.46 299.433 23.992 299.433 23.392C299.409 22.84 299.133 22.372 298.605 21.988C298.077 21.58 297.237 21.1 296.085 20.548C295.005 20.044 294.117 19.576 293.421 19.144C292.725 18.688 292.125 18.124 291.621 17.452C291.141 16.78 290.901 15.988 290.901 15.076C290.901 13.108 291.717 11.548 293.349 10.396C295.005 9.22 297.345 8.632 300.369 8.632Z"/>
<path d="M324.949 8.776C327.997 8.776 330.205 9.268 331.573 10.252C332.941 11.212 333.625 12.448 333.625 13.96C333.625 14.416 333.577 14.836 333.481 15.22C333.121 16.804 332.113 17.944 330.457 18.64C328.825 19.312 326.893 19.648 324.661 19.648C323.533 19.648 322.477 19.576 321.493 19.432C321.469 20.68 321.805 21.556 322.501 22.06C323.197 22.564 324.169 22.816 325.417 22.816C325.993 22.816 326.545 22.756 327.073 22.636C327.601 22.492 328.273 22.288 329.089 22.024C329.761 21.784 330.217 21.664 330.457 21.664C330.721 21.664 330.853 21.82 330.853 22.132C330.877 22.972 330.565 23.86 329.917 24.796C329.269 25.708 328.309 26.488 327.037 27.136C325.765 27.784 324.229 28.108 322.429 28.108C319.765 28.108 317.581 27.436 315.877 26.092C314.173 24.748 313.321 22.792 313.321 20.224C313.321 19.504 313.417 18.664 313.609 17.704C314.209 14.752 315.517 12.532 317.533 11.044C319.573 9.532 322.045 8.776 324.949 8.776ZM321.745 17.272C321.841 17.296 321.973 17.308 322.141 17.308C323.149 17.308 323.917 16.84 324.445 15.904C324.973 14.968 325.225 13.924 325.201 12.772C325.177 12.1 324.985 11.764 324.625 11.764C324.361 11.764 324.049 11.98 323.689 12.412C323.329 12.82 322.969 13.444 322.609 14.284C322.273 15.124 321.985 16.12 321.745 17.272Z"/>
<path d="M347.613 8.632C349.605 8.632 351.321 8.812 352.761 9.172C354.225 9.532 355.341 10.036 356.109 10.684C356.901 11.332 357.297 12.064 357.297 12.88C357.297 13.72 356.961 14.404 356.289 14.932C355.641 15.46 354.729 15.724 353.553 15.724C352.353 15.724 351.333 15.424 350.493 14.824C349.677 14.224 349.269 13.468 349.269 12.556C349.269 12.244 349.317 11.944 349.413 11.656C348.981 11.536 348.597 11.476 348.261 11.476C347.661 11.476 347.157 11.62 346.749 11.908C346.365 12.196 346.185 12.604 346.209 13.132C346.209 13.756 346.521 14.284 347.145 14.716C347.769 15.148 348.777 15.688 350.169 16.336C351.369 16.864 352.353 17.356 353.121 17.812C353.913 18.244 354.573 18.796 355.101 19.468C355.653 20.14 355.929 20.932 355.929 21.844C355.929 22.036 355.881 22.396 355.785 22.924C355.401 24.532 354.333 25.804 352.581 26.74C350.829 27.676 348.525 28.144 345.669 28.144C342.453 28.144 339.897 27.712 338.001 26.848C336.129 25.984 335.193 24.796 335.193 23.284C335.193 22.252 335.505 21.472 336.129 20.944C336.753 20.416 337.581 20.152 338.613 20.152C339.813 20.152 340.833 20.524 341.673 21.268C342.537 22.012 342.969 22.96 342.969 24.112C342.969 24.424 342.933 24.748 342.861 25.084C343.437 25.228 343.989 25.3 344.517 25.3C345.141 25.3 345.657 25.132 346.065 24.796C346.473 24.46 346.677 23.992 346.677 23.392C346.653 22.84 346.377 22.372 345.849 21.988C345.321 21.58 344.481 21.1 343.329 20.548C342.249 20.044 341.361 19.576 340.665 19.144C339.969 18.688 339.369 18.124 338.865 17.452C338.385 16.78 338.145 15.988 338.145 15.076C338.145 13.108 338.961 11.548 340.593 10.396C342.249 9.22 344.589 8.632 347.613 8.632Z"/>
</mask>
<path d="M29.5039 11.332C29.1199 12.724 28.3999 13.816 27.3439 14.608C26.2879 15.376 24.9559 15.856 23.3479 16.048C24.4999 16.144 25.3639 16.48 25.9399 17.056C26.5159 17.632 26.8039 18.388 26.8039 19.324C26.8039 19.684 26.7439 20.128 26.6239 20.656L26.2279 22.42C26.1799 22.66 26.1559 22.828 26.1559 22.924C26.1559 23.236 26.2279 23.476 26.3719 23.644C26.5159 23.788 26.7199 23.86 26.9839 23.86C27.4879 23.86 27.8479 23.932 28.0639 24.076C28.3039 24.22 28.3879 24.484 28.3159 24.868C28.2199 25.42 27.9319 25.96 27.4519 26.488C26.9719 27.016 26.2879 27.46 25.3999 27.82C24.5359 28.156 23.4799 28.324 22.2319 28.324C20.6479 28.324 19.3879 27.976 18.4519 27.28C17.5159 26.56 17.0479 25.54 17.0479 24.22C17.0479 23.716 17.1199 23.176 17.2639 22.6L17.8399 20.296C17.9359 19.984 17.9839 19.66 17.9839 19.324C17.9839 18.772 17.7919 18.376 17.4079 18.136C17.0479 17.896 16.4599 17.776 15.6439 17.776H14.2759L12.6199 23.752C12.5719 23.896 12.5479 24.076 12.5479 24.292C12.5479 24.628 12.6319 24.916 12.7999 25.156C12.9679 25.396 13.1959 25.648 13.4839 25.912C13.6999 26.08 13.8679 26.248 13.9879 26.416C14.1079 26.56 14.1679 26.716 14.1679 26.884C14.1679 27.292 13.9759 27.58 13.5919 27.748C13.2079 27.916 12.6439 28 11.8999 28H2.86393C2.23993 28 1.77193 27.892 1.45993 27.676C1.14793 27.436 1.03993 27.112 1.13593 26.704C1.18393 26.488 1.27993 26.32 1.42393 26.2C1.54393 26.056 1.73593 25.9 1.99993 25.732C2.40793 25.492 2.73193 25.24 2.97193 24.976C3.21193 24.712 3.40393 24.304 3.54793 23.752L7.93993 8.236C8.03593 7.924 8.08393 7.624 8.08393 7.336C8.08393 7.072 8.03593 6.856 7.93993 6.688C7.86793 6.496 7.75993 6.28 7.61593 6.04C7.39993 5.728 7.29193 5.476 7.29193 5.284C7.29193 5.212 7.31593 5.08 7.36393 4.888C7.45993 4.576 7.66393 4.36 7.97593 4.24C8.31193 4.096 8.81593 4.024 9.48793 4.024H21.5479C23.2039 4.024 24.6439 4.276 25.8679 4.78C27.1159 5.284 28.0639 5.98 28.7119 6.868C29.3839 7.732 29.7199 8.716 29.7199 9.82C29.7199 10.324 29.6479 10.828 29.5039 11.332ZM20.2879 10.972C20.4079 10.42 20.4679 10 20.4679 9.712C20.4679 8.44 19.7719 7.804 18.3799 7.804H16.8679L15.2839 14.176H16.7959C17.7319 14.176 18.4639 13.948 18.9919 13.492C19.5439 13.036 19.9759 12.196 20.2879 10.972Z" stroke="white" stroke-width="2" mask="url(#path-1-outside-1_416_98)"/>
<path d="M44.4003 8.776C47.4483 8.776 49.6563 9.268 51.0243 10.252C52.3923 11.212 53.0763 12.448 53.0763 13.96C53.0763 14.416 53.0283 14.836 52.9323 15.22C52.5723 16.804 51.5643 17.944 49.9083 18.64C48.2763 19.312 46.3443 19.648 44.1123 19.648C42.9843 19.648 41.9283 19.576 40.9443 19.432C40.9203 20.68 41.2563 21.556 41.9523 22.06C42.6483 22.564 43.6203 22.816 44.8683 22.816C45.4443 22.816 45.9963 22.756 46.5243 22.636C47.0523 22.492 47.7243 22.288 48.5403 22.024C49.2123 21.784 49.6683 21.664 49.9083 21.664C50.1723 21.664 50.3043 21.82 50.3043 22.132C50.3283 22.972 50.0163 23.86 49.3683 24.796C48.7203 25.708 47.7603 26.488 46.4883 27.136C45.2163 27.784 43.6803 28.108 41.8803 28.108C39.2163 28.108 37.0323 27.436 35.3283 26.092C33.6243 24.748 32.7723 22.792 32.7723 20.224C32.7723 19.504 32.8683 18.664 33.0603 17.704C33.6603 14.752 34.9683 12.532 36.9843 11.044C39.0243 9.532 41.4963 8.776 44.4003 8.776ZM41.1963 17.272C41.2923 17.296 41.4243 17.308 41.5923 17.308C42.6003 17.308 43.3683 16.84 43.8963 15.904C44.4243 14.968 44.6763 13.924 44.6523 12.772C44.6283 12.1 44.4363 11.764 44.0763 11.764C43.8123 11.764 43.5003 11.98 43.1403 12.412C42.7803 12.82 42.4203 13.444 42.0603 14.284C41.7243 15.124 41.4363 16.12 41.1963 17.272Z" stroke="white" stroke-width="2" mask="url(#path-1-outside-1_416_98)"/>
<path d="M75.3449 22.816C75.2969 23.008 75.2729 23.14 75.2729 23.212C75.2729 23.38 75.3209 23.512 75.4169 23.608C75.5129 23.704 75.6329 23.752 75.7769 23.752C76.0649 23.752 76.3049 23.632 76.4969 23.392C76.7129 23.128 76.8569 22.996 76.9289 22.996C77.0489 22.996 77.1449 23.08 77.2169 23.248C77.2889 23.416 77.3249 23.608 77.3249 23.824C77.3489 24.472 77.0969 25.132 76.5689 25.804C76.0649 26.476 75.3809 27.028 74.5169 27.46C73.6529 27.892 72.7169 28.108 71.7089 28.108C70.5089 28.108 69.4649 27.88 68.5769 27.424C67.6889 26.968 67.0769 26.368 66.7409 25.624C66.0929 26.464 65.3489 27.088 64.5089 27.496C63.6689 27.904 62.7809 28.108 61.8449 28.108C60.7409 28.108 59.7089 27.832 58.7489 27.28C57.8129 26.728 57.0569 25.948 56.4809 24.94C55.9289 23.908 55.6529 22.744 55.6529 21.448C55.6529 19.264 56.0609 17.212 56.8769 15.292C57.7169 13.348 58.8809 11.788 60.3689 10.612C61.8569 9.412 63.5489 8.812 65.4449 8.812C66.4769 8.812 67.3529 8.932 68.0729 9.172C68.8169 9.412 69.4889 9.772 70.0889 10.252L71.3129 6.22C71.3849 6.004 71.4209 5.824 71.4209 5.68C71.4209 5.416 71.3489 5.2 71.2049 5.032C71.0849 4.864 70.9169 4.696 70.7009 4.528C70.4609 4.336 70.2809 4.168 70.1609 4.024C70.0649 3.88 70.0529 3.688 70.1249 3.448C70.2689 2.896 71.0249 2.416 72.3929 2.00799C73.7609 1.6 75.1889 1.396 76.6769 1.396C78.0689 1.396 79.0889 1.66 79.7369 2.188C80.4089 2.716 80.7449 3.436 80.7449 4.348C80.7449 4.876 80.6609 5.392 80.4929 5.896L75.3449 22.816ZM69.3329 12.7C68.9489 12.364 68.5289 12.196 68.0729 12.196C67.3769 12.196 66.6929 12.712 66.0209 13.744C65.3489 14.776 64.8089 16.024 64.4009 17.488C63.9929 18.952 63.8009 20.272 63.8249 21.448C63.8249 22.768 64.2569 23.428 65.1209 23.428C65.4329 23.428 65.6969 23.308 65.9129 23.068C66.1289 22.804 66.3329 22.384 66.5249 21.808L69.3329 12.7Z" stroke="white" stroke-width="2" mask="url(#path-1-outside-1_416_98)"/>
<path d="M112.406 18.712C113.078 18.712 113.582 18.856 113.918 19.144C114.278 19.408 114.458 19.792 114.458 20.296C114.458 20.512 114.422 20.752 114.35 21.016L113.162 25.228C112.85 26.26 112.406 26.98 111.83 27.388C111.278 27.796 110.45 28 109.346 28H92.4258C91.9218 28 91.5378 27.916 91.2738 27.748C90.9858 27.58 90.8418 27.352 90.8418 27.064C90.8418 26.92 90.8778 26.764 90.9498 26.596C91.0218 26.404 91.1418 26.248 91.3098 26.128C91.4778 25.984 91.6577 25.852 91.8497 25.732C92.2337 25.492 92.5458 25.252 92.7858 25.012C93.0258 24.748 93.2298 24.328 93.3978 23.752L97.7897 8.236C97.8857 7.924 97.9337 7.624 97.9337 7.336C97.9337 7.072 97.8857 6.856 97.7897 6.688C97.7177 6.496 97.6098 6.28 97.4658 6.04C97.2498 5.728 97.1417 5.476 97.1417 5.284C97.1417 5.212 97.1658 5.08 97.2138 4.888C97.3098 4.576 97.5138 4.36 97.8258 4.24C98.1618 4.096 98.6658 4.024 99.3378 4.024H107.798C108.302 4.024 108.686 4.108 108.95 4.276C109.238 4.42 109.382 4.636 109.382 4.924C109.382 5.044 109.346 5.2 109.274 5.392C109.202 5.56 109.094 5.716 108.95 5.86C108.83 5.98 108.71 6.076 108.59 6.14799C108.494 6.196 108.422 6.244 108.374 6.292C107.99 6.508 107.678 6.748 107.438 7.012C107.198 7.276 106.994 7.684 106.826 8.236L102.182 24.544H104.414C104.966 24.544 105.434 24.448 105.818 24.256C106.226 24.064 106.646 23.704 107.078 23.176L109.562 20.224C110.018 19.696 110.45 19.312 110.858 19.072C111.29 18.832 111.806 18.712 112.406 18.712Z" stroke="white" stroke-width="2" mask="url(#path-1-outside-1_416_98)"/>
<path d="M130.959 8.956C133.719 8.956 135.927 9.472 137.583 10.504C139.239 11.512 140.067 13.06 140.067 15.148C140.067 15.94 139.923 16.84 139.635 17.848L138.159 22.816C138.135 22.912 138.123 23.032 138.123 23.176C138.123 23.56 138.279 23.752 138.591 23.752C138.879 23.752 139.119 23.632 139.311 23.392C139.527 23.128 139.671 22.996 139.743 22.996C139.863 22.996 139.959 23.08 140.031 23.248C140.127 23.416 140.175 23.608 140.175 23.824C140.199 24.472 139.947 25.132 139.419 25.804C138.915 26.476 138.231 27.028 137.367 27.46C136.503 27.892 135.555 28.108 134.523 28.108C133.275 28.108 132.207 27.88 131.319 27.424C130.431 26.968 129.819 26.296 129.483 25.408C128.763 26.272 127.911 26.944 126.927 27.424C125.943 27.88 124.887 28.108 123.759 28.108C122.487 28.108 121.419 27.868 120.555 27.388C119.691 26.884 119.043 26.248 118.611 25.48C118.203 24.688 117.999 23.86 117.999 22.996C117.999 22.612 118.035 22.24 118.107 21.88C118.491 20.224 119.319 18.976 120.591 18.136C121.887 17.296 123.423 16.876 125.199 16.876C127.191 16.876 129.147 17.188 131.067 17.812L131.967 15.436C132.279 14.428 132.435 13.648 132.435 13.096C132.411 12.52 132.219 12.088 131.859 11.8C131.499 11.512 130.947 11.368 130.203 11.368C130.347 11.752 130.419 12.148 130.419 12.556C130.419 13.444 130.083 14.212 129.411 14.86C128.739 15.508 127.779 15.832 126.531 15.832C125.355 15.832 124.431 15.58 123.759 15.076C123.111 14.548 122.787 13.9 122.787 13.132C122.787 11.932 123.459 10.936 124.803 10.144C126.147 9.352 128.199 8.956 130.959 8.956ZM128.943 19.864C128.271 19.864 127.719 20.128 127.287 20.656C126.879 21.16 126.675 21.712 126.675 22.312C126.675 22.696 126.759 23.008 126.927 23.248C127.119 23.488 127.383 23.608 127.719 23.608C128.031 23.608 128.367 23.488 128.727 23.248C129.111 22.984 129.387 22.6 129.555 22.096L130.311 19.972C129.903 19.9 129.447 19.864 128.943 19.864Z" stroke="white" stroke-width="2" mask="url(#path-1-outside-1_416_98)"/>
<path d="M166.826 23.032C166.778 23.128 166.754 23.272 166.754 23.464C166.754 23.632 166.79 23.764 166.862 23.86C166.958 23.956 167.078 24.004 167.222 24.004C167.51 24.004 167.75 23.884 167.942 23.644C168.158 23.38 168.302 23.248 168.374 23.248C168.494 23.248 168.59 23.332 168.662 23.5C168.734 23.644 168.77 23.824 168.77 24.04C168.794 24.736 168.566 25.42 168.086 26.092C167.606 26.74 166.898 27.28 165.962 27.712C165.05 28.12 163.946 28.324 162.65 28.324C161.066 28.324 159.806 27.964 158.87 27.244C157.934 26.5 157.454 25.516 157.43 24.292C157.43 23.404 157.646 22.408 158.078 21.304L160.058 16.12C160.178 15.808 160.238 15.556 160.238 15.364C160.238 15.052 160.13 14.812 159.914 14.644C159.722 14.452 159.482 14.356 159.194 14.356C158.666 14.356 158.162 14.608 157.682 15.112C157.202 15.592 156.854 16.192 156.638 16.912L154.406 24.256C154.31 24.52 154.262 24.772 154.262 25.012C154.262 25.3 154.322 25.54 154.442 25.732C154.562 25.9 154.73 26.08 154.946 26.272C155.114 26.416 155.234 26.548 155.306 26.668C155.378 26.788 155.39 26.932 155.342 27.1C155.246 27.412 155.018 27.64 154.658 27.784C154.298 27.928 153.734 28 152.966 28H144.758C144.134 28 143.69 27.904 143.426 27.712C143.138 27.496 143.03 27.22 143.102 26.884C143.198 26.596 143.45 26.344 143.858 26.128C144.218 25.936 144.518 25.708 144.758 25.444C144.998 25.18 145.202 24.76 145.37 24.184L148.574 13.78C148.622 13.66 148.646 13.492 148.646 13.276C148.646 13.012 148.586 12.808 148.466 12.664C148.37 12.52 148.202 12.34 147.962 12.124C147.722 11.932 147.554 11.764 147.458 11.62C147.362 11.476 147.35 11.284 147.422 11.044C147.566 10.492 148.322 10.012 149.69 9.604C151.058 9.172 152.486 8.956 153.974 8.956C155.174 8.956 156.122 9.292 156.818 9.96399C157.514 10.612 157.826 11.524 157.754 12.7C158.738 11.284 159.782 10.312 160.886 9.784C161.99 9.232 163.19 8.956 164.486 8.956C165.95 8.956 167.126 9.4 168.014 10.288C168.926 11.176 169.382 12.328 169.382 13.744C169.382 14.488 169.262 15.22 169.022 15.94L166.826 23.032Z" stroke="white" stroke-width="2" mask="url(#path-1-outside-1_416_98)"/>
<path d="M193.315 22.816C193.267 23.008 193.243 23.14 193.243 23.212C193.243 23.38 193.291 23.512 193.387 23.608C193.483 23.704 193.603 23.752 193.747 23.752C194.035 23.752 194.275 23.632 194.467 23.392C194.683 23.128 194.827 22.996 194.899 22.996C195.019 22.996 195.115 23.08 195.187 23.248C195.259 23.416 195.295 23.608 195.295 23.824C195.319 24.472 195.067 25.132 194.539 25.804C194.035 26.476 193.351 27.028 192.487 27.46C191.623 27.892 190.687 28.108 189.679 28.108C188.479 28.108 187.435 27.88 186.547 27.424C185.659 26.968 185.047 26.368 184.711 25.624C184.063 26.464 183.319 27.088 182.479 27.496C181.639 27.904 180.751 28.108 179.815 28.108C178.711 28.108 177.679 27.832 176.719 27.28C175.783 26.728 175.027 25.948 174.451 24.94C173.899 23.908 173.623 22.744 173.623 21.448C173.623 19.264 174.031 17.212 174.847 15.292C175.687 13.348 176.851 11.788 178.339 10.612C179.827 9.412 181.519 8.812 183.415 8.812C184.447 8.812 185.323 8.932 186.043 9.172C186.787 9.412 187.459 9.772 188.059 10.252L189.283 6.22C189.355 6.004 189.391 5.824 189.391 5.68C189.391 5.416 189.319 5.2 189.175 5.032C189.055 4.864 188.887 4.696 188.671 4.528C188.431 4.336 188.251 4.168 188.131 4.024C188.035 3.88 188.023 3.688 188.095 3.448C188.239 2.896 188.995 2.416 190.363 2.00799C191.731 1.6 193.159 1.396 194.647 1.396C196.039 1.396 197.059 1.66 197.707 2.188C198.379 2.716 198.715 3.436 198.715 4.348C198.715 4.876 198.631 5.392 198.463 5.896L193.315 22.816ZM187.303 12.7C186.919 12.364 186.499 12.196 186.043 12.196C185.347 12.196 184.663 12.712 183.991 13.744C183.319 14.776 182.779 16.024 182.371 17.488C181.963 18.952 181.771 20.272 181.795 21.448C181.795 22.768 182.227 23.428 183.091 23.428C183.403 23.428 183.667 23.308 183.883 23.068C184.099 22.804 184.303 22.384 184.495 21.808L187.303 12.7Z" stroke="white" stroke-width="2" mask="url(#path-1-outside-1_416_98)"/>
<path d="M209.361 8.632C211.353 8.632 213.068 8.812 214.508 9.172C215.972 9.532 217.089 10.036 217.857 10.684C218.649 11.332 219.045 12.064 219.045 12.88C219.045 13.72 218.708 14.404 218.036 14.932C217.388 15.46 216.477 15.724 215.301 15.724C214.101 15.724 213.081 15.424 212.241 14.824C211.425 14.224 211.017 13.468 211.017 12.556C211.017 12.244 211.065 11.944 211.161 11.656C210.729 11.536 210.344 11.476 210.008 11.476C209.408 11.476 208.905 11.62 208.497 11.908C208.113 12.196 207.933 12.604 207.957 13.132C207.957 13.756 208.269 14.284 208.893 14.716C209.517 15.148 210.525 15.688 211.917 16.336C213.117 16.864 214.1 17.356 214.868 17.812C215.661 18.244 216.321 18.796 216.849 19.468C217.401 20.14 217.676 20.932 217.676 21.844C217.676 22.036 217.628 22.396 217.533 22.924C217.149 24.532 216.081 25.804 214.329 26.74C212.577 27.676 210.273 28.144 207.417 28.144C204.201 28.144 201.645 27.712 199.749 26.848C197.877 25.984 196.941 24.796 196.941 23.284C196.941 22.252 197.253 21.472 197.877 20.944C198.501 20.416 199.329 20.152 200.361 20.152C201.561 20.152 202.581 20.524 203.421 21.268C204.285 22.012 204.717 22.96 204.717 24.112C204.717 24.424 204.681 24.748 204.609 25.084C205.185 25.228 205.737 25.3 206.265 25.3C206.889 25.3 207.405 25.132 207.812 24.796C208.22 24.46 208.424 23.992 208.424 23.392C208.4 22.84 208.125 22.372 207.597 21.988C207.069 21.58 206.229 21.1 205.077 20.548C203.997 20.044 203.109 19.576 202.413 19.144C201.717 18.688 201.117 18.124 200.613 17.452C200.133 16.78 199.893 15.988 199.893 15.076C199.893 13.108 200.708 11.548 202.34 10.396C203.997 9.22 206.337 8.632 209.361 8.632Z" stroke="white" stroke-width="2" mask="url(#path-1-outside-1_416_98)"/>
<path d="M259.327 11.332C258.943 12.724 258.223 13.816 257.167 14.608C256.111 15.376 254.779 15.856 253.171 16.048C254.323 16.144 255.187 16.48 255.763 17.056C256.339 17.632 256.627 18.388 256.627 19.324C256.627 19.684 256.567 20.128 256.447 20.656L256.051 22.42C256.003 22.66 255.979 22.828 255.979 22.924C255.979 23.236 256.051 23.476 256.195 23.644C256.339 23.788 256.543 23.86 256.807 23.86C257.311 23.86 257.671 23.932 257.887 24.076C258.127 24.22 258.211 24.484 258.139 24.868C258.043 25.42 257.755 25.96 257.275 26.488C256.795 27.016 256.111 27.46 255.223 27.82C254.359 28.156 253.303 28.324 252.055 28.324C250.471 28.324 249.211 27.976 248.275 27.28C247.339 26.56 246.871 25.54 246.871 24.22C246.871 23.716 246.943 23.176 247.087 22.6L247.663 20.296C247.759 19.984 247.807 19.66 247.807 19.324C247.807 18.772 247.615 18.376 247.231 18.136C246.871 17.896 246.283 17.776 245.467 17.776H244.099L242.443 23.752C242.395 23.896 242.371 24.076 242.371 24.292C242.371 24.628 242.455 24.916 242.623 25.156C242.791 25.396 243.019 25.648 243.307 25.912C243.523 26.08 243.691 26.248 243.811 26.416C243.931 26.56 243.991 26.716 243.991 26.884C243.991 27.292 243.799 27.58 243.415 27.748C243.031 27.916 242.467 28 241.723 28H232.687C232.063 28 231.595 27.892 231.283 27.676C230.971 27.436 230.863 27.112 230.959 26.704C231.007 26.488 231.103 26.32 231.247 26.2C231.367 26.056 231.559 25.9 231.823 25.732C232.231 25.492 232.555 25.24 232.795 24.976C233.035 24.712 233.227 24.304 233.371 23.752L237.763 8.236C237.859 7.924 237.907 7.624 237.907 7.336C237.907 7.072 237.859 6.856 237.763 6.688C237.691 6.496 237.583 6.28 237.439 6.04C237.223 5.728 237.115 5.476 237.115 5.284C237.115 5.212 237.139 5.08 237.187 4.888C237.283 4.576 237.487 4.36 237.799 4.24C238.135 4.096 238.639 4.024 239.311 4.024H251.371C253.027 4.024 254.467 4.276 255.691 4.78C256.939 5.284 257.887 5.98 258.535 6.868C259.207 7.732 259.543 8.716 259.543 9.82C259.543 10.324 259.471 10.828 259.327 11.332ZM250.111 10.972C250.231 10.42 250.291 10 250.291 9.712C250.291 8.44 249.595 7.804 248.203 7.804H246.691L245.107 14.176H246.619C247.555 14.176 248.287 13.948 248.815 13.492C249.367 13.036 249.799 12.196 250.111 10.972Z" stroke="white" stroke-width="2" mask="url(#path-1-outside-1_416_98)"/>
<path d="M275.952 8.956C279.216 8.956 281.616 9.61599 283.152 10.936C284.712 12.256 285.492 13.984 285.492 16.12C285.492 16.84 285.396 17.644 285.204 18.532C284.748 20.5 283.896 22.228 282.648 23.716C281.4 25.18 279.864 26.32 278.04 27.136C276.24 27.928 274.284 28.324 272.172 28.324C268.836 28.324 266.364 27.664 264.756 26.344C263.172 25 262.38 23.224 262.38 21.016C262.38 20.272 262.476 19.444 262.668 18.532C263.124 16.66 263.988 15.004 265.26 13.564C266.556 12.1 268.128 10.972 269.976 10.18C271.848 9.364 273.84 8.956 275.952 8.956ZM275.844 12.16C275.34 12.16 274.8 12.616 274.224 13.528C273.672 14.416 273.012 16.108 272.244 18.604C271.476 21.1 271.092 22.852 271.092 23.86C271.092 24.388 271.176 24.748 271.344 24.94C271.512 25.108 271.74 25.192 272.028 25.192C272.532 25.24 273.048 24.808 273.576 23.896C274.128 22.984 274.812 21.208 275.628 18.568C276.372 16.24 276.744 14.548 276.744 13.492C276.744 12.988 276.66 12.64 276.492 12.448C276.348 12.256 276.132 12.16 275.844 12.16Z" stroke="white" stroke-width="2" mask="url(#path-1-outside-1_416_98)"/>
<path d="M300.369 8.632C302.361 8.632 304.077 8.812 305.517 9.172C306.981 9.532 308.097 10.036 308.865 10.684C309.657 11.332 310.053 12.064 310.053 12.88C310.053 13.72 309.717 14.404 309.045 14.932C308.397 15.46 307.485 15.724 306.309 15.724C305.109 15.724 304.089 15.424 303.249 14.824C302.433 14.224 302.025 13.468 302.025 12.556C302.025 12.244 302.073 11.944 302.169 11.656C301.737 11.536 301.353 11.476 301.017 11.476C300.417 11.476 299.913 11.62 299.505 11.908C299.121 12.196 298.941 12.604 298.965 13.132C298.965 13.756 299.277 14.284 299.901 14.716C300.525 15.148 301.533 15.688 302.925 16.336C304.125 16.864 305.109 17.356 305.877 17.812C306.669 18.244 307.329 18.796 307.857 19.468C308.409 20.14 308.685 20.932 308.685 21.844C308.685 22.036 308.637 22.396 308.541 22.924C308.157 24.532 307.089 25.804 305.337 26.74C303.585 27.676 301.281 28.144 298.425 28.144C295.209 28.144 292.653 27.712 290.757 26.848C288.885 25.984 287.949 24.796 287.949 23.284C287.949 22.252 288.261 21.472 288.885 20.944C289.509 20.416 290.337 20.152 291.369 20.152C292.569 20.152 293.589 20.524 294.429 21.268C295.293 22.012 295.725 22.96 295.725 24.112C295.725 24.424 295.689 24.748 295.617 25.084C296.193 25.228 296.745 25.3 297.273 25.3C297.897 25.3 298.413 25.132 298.821 24.796C299.229 24.46 299.433 23.992 299.433 23.392C299.409 22.84 299.133 22.372 298.605 21.988C298.077 21.58 297.237 21.1 296.085 20.548C295.005 20.044 294.117 19.576 293.421 19.144C292.725 18.688 292.125 18.124 291.621 17.452C291.141 16.78 290.901 15.988 290.901 15.076C290.901 13.108 291.717 11.548 293.349 10.396C295.005 9.22 297.345 8.632 300.369 8.632Z" stroke="white" stroke-width="2" mask="url(#path-1-outside-1_416_98)"/>
<path d="M324.949 8.776C327.997 8.776 330.205 9.268 331.573 10.252C332.941 11.212 333.625 12.448 333.625 13.96C333.625 14.416 333.577 14.836 333.481 15.22C333.121 16.804 332.113 17.944 330.457 18.64C328.825 19.312 326.893 19.648 324.661 19.648C323.533 19.648 322.477 19.576 321.493 19.432C321.469 20.68 321.805 21.556 322.501 22.06C323.197 22.564 324.169 22.816 325.417 22.816C325.993 22.816 326.545 22.756 327.073 22.636C327.601 22.492 328.273 22.288 329.089 22.024C329.761 21.784 330.217 21.664 330.457 21.664C330.721 21.664 330.853 21.82 330.853 22.132C330.877 22.972 330.565 23.86 329.917 24.796C329.269 25.708 328.309 26.488 327.037 27.136C325.765 27.784 324.229 28.108 322.429 28.108C319.765 28.108 317.581 27.436 315.877 26.092C314.173 24.748 313.321 22.792 313.321 20.224C313.321 19.504 313.417 18.664 313.609 17.704C314.209 14.752 315.517 12.532 317.533 11.044C319.573 9.532 322.045 8.776 324.949 8.776ZM321.745 17.272C321.841 17.296 321.973 17.308 322.141 17.308C323.149 17.308 323.917 16.84 324.445 15.904C324.973 14.968 325.225 13.924 325.201 12.772C325.177 12.1 324.985 11.764 324.625 11.764C324.361 11.764 324.049 11.98 323.689 12.412C323.329 12.82 322.969 13.444 322.609 14.284C322.273 15.124 321.985 16.12 321.745 17.272Z" stroke="white" stroke-width="2" mask="url(#path-1-outside-1_416_98)"/>
<path d="M347.613 8.632C349.605 8.632 351.321 8.812 352.761 9.172C354.225 9.532 355.341 10.036 356.109 10.684C356.901 11.332 357.297 12.064 357.297 12.88C357.297 13.72 356.961 14.404 356.289 14.932C355.641 15.46 354.729 15.724 353.553 15.724C352.353 15.724 351.333 15.424 350.493 14.824C349.677 14.224 349.269 13.468 349.269 12.556C349.269 12.244 349.317 11.944 349.413 11.656C348.981 11.536 348.597 11.476 348.261 11.476C347.661 11.476 347.157 11.62 346.749 11.908C346.365 12.196 346.185 12.604 346.209 13.132C346.209 13.756 346.521 14.284 347.145 14.716C347.769 15.148 348.777 15.688 350.169 16.336C351.369 16.864 352.353 17.356 353.121 17.812C353.913 18.244 354.573 18.796 355.101 19.468C355.653 20.14 355.929 20.932 355.929 21.844C355.929 22.036 355.881 22.396 355.785 22.924C355.401 24.532 354.333 25.804 352.581 26.74C350.829 27.676 348.525 28.144 345.669 28.144C342.453 28.144 339.897 27.712 338.001 26.848C336.129 25.984 335.193 24.796 335.193 23.284C335.193 22.252 335.505 21.472 336.129 20.944C336.753 20.416 337.581 20.152 338.613 20.152C339.813 20.152 340.833 20.524 341.673 21.268C342.537 22.012 342.969 22.96 342.969 24.112C342.969 24.424 342.933 24.748 342.861 25.084C343.437 25.228 343.989 25.3 344.517 25.3C345.141 25.3 345.657 25.132 346.065 24.796C346.473 24.46 346.677 23.992 346.677 23.392C346.653 22.84 346.377 22.372 345.849 21.988C345.321 21.58 344.481 21.1 343.329 20.548C342.249 20.044 341.361 19.576 340.665 19.144C339.969 18.688 339.369 18.124 338.865 17.452C338.385 16.78 338.145 15.988 338.145 15.076C338.145 13.108 338.961 11.548 340.593 10.396C342.249 9.22 344.589 8.632 347.613 8.632Z" stroke="white" stroke-width="2" mask="url(#path-1-outside-1_416_98)"/>
</svg>
