<svg width="233" height="25" viewBox="0 0 233 25" fill="none" xmlns="http://www.w3.org/2000/svg">
<path d="M22.2788 2.56882L22.1348 2.78482C21.8828 3.18082 21.4508 3.93682 21.4508 5.37682V19.8488C21.4508 21.4328 21.9908 22.1888 22.2428 22.5488L22.2788 22.6568C22.5308 23.0528 22.4228 23.7728 21.8108 23.7728H16.7348C15.6908 23.7728 14.7908 23.0888 14.6108 21.9368C13.3868 23.0528 11.7308 23.7728 9.75081 23.7728C5.32281 23.7728 1.83081 21.4328 1.83081 15.8168V5.37682C1.83081 3.86482 1.39881 3.07282 1.14681 2.74882C1.11081 2.71282 1.03881 2.60482 1.03881 2.56882C0.786805 2.17282 0.894805 1.45282 1.50681 1.45282H9.06681C9.67881 1.45282 9.78681 2.17282 9.53481 2.56882L9.39081 2.78482C9.13881 3.10882 8.74281 3.86482 8.74281 5.37682V15.8168C8.74281 18.6248 9.35481 21.0008 11.1548 21.0008C12.7388 21.0008 14.5748 19.3448 14.5748 16.5008V5.37682C14.5748 3.75682 14.0348 3.00082 13.7828 2.64082L13.7108 2.46082L13.7468 2.56882C13.5308 2.17282 13.5308 1.45282 14.2508 1.45282H21.8108C22.3868 1.45282 22.4948 2.17282 22.2788 2.56882ZM21.9548 2.31682L21.9188 2.35282C22.0268 2.17282 22.0268 1.88482 21.8108 1.88482H14.2508C13.9988 1.88482 14.0348 2.24482 14.1428 2.42482L14.2148 2.56882L14.1788 2.46082C14.4308 2.85682 15.0068 3.64882 15.0068 5.37682V16.5008C15.0068 19.6328 12.9548 21.4328 11.1548 21.4328C8.99481 21.4328 8.31081 18.8408 8.31081 15.8168V5.37682C8.31081 3.68482 8.81481 2.89282 9.06681 2.53282L9.21081 2.31682L9.17481 2.35282C9.28281 2.17282 9.28281 1.88482 9.06681 1.88482H1.50681C1.32681 1.88482 1.32681 2.17282 1.39881 2.35282L1.50681 2.53282C1.75881 2.89282 2.26281 3.68482 2.26281 5.37682V15.8168C2.26281 21.1448 5.53881 23.3408 9.75081 23.3408C11.8388 23.3408 13.6028 22.4408 15.0068 21.0008C15.0068 22.3688 15.7988 23.3408 16.7348 23.3408H21.8108C22.0268 23.3408 21.9908 22.9808 21.8828 22.8008L21.8108 22.6208L21.8468 22.7288C21.5948 22.3328 21.0188 21.5408 21.0188 19.8488V5.37682C21.0188 3.72082 21.5588 2.89282 21.8108 2.53282L21.9548 2.31682Z" stroke="#BBBBB8"/>
<path d="M39.63 9.84082C39.63 11.8208 37.938 12.3608 36.246 12.3608C35.238 12.3608 34.158 12.1448 33.402 11.8928C33.834 9.84082 32.43 8.04082 31.206 8.04082C30.342 8.04082 29.73 8.47282 29.73 9.48082C29.73 10.5968 31.566 11.5328 33.582 12.5408C36.39 13.9808 39.63 15.5648 39.63 18.4808C39.63 21.7208 35.814 24.1328 31.53 24.1328C27.966 24.1328 23.97 23.4128 23.466 21.1808C23.178 19.2008 25.914 17.0048 28.362 17.1488C29.406 17.1848 29.622 17.5808 29.622 18.3368C29.622 19.7408 30.882 21.6848 31.854 21.6848C32.718 21.6848 33.366 21.2528 33.366 20.2448C33.366 19.2368 31.458 18.2288 29.586 17.2928C26.958 15.9608 23.466 13.9448 23.466 11.2448C23.466 8.11282 26.958 5.59282 32.538 5.59282C36.75 5.59282 39.63 7.32082 39.63 9.84082ZM39.198 9.84082C39.198 7.60882 36.462 6.02482 32.538 6.02482C27.246 6.02482 23.898 8.32882 23.898 11.2448C23.898 13.9448 27.066 15.6008 29.802 16.9328C31.962 18.0128 33.798 18.9488 33.798 20.2448C33.798 21.5408 32.934 22.1168 31.854 22.1168C30.666 22.1168 29.19 19.9568 29.19 18.3368C29.19 17.8688 29.046 17.6168 28.362 17.5808C26.094 17.4368 23.538 19.3448 23.898 21.1088C24.258 23.1248 28.074 23.7008 31.53 23.7008C35.598 23.7008 39.198 21.5048 39.198 18.4808C39.198 15.8528 36.066 14.2688 33.366 12.9008C31.278 11.8568 29.298 10.8128 29.298 9.48082C29.298 8.18482 30.126 7.60882 31.206 7.60882C32.574 7.60882 34.194 9.48082 33.906 11.6048C34.518 11.7848 35.418 11.9288 36.246 11.9288C37.722 11.9288 39.198 11.4608 39.198 9.84082Z" stroke="#BBBBB8"/>
<path d="M57.7959 11.4608C57.7959 12.7928 57.2919 13.9088 55.2039 14.2688L48.0399 15.5288C48.7239 17.6168 50.2359 18.2648 51.8199 18.2648C53.4759 18.2648 55.1679 17.5448 56.0319 16.8968C56.8959 16.2848 57.7959 16.8608 57.7959 17.6528C57.7959 21.8288 53.5119 24.1328 49.6959 24.1328C44.6559 24.1328 40.5159 21.1088 40.5159 14.8448C40.5159 8.58082 44.6559 5.59282 49.6959 5.59282C55.2399 5.59282 57.7959 8.90482 57.7959 11.4608ZM57.3639 11.4608C57.3639 9.12082 54.9519 6.02482 49.6959 6.02482C44.8719 6.02482 40.9479 8.86882 40.9479 14.8448C40.9479 20.8208 44.8719 23.7008 49.6959 23.7008C53.2959 23.7008 57.3639 21.5408 57.3639 17.6528C57.3639 17.2568 56.7879 17.0408 56.3199 17.2568C55.4199 17.9048 53.5839 18.6968 51.8199 18.6968C49.9839 18.6968 48.2199 17.8328 47.4639 15.1688L55.1319 13.8368C56.8239 13.4768 57.3639 12.5408 57.3639 11.4608ZM50.9559 12.9728C50.1999 13.1168 47.2479 13.6208 47.2479 13.6208C47.1759 13.1168 47.1759 12.8288 47.1759 12.5768C47.1759 9.94882 48.3279 7.60882 49.4799 7.60882C50.5959 7.60882 51.4599 9.22882 52.0359 11.0288C52.0359 11.0648 52.0719 11.1008 52.0719 11.1368C52.2519 11.7128 52.5039 12.6848 50.9559 12.9728ZM50.8839 12.5408C51.9639 12.3248 51.7479 11.6408 51.6399 11.2808C51.6399 11.2448 51.6039 11.2448 51.6039 11.1728C51.0999 9.51682 50.3439 8.04082 49.4799 8.04082C48.5439 8.04082 47.6079 10.1648 47.6079 12.5768C47.6079 12.8288 47.5719 12.8648 47.6079 13.1168L50.8839 12.5408Z" stroke="#BBBBB8"/>
<path d="M71.9371 5.95282C74.4931 5.95282 75.9691 7.17682 75.9691 8.94082C75.9691 11.6768 72.2611 13.3688 69.9931 13.3688C69.9931 11.7128 68.8771 10.5968 67.6891 10.5968C67.1491 10.5968 66.5372 10.8848 66.0692 11.4248V20.6408C66.0692 21.6848 66.3212 22.4048 66.5012 22.6568C66.7172 23.0528 66.6451 23.7728 65.9971 23.7728H59.6611C59.0131 23.7728 58.9412 23.0528 59.1572 22.6568C59.3372 22.4048 59.5891 21.6848 59.5891 20.6408V10.2728C59.5891 9.30082 59.1571 8.58082 58.9771 8.32882V8.36482C58.6891 7.96882 58.6531 7.21282 59.4811 7.03282L65.7092 5.95282C66.4652 5.84482 66.7171 6.20482 66.6091 6.81682L66.4292 7.46482C66.2852 7.93282 66.1052 8.54482 66.0692 9.44482C66.9332 8.04082 69.0931 5.95282 71.9371 5.95282ZM71.9371 6.38482C68.5531 6.38482 66.2852 9.48082 66.0692 10.5248L65.6371 10.4888V10.0568C65.6371 8.79682 65.8531 7.82482 66.0331 7.24882L66.1771 6.74482C66.2131 6.52882 66.0332 6.38482 65.7812 6.38482L59.5532 7.46482C59.1932 7.57282 59.1932 7.93282 59.3372 8.11282C59.5172 8.40082 60.0211 9.19282 60.0211 10.2728V20.6408C60.0211 21.7208 59.6972 22.5488 59.5172 22.8728C59.4452 23.0528 59.4451 23.3408 59.6611 23.3408H65.9971C66.2131 23.3408 66.2132 23.0528 66.1412 22.8728C65.9612 22.5488 65.6371 21.7208 65.6371 20.6408V11.2088C66.2491 10.4888 66.9691 10.1648 67.6891 10.1648C69.0571 10.1648 70.3531 11.2088 70.4251 12.9368C72.4411 12.8288 75.5371 11.3168 75.5371 8.94082C75.5371 7.46482 74.2051 6.38482 71.9371 6.38482Z" stroke="#BBBBB8"/>
<path d="M103.784 19.7768C104.36 21.3608 105.008 21.9728 105.332 22.2968L105.512 22.4768C105.836 22.8728 106.052 23.7728 105.008 23.7728H97.1236C96.5116 23.7728 96.2597 23.1968 96.3677 22.8008L96.4756 22.2968C96.6196 21.7568 96.7997 21.1808 96.7997 19.4528C96.7997 18.1568 95.8276 15.1328 94.2076 13.9808V19.8488C94.2076 21.3248 94.6396 22.1528 94.8916 22.5128C94.9636 22.5848 95.0357 22.6568 95.0357 22.7288C95.2517 23.1248 95.1076 23.7728 94.5316 23.7728H86.9716C86.3596 23.7728 86.2516 23.0528 86.5036 22.6568L86.4677 22.7648C86.4677 22.8368 86.5756 22.5848 86.6116 22.5128C86.8636 22.1528 87.2956 21.3248 87.2956 19.8488V5.37682C87.2956 3.86482 86.8636 3.07282 86.6116 2.74882C86.5756 2.71282 86.5036 2.60482 86.5036 2.56882C86.2516 2.17282 86.3596 1.45282 86.9716 1.45282H89.9596C91.2916 1.45282 92.9117 1.41682 94.4237 1.34482C95.7917 1.30882 97.0876 1.23682 98.0596 1.23682C102.164 1.23682 104.972 3.57682 104.972 7.03282C104.972 11.1008 100.796 12.2168 97.1236 13.0448C96.7636 13.1528 97.2317 13.0448 96.7997 13.1528C98.7077 13.6208 101.948 14.8088 102.992 17.6528L103.784 19.7768ZM103.352 19.9208L102.56 17.7968C101.408 14.3408 96.8716 13.5488 95.6116 13.3688V12.9728L97.0517 12.6128C100.796 11.7488 104.54 10.9928 104.54 7.03282C104.54 3.86482 101.876 1.66882 98.0596 1.66882C97.0876 1.66882 95.7917 1.74082 94.4237 1.77682C92.9837 1.84882 91.2196 1.88482 89.9596 1.88482H86.9716C86.7916 1.88482 86.7916 2.17282 86.8636 2.35282L86.9716 2.53282C87.2236 2.89282 87.7276 3.68482 87.7276 5.37682V19.8488C87.7276 21.5768 87.1516 22.4048 86.9356 22.7648L86.8997 22.8008C86.7917 22.9808 86.7556 23.3408 86.9716 23.3408H94.5316C94.7476 23.3408 94.7117 22.9808 94.6037 22.8008C94.6037 22.8008 94.5676 22.8008 94.5676 22.7648C94.3516 22.4408 93.7757 21.6128 93.7757 19.8488V13.2248C96.0077 14.2328 97.2317 17.9768 97.2317 19.4528C97.2317 21.2528 97.0516 21.8288 96.9076 22.3688L96.7997 22.8728C96.7637 23.0528 96.8716 23.3408 97.1236 23.3408H105.008C105.44 23.3408 105.332 22.9448 105.188 22.7648H105.224L105.044 22.5848C104.648 22.1888 103.928 21.5048 103.352 19.9208ZM93.7757 3.28882H94.5316C96.8356 3.28882 97.4837 4.80082 97.4837 6.96082C97.4837 9.12082 95.5756 11.2448 93.7757 11.9288V3.28882ZM94.2076 3.72082V11.2808C95.6476 10.5968 97.0517 8.83282 97.0517 6.96082C97.0517 5.08882 96.4756 3.72082 94.5316 3.72082H94.2076Z" stroke="#BBBBB8"/>
<path d="M122.308 11.4608C122.308 12.7928 121.804 13.9088 119.716 14.2688L112.552 15.5288C113.236 17.6168 114.748 18.2648 116.332 18.2648C117.988 18.2648 119.68 17.5448 120.544 16.8968C121.408 16.2848 122.308 16.8608 122.308 17.6528C122.308 21.8288 118.024 24.1328 114.208 24.1328C109.168 24.1328 105.028 21.1088 105.028 14.8448C105.028 8.58082 109.168 5.59282 114.208 5.59282C119.752 5.59282 122.308 8.90482 122.308 11.4608ZM121.876 11.4608C121.876 9.12082 119.464 6.02482 114.208 6.02482C109.384 6.02482 105.46 8.86882 105.46 14.8448C105.46 20.8208 109.384 23.7008 114.208 23.7008C117.808 23.7008 121.876 21.5408 121.876 17.6528C121.876 17.2568 121.3 17.0408 120.832 17.2568C119.932 17.9048 118.096 18.6968 116.332 18.6968C114.496 18.6968 112.732 17.8328 111.976 15.1688L119.644 13.8368C121.336 13.4768 121.876 12.5408 121.876 11.4608ZM115.468 12.9728C114.712 13.1168 111.76 13.6208 111.76 13.6208C111.688 13.1168 111.688 12.8288 111.688 12.5768C111.688 9.94882 112.84 7.60882 113.992 7.60882C115.108 7.60882 115.972 9.22882 116.548 11.0288C116.548 11.0648 116.584 11.1008 116.584 11.1368C116.764 11.7128 117.016 12.6848 115.468 12.9728ZM115.396 12.5408C116.476 12.3248 116.26 11.6408 116.152 11.2808C116.152 11.2448 116.116 11.2448 116.116 11.1728C115.612 9.51682 114.856 8.04082 113.992 8.04082C113.056 8.04082 112.12 10.1648 112.12 12.5768C112.12 12.8288 112.084 12.8648 112.12 13.1168L115.396 12.5408Z" stroke="#BBBBB8"/>
<path d="M139.509 9.84082C139.509 11.8208 137.817 12.3608 136.125 12.3608C135.117 12.3608 134.037 12.1448 133.281 11.8928C133.713 9.84082 132.309 8.04082 131.085 8.04082C130.221 8.04082 129.609 8.47282 129.609 9.48082C129.609 10.5968 131.445 11.5328 133.461 12.5408C136.269 13.9808 139.509 15.5648 139.509 18.4808C139.509 21.7208 135.693 24.1328 131.409 24.1328C127.845 24.1328 123.849 23.4128 123.345 21.1808C123.057 19.2008 125.793 17.0048 128.241 17.1488C129.285 17.1848 129.501 17.5808 129.501 18.3368C129.501 19.7408 130.761 21.6848 131.733 21.6848C132.597 21.6848 133.245 21.2528 133.245 20.2448C133.245 19.2368 131.337 18.2288 129.465 17.2928C126.837 15.9608 123.345 13.9448 123.345 11.2448C123.345 8.11282 126.837 5.59282 132.417 5.59282C136.629 5.59282 139.509 7.32082 139.509 9.84082ZM139.077 9.84082C139.077 7.60882 136.341 6.02482 132.417 6.02482C127.125 6.02482 123.777 8.32882 123.777 11.2448C123.777 13.9448 126.945 15.6008 129.681 16.9328C131.841 18.0128 133.677 18.9488 133.677 20.2448C133.677 21.5408 132.813 22.1168 131.733 22.1168C130.545 22.1168 129.069 19.9568 129.069 18.3368C129.069 17.8688 128.925 17.6168 128.241 17.5808C125.973 17.4368 123.417 19.3448 123.777 21.1088C124.137 23.1248 127.953 23.7008 131.409 23.7008C135.477 23.7008 139.077 21.5048 139.077 18.4808C139.077 15.8528 135.945 14.2688 133.245 12.9008C131.157 11.8568 129.177 10.8128 129.177 9.48082C129.177 8.18482 130.005 7.60882 131.085 7.60882C132.453 7.60882 134.073 9.48082 133.785 11.6048C134.397 11.7848 135.297 11.9288 136.125 11.9288C137.601 11.9288 139.077 11.4608 139.077 9.84082Z" stroke="#BBBBB8"/>
<path d="M157.675 11.4608C157.675 12.7928 157.171 13.9088 155.083 14.2688L147.919 15.5288C148.603 17.6168 150.115 18.2648 151.699 18.2648C153.355 18.2648 155.047 17.5448 155.911 16.8968C156.775 16.2848 157.675 16.8608 157.675 17.6528C157.675 21.8288 153.391 24.1328 149.575 24.1328C144.535 24.1328 140.395 21.1088 140.395 14.8448C140.395 8.58082 144.535 5.59282 149.575 5.59282C155.119 5.59282 157.675 8.90482 157.675 11.4608ZM157.243 11.4608C157.243 9.12082 154.831 6.02482 149.575 6.02482C144.751 6.02482 140.827 8.86882 140.827 14.8448C140.827 20.8208 144.751 23.7008 149.575 23.7008C153.175 23.7008 157.243 21.5408 157.243 17.6528C157.243 17.2568 156.667 17.0408 156.199 17.2568C155.299 17.9048 153.463 18.6968 151.699 18.6968C149.863 18.6968 148.099 17.8328 147.343 15.1688L155.011 13.8368C156.703 13.4768 157.243 12.5408 157.243 11.4608ZM150.835 12.9728C150.079 13.1168 147.127 13.6208 147.127 13.6208C147.055 13.1168 147.055 12.8288 147.055 12.5768C147.055 9.94882 148.207 7.60882 149.359 7.60882C150.475 7.60882 151.339 9.22882 151.915 11.0288C151.915 11.0648 151.951 11.1008 151.951 11.1368C152.131 11.7128 152.383 12.6848 150.835 12.9728ZM150.763 12.5408C151.843 12.3248 151.627 11.6408 151.519 11.2808C151.519 11.2448 151.483 11.2448 151.483 11.1728C150.979 9.51682 150.223 8.04082 149.359 8.04082C148.423 8.04082 147.487 10.1648 147.487 12.5768C147.487 12.8288 147.451 12.8648 147.487 13.1168L150.763 12.5408Z" stroke="#BBBBB8"/>
<path d="M175.848 19.6328H175.884C176.604 19.7768 176.748 19.9208 176.748 20.5688C176.712 21.7568 175.452 23.7728 172.68 23.7728C170.7 23.7728 169.116 22.9808 168.756 21.3248C167.928 22.6208 166.704 23.7728 164.328 23.7728C161.592 23.7728 158.676 22.3328 158.676 18.9488C158.676 15.6368 163.104 13.7288 166.452 13.7288C167.352 13.7288 168.072 13.8368 168.72 14.1248V12.7928C168.72 11.0648 168.072 8.40082 166.704 8.40082C165.732 8.40082 165.444 9.26482 165.444 10.2368C165.444 11.5328 166.02 13.2968 166.02 13.2968C166.02 13.2968 164.148 13.7648 162.528 13.7648C161.16 13.7648 159.792 13.4408 159.108 12.4688C158.82 12.0368 158.676 11.4968 158.676 11.0648C158.676 8.50882 162.708 5.95282 167.136 5.95282C172.032 5.95282 175.2 8.32882 175.2 12.2168V18.1928C175.2 19.1288 175.488 19.5968 175.848 19.6328ZM175.812 20.0648C175.236 19.9928 174.768 19.3448 174.768 18.1928V12.2168C174.768 8.61682 171.744 6.38482 167.136 6.38482C162.924 6.38482 159.108 8.72482 159.108 11.0648C159.108 11.4608 159.216 11.8568 159.468 12.2528C160.044 13.0808 161.304 13.3328 162.528 13.3328C163.788 13.3328 165.444 13.0088 165.444 13.0088C165.3 12.5408 165.012 11.3888 165.012 10.2368C165.012 9.04882 165.372 7.96882 166.704 7.96882C168.36 7.96882 169.152 10.9208 169.152 12.7928V14.8088C168.324 14.3768 167.388 14.1608 166.452 14.1608C163.32 14.1608 159.108 15.9248 159.108 18.9488C159.108 22.0448 161.808 23.3408 164.328 23.3408C166.74 23.3408 168.216 21.8288 169.116 20.2448C169.152 22.5128 170.664 23.3408 172.68 23.3408C175.164 23.3408 176.28 21.6128 176.316 20.5688C176.316 20.2088 176.244 20.1728 175.812 20.0648ZM169.152 19.8488C168.54 20.1728 165.12 20.2448 165.12 18.0488C165.12 15.5648 167.82 15.1688 169.152 15.1688V19.8488ZM168.72 19.5248V15.6008C167.568 15.6368 165.552 15.9968 165.552 18.0488C165.552 19.8128 168.216 19.6688 168.72 19.5248Z" stroke="#BBBBB8"/>
<path d="M190.976 5.95282C193.532 5.95282 195.008 7.17682 195.008 8.94082C195.008 11.6768 191.3 13.3688 189.032 13.3688C189.032 11.7128 187.916 10.5968 186.728 10.5968C186.188 10.5968 185.576 10.8848 185.108 11.4248V20.6408C185.108 21.6848 185.36 22.4048 185.54 22.6568C185.756 23.0528 185.684 23.7728 185.036 23.7728H178.7C178.052 23.7728 177.98 23.0528 178.196 22.6568C178.376 22.4048 178.628 21.6848 178.628 20.6408V10.2728C178.628 9.30082 178.196 8.58082 178.016 8.32882V8.36482C177.728 7.96882 177.692 7.21282 178.52 7.03282L184.748 5.95282C185.504 5.84482 185.756 6.20482 185.648 6.81682L185.468 7.46482C185.324 7.93282 185.144 8.54482 185.108 9.44482C185.972 8.04082 188.132 5.95282 190.976 5.95282ZM190.976 6.38482C187.592 6.38482 185.324 9.48082 185.108 10.5248L184.676 10.4888V10.0568C184.676 8.79682 184.892 7.82482 185.072 7.24882L185.216 6.74482C185.252 6.52882 185.072 6.38482 184.82 6.38482L178.592 7.46482C178.232 7.57282 178.232 7.93282 178.376 8.11282C178.556 8.40082 179.06 9.19282 179.06 10.2728V20.6408C179.06 21.7208 178.736 22.5488 178.556 22.8728C178.484 23.0528 178.484 23.3408 178.7 23.3408H185.036C185.252 23.3408 185.252 23.0528 185.18 22.8728C185 22.5488 184.676 21.7208 184.676 20.6408V11.2088C185.288 10.4888 186.008 10.1648 186.728 10.1648C188.096 10.1648 189.392 11.2088 189.464 12.9368C191.48 12.8288 194.576 11.3168 194.576 8.94082C194.576 7.46482 193.244 6.38482 190.976 6.38482Z" stroke="#BBBBB8"/>
<path d="M212.589 9.87682C212.589 12.8648 207.225 13.7648 205.749 13.2968C205.857 12.7208 205.893 12.2168 205.893 11.7848C205.893 9.84082 205.317 8.04082 204.489 8.04082C203.553 8.04082 202.941 9.91282 202.797 11.9648C202.437 16.6088 204.597 18.2288 206.937 18.2288C208.305 18.2288 209.709 17.6888 210.825 16.8968C211.761 16.2128 212.589 16.8608 212.589 17.6528C212.589 21.3608 208.809 24.1328 204.561 24.1328C199.485 24.1328 195.309 21.1088 195.309 14.8448C195.309 8.58082 199.845 5.59282 204.921 5.59282C209.133 5.59282 212.589 7.06882 212.589 9.87682ZM212.157 9.87682C212.157 7.35682 208.917 6.02482 204.921 6.02482C200.061 6.02482 195.741 8.86882 195.741 14.8448C195.741 20.8208 199.701 23.7008 204.561 23.7008C208.593 23.7008 212.157 21.1448 212.157 17.6528C212.157 17.2208 211.653 16.8608 211.077 17.2568H211.113C209.925 18.1208 208.413 18.6608 206.937 18.6608C204.381 18.6608 202.077 16.7528 202.365 11.9648C202.509 9.73282 203.301 7.60882 204.489 7.60882C205.533 7.60882 206.325 9.62482 206.325 11.7848C206.325 12.1808 206.289 12.6128 206.253 12.9728C207.729 13.2608 212.157 12.4328 212.157 9.87682Z" stroke="#BBBBB8"/>
<path d="M232.274 22.6568C232.526 23.0528 232.454 23.7728 231.77 23.7728H225.434C224.858 23.7728 224.75 23.0528 224.966 22.6568C225.11 22.4048 225.362 21.6848 225.362 20.6408V13.1528C225.362 11.3528 224.354 10.7408 223.202 10.7408C222.374 10.7408 221.51 11.0288 220.862 11.4248V20.6408C220.862 21.6848 221.114 22.4048 221.294 22.6568C221.51 23.0528 221.438 23.7728 220.79 23.7728H214.454C213.806 23.7728 213.734 23.0528 213.95 22.6568C214.13 22.4048 214.382 21.6848 214.382 20.6408V5.30482C214.382 4.29682 213.95 3.57682 213.77 3.32482V3.36082C213.482 3.00082 213.518 2.24482 214.274 2.06482L220.502 0.984818C221.186 0.87682 221.51 1.27282 221.402 1.84882L221.222 2.49682C221.042 3.03682 220.862 3.82882 220.862 5.08882V9.51682C221.906 7.86082 224.138 5.95282 226.658 5.95282C229.718 5.95282 231.842 8.22082 231.842 11.5328V20.6408C231.842 21.7208 232.13 22.4408 232.274 22.6568ZM231.914 22.8728C231.77 22.6208 231.41 21.8288 231.41 20.6408V11.5328C231.41 8.50882 229.43 6.38482 226.658 6.38482C223.886 6.38482 221.474 8.90482 220.826 10.5968L220.43 10.5248V5.08882C220.43 3.82882 220.646 2.85682 220.826 2.28082L220.97 1.77682C221.006 1.52482 220.898 1.34482 220.574 1.41682L214.346 2.49682C214.094 2.56882 213.914 2.78482 213.986 2.89282C214.202 3.21682 214.814 4.15282 214.814 5.30482V20.6408C214.814 21.7208 214.49 22.5488 214.31 22.8728C214.238 23.0528 214.238 23.3408 214.454 23.3408H220.79C221.006 23.3408 221.006 23.0528 220.934 22.8728C220.754 22.5488 220.43 21.7208 220.43 20.6408V11.2088C221.222 10.6688 222.266 10.3088 223.202 10.3088C224.57 10.3088 225.794 11.0648 225.794 13.1528V20.6408C225.794 21.7928 225.47 22.5848 225.326 22.8728C225.218 23.0528 225.218 23.3408 225.434 23.3408H231.77C232.022 23.3408 232.022 23.0528 231.914 22.8728Z" stroke="#BBBBB8"/>
</svg>
