<svg width="413" height="44" viewBox="0 0 413 44" fill="none" xmlns="http://www.w3.org/2000/svg">
<path d="M38.632 4.23201L38.376 4.616C37.928 5.32001 37.16 6.664 37.16 9.22401V34.952C37.16 37.768 38.12 39.112 38.568 39.752L38.632 39.944C39.08 40.648 38.888 41.928 37.8 41.928H28.776C26.92 41.928 25.32 40.712 25 38.664C22.824 40.648 19.88 41.928 16.36 41.928C8.48797 41.928 2.27997 37.768 2.27997 27.784V9.22401C2.27997 6.53601 1.51197 5.12801 1.06397 4.55201C0.999966 4.48801 0.871966 4.296 0.871966 4.23201C0.423966 3.52801 0.615966 2.248 1.70397 2.248H15.144C16.232 2.248 16.424 3.52801 15.976 4.23201L15.72 4.616C15.272 5.192 14.568 6.53601 14.568 9.22401V27.784C14.568 32.776 15.656 37 18.856 37C21.672 37 24.936 34.056 24.936 29V9.22401C24.936 6.34401 23.976 5.00001 23.528 4.36L23.4 4.04L23.464 4.23201C23.08 3.52801 23.08 2.248 24.36 2.248H37.8C38.824 2.248 39.016 3.52801 38.632 4.23201ZM38.056 3.784L37.992 3.84801C38.184 3.52801 38.184 3.01601 37.8 3.01601H24.36C23.912 3.01601 23.976 3.65601 24.168 3.97601L24.296 4.23201L24.232 4.04C24.68 4.74401 25.704 6.152 25.704 9.22401V29C25.704 34.568 22.056 37.768 18.856 37.768C15.016 37.768 13.8 33.16 13.8 27.784V9.22401C13.8 6.21601 14.696 4.80801 15.144 4.16801L15.4 3.784L15.336 3.84801C15.528 3.52801 15.528 3.01601 15.144 3.01601H1.70397C1.38397 3.01601 1.38397 3.52801 1.51197 3.84801L1.70397 4.16801C2.15197 4.80801 3.04797 6.21601 3.04797 9.22401V27.784C3.04797 37.256 8.87197 41.16 16.36 41.16C20.072 41.16 23.208 39.56 25.704 37C25.704 39.432 27.112 41.16 28.776 41.16H37.8C38.184 41.16 38.12 40.52 37.928 40.2L37.8 39.88L37.864 40.072C37.416 39.368 36.392 37.96 36.392 34.952V9.22401C36.392 6.28001 37.352 4.80801 37.8 4.16801L38.056 3.784Z" fill="#CBCAC7"/>
<path d="M69.4785 17.16C69.4785 20.68 66.4705 21.64 63.4625 21.64C61.6705 21.64 59.7505 21.256 58.4065 20.808C59.1745 17.16 56.6785 13.96 54.5025 13.96C52.9665 13.96 51.8785 14.728 51.8785 16.52C51.8785 18.504 55.1425 20.168 58.7265 21.96C63.7185 24.52 69.4785 27.336 69.4785 32.52C69.4785 38.28 62.6945 42.568 55.0785 42.568C48.7425 42.568 41.6385 41.288 40.7425 37.32C40.2305 33.8 45.0945 29.896 49.4465 30.152C51.3025 30.216 51.6865 30.92 51.6865 32.264C51.6865 34.76 53.9265 38.216 55.6545 38.216C57.1905 38.216 58.3425 37.448 58.3425 35.656C58.3425 33.864 54.9505 32.072 51.6225 30.408C46.9505 28.04 40.7425 24.456 40.7425 19.656C40.7425 14.088 46.9505 9.608 56.8705 9.608C64.3585 9.608 69.4785 12.68 69.4785 17.16ZM68.7105 17.16C68.7105 13.192 63.8465 10.376 56.8705 10.376C47.4625 10.376 41.5105 14.472 41.5105 19.656C41.5105 24.456 47.1425 27.4 52.0065 29.768C55.8465 31.688 59.1105 33.352 59.1105 35.656C59.1105 37.96 57.5745 38.984 55.6545 38.984C53.5425 38.984 50.9185 35.144 50.9185 32.264C50.9185 31.432 50.6625 30.984 49.4465 30.92C45.4145 30.664 40.8705 34.056 41.5105 37.192C42.1505 40.776 48.9345 41.8 55.0785 41.8C62.3105 41.8 68.7105 37.896 68.7105 32.52C68.7105 27.848 63.1425 25.032 58.3425 22.6C54.6305 20.744 51.1105 18.888 51.1105 16.52C51.1105 14.216 52.5825 13.192 54.5025 13.192C56.9345 13.192 59.8145 16.52 59.3025 20.296C60.3905 20.616 61.9905 20.872 63.4625 20.872C66.0865 20.872 68.7105 20.04 68.7105 17.16Z" fill="#CBCAC7"/>
<path d="M101.773 20.04C101.773 22.408 100.877 24.392 97.1655 25.032L84.4295 27.272C85.6455 30.984 88.3335 32.136 91.1495 32.136C94.0935 32.136 97.1015 30.856 98.6375 29.704C100.173 28.616 101.773 29.64 101.773 31.048C101.773 38.472 94.1575 42.568 87.3735 42.568C78.4135 42.568 71.0535 37.192 71.0535 26.056C71.0535 14.92 78.4135 9.608 87.3735 9.608C97.2295 9.608 101.773 15.496 101.773 20.04ZM101.005 20.04C101.005 15.88 96.7175 10.376 87.3735 10.376C78.7975 10.376 71.8215 15.432 71.8215 26.056C71.8215 36.68 78.7975 41.8 87.3735 41.8C93.7735 41.8 101.005 37.96 101.005 31.048C101.005 30.344 99.9815 29.96 99.1495 30.344C97.5495 31.496 94.2855 32.904 91.1495 32.904C87.8855 32.904 84.7495 31.368 83.4055 26.632L97.0375 24.264C100.045 23.624 101.005 21.96 101.005 20.04ZM89.6135 22.728C88.2695 22.984 83.0215 23.88 83.0215 23.88C82.8935 22.984 82.8935 22.472 82.8935 22.024C82.8935 17.352 84.9415 13.192 86.9895 13.192C88.9735 13.192 90.5095 16.072 91.5335 19.272C91.5335 19.336 91.5975 19.4 91.5975 19.464C91.9175 20.488 92.3655 22.216 89.6135 22.728ZM89.4855 21.96C91.4055 21.576 91.0215 20.36 90.8295 19.72C90.8295 19.656 90.7655 19.656 90.7655 19.528C89.8695 16.584 88.5255 13.96 86.9895 13.96C85.3255 13.96 83.6615 17.736 83.6615 22.024C83.6615 22.472 83.5975 22.536 83.6615 22.984L89.4855 21.96Z" fill="#CBCAC7"/>
<path d="M126.913 10.248C131.457 10.248 134.081 12.424 134.081 15.56C134.081 20.424 127.489 23.432 123.457 23.432C123.457 20.488 121.473 18.504 119.361 18.504C118.401 18.504 117.313 19.016 116.481 19.976V36.36C116.481 38.216 116.929 39.496 117.249 39.944C117.633 40.648 117.505 41.928 116.353 41.928H105.089C103.937 41.928 103.809 40.648 104.193 39.944C104.513 39.496 104.961 38.216 104.961 36.36V17.928C104.961 16.2 104.193 14.92 103.873 14.472V14.536C103.361 13.832 103.297 12.488 104.769 12.168L115.841 10.248C117.185 10.056 117.633 10.696 117.441 11.784L117.121 12.936C116.865 13.768 116.545 14.856 116.481 16.456C118.017 13.96 121.857 10.248 126.913 10.248ZM126.913 11.016C120.897 11.016 116.865 16.52 116.481 18.376L115.713 18.312V17.544C115.713 15.304 116.097 13.576 116.417 12.552L116.673 11.656C116.737 11.272 116.417 11.016 115.969 11.016L104.897 12.936C104.257 13.128 104.257 13.768 104.513 14.088C104.833 14.6 105.729 16.008 105.729 17.928V36.36C105.729 38.28 105.153 39.752 104.833 40.328C104.705 40.648 104.705 41.16 105.089 41.16H116.353C116.737 41.16 116.737 40.648 116.609 40.328C116.289 39.752 115.713 38.28 115.713 36.36V19.592C116.801 18.312 118.081 17.736 119.361 17.736C121.793 17.736 124.097 19.592 124.225 22.664C127.809 22.472 133.313 19.784 133.313 15.56C133.313 12.936 130.945 11.016 126.913 11.016Z" fill="#CBCAC7"/>
<path d="M183.529 34.824C184.553 37.64 185.705 38.728 186.281 39.304L186.601 39.624C187.177 40.328 187.561 41.928 185.705 41.928H171.689C170.601 41.928 170.153 40.904 170.345 40.2L170.537 39.304C170.793 38.344 171.113 37.32 171.113 34.248C171.113 31.944 169.385 26.568 166.505 24.52V34.952C166.505 37.576 167.273 39.048 167.721 39.688C167.849 39.816 167.977 39.944 167.977 40.072C168.361 40.776 168.105 41.928 167.081 41.928H153.641C152.553 41.928 152.361 40.648 152.809 39.944L152.745 40.136C152.745 40.264 152.937 39.816 153.001 39.688C153.449 39.048 154.217 37.576 154.217 34.952V9.22401C154.217 6.53601 153.449 5.12801 153.001 4.55201C152.937 4.48801 152.809 4.296 152.809 4.23201C152.361 3.52801 152.553 2.248 153.641 2.248H158.953C161.321 2.248 164.201 2.18401 166.889 2.05601C169.321 1.992 171.625 1.86401 173.353 1.86401C180.649 1.86401 185.641 6.024 185.641 12.168C185.641 19.4 178.217 21.384 171.689 22.856C171.049 23.048 171.881 22.856 171.113 23.048C174.505 23.88 180.265 25.992 182.121 31.048L183.529 34.824ZM182.761 35.08L181.353 31.304C179.305 25.16 171.241 23.752 169.001 23.432V22.728L171.561 22.088C178.217 20.552 184.873 19.208 184.873 12.168C184.873 6.53601 180.137 2.632 173.353 2.632C171.625 2.632 169.321 2.76001 166.889 2.824C164.329 2.95201 161.193 3.01601 158.953 3.01601H153.641C153.321 3.01601 153.321 3.52801 153.449 3.84801L153.641 4.16801C154.089 4.80801 154.985 6.21601 154.985 9.22401V34.952C154.985 38.024 153.961 39.496 153.577 40.136L153.513 40.2C153.321 40.52 153.257 41.16 153.641 41.16H167.081C167.465 41.16 167.401 40.52 167.209 40.2C167.209 40.2 167.145 40.2 167.145 40.136C166.761 39.56 165.737 38.088 165.737 34.952V23.176C169.705 24.968 171.881 31.624 171.881 34.248C171.881 37.448 171.561 38.472 171.305 39.432L171.113 40.328C171.049 40.648 171.241 41.16 171.689 41.16H185.705C186.473 41.16 186.281 40.456 186.025 40.136H186.089L185.769 39.816C185.065 39.112 183.785 37.896 182.761 35.08ZM165.737 5.512H167.081C171.177 5.512 172.329 8.2 172.329 12.04C172.329 15.88 168.937 19.656 165.737 20.872V5.512ZM166.505 6.28001V19.72C169.065 18.504 171.561 15.368 171.561 12.04C171.561 8.712 170.537 6.28001 167.081 6.28001H166.505Z" fill="#CBCAC7"/>
<path d="M216.461 20.04C216.461 22.408 215.565 24.392 211.853 25.032L199.117 27.272C200.333 30.984 203.021 32.136 205.837 32.136C208.781 32.136 211.789 30.856 213.325 29.704C214.861 28.616 216.461 29.64 216.461 31.048C216.461 38.472 208.845 42.568 202.061 42.568C193.101 42.568 185.741 37.192 185.741 26.056C185.741 14.92 193.101 9.608 202.061 9.608C211.917 9.608 216.461 15.496 216.461 20.04ZM215.693 20.04C215.693 15.88 211.405 10.376 202.061 10.376C193.485 10.376 186.509 15.432 186.509 26.056C186.509 36.68 193.485 41.8 202.061 41.8C208.461 41.8 215.693 37.96 215.693 31.048C215.693 30.344 214.669 29.96 213.837 30.344C212.237 31.496 208.973 32.904 205.837 32.904C202.573 32.904 199.437 31.368 198.093 26.632L211.725 24.264C214.733 23.624 215.693 21.96 215.693 20.04ZM204.301 22.728C202.957 22.984 197.709 23.88 197.709 23.88C197.581 22.984 197.581 22.472 197.581 22.024C197.581 17.352 199.629 13.192 201.677 13.192C203.661 13.192 205.197 16.072 206.221 19.272C206.221 19.336 206.285 19.4 206.285 19.464C206.605 20.488 207.053 22.216 204.301 22.728ZM204.173 21.96C206.093 21.576 205.709 20.36 205.517 19.72C205.517 19.656 205.453 19.656 205.453 19.528C204.557 16.584 203.213 13.96 201.677 13.96C200.013 13.96 198.349 17.736 198.349 22.024C198.349 22.472 198.285 22.536 198.349 22.984L204.173 21.96Z" fill="#CBCAC7"/>
<path d="M247.041 17.16C247.041 20.68 244.033 21.64 241.025 21.64C239.233 21.64 237.313 21.256 235.969 20.808C236.737 17.16 234.241 13.96 232.065 13.96C230.529 13.96 229.441 14.728 229.441 16.52C229.441 18.504 232.705 20.168 236.289 21.96C241.281 24.52 247.041 27.336 247.041 32.52C247.041 38.28 240.257 42.568 232.641 42.568C226.305 42.568 219.201 41.288 218.305 37.32C217.793 33.8 222.657 29.896 227.009 30.152C228.865 30.216 229.249 30.92 229.249 32.264C229.249 34.76 231.489 38.216 233.217 38.216C234.753 38.216 235.905 37.448 235.905 35.656C235.905 33.864 232.513 32.072 229.185 30.408C224.513 28.04 218.305 24.456 218.305 19.656C218.305 14.088 224.513 9.608 234.433 9.608C241.921 9.608 247.041 12.68 247.041 17.16ZM246.273 17.16C246.273 13.192 241.409 10.376 234.433 10.376C225.025 10.376 219.073 14.472 219.073 19.656C219.073 24.456 224.705 27.4 229.569 29.768C233.409 31.688 236.673 33.352 236.673 35.656C236.673 37.96 235.137 38.984 233.217 38.984C231.105 38.984 228.481 35.144 228.481 32.264C228.481 31.432 228.225 30.984 227.009 30.92C222.977 30.664 218.433 34.056 219.073 37.192C219.713 40.776 226.497 41.8 232.641 41.8C239.873 41.8 246.273 37.896 246.273 32.52C246.273 27.848 240.705 25.032 235.905 22.6C232.193 20.744 228.673 18.888 228.673 16.52C228.673 14.216 230.145 13.192 232.065 13.192C234.497 13.192 237.377 16.52 236.865 20.296C237.953 20.616 239.553 20.872 241.025 20.872C243.649 20.872 246.273 20.04 246.273 17.16Z" fill="#CBCAC7"/>
<path d="M279.336 20.04C279.336 22.408 278.44 24.392 274.728 25.032L261.992 27.272C263.208 30.984 265.896 32.136 268.712 32.136C271.656 32.136 274.664 30.856 276.2 29.704C277.736 28.616 279.336 29.64 279.336 31.048C279.336 38.472 271.72 42.568 264.936 42.568C255.976 42.568 248.616 37.192 248.616 26.056C248.616 14.92 255.976 9.608 264.936 9.608C274.792 9.608 279.336 15.496 279.336 20.04ZM278.568 20.04C278.568 15.88 274.28 10.376 264.936 10.376C256.36 10.376 249.384 15.432 249.384 26.056C249.384 36.68 256.36 41.8 264.936 41.8C271.336 41.8 278.568 37.96 278.568 31.048C278.568 30.344 277.544 29.96 276.712 30.344C275.112 31.496 271.848 32.904 268.712 32.904C265.448 32.904 262.312 31.368 260.968 26.632L274.6 24.264C277.608 23.624 278.568 21.96 278.568 20.04ZM267.176 22.728C265.832 22.984 260.584 23.88 260.584 23.88C260.456 22.984 260.456 22.472 260.456 22.024C260.456 17.352 262.504 13.192 264.552 13.192C266.536 13.192 268.072 16.072 269.096 19.272C269.096 19.336 269.16 19.4 269.16 19.464C269.48 20.488 269.928 22.216 267.176 22.728ZM267.048 21.96C268.968 21.576 268.584 20.36 268.392 19.72C268.392 19.656 268.328 19.656 268.328 19.528C267.432 16.584 266.088 13.96 264.552 13.96C262.888 13.96 261.224 17.736 261.224 22.024C261.224 22.472 261.16 22.536 261.224 22.984L267.048 21.96Z" fill="#CBCAC7"/>
<path d="M311.644 34.568H311.708C312.988 34.824 313.244 35.08 313.244 36.232C313.18 38.344 310.94 41.928 306.012 41.928C302.492 41.928 299.676 40.52 299.036 37.576C297.564 39.88 295.388 41.928 291.164 41.928C286.3 41.928 281.116 39.368 281.116 33.352C281.116 27.464 288.988 24.072 294.94 24.072C296.54 24.072 297.82 24.264 298.972 24.776V22.408C298.972 19.336 297.82 14.6 295.388 14.6C293.66 14.6 293.148 16.136 293.148 17.864C293.148 20.168 294.172 23.304 294.172 23.304C294.172 23.304 290.844 24.136 287.964 24.136C285.532 24.136 283.1 23.56 281.884 21.832C281.372 21.064 281.116 20.104 281.116 19.336C281.116 14.792 288.284 10.248 296.156 10.248C304.86 10.248 310.492 14.472 310.492 21.384V32.008C310.492 33.672 311.004 34.504 311.644 34.568ZM311.58 35.336C310.556 35.208 309.724 34.056 309.724 32.008V21.384C309.724 14.984 304.348 11.016 296.156 11.016C288.668 11.016 281.884 15.176 281.884 19.336C281.884 20.04 282.076 20.744 282.524 21.448C283.548 22.92 285.788 23.368 287.964 23.368C290.204 23.368 293.148 22.792 293.148 22.792C292.892 21.96 292.38 19.912 292.38 17.864C292.38 15.752 293.02 13.832 295.388 13.832C298.332 13.832 299.74 19.08 299.74 22.408V25.992C298.268 25.224 296.604 24.84 294.94 24.84C289.372 24.84 281.884 27.976 281.884 33.352C281.884 38.856 286.684 41.16 291.164 41.16C295.452 41.16 298.076 38.472 299.676 35.656C299.74 39.688 302.428 41.16 306.012 41.16C310.428 41.16 312.412 38.088 312.476 36.232C312.476 35.592 312.348 35.528 311.58 35.336ZM299.74 34.952C298.652 35.528 292.572 35.656 292.572 31.752C292.572 27.336 297.372 26.632 299.74 26.632V34.952ZM298.972 34.376V27.4C296.924 27.464 293.34 28.104 293.34 31.752C293.34 34.888 298.076 34.632 298.972 34.376Z" fill="#CBCAC7"/>
<path d="M338.538 10.248C343.082 10.248 345.706 12.424 345.706 15.56C345.706 20.424 339.114 23.432 335.082 23.432C335.082 20.488 333.098 18.504 330.986 18.504C330.026 18.504 328.938 19.016 328.106 19.976V36.36C328.106 38.216 328.554 39.496 328.874 39.944C329.258 40.648 329.13 41.928 327.978 41.928H316.714C315.562 41.928 315.434 40.648 315.818 39.944C316.138 39.496 316.586 38.216 316.586 36.36V17.928C316.586 16.2 315.818 14.92 315.498 14.472V14.536C314.986 13.832 314.922 12.488 316.394 12.168L327.466 10.248C328.81 10.056 329.258 10.696 329.066 11.784L328.746 12.936C328.49 13.768 328.17 14.856 328.106 16.456C329.642 13.96 333.482 10.248 338.538 10.248ZM338.538 11.016C332.522 11.016 328.49 16.52 328.106 18.376L327.338 18.312V17.544C327.338 15.304 327.722 13.576 328.042 12.552L328.298 11.656C328.362 11.272 328.042 11.016 327.594 11.016L316.522 12.936C315.882 13.128 315.882 13.768 316.138 14.088C316.458 14.6 317.354 16.008 317.354 17.928V36.36C317.354 38.28 316.778 39.752 316.458 40.328C316.33 40.648 316.33 41.16 316.714 41.16H327.978C328.362 41.16 328.362 40.648 328.234 40.328C327.914 39.752 327.338 38.28 327.338 36.36V19.592C328.426 18.312 329.706 17.736 330.986 17.736C333.418 17.736 335.722 19.592 335.85 22.664C339.434 22.472 344.938 19.784 344.938 15.56C344.938 12.936 342.57 11.016 338.538 11.016Z" fill="#CBCAC7"/>
<path d="M376.961 17.224C376.961 22.536 367.425 24.136 364.801 23.304C364.993 22.28 365.057 21.384 365.057 20.616C365.057 17.16 364.033 13.96 362.561 13.96C360.897 13.96 359.809 17.288 359.553 20.936C358.913 29.192 362.753 32.072 366.913 32.072C369.345 32.072 371.841 31.112 373.825 29.704C375.489 28.488 376.961 29.64 376.961 31.048C376.961 37.64 370.241 42.568 362.689 42.568C353.665 42.568 346.241 37.192 346.241 26.056C346.241 14.92 354.305 9.608 363.329 9.608C370.817 9.608 376.961 12.232 376.961 17.224ZM376.193 17.224C376.193 12.744 370.433 10.376 363.329 10.376C354.689 10.376 347.009 15.432 347.009 26.056C347.009 36.68 354.049 41.8 362.689 41.8C369.857 41.8 376.193 37.256 376.193 31.048C376.193 30.28 375.297 29.64 374.273 30.344H374.337C372.225 31.88 369.537 32.84 366.913 32.84C362.369 32.84 358.273 29.448 358.785 20.936C359.041 16.968 360.449 13.192 362.561 13.192C364.417 13.192 365.825 16.776 365.825 20.616C365.825 21.32 365.761 22.088 365.697 22.728C368.321 23.24 376.193 21.768 376.193 17.224Z" fill="#CBCAC7"/>
<path d="M411.957 39.944C412.405 40.648 412.277 41.928 411.061 41.928H399.797C398.773 41.928 398.581 40.648 398.965 39.944C399.221 39.496 399.669 38.216 399.669 36.36V23.048C399.669 19.848 397.877 18.76 395.829 18.76C394.357 18.76 392.821 19.272 391.669 19.976V36.36C391.669 38.216 392.117 39.496 392.437 39.944C392.821 40.648 392.693 41.928 391.541 41.928H380.277C379.125 41.928 378.997 40.648 379.381 39.944C379.701 39.496 380.149 38.216 380.149 36.36V9.096C380.149 7.304 379.381 6.02401 379.061 5.576V5.64001C378.549 5.00001 378.613 3.65601 379.957 3.33601L391.029 1.416C392.245 1.22401 392.821 1.928 392.629 2.95201L392.309 4.104C391.989 5.06401 391.669 6.472 391.669 8.71201V16.584C393.525 13.64 397.493 10.248 401.973 10.248C407.413 10.248 411.189 14.28 411.189 20.168V36.36C411.189 38.28 411.701 39.56 411.957 39.944ZM411.317 40.328C411.061 39.88 410.421 38.472 410.421 36.36V20.168C410.421 14.792 406.901 11.016 401.973 11.016C397.045 11.016 392.757 15.496 391.605 18.504L390.901 18.376V8.71201C390.901 6.472 391.285 4.74401 391.605 3.72L391.861 2.824C391.925 2.37601 391.733 2.05601 391.157 2.18401L380.085 4.104C379.637 4.23201 379.317 4.616 379.445 4.80801C379.829 5.38401 380.917 7.048 380.917 9.096V36.36C380.917 38.28 380.341 39.752 380.021 40.328C379.893 40.648 379.893 41.16 380.277 41.16H391.541C391.925 41.16 391.925 40.648 391.797 40.328C391.477 39.752 390.901 38.28 390.901 36.36V19.592C392.309 18.632 394.165 17.992 395.829 17.992C398.261 17.992 400.437 19.336 400.437 23.048V36.36C400.437 38.408 399.861 39.816 399.605 40.328C399.413 40.648 399.413 41.16 399.797 41.16H411.061C411.509 41.16 411.509 40.648 411.317 40.328Z" fill="#CBCAC7"/>
<path d="M38.632 4.23201L38.376 4.616C37.928 5.32001 37.16 6.664 37.16 9.22401V34.952C37.16 37.768 38.12 39.112 38.568 39.752L38.632 39.944C39.08 40.648 38.888 41.928 37.8 41.928H28.776C26.92 41.928 25.32 40.712 25 38.664C22.824 40.648 19.88 41.928 16.36 41.928C8.48797 41.928 2.27997 37.768 2.27997 27.784V9.22401C2.27997 6.53601 1.51197 5.12801 1.06397 4.55201C0.999966 4.48801 0.871966 4.296 0.871966 4.23201C0.423966 3.52801 0.615966 2.248 1.70397 2.248H15.144C16.232 2.248 16.424 3.52801 15.976 4.23201L15.72 4.616C15.272 5.192 14.568 6.53601 14.568 9.22401V27.784C14.568 32.776 15.656 37 18.856 37C21.672 37 24.936 34.056 24.936 29V9.22401C24.936 6.34401 23.976 5.00001 23.528 4.36L23.4 4.04L23.464 4.23201C23.08 3.52801 23.08 2.248 24.36 2.248H37.8C38.824 2.248 39.016 3.52801 38.632 4.23201ZM38.056 3.784L37.992 3.84801C38.184 3.52801 38.184 3.01601 37.8 3.01601H24.36C23.912 3.01601 23.976 3.65601 24.168 3.97601L24.296 4.23201L24.232 4.04C24.68 4.74401 25.704 6.152 25.704 9.22401V29C25.704 34.568 22.056 37.768 18.856 37.768C15.016 37.768 13.8 33.16 13.8 27.784V9.22401C13.8 6.21601 14.696 4.80801 15.144 4.16801L15.4 3.784L15.336 3.84801C15.528 3.52801 15.528 3.01601 15.144 3.01601H1.70397C1.38397 3.01601 1.38397 3.52801 1.51197 3.84801L1.70397 4.16801C2.15197 4.80801 3.04797 6.21601 3.04797 9.22401V27.784C3.04797 37.256 8.87197 41.16 16.36 41.16C20.072 41.16 23.208 39.56 25.704 37C25.704 39.432 27.112 41.16 28.776 41.16H37.8C38.184 41.16 38.12 40.52 37.928 40.2L37.8 39.88L37.864 40.072C37.416 39.368 36.392 37.96 36.392 34.952V9.22401C36.392 6.28001 37.352 4.80801 37.8 4.16801L38.056 3.784Z" stroke="#CBCAC7"/>
<path d="M69.4785 17.16C69.4785 20.68 66.4705 21.64 63.4625 21.64C61.6705 21.64 59.7505 21.256 58.4065 20.808C59.1745 17.16 56.6785 13.96 54.5025 13.96C52.9665 13.96 51.8785 14.728 51.8785 16.52C51.8785 18.504 55.1425 20.168 58.7265 21.96C63.7185 24.52 69.4785 27.336 69.4785 32.52C69.4785 38.28 62.6945 42.568 55.0785 42.568C48.7425 42.568 41.6385 41.288 40.7425 37.32C40.2305 33.8 45.0945 29.896 49.4465 30.152C51.3025 30.216 51.6865 30.92 51.6865 32.264C51.6865 34.76 53.9265 38.216 55.6545 38.216C57.1905 38.216 58.3425 37.448 58.3425 35.656C58.3425 33.864 54.9505 32.072 51.6225 30.408C46.9505 28.04 40.7425 24.456 40.7425 19.656C40.7425 14.088 46.9505 9.608 56.8705 9.608C64.3585 9.608 69.4785 12.68 69.4785 17.16ZM68.7105 17.16C68.7105 13.192 63.8465 10.376 56.8705 10.376C47.4625 10.376 41.5105 14.472 41.5105 19.656C41.5105 24.456 47.1425 27.4 52.0065 29.768C55.8465 31.688 59.1105 33.352 59.1105 35.656C59.1105 37.96 57.5745 38.984 55.6545 38.984C53.5425 38.984 50.9185 35.144 50.9185 32.264C50.9185 31.432 50.6625 30.984 49.4465 30.92C45.4145 30.664 40.8705 34.056 41.5105 37.192C42.1505 40.776 48.9345 41.8 55.0785 41.8C62.3105 41.8 68.7105 37.896 68.7105 32.52C68.7105 27.848 63.1425 25.032 58.3425 22.6C54.6305 20.744 51.1105 18.888 51.1105 16.52C51.1105 14.216 52.5825 13.192 54.5025 13.192C56.9345 13.192 59.8145 16.52 59.3025 20.296C60.3905 20.616 61.9905 20.872 63.4625 20.872C66.0865 20.872 68.7105 20.04 68.7105 17.16Z" stroke="#CBCAC7"/>
<path d="M101.773 20.04C101.773 22.408 100.877 24.392 97.1655 25.032L84.4295 27.272C85.6455 30.984 88.3335 32.136 91.1495 32.136C94.0935 32.136 97.1015 30.856 98.6375 29.704C100.173 28.616 101.773 29.64 101.773 31.048C101.773 38.472 94.1575 42.568 87.3735 42.568C78.4135 42.568 71.0535 37.192 71.0535 26.056C71.0535 14.92 78.4135 9.608 87.3735 9.608C97.2295 9.608 101.773 15.496 101.773 20.04ZM101.005 20.04C101.005 15.88 96.7175 10.376 87.3735 10.376C78.7975 10.376 71.8215 15.432 71.8215 26.056C71.8215 36.68 78.7975 41.8 87.3735 41.8C93.7735 41.8 101.005 37.96 101.005 31.048C101.005 30.344 99.9815 29.96 99.1495 30.344C97.5495 31.496 94.2855 32.904 91.1495 32.904C87.8855 32.904 84.7495 31.368 83.4055 26.632L97.0375 24.264C100.045 23.624 101.005 21.96 101.005 20.04ZM89.6135 22.728C88.2695 22.984 83.0215 23.88 83.0215 23.88C82.8935 22.984 82.8935 22.472 82.8935 22.024C82.8935 17.352 84.9415 13.192 86.9895 13.192C88.9735 13.192 90.5095 16.072 91.5335 19.272C91.5335 19.336 91.5975 19.4 91.5975 19.464C91.9175 20.488 92.3655 22.216 89.6135 22.728ZM89.4855 21.96C91.4055 21.576 91.0215 20.36 90.8295 19.72C90.8295 19.656 90.7655 19.656 90.7655 19.528C89.8695 16.584 88.5255 13.96 86.9895 13.96C85.3255 13.96 83.6615 17.736 83.6615 22.024C83.6615 22.472 83.5975 22.536 83.6615 22.984L89.4855 21.96Z" stroke="#CBCAC7"/>
<path d="M126.913 10.248C131.457 10.248 134.081 12.424 134.081 15.56C134.081 20.424 127.489 23.432 123.457 23.432C123.457 20.488 121.473 18.504 119.361 18.504C118.401 18.504 117.313 19.016 116.481 19.976V36.36C116.481 38.216 116.929 39.496 117.249 39.944C117.633 40.648 117.505 41.928 116.353 41.928H105.089C103.937 41.928 103.809 40.648 104.193 39.944C104.513 39.496 104.961 38.216 104.961 36.36V17.928C104.961 16.2 104.193 14.92 103.873 14.472V14.536C103.361 13.832 103.297 12.488 104.769 12.168L115.841 10.248C117.185 10.056 117.633 10.696 117.441 11.784L117.121 12.936C116.865 13.768 116.545 14.856 116.481 16.456C118.017 13.96 121.857 10.248 126.913 10.248ZM126.913 11.016C120.897 11.016 116.865 16.52 116.481 18.376L115.713 18.312V17.544C115.713 15.304 116.097 13.576 116.417 12.552L116.673 11.656C116.737 11.272 116.417 11.016 115.969 11.016L104.897 12.936C104.257 13.128 104.257 13.768 104.513 14.088C104.833 14.6 105.729 16.008 105.729 17.928V36.36C105.729 38.28 105.153 39.752 104.833 40.328C104.705 40.648 104.705 41.16 105.089 41.16H116.353C116.737 41.16 116.737 40.648 116.609 40.328C116.289 39.752 115.713 38.28 115.713 36.36V19.592C116.801 18.312 118.081 17.736 119.361 17.736C121.793 17.736 124.097 19.592 124.225 22.664C127.809 22.472 133.313 19.784 133.313 15.56C133.313 12.936 130.945 11.016 126.913 11.016Z" stroke="#CBCAC7"/>
<path d="M183.529 34.824C184.553 37.64 185.705 38.728 186.281 39.304L186.601 39.624C187.177 40.328 187.561 41.928 185.705 41.928H171.689C170.601 41.928 170.153 40.904 170.345 40.2L170.537 39.304C170.793 38.344 171.113 37.32 171.113 34.248C171.113 31.944 169.385 26.568 166.505 24.52V34.952C166.505 37.576 167.273 39.048 167.721 39.688C167.849 39.816 167.977 39.944 167.977 40.072C168.361 40.776 168.105 41.928 167.081 41.928H153.641C152.553 41.928 152.361 40.648 152.809 39.944L152.745 40.136C152.745 40.264 152.937 39.816 153.001 39.688C153.449 39.048 154.217 37.576 154.217 34.952V9.22401C154.217 6.53601 153.449 5.12801 153.001 4.55201C152.937 4.48801 152.809 4.296 152.809 4.23201C152.361 3.52801 152.553 2.248 153.641 2.248H158.953C161.321 2.248 164.201 2.18401 166.889 2.05601C169.321 1.992 171.625 1.86401 173.353 1.86401C180.649 1.86401 185.641 6.024 185.641 12.168C185.641 19.4 178.217 21.384 171.689 22.856C171.049 23.048 171.881 22.856 171.113 23.048C174.505 23.88 180.265 25.992 182.121 31.048L183.529 34.824ZM182.761 35.08L181.353 31.304C179.305 25.16 171.241 23.752 169.001 23.432V22.728L171.561 22.088C178.217 20.552 184.873 19.208 184.873 12.168C184.873 6.53601 180.137 2.632 173.353 2.632C171.625 2.632 169.321 2.76001 166.889 2.824C164.329 2.95201 161.193 3.01601 158.953 3.01601H153.641C153.321 3.01601 153.321 3.52801 153.449 3.84801L153.641 4.16801C154.089 4.80801 154.985 6.21601 154.985 9.22401V34.952C154.985 38.024 153.961 39.496 153.577 40.136L153.513 40.2C153.321 40.52 153.257 41.16 153.641 41.16H167.081C167.465 41.16 167.401 40.52 167.209 40.2C167.209 40.2 167.145 40.2 167.145 40.136C166.761 39.56 165.737 38.088 165.737 34.952V23.176C169.705 24.968 171.881 31.624 171.881 34.248C171.881 37.448 171.561 38.472 171.305 39.432L171.113 40.328C171.049 40.648 171.241 41.16 171.689 41.16H185.705C186.473 41.16 186.281 40.456 186.025 40.136H186.089L185.769 39.816C185.065 39.112 183.785 37.896 182.761 35.08ZM165.737 5.512H167.081C171.177 5.512 172.329 8.2 172.329 12.04C172.329 15.88 168.937 19.656 165.737 20.872V5.512ZM166.505 6.28001V19.72C169.065 18.504 171.561 15.368 171.561 12.04C171.561 8.712 170.537 6.28001 167.081 6.28001H166.505Z" stroke="#CBCAC7"/>
<path d="M216.461 20.04C216.461 22.408 215.565 24.392 211.853 25.032L199.117 27.272C200.333 30.984 203.021 32.136 205.837 32.136C208.781 32.136 211.789 30.856 213.325 29.704C214.861 28.616 216.461 29.64 216.461 31.048C216.461 38.472 208.845 42.568 202.061 42.568C193.101 42.568 185.741 37.192 185.741 26.056C185.741 14.92 193.101 9.608 202.061 9.608C211.917 9.608 216.461 15.496 216.461 20.04ZM215.693 20.04C215.693 15.88 211.405 10.376 202.061 10.376C193.485 10.376 186.509 15.432 186.509 26.056C186.509 36.68 193.485 41.8 202.061 41.8C208.461 41.8 215.693 37.96 215.693 31.048C215.693 30.344 214.669 29.96 213.837 30.344C212.237 31.496 208.973 32.904 205.837 32.904C202.573 32.904 199.437 31.368 198.093 26.632L211.725 24.264C214.733 23.624 215.693 21.96 215.693 20.04ZM204.301 22.728C202.957 22.984 197.709 23.88 197.709 23.88C197.581 22.984 197.581 22.472 197.581 22.024C197.581 17.352 199.629 13.192 201.677 13.192C203.661 13.192 205.197 16.072 206.221 19.272C206.221 19.336 206.285 19.4 206.285 19.464C206.605 20.488 207.053 22.216 204.301 22.728ZM204.173 21.96C206.093 21.576 205.709 20.36 205.517 19.72C205.517 19.656 205.453 19.656 205.453 19.528C204.557 16.584 203.213 13.96 201.677 13.96C200.013 13.96 198.349 17.736 198.349 22.024C198.349 22.472 198.285 22.536 198.349 22.984L204.173 21.96Z" stroke="#CBCAC7"/>
<path d="M247.041 17.16C247.041 20.68 244.033 21.64 241.025 21.64C239.233 21.64 237.313 21.256 235.969 20.808C236.737 17.16 234.241 13.96 232.065 13.96C230.529 13.96 229.441 14.728 229.441 16.52C229.441 18.504 232.705 20.168 236.289 21.96C241.281 24.52 247.041 27.336 247.041 32.52C247.041 38.28 240.257 42.568 232.641 42.568C226.305 42.568 219.201 41.288 218.305 37.32C217.793 33.8 222.657 29.896 227.009 30.152C228.865 30.216 229.249 30.92 229.249 32.264C229.249 34.76 231.489 38.216 233.217 38.216C234.753 38.216 235.905 37.448 235.905 35.656C235.905 33.864 232.513 32.072 229.185 30.408C224.513 28.04 218.305 24.456 218.305 19.656C218.305 14.088 224.513 9.608 234.433 9.608C241.921 9.608 247.041 12.68 247.041 17.16ZM246.273 17.16C246.273 13.192 241.409 10.376 234.433 10.376C225.025 10.376 219.073 14.472 219.073 19.656C219.073 24.456 224.705 27.4 229.569 29.768C233.409 31.688 236.673 33.352 236.673 35.656C236.673 37.96 235.137 38.984 233.217 38.984C231.105 38.984 228.481 35.144 228.481 32.264C228.481 31.432 228.225 30.984 227.009 30.92C222.977 30.664 218.433 34.056 219.073 37.192C219.713 40.776 226.497 41.8 232.641 41.8C239.873 41.8 246.273 37.896 246.273 32.52C246.273 27.848 240.705 25.032 235.905 22.6C232.193 20.744 228.673 18.888 228.673 16.52C228.673 14.216 230.145 13.192 232.065 13.192C234.497 13.192 237.377 16.52 236.865 20.296C237.953 20.616 239.553 20.872 241.025 20.872C243.649 20.872 246.273 20.04 246.273 17.16Z" stroke="#CBCAC7"/>
<path d="M279.336 20.04C279.336 22.408 278.44 24.392 274.728 25.032L261.992 27.272C263.208 30.984 265.896 32.136 268.712 32.136C271.656 32.136 274.664 30.856 276.2 29.704C277.736 28.616 279.336 29.64 279.336 31.048C279.336 38.472 271.72 42.568 264.936 42.568C255.976 42.568 248.616 37.192 248.616 26.056C248.616 14.92 255.976 9.608 264.936 9.608C274.792 9.608 279.336 15.496 279.336 20.04ZM278.568 20.04C278.568 15.88 274.28 10.376 264.936 10.376C256.36 10.376 249.384 15.432 249.384 26.056C249.384 36.68 256.36 41.8 264.936 41.8C271.336 41.8 278.568 37.96 278.568 31.048C278.568 30.344 277.544 29.96 276.712 30.344C275.112 31.496 271.848 32.904 268.712 32.904C265.448 32.904 262.312 31.368 260.968 26.632L274.6 24.264C277.608 23.624 278.568 21.96 278.568 20.04ZM267.176 22.728C265.832 22.984 260.584 23.88 260.584 23.88C260.456 22.984 260.456 22.472 260.456 22.024C260.456 17.352 262.504 13.192 264.552 13.192C266.536 13.192 268.072 16.072 269.096 19.272C269.096 19.336 269.16 19.4 269.16 19.464C269.48 20.488 269.928 22.216 267.176 22.728ZM267.048 21.96C268.968 21.576 268.584 20.36 268.392 19.72C268.392 19.656 268.328 19.656 268.328 19.528C267.432 16.584 266.088 13.96 264.552 13.96C262.888 13.96 261.224 17.736 261.224 22.024C261.224 22.472 261.16 22.536 261.224 22.984L267.048 21.96Z" stroke="#CBCAC7"/>
<path d="M311.644 34.568H311.708C312.988 34.824 313.244 35.08 313.244 36.232C313.18 38.344 310.94 41.928 306.012 41.928C302.492 41.928 299.676 40.52 299.036 37.576C297.564 39.88 295.388 41.928 291.164 41.928C286.3 41.928 281.116 39.368 281.116 33.352C281.116 27.464 288.988 24.072 294.94 24.072C296.54 24.072 297.82 24.264 298.972 24.776V22.408C298.972 19.336 297.82 14.6 295.388 14.6C293.66 14.6 293.148 16.136 293.148 17.864C293.148 20.168 294.172 23.304 294.172 23.304C294.172 23.304 290.844 24.136 287.964 24.136C285.532 24.136 283.1 23.56 281.884 21.832C281.372 21.064 281.116 20.104 281.116 19.336C281.116 14.792 288.284 10.248 296.156 10.248C304.86 10.248 310.492 14.472 310.492 21.384V32.008C310.492 33.672 311.004 34.504 311.644 34.568ZM311.58 35.336C310.556 35.208 309.724 34.056 309.724 32.008V21.384C309.724 14.984 304.348 11.016 296.156 11.016C288.668 11.016 281.884 15.176 281.884 19.336C281.884 20.04 282.076 20.744 282.524 21.448C283.548 22.92 285.788 23.368 287.964 23.368C290.204 23.368 293.148 22.792 293.148 22.792C292.892 21.96 292.38 19.912 292.38 17.864C292.38 15.752 293.02 13.832 295.388 13.832C298.332 13.832 299.74 19.08 299.74 22.408V25.992C298.268 25.224 296.604 24.84 294.94 24.84C289.372 24.84 281.884 27.976 281.884 33.352C281.884 38.856 286.684 41.16 291.164 41.16C295.452 41.16 298.076 38.472 299.676 35.656C299.74 39.688 302.428 41.16 306.012 41.16C310.428 41.16 312.412 38.088 312.476 36.232C312.476 35.592 312.348 35.528 311.58 35.336ZM299.74 34.952C298.652 35.528 292.572 35.656 292.572 31.752C292.572 27.336 297.372 26.632 299.74 26.632V34.952ZM298.972 34.376V27.4C296.924 27.464 293.34 28.104 293.34 31.752C293.34 34.888 298.076 34.632 298.972 34.376Z" stroke="#CBCAC7"/>
<path d="M338.538 10.248C343.082 10.248 345.706 12.424 345.706 15.56C345.706 20.424 339.114 23.432 335.082 23.432C335.082 20.488 333.098 18.504 330.986 18.504C330.026 18.504 328.938 19.016 328.106 19.976V36.36C328.106 38.216 328.554 39.496 328.874 39.944C329.258 40.648 329.13 41.928 327.978 41.928H316.714C315.562 41.928 315.434 40.648 315.818 39.944C316.138 39.496 316.586 38.216 316.586 36.36V17.928C316.586 16.2 315.818 14.92 315.498 14.472V14.536C314.986 13.832 314.922 12.488 316.394 12.168L327.466 10.248C328.81 10.056 329.258 10.696 329.066 11.784L328.746 12.936C328.49 13.768 328.17 14.856 328.106 16.456C329.642 13.96 333.482 10.248 338.538 10.248ZM338.538 11.016C332.522 11.016 328.49 16.52 328.106 18.376L327.338 18.312V17.544C327.338 15.304 327.722 13.576 328.042 12.552L328.298 11.656C328.362 11.272 328.042 11.016 327.594 11.016L316.522 12.936C315.882 13.128 315.882 13.768 316.138 14.088C316.458 14.6 317.354 16.008 317.354 17.928V36.36C317.354 38.28 316.778 39.752 316.458 40.328C316.33 40.648 316.33 41.16 316.714 41.16H327.978C328.362 41.16 328.362 40.648 328.234 40.328C327.914 39.752 327.338 38.28 327.338 36.36V19.592C328.426 18.312 329.706 17.736 330.986 17.736C333.418 17.736 335.722 19.592 335.85 22.664C339.434 22.472 344.938 19.784 344.938 15.56C344.938 12.936 342.57 11.016 338.538 11.016Z" stroke="#CBCAC7"/>
<path d="M376.961 17.224C376.961 22.536 367.425 24.136 364.801 23.304C364.993 22.28 365.057 21.384 365.057 20.616C365.057 17.16 364.033 13.96 362.561 13.96C360.897 13.96 359.809 17.288 359.553 20.936C358.913 29.192 362.753 32.072 366.913 32.072C369.345 32.072 371.841 31.112 373.825 29.704C375.489 28.488 376.961 29.64 376.961 31.048C376.961 37.64 370.241 42.568 362.689 42.568C353.665 42.568 346.241 37.192 346.241 26.056C346.241 14.92 354.305 9.608 363.329 9.608C370.817 9.608 376.961 12.232 376.961 17.224ZM376.193 17.224C376.193 12.744 370.433 10.376 363.329 10.376C354.689 10.376 347.009 15.432 347.009 26.056C347.009 36.68 354.049 41.8 362.689 41.8C369.857 41.8 376.193 37.256 376.193 31.048C376.193 30.28 375.297 29.64 374.273 30.344H374.337C372.225 31.88 369.537 32.84 366.913 32.84C362.369 32.84 358.273 29.448 358.785 20.936C359.041 16.968 360.449 13.192 362.561 13.192C364.417 13.192 365.825 16.776 365.825 20.616C365.825 21.32 365.761 22.088 365.697 22.728C368.321 23.24 376.193 21.768 376.193 17.224Z" stroke="#CBCAC7"/>
<path d="M411.957 39.944C412.405 40.648 412.277 41.928 411.061 41.928H399.797C398.773 41.928 398.581 40.648 398.965 39.944C399.221 39.496 399.669 38.216 399.669 36.36V23.048C399.669 19.848 397.877 18.76 395.829 18.76C394.357 18.76 392.821 19.272 391.669 19.976V36.36C391.669 38.216 392.117 39.496 392.437 39.944C392.821 40.648 392.693 41.928 391.541 41.928H380.277C379.125 41.928 378.997 40.648 379.381 39.944C379.701 39.496 380.149 38.216 380.149 36.36V9.096C380.149 7.304 379.381 6.02401 379.061 5.576V5.64001C378.549 5.00001 378.613 3.65601 379.957 3.33601L391.029 1.416C392.245 1.22401 392.821 1.928 392.629 2.95201L392.309 4.104C391.989 5.06401 391.669 6.472 391.669 8.71201V16.584C393.525 13.64 397.493 10.248 401.973 10.248C407.413 10.248 411.189 14.28 411.189 20.168V36.36C411.189 38.28 411.701 39.56 411.957 39.944ZM411.317 40.328C411.061 39.88 410.421 38.472 410.421 36.36V20.168C410.421 14.792 406.901 11.016 401.973 11.016C397.045 11.016 392.757 15.496 391.605 18.504L390.901 18.376V8.71201C390.901 6.472 391.285 4.74401 391.605 3.72L391.861 2.824C391.925 2.37601 391.733 2.05601 391.157 2.18401L380.085 4.104C379.637 4.23201 379.317 4.616 379.445 4.80801C379.829 5.38401 380.917 7.048 380.917 9.096V36.36C380.917 38.28 380.341 39.752 380.021 40.328C379.893 40.648 379.893 41.16 380.277 41.16H391.541C391.925 41.16 391.925 40.648 391.797 40.328C391.477 39.752 390.901 38.28 390.901 36.36V19.592C392.309 18.632 394.165 17.992 395.829 17.992C398.261 17.992 400.437 19.336 400.437 23.048V36.36C400.437 38.408 399.861 39.816 399.605 40.328C399.413 40.648 399.413 41.16 399.797 41.16H411.061C411.509 41.16 411.509 40.648 411.317 40.328Z" stroke="#CBCAC7"/>
</svg>
