<svg width="1502" height="4611" viewBox="0 0 1502 4611" fill="none" xmlns="http://www.w3.org/2000/svg">
<path d="M780.806 3208.74L776.77 3200.14L776.77 3200.14L780.806 3208.74ZM578.693 20.6275C583.909 21.1955 588.598 17.4277 589.166 12.2119C589.734 6.99599 585.966 2.30721 580.75 1.73918L578.693 20.6275ZM764.5 4593.83C652.283 4531.8 529.164 4446.27 424.764 4344.96C320.289 4243.57 235.113 4126.91 197.836 4002.71C160.686 3878.93 170.928 3747.2 258.078 3614.32C345.496 3481.03 510.723 3345.98 784.842 3217.34L776.77 3200.14C501.024 3329.54 332.3 3466.51 242.19 3603.9C151.814 3741.69 140.954 3879.28 179.638 4008.17C218.194 4136.63 305.789 4255.97 411.532 4358.59C517.35 4461.28 641.898 4547.77 755.308 4610.46L764.5 4593.83ZM784.842 3217.34C1129.52 3055.59 1327.51 2877.48 1424.94 2699.37C1522.54 2520.94 1518.6 2343.63 1461.8 2185.29C1405.1 2027.22 1295.77 1888.01 1182.26 1784.52C1069.03 1681.27 950.291 1612.34 873.85 1596.35L869.96 1614.95C941.527 1629.92 1057.23 1696.22 1169.46 1798.56C1281.42 1900.65 1388.56 2037.38 1443.92 2191.71C1499.18 2345.76 1502.87 2517.3 1408.27 2690.25C1313.49 2863.52 1119.42 3039.34 776.77 3200.14L784.842 3217.34ZM873.85 1596.35C838.692 1589 795.967 1567.48 748.179 1534.13C700.543 1500.89 648.529 1456.36 594.863 1403.78C487.536 1298.63 374.137 1161.81 276.586 1020.08C178.99 878.288 97.5799 732.055 53.8916 608.11C32.0384 546.111 19.8063 490.194 19.4367 443.468C19.0672 396.751 30.5332 360.265 54.8859 335.558L41.3543 322.221C12.2093 351.79 0.0446988 393.975 0.437337 443.619C0.829912 493.254 13.7526 551.388 35.9722 614.426C80.4296 740.553 162.838 888.333 260.935 1030.85C359.077 1173.44 473.246 1311.23 581.566 1417.35C635.724 1470.41 688.554 1515.69 737.306 1549.71C785.906 1583.63 831.114 1606.83 869.96 1614.95L873.85 1596.35ZM54.8859 335.558C161.725 227.165 255.752 144.206 341.822 90.4306C427.853 36.68 505.096 12.6124 578.693 20.6275L580.75 1.73918C501.336 -6.90944 419.774 19.3244 331.755 74.3171C243.774 129.285 148.506 213.511 41.3543 322.221L54.8859 335.558Z" fill="black"/>
</svg>
