<svg width="4607" height="1532" viewBox="0 0 4607 1532" fill="none" xmlns="http://www.w3.org/2000/svg">
<path d="M1402.06 822.48L1410.6 818.316L1410.6 818.316L1402.06 822.48ZM4586.79 572.572C4586.3 577.796 4590.13 582.427 4595.36 582.917C4600.58 583.407 4605.21 579.569 4605.7 574.345L4586.79 572.572ZM16.8824 826.951C77.2209 713.816 160.897 589.428 260.636 483.521C360.448 377.536 475.814 290.621 599.441 251.484C722.646 212.482 854.522 220.747 988.691 305.895C1123.27 391.303 1260.79 554.487 1393.52 826.645L1410.6 818.316C1277.08 544.542 1137.6 377.891 998.872 289.852C859.736 201.553 721.999 192.758 593.707 233.37C465.838 273.849 347.827 363.224 246.805 470.494C145.71 577.841 61.0974 703.673 0.117647 818.01L16.8824 826.951ZM1393.52 826.645C1560.43 1168.86 1741.49 1364.15 1921.04 1458.9C2100.92 1553.81 2278.14 1547.21 2435.61 1488.05C2592.81 1428.98 2730.37 1317.57 2832.15 1202.53C2933.69 1087.76 3000.82 968.002 3015.66 891.33L2997.01 887.719C2983.12 959.503 2918.56 1076.19 2817.92 1189.94C2717.52 1303.42 2582.41 1412.6 2428.93 1470.26C2275.72 1527.82 2104.26 1534.09 1929.91 1442.09C1755.23 1349.92 1576.52 1158.51 1410.6 818.316L1393.52 826.645ZM3015.66 891.33C3022.49 856.066 3043.37 813.023 3076 764.74C3108.52 716.61 3152.26 663.935 3204.03 609.486C3307.56 500.594 3442.67 385.156 3582.91 285.489C3723.23 185.777 3868.22 102.183 3991.5 56.641C4053.16 33.8603 4108.89 20.7909 4155.6 19.7205C4202.31 18.6504 4238.97 29.5678 4264.03 53.5472L4277.17 39.817C4247.16 11.1188 4204.8 -0.411671 4155.17 0.725522C4105.55 1.86253 4047.61 15.6557 3984.91 38.8183C3859.47 85.1625 3712.94 169.778 3571.91 270.002C3430.81 370.271 3294.75 486.494 3190.26 596.394C3138.02 651.341 3093.54 704.844 3060.25 754.101C3027.07 803.205 3004.55 848.756 2997.01 887.719L3015.66 891.33ZM4264.03 53.5472C4374.02 158.749 4458.38 251.521 4513.44 336.774C4568.47 421.99 4593.7 498.863 4586.79 572.572L4605.7 574.345C4613.16 494.811 4585.71 413.651 4529.4 326.466C4473.12 239.321 4387.47 145.326 4277.17 39.817L4264.03 53.5472Z" fill="black"/>
</svg>
