<svg width="1756" height="1679" viewBox="0 0 1756 1679" fill="none" xmlns="http://www.w3.org/2000/svg">
<path fill-rule="evenodd" clip-rule="evenodd" d="M1087.1 298.503C1225.57 313.184 1363.81 405.038 1425.96 527.614C1487.17 648.332 1405.58 785.948 1402.01 919.576C1398.7 1043.11 1467.88 1176.39 1405.76 1283.01C1343.48 1389.92 1208.16 1435.31 1085.11 1463.55C976.787 1488.41 866.184 1460.04 757.761 1431.72C661.784 1406.65 580.767 1355.73 493.346 1308.98C382.837 1249.88 236.126 1229.58 176.775 1121.04C116.744 1011.25 148.761 873.749 192.378 758.582C233.637 649.642 310.992 553.783 413.647 495.606C507.113 442.636 626.296 484.22 730.103 453.839C857.693 416.496 953.761 284.367 1087.1 298.503Z" stroke="#E8FC53" stroke-width="14"/>
<path fill-rule="evenodd" clip-rule="evenodd" d="M1080.42 276.875C1217.3 278.43 1361.28 355.27 1433.72 469.082C1505.07 581.171 1438.3 722.901 1447.49 853.551C1455.99 974.329 1536.32 1097.93 1485.67 1207.64C1434.88 1317.64 1306.78 1374.39 1189.08 1413.27C1085.45 1447.49 974.538 1430.02 865.766 1412.39C769.48 1396.79 685.377 1354.59 595.404 1317.06C481.67 1269.61 336.197 1263.33 267.823 1162.95C198.665 1061.42 216.938 924.365 248.681 808.029C278.709 697.984 345.295 597.367 440.211 531.169C526.632 470.896 647.192 500.466 745.875 461.269C867.167 413.091 948.62 275.378 1080.42 276.875Z" stroke="#E8FC53" stroke-width="8"/>
</svg>
