<svg width="334" height="44" viewBox="0 0 334 44" fill="none" xmlns="http://www.w3.org/2000/svg">
<path d="M54.9869 2.2248C56.2669 2.2248 56.2029 3.3768 55.6909 4.0168L55.2429 4.5288C54.6669 5.1048 53.3869 6.3848 52.6189 9.3288L45.5149 35.0568C45.0029 37.2328 45.7069 38.4488 46.2189 39.1528C46.3469 39.4088 46.5389 39.6008 46.6669 39.9208C46.8589 40.8168 46.4109 41.9048 45.3869 41.9048H35.2749C32.8429 41.9048 31.3069 40.6888 30.5389 38.0008L28.3629 30.1928L27.0829 35.0568C26.8909 35.6968 26.8269 36.2728 26.8269 36.7208C26.8269 37.8728 27.2749 38.6408 27.7229 39.1528C27.9149 39.4728 28.1709 39.7288 28.2349 39.9848C28.4909 40.8808 28.0429 41.9048 26.9549 41.9048H16.7789C14.4109 41.9048 12.8749 40.6888 12.1069 38.0008L4.23485 9.3288C3.53085 6.7048 2.25085 5.2328 1.67485 4.5928C1.54685 4.5288 1.54685 4.5288 1.48285 4.5288C0.842851 3.7608 0.906851 2.2248 2.12285 2.2248H16.6509C17.8669 2.2248 17.9949 3.3128 17.7389 4.0808C17.7389 4.2088 17.6109 4.4008 17.4829 4.5288C17.1629 5.0408 16.6509 5.8728 16.6509 7.2808C16.6509 7.7928 16.7149 8.3688 16.9069 9.0728L23.3069 32.3688L26.1229 21.8728L22.7309 9.3288C21.8989 6.5128 20.6829 5.1688 20.1709 4.6568L19.8509 4.4008C19.2109 3.6968 19.4029 2.2248 20.5549 2.2248H35.1469C36.1709 2.2248 36.3629 3.2488 36.2349 4.0168C36.2349 4.1448 36.1069 4.4008 35.9149 4.5928C35.5949 5.0408 35.0829 6.0008 35.0829 7.3448C35.0829 7.7928 35.1469 8.3688 35.3389 9.0728L41.7389 32.3688L46.9229 13.4248V13.4888C47.1149 12.7208 47.2429 11.9528 47.2429 11.3768C47.2429 8.1128 44.9389 6.1928 43.7229 5.2328L42.6349 4.2088C42.0589 3.3768 42.5709 2.2248 43.6589 2.2248H54.9869ZM54.9869 2.9928H43.6589C43.2749 2.9928 43.1469 3.5048 43.2749 3.8248L43.9149 4.4008V4.3368C45.3229 5.4888 48.0109 7.6648 48.0109 11.3768C48.0109 12.0808 47.8829 12.9128 47.6909 13.6808L41.7389 35.3768L34.5709 9.3288C34.3789 8.6248 34.3148 7.9208 34.3148 7.3448C34.3148 5.6808 35.0189 4.7208 35.3389 4.1448C35.4029 4.0808 35.4669 3.9528 35.4669 3.8888C35.5309 3.5048 35.5309 2.9928 35.1469 2.9928H20.5549C20.1709 2.9928 20.2349 3.5688 20.4909 3.8888H20.4269L20.6829 4.1448C21.3229 4.7848 22.6669 6.1288 23.4989 9.0728L27.0189 21.8728L23.3069 35.3768L16.1389 9.3288C15.9469 8.6248 15.8829 7.9208 15.8829 7.2808C15.8829 5.6808 16.5229 4.7208 16.8429 4.1448C16.9069 4.0808 16.9709 3.8888 16.9709 3.8248C17.0989 3.4408 17.0349 2.9928 16.6509 2.9928H2.12285C1.73885 2.9928 1.80285 3.5688 1.99485 3.8888C2.69885 4.5928 4.17085 6.0648 5.00285 9.0728L12.8749 37.7448C13.5149 39.8568 14.8589 41.1368 16.7789 41.1368H26.9549C27.3389 41.1368 27.5309 40.6248 27.4669 40.2408L27.0829 39.6648C26.5709 39.0248 26.0589 38.1928 26.0589 36.7208C26.0589 36.1448 26.1229 35.5048 26.3149 34.8008L27.9789 28.5928H28.7469L31.3069 37.7448C31.9469 39.8568 33.2909 41.1368 35.2749 41.1368H45.3869C45.7709 41.1368 45.9629 40.6248 45.9629 40.2408L45.5789 39.6648C44.9389 38.8328 44.1069 37.3608 44.7469 34.8008L51.8509 9.0728C52.6189 6.2568 54.0269 4.7208 54.7309 4.0168L54.9229 3.7608H54.8589C55.0509 3.5048 55.2429 2.9928 54.9869 2.9928Z" fill="white"/>
<path d="M69.4809 39.9208C69.8649 40.6248 69.7369 41.9048 68.5849 41.9048H57.3209C56.1689 41.9048 56.0409 40.6248 56.4249 39.9208C56.7449 39.4728 57.1929 38.1928 57.1929 36.3368V17.9048C57.1929 16.1768 56.4249 14.8968 56.1049 14.4488V14.5128C55.5929 13.8088 55.5289 12.4648 57.0009 12.1448L68.0729 10.2248C69.4169 10.0328 69.8649 10.6728 69.6729 11.7608L69.3529 12.9128C69.0329 13.8728 68.7129 15.2808 68.7129 17.5208V36.3368C68.7129 38.1928 69.1609 39.4728 69.4809 39.9208ZM68.8409 40.3048C68.5209 39.7928 67.9449 38.3848 67.9449 36.3368V17.5208C67.9449 15.2808 68.3288 13.5528 68.6488 12.5288L68.9049 11.6328C68.9689 11.2488 68.6489 10.9928 68.2009 10.9928L57.1289 12.9128C56.4889 13.1048 56.4889 13.7448 56.7449 14.0648C57.0649 14.5768 57.9608 15.9848 57.9608 17.9048V36.3368C57.9608 38.2568 57.3848 39.7288 57.0648 40.3048C56.9368 40.6248 56.9369 41.1368 57.3209 41.1368H68.5849C68.9689 41.1368 68.9689 40.6248 68.8409 40.3048ZM62.7609 10.4808C59.3689 10.4808 57.0648 9.1368 57.0648 5.8728C57.0648 2.6728 59.3689 1.3288 62.7609 1.3288C66.1529 1.3288 68.3929 2.6728 68.3929 5.8728C68.3929 9.1368 66.1529 10.4808 62.7609 10.4808ZM62.7609 9.7128C65.6409 9.7128 67.6249 8.6248 67.6249 5.8728C67.6249 3.1848 65.6409 2.0968 62.7609 2.0968C59.8809 2.0968 57.8329 3.1848 57.8329 5.8728C57.8329 8.6248 59.8809 9.7128 62.7609 9.7128Z" fill="white"/>
<path d="M94.5824 10.2248C99.1264 10.2248 101.75 12.4008 101.75 15.5368C101.75 20.4008 95.1584 23.4088 91.1264 23.4088C91.1264 20.4648 89.1424 18.4808 87.0303 18.4808C86.0703 18.4808 84.9824 18.9928 84.1504 19.9528V36.3368C84.1504 38.1928 84.5984 39.4728 84.9184 39.9208C85.3024 40.6248 85.1744 41.9048 84.0224 41.9048H72.7584C71.6064 41.9048 71.4784 40.6248 71.8624 39.9208C72.1824 39.4728 72.6303 38.1928 72.6303 36.3368V17.9048C72.6303 16.1768 71.8624 14.8968 71.5424 14.4488V14.5128C71.0304 13.8088 70.9664 12.4648 72.4384 12.1448L83.5104 10.2248C84.8544 10.0328 85.3024 10.6728 85.1104 11.7608L84.7904 12.9128C84.5344 13.7448 84.2144 14.8328 84.1504 16.4328C85.6864 13.9368 89.5264 10.2248 94.5824 10.2248ZM94.5824 10.9928C88.5664 10.9928 84.5344 16.4968 84.1504 18.3528L83.3824 18.2888V17.5208C83.3824 15.2808 83.7663 13.5528 84.0863 12.5288L84.3424 11.6328C84.4064 11.2488 84.0864 10.9928 83.6384 10.9928L72.5664 12.9128C71.9264 13.1048 71.9264 13.7448 72.1824 14.0648C72.5024 14.5768 73.3984 15.9848 73.3984 17.9048V36.3368C73.3984 38.2568 72.8223 39.7288 72.5023 40.3048C72.3743 40.6248 72.3744 41.1368 72.7584 41.1368H84.0224C84.4064 41.1368 84.4064 40.6248 84.2784 40.3048C83.9584 39.7288 83.3824 38.2568 83.3824 36.3368V19.5688C84.4704 18.2888 85.7503 17.7128 87.0303 17.7128C89.4623 17.7128 91.7663 19.5688 91.8943 22.6408C95.4783 22.4488 100.982 19.7608 100.982 15.5368C100.982 12.9128 98.6144 10.9928 94.5824 10.9928Z" fill="white"/>
<path d="M132.067 20.0168C132.067 22.3848 131.171 24.3688 127.459 25.0088L114.723 27.2488C115.939 30.9608 118.627 32.1128 121.443 32.1128C124.387 32.1128 127.395 30.8328 128.931 29.6808C130.467 28.5928 132.067 29.6168 132.067 31.0248C132.067 38.4488 124.451 42.5448 117.667 42.5448C108.707 42.5448 101.347 37.1688 101.347 26.0328C101.347 14.8968 108.707 9.5848 117.667 9.5848C127.523 9.5848 132.067 15.4728 132.067 20.0168ZM131.299 20.0168C131.299 15.8568 127.011 10.3528 117.667 10.3528C109.091 10.3528 102.115 15.4088 102.115 26.0328C102.115 36.6568 109.091 41.7768 117.667 41.7768C124.067 41.7768 131.299 37.9368 131.299 31.0248C131.299 30.3208 130.275 29.9368 129.443 30.3208C127.843 31.4728 124.579 32.8808 121.443 32.8808C118.179 32.8808 115.043 31.3448 113.699 26.6088L127.331 24.2408C130.339 23.6008 131.299 21.9368 131.299 20.0168ZM119.907 22.7048C118.563 22.9608 113.315 23.8568 113.315 23.8568C113.187 22.9608 113.187 22.4488 113.187 22.0008C113.187 17.3288 115.235 13.1688 117.283 13.1688C119.267 13.1688 120.803 16.0488 121.827 19.2488C121.827 19.3128 121.891 19.3768 121.891 19.4408C122.211 20.4648 122.659 22.1928 119.907 22.7048ZM119.779 21.9368C121.699 21.5528 121.315 20.3368 121.123 19.6968C121.123 19.6328 121.059 19.6328 121.059 19.5048C120.163 16.5608 118.819 13.9368 117.283 13.9368C115.619 13.9368 113.955 17.7128 113.955 22.0008C113.955 22.4488 113.891 22.5128 113.955 22.9608L119.779 21.9368Z" fill="white"/>
<path d="M163.287 8.1128C163.287 12.0808 156.247 13.7448 153.815 13.7448C153.815 11.8248 152.087 10.6728 150.423 10.6728C148.759 10.6728 147.095 11.8888 147.735 14.5768H151.383C152.407 14.5768 153.239 15.5368 153.239 16.7528C153.239 17.9688 152.407 18.9288 151.383 18.9288H148.567V36.3368C148.567 38.1928 149.015 39.4728 149.335 39.9208C149.719 40.6248 149.591 41.9048 148.439 41.9048H137.175C136.023 41.9048 135.895 40.6248 136.279 39.9208C136.599 39.4728 137.047 38.1928 137.047 36.3368V18.9288H135.639C134.551 18.9288 133.847 17.9688 133.847 16.7528C133.847 15.5368 134.551 14.5768 135.639 14.5768H140.119C139.607 13.5528 139.351 12.3368 139.351 11.2488C139.351 6.7688 143.511 2.2248 151.767 2.2248C158.871 2.2248 163.287 4.4008 163.287 8.1128ZM162.519 8.1128C162.519 4.9128 158.359 2.9928 151.767 2.9928C144.023 2.9928 140.119 7.1528 140.119 11.2488C140.119 12.5288 140.567 13.9368 141.463 15.3448H135.639C135.063 15.3448 134.615 15.9208 134.615 16.7528C134.615 17.5848 135.063 18.1608 135.639 18.1608H137.815V36.3368C137.815 38.2568 137.239 39.7288 136.919 40.3048C136.791 40.6248 136.791 41.1368 137.175 41.1368H148.439C148.823 41.1368 148.823 40.6248 148.695 40.3048C148.375 39.7288 147.799 38.2568 147.799 36.3368V18.1608H151.383C152.023 18.1608 152.471 17.5848 152.471 16.7528C152.471 15.9208 152.023 15.3448 151.383 15.3448H147.095C146.071 11.5688 148.183 9.9048 150.423 9.9048C152.279 9.9048 154.263 11.1208 154.583 12.9768C156.951 12.8488 162.519 11.3768 162.519 8.1128Z" fill="white"/>
<path d="M179.957 10.2248C184.501 10.2248 187.125 12.4008 187.125 15.5368C187.125 20.4008 180.533 23.4088 176.501 23.4088C176.501 20.4648 174.517 18.4808 172.405 18.4808C171.445 18.4808 170.357 18.9928 169.525 19.9528V36.3368C169.525 38.1928 169.973 39.4728 170.293 39.9208C170.677 40.6248 170.549 41.9048 169.397 41.9048H158.133C156.981 41.9048 156.853 40.6248 157.237 39.9208C157.557 39.4728 158.005 38.1928 158.005 36.3368V17.9048C158.005 16.1768 157.237 14.8968 156.917 14.4488V14.5128C156.405 13.8088 156.341 12.4648 157.813 12.1448L168.885 10.2248C170.229 10.0328 170.677 10.6728 170.485 11.7608L170.165 12.9128C169.909 13.7448 169.589 14.8328 169.525 16.4328C171.061 13.9368 174.901 10.2248 179.957 10.2248ZM179.957 10.9928C173.941 10.9928 169.909 16.4968 169.525 18.3528L168.757 18.2888V17.5208C168.757 15.2808 169.141 13.5528 169.461 12.5288L169.717 11.6328C169.781 11.2488 169.461 10.9928 169.013 10.9928L157.941 12.9128C157.301 13.1048 157.301 13.7448 157.557 14.0648C157.877 14.5768 158.773 15.9848 158.773 17.9048V36.3368C158.773 38.2568 158.197 39.7288 157.877 40.3048C157.749 40.6248 157.749 41.1368 158.133 41.1368H169.397C169.781 41.1368 169.781 40.6248 169.653 40.3048C169.333 39.7288 168.757 38.2568 168.757 36.3368V19.5688C169.845 18.2888 171.125 17.7128 172.405 17.7128C174.837 17.7128 177.141 19.5688 177.269 22.6408C180.853 22.4488 186.357 19.7608 186.357 15.5368C186.357 12.9128 183.989 10.9928 179.957 10.9928Z" fill="white"/>
<path d="M218.813 34.5448H218.877C220.157 34.8008 220.413 35.0568 220.413 36.2088C220.349 38.3208 218.109 41.9048 213.181 41.9048C209.661 41.9048 206.845 40.4968 206.205 37.5528C204.733 39.8568 202.557 41.9048 198.333 41.9048C193.469 41.9048 188.285 39.3448 188.285 33.3288C188.285 27.4408 196.157 24.0488 202.109 24.0488C203.709 24.0488 204.989 24.2408 206.141 24.7528V22.3848C206.141 19.3128 204.989 14.5768 202.557 14.5768C200.829 14.5768 200.317 16.1128 200.317 17.8408C200.317 20.1448 201.341 23.2808 201.341 23.2808C201.341 23.2808 198.013 24.1128 195.133 24.1128C192.701 24.1128 190.269 23.5368 189.053 21.8088C188.541 21.0408 188.285 20.0808 188.285 19.3128C188.285 14.7688 195.453 10.2248 203.325 10.2248C212.029 10.2248 217.661 14.4488 217.661 21.3608V31.9848C217.661 33.6488 218.173 34.4808 218.813 34.5448ZM218.749 35.3128C217.725 35.1848 216.893 34.0328 216.893 31.9848V21.3608C216.893 14.9608 211.517 10.9928 203.325 10.9928C195.837 10.9928 189.053 15.1528 189.053 19.3128C189.053 20.0168 189.245 20.7208 189.693 21.4248C190.717 22.8968 192.957 23.3448 195.133 23.3448C197.373 23.3448 200.317 22.7688 200.317 22.7688C200.061 21.9368 199.549 19.8888 199.549 17.8408C199.549 15.7288 200.189 13.8088 202.557 13.8088C205.501 13.8088 206.909 19.0568 206.909 22.3848V25.9688C205.437 25.2008 203.773 24.8168 202.109 24.8168C196.541 24.8168 189.053 27.9528 189.053 33.3288C189.053 38.8328 193.853 41.1368 198.333 41.1368C202.621 41.1368 205.245 38.4488 206.845 35.6328C206.909 39.6648 209.597 41.1368 213.181 41.1368C217.597 41.1368 219.581 38.0648 219.645 36.2088C219.645 35.5688 219.517 35.5048 218.749 35.3128ZM206.909 34.9288C205.821 35.5048 199.741 35.6328 199.741 31.7288C199.741 27.3128 204.541 26.6088 206.909 26.6088V34.9288ZM206.141 34.3528V27.3768C204.093 27.4408 200.509 28.0808 200.509 31.7288C200.509 34.8648 205.245 34.6088 206.141 34.3528Z" fill="white"/>
<path d="M270.17 39.9208C270.618 40.6248 270.426 41.9048 269.338 41.9048H258.074C256.858 41.9048 256.73 40.6248 257.178 39.9208C257.434 39.5368 257.946 38.2568 257.946 36.3368V23.0248C257.946 19.8248 256.858 18.7368 255.386 18.7368C254.362 18.7368 253.146 19.2488 252.058 19.9528V36.3368C252.058 38.1928 252.506 39.4728 252.762 39.9208C253.146 40.6248 252.954 41.9048 251.93 41.9048H240.666C239.386 41.9048 239.386 40.6248 239.77 39.9208C240.026 39.5368 240.538 38.2568 240.538 36.3368V23.0248C240.538 19.8248 239.45 18.7368 237.978 18.7368C236.954 18.7368 235.738 19.2488 234.65 19.9528V36.3368C234.65 38.1928 235.098 39.4728 235.418 39.9208C235.802 40.6248 235.674 41.9048 234.522 41.9048H223.258C222.106 41.9048 221.978 40.6248 222.362 39.9208C222.682 39.4728 223.13 38.1928 223.13 36.3368V17.9048C223.13 16.1768 222.362 14.8968 222.042 14.4488V14.5128C221.53 13.8088 221.466 12.4648 222.938 12.1448L234.01 10.2248C235.354 10.0328 235.802 10.6728 235.61 11.7608L235.29 12.9128C235.034 13.6808 234.778 14.7688 234.65 16.2408C236.058 13.3608 238.426 10.2248 242.778 10.2248C247.194 10.2248 250.586 12.8488 251.674 17.0088C253.018 13.9368 255.514 10.2248 260.186 10.2248C265.562 10.2248 269.466 14.2568 269.466 20.1448V36.3368C269.466 38.2568 269.914 39.5368 270.17 39.9208ZM269.53 40.3048C269.274 39.7928 268.698 38.3848 268.698 36.3368V20.1448C268.698 14.7688 265.178 10.9928 260.186 10.9928C255.386 10.9928 253.018 15.6648 251.866 18.7368L251.162 18.6728C250.458 14.0648 247.194 10.9928 242.778 10.9928C237.978 10.9928 235.738 15.4728 234.586 18.4808L233.882 18.3528V17.5208C233.882 15.2808 234.266 13.5528 234.586 12.5288L234.842 11.6328C234.906 11.2488 234.586 10.9928 234.138 10.9928L223.066 12.9128C222.426 13.1048 222.426 13.7448 222.682 14.0648C223.002 14.5768 223.898 15.9848 223.898 17.9048V36.3368C223.898 38.2568 223.322 39.7288 223.002 40.3048C222.874 40.6248 222.874 41.1368 223.258 41.1368H234.522C234.906 41.1368 234.906 40.6248 234.778 40.3048C234.458 39.7288 233.882 38.2568 233.882 36.3368V19.5688C235.29 18.6088 236.762 17.9688 237.978 17.9688C239.834 17.9688 241.306 19.3128 241.306 23.0248V36.3368C241.306 38.3208 240.666 39.7928 240.41 40.3048C240.282 40.6248 240.282 41.1368 240.666 41.1368H251.93C252.314 41.1368 252.314 40.6248 252.122 40.3048C251.866 39.7928 251.29 38.3848 251.29 36.3368V19.5688C252.698 18.6088 254.17 17.9688 255.386 17.9688C257.242 17.9688 258.714 19.3128 258.714 23.0248V36.3368C258.714 38.4488 258.074 39.8568 257.818 40.3048C257.626 40.6248 257.626 41.1368 258.074 41.1368H269.338C269.722 41.1368 269.722 40.6248 269.53 40.3048Z" fill="white"/>
<path d="M302.692 20.0168C302.692 22.3848 301.796 24.3688 298.084 25.0088L285.348 27.2488C286.564 30.9608 289.252 32.1128 292.068 32.1128C295.012 32.1128 298.02 30.8328 299.556 29.6808C301.092 28.5928 302.692 29.6168 302.692 31.0248C302.692 38.4488 295.076 42.5448 288.292 42.5448C279.332 42.5448 271.972 37.1688 271.972 26.0328C271.972 14.8968 279.332 9.5848 288.292 9.5848C298.148 9.5848 302.692 15.4728 302.692 20.0168ZM301.924 20.0168C301.924 15.8568 297.636 10.3528 288.292 10.3528C279.716 10.3528 272.74 15.4088 272.74 26.0328C272.74 36.6568 279.716 41.7768 288.292 41.7768C294.692 41.7768 301.924 37.9368 301.924 31.0248C301.924 30.3208 300.9 29.9368 300.068 30.3208C298.468 31.4728 295.204 32.8808 292.068 32.8808C288.804 32.8808 285.668 31.3448 284.324 26.6088L297.956 24.2408C300.964 23.6008 301.924 21.9368 301.924 20.0168ZM290.532 22.7048C289.188 22.9608 283.94 23.8568 283.94 23.8568C283.812 22.9608 283.812 22.4488 283.812 22.0008C283.812 17.3288 285.86 13.1688 287.908 13.1688C289.892 13.1688 291.428 16.0488 292.452 19.2488C292.452 19.3128 292.516 19.3768 292.516 19.4408C292.836 20.4648 293.284 22.1928 290.532 22.7048ZM290.404 21.9368C292.324 21.5528 291.94 20.3368 291.748 19.6968C291.748 19.6328 291.684 19.6328 291.684 19.5048C290.788 16.5608 289.444 13.9368 287.908 13.9368C286.244 13.9368 284.58 17.7128 284.58 22.0008C284.58 22.4488 284.516 22.5128 284.58 22.9608L290.404 21.9368Z" fill="white"/>
<path d="M333.272 17.1368C333.272 20.6568 330.264 21.6168 327.256 21.6168C325.464 21.6168 323.544 21.2328 322.2 20.7848C322.968 17.1368 320.472 13.9368 318.296 13.9368C316.76 13.9368 315.672 14.7048 315.672 16.4968C315.672 18.4808 318.936 20.1448 322.52 21.9368C327.512 24.4968 333.272 27.3128 333.272 32.4968C333.272 38.2568 326.488 42.5448 318.872 42.5448C312.536 42.5448 305.432 41.2648 304.536 37.2968C304.024 33.7768 308.888 29.8728 313.24 30.1288C315.096 30.1928 315.48 30.8968 315.48 32.2408C315.48 34.7368 317.72 38.1928 319.448 38.1928C320.984 38.1928 322.136 37.4248 322.136 35.6328C322.136 33.8408 318.744 32.0488 315.416 30.3848C310.744 28.0168 304.536 24.4328 304.536 19.6328C304.536 14.0648 310.744 9.5848 320.664 9.5848C328.152 9.5848 333.272 12.6568 333.272 17.1368ZM332.504 17.1368C332.504 13.1688 327.64 10.3528 320.664 10.3528C311.256 10.3528 305.304 14.4488 305.304 19.6328C305.304 24.4328 310.936 27.3768 315.8 29.7448C319.64 31.6648 322.904 33.3288 322.904 35.6328C322.904 37.9368 321.368 38.9608 319.448 38.9608C317.336 38.9608 314.712 35.1208 314.712 32.2408C314.712 31.4088 314.456 30.9608 313.24 30.8968C309.208 30.6408 304.664 34.0328 305.304 37.1688C305.944 40.7528 312.728 41.7768 318.872 41.7768C326.104 41.7768 332.504 37.8728 332.504 32.4968C332.504 27.8248 326.936 25.0088 322.136 22.5768C318.424 20.7208 314.904 18.8648 314.904 16.4968C314.904 14.1928 316.376 13.1688 318.296 13.1688C320.728 13.1688 323.608 16.4968 323.096 20.2728C324.184 20.5928 325.784 20.8488 327.256 20.8488C329.88 20.8488 332.504 20.0168 332.504 17.1368Z" fill="white"/>
<path d="M54.9869 2.2248C56.2669 2.2248 56.2029 3.3768 55.6909 4.0168L55.2429 4.5288C54.6669 5.1048 53.3869 6.3848 52.6189 9.3288L45.5149 35.0568C45.0029 37.2328 45.7069 38.4488 46.2189 39.1528C46.3469 39.4088 46.5389 39.6008 46.6669 39.9208C46.8589 40.8168 46.4109 41.9048 45.3869 41.9048H35.2749C32.8429 41.9048 31.3069 40.6888 30.5389 38.0008L28.3629 30.1928L27.0829 35.0568C26.8909 35.6968 26.8269 36.2728 26.8269 36.7208C26.8269 37.8728 27.2749 38.6408 27.7229 39.1528C27.9149 39.4728 28.1709 39.7288 28.2349 39.9848C28.4909 40.8808 28.0429 41.9048 26.9549 41.9048H16.7789C14.4109 41.9048 12.8749 40.6888 12.1069 38.0008L4.23485 9.3288C3.53085 6.7048 2.25085 5.2328 1.67485 4.5928C1.54685 4.5288 1.54685 4.5288 1.48285 4.5288C0.842851 3.7608 0.906851 2.2248 2.12285 2.2248H16.6509C17.8669 2.2248 17.9949 3.3128 17.7389 4.0808C17.7389 4.2088 17.6109 4.4008 17.4829 4.5288C17.1629 5.0408 16.6509 5.8728 16.6509 7.2808C16.6509 7.7928 16.7149 8.3688 16.9069 9.0728L23.3069 32.3688L26.1229 21.8728L22.7309 9.3288C21.8989 6.5128 20.6829 5.1688 20.1709 4.6568L19.8509 4.4008C19.2109 3.6968 19.4029 2.2248 20.5549 2.2248H35.1469C36.1709 2.2248 36.3629 3.2488 36.2349 4.0168C36.2349 4.1448 36.1069 4.4008 35.9149 4.5928C35.5949 5.0408 35.0829 6.0008 35.0829 7.3448C35.0829 7.7928 35.1469 8.3688 35.3389 9.0728L41.7389 32.3688L46.9229 13.4248V13.4888C47.1149 12.7208 47.2429 11.9528 47.2429 11.3768C47.2429 8.1128 44.9389 6.1928 43.7229 5.2328L42.6349 4.2088C42.0589 3.3768 42.5709 2.2248 43.6589 2.2248H54.9869ZM54.9869 2.9928H43.6589C43.2749 2.9928 43.1469 3.5048 43.2749 3.8248L43.9149 4.4008V4.3368C45.3229 5.4888 48.0109 7.6648 48.0109 11.3768C48.0109 12.0808 47.8829 12.9128 47.6909 13.6808L41.7389 35.3768L34.5709 9.3288C34.3789 8.6248 34.3148 7.9208 34.3148 7.3448C34.3148 5.6808 35.0189 4.7208 35.3389 4.1448C35.4029 4.0808 35.4669 3.9528 35.4669 3.8888C35.5309 3.5048 35.5309 2.9928 35.1469 2.9928H20.5549C20.1709 2.9928 20.2349 3.5688 20.4909 3.8888H20.4269L20.6829 4.1448C21.3229 4.7848 22.6669 6.1288 23.4989 9.0728L27.0189 21.8728L23.3069 35.3768L16.1389 9.3288C15.9469 8.6248 15.8829 7.9208 15.8829 7.2808C15.8829 5.6808 16.5229 4.7208 16.8429 4.1448C16.9069 4.0808 16.9709 3.8888 16.9709 3.8248C17.0989 3.4408 17.0349 2.9928 16.6509 2.9928H2.12285C1.73885 2.9928 1.80285 3.5688 1.99485 3.8888C2.69885 4.5928 4.17085 6.0648 5.00285 9.0728L12.8749 37.7448C13.5149 39.8568 14.8589 41.1368 16.7789 41.1368H26.9549C27.3389 41.1368 27.5309 40.6248 27.4669 40.2408L27.0829 39.6648C26.5709 39.0248 26.0589 38.1928 26.0589 36.7208C26.0589 36.1448 26.1229 35.5048 26.3149 34.8008L27.9789 28.5928H28.7469L31.3069 37.7448C31.9469 39.8568 33.2909 41.1368 35.2749 41.1368H45.3869C45.7709 41.1368 45.9629 40.6248 45.9629 40.2408L45.5789 39.6648C44.9389 38.8328 44.1069 37.3608 44.7469 34.8008L51.8509 9.0728C52.6189 6.2568 54.0269 4.7208 54.7309 4.0168L54.9229 3.7608H54.8589C55.0509 3.5048 55.2429 2.9928 54.9869 2.9928Z" stroke="#CBCAC7"/>
<path d="M69.4809 39.9208C69.8649 40.6248 69.7369 41.9048 68.5849 41.9048H57.3209C56.1689 41.9048 56.0409 40.6248 56.4249 39.9208C56.7449 39.4728 57.1929 38.1928 57.1929 36.3368V17.9048C57.1929 16.1768 56.4249 14.8968 56.1049 14.4488V14.5128C55.5929 13.8088 55.5289 12.4648 57.0009 12.1448L68.0729 10.2248C69.4169 10.0328 69.8649 10.6728 69.6729 11.7608L69.3529 12.9128C69.0329 13.8728 68.7129 15.2808 68.7129 17.5208V36.3368C68.7129 38.1928 69.1609 39.4728 69.4809 39.9208ZM68.8409 40.3048C68.5209 39.7928 67.9449 38.3848 67.9449 36.3368V17.5208C67.9449 15.2808 68.3288 13.5528 68.6488 12.5288L68.9049 11.6328C68.9689 11.2488 68.6489 10.9928 68.2009 10.9928L57.1289 12.9128C56.4889 13.1048 56.4889 13.7448 56.7449 14.0648C57.0649 14.5768 57.9608 15.9848 57.9608 17.9048V36.3368C57.9608 38.2568 57.3848 39.7288 57.0648 40.3048C56.9368 40.6248 56.9369 41.1368 57.3209 41.1368H68.5849C68.9689 41.1368 68.9689 40.6248 68.8409 40.3048ZM62.7609 10.4808C59.3689 10.4808 57.0648 9.1368 57.0648 5.8728C57.0648 2.6728 59.3689 1.3288 62.7609 1.3288C66.1529 1.3288 68.3929 2.6728 68.3929 5.8728C68.3929 9.1368 66.1529 10.4808 62.7609 10.4808ZM62.7609 9.7128C65.6409 9.7128 67.6249 8.6248 67.6249 5.8728C67.6249 3.1848 65.6409 2.0968 62.7609 2.0968C59.8809 2.0968 57.8329 3.1848 57.8329 5.8728C57.8329 8.6248 59.8809 9.7128 62.7609 9.7128Z" stroke="#CBCAC7"/>
<path d="M94.5824 10.2248C99.1264 10.2248 101.75 12.4008 101.75 15.5368C101.75 20.4008 95.1584 23.4088 91.1264 23.4088C91.1264 20.4648 89.1424 18.4808 87.0303 18.4808C86.0703 18.4808 84.9824 18.9928 84.1504 19.9528V36.3368C84.1504 38.1928 84.5984 39.4728 84.9184 39.9208C85.3024 40.6248 85.1744 41.9048 84.0224 41.9048H72.7584C71.6064 41.9048 71.4784 40.6248 71.8624 39.9208C72.1824 39.4728 72.6303 38.1928 72.6303 36.3368V17.9048C72.6303 16.1768 71.8624 14.8968 71.5424 14.4488V14.5128C71.0304 13.8088 70.9664 12.4648 72.4384 12.1448L83.5104 10.2248C84.8544 10.0328 85.3024 10.6728 85.1104 11.7608L84.7904 12.9128C84.5344 13.7448 84.2144 14.8328 84.1504 16.4328C85.6864 13.9368 89.5264 10.2248 94.5824 10.2248ZM94.5824 10.9928C88.5664 10.9928 84.5344 16.4968 84.1504 18.3528L83.3824 18.2888V17.5208C83.3824 15.2808 83.7663 13.5528 84.0863 12.5288L84.3424 11.6328C84.4064 11.2488 84.0864 10.9928 83.6384 10.9928L72.5664 12.9128C71.9264 13.1048 71.9264 13.7448 72.1824 14.0648C72.5024 14.5768 73.3984 15.9848 73.3984 17.9048V36.3368C73.3984 38.2568 72.8223 39.7288 72.5023 40.3048C72.3743 40.6248 72.3744 41.1368 72.7584 41.1368H84.0224C84.4064 41.1368 84.4064 40.6248 84.2784 40.3048C83.9584 39.7288 83.3824 38.2568 83.3824 36.3368V19.5688C84.4704 18.2888 85.7503 17.7128 87.0303 17.7128C89.4623 17.7128 91.7663 19.5688 91.8943 22.6408C95.4783 22.4488 100.982 19.7608 100.982 15.5368C100.982 12.9128 98.6144 10.9928 94.5824 10.9928Z" stroke="#CBCAC7"/>
<path d="M132.067 20.0168C132.067 22.3848 131.171 24.3688 127.459 25.0088L114.723 27.2488C115.939 30.9608 118.627 32.1128 121.443 32.1128C124.387 32.1128 127.395 30.8328 128.931 29.6808C130.467 28.5928 132.067 29.6168 132.067 31.0248C132.067 38.4488 124.451 42.5448 117.667 42.5448C108.707 42.5448 101.347 37.1688 101.347 26.0328C101.347 14.8968 108.707 9.5848 117.667 9.5848C127.523 9.5848 132.067 15.4728 132.067 20.0168ZM131.299 20.0168C131.299 15.8568 127.011 10.3528 117.667 10.3528C109.091 10.3528 102.115 15.4088 102.115 26.0328C102.115 36.6568 109.091 41.7768 117.667 41.7768C124.067 41.7768 131.299 37.9368 131.299 31.0248C131.299 30.3208 130.275 29.9368 129.443 30.3208C127.843 31.4728 124.579 32.8808 121.443 32.8808C118.179 32.8808 115.043 31.3448 113.699 26.6088L127.331 24.2408C130.339 23.6008 131.299 21.9368 131.299 20.0168ZM119.907 22.7048C118.563 22.9608 113.315 23.8568 113.315 23.8568C113.187 22.9608 113.187 22.4488 113.187 22.0008C113.187 17.3288 115.235 13.1688 117.283 13.1688C119.267 13.1688 120.803 16.0488 121.827 19.2488C121.827 19.3128 121.891 19.3768 121.891 19.4408C122.211 20.4648 122.659 22.1928 119.907 22.7048ZM119.779 21.9368C121.699 21.5528 121.315 20.3368 121.123 19.6968C121.123 19.6328 121.059 19.6328 121.059 19.5048C120.163 16.5608 118.819 13.9368 117.283 13.9368C115.619 13.9368 113.955 17.7128 113.955 22.0008C113.955 22.4488 113.891 22.5128 113.955 22.9608L119.779 21.9368Z" stroke="#CBCAC7"/>
<path d="M163.287 8.1128C163.287 12.0808 156.247 13.7448 153.815 13.7448C153.815 11.8248 152.087 10.6728 150.423 10.6728C148.759 10.6728 147.095 11.8888 147.735 14.5768H151.383C152.407 14.5768 153.239 15.5368 153.239 16.7528C153.239 17.9688 152.407 18.9288 151.383 18.9288H148.567V36.3368C148.567 38.1928 149.015 39.4728 149.335 39.9208C149.719 40.6248 149.591 41.9048 148.439 41.9048H137.175C136.023 41.9048 135.895 40.6248 136.279 39.9208C136.599 39.4728 137.047 38.1928 137.047 36.3368V18.9288H135.639C134.551 18.9288 133.847 17.9688 133.847 16.7528C133.847 15.5368 134.551 14.5768 135.639 14.5768H140.119C139.607 13.5528 139.351 12.3368 139.351 11.2488C139.351 6.7688 143.511 2.2248 151.767 2.2248C158.871 2.2248 163.287 4.4008 163.287 8.1128ZM162.519 8.1128C162.519 4.9128 158.359 2.9928 151.767 2.9928C144.023 2.9928 140.119 7.1528 140.119 11.2488C140.119 12.5288 140.567 13.9368 141.463 15.3448H135.639C135.063 15.3448 134.615 15.9208 134.615 16.7528C134.615 17.5848 135.063 18.1608 135.639 18.1608H137.815V36.3368C137.815 38.2568 137.239 39.7288 136.919 40.3048C136.791 40.6248 136.791 41.1368 137.175 41.1368H148.439C148.823 41.1368 148.823 40.6248 148.695 40.3048C148.375 39.7288 147.799 38.2568 147.799 36.3368V18.1608H151.383C152.023 18.1608 152.471 17.5848 152.471 16.7528C152.471 15.9208 152.023 15.3448 151.383 15.3448H147.095C146.071 11.5688 148.183 9.9048 150.423 9.9048C152.279 9.9048 154.263 11.1208 154.583 12.9768C156.951 12.8488 162.519 11.3768 162.519 8.1128Z" stroke="#CBCAC7"/>
<path d="M179.957 10.2248C184.501 10.2248 187.125 12.4008 187.125 15.5368C187.125 20.4008 180.533 23.4088 176.501 23.4088C176.501 20.4648 174.517 18.4808 172.405 18.4808C171.445 18.4808 170.357 18.9928 169.525 19.9528V36.3368C169.525 38.1928 169.973 39.4728 170.293 39.9208C170.677 40.6248 170.549 41.9048 169.397 41.9048H158.133C156.981 41.9048 156.853 40.6248 157.237 39.9208C157.557 39.4728 158.005 38.1928 158.005 36.3368V17.9048C158.005 16.1768 157.237 14.8968 156.917 14.4488V14.5128C156.405 13.8088 156.341 12.4648 157.813 12.1448L168.885 10.2248C170.229 10.0328 170.677 10.6728 170.485 11.7608L170.165 12.9128C169.909 13.7448 169.589 14.8328 169.525 16.4328C171.061 13.9368 174.901 10.2248 179.957 10.2248ZM179.957 10.9928C173.941 10.9928 169.909 16.4968 169.525 18.3528L168.757 18.2888V17.5208C168.757 15.2808 169.141 13.5528 169.461 12.5288L169.717 11.6328C169.781 11.2488 169.461 10.9928 169.013 10.9928L157.941 12.9128C157.301 13.1048 157.301 13.7448 157.557 14.0648C157.877 14.5768 158.773 15.9848 158.773 17.9048V36.3368C158.773 38.2568 158.197 39.7288 157.877 40.3048C157.749 40.6248 157.749 41.1368 158.133 41.1368H169.397C169.781 41.1368 169.781 40.6248 169.653 40.3048C169.333 39.7288 168.757 38.2568 168.757 36.3368V19.5688C169.845 18.2888 171.125 17.7128 172.405 17.7128C174.837 17.7128 177.141 19.5688 177.269 22.6408C180.853 22.4488 186.357 19.7608 186.357 15.5368C186.357 12.9128 183.989 10.9928 179.957 10.9928Z" stroke="#CBCAC7"/>
<path d="M218.813 34.5448H218.877C220.157 34.8008 220.413 35.0568 220.413 36.2088C220.349 38.3208 218.109 41.9048 213.181 41.9048C209.661 41.9048 206.845 40.4968 206.205 37.5528C204.733 39.8568 202.557 41.9048 198.333 41.9048C193.469 41.9048 188.285 39.3448 188.285 33.3288C188.285 27.4408 196.157 24.0488 202.109 24.0488C203.709 24.0488 204.989 24.2408 206.141 24.7528V22.3848C206.141 19.3128 204.989 14.5768 202.557 14.5768C200.829 14.5768 200.317 16.1128 200.317 17.8408C200.317 20.1448 201.341 23.2808 201.341 23.2808C201.341 23.2808 198.013 24.1128 195.133 24.1128C192.701 24.1128 190.269 23.5368 189.053 21.8088C188.541 21.0408 188.285 20.0808 188.285 19.3128C188.285 14.7688 195.453 10.2248 203.325 10.2248C212.029 10.2248 217.661 14.4488 217.661 21.3608V31.9848C217.661 33.6488 218.173 34.4808 218.813 34.5448ZM218.749 35.3128C217.725 35.1848 216.893 34.0328 216.893 31.9848V21.3608C216.893 14.9608 211.517 10.9928 203.325 10.9928C195.837 10.9928 189.053 15.1528 189.053 19.3128C189.053 20.0168 189.245 20.7208 189.693 21.4248C190.717 22.8968 192.957 23.3448 195.133 23.3448C197.373 23.3448 200.317 22.7688 200.317 22.7688C200.061 21.9368 199.549 19.8888 199.549 17.8408C199.549 15.7288 200.189 13.8088 202.557 13.8088C205.501 13.8088 206.909 19.0568 206.909 22.3848V25.9688C205.437 25.2008 203.773 24.8168 202.109 24.8168C196.541 24.8168 189.053 27.9528 189.053 33.3288C189.053 38.8328 193.853 41.1368 198.333 41.1368C202.621 41.1368 205.245 38.4488 206.845 35.6328C206.909 39.6648 209.597 41.1368 213.181 41.1368C217.597 41.1368 219.581 38.0648 219.645 36.2088C219.645 35.5688 219.517 35.5048 218.749 35.3128ZM206.909 34.9288C205.821 35.5048 199.741 35.6328 199.741 31.7288C199.741 27.3128 204.541 26.6088 206.909 26.6088V34.9288ZM206.141 34.3528V27.3768C204.093 27.4408 200.509 28.0808 200.509 31.7288C200.509 34.8648 205.245 34.6088 206.141 34.3528Z" stroke="#CBCAC7"/>
<path d="M270.17 39.9208C270.618 40.6248 270.426 41.9048 269.338 41.9048H258.074C256.858 41.9048 256.73 40.6248 257.178 39.9208C257.434 39.5368 257.946 38.2568 257.946 36.3368V23.0248C257.946 19.8248 256.858 18.7368 255.386 18.7368C254.362 18.7368 253.146 19.2488 252.058 19.9528V36.3368C252.058 38.1928 252.506 39.4728 252.762 39.9208C253.146 40.6248 252.954 41.9048 251.93 41.9048H240.666C239.386 41.9048 239.386 40.6248 239.77 39.9208C240.026 39.5368 240.538 38.2568 240.538 36.3368V23.0248C240.538 19.8248 239.45 18.7368 237.978 18.7368C236.954 18.7368 235.738 19.2488 234.65 19.9528V36.3368C234.65 38.1928 235.098 39.4728 235.418 39.9208C235.802 40.6248 235.674 41.9048 234.522 41.9048H223.258C222.106 41.9048 221.978 40.6248 222.362 39.9208C222.682 39.4728 223.13 38.1928 223.13 36.3368V17.9048C223.13 16.1768 222.362 14.8968 222.042 14.4488V14.5128C221.53 13.8088 221.466 12.4648 222.938 12.1448L234.01 10.2248C235.354 10.0328 235.802 10.6728 235.61 11.7608L235.29 12.9128C235.034 13.6808 234.778 14.7688 234.65 16.2408C236.058 13.3608 238.426 10.2248 242.778 10.2248C247.194 10.2248 250.586 12.8488 251.674 17.0088C253.018 13.9368 255.514 10.2248 260.186 10.2248C265.562 10.2248 269.466 14.2568 269.466 20.1448V36.3368C269.466 38.2568 269.914 39.5368 270.17 39.9208ZM269.53 40.3048C269.274 39.7928 268.698 38.3848 268.698 36.3368V20.1448C268.698 14.7688 265.178 10.9928 260.186 10.9928C255.386 10.9928 253.018 15.6648 251.866 18.7368L251.162 18.6728C250.458 14.0648 247.194 10.9928 242.778 10.9928C237.978 10.9928 235.738 15.4728 234.586 18.4808L233.882 18.3528V17.5208C233.882 15.2808 234.266 13.5528 234.586 12.5288L234.842 11.6328C234.906 11.2488 234.586 10.9928 234.138 10.9928L223.066 12.9128C222.426 13.1048 222.426 13.7448 222.682 14.0648C223.002 14.5768 223.898 15.9848 223.898 17.9048V36.3368C223.898 38.2568 223.322 39.7288 223.002 40.3048C222.874 40.6248 222.874 41.1368 223.258 41.1368H234.522C234.906 41.1368 234.906 40.6248 234.778 40.3048C234.458 39.7288 233.882 38.2568 233.882 36.3368V19.5688C235.29 18.6088 236.762 17.9688 237.978 17.9688C239.834 17.9688 241.306 19.3128 241.306 23.0248V36.3368C241.306 38.3208 240.666 39.7928 240.41 40.3048C240.282 40.6248 240.282 41.1368 240.666 41.1368H251.93C252.314 41.1368 252.314 40.6248 252.122 40.3048C251.866 39.7928 251.29 38.3848 251.29 36.3368V19.5688C252.698 18.6088 254.17 17.9688 255.386 17.9688C257.242 17.9688 258.714 19.3128 258.714 23.0248V36.3368C258.714 38.4488 258.074 39.8568 257.818 40.3048C257.626 40.6248 257.626 41.1368 258.074 41.1368H269.338C269.722 41.1368 269.722 40.6248 269.53 40.3048Z" stroke="#CBCAC7"/>
<path d="M302.692 20.0168C302.692 22.3848 301.796 24.3688 298.084 25.0088L285.348 27.2488C286.564 30.9608 289.252 32.1128 292.068 32.1128C295.012 32.1128 298.02 30.8328 299.556 29.6808C301.092 28.5928 302.692 29.6168 302.692 31.0248C302.692 38.4488 295.076 42.5448 288.292 42.5448C279.332 42.5448 271.972 37.1688 271.972 26.0328C271.972 14.8968 279.332 9.5848 288.292 9.5848C298.148 9.5848 302.692 15.4728 302.692 20.0168ZM301.924 20.0168C301.924 15.8568 297.636 10.3528 288.292 10.3528C279.716 10.3528 272.74 15.4088 272.74 26.0328C272.74 36.6568 279.716 41.7768 288.292 41.7768C294.692 41.7768 301.924 37.9368 301.924 31.0248C301.924 30.3208 300.9 29.9368 300.068 30.3208C298.468 31.4728 295.204 32.8808 292.068 32.8808C288.804 32.8808 285.668 31.3448 284.324 26.6088L297.956 24.2408C300.964 23.6008 301.924 21.9368 301.924 20.0168ZM290.532 22.7048C289.188 22.9608 283.94 23.8568 283.94 23.8568C283.812 22.9608 283.812 22.4488 283.812 22.0008C283.812 17.3288 285.86 13.1688 287.908 13.1688C289.892 13.1688 291.428 16.0488 292.452 19.2488C292.452 19.3128 292.516 19.3768 292.516 19.4408C292.836 20.4648 293.284 22.1928 290.532 22.7048ZM290.404 21.9368C292.324 21.5528 291.94 20.3368 291.748 19.6968C291.748 19.6328 291.684 19.6328 291.684 19.5048C290.788 16.5608 289.444 13.9368 287.908 13.9368C286.244 13.9368 284.58 17.7128 284.58 22.0008C284.58 22.4488 284.516 22.5128 284.58 22.9608L290.404 21.9368Z" stroke="#CBCAC7"/>
<path d="M333.272 17.1368C333.272 20.6568 330.264 21.6168 327.256 21.6168C325.464 21.6168 323.544 21.2328 322.2 20.7848C322.968 17.1368 320.472 13.9368 318.296 13.9368C316.76 13.9368 315.672 14.7048 315.672 16.4968C315.672 18.4808 318.936 20.1448 322.52 21.9368C327.512 24.4968 333.272 27.3128 333.272 32.4968C333.272 38.2568 326.488 42.5448 318.872 42.5448C312.536 42.5448 305.432 41.2648 304.536 37.2968C304.024 33.7768 308.888 29.8728 313.24 30.1288C315.096 30.1928 315.48 30.8968 315.48 32.2408C315.48 34.7368 317.72 38.1928 319.448 38.1928C320.984 38.1928 322.136 37.4248 322.136 35.6328C322.136 33.8408 318.744 32.0488 315.416 30.3848C310.744 28.0168 304.536 24.4328 304.536 19.6328C304.536 14.0648 310.744 9.5848 320.664 9.5848C328.152 9.5848 333.272 12.6568 333.272 17.1368ZM332.504 17.1368C332.504 13.1688 327.64 10.3528 320.664 10.3528C311.256 10.3528 305.304 14.4488 305.304 19.6328C305.304 24.4328 310.936 27.3768 315.8 29.7448C319.64 31.6648 322.904 33.3288 322.904 35.6328C322.904 37.9368 321.368 38.9608 319.448 38.9608C317.336 38.9608 314.712 35.1208 314.712 32.2408C314.712 31.4088 314.456 30.9608 313.24 30.8968C309.208 30.6408 304.664 34.0328 305.304 37.1688C305.944 40.7528 312.728 41.7768 318.872 41.7768C326.104 41.7768 332.504 37.8728 332.504 32.4968C332.504 27.8248 326.936 25.0088 322.136 22.5768C318.424 20.7208 314.904 18.8648 314.904 16.4968C314.904 14.1928 316.376 13.1688 318.296 13.1688C320.728 13.1688 323.608 16.4968 323.096 20.2728C324.184 20.5928 325.784 20.8488 327.256 20.8488C329.88 20.8488 332.504 20.0168 332.504 17.1368Z" stroke="#CBCAC7"/>
</svg>
