<svg width="189" height="26" viewBox="0 0 189 26" fill="none" xmlns="http://www.w3.org/2000/svg">
<path d="M31.1968 1.94004C31.9168 1.94004 31.8808 2.58804 31.5928 2.94804L31.3408 3.23604C31.0168 3.56004 30.2968 4.28004 29.8648 5.93604L25.8688 20.408C25.5808 21.632 25.9768 22.316 26.2648 22.712C26.3368 22.856 26.4448 22.964 26.5168 23.144C26.6248 23.648 26.3728 24.26 25.7968 24.26H20.1088C18.7408 24.26 17.8768 23.576 17.4448 22.064L16.2208 17.672L15.5008 20.408C15.3928 20.768 15.3568 21.092 15.3568 21.344C15.3568 21.992 15.6088 22.424 15.8608 22.712C15.9688 22.892 16.1128 23.036 16.1488 23.18C16.2928 23.684 16.0408 24.26 15.4288 24.26H9.7048C8.3728 24.26 7.5088 23.576 7.07681 22.064L2.6488 5.93604C2.2528 4.46003 1.5328 3.63203 1.2088 3.27204C1.1368 3.23604 1.1368 3.23604 1.1008 3.23604C0.740805 2.80403 0.776805 1.94004 1.4608 1.94004H9.6328C10.3168 1.94004 10.3888 2.55204 10.2448 2.98403C10.2448 3.05604 10.1728 3.16404 10.1008 3.23604C9.9208 3.52404 9.6328 3.99204 9.6328 4.78403C9.6328 5.07204 9.6688 5.39604 9.7768 5.79204L13.3768 18.896L14.9608 12.992L13.0528 5.93604C12.5848 4.35204 11.9008 3.59604 11.6128 3.30803L11.4328 3.16404C11.0728 2.76804 11.1808 1.94004 11.8288 1.94004H20.0368C20.6128 1.94004 20.7208 2.51604 20.6488 2.94804C20.6488 3.02004 20.5768 3.16404 20.4688 3.27204C20.2888 3.52404 20.0008 4.06404 20.0008 4.82004C20.0008 5.07204 20.0368 5.39604 20.1448 5.79204L23.7448 18.896L26.6608 8.24004V8.27604C26.7688 7.84404 26.8408 7.41204 26.8408 7.08804C26.8408 5.25204 25.5448 4.17204 24.8608 3.63203L24.2488 3.05604C23.9248 2.58804 24.2128 1.94004 24.8248 1.94004H31.1968ZM31.1968 2.37204H24.8248C24.6088 2.37204 24.5368 2.66004 24.6088 2.84004L24.9688 3.16404V3.12803C25.7608 3.77604 27.2728 5.00004 27.2728 7.08804C27.2728 7.48404 27.2008 7.95204 27.0928 8.38404L23.7448 20.588L19.7128 5.93604C19.6048 5.54004 19.5688 5.14403 19.5688 4.82004C19.5688 3.88404 19.9648 3.34404 20.1448 3.02004C20.1808 2.98403 20.2168 2.91204 20.2168 2.87604C20.2528 2.66004 20.2528 2.37204 20.0368 2.37204H11.8288C11.6128 2.37204 11.6488 2.69604 11.7928 2.87604H11.7568L11.9008 3.02004C12.2608 3.38004 13.0168 4.13603 13.4848 5.79204L15.4648 12.992L13.3768 20.588L9.3448 5.93604C9.23681 5.54004 9.2008 5.14403 9.2008 4.78403C9.2008 3.88404 9.5608 3.34404 9.7408 3.02004C9.7768 2.98403 9.81281 2.87604 9.81281 2.84004C9.8848 2.62403 9.84881 2.37204 9.6328 2.37204H1.4608C1.2448 2.37204 1.2808 2.69604 1.3888 2.87604C1.7848 3.27204 2.6128 4.10004 3.0808 5.79204L7.5088 21.92C7.8688 23.108 8.6248 23.828 9.7048 23.828H15.4288C15.6448 23.828 15.7528 23.54 15.7168 23.324L15.5008 23C15.2128 22.64 14.9248 22.172 14.9248 21.344C14.9248 21.02 14.9608 20.66 15.0688 20.264L16.0048 16.772H16.4368L17.8768 21.92C18.2368 23.108 18.9928 23.828 20.1088 23.828H25.7968C26.0128 23.828 26.1208 23.54 26.1208 23.324L25.9048 23C25.5448 22.532 25.0768 21.704 25.4368 20.264L29.4328 5.79204C29.8648 4.20804 30.6568 3.34404 31.0528 2.94804L31.1608 2.80403H31.1248C31.2328 2.66004 31.3408 2.37204 31.1968 2.37204Z" stroke="#BBBBB8"/>
<path d="M39.3497 23.144C39.5657 23.54 39.4937 24.26 38.8457 24.26H32.5097C31.8617 24.26 31.7897 23.54 32.0057 23.144C32.1857 22.892 32.4377 22.172 32.4377 21.128V10.76C32.4377 9.78804 32.0057 9.06804 31.8257 8.81604V8.85204C31.5377 8.45604 31.5017 7.70004 32.3297 7.52004L38.5577 6.44003C39.3137 6.33204 39.5657 6.69204 39.4577 7.30403L39.2777 7.95203C39.0977 8.49204 38.9177 9.28404 38.9177 10.544V21.128C38.9177 22.172 39.1697 22.892 39.3497 23.144ZM38.9897 23.36C38.8097 23.072 38.4857 22.28 38.4857 21.128V10.544C38.4857 9.28404 38.7017 8.31204 38.8817 7.73604L39.0257 7.23204C39.0617 7.01604 38.8817 6.87204 38.6297 6.87204L32.4017 7.95203C32.0417 8.06004 32.0417 8.42004 32.1857 8.60004C32.3657 8.88804 32.8697 9.68004 32.8697 10.76V21.128C32.8697 22.208 32.5457 23.036 32.3657 23.36C32.2937 23.54 32.2937 23.828 32.5097 23.828H38.8457C39.0617 23.828 39.0617 23.54 38.9897 23.36ZM35.5697 6.58404C33.6617 6.58404 32.3657 5.82804 32.3657 3.99204C32.3657 2.19204 33.6617 1.43604 35.5697 1.43604C37.4777 1.43604 38.7377 2.19204 38.7377 3.99204C38.7377 5.82804 37.4777 6.58404 35.5697 6.58404ZM35.5697 6.15204C37.1897 6.15204 38.3057 5.54004 38.3057 3.99204C38.3057 2.48003 37.1897 1.86804 35.5697 1.86804C33.9497 1.86804 32.7977 2.48003 32.7977 3.99204C32.7977 5.54004 33.9497 6.15204 35.5697 6.15204Z" stroke="#BBBBB8"/>
<path d="M53.4693 6.44003C56.0253 6.44003 57.5013 7.66404 57.5013 9.42804C57.5013 12.164 53.7933 13.856 51.5253 13.856C51.5253 12.2 50.4093 11.084 49.2213 11.084C48.6813 11.084 48.0693 11.372 47.6013 11.912V21.128C47.6013 22.172 47.8533 22.892 48.0333 23.144C48.2493 23.54 48.1773 24.26 47.5293 24.26H41.1933C40.5453 24.26 40.4733 23.54 40.6893 23.144C40.8693 22.892 41.1213 22.172 41.1213 21.128V10.76C41.1213 9.78804 40.6893 9.06804 40.5093 8.81604V8.85204C40.2213 8.45604 40.1853 7.70004 41.0133 7.52004L47.2413 6.44003C47.9973 6.33204 48.2493 6.69204 48.1413 7.30403L47.9613 7.95203C47.8173 8.42004 47.6373 9.03204 47.6013 9.93204C48.4653 8.52804 50.6253 6.44003 53.4693 6.44003ZM53.4693 6.87204C50.0853 6.87204 47.8173 9.96804 47.6013 11.012L47.1693 10.976V10.544C47.1693 9.28404 47.3853 8.31204 47.5653 7.73604L47.7093 7.23204C47.7453 7.01604 47.5653 6.87204 47.3133 6.87204L41.0853 7.95203C40.7253 8.06004 40.7253 8.42004 40.8693 8.60004C41.0493 8.88804 41.5533 9.68004 41.5533 10.76V21.128C41.5533 22.208 41.2293 23.036 41.0493 23.36C40.9773 23.54 40.9773 23.828 41.1933 23.828H47.5293C47.7453 23.828 47.7453 23.54 47.6733 23.36C47.4933 23.036 47.1693 22.208 47.1693 21.128V11.696C47.7813 10.976 48.5013 10.652 49.2213 10.652C50.5893 10.652 51.8853 11.696 51.9573 13.424C53.9733 13.316 57.0693 11.804 57.0693 9.42804C57.0693 7.95203 55.7373 6.87204 53.4693 6.87204Z" stroke="#BBBBB8"/>
<path d="M74.5546 11.948C74.5546 13.28 74.0506 14.396 71.9626 14.756L64.7986 16.016C65.4826 18.104 66.9946 18.752 68.5786 18.752C70.2346 18.752 71.9266 18.032 72.7906 17.384C73.6546 16.772 74.5546 17.348 74.5546 18.14C74.5546 22.316 70.2706 24.62 66.4546 24.62C61.4146 24.62 57.2746 21.596 57.2746 15.332C57.2746 9.06804 61.4146 6.08004 66.4546 6.08004C71.9986 6.08004 74.5546 9.39204 74.5546 11.948ZM74.1226 11.948C74.1226 9.60804 71.7106 6.51204 66.4546 6.51204C61.6306 6.51204 57.7066 9.35604 57.7066 15.332C57.7066 21.308 61.6306 24.188 66.4546 24.188C70.0546 24.188 74.1226 22.028 74.1226 18.14C74.1226 17.744 73.5466 17.528 73.0786 17.744C72.1786 18.392 70.3426 19.184 68.5786 19.184C66.7426 19.184 64.9786 18.32 64.2226 15.656L71.8906 14.324C73.5826 13.964 74.1226 13.028 74.1226 11.948ZM67.7146 13.46C66.9586 13.604 64.0066 14.108 64.0066 14.108C63.9346 13.604 63.9346 13.316 63.9346 13.064C63.9346 10.436 65.0866 8.09604 66.2386 8.09604C67.3546 8.09604 68.2186 9.71604 68.7946 11.516C68.7946 11.552 68.8306 11.588 68.8306 11.624C69.0106 12.2 69.2626 13.172 67.7146 13.46ZM67.6426 13.028C68.7226 12.812 68.5066 12.128 68.3986 11.768C68.3986 11.732 68.3626 11.732 68.3626 11.66C67.8586 10.004 67.1026 8.52804 66.2386 8.52804C65.3026 8.52804 64.3666 10.652 64.3666 13.064C64.3666 13.316 64.3306 13.352 64.3666 13.604L67.6426 13.028Z" stroke="#BBBBB8"/>
<path d="M92.1158 5.25204C92.1158 7.48404 88.1558 8.42004 86.7878 8.42004C86.7878 7.34004 85.8158 6.69204 84.8798 6.69204C83.9438 6.69204 83.0078 7.37604 83.3678 8.88804H85.4198C85.9958 8.88804 86.4638 9.42804 86.4638 10.112C86.4638 10.796 85.9958 11.336 85.4198 11.336H83.8358V21.128C83.8358 22.172 84.0878 22.892 84.2678 23.144C84.4838 23.54 84.4118 24.26 83.7638 24.26H77.4278C76.7798 24.26 76.7078 23.54 76.9238 23.144C77.1038 22.892 77.3558 22.172 77.3558 21.128V11.336H76.5638C75.9518 11.336 75.5558 10.796 75.5558 10.112C75.5558 9.42804 75.9518 8.88804 76.5638 8.88804H79.0838C78.7958 8.31204 78.6518 7.62803 78.6518 7.01604C78.6518 4.49604 80.9918 1.94004 85.6358 1.94004C89.6318 1.94004 92.1158 3.16404 92.1158 5.25204ZM91.6838 5.25204C91.6838 3.45203 89.3438 2.37204 85.6358 2.37204C81.2798 2.37204 79.0838 4.71204 79.0838 7.01604C79.0838 7.73604 79.3358 8.52804 79.8398 9.32004H76.5638C76.2398 9.32004 75.9878 9.64404 75.9878 10.112C75.9878 10.58 76.2398 10.904 76.5638 10.904H77.7878V21.128C77.7878 22.208 77.4638 23.036 77.2838 23.36C77.2118 23.54 77.2118 23.828 77.4278 23.828H83.7638C83.9798 23.828 83.9798 23.54 83.9078 23.36C83.7278 23.036 83.4038 22.208 83.4038 21.128V10.904H85.4198C85.7798 10.904 86.0318 10.58 86.0318 10.112C86.0318 9.64404 85.7798 9.32004 85.4198 9.32004H83.0078C82.4318 7.19604 83.6198 6.26004 84.8798 6.26004C85.9238 6.26004 87.0398 6.94404 87.2198 7.98804C88.5518 7.91604 91.6838 7.08804 91.6838 5.25204Z" stroke="#BBBBB8"/>
<path d="M101.493 6.44003C104.049 6.44003 105.525 7.66404 105.525 9.42804C105.525 12.164 101.817 13.856 99.5487 13.856C99.5487 12.2 98.4327 11.084 97.2447 11.084C96.7047 11.084 96.0927 11.372 95.6247 11.912V21.128C95.6247 22.172 95.8767 22.892 96.0567 23.144C96.2727 23.54 96.2007 24.26 95.5527 24.26H89.2167C88.5687 24.26 88.4967 23.54 88.7127 23.144C88.8927 22.892 89.1447 22.172 89.1447 21.128V10.76C89.1447 9.78804 88.7127 9.06804 88.5327 8.81604V8.85204C88.2447 8.45604 88.2087 7.70004 89.0367 7.52004L95.2647 6.44003C96.0207 6.33204 96.2727 6.69204 96.1647 7.30403L95.9847 7.95203C95.8407 8.42004 95.6607 9.03204 95.6247 9.93204C96.4887 8.52804 98.6487 6.44003 101.493 6.44003ZM101.493 6.87204C98.1087 6.87204 95.8407 9.96804 95.6247 11.012L95.1927 10.976V10.544C95.1927 9.28404 95.4087 8.31204 95.5887 7.73604L95.7327 7.23204C95.7687 7.01604 95.5887 6.87204 95.3367 6.87204L89.1087 7.95203C88.7487 8.06004 88.7487 8.42004 88.8927 8.60004C89.0727 8.88804 89.5767 9.68004 89.5767 10.76V21.128C89.5767 22.208 89.2527 23.036 89.0727 23.36C89.0007 23.54 89.0007 23.828 89.2167 23.828H95.5527C95.7687 23.828 95.7687 23.54 95.6967 23.36C95.5167 23.036 95.1927 22.208 95.1927 21.128V11.696C95.8047 10.976 96.5247 10.652 97.2447 10.652C98.6127 10.652 99.9087 11.696 99.9807 13.424C101.997 13.316 105.093 11.804 105.093 9.42804C105.093 7.95203 103.761 6.87204 101.493 6.87204Z" stroke="#BBBBB8"/>
<path d="M123.349 20.12H123.385C124.105 20.264 124.249 20.408 124.249 21.056C124.213 22.244 122.953 24.26 120.181 24.26C118.201 24.26 116.617 23.468 116.257 21.812C115.429 23.108 114.205 24.26 111.829 24.26C109.093 24.26 106.177 22.82 106.177 19.436C106.177 16.124 110.605 14.216 113.953 14.216C114.853 14.216 115.573 14.324 116.221 14.612V13.28C116.221 11.552 115.573 8.88804 114.205 8.88804C113.233 8.88804 112.945 9.75203 112.945 10.724C112.945 12.02 113.521 13.784 113.521 13.784C113.521 13.784 111.649 14.252 110.029 14.252C108.661 14.252 107.293 13.928 106.609 12.956C106.321 12.524 106.177 11.984 106.177 11.552C106.177 8.99604 110.209 6.44003 114.637 6.44003C119.533 6.44003 122.701 8.81604 122.701 12.704V18.68C122.701 19.616 122.989 20.084 123.349 20.12ZM123.313 20.552C122.737 20.48 122.269 19.832 122.269 18.68V12.704C122.269 9.10404 119.245 6.87204 114.637 6.87204C110.425 6.87204 106.609 9.21204 106.609 11.552C106.609 11.948 106.717 12.344 106.969 12.74C107.545 13.568 108.805 13.82 110.029 13.82C111.289 13.82 112.945 13.496 112.945 13.496C112.801 13.028 112.513 11.876 112.513 10.724C112.513 9.53604 112.873 8.45604 114.205 8.45604C115.861 8.45604 116.653 11.408 116.653 13.28V15.296C115.825 14.864 114.889 14.648 113.953 14.648C110.821 14.648 106.609 16.412 106.609 19.436C106.609 22.532 109.309 23.828 111.829 23.828C114.241 23.828 115.717 22.316 116.617 20.732C116.653 23 118.165 23.828 120.181 23.828C122.665 23.828 123.781 22.1 123.817 21.056C123.817 20.696 123.745 20.66 123.313 20.552ZM116.653 20.336C116.041 20.66 112.621 20.732 112.621 18.536C112.621 16.052 115.321 15.656 116.653 15.656V20.336ZM116.221 20.012V16.088C115.069 16.124 113.053 16.484 113.053 18.536C113.053 20.3 115.717 20.156 116.221 20.012Z" stroke="#BBBBB8"/>
<path d="M152.238 23.144C152.49 23.54 152.382 24.26 151.77 24.26H145.434C144.75 24.26 144.678 23.54 144.93 23.144C145.074 22.928 145.362 22.208 145.362 21.128V13.64C145.362 11.84 144.75 11.228 143.922 11.228C143.346 11.228 142.662 11.516 142.05 11.912V21.128C142.05 22.172 142.302 22.892 142.446 23.144C142.662 23.54 142.554 24.26 141.978 24.26H135.642C134.922 24.26 134.922 23.54 135.138 23.144C135.282 22.928 135.57 22.208 135.57 21.128V13.64C135.57 11.84 134.958 11.228 134.13 11.228C133.554 11.228 132.87 11.516 132.258 11.912V21.128C132.258 22.172 132.51 22.892 132.69 23.144C132.906 23.54 132.834 24.26 132.186 24.26H125.85C125.202 24.26 125.13 23.54 125.346 23.144C125.526 22.892 125.778 22.172 125.778 21.128V10.76C125.778 9.78804 125.346 9.06804 125.166 8.81604V8.85204C124.878 8.45604 124.842 7.70004 125.67 7.52004L131.898 6.44003C132.654 6.33204 132.906 6.69204 132.798 7.30403L132.618 7.95203C132.474 8.38404 132.33 8.99604 132.258 9.82404C133.05 8.20404 134.382 6.44003 136.83 6.44003C139.314 6.44003 141.222 7.91604 141.834 10.256C142.59 8.52804 143.994 6.44003 146.622 6.44003C149.646 6.44003 151.842 8.70804 151.842 12.02V21.128C151.842 22.208 152.094 22.928 152.238 23.144ZM151.878 23.36C151.734 23.072 151.41 22.28 151.41 21.128V12.02C151.41 8.99604 149.43 6.87204 146.622 6.87204C143.922 6.87204 142.59 9.50004 141.942 11.228L141.546 11.192C141.15 8.60004 139.314 6.87204 136.83 6.87204C134.13 6.87204 132.87 9.39204 132.222 11.084L131.826 11.012V10.544C131.826 9.28404 132.042 8.31204 132.222 7.73604L132.366 7.23204C132.402 7.01604 132.222 6.87204 131.97 6.87204L125.742 7.95203C125.382 8.06004 125.382 8.42004 125.526 8.60004C125.706 8.88804 126.21 9.68004 126.21 10.76V21.128C126.21 22.208 125.886 23.036 125.706 23.36C125.634 23.54 125.634 23.828 125.85 23.828H132.186C132.402 23.828 132.402 23.54 132.33 23.36C132.15 23.036 131.826 22.208 131.826 21.128V11.696C132.618 11.156 133.446 10.796 134.13 10.796C135.174 10.796 136.002 11.552 136.002 13.64V21.128C136.002 22.244 135.642 23.072 135.498 23.36C135.426 23.54 135.426 23.828 135.642 23.828H141.978C142.194 23.828 142.194 23.54 142.086 23.36C141.942 23.072 141.618 22.28 141.618 21.128V11.696C142.41 11.156 143.238 10.796 143.922 10.796C144.966 10.796 145.794 11.552 145.794 13.64V21.128C145.794 22.316 145.434 23.108 145.29 23.36C145.182 23.54 145.182 23.828 145.434 23.828H151.77C151.986 23.828 151.986 23.54 151.878 23.36Z" stroke="#BBBBB8"/>
<path d="M170.531 11.948C170.531 13.28 170.027 14.396 167.939 14.756L160.775 16.016C161.459 18.104 162.971 18.752 164.555 18.752C166.211 18.752 167.903 18.032 168.767 17.384C169.631 16.772 170.531 17.348 170.531 18.14C170.531 22.316 166.247 24.62 162.431 24.62C157.391 24.62 153.251 21.596 153.251 15.332C153.251 9.06804 157.391 6.08004 162.431 6.08004C167.975 6.08004 170.531 9.39204 170.531 11.948ZM170.099 11.948C170.099 9.60804 167.687 6.51204 162.431 6.51204C157.607 6.51204 153.683 9.35604 153.683 15.332C153.683 21.308 157.607 24.188 162.431 24.188C166.031 24.188 170.099 22.028 170.099 18.14C170.099 17.744 169.523 17.528 169.055 17.744C168.155 18.392 166.319 19.184 164.555 19.184C162.719 19.184 160.955 18.32 160.199 15.656L167.867 14.324C169.559 13.964 170.099 13.028 170.099 11.948ZM163.691 13.46C162.935 13.604 159.983 14.108 159.983 14.108C159.911 13.604 159.911 13.316 159.911 13.064C159.911 10.436 161.063 8.09604 162.215 8.09604C163.331 8.09604 164.195 9.71604 164.771 11.516C164.771 11.552 164.807 11.588 164.807 11.624C164.987 12.2 165.239 13.172 163.691 13.46ZM163.619 13.028C164.699 12.812 164.483 12.128 164.375 11.768C164.375 11.732 164.339 11.732 164.339 11.66C163.835 10.004 163.079 8.52804 162.215 8.52804C161.279 8.52804 160.343 10.652 160.343 13.064C160.343 13.316 160.307 13.352 160.343 13.604L163.619 13.028Z" stroke="#BBBBB8"/>
<path d="M187.732 10.328C187.732 12.308 186.04 12.848 184.348 12.848C183.34 12.848 182.26 12.632 181.504 12.38C181.936 10.328 180.532 8.52804 179.308 8.52804C178.444 8.52804 177.832 8.96004 177.832 9.96804C177.832 11.084 179.668 12.02 181.684 13.028C184.492 14.468 187.732 16.052 187.732 18.968C187.732 22.208 183.916 24.62 179.632 24.62C176.068 24.62 172.072 23.9 171.568 21.668C171.28 19.688 174.016 17.492 176.464 17.636C177.508 17.672 177.724 18.068 177.724 18.824C177.724 20.228 178.984 22.172 179.956 22.172C180.82 22.172 181.468 21.74 181.468 20.732C181.468 19.724 179.56 18.716 177.688 17.78C175.06 16.448 171.568 14.432 171.568 11.732C171.568 8.60004 175.06 6.08004 180.64 6.08004C184.852 6.08004 187.732 7.80804 187.732 10.328ZM187.3 10.328C187.3 8.09604 184.564 6.51204 180.64 6.51204C175.348 6.51204 172 8.81604 172 11.732C172 14.432 175.168 16.088 177.904 17.42C180.064 18.5 181.9 19.436 181.9 20.732C181.9 22.028 181.036 22.604 179.956 22.604C178.768 22.604 177.292 20.444 177.292 18.824C177.292 18.356 177.148 18.104 176.464 18.068C174.196 17.924 171.64 19.832 172 21.596C172.36 23.612 176.176 24.188 179.632 24.188C183.7 24.188 187.3 21.992 187.3 18.968C187.3 16.34 184.168 14.756 181.468 13.388C179.38 12.344 177.4 11.3 177.4 9.96804C177.4 8.67204 178.228 8.09604 179.308 8.09604C180.676 8.09604 182.296 9.96804 182.008 12.092C182.62 12.272 183.52 12.416 184.348 12.416C185.824 12.416 187.3 11.948 187.3 10.328Z" stroke="#BBBBB8"/>
</svg>
