<svg width="313" height="138" viewBox="0 0 313 138" fill="none" xmlns="http://www.w3.org/2000/svg">
<rect x="21.5" y="49.5" width="71" height="24" rx="12" fill="#DCEDC8" stroke="#33691E"/>
<path d="M54.7389 62.84C54.7389 63.3478 54.6139 63.7853 54.3639 64.1525C54.1178 64.5197 53.7623 64.801 53.2975 64.9963C52.8365 65.1916 52.2858 65.2892 51.6451 65.2892C51.3326 65.2892 51.0338 65.2717 50.7487 65.2365C50.4635 65.2014 50.194 65.1506 49.9401 65.0842C49.6901 65.0139 49.4615 64.9299 49.2545 64.8322V63.508C49.6022 63.6603 49.9908 63.799 50.4205 63.924C50.8502 64.0451 51.2877 64.1057 51.733 64.1057C52.0963 64.1057 52.3971 64.0588 52.6354 63.965C52.8776 63.8674 53.0573 63.7307 53.1744 63.5549C53.2916 63.3752 53.3502 63.1662 53.3502 62.9279C53.3502 62.674 53.2819 62.4592 53.1451 62.2834C53.0084 62.1076 52.8014 61.9474 52.524 61.8029C52.2506 61.6545 51.9069 61.4963 51.4928 61.3283C51.2115 61.215 50.942 61.0861 50.6842 60.9416C50.4303 60.7971 50.2037 60.6271 50.0045 60.4318C49.8053 60.2365 49.6471 60.006 49.5299 59.7404C49.4166 59.4709 49.36 59.1545 49.36 58.7912C49.36 58.3068 49.4752 57.8928 49.7057 57.549C49.9401 57.2053 50.2682 56.9416 50.6901 56.758C51.1158 56.5744 51.6119 56.4826 52.1783 56.4826C52.6276 56.4826 53.0494 56.5295 53.444 56.6232C53.8424 56.717 54.233 56.8498 54.6158 57.0217L54.1705 58.1525C53.819 58.008 53.4772 57.8928 53.1451 57.8068C52.817 57.7209 52.4811 57.6779 52.1373 57.6779C51.8405 57.6779 51.5885 57.7228 51.3815 57.8127C51.1744 57.9025 51.0162 58.0295 50.9069 58.1935C50.8014 58.3537 50.7487 58.5451 50.7487 58.7678C50.7487 59.0178 50.8092 59.2287 50.9303 59.4006C51.0553 59.5685 51.2467 59.7228 51.5045 59.8635C51.7662 60.0041 52.1022 60.1603 52.5123 60.3322C52.985 60.5275 53.3854 60.7326 53.7135 60.9474C54.0455 61.1623 54.2994 61.4201 54.4752 61.7209C54.651 62.0178 54.7389 62.3908 54.7389 62.84ZM58.6647 64.176C58.8444 64.176 59.0221 64.1603 59.1979 64.1291C59.3737 64.0939 59.5338 64.0529 59.6783 64.006V65.049C59.526 65.1154 59.3287 65.1721 59.0865 65.2189C58.8444 65.2658 58.5924 65.2892 58.3307 65.2892C57.9635 65.2892 57.6334 65.2287 57.3405 65.1076C57.0475 64.9826 56.8151 64.7697 56.6432 64.4689C56.4713 64.1682 56.3854 63.7521 56.3854 63.2209V59.7346H55.5006V59.1193L56.4498 58.633L56.901 57.2443H57.7682V58.6857H59.6256V59.7346H57.7682V63.2033C57.7682 63.5314 57.8502 63.7756 58.0143 63.9357C58.1783 64.0959 58.3951 64.176 58.6647 64.176ZM63.5397 58.5627C64.36 58.5627 64.9791 58.7443 65.3971 59.1076C65.819 59.4709 66.0299 60.0373 66.0299 60.8068V65.1721H65.0514L64.7877 64.2521H64.7408C64.5573 64.4865 64.3678 64.6799 64.1725 64.8322C63.9772 64.9846 63.7506 65.0978 63.4928 65.1721C63.2389 65.2502 62.9283 65.2892 62.5612 65.2892C62.1744 65.2892 61.8287 65.2189 61.524 65.0783C61.2194 64.9338 60.9791 64.715 60.8033 64.4221C60.6276 64.1291 60.5397 63.758 60.5397 63.3088C60.5397 62.6408 60.7877 62.1389 61.2838 61.8029C61.7838 61.467 62.5377 61.2814 63.5455 61.2463L64.6705 61.2053V60.8654C64.6705 60.4162 64.5651 60.0959 64.3541 59.9045C64.1471 59.7131 63.8541 59.6174 63.4752 59.6174C63.151 59.6174 62.8365 59.6642 62.5319 59.758C62.2272 59.8517 61.9303 59.967 61.6412 60.1037L61.1959 59.131C61.5123 58.9631 61.8717 58.8264 62.274 58.7209C62.6803 58.6154 63.1022 58.5627 63.5397 58.5627ZM64.6647 62.0724L63.8268 62.1017C63.1393 62.1252 62.6569 62.2424 62.3795 62.4533C62.1022 62.6642 61.9635 62.9533 61.9635 63.3205C61.9635 63.6408 62.0592 63.8752 62.2506 64.0236C62.442 64.1682 62.694 64.2404 63.0065 64.2404C63.483 64.2404 63.8776 64.1057 64.1901 63.8361C64.5065 63.5627 64.6647 63.1623 64.6647 62.6349V62.0724ZM71.2448 58.5627C71.3541 58.5627 71.4733 58.5685 71.6022 58.5803C71.7311 58.592 71.8424 58.6076 71.9362 58.6271L71.8073 59.9162C71.7252 59.8928 71.6237 59.8752 71.5026 59.8635C71.3854 59.8517 71.2799 59.8459 71.1862 59.8459C70.9401 59.8459 70.7057 59.8869 70.483 59.9689C70.2604 60.0471 70.0631 60.1682 69.8912 60.3322C69.7194 60.4924 69.5846 60.6935 69.4869 60.9357C69.3893 61.1779 69.3405 61.4592 69.3405 61.7795V65.1721H67.9576V58.6857H69.0358L69.2233 59.8283H69.2877C69.4166 59.5978 69.5768 59.3869 69.7682 59.1955C69.9596 59.0041 70.1783 58.8517 70.4244 58.7385C70.6744 58.6213 70.9479 58.5627 71.2448 58.5627ZM75.5514 64.176C75.7311 64.176 75.9088 64.1603 76.0846 64.1291C76.2604 64.0939 76.4205 64.0529 76.5651 64.006V65.049C76.4127 65.1154 76.2155 65.1721 75.9733 65.2189C75.7311 65.2658 75.4791 65.2892 75.2174 65.2892C74.8502 65.2892 74.5201 65.2287 74.2272 65.1076C73.9342 64.9826 73.7018 64.7697 73.5299 64.4689C73.358 64.1682 73.2721 63.7521 73.2721 63.2209V59.7346H72.3873V59.1193L73.3365 58.633L73.7877 57.2443H74.6549V58.6857H76.5123V59.7346H74.6549V63.2033C74.6549 63.5314 74.7369 63.7756 74.901 63.9357C75.0651 64.0959 75.2819 64.176 75.5514 64.176Z" fill="#33691E"/>
<path d="M35.5 69.1667C31.2737 69.1667 27.8333 65.7263 27.8333 61.5C27.8333 57.2738 31.2737 53.8334 35.5 53.8334C39.7262 53.8334 43.1666 57.2738 43.1666 61.5C43.1666 65.7263 39.7262 69.1667 35.5 69.1667ZM35.5 51.9167C34.2415 51.9167 32.9953 52.1646 31.8326 52.6462C30.6699 53.1278 29.6134 53.8337 28.7235 54.7236C26.9263 56.5208 25.9166 58.9584 25.9166 61.5C25.9166 64.0417 26.9263 66.4792 28.7235 68.2765C29.6134 69.1664 30.6699 69.8723 31.8326 70.3539C32.9953 70.8355 34.2415 71.0834 35.5 71.0834C38.0416 71.0834 40.4792 70.0737 42.2764 68.2765C44.0736 66.4792 45.0833 64.0417 45.0833 61.5C45.0833 60.2415 44.8354 58.9953 44.3538 57.8326C43.8722 56.6699 43.1663 55.6135 42.2764 54.7236C41.3865 53.8337 40.33 53.1278 39.1673 52.6462C38.0046 52.1646 36.7585 51.9167 35.5 51.9167ZM33.5833 65.8125L39.3333 61.5L33.5833 57.1875V65.8125Z" fill="#33691E"/>
<rect x="120.5" y="49.5" width="71" height="24" rx="12" fill="#FFFDE7" stroke="#FB8C00"/>
<path d="M151.284 56.6057C152.389 56.6057 153.196 56.8322 153.704 57.2853C154.212 57.7385 154.465 58.3732 154.465 59.1896C154.465 59.5607 154.407 59.9142 154.29 60.2502C154.176 60.5822 153.989 60.8771 153.727 61.1349C153.465 61.3889 153.12 61.59 152.69 61.7385C152.264 61.8869 151.739 61.9611 151.114 61.9611H150.2V65.1721H148.794V56.6057H151.284ZM151.19 57.7717H150.2V60.7892H150.967C151.409 60.7892 151.784 60.7385 152.092 60.6369C152.401 60.5314 152.635 60.3654 152.796 60.1389C152.956 59.9123 153.036 59.6135 153.036 59.2424C153.036 58.7463 152.885 58.3771 152.585 58.1349C152.288 57.8928 151.823 57.7717 151.19 57.7717ZM158.579 58.5627C159.399 58.5627 160.018 58.7443 160.436 59.1076C160.858 59.4709 161.069 60.0373 161.069 60.8068V65.1721H160.09L159.827 64.2521H159.78C159.596 64.4865 159.407 64.6799 159.212 64.8322C159.016 64.9846 158.79 65.0978 158.532 65.1721C158.278 65.2502 157.967 65.2892 157.6 65.2892C157.214 65.2892 156.868 65.2189 156.563 65.0783C156.258 64.9338 156.018 64.715 155.842 64.4221C155.667 64.1291 155.579 63.758 155.579 63.3088C155.579 62.6408 155.827 62.1389 156.323 61.8029C156.823 61.467 157.577 61.2814 158.585 61.2463L159.71 61.2053V60.8654C159.71 60.4162 159.604 60.0959 159.393 59.9045C159.186 59.7131 158.893 59.6174 158.514 59.6174C158.19 59.6174 157.876 59.6642 157.571 59.758C157.266 59.8517 156.969 59.967 156.68 60.1037L156.235 59.131C156.551 58.9631 156.911 58.8264 157.313 58.7209C157.719 58.6154 158.141 58.5627 158.579 58.5627ZM159.704 62.0724L158.866 62.1017C158.178 62.1252 157.696 62.2424 157.419 62.4533C157.141 62.6642 157.003 62.9533 157.003 63.3205C157.003 63.6408 157.098 63.8752 157.29 64.0236C157.481 64.1682 157.733 64.2404 158.046 64.2404C158.522 64.2404 158.917 64.1057 159.229 63.8361C159.546 63.5627 159.704 63.1623 159.704 62.6349V62.0724ZM168.651 58.6857V65.1721H167.567L167.38 64.299H167.303C167.167 64.5217 166.993 64.7072 166.782 64.8557C166.571 65.0002 166.337 65.1076 166.079 65.1779C165.821 65.2521 165.549 65.2892 165.264 65.2892C164.776 65.2892 164.358 65.2072 164.01 65.0432C163.667 64.8752 163.403 64.6174 163.219 64.2697C163.036 63.9221 162.944 63.4728 162.944 62.9221V58.6857H164.327V62.6642C164.327 63.1682 164.428 63.5451 164.631 63.7951C164.839 64.0451 165.159 64.1701 165.592 64.1701C166.01 64.1701 166.342 64.0842 166.589 63.9123C166.835 63.7404 167.008 63.4865 167.11 63.1506C167.215 62.8146 167.268 62.4025 167.268 61.9142V58.6857H168.651ZM174.985 63.3205C174.985 63.7463 174.881 64.1057 174.674 64.3986C174.467 64.6916 174.165 64.9142 173.766 65.0666C173.372 65.215 172.887 65.2892 172.313 65.2892C171.86 65.2892 171.469 65.256 171.141 65.1896C170.817 65.1271 170.51 65.0295 170.221 64.8967V63.7072C170.53 63.8517 170.876 63.9767 171.258 64.0822C171.645 64.1877 172.01 64.2404 172.354 64.2404C172.807 64.2404 173.133 64.1701 173.333 64.0295C173.532 63.8849 173.631 63.6935 173.631 63.4553C173.631 63.3146 173.59 63.1896 173.508 63.0803C173.43 62.967 173.282 62.8517 173.063 62.7346C172.848 62.6135 172.532 62.4689 172.114 62.301C171.704 62.1369 171.358 61.9728 171.077 61.8088C170.796 61.6447 170.583 61.4474 170.438 61.217C170.294 60.9826 170.221 60.6838 170.221 60.3205C170.221 59.7463 170.448 59.3107 170.901 59.0139C171.358 58.7131 171.962 58.5627 172.712 58.5627C173.11 58.5627 173.485 58.6037 173.837 58.6857C174.192 58.7639 174.54 58.8791 174.88 59.0314L174.446 60.0685C174.153 59.9396 173.858 59.8342 173.561 59.7521C173.268 59.6662 172.969 59.6232 172.665 59.6232C172.309 59.6232 172.038 59.6779 171.85 59.7873C171.667 59.8967 171.575 60.0529 171.575 60.256C171.575 60.4084 171.62 60.5373 171.71 60.6428C171.799 60.7482 171.954 60.8537 172.172 60.9592C172.395 61.0646 172.704 61.1955 173.098 61.3517C173.485 61.5002 173.819 61.6564 174.1 61.8205C174.385 61.9807 174.604 62.1779 174.756 62.4123C174.909 62.6467 174.985 62.9494 174.985 63.3205ZM179.057 58.5627C179.635 58.5627 180.131 58.6818 180.546 58.9201C180.96 59.1584 181.278 59.4963 181.501 59.9338C181.723 60.3713 181.835 60.8947 181.835 61.5041V62.2424H177.505C177.52 62.8713 177.688 63.3557 178.008 63.6955C178.333 64.0353 178.786 64.2053 179.368 64.2053C179.782 64.2053 180.153 64.1662 180.481 64.0881C180.813 64.006 181.155 63.8869 181.506 63.7307V64.8498C181.182 65.0021 180.852 65.1135 180.516 65.1838C180.18 65.2541 179.778 65.2892 179.309 65.2892C178.672 65.2892 178.112 65.1662 177.628 64.9201C177.147 64.6701 176.77 64.299 176.497 63.8068C176.227 63.3146 176.092 62.7033 176.092 61.9728C176.092 61.2463 176.215 60.6291 176.462 60.1213C176.708 59.6135 177.053 59.2267 177.499 58.9611C177.944 58.6955 178.464 58.5627 179.057 58.5627ZM179.057 59.5998C178.624 59.5998 178.272 59.7404 178.003 60.0217C177.737 60.3029 177.581 60.715 177.534 61.258H180.487C180.483 60.9338 180.428 60.6467 180.323 60.3967C180.221 60.1467 180.065 59.9514 179.854 59.8107C179.647 59.6701 179.381 59.5998 179.057 59.5998Z" fill="#FB8C00"/>
<path d="M134.45 65.3V57.7H136.35V65.3H134.45ZM130.65 65.3V57.7H132.55V65.3H130.65ZM133.5 52C134.748 52 135.983 52.2457 137.135 52.7231C138.288 53.2006 139.335 53.9003 140.218 54.7825C141.1 55.6646 141.799 56.7119 142.277 57.8645C142.754 59.0171 143 60.2524 143 61.5C143 64.0196 141.999 66.4359 140.218 68.2175C138.436 69.9991 136.02 71 133.5 71C132.252 71 131.017 70.7543 129.865 70.2769C128.712 69.7994 127.665 69.0997 126.782 68.2175C125.001 66.4359 124 64.0196 124 61.5C124 58.9804 125.001 56.5641 126.782 54.7825C128.564 53.0009 130.98 52 133.5 52ZM133.5 53.9C131.484 53.9 129.551 54.7007 128.126 56.126C126.701 57.5513 125.9 59.4844 125.9 61.5C125.9 63.5156 126.701 65.4487 128.126 66.874C129.551 68.2993 131.484 69.1 133.5 69.1C135.516 69.1 137.449 68.2993 138.874 66.874C140.299 65.4487 141.1 63.5156 141.1 61.5C141.1 59.4844 140.299 57.5513 138.874 56.126C137.449 54.7007 135.516 53.9 133.5 53.9Z" fill="#FB8C00"/>
<rect x="217.5" y="48.5" width="71" height="24" rx="12" fill="#FFEBEE" stroke="#B71C1C"/>
<path d="M250.739 61.84C250.739 62.3478 250.614 62.7853 250.364 63.1525C250.118 63.5197 249.762 63.801 249.297 63.9963C248.837 64.1916 248.286 64.2892 247.645 64.2892C247.333 64.2892 247.034 64.2717 246.749 64.2365C246.464 64.2014 246.194 64.1506 245.94 64.0842C245.69 64.0139 245.462 63.9299 245.255 63.8322V62.508C245.602 62.6603 245.991 62.799 246.421 62.924C246.85 63.0451 247.288 63.1057 247.733 63.1057C248.096 63.1057 248.397 63.0588 248.635 62.965C248.878 62.8674 249.057 62.7307 249.174 62.5549C249.292 62.3752 249.35 62.1662 249.35 61.9279C249.35 61.674 249.282 61.4592 249.145 61.2834C249.008 61.1076 248.801 60.9474 248.524 60.8029C248.251 60.6545 247.907 60.4963 247.493 60.3283C247.212 60.215 246.942 60.0861 246.684 59.9416C246.43 59.7971 246.204 59.6271 246.005 59.4318C245.805 59.2365 245.647 59.006 245.53 58.7404C245.417 58.4709 245.36 58.1545 245.36 57.7912C245.36 57.3068 245.475 56.8928 245.706 56.549C245.94 56.2053 246.268 55.9416 246.69 55.758C247.116 55.5744 247.612 55.4826 248.178 55.4826C248.628 55.4826 249.049 55.5295 249.444 55.6232C249.842 55.717 250.233 55.8498 250.616 56.0217L250.171 57.1525C249.819 57.008 249.477 56.8928 249.145 56.8068C248.817 56.7209 248.481 56.6779 248.137 56.6779C247.84 56.6779 247.589 56.7228 247.381 56.8127C247.174 56.9025 247.016 57.0295 246.907 57.1935C246.801 57.3537 246.749 57.5451 246.749 57.7678C246.749 58.0178 246.809 58.2287 246.93 58.4006C247.055 58.5685 247.247 58.7228 247.505 58.8635C247.766 59.0041 248.102 59.1603 248.512 59.3322C248.985 59.5275 249.385 59.7326 249.714 59.9474C250.046 60.1623 250.299 60.4201 250.475 60.7209C250.651 61.0178 250.739 61.3908 250.739 61.84ZM254.665 63.176C254.844 63.176 255.022 63.1603 255.198 63.1291C255.374 63.0939 255.534 63.0529 255.678 63.006V64.049C255.526 64.1154 255.329 64.1721 255.087 64.2189C254.844 64.2658 254.592 64.2892 254.331 64.2892C253.964 64.2892 253.633 64.2287 253.34 64.1076C253.047 63.9826 252.815 63.7697 252.643 63.4689C252.471 63.1682 252.385 62.7521 252.385 62.2209V58.7346H251.501V58.1193L252.45 57.633L252.901 56.2443H253.768V57.6857H255.626V58.7346H253.768V62.2033C253.768 62.5314 253.85 62.7756 254.014 62.9357C254.178 63.0959 254.395 63.176 254.665 63.176ZM262.739 60.9142C262.739 61.4533 262.669 61.9318 262.528 62.3498C262.387 62.7678 262.182 63.1213 261.913 63.4103C261.643 63.6955 261.319 63.9142 260.94 64.0666C260.561 64.215 260.133 64.2892 259.657 64.2892C259.212 64.2892 258.803 64.215 258.432 64.0666C258.061 63.9142 257.739 63.6955 257.465 63.4103C257.196 63.1213 256.987 62.7678 256.839 62.3498C256.69 61.9318 256.616 61.4533 256.616 60.9142C256.616 60.1994 256.739 59.5939 256.985 59.0978C257.235 58.5978 257.59 58.217 258.051 57.9553C258.512 57.6935 259.061 57.5627 259.698 57.5627C260.296 57.5627 260.823 57.6935 261.28 57.9553C261.737 58.217 262.094 58.5978 262.352 59.0978C262.61 59.5978 262.739 60.2033 262.739 60.9142ZM258.034 60.9142C258.034 61.3869 258.09 61.7912 258.204 62.1271C258.321 62.4631 258.501 62.7209 258.743 62.9006C258.985 63.0764 259.297 63.1642 259.68 63.1642C260.063 63.1642 260.376 63.0764 260.618 62.9006C260.86 62.7209 261.038 62.4631 261.151 62.1271C261.264 61.7912 261.321 61.3869 261.321 60.9142C261.321 60.4416 261.264 60.0412 261.151 59.7131C261.038 59.381 260.86 59.1291 260.618 58.9572C260.376 58.7814 260.061 58.6935 259.674 58.6935C259.104 58.6935 258.688 58.8849 258.426 59.2678C258.165 59.6506 258.034 60.1994 258.034 60.9142ZM267.649 57.5627C268.419 57.5627 269.036 57.8439 269.501 58.4064C269.969 58.9689 270.204 59.8049 270.204 60.9142C270.204 61.6486 270.094 62.2678 269.876 62.7717C269.661 63.2717 269.358 63.6506 268.967 63.9084C268.581 64.1623 268.13 64.2892 267.614 64.2892C267.286 64.2892 267.001 64.2463 266.758 64.1603C266.516 64.0744 266.309 63.9631 266.137 63.8264C265.965 63.6857 265.821 63.5334 265.704 63.3693H265.622C265.641 63.5256 265.659 63.6994 265.674 63.8908C265.694 64.0783 265.704 64.2502 265.704 64.4064V67.049H264.321V57.6857H265.446L265.639 58.5822H265.704C265.825 58.3986 265.971 58.2287 266.143 58.0724C266.319 57.9162 266.53 57.7932 266.776 57.7033C267.026 57.6096 267.317 57.5627 267.649 57.5627ZM267.28 58.6877C266.901 58.6877 266.596 58.7639 266.366 58.9162C266.139 59.0646 265.973 59.2892 265.868 59.59C265.766 59.8908 265.712 60.2678 265.704 60.7209V60.9142C265.704 61.3947 265.753 61.8029 265.85 62.1389C265.952 62.4709 266.118 62.7248 266.348 62.9006C266.583 63.0724 266.899 63.1584 267.297 63.1584C267.633 63.1584 267.911 63.0666 268.13 62.883C268.352 62.6994 268.518 62.4377 268.628 62.0978C268.737 61.758 268.792 61.3576 268.792 60.8967C268.792 60.1974 268.667 59.6545 268.417 59.2678C268.171 58.881 267.792 58.6877 267.28 58.6877Z" fill="#B71C1C"/>
<path d="M231.5 50.9167C230.241 50.9167 228.995 51.1646 227.833 51.6462C226.67 52.1278 225.613 52.8337 224.724 53.7236C222.926 55.5208 221.917 57.9584 221.917 60.5C221.917 63.0417 222.926 65.4792 224.724 67.2765C225.613 68.1664 226.67 68.8723 227.833 69.3539C228.995 69.8355 230.241 70.0834 231.5 70.0834C234.042 70.0834 236.479 69.0737 238.276 67.2765C240.074 65.4792 241.083 63.0417 241.083 60.5C241.083 59.2415 240.835 57.9953 240.354 56.8326C239.872 55.6699 239.166 54.6135 238.276 53.7236C237.387 52.8337 236.33 52.1278 235.167 51.6462C234.005 51.1646 232.758 50.9167 231.5 50.9167ZM231.5 52.8334C235.726 52.8334 239.167 56.2738 239.167 60.5C239.167 64.7263 235.726 68.1667 231.5 68.1667C227.274 68.1667 223.833 64.7263 223.833 60.5C223.833 56.2738 227.274 52.8334 231.5 52.8334ZM228.625 57.625V63.375H234.375V57.625" fill="#B71C1C"/>
<rect x="214.5" y="93.5" width="71" height="24" rx="12" fill="#B71C1C" stroke="#B71C1C"/>
<path d="M247.739 106.84C247.739 107.348 247.614 107.785 247.364 108.153C247.118 108.52 246.762 108.801 246.297 108.996C245.837 109.192 245.286 109.289 244.645 109.289C244.333 109.289 244.034 109.272 243.749 109.237C243.464 109.201 243.194 109.151 242.94 109.084C242.69 109.014 242.462 108.93 242.255 108.832V107.508C242.602 107.66 242.991 107.799 243.421 107.924C243.85 108.045 244.288 108.106 244.733 108.106C245.096 108.106 245.397 108.059 245.635 107.965C245.878 107.867 246.057 107.731 246.174 107.555C246.292 107.375 246.35 107.166 246.35 106.928C246.35 106.674 246.282 106.459 246.145 106.283C246.008 106.108 245.801 105.947 245.524 105.803C245.251 105.654 244.907 105.496 244.493 105.328C244.212 105.215 243.942 105.086 243.684 104.942C243.43 104.797 243.204 104.627 243.005 104.432C242.805 104.237 242.647 104.006 242.53 103.74C242.417 103.471 242.36 103.154 242.36 102.791C242.36 102.307 242.475 101.893 242.706 101.549C242.94 101.205 243.268 100.942 243.69 100.758C244.116 100.574 244.612 100.483 245.178 100.483C245.628 100.483 246.049 100.529 246.444 100.623C246.842 100.717 247.233 100.85 247.616 101.022L247.171 102.153C246.819 102.008 246.477 101.893 246.145 101.807C245.817 101.721 245.481 101.678 245.137 101.678C244.84 101.678 244.589 101.723 244.381 101.813C244.174 101.903 244.016 102.029 243.907 102.194C243.801 102.354 243.749 102.545 243.749 102.768C243.749 103.018 243.809 103.229 243.93 103.401C244.055 103.569 244.247 103.723 244.505 103.863C244.766 104.004 245.102 104.16 245.512 104.332C245.985 104.528 246.385 104.733 246.714 104.947C247.046 105.162 247.299 105.42 247.475 105.721C247.651 106.018 247.739 106.391 247.739 106.84ZM251.665 108.176C251.844 108.176 252.022 108.16 252.198 108.129C252.374 108.094 252.534 108.053 252.678 108.006V109.049C252.526 109.115 252.329 109.172 252.087 109.219C251.844 109.266 251.592 109.289 251.331 109.289C250.964 109.289 250.633 109.229 250.34 109.108C250.047 108.983 249.815 108.77 249.643 108.469C249.471 108.168 249.385 107.752 249.385 107.221V103.735H248.501V103.119L249.45 102.633L249.901 101.244H250.768V102.686H252.626V103.735H250.768V107.203C250.768 107.531 250.85 107.776 251.014 107.936C251.178 108.096 251.395 108.176 251.665 108.176ZM259.739 105.914C259.739 106.453 259.669 106.932 259.528 107.35C259.387 107.768 259.182 108.121 258.913 108.41C258.643 108.695 258.319 108.914 257.94 109.067C257.561 109.215 257.133 109.289 256.657 109.289C256.212 109.289 255.803 109.215 255.432 109.067C255.061 108.914 254.739 108.695 254.465 108.41C254.196 108.121 253.987 107.768 253.839 107.35C253.69 106.932 253.616 106.453 253.616 105.914C253.616 105.199 253.739 104.594 253.985 104.098C254.235 103.598 254.59 103.217 255.051 102.955C255.512 102.694 256.061 102.563 256.698 102.563C257.296 102.563 257.823 102.694 258.28 102.955C258.737 103.217 259.094 103.598 259.352 104.098C259.61 104.598 259.739 105.203 259.739 105.914ZM255.034 105.914C255.034 106.387 255.09 106.791 255.204 107.127C255.321 107.463 255.501 107.721 255.743 107.901C255.985 108.076 256.297 108.164 256.68 108.164C257.063 108.164 257.376 108.076 257.618 107.901C257.86 107.721 258.038 107.463 258.151 107.127C258.264 106.791 258.321 106.387 258.321 105.914C258.321 105.442 258.264 105.041 258.151 104.713C258.038 104.381 257.86 104.129 257.618 103.957C257.376 103.781 257.061 103.694 256.674 103.694C256.104 103.694 255.688 103.885 255.426 104.268C255.165 104.651 255.034 105.199 255.034 105.914ZM264.649 102.563C265.419 102.563 266.036 102.844 266.501 103.406C266.969 103.969 267.204 104.805 267.204 105.914C267.204 106.649 267.094 107.268 266.876 107.772C266.661 108.272 266.358 108.651 265.967 108.908C265.581 109.162 265.13 109.289 264.614 109.289C264.286 109.289 264.001 109.246 263.758 109.16C263.516 109.074 263.309 108.963 263.137 108.826C262.965 108.686 262.821 108.533 262.704 108.369H262.622C262.641 108.526 262.659 108.699 262.674 108.891C262.694 109.078 262.704 109.25 262.704 109.406V112.049H261.321V102.686H262.446L262.639 103.582H262.704C262.825 103.399 262.971 103.229 263.143 103.072C263.319 102.916 263.53 102.793 263.776 102.703C264.026 102.61 264.317 102.563 264.649 102.563ZM264.28 103.688C263.901 103.688 263.596 103.764 263.366 103.916C263.139 104.065 262.973 104.289 262.868 104.59C262.766 104.891 262.712 105.268 262.704 105.721V105.914C262.704 106.395 262.753 106.803 262.85 107.139C262.952 107.471 263.118 107.725 263.348 107.901C263.583 108.072 263.899 108.158 264.297 108.158C264.633 108.158 264.911 108.067 265.13 107.883C265.352 107.699 265.518 107.438 265.628 107.098C265.737 106.758 265.792 106.358 265.792 105.897C265.792 105.197 265.667 104.654 265.417 104.268C265.171 103.881 264.792 103.688 264.28 103.688Z" fill="#FFCDD2"/>
<path d="M228.5 95.9167C227.241 95.9167 225.995 96.1646 224.833 96.6462C223.67 97.1278 222.613 97.8337 221.724 98.7236C219.926 100.521 218.917 102.958 218.917 105.5C218.917 108.042 219.926 110.479 221.724 112.276C222.613 113.166 223.67 113.872 224.833 114.354C225.995 114.835 227.241 115.083 228.5 115.083C231.042 115.083 233.479 114.074 235.276 112.276C237.074 110.479 238.083 108.042 238.083 105.5C238.083 104.242 237.835 102.995 237.354 101.833C236.872 100.67 236.166 99.6135 235.276 98.7236C234.387 97.8337 233.33 97.1278 232.167 96.6462C231.005 96.1646 229.758 95.9167 228.5 95.9167ZM228.5 97.8334C232.726 97.8334 236.167 101.274 236.167 105.5C236.167 109.726 232.726 113.167 228.5 113.167C224.274 113.167 220.833 109.726 220.833 105.5C220.833 101.274 224.274 97.8334 228.5 97.8334ZM225.625 102.625V108.375H231.375V102.625" fill="#FFCDD2"/>
<rect x="120.5" y="93.5" width="71" height="24" rx="12" fill="#F57F17" stroke="#FB8C00"/>
<path d="M149.747 100.606C150.852 100.606 151.659 100.832 152.167 101.285C152.674 101.738 152.928 102.373 152.928 103.19C152.928 103.561 152.87 103.914 152.753 104.25C152.639 104.582 152.452 104.877 152.19 105.135C151.928 105.389 151.583 105.59 151.153 105.738C150.727 105.887 150.202 105.961 149.577 105.961H148.663V109.172H147.256V100.606H149.747ZM149.653 101.772H148.663V104.789H149.43C149.872 104.789 150.247 104.738 150.555 104.637C150.864 104.531 151.098 104.365 151.258 104.139C151.419 103.912 151.499 103.613 151.499 103.242C151.499 102.746 151.348 102.377 151.047 102.135C150.751 101.893 150.286 101.772 149.653 101.772ZM157.042 102.563C157.862 102.563 158.481 102.744 158.899 103.108C159.321 103.471 159.532 104.037 159.532 104.807V109.172H158.553L158.29 108.252H158.243C158.059 108.487 157.87 108.68 157.674 108.832C157.479 108.985 157.253 109.098 156.995 109.172C156.741 109.25 156.43 109.289 156.063 109.289C155.676 109.289 155.331 109.219 155.026 109.078C154.721 108.934 154.481 108.715 154.305 108.422C154.13 108.129 154.042 107.758 154.042 107.309C154.042 106.641 154.29 106.139 154.786 105.803C155.286 105.467 156.04 105.281 157.047 105.246L158.172 105.205V104.865C158.172 104.416 158.067 104.096 157.856 103.904C157.649 103.713 157.356 103.617 156.977 103.617C156.653 103.617 156.339 103.664 156.034 103.758C155.729 103.852 155.432 103.967 155.143 104.104L154.698 103.131C155.014 102.963 155.374 102.826 155.776 102.721C156.182 102.615 156.604 102.563 157.042 102.563ZM158.167 106.072L157.329 106.102C156.641 106.125 156.159 106.242 155.881 106.453C155.604 106.664 155.465 106.953 155.465 107.32C155.465 107.641 155.561 107.875 155.753 108.024C155.944 108.168 156.196 108.24 156.508 108.24C156.985 108.24 157.38 108.106 157.692 107.836C158.008 107.563 158.167 107.162 158.167 106.635V106.072ZM167.114 102.686V109.172H166.03L165.842 108.299H165.766C165.63 108.522 165.456 108.707 165.245 108.856C165.034 109 164.799 109.108 164.542 109.178C164.284 109.252 164.012 109.289 163.727 109.289C163.239 109.289 162.821 109.207 162.473 109.043C162.13 108.875 161.866 108.617 161.682 108.27C161.499 107.922 161.407 107.473 161.407 106.922V102.686H162.79V106.664C162.79 107.168 162.891 107.545 163.094 107.795C163.301 108.045 163.622 108.17 164.055 108.17C164.473 108.17 164.805 108.084 165.051 107.912C165.297 107.74 165.471 107.487 165.573 107.151C165.678 106.815 165.731 106.403 165.731 105.914V102.686H167.114ZM173.448 107.32C173.448 107.746 173.344 108.106 173.137 108.399C172.93 108.692 172.628 108.914 172.229 109.067C171.835 109.215 171.35 109.289 170.776 109.289C170.323 109.289 169.932 109.256 169.604 109.19C169.28 109.127 168.973 109.029 168.684 108.897V107.707C168.993 107.852 169.339 107.977 169.721 108.082C170.108 108.188 170.473 108.24 170.817 108.24C171.27 108.24 171.596 108.17 171.796 108.029C171.995 107.885 172.094 107.694 172.094 107.455C172.094 107.315 172.053 107.19 171.971 107.08C171.893 106.967 171.745 106.852 171.526 106.735C171.311 106.613 170.995 106.469 170.577 106.301C170.167 106.137 169.821 105.973 169.54 105.809C169.258 105.645 169.046 105.447 168.901 105.217C168.756 104.983 168.684 104.684 168.684 104.32C168.684 103.746 168.911 103.311 169.364 103.014C169.821 102.713 170.424 102.563 171.174 102.563C171.573 102.563 171.948 102.604 172.299 102.686C172.655 102.764 173.003 102.879 173.342 103.031L172.909 104.069C172.616 103.94 172.321 103.834 172.024 103.752C171.731 103.666 171.432 103.623 171.128 103.623C170.772 103.623 170.501 103.678 170.313 103.787C170.13 103.897 170.038 104.053 170.038 104.256C170.038 104.408 170.083 104.537 170.172 104.643C170.262 104.748 170.417 104.854 170.635 104.959C170.858 105.065 171.167 105.195 171.561 105.352C171.948 105.5 172.282 105.656 172.563 105.82C172.848 105.981 173.067 106.178 173.219 106.412C173.372 106.647 173.448 106.949 173.448 107.32ZM177.52 102.563C178.098 102.563 178.594 102.682 179.008 102.92C179.422 103.158 179.741 103.496 179.964 103.934C180.186 104.371 180.297 104.895 180.297 105.504V106.242H175.967C175.983 106.871 176.151 107.356 176.471 107.695C176.796 108.035 177.249 108.205 177.831 108.205C178.245 108.205 178.616 108.166 178.944 108.088C179.276 108.006 179.618 107.887 179.969 107.731V108.85C179.645 109.002 179.315 109.113 178.979 109.184C178.643 109.254 178.241 109.289 177.772 109.289C177.135 109.289 176.575 109.166 176.09 108.92C175.61 108.67 175.233 108.299 174.96 107.807C174.69 107.315 174.555 106.703 174.555 105.973C174.555 105.246 174.678 104.629 174.924 104.121C175.171 103.613 175.516 103.227 175.962 102.961C176.407 102.695 176.926 102.563 177.52 102.563ZM177.52 103.6C177.087 103.6 176.735 103.74 176.465 104.022C176.2 104.303 176.044 104.715 175.997 105.258H178.95C178.946 104.934 178.891 104.647 178.786 104.397C178.684 104.147 178.528 103.951 178.317 103.811C178.11 103.67 177.844 103.6 177.52 103.6Z" fill="#FFF59D"/>
<path d="M133.647 109.3V101.7H135.442V109.3H133.647ZM130.058 109.3V101.7H131.853V109.3H130.058ZM132.75 96C133.928 96 135.095 96.2457 136.184 96.7231C137.272 97.2006 138.261 97.9003 139.094 98.7825C139.928 99.6646 140.588 100.712 141.039 101.865C141.49 103.017 141.722 104.252 141.722 105.5C141.722 108.02 140.777 110.436 139.094 112.218C137.412 113.999 135.13 115 132.75 115C131.572 115 130.405 114.754 129.317 114.277C128.228 113.799 127.239 113.1 126.406 112.218C124.723 110.436 123.778 108.02 123.778 105.5C123.778 102.98 124.723 100.564 126.406 98.7825C128.088 97.0009 130.37 96 132.75 96ZM132.75 97.9C130.846 97.9 129.021 98.7007 127.675 100.126C126.329 101.551 125.572 103.484 125.572 105.5C125.572 107.516 126.329 109.449 127.675 110.874C129.021 112.299 130.846 113.1 132.75 113.1C134.654 113.1 136.479 112.299 137.826 110.874C139.172 109.449 139.928 107.516 139.928 105.5C139.928 103.484 139.172 101.551 137.826 100.126C136.479 98.7007 134.654 97.9 132.75 97.9Z" fill="#FFF9C4"/>
<rect x="21.5" y="93.5" width="71" height="24" rx="12" fill="#1B5E20" stroke="#1B5E20"/>
<path d="M54.7389 106.84C54.7389 107.348 54.6139 107.785 54.3639 108.153C54.1178 108.52 53.7623 108.801 53.2975 108.996C52.8365 109.192 52.2858 109.289 51.6451 109.289C51.3326 109.289 51.0338 109.272 50.7487 109.237C50.4635 109.201 50.194 109.151 49.9401 109.084C49.6901 109.014 49.4615 108.93 49.2545 108.832V107.508C49.6022 107.66 49.9908 107.799 50.4205 107.924C50.8502 108.045 51.2877 108.106 51.733 108.106C52.0963 108.106 52.3971 108.059 52.6354 107.965C52.8776 107.867 53.0573 107.731 53.1744 107.555C53.2916 107.375 53.3502 107.166 53.3502 106.928C53.3502 106.674 53.2819 106.459 53.1451 106.283C53.0084 106.108 52.8014 105.947 52.524 105.803C52.2506 105.654 51.9069 105.496 51.4928 105.328C51.2115 105.215 50.942 105.086 50.6842 104.942C50.4303 104.797 50.2037 104.627 50.0045 104.432C49.8053 104.237 49.6471 104.006 49.5299 103.74C49.4166 103.471 49.36 103.154 49.36 102.791C49.36 102.307 49.4752 101.893 49.7057 101.549C49.9401 101.205 50.2682 100.942 50.6901 100.758C51.1158 100.574 51.6119 100.483 52.1783 100.483C52.6276 100.483 53.0494 100.529 53.444 100.623C53.8424 100.717 54.233 100.85 54.6158 101.022L54.1705 102.153C53.819 102.008 53.4772 101.893 53.1451 101.807C52.817 101.721 52.4811 101.678 52.1373 101.678C51.8405 101.678 51.5885 101.723 51.3815 101.813C51.1744 101.903 51.0162 102.029 50.9069 102.194C50.8014 102.354 50.7487 102.545 50.7487 102.768C50.7487 103.018 50.8092 103.229 50.9303 103.401C51.0553 103.569 51.2467 103.723 51.5045 103.863C51.7662 104.004 52.1022 104.16 52.5123 104.332C52.985 104.528 53.3854 104.733 53.7135 104.947C54.0455 105.162 54.2994 105.42 54.4752 105.721C54.651 106.018 54.7389 106.391 54.7389 106.84ZM58.6647 108.176C58.8444 108.176 59.0221 108.16 59.1979 108.129C59.3737 108.094 59.5338 108.053 59.6783 108.006V109.049C59.526 109.115 59.3287 109.172 59.0865 109.219C58.8444 109.266 58.5924 109.289 58.3307 109.289C57.9635 109.289 57.6334 109.229 57.3405 109.108C57.0475 108.983 56.8151 108.77 56.6432 108.469C56.4713 108.168 56.3854 107.752 56.3854 107.221V103.735H55.5006V103.119L56.4498 102.633L56.901 101.244H57.7682V102.686H59.6256V103.735H57.7682V107.203C57.7682 107.531 57.8502 107.776 58.0143 107.936C58.1783 108.096 58.3951 108.176 58.6647 108.176ZM63.5397 102.563C64.36 102.563 64.9791 102.744 65.3971 103.108C65.819 103.471 66.0299 104.037 66.0299 104.807V109.172H65.0514L64.7877 108.252H64.7408C64.5573 108.487 64.3678 108.68 64.1725 108.832C63.9772 108.985 63.7506 109.098 63.4928 109.172C63.2389 109.25 62.9283 109.289 62.5612 109.289C62.1744 109.289 61.8287 109.219 61.524 109.078C61.2194 108.934 60.9791 108.715 60.8033 108.422C60.6276 108.129 60.5397 107.758 60.5397 107.309C60.5397 106.641 60.7877 106.139 61.2838 105.803C61.7838 105.467 62.5377 105.281 63.5455 105.246L64.6705 105.205V104.865C64.6705 104.416 64.5651 104.096 64.3541 103.904C64.1471 103.713 63.8541 103.617 63.4752 103.617C63.151 103.617 62.8365 103.664 62.5319 103.758C62.2272 103.852 61.9303 103.967 61.6412 104.104L61.1959 103.131C61.5123 102.963 61.8717 102.826 62.274 102.721C62.6803 102.615 63.1022 102.563 63.5397 102.563ZM64.6647 106.072L63.8268 106.102C63.1393 106.125 62.6569 106.242 62.3795 106.453C62.1022 106.664 61.9635 106.953 61.9635 107.32C61.9635 107.641 62.0592 107.875 62.2506 108.024C62.442 108.168 62.694 108.24 63.0065 108.24C63.483 108.24 63.8776 108.106 64.1901 107.836C64.5065 107.563 64.6647 107.162 64.6647 106.635V106.072ZM71.2448 102.563C71.3541 102.563 71.4733 102.569 71.6022 102.58C71.7311 102.592 71.8424 102.608 71.9362 102.627L71.8073 103.916C71.7252 103.893 71.6237 103.875 71.5026 103.863C71.3854 103.852 71.2799 103.846 71.1862 103.846C70.9401 103.846 70.7057 103.887 70.483 103.969C70.2604 104.047 70.0631 104.168 69.8912 104.332C69.7194 104.492 69.5846 104.694 69.4869 104.936C69.3893 105.178 69.3405 105.459 69.3405 105.779V109.172H67.9576V102.686H69.0358L69.2233 103.828H69.2877C69.4166 103.598 69.5768 103.387 69.7682 103.195C69.9596 103.004 70.1783 102.852 70.4244 102.738C70.6744 102.621 70.9479 102.563 71.2448 102.563ZM75.5514 108.176C75.7311 108.176 75.9088 108.16 76.0846 108.129C76.2604 108.094 76.4205 108.053 76.5651 108.006V109.049C76.4127 109.115 76.2155 109.172 75.9733 109.219C75.7311 109.266 75.4791 109.289 75.2174 109.289C74.8502 109.289 74.5201 109.229 74.2272 109.108C73.9342 108.983 73.7018 108.77 73.5299 108.469C73.358 108.168 73.2721 107.752 73.2721 107.221V103.735H72.3873V103.119L73.3365 102.633L73.7877 101.244H74.6549V102.686H76.5123V103.735H74.6549V107.203C74.6549 107.531 74.7369 107.776 74.901 107.936C75.0651 108.096 75.2819 108.176 75.5514 108.176Z" fill="#9CCC65"/>
<path d="M35.5 113.167C31.2737 113.167 27.8333 109.726 27.8333 105.5C27.8333 101.274 31.2737 97.8334 35.5 97.8334C39.7262 97.8334 43.1666 101.274 43.1666 105.5C43.1666 109.726 39.7262 113.167 35.5 113.167ZM35.5 95.9167C34.2415 95.9167 32.9953 96.1646 31.8326 96.6462C30.6699 97.1278 29.6134 97.8337 28.7235 98.7236C26.9263 100.521 25.9166 102.958 25.9166 105.5C25.9166 108.042 26.9263 110.479 28.7235 112.276C29.6134 113.166 30.6699 113.872 31.8326 114.354C32.9953 114.835 34.2415 115.083 35.5 115.083C38.0416 115.083 40.4792 114.074 42.2764 112.276C44.0736 110.479 45.0833 108.042 45.0833 105.5C45.0833 104.242 44.8354 102.995 44.3538 101.833C43.8722 100.67 43.1663 99.6135 42.2764 98.7236C41.3865 97.8337 40.33 97.1278 39.1673 96.6462C38.0046 96.1646 36.7585 95.9167 35.5 95.9167ZM33.5833 109.813L39.3333 105.5L33.5833 101.188V109.813Z" fill="#AED581"/>
<rect x="0.5" y="30.5" width="312" height="107" rx="15.5" stroke="#757575" stroke-dasharray="5 5"/>
<path d="M3.07227 12.084L4.77148 5.46875H5.66211L5.5625 7.17383L3.74609 14H2.82031L3.07227 12.084ZM1.80078 5.46875L3.17773 12.0312L3.30078 14H2.31641L0.341797 5.46875H1.80078ZM7.58984 12.0137L8.94922 5.46875H10.4141L8.43945 14H7.45508L7.58984 12.0137ZM6.00781 5.46875L7.68945 12.1016L7.93555 14H7.00977L5.22266 7.17383L5.12891 5.46875H6.00781ZM11.1562 10.9004V10.7656C11.1562 10.3086 11.2227 9.88477 11.3555 9.49414C11.4883 9.09961 11.6797 8.75781 11.9297 8.46875C12.1836 8.17578 12.4922 7.94922 12.8555 7.78906C13.2227 7.625 13.6367 7.54297 14.0977 7.54297C14.5625 7.54297 14.9766 7.625 15.3398 7.78906C15.707 7.94922 16.0176 8.17578 16.2715 8.46875C16.5254 8.75781 16.7188 9.09961 16.8516 9.49414C16.9844 9.88477 17.0508 10.3086 17.0508 10.7656V10.9004C17.0508 11.3574 16.9844 11.7812 16.8516 12.1719C16.7188 12.5625 16.5254 12.9043 16.2715 13.1973C16.0176 13.4863 15.709 13.7129 15.3457 13.877C14.9824 14.0371 14.5703 14.1172 14.1094 14.1172C13.6445 14.1172 13.2285 14.0371 12.8613 13.877C12.498 13.7129 12.1895 13.4863 11.9355 13.1973C11.6816 12.9043 11.4883 12.5625 11.3555 12.1719C11.2227 11.7812 11.1562 11.3574 11.1562 10.9004ZM12.5684 10.7656V10.9004C12.5684 11.1855 12.5977 11.4551 12.6562 11.709C12.7148 11.9629 12.8066 12.1855 12.9316 12.377C13.0566 12.5684 13.2168 12.7188 13.4121 12.8281C13.6074 12.9375 13.8398 12.9922 14.1094 12.9922C14.3711 12.9922 14.5977 12.9375 14.7891 12.8281C14.9844 12.7188 15.1445 12.5684 15.2695 12.377C15.3945 12.1855 15.4863 11.9629 15.5449 11.709C15.6074 11.4551 15.6387 11.1855 15.6387 10.9004V10.7656C15.6387 10.4844 15.6074 10.2188 15.5449 9.96875C15.4863 9.71484 15.3926 9.49023 15.2637 9.29492C15.1387 9.09961 14.9785 8.94727 14.7832 8.83789C14.5918 8.72461 14.3633 8.66797 14.0977 8.66797C13.832 8.66797 13.6016 8.72461 13.4062 8.83789C13.2148 8.94727 13.0566 9.09961 12.9316 9.29492C12.8066 9.49023 12.7148 9.71484 12.6562 9.96875C12.5977 10.2188 12.5684 10.4844 12.5684 10.7656ZM19.9023 8.86719V14H18.4902V7.66016H19.8379L19.9023 8.86719ZM21.8418 7.61914L21.8301 8.93164C21.7441 8.91602 21.6504 8.9043 21.5488 8.89648C21.4512 8.88867 21.3535 8.88477 21.2559 8.88477C21.0137 8.88477 20.8008 8.91992 20.6172 8.99023C20.4336 9.05664 20.2793 9.1543 20.1543 9.2832C20.0332 9.4082 19.9395 9.56055 19.873 9.74023C19.8066 9.91992 19.7676 10.1211 19.7559 10.3438L19.4336 10.3672C19.4336 9.96875 19.4727 9.59961 19.5508 9.25977C19.6289 8.91992 19.7461 8.62109 19.9023 8.36328C20.0625 8.10547 20.2617 7.9043 20.5 7.75977C20.7422 7.61523 21.0215 7.54297 21.3379 7.54297C21.4238 7.54297 21.5156 7.55078 21.6133 7.56641C21.7148 7.58203 21.791 7.59961 21.8418 7.61914ZM24.4004 5V14H22.9824V5H24.4004ZM28.3379 7.66016L25.5781 10.7188L24.0664 12.2656L23.6973 11.0703L24.8398 9.6582L26.6328 7.66016H28.3379ZM26.9375 14L24.8809 11.0234L25.7715 10.0332L28.5723 14H26.9375ZM31.3945 14H29.9824V7.0918C29.9824 6.61133 30.0762 6.20703 30.2637 5.87891C30.4551 5.55078 30.7305 5.30273 31.0898 5.13477C31.4492 4.96289 31.8828 4.87695 32.3906 4.87695C32.5938 4.87695 32.8477 4.89062 33.1523 4.91797C33.4609 4.94531 33.7812 4.98047 34.1133 5.02344C34.4453 5.0625 34.75 5.10352 35.0273 5.14648L34.418 6.23047C34.0547 6.16406 33.7168 6.11328 33.4043 6.07812C33.0918 6.03906 32.8086 6.01953 32.5547 6.01953C32.3047 6.01953 32.0938 6.0625 31.9219 6.14844C31.75 6.23047 31.6191 6.35156 31.5293 6.51172C31.4395 6.66797 31.3945 6.86133 31.3945 7.0918V14ZM33.6152 14V5.14648H35.0273V14H33.6152ZM32.7012 7.66016V8.69141H29.0098V7.66016H32.7012ZM36.5781 10.9004V10.7656C36.5781 10.3086 36.6445 9.88477 36.7773 9.49414C36.9102 9.09961 37.1016 8.75781 37.3516 8.46875C37.6055 8.17578 37.9141 7.94922 38.2773 7.78906C38.6445 7.625 39.0586 7.54297 39.5195 7.54297C39.9844 7.54297 40.3984 7.625 40.7617 7.78906C41.1289 7.94922 41.4395 8.17578 41.6934 8.46875C41.9473 8.75781 42.1406 9.09961 42.2734 9.49414C42.4062 9.88477 42.4727 10.3086 42.4727 10.7656V10.9004C42.4727 11.3574 42.4062 11.7812 42.2734 12.1719C42.1406 12.5625 41.9473 12.9043 41.6934 13.1973C41.4395 13.4863 41.1309 13.7129 40.7676 13.877C40.4043 14.0371 39.9922 14.1172 39.5312 14.1172C39.0664 14.1172 38.6504 14.0371 38.2832 13.877C37.9199 13.7129 37.6113 13.4863 37.3574 13.1973C37.1035 12.9043 36.9102 12.5625 36.7773 12.1719C36.6445 11.7812 36.5781 11.3574 36.5781 10.9004ZM37.9902 10.7656V10.9004C37.9902 11.1855 38.0195 11.4551 38.0781 11.709C38.1367 11.9629 38.2285 12.1855 38.3535 12.377C38.4785 12.5684 38.6387 12.7188 38.834 12.8281C39.0293 12.9375 39.2617 12.9922 39.5312 12.9922C39.793 12.9922 40.0195 12.9375 40.2109 12.8281C40.4062 12.7188 40.5664 12.5684 40.6914 12.377C40.8164 12.1855 40.9082 11.9629 40.9668 11.709C41.0293 11.4551 41.0605 11.1855 41.0605 10.9004V10.7656C41.0605 10.4844 41.0293 10.2188 40.9668 9.96875C40.9082 9.71484 40.8145 9.49023 40.6855 9.29492C40.5605 9.09961 40.4004 8.94727 40.2051 8.83789C40.0137 8.72461 39.7852 8.66797 39.5195 8.66797C39.2539 8.66797 39.0234 8.72461 38.8281 8.83789C38.6367 8.94727 38.4785 9.09961 38.3535 9.29492C38.2285 9.49023 38.1367 9.71484 38.0781 9.96875C38.0195 10.2188 37.9902 10.4844 37.9902 10.7656ZM45.6289 12.5938L47.0938 7.66016H47.9961L47.75 9.13672L46.2734 14H45.4648L45.6289 12.5938ZM44.7676 7.66016L45.9102 12.6172L46.0039 14H45.1016L43.3848 7.66016H44.7676ZM49.3672 12.5586L50.4746 7.66016H51.8516L50.1406 14H49.2383L49.3672 12.5586ZM48.1484 7.66016L49.5957 12.5352L49.7773 14H48.9688L47.4746 9.13086L47.2285 7.66016H48.1484ZM59.7637 6.60547L57.2148 14H55.6738L58.8848 5.46875H59.8691L59.7637 6.60547ZM61.8965 14L59.3418 6.60547L59.2305 5.46875H60.2207L63.4434 14H61.8965ZM61.7734 10.8359V12.002H57.1328V10.8359H61.7734ZM67.0977 12.9922C67.3281 12.9922 67.5352 12.9473 67.7188 12.8574C67.9062 12.7637 68.0566 12.6348 68.1699 12.4707C68.2871 12.3066 68.3516 12.1172 68.3633 11.9023H69.6934C69.6855 12.3125 69.5645 12.6855 69.3301 13.0215C69.0957 13.3574 68.7852 13.625 68.3984 13.8242C68.0117 14.0195 67.584 14.1172 67.1152 14.1172C66.6309 14.1172 66.209 14.0352 65.8496 13.8711C65.4902 13.7031 65.1914 13.4727 64.9531 13.1797C64.7148 12.8867 64.5352 12.5488 64.4141 12.166C64.2969 11.7832 64.2383 11.373 64.2383 10.9355V10.7305C64.2383 10.293 64.2969 9.88281 64.4141 9.5C64.5352 9.11328 64.7148 8.77344 64.9531 8.48047C65.1914 8.1875 65.4902 7.95898 65.8496 7.79492C66.209 7.62695 66.6289 7.54297 67.1094 7.54297C67.6172 7.54297 68.0625 7.64453 68.4453 7.84766C68.8281 8.04688 69.1289 8.32617 69.3477 8.68555C69.5703 9.04102 69.6855 9.45508 69.6934 9.92773H68.3633C68.3516 9.69336 68.293 9.48242 68.1875 9.29492C68.0859 9.10352 67.9414 8.95117 67.7539 8.83789C67.5703 8.72461 67.3496 8.66797 67.0918 8.66797C66.8066 8.66797 66.5703 8.72656 66.3828 8.84375C66.1953 8.95703 66.0488 9.11328 65.9434 9.3125C65.8379 9.50781 65.7617 9.72852 65.7148 9.97461C65.6719 10.2168 65.6504 10.4688 65.6504 10.7305V10.9355C65.6504 11.1973 65.6719 11.4512 65.7148 11.6973C65.7578 11.9434 65.832 12.1641 65.9375 12.3594C66.0469 12.5508 66.1953 12.7051 66.3828 12.8223C66.5703 12.9355 66.8086 12.9922 67.0977 12.9922ZM73.9336 7.66016V8.69141H70.3594V7.66016H73.9336ZM71.3906 6.10742H72.8027V12.248C72.8027 12.4434 72.8301 12.5938 72.8848 12.6992C72.9434 12.8008 73.0234 12.8691 73.125 12.9043C73.2266 12.9395 73.3457 12.957 73.4824 12.957C73.5801 12.957 73.6738 12.9512 73.7637 12.9395C73.8535 12.9277 73.9258 12.916 73.9805 12.9043L73.9863 13.9824C73.8691 14.0176 73.7324 14.0488 73.5762 14.0762C73.4238 14.1035 73.248 14.1172 73.0488 14.1172C72.7246 14.1172 72.4375 14.0605 72.1875 13.9473C71.9375 13.8301 71.7422 13.6406 71.6016 13.3789C71.4609 13.1172 71.3906 12.7695 71.3906 12.3359V6.10742ZM76.7852 7.66016V14H75.3672V7.66016H76.7852ZM75.2734 5.99609C75.2734 5.78125 75.3438 5.60352 75.4844 5.46289C75.6289 5.31836 75.8281 5.24609 76.082 5.24609C76.332 5.24609 76.5293 5.31836 76.6738 5.46289C76.8184 5.60352 76.8906 5.78125 76.8906 5.99609C76.8906 6.20703 76.8184 6.38281 76.6738 6.52344C76.5293 6.66406 76.332 6.73438 76.082 6.73438C75.8281 6.73438 75.6289 6.66406 75.4844 6.52344C75.3438 6.38281 75.2734 6.20703 75.2734 5.99609ZM78.3125 10.9004V10.7656C78.3125 10.3086 78.3789 9.88477 78.5117 9.49414C78.6445 9.09961 78.8359 8.75781 79.0859 8.46875C79.3398 8.17578 79.6484 7.94922 80.0117 7.78906C80.3789 7.625 80.793 7.54297 81.2539 7.54297C81.7188 7.54297 82.1328 7.625 82.4961 7.78906C82.8633 7.94922 83.1738 8.17578 83.4277 8.46875C83.6816 8.75781 83.875 9.09961 84.0078 9.49414C84.1406 9.88477 84.207 10.3086 84.207 10.7656V10.9004C84.207 11.3574 84.1406 11.7812 84.0078 12.1719C83.875 12.5625 83.6816 12.9043 83.4277 13.1973C83.1738 13.4863 82.8652 13.7129 82.502 13.877C82.1387 14.0371 81.7266 14.1172 81.2656 14.1172C80.8008 14.1172 80.3848 14.0371 80.0176 13.877C79.6543 13.7129 79.3457 13.4863 79.0918 13.1973C78.8379 12.9043 78.6445 12.5625 78.5117 12.1719C78.3789 11.7812 78.3125 11.3574 78.3125 10.9004ZM79.7246 10.7656V10.9004C79.7246 11.1855 79.7539 11.4551 79.8125 11.709C79.8711 11.9629 79.9629 12.1855 80.0879 12.377C80.2129 12.5684 80.373 12.7188 80.5684 12.8281C80.7637 12.9375 80.9961 12.9922 81.2656 12.9922C81.5273 12.9922 81.7539 12.9375 81.9453 12.8281C82.1406 12.7188 82.3008 12.5684 82.4258 12.377C82.5508 12.1855 82.6426 11.9629 82.7012 11.709C82.7637 11.4551 82.7949 11.1855 82.7949 10.9004V10.7656C82.7949 10.4844 82.7637 10.2188 82.7012 9.96875C82.6426 9.71484 82.5488 9.49023 82.4199 9.29492C82.2949 9.09961 82.1348 8.94727 81.9395 8.83789C81.748 8.72461 81.5195 8.66797 81.2539 8.66797C80.9883 8.66797 80.7578 8.72461 80.5625 8.83789C80.3711 8.94727 80.2129 9.09961 80.0879 9.29492C79.9629 9.49023 79.8711 9.71484 79.8125 9.96875C79.7539 10.2188 79.7246 10.4844 79.7246 10.7656ZM87.041 9.01367V14H85.6289V7.66016H86.959L87.041 9.01367ZM86.7891 10.5957L86.332 10.5898C86.3359 10.1406 86.3984 9.72852 86.5195 9.35352C86.6445 8.97852 86.8164 8.65625 87.0352 8.38672C87.2578 8.11719 87.5234 7.91016 87.832 7.76562C88.1406 7.61719 88.4844 7.54297 88.8633 7.54297C89.168 7.54297 89.4434 7.58594 89.6895 7.67188C89.9395 7.75391 90.1523 7.88867 90.3281 8.07617C90.5078 8.26367 90.6445 8.50781 90.7383 8.80859C90.832 9.10547 90.8789 9.4707 90.8789 9.9043V14H89.4609V9.89844C89.4609 9.59375 89.416 9.35352 89.3262 9.17773C89.2402 8.99805 89.1133 8.87109 88.9453 8.79688C88.7812 8.71875 88.5762 8.67969 88.3301 8.67969C88.0879 8.67969 87.8711 8.73047 87.6797 8.83203C87.4883 8.93359 87.3262 9.07227 87.1934 9.24805C87.0645 9.42383 86.9648 9.62695 86.8945 9.85742C86.8242 10.0879 86.7891 10.334 86.7891 10.5957ZM99.1484 10.1445H96.9746L96.9629 9.07227H98.8613C99.1816 9.07227 99.4531 9.02539 99.6758 8.93164C99.9023 8.83398 100.074 8.69531 100.191 8.51562C100.309 8.33203 100.367 8.11133 100.367 7.85352C100.367 7.56836 100.312 7.33594 100.203 7.15625C100.094 6.97656 99.9258 6.8457 99.6992 6.76367C99.4766 6.68164 99.1914 6.64062 98.8438 6.64062H97.4199V14H95.9492V5.46875H98.8438C99.3125 5.46875 99.7305 5.51367 100.098 5.60352C100.469 5.69336 100.783 5.83398 101.041 6.02539C101.303 6.21289 101.5 6.45117 101.633 6.74023C101.77 7.0293 101.838 7.37305 101.838 7.77148C101.838 8.12305 101.754 8.44531 101.586 8.73828C101.418 9.02734 101.17 9.26367 100.842 9.44727C100.514 9.63086 100.105 9.74023 99.6172 9.77539L99.1484 10.1445ZM99.084 14H96.5117L97.1738 12.834H99.084C99.416 12.834 99.6934 12.7793 99.916 12.6699C100.139 12.5566 100.305 12.4023 100.414 12.207C100.527 12.0078 100.584 11.7754 100.584 11.5098C100.584 11.2324 100.535 10.9922 100.438 10.7891C100.34 10.582 100.186 10.4238 99.9746 10.3145C99.7637 10.2012 99.4883 10.1445 99.1484 10.1445H97.4961L97.5078 9.07227H99.6582L99.9922 9.47656C100.461 9.49219 100.846 9.5957 101.146 9.78711C101.451 9.97852 101.678 10.2266 101.826 10.5312C101.975 10.8359 102.049 11.1641 102.049 11.5156C102.049 12.0586 101.93 12.5137 101.691 12.8809C101.457 13.248 101.119 13.5273 100.678 13.7188C100.236 13.9062 99.7051 14 99.084 14ZM107.455 12.5059V7.66016H108.873V14H107.537L107.455 12.5059ZM107.654 11.1875L108.129 11.1758C108.129 11.6016 108.082 11.9941 107.988 12.3535C107.895 12.709 107.75 13.0195 107.555 13.2852C107.359 13.5469 107.109 13.752 106.805 13.9004C106.5 14.0449 106.135 14.1172 105.709 14.1172C105.4 14.1172 105.117 14.0723 104.859 13.9824C104.602 13.8926 104.379 13.7539 104.191 13.5664C104.008 13.3789 103.865 13.1348 103.764 12.834C103.662 12.5332 103.611 12.1738 103.611 11.7559V7.66016H105.023V11.7676C105.023 11.998 105.051 12.1914 105.105 12.3477C105.16 12.5 105.234 12.623 105.328 12.7168C105.422 12.8105 105.531 12.877 105.656 12.916C105.781 12.9551 105.914 12.9746 106.055 12.9746C106.457 12.9746 106.773 12.8965 107.004 12.7402C107.238 12.5801 107.404 12.3652 107.502 12.0957C107.604 11.8262 107.654 11.5234 107.654 11.1875ZM113.477 7.66016V8.69141H109.902V7.66016H113.477ZM110.934 6.10742H112.346V12.248C112.346 12.4434 112.373 12.5938 112.428 12.6992C112.486 12.8008 112.566 12.8691 112.668 12.9043C112.77 12.9395 112.889 12.957 113.025 12.957C113.123 12.957 113.217 12.9512 113.307 12.9395C113.396 12.9277 113.469 12.916 113.523 12.9043L113.529 13.9824C113.412 14.0176 113.275 14.0488 113.119 14.0762C112.967 14.1035 112.791 14.1172 112.592 14.1172C112.268 14.1172 111.98 14.0605 111.73 13.9473C111.48 13.8301 111.285 13.6406 111.145 13.3789C111.004 13.1172 110.934 12.7695 110.934 12.3359V6.10742ZM117.723 7.66016V8.69141H114.148V7.66016H117.723ZM115.18 6.10742H116.592V12.248C116.592 12.4434 116.619 12.5938 116.674 12.6992C116.732 12.8008 116.812 12.8691 116.914 12.9043C117.016 12.9395 117.135 12.957 117.271 12.957C117.369 12.957 117.463 12.9512 117.553 12.9395C117.643 12.9277 117.715 12.916 117.77 12.9043L117.775 13.9824C117.658 14.0176 117.521 14.0488 117.365 14.0762C117.213 14.1035 117.037 14.1172 116.838 14.1172C116.514 14.1172 116.227 14.0605 115.977 13.9473C115.727 13.8301 115.531 13.6406 115.391 13.3789C115.25 13.1172 115.18 12.7695 115.18 12.3359V6.10742ZM118.652 10.9004V10.7656C118.652 10.3086 118.719 9.88477 118.852 9.49414C118.984 9.09961 119.176 8.75781 119.426 8.46875C119.68 8.17578 119.988 7.94922 120.352 7.78906C120.719 7.625 121.133 7.54297 121.594 7.54297C122.059 7.54297 122.473 7.625 122.836 7.78906C123.203 7.94922 123.514 8.17578 123.768 8.46875C124.021 8.75781 124.215 9.09961 124.348 9.49414C124.48 9.88477 124.547 10.3086 124.547 10.7656V10.9004C124.547 11.3574 124.48 11.7812 124.348 12.1719C124.215 12.5625 124.021 12.9043 123.768 13.1973C123.514 13.4863 123.205 13.7129 122.842 13.877C122.479 14.0371 122.066 14.1172 121.605 14.1172C121.141 14.1172 120.725 14.0371 120.357 13.877C119.994 13.7129 119.686 13.4863 119.432 13.1973C119.178 12.9043 118.984 12.5625 118.852 12.1719C118.719 11.7812 118.652 11.3574 118.652 10.9004ZM120.064 10.7656V10.9004C120.064 11.1855 120.094 11.4551 120.152 11.709C120.211 11.9629 120.303 12.1855 120.428 12.377C120.553 12.5684 120.713 12.7188 120.908 12.8281C121.104 12.9375 121.336 12.9922 121.605 12.9922C121.867 12.9922 122.094 12.9375 122.285 12.8281C122.48 12.7188 122.641 12.5684 122.766 12.377C122.891 12.1855 122.982 11.9629 123.041 11.709C123.104 11.4551 123.135 11.1855 123.135 10.9004V10.7656C123.135 10.4844 123.104 10.2188 123.041 9.96875C122.982 9.71484 122.889 9.49023 122.76 9.29492C122.635 9.09961 122.475 8.94727 122.279 8.83789C122.088 8.72461 121.859 8.66797 121.594 8.66797C121.328 8.66797 121.098 8.72461 120.902 8.83789C120.711 8.94727 120.553 9.09961 120.428 9.29492C120.303 9.49023 120.211 9.71484 120.152 9.96875C120.094 10.2188 120.064 10.4844 120.064 10.7656ZM127.381 9.01367V14H125.969V7.66016H127.299L127.381 9.01367ZM127.129 10.5957L126.672 10.5898C126.676 10.1406 126.738 9.72852 126.859 9.35352C126.984 8.97852 127.156 8.65625 127.375 8.38672C127.598 8.11719 127.863 7.91016 128.172 7.76562C128.48 7.61719 128.824 7.54297 129.203 7.54297C129.508 7.54297 129.783 7.58594 130.029 7.67188C130.279 7.75391 130.492 7.88867 130.668 8.07617C130.848 8.26367 130.984 8.50781 131.078 8.80859C131.172 9.10547 131.219 9.4707 131.219 9.9043V14H129.801V9.89844C129.801 9.59375 129.756 9.35352 129.666 9.17773C129.58 8.99805 129.453 8.87109 129.285 8.79688C129.121 8.71875 128.916 8.67969 128.67 8.67969C128.428 8.67969 128.211 8.73047 128.02 8.83203C127.828 8.93359 127.666 9.07227 127.533 9.24805C127.404 9.42383 127.305 9.62695 127.234 9.85742C127.164 10.0879 127.129 10.334 127.129 10.5957Z" fill="#757575"/>
</svg>
